%
M48
M72
T01C0.01378
T02C0.03600
T03C0.03937
%
T01
X99370Y97081
X99370Y107081
X114370Y107081
X129370Y102081
X134370Y107081
X134370Y117081
X134370Y122081
X134370Y137081
X154370Y137081
X154370Y117081
X129370Y92081
X154370Y87081
X99370Y127081
X86743Y144395
X69370Y132081
X69370Y112081
X39370Y132081
X29370Y132081
X99370Y167081
X149370Y157081
T02
X144348Y174535
X134348Y174535
X124348Y174535
X124348Y184535
X134348Y184535
X144348Y184535
T03
X44370Y90270
X63268Y102081
X44370Y114286
M30
