G75*
%MOIN*%
%OFA0B0*%
%FSLAX25Y25*%
%IPPOS*%
%LPD*%
%AMOC8*
5,1,8,0,0,1.08239X$1,22.5*
%
%ADD10C,0.00400*%
%ADD11C,0.00512*%
%ADD12C,0.01200*%
%ADD13C,0.00600*%
%ADD14C,0.00800*%
%ADD15C,0.01000*%
%ADD16C,0.00500*%
%ADD17C,0.00200*%
%ADD18R,0.02500X0.03000*%
%ADD19R,0.11000X0.05000*%
D10*
X0002863Y0135327D02*
X0002863Y0138396D01*
X0003630Y0138396D01*
X0006699Y0135327D01*
X0007467Y0135327D01*
X0007467Y0139931D02*
X0004397Y0143000D01*
X0003630Y0143000D01*
X0002863Y0142233D01*
X0002863Y0140698D01*
X0003630Y0139931D01*
X0007467Y0139931D02*
X0007467Y0143000D01*
X0007467Y0144535D02*
X0007467Y0145302D01*
X0006699Y0145302D01*
X0006699Y0144535D01*
X0007467Y0144535D01*
X0006699Y0146837D02*
X0007467Y0147604D01*
X0007467Y0149139D01*
X0006699Y0149906D01*
X0005932Y0149906D01*
X0005165Y0149139D01*
X0005165Y0148371D01*
X0005165Y0149139D02*
X0004397Y0149906D01*
X0003630Y0149906D01*
X0002863Y0149139D01*
X0002863Y0147604D01*
X0003630Y0146837D01*
X0003630Y0151441D02*
X0004397Y0151441D01*
X0005165Y0152208D01*
X0005165Y0154510D01*
X0006699Y0154510D02*
X0003630Y0154510D01*
X0002863Y0153743D01*
X0002863Y0152208D01*
X0003630Y0151441D01*
X0006699Y0151441D02*
X0007467Y0152208D01*
X0007467Y0153743D01*
X0006699Y0154510D01*
X0114628Y0176304D02*
X0117698Y0176304D01*
X0116163Y0176304D02*
X0116163Y0171700D01*
X0119232Y0171700D02*
X0119232Y0174769D01*
X0119232Y0173235D02*
X0120767Y0174769D01*
X0121534Y0174769D01*
X0123069Y0174002D02*
X0123069Y0172467D01*
X0123836Y0171700D01*
X0125371Y0171700D01*
X0126138Y0172467D01*
X0126138Y0174002D01*
X0125371Y0174769D01*
X0123836Y0174769D01*
X0123069Y0174002D01*
X0127673Y0174002D02*
X0127673Y0172467D01*
X0128440Y0171700D01*
X0130742Y0171700D01*
X0132277Y0171700D02*
X0132277Y0176304D01*
X0130742Y0174769D02*
X0128440Y0174769D01*
X0127673Y0174002D01*
X0132277Y0173235D02*
X0134579Y0174769D01*
X0136113Y0174002D02*
X0136881Y0174769D01*
X0138415Y0174769D01*
X0139183Y0174002D01*
X0139183Y0173235D01*
X0136113Y0173235D01*
X0136113Y0174002D02*
X0136113Y0172467D01*
X0136881Y0171700D01*
X0138415Y0171700D01*
X0140717Y0171700D02*
X0140717Y0174769D01*
X0143019Y0174769D01*
X0143787Y0174002D01*
X0143787Y0171700D01*
X0134579Y0171700D02*
X0132277Y0173235D01*
X0131955Y0206700D02*
X0131955Y0211304D01*
X0132723Y0209769D02*
X0134257Y0209769D01*
X0135024Y0209002D01*
X0135024Y0206700D01*
X0137326Y0207467D02*
X0137326Y0210537D01*
X0136559Y0209769D02*
X0138094Y0209769D01*
X0137326Y0207467D02*
X0138094Y0206700D01*
X0132723Y0209769D02*
X0131955Y0209002D01*
X0130421Y0209769D02*
X0128119Y0209769D01*
X0127351Y0209002D01*
X0127351Y0207467D01*
X0128119Y0206700D01*
X0130421Y0206700D01*
X0125817Y0206700D02*
X0125817Y0209769D01*
X0125817Y0206700D02*
X0123515Y0206700D01*
X0122747Y0207467D01*
X0122747Y0209769D01*
X0121213Y0209002D02*
X0121213Y0208235D01*
X0118143Y0208235D01*
X0118143Y0209002D02*
X0118143Y0207467D01*
X0118911Y0206700D01*
X0120445Y0206700D01*
X0121213Y0209002D02*
X0120445Y0209769D01*
X0118911Y0209769D01*
X0118143Y0209002D01*
X0116609Y0211304D02*
X0113540Y0211304D01*
X0113540Y0206700D01*
X0113540Y0209002D02*
X0115074Y0209002D01*
X0121213Y0251700D02*
X0121213Y0256304D01*
X0124282Y0251700D01*
X0124282Y0256304D01*
X0126584Y0254769D02*
X0128119Y0254769D01*
X0128886Y0254002D01*
X0128886Y0251700D01*
X0126584Y0251700D01*
X0125817Y0252467D01*
X0126584Y0253235D01*
X0128886Y0253235D01*
X0130421Y0254002D02*
X0131188Y0254769D01*
X0133490Y0254769D01*
X0135025Y0254002D02*
X0135792Y0254769D01*
X0138094Y0254769D01*
X0137326Y0253235D02*
X0135792Y0253235D01*
X0135025Y0254002D01*
X0133490Y0252467D02*
X0132723Y0251700D01*
X0130421Y0251700D01*
X0131188Y0253235D02*
X0130421Y0254002D01*
X0131188Y0253235D02*
X0132723Y0253235D01*
X0133490Y0252467D01*
X0135025Y0251700D02*
X0137326Y0251700D01*
X0138094Y0252467D01*
X0137326Y0253235D01*
X0146523Y0303462D02*
X0145755Y0304229D01*
X0146523Y0303462D02*
X0148057Y0303462D01*
X0148825Y0304229D01*
X0148825Y0305764D01*
X0148057Y0306531D01*
X0147290Y0306531D01*
X0145755Y0305764D01*
X0145755Y0308066D01*
X0148825Y0308066D01*
X0150359Y0308066D02*
X0150359Y0305764D01*
X0151894Y0306531D01*
X0152661Y0306531D01*
X0153429Y0305764D01*
X0153429Y0304229D01*
X0152661Y0303462D01*
X0151127Y0303462D01*
X0150359Y0304229D01*
X0154963Y0304229D02*
X0155730Y0304229D01*
X0155730Y0303462D01*
X0154963Y0303462D01*
X0154963Y0304229D01*
X0157265Y0304229D02*
X0157265Y0304996D01*
X0158032Y0305764D01*
X0159567Y0305764D01*
X0160334Y0304996D01*
X0160334Y0304229D01*
X0159567Y0303462D01*
X0158032Y0303462D01*
X0157265Y0304229D01*
X0158032Y0305764D02*
X0157265Y0306531D01*
X0157265Y0307298D01*
X0158032Y0308066D01*
X0159567Y0308066D01*
X0160334Y0307298D01*
X0160334Y0306531D01*
X0159567Y0305764D01*
X0161869Y0306531D02*
X0161869Y0307298D01*
X0162636Y0308066D01*
X0164171Y0308066D01*
X0164938Y0307298D01*
X0164938Y0306531D01*
X0164171Y0305764D01*
X0162636Y0305764D01*
X0161869Y0306531D01*
X0162636Y0305764D02*
X0161869Y0304996D01*
X0161869Y0304229D01*
X0162636Y0303462D01*
X0164171Y0303462D01*
X0164938Y0304229D01*
X0164938Y0304996D01*
X0164171Y0305764D01*
X0153429Y0308066D02*
X0150359Y0308066D01*
D11*
X0044428Y0001500D02*
X0001751Y0001500D01*
X0009428Y0001756D02*
X0010452Y0011736D01*
X0010685Y0011736D02*
X0009428Y0001756D01*
X0008405Y0011736D01*
X0008172Y0011736D02*
X0010685Y0011736D01*
X0009940Y0011736D02*
X0009428Y0001756D01*
X0008917Y0011736D01*
X0008172Y0011736D02*
X0009428Y0001756D01*
X0009428Y0286244D01*
X0010452Y0276264D01*
X0010685Y0276264D02*
X0009428Y0286244D01*
X0008405Y0276264D01*
X0008172Y0276264D02*
X0010685Y0276264D01*
X0009940Y0276264D02*
X0009428Y0286244D01*
X0008917Y0276264D01*
X0008172Y0276264D02*
X0009428Y0286244D01*
X0001751Y0286500D02*
X0044428Y0286500D01*
X0044428Y0309177D01*
X0044684Y0301500D02*
X0054665Y0300476D01*
X0054665Y0300243D02*
X0044684Y0301500D01*
X0054665Y0302524D01*
X0054665Y0302757D02*
X0054665Y0300243D01*
X0054665Y0300988D02*
X0044684Y0301500D01*
X0054665Y0302012D01*
X0054665Y0302757D02*
X0044684Y0301500D01*
X0264173Y0301500D01*
X0254192Y0300476D01*
X0254192Y0300243D02*
X0264173Y0301500D01*
X0254192Y0302524D01*
X0254192Y0302757D02*
X0254192Y0300243D01*
X0254192Y0300988D02*
X0264173Y0301500D01*
X0254192Y0302012D01*
X0254192Y0302757D02*
X0264173Y0301500D01*
X0264428Y0309177D02*
X0264428Y0286500D01*
D12*
X0126928Y0037700D02*
X0124428Y0037700D01*
X0121928Y0037700D01*
X0121928Y0035200D02*
X0124428Y0035200D01*
X0126928Y0035200D01*
D13*
X0124428Y0035200D02*
X0124428Y0030500D01*
X0119428Y0023000D02*
X0119430Y0022940D01*
X0119435Y0022879D01*
X0119444Y0022820D01*
X0119457Y0022761D01*
X0119473Y0022702D01*
X0119493Y0022645D01*
X0119516Y0022590D01*
X0119543Y0022535D01*
X0119572Y0022483D01*
X0119605Y0022432D01*
X0119641Y0022383D01*
X0119679Y0022337D01*
X0119721Y0022293D01*
X0119765Y0022251D01*
X0119811Y0022213D01*
X0119860Y0022177D01*
X0119911Y0022144D01*
X0119963Y0022115D01*
X0120018Y0022088D01*
X0120073Y0022065D01*
X0120130Y0022045D01*
X0120189Y0022029D01*
X0120248Y0022016D01*
X0120307Y0022007D01*
X0120368Y0022002D01*
X0120428Y0022000D01*
X0128428Y0022000D01*
X0128488Y0022002D01*
X0128549Y0022007D01*
X0128608Y0022016D01*
X0128667Y0022029D01*
X0128726Y0022045D01*
X0128783Y0022065D01*
X0128838Y0022088D01*
X0128893Y0022115D01*
X0128945Y0022144D01*
X0128996Y0022177D01*
X0129045Y0022213D01*
X0129091Y0022251D01*
X0129135Y0022293D01*
X0129177Y0022337D01*
X0129215Y0022383D01*
X0129251Y0022432D01*
X0129284Y0022483D01*
X0129313Y0022535D01*
X0129340Y0022590D01*
X0129363Y0022645D01*
X0129383Y0022702D01*
X0129399Y0022761D01*
X0129412Y0022820D01*
X0129421Y0022879D01*
X0129426Y0022940D01*
X0129428Y0023000D01*
X0129428Y0050000D01*
X0129426Y0050060D01*
X0129421Y0050121D01*
X0129412Y0050180D01*
X0129399Y0050239D01*
X0129383Y0050298D01*
X0129363Y0050355D01*
X0129340Y0050410D01*
X0129313Y0050465D01*
X0129284Y0050517D01*
X0129251Y0050568D01*
X0129215Y0050617D01*
X0129177Y0050663D01*
X0129135Y0050707D01*
X0129091Y0050749D01*
X0129045Y0050787D01*
X0128996Y0050823D01*
X0128945Y0050856D01*
X0128893Y0050885D01*
X0128838Y0050912D01*
X0128783Y0050935D01*
X0128726Y0050955D01*
X0128667Y0050971D01*
X0128608Y0050984D01*
X0128549Y0050993D01*
X0128488Y0050998D01*
X0128428Y0051000D01*
X0120428Y0051000D01*
X0120368Y0050998D01*
X0120307Y0050993D01*
X0120248Y0050984D01*
X0120189Y0050971D01*
X0120130Y0050955D01*
X0120073Y0050935D01*
X0120018Y0050912D01*
X0119963Y0050885D01*
X0119911Y0050856D01*
X0119860Y0050823D01*
X0119811Y0050787D01*
X0119765Y0050749D01*
X0119721Y0050707D01*
X0119679Y0050663D01*
X0119641Y0050617D01*
X0119605Y0050568D01*
X0119572Y0050517D01*
X0119543Y0050465D01*
X0119516Y0050410D01*
X0119493Y0050355D01*
X0119473Y0050298D01*
X0119457Y0050239D01*
X0119444Y0050180D01*
X0119435Y0050121D01*
X0119430Y0050060D01*
X0119428Y0050000D01*
X0119428Y0023000D01*
X0124428Y0037700D02*
X0124428Y0042500D01*
X0130928Y0060500D02*
X0130928Y0061500D01*
X0131428Y0062000D01*
X0131428Y0071000D01*
X0130928Y0071500D01*
X0130928Y0072500D01*
X0130930Y0072560D01*
X0130935Y0072621D01*
X0130944Y0072680D01*
X0130957Y0072739D01*
X0130973Y0072798D01*
X0130993Y0072855D01*
X0131016Y0072910D01*
X0131043Y0072965D01*
X0131072Y0073017D01*
X0131105Y0073068D01*
X0131141Y0073117D01*
X0131179Y0073163D01*
X0131221Y0073207D01*
X0131265Y0073249D01*
X0131311Y0073287D01*
X0131360Y0073323D01*
X0131411Y0073356D01*
X0131463Y0073385D01*
X0131518Y0073412D01*
X0131573Y0073435D01*
X0131630Y0073455D01*
X0131689Y0073471D01*
X0131748Y0073484D01*
X0131807Y0073493D01*
X0131868Y0073498D01*
X0131928Y0073500D01*
X0136928Y0073500D02*
X0136988Y0073498D01*
X0137049Y0073493D01*
X0137108Y0073484D01*
X0137167Y0073471D01*
X0137226Y0073455D01*
X0137283Y0073435D01*
X0137338Y0073412D01*
X0137393Y0073385D01*
X0137445Y0073356D01*
X0137496Y0073323D01*
X0137545Y0073287D01*
X0137591Y0073249D01*
X0137635Y0073207D01*
X0137677Y0073163D01*
X0137715Y0073117D01*
X0137751Y0073068D01*
X0137784Y0073017D01*
X0137813Y0072965D01*
X0137840Y0072910D01*
X0137863Y0072855D01*
X0137883Y0072798D01*
X0137899Y0072739D01*
X0137912Y0072680D01*
X0137921Y0072621D01*
X0137926Y0072560D01*
X0137928Y0072500D01*
X0137928Y0071500D01*
X0137428Y0071000D01*
X0137428Y0062000D01*
X0137928Y0061500D01*
X0137928Y0060500D01*
X0137926Y0060440D01*
X0137921Y0060379D01*
X0137912Y0060320D01*
X0137899Y0060261D01*
X0137883Y0060202D01*
X0137863Y0060145D01*
X0137840Y0060090D01*
X0137813Y0060035D01*
X0137784Y0059983D01*
X0137751Y0059932D01*
X0137715Y0059883D01*
X0137677Y0059837D01*
X0137635Y0059793D01*
X0137591Y0059751D01*
X0137545Y0059713D01*
X0137496Y0059677D01*
X0137445Y0059644D01*
X0137393Y0059615D01*
X0137338Y0059588D01*
X0137283Y0059565D01*
X0137226Y0059545D01*
X0137167Y0059529D01*
X0137108Y0059516D01*
X0137049Y0059507D01*
X0136988Y0059502D01*
X0136928Y0059500D01*
X0131928Y0059500D02*
X0131868Y0059502D01*
X0131807Y0059507D01*
X0131748Y0059516D01*
X0131689Y0059529D01*
X0131630Y0059545D01*
X0131573Y0059565D01*
X0131518Y0059588D01*
X0131463Y0059615D01*
X0131411Y0059644D01*
X0131360Y0059677D01*
X0131311Y0059713D01*
X0131265Y0059751D01*
X0131221Y0059793D01*
X0131179Y0059837D01*
X0131141Y0059883D01*
X0131105Y0059932D01*
X0131072Y0059983D01*
X0131043Y0060035D01*
X0131016Y0060090D01*
X0130993Y0060145D01*
X0130973Y0060202D01*
X0130957Y0060261D01*
X0130944Y0060320D01*
X0130935Y0060379D01*
X0130930Y0060440D01*
X0130928Y0060500D01*
X0148428Y0060000D02*
X0149428Y0060000D01*
X0149928Y0059500D01*
X0158928Y0059500D01*
X0159428Y0060000D01*
X0160428Y0060000D01*
X0160488Y0059998D01*
X0160549Y0059993D01*
X0160608Y0059984D01*
X0160667Y0059971D01*
X0160726Y0059955D01*
X0160783Y0059935D01*
X0160838Y0059912D01*
X0160893Y0059885D01*
X0160945Y0059856D01*
X0160996Y0059823D01*
X0161045Y0059787D01*
X0161091Y0059749D01*
X0161135Y0059707D01*
X0161177Y0059663D01*
X0161215Y0059617D01*
X0161251Y0059568D01*
X0161284Y0059517D01*
X0161313Y0059465D01*
X0161340Y0059410D01*
X0161363Y0059355D01*
X0161383Y0059298D01*
X0161399Y0059239D01*
X0161412Y0059180D01*
X0161421Y0059121D01*
X0161426Y0059060D01*
X0161428Y0059000D01*
X0161428Y0054000D02*
X0161426Y0053940D01*
X0161421Y0053879D01*
X0161412Y0053820D01*
X0161399Y0053761D01*
X0161383Y0053702D01*
X0161363Y0053645D01*
X0161340Y0053590D01*
X0161313Y0053535D01*
X0161284Y0053483D01*
X0161251Y0053432D01*
X0161215Y0053383D01*
X0161177Y0053337D01*
X0161135Y0053293D01*
X0161091Y0053251D01*
X0161045Y0053213D01*
X0160996Y0053177D01*
X0160945Y0053144D01*
X0160893Y0053115D01*
X0160838Y0053088D01*
X0160783Y0053065D01*
X0160726Y0053045D01*
X0160667Y0053029D01*
X0160608Y0053016D01*
X0160549Y0053007D01*
X0160488Y0053002D01*
X0160428Y0053000D01*
X0159428Y0053000D01*
X0158928Y0053500D01*
X0149928Y0053500D01*
X0149428Y0053000D01*
X0148428Y0053000D01*
X0148368Y0053002D01*
X0148307Y0053007D01*
X0148248Y0053016D01*
X0148189Y0053029D01*
X0148130Y0053045D01*
X0148073Y0053065D01*
X0148018Y0053088D01*
X0147963Y0053115D01*
X0147911Y0053144D01*
X0147860Y0053177D01*
X0147811Y0053213D01*
X0147765Y0053251D01*
X0147721Y0053293D01*
X0147679Y0053337D01*
X0147641Y0053383D01*
X0147605Y0053432D01*
X0147572Y0053483D01*
X0147543Y0053535D01*
X0147516Y0053590D01*
X0147493Y0053645D01*
X0147473Y0053702D01*
X0147457Y0053761D01*
X0147444Y0053820D01*
X0147435Y0053879D01*
X0147430Y0053940D01*
X0147428Y0054000D01*
X0147428Y0059000D02*
X0147430Y0059060D01*
X0147435Y0059121D01*
X0147444Y0059180D01*
X0147457Y0059239D01*
X0147473Y0059298D01*
X0147493Y0059355D01*
X0147516Y0059410D01*
X0147543Y0059465D01*
X0147572Y0059517D01*
X0147605Y0059568D01*
X0147641Y0059617D01*
X0147679Y0059663D01*
X0147721Y0059707D01*
X0147765Y0059749D01*
X0147811Y0059787D01*
X0147860Y0059823D01*
X0147911Y0059856D01*
X0147963Y0059885D01*
X0148018Y0059912D01*
X0148073Y0059935D01*
X0148130Y0059955D01*
X0148189Y0059971D01*
X0148248Y0059984D01*
X0148307Y0059993D01*
X0148368Y0059998D01*
X0148428Y0060000D01*
X0148428Y0073000D02*
X0149428Y0073000D01*
X0149928Y0073500D01*
X0158928Y0073500D01*
X0159428Y0073000D01*
X0160428Y0073000D01*
X0160488Y0073002D01*
X0160549Y0073007D01*
X0160608Y0073016D01*
X0160667Y0073029D01*
X0160726Y0073045D01*
X0160783Y0073065D01*
X0160838Y0073088D01*
X0160893Y0073115D01*
X0160945Y0073144D01*
X0160996Y0073177D01*
X0161045Y0073213D01*
X0161091Y0073251D01*
X0161135Y0073293D01*
X0161177Y0073337D01*
X0161215Y0073383D01*
X0161251Y0073432D01*
X0161284Y0073483D01*
X0161313Y0073535D01*
X0161340Y0073590D01*
X0161363Y0073645D01*
X0161383Y0073702D01*
X0161399Y0073761D01*
X0161412Y0073820D01*
X0161421Y0073879D01*
X0161426Y0073940D01*
X0161428Y0074000D01*
X0161428Y0079000D02*
X0161426Y0079060D01*
X0161421Y0079121D01*
X0161412Y0079180D01*
X0161399Y0079239D01*
X0161383Y0079298D01*
X0161363Y0079355D01*
X0161340Y0079410D01*
X0161313Y0079465D01*
X0161284Y0079517D01*
X0161251Y0079568D01*
X0161215Y0079617D01*
X0161177Y0079663D01*
X0161135Y0079707D01*
X0161091Y0079749D01*
X0161045Y0079787D01*
X0160996Y0079823D01*
X0160945Y0079856D01*
X0160893Y0079885D01*
X0160838Y0079912D01*
X0160783Y0079935D01*
X0160726Y0079955D01*
X0160667Y0079971D01*
X0160608Y0079984D01*
X0160549Y0079993D01*
X0160488Y0079998D01*
X0160428Y0080000D01*
X0159428Y0080000D01*
X0158928Y0079500D01*
X0149928Y0079500D01*
X0149428Y0080000D01*
X0148428Y0080000D01*
X0148368Y0079998D01*
X0148307Y0079993D01*
X0148248Y0079984D01*
X0148189Y0079971D01*
X0148130Y0079955D01*
X0148073Y0079935D01*
X0148018Y0079912D01*
X0147963Y0079885D01*
X0147911Y0079856D01*
X0147860Y0079823D01*
X0147811Y0079787D01*
X0147765Y0079749D01*
X0147721Y0079707D01*
X0147679Y0079663D01*
X0147641Y0079617D01*
X0147605Y0079568D01*
X0147572Y0079517D01*
X0147543Y0079465D01*
X0147516Y0079410D01*
X0147493Y0079355D01*
X0147473Y0079298D01*
X0147457Y0079239D01*
X0147444Y0079180D01*
X0147435Y0079121D01*
X0147430Y0079060D01*
X0147428Y0079000D01*
X0147428Y0074000D02*
X0147430Y0073940D01*
X0147435Y0073879D01*
X0147444Y0073820D01*
X0147457Y0073761D01*
X0147473Y0073702D01*
X0147493Y0073645D01*
X0147516Y0073590D01*
X0147543Y0073535D01*
X0147572Y0073483D01*
X0147605Y0073432D01*
X0147641Y0073383D01*
X0147679Y0073337D01*
X0147721Y0073293D01*
X0147765Y0073251D01*
X0147811Y0073213D01*
X0147860Y0073177D01*
X0147911Y0073144D01*
X0147963Y0073115D01*
X0148018Y0073088D01*
X0148073Y0073065D01*
X0148130Y0073045D01*
X0148189Y0073029D01*
X0148248Y0073016D01*
X0148307Y0073007D01*
X0148368Y0073002D01*
X0148428Y0073000D01*
X0137928Y0090500D02*
X0137928Y0091500D01*
X0137428Y0092000D01*
X0137428Y0101000D01*
X0137928Y0101500D01*
X0137928Y0102500D01*
X0137926Y0102560D01*
X0137921Y0102621D01*
X0137912Y0102680D01*
X0137899Y0102739D01*
X0137883Y0102798D01*
X0137863Y0102855D01*
X0137840Y0102910D01*
X0137813Y0102965D01*
X0137784Y0103017D01*
X0137751Y0103068D01*
X0137715Y0103117D01*
X0137677Y0103163D01*
X0137635Y0103207D01*
X0137591Y0103249D01*
X0137545Y0103287D01*
X0137496Y0103323D01*
X0137445Y0103356D01*
X0137393Y0103385D01*
X0137338Y0103412D01*
X0137283Y0103435D01*
X0137226Y0103455D01*
X0137167Y0103471D01*
X0137108Y0103484D01*
X0137049Y0103493D01*
X0136988Y0103498D01*
X0136928Y0103500D01*
X0131928Y0103500D02*
X0131868Y0103498D01*
X0131807Y0103493D01*
X0131748Y0103484D01*
X0131689Y0103471D01*
X0131630Y0103455D01*
X0131573Y0103435D01*
X0131518Y0103412D01*
X0131463Y0103385D01*
X0131411Y0103356D01*
X0131360Y0103323D01*
X0131311Y0103287D01*
X0131265Y0103249D01*
X0131221Y0103207D01*
X0131179Y0103163D01*
X0131141Y0103117D01*
X0131105Y0103068D01*
X0131072Y0103017D01*
X0131043Y0102965D01*
X0131016Y0102910D01*
X0130993Y0102855D01*
X0130973Y0102798D01*
X0130957Y0102739D01*
X0130944Y0102680D01*
X0130935Y0102621D01*
X0130930Y0102560D01*
X0130928Y0102500D01*
X0130928Y0101500D01*
X0131428Y0101000D01*
X0131428Y0092000D01*
X0130928Y0091500D01*
X0130928Y0090500D01*
X0130930Y0090440D01*
X0130935Y0090379D01*
X0130944Y0090320D01*
X0130957Y0090261D01*
X0130973Y0090202D01*
X0130993Y0090145D01*
X0131016Y0090090D01*
X0131043Y0090035D01*
X0131072Y0089983D01*
X0131105Y0089932D01*
X0131141Y0089883D01*
X0131179Y0089837D01*
X0131221Y0089793D01*
X0131265Y0089751D01*
X0131311Y0089713D01*
X0131360Y0089677D01*
X0131411Y0089644D01*
X0131463Y0089615D01*
X0131518Y0089588D01*
X0131573Y0089565D01*
X0131630Y0089545D01*
X0131689Y0089529D01*
X0131748Y0089516D01*
X0131807Y0089507D01*
X0131868Y0089502D01*
X0131928Y0089500D01*
X0136928Y0089500D02*
X0136988Y0089502D01*
X0137049Y0089507D01*
X0137108Y0089516D01*
X0137167Y0089529D01*
X0137226Y0089545D01*
X0137283Y0089565D01*
X0137338Y0089588D01*
X0137393Y0089615D01*
X0137445Y0089644D01*
X0137496Y0089677D01*
X0137545Y0089713D01*
X0137591Y0089751D01*
X0137635Y0089793D01*
X0137677Y0089837D01*
X0137715Y0089883D01*
X0137751Y0089932D01*
X0137784Y0089983D01*
X0137813Y0090035D01*
X0137840Y0090090D01*
X0137863Y0090145D01*
X0137883Y0090202D01*
X0137899Y0090261D01*
X0137912Y0090320D01*
X0137921Y0090379D01*
X0137926Y0090440D01*
X0137928Y0090500D01*
X0149428Y0105000D02*
X0149428Y0112500D01*
X0149554Y0112502D01*
X0149679Y0112508D01*
X0149804Y0112518D01*
X0149929Y0112532D01*
X0150054Y0112549D01*
X0150178Y0112571D01*
X0150301Y0112596D01*
X0150423Y0112626D01*
X0150544Y0112659D01*
X0150664Y0112696D01*
X0150783Y0112736D01*
X0150900Y0112781D01*
X0151017Y0112829D01*
X0151131Y0112881D01*
X0151244Y0112936D01*
X0151355Y0112995D01*
X0151464Y0113057D01*
X0151571Y0113123D01*
X0151676Y0113192D01*
X0151779Y0113264D01*
X0151880Y0113339D01*
X0151978Y0113418D01*
X0152073Y0113500D01*
X0152166Y0113584D01*
X0152256Y0113672D01*
X0152344Y0113762D01*
X0152428Y0113855D01*
X0152510Y0113950D01*
X0152589Y0114048D01*
X0152664Y0114149D01*
X0152736Y0114252D01*
X0152805Y0114357D01*
X0152871Y0114464D01*
X0152933Y0114573D01*
X0152992Y0114684D01*
X0153047Y0114797D01*
X0153099Y0114911D01*
X0153147Y0115028D01*
X0153192Y0115145D01*
X0153232Y0115264D01*
X0153269Y0115384D01*
X0153302Y0115505D01*
X0153332Y0115627D01*
X0153357Y0115750D01*
X0153379Y0115874D01*
X0153396Y0115999D01*
X0153410Y0116124D01*
X0153420Y0116249D01*
X0153426Y0116374D01*
X0153428Y0116500D01*
X0153426Y0116626D01*
X0153420Y0116751D01*
X0153410Y0116876D01*
X0153396Y0117001D01*
X0153379Y0117126D01*
X0153357Y0117250D01*
X0153332Y0117373D01*
X0153302Y0117495D01*
X0153269Y0117616D01*
X0153232Y0117736D01*
X0153192Y0117855D01*
X0153147Y0117972D01*
X0153099Y0118089D01*
X0153047Y0118203D01*
X0152992Y0118316D01*
X0152933Y0118427D01*
X0152871Y0118536D01*
X0152805Y0118643D01*
X0152736Y0118748D01*
X0152664Y0118851D01*
X0152589Y0118952D01*
X0152510Y0119050D01*
X0152428Y0119145D01*
X0152344Y0119238D01*
X0152256Y0119328D01*
X0152166Y0119416D01*
X0152073Y0119500D01*
X0151978Y0119582D01*
X0151880Y0119661D01*
X0151779Y0119736D01*
X0151676Y0119808D01*
X0151571Y0119877D01*
X0151464Y0119943D01*
X0151355Y0120005D01*
X0151244Y0120064D01*
X0151131Y0120119D01*
X0151017Y0120171D01*
X0150900Y0120219D01*
X0150783Y0120264D01*
X0150664Y0120304D01*
X0150544Y0120341D01*
X0150423Y0120374D01*
X0150301Y0120404D01*
X0150178Y0120429D01*
X0150054Y0120451D01*
X0149929Y0120468D01*
X0149804Y0120482D01*
X0149679Y0120492D01*
X0149554Y0120498D01*
X0149428Y0120500D01*
X0149428Y0128000D01*
X0219428Y0128000D01*
X0219428Y0105000D01*
X0149428Y0105000D01*
X0109428Y0096000D02*
X0060428Y0096000D01*
X0060428Y0099500D01*
X0054428Y0099500D01*
X0054428Y0096000D01*
X0046928Y0096000D01*
X0046928Y0137000D01*
X0054428Y0137000D01*
X0054428Y0133500D01*
X0060428Y0133500D01*
X0060428Y0137000D01*
X0109428Y0137000D01*
X0109428Y0096000D01*
X0098928Y0085500D02*
X0098928Y0077500D01*
X0098926Y0077440D01*
X0098921Y0077379D01*
X0098912Y0077320D01*
X0098899Y0077261D01*
X0098883Y0077202D01*
X0098863Y0077145D01*
X0098840Y0077090D01*
X0098813Y0077035D01*
X0098784Y0076983D01*
X0098751Y0076932D01*
X0098715Y0076883D01*
X0098677Y0076837D01*
X0098635Y0076793D01*
X0098591Y0076751D01*
X0098545Y0076713D01*
X0098496Y0076677D01*
X0098445Y0076644D01*
X0098393Y0076615D01*
X0098338Y0076588D01*
X0098283Y0076565D01*
X0098226Y0076545D01*
X0098167Y0076529D01*
X0098108Y0076516D01*
X0098049Y0076507D01*
X0097988Y0076502D01*
X0097928Y0076500D01*
X0080928Y0076500D01*
X0080868Y0076502D01*
X0080807Y0076507D01*
X0080748Y0076516D01*
X0080689Y0076529D01*
X0080630Y0076545D01*
X0080573Y0076565D01*
X0080518Y0076588D01*
X0080463Y0076615D01*
X0080411Y0076644D01*
X0080360Y0076677D01*
X0080311Y0076713D01*
X0080265Y0076751D01*
X0080221Y0076793D01*
X0080179Y0076837D01*
X0080141Y0076883D01*
X0080105Y0076932D01*
X0080072Y0076983D01*
X0080043Y0077035D01*
X0080016Y0077090D01*
X0079993Y0077145D01*
X0079973Y0077202D01*
X0079957Y0077261D01*
X0079944Y0077320D01*
X0079935Y0077379D01*
X0079930Y0077440D01*
X0079928Y0077500D01*
X0079928Y0085500D01*
X0079930Y0085560D01*
X0079935Y0085621D01*
X0079944Y0085680D01*
X0079957Y0085739D01*
X0079973Y0085798D01*
X0079993Y0085855D01*
X0080016Y0085910D01*
X0080043Y0085965D01*
X0080072Y0086017D01*
X0080105Y0086068D01*
X0080141Y0086117D01*
X0080179Y0086163D01*
X0080221Y0086207D01*
X0080265Y0086249D01*
X0080311Y0086287D01*
X0080360Y0086323D01*
X0080411Y0086356D01*
X0080463Y0086385D01*
X0080518Y0086412D01*
X0080573Y0086435D01*
X0080630Y0086455D01*
X0080689Y0086471D01*
X0080748Y0086484D01*
X0080807Y0086493D01*
X0080868Y0086498D01*
X0080928Y0086500D01*
X0097928Y0086500D01*
X0097988Y0086498D01*
X0098049Y0086493D01*
X0098108Y0086484D01*
X0098167Y0086471D01*
X0098226Y0086455D01*
X0098283Y0086435D01*
X0098338Y0086412D01*
X0098393Y0086385D01*
X0098445Y0086356D01*
X0098496Y0086323D01*
X0098545Y0086287D01*
X0098591Y0086249D01*
X0098635Y0086207D01*
X0098677Y0086163D01*
X0098715Y0086117D01*
X0098751Y0086068D01*
X0098784Y0086017D01*
X0098813Y0085965D01*
X0098840Y0085910D01*
X0098863Y0085855D01*
X0098883Y0085798D01*
X0098899Y0085739D01*
X0098912Y0085680D01*
X0098921Y0085621D01*
X0098926Y0085560D01*
X0098928Y0085500D01*
X0090928Y0081500D02*
X0090428Y0081500D01*
X0088428Y0081500D02*
X0087928Y0081500D01*
X0068928Y0085500D02*
X0068928Y0077500D01*
X0068926Y0077440D01*
X0068921Y0077379D01*
X0068912Y0077320D01*
X0068899Y0077261D01*
X0068883Y0077202D01*
X0068863Y0077145D01*
X0068840Y0077090D01*
X0068813Y0077035D01*
X0068784Y0076983D01*
X0068751Y0076932D01*
X0068715Y0076883D01*
X0068677Y0076837D01*
X0068635Y0076793D01*
X0068591Y0076751D01*
X0068545Y0076713D01*
X0068496Y0076677D01*
X0068445Y0076644D01*
X0068393Y0076615D01*
X0068338Y0076588D01*
X0068283Y0076565D01*
X0068226Y0076545D01*
X0068167Y0076529D01*
X0068108Y0076516D01*
X0068049Y0076507D01*
X0067988Y0076502D01*
X0067928Y0076500D01*
X0050928Y0076500D01*
X0050868Y0076502D01*
X0050807Y0076507D01*
X0050748Y0076516D01*
X0050689Y0076529D01*
X0050630Y0076545D01*
X0050573Y0076565D01*
X0050518Y0076588D01*
X0050463Y0076615D01*
X0050411Y0076644D01*
X0050360Y0076677D01*
X0050311Y0076713D01*
X0050265Y0076751D01*
X0050221Y0076793D01*
X0050179Y0076837D01*
X0050141Y0076883D01*
X0050105Y0076932D01*
X0050072Y0076983D01*
X0050043Y0077035D01*
X0050016Y0077090D01*
X0049993Y0077145D01*
X0049973Y0077202D01*
X0049957Y0077261D01*
X0049944Y0077320D01*
X0049935Y0077379D01*
X0049930Y0077440D01*
X0049928Y0077500D01*
X0049928Y0085500D01*
X0049930Y0085560D01*
X0049935Y0085621D01*
X0049944Y0085680D01*
X0049957Y0085739D01*
X0049973Y0085798D01*
X0049993Y0085855D01*
X0050016Y0085910D01*
X0050043Y0085965D01*
X0050072Y0086017D01*
X0050105Y0086068D01*
X0050141Y0086117D01*
X0050179Y0086163D01*
X0050221Y0086207D01*
X0050265Y0086249D01*
X0050311Y0086287D01*
X0050360Y0086323D01*
X0050411Y0086356D01*
X0050463Y0086385D01*
X0050518Y0086412D01*
X0050573Y0086435D01*
X0050630Y0086455D01*
X0050689Y0086471D01*
X0050748Y0086484D01*
X0050807Y0086493D01*
X0050868Y0086498D01*
X0050928Y0086500D01*
X0067928Y0086500D01*
X0067988Y0086498D01*
X0068049Y0086493D01*
X0068108Y0086484D01*
X0068167Y0086471D01*
X0068226Y0086455D01*
X0068283Y0086435D01*
X0068338Y0086412D01*
X0068393Y0086385D01*
X0068445Y0086356D01*
X0068496Y0086323D01*
X0068545Y0086287D01*
X0068591Y0086249D01*
X0068635Y0086207D01*
X0068677Y0086163D01*
X0068715Y0086117D01*
X0068751Y0086068D01*
X0068784Y0086017D01*
X0068813Y0085965D01*
X0068840Y0085910D01*
X0068863Y0085855D01*
X0068883Y0085798D01*
X0068899Y0085739D01*
X0068912Y0085680D01*
X0068921Y0085621D01*
X0068926Y0085560D01*
X0068928Y0085500D01*
X0060928Y0081500D02*
X0060428Y0081500D01*
X0058428Y0081500D02*
X0057928Y0081500D01*
X0053328Y0116500D02*
X0053330Y0116674D01*
X0053337Y0116848D01*
X0053347Y0117022D01*
X0053362Y0117196D01*
X0053381Y0117369D01*
X0053405Y0117542D01*
X0053433Y0117714D01*
X0053464Y0117885D01*
X0053501Y0118056D01*
X0053541Y0118225D01*
X0053585Y0118394D01*
X0053634Y0118561D01*
X0053686Y0118727D01*
X0053743Y0118892D01*
X0053804Y0119055D01*
X0053868Y0119217D01*
X0053937Y0119377D01*
X0054010Y0119536D01*
X0054086Y0119692D01*
X0054166Y0119847D01*
X0054250Y0120000D01*
X0054338Y0120150D01*
X0054430Y0120298D01*
X0054525Y0120445D01*
X0054623Y0120588D01*
X0054725Y0120729D01*
X0054831Y0120868D01*
X0054940Y0121004D01*
X0055052Y0121138D01*
X0055167Y0121268D01*
X0055286Y0121396D01*
X0055408Y0121520D01*
X0055532Y0121642D01*
X0055660Y0121761D01*
X0055790Y0121876D01*
X0055924Y0121988D01*
X0056060Y0122097D01*
X0056199Y0122203D01*
X0056340Y0122305D01*
X0056483Y0122403D01*
X0056630Y0122498D01*
X0056778Y0122590D01*
X0056928Y0122678D01*
X0057081Y0122762D01*
X0057236Y0122842D01*
X0057392Y0122918D01*
X0057551Y0122991D01*
X0057711Y0123060D01*
X0057873Y0123124D01*
X0058036Y0123185D01*
X0058201Y0123242D01*
X0058367Y0123294D01*
X0058534Y0123343D01*
X0058703Y0123387D01*
X0058872Y0123427D01*
X0059043Y0123464D01*
X0059214Y0123495D01*
X0059386Y0123523D01*
X0059559Y0123547D01*
X0059732Y0123566D01*
X0059906Y0123581D01*
X0060080Y0123591D01*
X0060254Y0123598D01*
X0060428Y0123600D01*
X0060602Y0123598D01*
X0060776Y0123591D01*
X0060950Y0123581D01*
X0061124Y0123566D01*
X0061297Y0123547D01*
X0061470Y0123523D01*
X0061642Y0123495D01*
X0061813Y0123464D01*
X0061984Y0123427D01*
X0062153Y0123387D01*
X0062322Y0123343D01*
X0062489Y0123294D01*
X0062655Y0123242D01*
X0062820Y0123185D01*
X0062983Y0123124D01*
X0063145Y0123060D01*
X0063305Y0122991D01*
X0063464Y0122918D01*
X0063620Y0122842D01*
X0063775Y0122762D01*
X0063928Y0122678D01*
X0064078Y0122590D01*
X0064226Y0122498D01*
X0064373Y0122403D01*
X0064516Y0122305D01*
X0064657Y0122203D01*
X0064796Y0122097D01*
X0064932Y0121988D01*
X0065066Y0121876D01*
X0065196Y0121761D01*
X0065324Y0121642D01*
X0065448Y0121520D01*
X0065570Y0121396D01*
X0065689Y0121268D01*
X0065804Y0121138D01*
X0065916Y0121004D01*
X0066025Y0120868D01*
X0066131Y0120729D01*
X0066233Y0120588D01*
X0066331Y0120445D01*
X0066426Y0120298D01*
X0066518Y0120150D01*
X0066606Y0120000D01*
X0066690Y0119847D01*
X0066770Y0119692D01*
X0066846Y0119536D01*
X0066919Y0119377D01*
X0066988Y0119217D01*
X0067052Y0119055D01*
X0067113Y0118892D01*
X0067170Y0118727D01*
X0067222Y0118561D01*
X0067271Y0118394D01*
X0067315Y0118225D01*
X0067355Y0118056D01*
X0067392Y0117885D01*
X0067423Y0117714D01*
X0067451Y0117542D01*
X0067475Y0117369D01*
X0067494Y0117196D01*
X0067509Y0117022D01*
X0067519Y0116848D01*
X0067526Y0116674D01*
X0067528Y0116500D01*
X0067526Y0116326D01*
X0067519Y0116152D01*
X0067509Y0115978D01*
X0067494Y0115804D01*
X0067475Y0115631D01*
X0067451Y0115458D01*
X0067423Y0115286D01*
X0067392Y0115115D01*
X0067355Y0114944D01*
X0067315Y0114775D01*
X0067271Y0114606D01*
X0067222Y0114439D01*
X0067170Y0114273D01*
X0067113Y0114108D01*
X0067052Y0113945D01*
X0066988Y0113783D01*
X0066919Y0113623D01*
X0066846Y0113464D01*
X0066770Y0113308D01*
X0066690Y0113153D01*
X0066606Y0113000D01*
X0066518Y0112850D01*
X0066426Y0112702D01*
X0066331Y0112555D01*
X0066233Y0112412D01*
X0066131Y0112271D01*
X0066025Y0112132D01*
X0065916Y0111996D01*
X0065804Y0111862D01*
X0065689Y0111732D01*
X0065570Y0111604D01*
X0065448Y0111480D01*
X0065324Y0111358D01*
X0065196Y0111239D01*
X0065066Y0111124D01*
X0064932Y0111012D01*
X0064796Y0110903D01*
X0064657Y0110797D01*
X0064516Y0110695D01*
X0064373Y0110597D01*
X0064226Y0110502D01*
X0064078Y0110410D01*
X0063928Y0110322D01*
X0063775Y0110238D01*
X0063620Y0110158D01*
X0063464Y0110082D01*
X0063305Y0110009D01*
X0063145Y0109940D01*
X0062983Y0109876D01*
X0062820Y0109815D01*
X0062655Y0109758D01*
X0062489Y0109706D01*
X0062322Y0109657D01*
X0062153Y0109613D01*
X0061984Y0109573D01*
X0061813Y0109536D01*
X0061642Y0109505D01*
X0061470Y0109477D01*
X0061297Y0109453D01*
X0061124Y0109434D01*
X0060950Y0109419D01*
X0060776Y0109409D01*
X0060602Y0109402D01*
X0060428Y0109400D01*
X0060254Y0109402D01*
X0060080Y0109409D01*
X0059906Y0109419D01*
X0059732Y0109434D01*
X0059559Y0109453D01*
X0059386Y0109477D01*
X0059214Y0109505D01*
X0059043Y0109536D01*
X0058872Y0109573D01*
X0058703Y0109613D01*
X0058534Y0109657D01*
X0058367Y0109706D01*
X0058201Y0109758D01*
X0058036Y0109815D01*
X0057873Y0109876D01*
X0057711Y0109940D01*
X0057551Y0110009D01*
X0057392Y0110082D01*
X0057236Y0110158D01*
X0057081Y0110238D01*
X0056928Y0110322D01*
X0056778Y0110410D01*
X0056630Y0110502D01*
X0056483Y0110597D01*
X0056340Y0110695D01*
X0056199Y0110797D01*
X0056060Y0110903D01*
X0055924Y0111012D01*
X0055790Y0111124D01*
X0055660Y0111239D01*
X0055532Y0111358D01*
X0055408Y0111480D01*
X0055286Y0111604D01*
X0055167Y0111732D01*
X0055052Y0111862D01*
X0054940Y0111996D01*
X0054831Y0112132D01*
X0054725Y0112271D01*
X0054623Y0112412D01*
X0054525Y0112555D01*
X0054430Y0112702D01*
X0054338Y0112850D01*
X0054250Y0113000D01*
X0054166Y0113153D01*
X0054086Y0113308D01*
X0054010Y0113464D01*
X0053937Y0113623D01*
X0053868Y0113783D01*
X0053804Y0113945D01*
X0053743Y0114108D01*
X0053686Y0114273D01*
X0053634Y0114439D01*
X0053585Y0114606D01*
X0053541Y0114775D01*
X0053501Y0114944D01*
X0053464Y0115115D01*
X0053433Y0115286D01*
X0053405Y0115458D01*
X0053381Y0115631D01*
X0053362Y0115804D01*
X0053347Y0115978D01*
X0053337Y0116152D01*
X0053330Y0116326D01*
X0053328Y0116500D01*
X0064310Y0159987D02*
X0064219Y0160112D01*
X0064125Y0160234D01*
X0064027Y0160353D01*
X0063927Y0160470D01*
X0063823Y0160584D01*
X0063717Y0160696D01*
X0063608Y0160804D01*
X0063496Y0160910D01*
X0063381Y0161013D01*
X0063264Y0161113D01*
X0063144Y0161211D01*
X0063022Y0161304D01*
X0062898Y0161395D01*
X0062771Y0161483D01*
X0062642Y0161567D01*
X0062510Y0161648D01*
X0062377Y0161725D01*
X0062242Y0161799D01*
X0062105Y0161870D01*
X0061966Y0161937D01*
X0061826Y0162000D01*
X0061683Y0162060D01*
X0061540Y0162116D01*
X0061395Y0162168D01*
X0061249Y0162217D01*
X0061101Y0162262D01*
X0060953Y0162303D01*
X0060803Y0162340D01*
X0060653Y0162374D01*
X0060501Y0162403D01*
X0060349Y0162429D01*
X0060197Y0162451D01*
X0060044Y0162468D01*
X0059890Y0162482D01*
X0059736Y0162492D01*
X0059582Y0162498D01*
X0059428Y0162500D01*
X0054692Y0152817D02*
X0054786Y0152698D01*
X0054884Y0152582D01*
X0054984Y0152468D01*
X0055088Y0152357D01*
X0055194Y0152249D01*
X0055302Y0152143D01*
X0055414Y0152041D01*
X0055528Y0151941D01*
X0055644Y0151843D01*
X0055763Y0151749D01*
X0055884Y0151658D01*
X0056008Y0151570D01*
X0056134Y0151485D01*
X0056261Y0151404D01*
X0056391Y0151325D01*
X0056523Y0151250D01*
X0056656Y0151179D01*
X0056792Y0151110D01*
X0056929Y0151045D01*
X0057067Y0150984D01*
X0057208Y0150926D01*
X0057349Y0150872D01*
X0057492Y0150821D01*
X0057636Y0150774D01*
X0057781Y0150730D01*
X0057928Y0150691D01*
X0058075Y0150655D01*
X0058223Y0150622D01*
X0058372Y0150594D01*
X0058522Y0150569D01*
X0058672Y0150548D01*
X0058822Y0150531D01*
X0058974Y0150517D01*
X0059125Y0150508D01*
X0059276Y0150502D01*
X0059428Y0150500D01*
X0054628Y0160100D02*
X0054720Y0160219D01*
X0054814Y0160336D01*
X0054912Y0160450D01*
X0055012Y0160562D01*
X0055116Y0160672D01*
X0055221Y0160778D01*
X0055330Y0160883D01*
X0055441Y0160984D01*
X0055555Y0161082D01*
X0055671Y0161178D01*
X0055789Y0161271D01*
X0055910Y0161360D01*
X0056033Y0161447D01*
X0056158Y0161530D01*
X0056285Y0161611D01*
X0056414Y0161688D01*
X0056545Y0161762D01*
X0056678Y0161833D01*
X0056812Y0161900D01*
X0056948Y0161964D01*
X0057086Y0162024D01*
X0057225Y0162081D01*
X0057366Y0162134D01*
X0057508Y0162184D01*
X0057651Y0162231D01*
X0057795Y0162273D01*
X0057940Y0162313D01*
X0058086Y0162348D01*
X0058233Y0162380D01*
X0058381Y0162408D01*
X0058529Y0162432D01*
X0058678Y0162453D01*
X0058828Y0162470D01*
X0058977Y0162483D01*
X0059127Y0162492D01*
X0059278Y0162498D01*
X0059428Y0162500D01*
X0064164Y0152817D02*
X0064070Y0152698D01*
X0063972Y0152582D01*
X0063872Y0152468D01*
X0063768Y0152357D01*
X0063662Y0152249D01*
X0063554Y0152143D01*
X0063442Y0152041D01*
X0063328Y0151941D01*
X0063212Y0151843D01*
X0063093Y0151749D01*
X0062972Y0151658D01*
X0062848Y0151570D01*
X0062722Y0151485D01*
X0062595Y0151404D01*
X0062465Y0151325D01*
X0062333Y0151250D01*
X0062200Y0151179D01*
X0062064Y0151110D01*
X0061927Y0151045D01*
X0061789Y0150984D01*
X0061648Y0150926D01*
X0061507Y0150872D01*
X0061364Y0150821D01*
X0061220Y0150774D01*
X0061075Y0150730D01*
X0060928Y0150691D01*
X0060781Y0150655D01*
X0060633Y0150622D01*
X0060484Y0150594D01*
X0060334Y0150569D01*
X0060184Y0150548D01*
X0060034Y0150531D01*
X0059882Y0150517D01*
X0059731Y0150508D01*
X0059580Y0150502D01*
X0059428Y0150500D01*
X0059428Y0173000D02*
X0058428Y0173000D01*
X0058368Y0173002D01*
X0058307Y0173007D01*
X0058248Y0173016D01*
X0058189Y0173029D01*
X0058130Y0173045D01*
X0058073Y0173065D01*
X0058018Y0173088D01*
X0057963Y0173115D01*
X0057911Y0173144D01*
X0057860Y0173177D01*
X0057811Y0173213D01*
X0057765Y0173251D01*
X0057721Y0173293D01*
X0057679Y0173337D01*
X0057641Y0173383D01*
X0057605Y0173432D01*
X0057572Y0173483D01*
X0057543Y0173535D01*
X0057516Y0173590D01*
X0057493Y0173645D01*
X0057473Y0173702D01*
X0057457Y0173761D01*
X0057444Y0173820D01*
X0057435Y0173879D01*
X0057430Y0173940D01*
X0057428Y0174000D01*
X0059428Y0173000D02*
X0059928Y0173500D01*
X0068928Y0173500D01*
X0069428Y0173000D01*
X0070428Y0173000D01*
X0070488Y0173002D01*
X0070549Y0173007D01*
X0070608Y0173016D01*
X0070667Y0173029D01*
X0070726Y0173045D01*
X0070783Y0173065D01*
X0070838Y0173088D01*
X0070893Y0173115D01*
X0070945Y0173144D01*
X0070996Y0173177D01*
X0071045Y0173213D01*
X0071091Y0173251D01*
X0071135Y0173293D01*
X0071177Y0173337D01*
X0071215Y0173383D01*
X0071251Y0173432D01*
X0071284Y0173483D01*
X0071313Y0173535D01*
X0071340Y0173590D01*
X0071363Y0173645D01*
X0071383Y0173702D01*
X0071399Y0173761D01*
X0071412Y0173820D01*
X0071421Y0173879D01*
X0071426Y0173940D01*
X0071428Y0174000D01*
X0071428Y0179000D02*
X0071426Y0179060D01*
X0071421Y0179121D01*
X0071412Y0179180D01*
X0071399Y0179239D01*
X0071383Y0179298D01*
X0071363Y0179355D01*
X0071340Y0179410D01*
X0071313Y0179465D01*
X0071284Y0179517D01*
X0071251Y0179568D01*
X0071215Y0179617D01*
X0071177Y0179663D01*
X0071135Y0179707D01*
X0071091Y0179749D01*
X0071045Y0179787D01*
X0070996Y0179823D01*
X0070945Y0179856D01*
X0070893Y0179885D01*
X0070838Y0179912D01*
X0070783Y0179935D01*
X0070726Y0179955D01*
X0070667Y0179971D01*
X0070608Y0179984D01*
X0070549Y0179993D01*
X0070488Y0179998D01*
X0070428Y0180000D01*
X0069428Y0180000D01*
X0068928Y0179500D01*
X0059928Y0179500D01*
X0059428Y0180000D01*
X0058428Y0180000D01*
X0058368Y0179998D01*
X0058307Y0179993D01*
X0058248Y0179984D01*
X0058189Y0179971D01*
X0058130Y0179955D01*
X0058073Y0179935D01*
X0058018Y0179912D01*
X0057963Y0179885D01*
X0057911Y0179856D01*
X0057860Y0179823D01*
X0057811Y0179787D01*
X0057765Y0179749D01*
X0057721Y0179707D01*
X0057679Y0179663D01*
X0057641Y0179617D01*
X0057605Y0179568D01*
X0057572Y0179517D01*
X0057543Y0179465D01*
X0057516Y0179410D01*
X0057493Y0179355D01*
X0057473Y0179298D01*
X0057457Y0179239D01*
X0057444Y0179180D01*
X0057435Y0179121D01*
X0057430Y0179060D01*
X0057428Y0179000D01*
X0056928Y0196500D02*
X0054428Y0199000D01*
X0054428Y0204000D01*
X0056928Y0206500D01*
X0054428Y0209000D01*
X0054428Y0214000D01*
X0056928Y0216500D01*
X0054428Y0219000D01*
X0054428Y0224000D01*
X0056928Y0226500D01*
X0061928Y0226500D01*
X0064428Y0224000D01*
X0064428Y0219000D01*
X0061928Y0216500D01*
X0064428Y0214000D01*
X0064428Y0209000D01*
X0061928Y0206500D01*
X0064428Y0204000D01*
X0064428Y0199000D01*
X0061928Y0196500D01*
X0056928Y0196500D01*
X0056928Y0206500D02*
X0061928Y0206500D01*
X0061928Y0216500D02*
X0056928Y0216500D01*
X0148428Y0228000D02*
X0149428Y0228000D01*
X0149928Y0228500D01*
X0158928Y0228500D01*
X0159428Y0228000D01*
X0160428Y0228000D01*
X0160488Y0228002D01*
X0160549Y0228007D01*
X0160608Y0228016D01*
X0160667Y0228029D01*
X0160726Y0228045D01*
X0160783Y0228065D01*
X0160838Y0228088D01*
X0160893Y0228115D01*
X0160945Y0228144D01*
X0160996Y0228177D01*
X0161045Y0228213D01*
X0161091Y0228251D01*
X0161135Y0228293D01*
X0161177Y0228337D01*
X0161215Y0228383D01*
X0161251Y0228432D01*
X0161284Y0228483D01*
X0161313Y0228535D01*
X0161340Y0228590D01*
X0161363Y0228645D01*
X0161383Y0228702D01*
X0161399Y0228761D01*
X0161412Y0228820D01*
X0161421Y0228879D01*
X0161426Y0228940D01*
X0161428Y0229000D01*
X0161428Y0234000D02*
X0161426Y0234060D01*
X0161421Y0234121D01*
X0161412Y0234180D01*
X0161399Y0234239D01*
X0161383Y0234298D01*
X0161363Y0234355D01*
X0161340Y0234410D01*
X0161313Y0234465D01*
X0161284Y0234517D01*
X0161251Y0234568D01*
X0161215Y0234617D01*
X0161177Y0234663D01*
X0161135Y0234707D01*
X0161091Y0234749D01*
X0161045Y0234787D01*
X0160996Y0234823D01*
X0160945Y0234856D01*
X0160893Y0234885D01*
X0160838Y0234912D01*
X0160783Y0234935D01*
X0160726Y0234955D01*
X0160667Y0234971D01*
X0160608Y0234984D01*
X0160549Y0234993D01*
X0160488Y0234998D01*
X0160428Y0235000D01*
X0159428Y0235000D01*
X0158928Y0234500D01*
X0149928Y0234500D01*
X0149428Y0235000D01*
X0148428Y0235000D01*
X0148368Y0234998D01*
X0148307Y0234993D01*
X0148248Y0234984D01*
X0148189Y0234971D01*
X0148130Y0234955D01*
X0148073Y0234935D01*
X0148018Y0234912D01*
X0147963Y0234885D01*
X0147911Y0234856D01*
X0147860Y0234823D01*
X0147811Y0234787D01*
X0147765Y0234749D01*
X0147721Y0234707D01*
X0147679Y0234663D01*
X0147641Y0234617D01*
X0147605Y0234568D01*
X0147572Y0234517D01*
X0147543Y0234465D01*
X0147516Y0234410D01*
X0147493Y0234355D01*
X0147473Y0234298D01*
X0147457Y0234239D01*
X0147444Y0234180D01*
X0147435Y0234121D01*
X0147430Y0234060D01*
X0147428Y0234000D01*
X0147428Y0229000D02*
X0147430Y0228940D01*
X0147435Y0228879D01*
X0147444Y0228820D01*
X0147457Y0228761D01*
X0147473Y0228702D01*
X0147493Y0228645D01*
X0147516Y0228590D01*
X0147543Y0228535D01*
X0147572Y0228483D01*
X0147605Y0228432D01*
X0147641Y0228383D01*
X0147679Y0228337D01*
X0147721Y0228293D01*
X0147765Y0228251D01*
X0147811Y0228213D01*
X0147860Y0228177D01*
X0147911Y0228144D01*
X0147963Y0228115D01*
X0148018Y0228088D01*
X0148073Y0228065D01*
X0148130Y0228045D01*
X0148189Y0228029D01*
X0148248Y0228016D01*
X0148307Y0228007D01*
X0148368Y0228002D01*
X0148428Y0228000D01*
X0154428Y0217500D02*
X0154582Y0217498D01*
X0154736Y0217492D01*
X0154890Y0217482D01*
X0155044Y0217468D01*
X0155197Y0217451D01*
X0155349Y0217429D01*
X0155501Y0217403D01*
X0155653Y0217374D01*
X0155803Y0217340D01*
X0155953Y0217303D01*
X0156101Y0217262D01*
X0156249Y0217217D01*
X0156395Y0217168D01*
X0156540Y0217116D01*
X0156683Y0217060D01*
X0156826Y0217000D01*
X0156966Y0216937D01*
X0157105Y0216870D01*
X0157242Y0216799D01*
X0157377Y0216725D01*
X0157510Y0216648D01*
X0157642Y0216567D01*
X0157771Y0216483D01*
X0157898Y0216395D01*
X0158022Y0216304D01*
X0158144Y0216211D01*
X0158264Y0216113D01*
X0158381Y0216013D01*
X0158496Y0215910D01*
X0158608Y0215804D01*
X0158717Y0215696D01*
X0158823Y0215584D01*
X0158927Y0215470D01*
X0159027Y0215353D01*
X0159125Y0215234D01*
X0159219Y0215112D01*
X0159310Y0214987D01*
X0154428Y0205500D02*
X0154276Y0205502D01*
X0154125Y0205508D01*
X0153974Y0205517D01*
X0153822Y0205531D01*
X0153672Y0205548D01*
X0153522Y0205569D01*
X0153372Y0205594D01*
X0153223Y0205622D01*
X0153075Y0205655D01*
X0152928Y0205691D01*
X0152781Y0205730D01*
X0152636Y0205774D01*
X0152492Y0205821D01*
X0152349Y0205872D01*
X0152208Y0205926D01*
X0152067Y0205984D01*
X0151929Y0206045D01*
X0151792Y0206110D01*
X0151656Y0206179D01*
X0151523Y0206250D01*
X0151391Y0206325D01*
X0151261Y0206404D01*
X0151134Y0206485D01*
X0151008Y0206570D01*
X0150884Y0206658D01*
X0150763Y0206749D01*
X0150644Y0206843D01*
X0150528Y0206941D01*
X0150414Y0207041D01*
X0150302Y0207143D01*
X0150194Y0207249D01*
X0150088Y0207357D01*
X0149984Y0207468D01*
X0149884Y0207582D01*
X0149786Y0207698D01*
X0149692Y0207817D01*
X0154428Y0205500D02*
X0154580Y0205502D01*
X0154731Y0205508D01*
X0154882Y0205517D01*
X0155034Y0205531D01*
X0155184Y0205548D01*
X0155334Y0205569D01*
X0155484Y0205594D01*
X0155633Y0205622D01*
X0155781Y0205655D01*
X0155928Y0205691D01*
X0156075Y0205730D01*
X0156220Y0205774D01*
X0156364Y0205821D01*
X0156507Y0205872D01*
X0156648Y0205926D01*
X0156789Y0205984D01*
X0156927Y0206045D01*
X0157064Y0206110D01*
X0157200Y0206179D01*
X0157333Y0206250D01*
X0157465Y0206325D01*
X0157595Y0206404D01*
X0157722Y0206485D01*
X0157848Y0206570D01*
X0157972Y0206658D01*
X0158093Y0206749D01*
X0158212Y0206843D01*
X0158328Y0206941D01*
X0158442Y0207041D01*
X0158554Y0207143D01*
X0158662Y0207249D01*
X0158768Y0207357D01*
X0158872Y0207468D01*
X0158972Y0207582D01*
X0159070Y0207698D01*
X0159164Y0207817D01*
X0154428Y0217500D02*
X0154278Y0217498D01*
X0154127Y0217492D01*
X0153977Y0217483D01*
X0153828Y0217470D01*
X0153678Y0217453D01*
X0153529Y0217432D01*
X0153381Y0217408D01*
X0153233Y0217380D01*
X0153086Y0217348D01*
X0152940Y0217313D01*
X0152795Y0217273D01*
X0152651Y0217231D01*
X0152508Y0217184D01*
X0152366Y0217134D01*
X0152225Y0217081D01*
X0152086Y0217024D01*
X0151948Y0216964D01*
X0151812Y0216900D01*
X0151678Y0216833D01*
X0151545Y0216762D01*
X0151414Y0216688D01*
X0151285Y0216611D01*
X0151158Y0216530D01*
X0151033Y0216447D01*
X0150910Y0216360D01*
X0150789Y0216271D01*
X0150671Y0216178D01*
X0150555Y0216082D01*
X0150441Y0215984D01*
X0150330Y0215883D01*
X0150221Y0215778D01*
X0150116Y0215672D01*
X0150012Y0215562D01*
X0149912Y0215450D01*
X0149814Y0215336D01*
X0149720Y0215219D01*
X0149628Y0215100D01*
X0149428Y0195000D02*
X0149928Y0194500D01*
X0158928Y0194500D01*
X0159428Y0195000D01*
X0160428Y0195000D01*
X0160488Y0194998D01*
X0160549Y0194993D01*
X0160608Y0194984D01*
X0160667Y0194971D01*
X0160726Y0194955D01*
X0160783Y0194935D01*
X0160838Y0194912D01*
X0160893Y0194885D01*
X0160945Y0194856D01*
X0160996Y0194823D01*
X0161045Y0194787D01*
X0161091Y0194749D01*
X0161135Y0194707D01*
X0161177Y0194663D01*
X0161215Y0194617D01*
X0161251Y0194568D01*
X0161284Y0194517D01*
X0161313Y0194465D01*
X0161340Y0194410D01*
X0161363Y0194355D01*
X0161383Y0194298D01*
X0161399Y0194239D01*
X0161412Y0194180D01*
X0161421Y0194121D01*
X0161426Y0194060D01*
X0161428Y0194000D01*
X0161428Y0189000D02*
X0161426Y0188940D01*
X0161421Y0188879D01*
X0161412Y0188820D01*
X0161399Y0188761D01*
X0161383Y0188702D01*
X0161363Y0188645D01*
X0161340Y0188590D01*
X0161313Y0188535D01*
X0161284Y0188483D01*
X0161251Y0188432D01*
X0161215Y0188383D01*
X0161177Y0188337D01*
X0161135Y0188293D01*
X0161091Y0188251D01*
X0161045Y0188213D01*
X0160996Y0188177D01*
X0160945Y0188144D01*
X0160893Y0188115D01*
X0160838Y0188088D01*
X0160783Y0188065D01*
X0160726Y0188045D01*
X0160667Y0188029D01*
X0160608Y0188016D01*
X0160549Y0188007D01*
X0160488Y0188002D01*
X0160428Y0188000D01*
X0159428Y0188000D01*
X0158928Y0188500D01*
X0149928Y0188500D01*
X0149428Y0188000D01*
X0148428Y0188000D01*
X0148368Y0188002D01*
X0148307Y0188007D01*
X0148248Y0188016D01*
X0148189Y0188029D01*
X0148130Y0188045D01*
X0148073Y0188065D01*
X0148018Y0188088D01*
X0147963Y0188115D01*
X0147911Y0188144D01*
X0147860Y0188177D01*
X0147811Y0188213D01*
X0147765Y0188251D01*
X0147721Y0188293D01*
X0147679Y0188337D01*
X0147641Y0188383D01*
X0147605Y0188432D01*
X0147572Y0188483D01*
X0147543Y0188535D01*
X0147516Y0188590D01*
X0147493Y0188645D01*
X0147473Y0188702D01*
X0147457Y0188761D01*
X0147444Y0188820D01*
X0147435Y0188879D01*
X0147430Y0188940D01*
X0147428Y0189000D01*
X0147428Y0194000D02*
X0147430Y0194060D01*
X0147435Y0194121D01*
X0147444Y0194180D01*
X0147457Y0194239D01*
X0147473Y0194298D01*
X0147493Y0194355D01*
X0147516Y0194410D01*
X0147543Y0194465D01*
X0147572Y0194517D01*
X0147605Y0194568D01*
X0147641Y0194617D01*
X0147679Y0194663D01*
X0147721Y0194707D01*
X0147765Y0194749D01*
X0147811Y0194787D01*
X0147860Y0194823D01*
X0147911Y0194856D01*
X0147963Y0194885D01*
X0148018Y0194912D01*
X0148073Y0194935D01*
X0148130Y0194955D01*
X0148189Y0194971D01*
X0148248Y0194984D01*
X0148307Y0194993D01*
X0148368Y0194998D01*
X0148428Y0195000D01*
X0149428Y0195000D01*
X0154428Y0177500D02*
X0154582Y0177498D01*
X0154736Y0177492D01*
X0154890Y0177482D01*
X0155044Y0177468D01*
X0155197Y0177451D01*
X0155349Y0177429D01*
X0155501Y0177403D01*
X0155653Y0177374D01*
X0155803Y0177340D01*
X0155953Y0177303D01*
X0156101Y0177262D01*
X0156249Y0177217D01*
X0156395Y0177168D01*
X0156540Y0177116D01*
X0156683Y0177060D01*
X0156826Y0177000D01*
X0156966Y0176937D01*
X0157105Y0176870D01*
X0157242Y0176799D01*
X0157377Y0176725D01*
X0157510Y0176648D01*
X0157642Y0176567D01*
X0157771Y0176483D01*
X0157898Y0176395D01*
X0158022Y0176304D01*
X0158144Y0176211D01*
X0158264Y0176113D01*
X0158381Y0176013D01*
X0158496Y0175910D01*
X0158608Y0175804D01*
X0158717Y0175696D01*
X0158823Y0175584D01*
X0158927Y0175470D01*
X0159027Y0175353D01*
X0159125Y0175234D01*
X0159219Y0175112D01*
X0159310Y0174987D01*
X0154428Y0165500D02*
X0154276Y0165502D01*
X0154125Y0165508D01*
X0153974Y0165517D01*
X0153822Y0165531D01*
X0153672Y0165548D01*
X0153522Y0165569D01*
X0153372Y0165594D01*
X0153223Y0165622D01*
X0153075Y0165655D01*
X0152928Y0165691D01*
X0152781Y0165730D01*
X0152636Y0165774D01*
X0152492Y0165821D01*
X0152349Y0165872D01*
X0152208Y0165926D01*
X0152067Y0165984D01*
X0151929Y0166045D01*
X0151792Y0166110D01*
X0151656Y0166179D01*
X0151523Y0166250D01*
X0151391Y0166325D01*
X0151261Y0166404D01*
X0151134Y0166485D01*
X0151008Y0166570D01*
X0150884Y0166658D01*
X0150763Y0166749D01*
X0150644Y0166843D01*
X0150528Y0166941D01*
X0150414Y0167041D01*
X0150302Y0167143D01*
X0150194Y0167249D01*
X0150088Y0167357D01*
X0149984Y0167468D01*
X0149884Y0167582D01*
X0149786Y0167698D01*
X0149692Y0167817D01*
X0154428Y0165500D02*
X0154580Y0165502D01*
X0154731Y0165508D01*
X0154882Y0165517D01*
X0155034Y0165531D01*
X0155184Y0165548D01*
X0155334Y0165569D01*
X0155484Y0165594D01*
X0155633Y0165622D01*
X0155781Y0165655D01*
X0155928Y0165691D01*
X0156075Y0165730D01*
X0156220Y0165774D01*
X0156364Y0165821D01*
X0156507Y0165872D01*
X0156648Y0165926D01*
X0156789Y0165984D01*
X0156927Y0166045D01*
X0157064Y0166110D01*
X0157200Y0166179D01*
X0157333Y0166250D01*
X0157465Y0166325D01*
X0157595Y0166404D01*
X0157722Y0166485D01*
X0157848Y0166570D01*
X0157972Y0166658D01*
X0158093Y0166749D01*
X0158212Y0166843D01*
X0158328Y0166941D01*
X0158442Y0167041D01*
X0158554Y0167143D01*
X0158662Y0167249D01*
X0158768Y0167357D01*
X0158872Y0167468D01*
X0158972Y0167582D01*
X0159070Y0167698D01*
X0159164Y0167817D01*
X0154428Y0177500D02*
X0154278Y0177498D01*
X0154127Y0177492D01*
X0153977Y0177483D01*
X0153828Y0177470D01*
X0153678Y0177453D01*
X0153529Y0177432D01*
X0153381Y0177408D01*
X0153233Y0177380D01*
X0153086Y0177348D01*
X0152940Y0177313D01*
X0152795Y0177273D01*
X0152651Y0177231D01*
X0152508Y0177184D01*
X0152366Y0177134D01*
X0152225Y0177081D01*
X0152086Y0177024D01*
X0151948Y0176964D01*
X0151812Y0176900D01*
X0151678Y0176833D01*
X0151545Y0176762D01*
X0151414Y0176688D01*
X0151285Y0176611D01*
X0151158Y0176530D01*
X0151033Y0176447D01*
X0150910Y0176360D01*
X0150789Y0176271D01*
X0150671Y0176178D01*
X0150555Y0176082D01*
X0150441Y0175984D01*
X0150330Y0175883D01*
X0150221Y0175778D01*
X0150116Y0175672D01*
X0150012Y0175562D01*
X0149912Y0175450D01*
X0149814Y0175336D01*
X0149720Y0175219D01*
X0149628Y0175100D01*
X0183428Y0188000D02*
X0184428Y0188000D01*
X0184928Y0188500D01*
X0193928Y0188500D01*
X0194428Y0188000D01*
X0195428Y0188000D01*
X0195488Y0188002D01*
X0195549Y0188007D01*
X0195608Y0188016D01*
X0195667Y0188029D01*
X0195726Y0188045D01*
X0195783Y0188065D01*
X0195838Y0188088D01*
X0195893Y0188115D01*
X0195945Y0188144D01*
X0195996Y0188177D01*
X0196045Y0188213D01*
X0196091Y0188251D01*
X0196135Y0188293D01*
X0196177Y0188337D01*
X0196215Y0188383D01*
X0196251Y0188432D01*
X0196284Y0188483D01*
X0196313Y0188535D01*
X0196340Y0188590D01*
X0196363Y0188645D01*
X0196383Y0188702D01*
X0196399Y0188761D01*
X0196412Y0188820D01*
X0196421Y0188879D01*
X0196426Y0188940D01*
X0196428Y0189000D01*
X0196428Y0194000D02*
X0196426Y0194060D01*
X0196421Y0194121D01*
X0196412Y0194180D01*
X0196399Y0194239D01*
X0196383Y0194298D01*
X0196363Y0194355D01*
X0196340Y0194410D01*
X0196313Y0194465D01*
X0196284Y0194517D01*
X0196251Y0194568D01*
X0196215Y0194617D01*
X0196177Y0194663D01*
X0196135Y0194707D01*
X0196091Y0194749D01*
X0196045Y0194787D01*
X0195996Y0194823D01*
X0195945Y0194856D01*
X0195893Y0194885D01*
X0195838Y0194912D01*
X0195783Y0194935D01*
X0195726Y0194955D01*
X0195667Y0194971D01*
X0195608Y0194984D01*
X0195549Y0194993D01*
X0195488Y0194998D01*
X0195428Y0195000D01*
X0194428Y0195000D01*
X0193928Y0194500D01*
X0184928Y0194500D01*
X0184428Y0195000D01*
X0183428Y0195000D01*
X0183368Y0194998D01*
X0183307Y0194993D01*
X0183248Y0194984D01*
X0183189Y0194971D01*
X0183130Y0194955D01*
X0183073Y0194935D01*
X0183018Y0194912D01*
X0182963Y0194885D01*
X0182911Y0194856D01*
X0182860Y0194823D01*
X0182811Y0194787D01*
X0182765Y0194749D01*
X0182721Y0194707D01*
X0182679Y0194663D01*
X0182641Y0194617D01*
X0182605Y0194568D01*
X0182572Y0194517D01*
X0182543Y0194465D01*
X0182516Y0194410D01*
X0182493Y0194355D01*
X0182473Y0194298D01*
X0182457Y0194239D01*
X0182444Y0194180D01*
X0182435Y0194121D01*
X0182430Y0194060D01*
X0182428Y0194000D01*
X0182428Y0189000D02*
X0182430Y0188940D01*
X0182435Y0188879D01*
X0182444Y0188820D01*
X0182457Y0188761D01*
X0182473Y0188702D01*
X0182493Y0188645D01*
X0182516Y0188590D01*
X0182543Y0188535D01*
X0182572Y0188483D01*
X0182605Y0188432D01*
X0182641Y0188383D01*
X0182679Y0188337D01*
X0182721Y0188293D01*
X0182765Y0188251D01*
X0182811Y0188213D01*
X0182860Y0188177D01*
X0182911Y0188144D01*
X0182963Y0188115D01*
X0183018Y0188088D01*
X0183073Y0188065D01*
X0183130Y0188045D01*
X0183189Y0188029D01*
X0183248Y0188016D01*
X0183307Y0188007D01*
X0183368Y0188002D01*
X0183428Y0188000D01*
X0189428Y0177500D02*
X0189582Y0177498D01*
X0189736Y0177492D01*
X0189890Y0177482D01*
X0190044Y0177468D01*
X0190197Y0177451D01*
X0190349Y0177429D01*
X0190501Y0177403D01*
X0190653Y0177374D01*
X0190803Y0177340D01*
X0190953Y0177303D01*
X0191101Y0177262D01*
X0191249Y0177217D01*
X0191395Y0177168D01*
X0191540Y0177116D01*
X0191683Y0177060D01*
X0191826Y0177000D01*
X0191966Y0176937D01*
X0192105Y0176870D01*
X0192242Y0176799D01*
X0192377Y0176725D01*
X0192510Y0176648D01*
X0192642Y0176567D01*
X0192771Y0176483D01*
X0192898Y0176395D01*
X0193022Y0176304D01*
X0193144Y0176211D01*
X0193264Y0176113D01*
X0193381Y0176013D01*
X0193496Y0175910D01*
X0193608Y0175804D01*
X0193717Y0175696D01*
X0193823Y0175584D01*
X0193927Y0175470D01*
X0194027Y0175353D01*
X0194125Y0175234D01*
X0194219Y0175112D01*
X0194310Y0174987D01*
X0189428Y0165500D02*
X0189276Y0165502D01*
X0189125Y0165508D01*
X0188974Y0165517D01*
X0188822Y0165531D01*
X0188672Y0165548D01*
X0188522Y0165569D01*
X0188372Y0165594D01*
X0188223Y0165622D01*
X0188075Y0165655D01*
X0187928Y0165691D01*
X0187781Y0165730D01*
X0187636Y0165774D01*
X0187492Y0165821D01*
X0187349Y0165872D01*
X0187208Y0165926D01*
X0187067Y0165984D01*
X0186929Y0166045D01*
X0186792Y0166110D01*
X0186656Y0166179D01*
X0186523Y0166250D01*
X0186391Y0166325D01*
X0186261Y0166404D01*
X0186134Y0166485D01*
X0186008Y0166570D01*
X0185884Y0166658D01*
X0185763Y0166749D01*
X0185644Y0166843D01*
X0185528Y0166941D01*
X0185414Y0167041D01*
X0185302Y0167143D01*
X0185194Y0167249D01*
X0185088Y0167357D01*
X0184984Y0167468D01*
X0184884Y0167582D01*
X0184786Y0167698D01*
X0184692Y0167817D01*
X0189428Y0165500D02*
X0189580Y0165502D01*
X0189731Y0165508D01*
X0189882Y0165517D01*
X0190034Y0165531D01*
X0190184Y0165548D01*
X0190334Y0165569D01*
X0190484Y0165594D01*
X0190633Y0165622D01*
X0190781Y0165655D01*
X0190928Y0165691D01*
X0191075Y0165730D01*
X0191220Y0165774D01*
X0191364Y0165821D01*
X0191507Y0165872D01*
X0191648Y0165926D01*
X0191789Y0165984D01*
X0191927Y0166045D01*
X0192064Y0166110D01*
X0192200Y0166179D01*
X0192333Y0166250D01*
X0192465Y0166325D01*
X0192595Y0166404D01*
X0192722Y0166485D01*
X0192848Y0166570D01*
X0192972Y0166658D01*
X0193093Y0166749D01*
X0193212Y0166843D01*
X0193328Y0166941D01*
X0193442Y0167041D01*
X0193554Y0167143D01*
X0193662Y0167249D01*
X0193768Y0167357D01*
X0193872Y0167468D01*
X0193972Y0167582D01*
X0194070Y0167698D01*
X0194164Y0167817D01*
X0189428Y0177500D02*
X0189278Y0177498D01*
X0189127Y0177492D01*
X0188977Y0177483D01*
X0188828Y0177470D01*
X0188678Y0177453D01*
X0188529Y0177432D01*
X0188381Y0177408D01*
X0188233Y0177380D01*
X0188086Y0177348D01*
X0187940Y0177313D01*
X0187795Y0177273D01*
X0187651Y0177231D01*
X0187508Y0177184D01*
X0187366Y0177134D01*
X0187225Y0177081D01*
X0187086Y0177024D01*
X0186948Y0176964D01*
X0186812Y0176900D01*
X0186678Y0176833D01*
X0186545Y0176762D01*
X0186414Y0176688D01*
X0186285Y0176611D01*
X0186158Y0176530D01*
X0186033Y0176447D01*
X0185910Y0176360D01*
X0185789Y0176271D01*
X0185671Y0176178D01*
X0185555Y0176082D01*
X0185441Y0175984D01*
X0185330Y0175883D01*
X0185221Y0175778D01*
X0185116Y0175672D01*
X0185012Y0175562D01*
X0184912Y0175450D01*
X0184814Y0175336D01*
X0184720Y0175219D01*
X0184628Y0175100D01*
X0194310Y0214987D02*
X0194219Y0215112D01*
X0194125Y0215234D01*
X0194027Y0215353D01*
X0193927Y0215470D01*
X0193823Y0215584D01*
X0193717Y0215696D01*
X0193608Y0215804D01*
X0193496Y0215910D01*
X0193381Y0216013D01*
X0193264Y0216113D01*
X0193144Y0216211D01*
X0193022Y0216304D01*
X0192898Y0216395D01*
X0192771Y0216483D01*
X0192642Y0216567D01*
X0192510Y0216648D01*
X0192377Y0216725D01*
X0192242Y0216799D01*
X0192105Y0216870D01*
X0191966Y0216937D01*
X0191826Y0217000D01*
X0191683Y0217060D01*
X0191540Y0217116D01*
X0191395Y0217168D01*
X0191249Y0217217D01*
X0191101Y0217262D01*
X0190953Y0217303D01*
X0190803Y0217340D01*
X0190653Y0217374D01*
X0190501Y0217403D01*
X0190349Y0217429D01*
X0190197Y0217451D01*
X0190044Y0217468D01*
X0189890Y0217482D01*
X0189736Y0217492D01*
X0189582Y0217498D01*
X0189428Y0217500D01*
X0184692Y0207817D02*
X0184786Y0207698D01*
X0184884Y0207582D01*
X0184984Y0207468D01*
X0185088Y0207357D01*
X0185194Y0207249D01*
X0185302Y0207143D01*
X0185414Y0207041D01*
X0185528Y0206941D01*
X0185644Y0206843D01*
X0185763Y0206749D01*
X0185884Y0206658D01*
X0186008Y0206570D01*
X0186134Y0206485D01*
X0186261Y0206404D01*
X0186391Y0206325D01*
X0186523Y0206250D01*
X0186656Y0206179D01*
X0186792Y0206110D01*
X0186929Y0206045D01*
X0187067Y0205984D01*
X0187208Y0205926D01*
X0187349Y0205872D01*
X0187492Y0205821D01*
X0187636Y0205774D01*
X0187781Y0205730D01*
X0187928Y0205691D01*
X0188075Y0205655D01*
X0188223Y0205622D01*
X0188372Y0205594D01*
X0188522Y0205569D01*
X0188672Y0205548D01*
X0188822Y0205531D01*
X0188974Y0205517D01*
X0189125Y0205508D01*
X0189276Y0205502D01*
X0189428Y0205500D01*
X0184628Y0215100D02*
X0184720Y0215219D01*
X0184814Y0215336D01*
X0184912Y0215450D01*
X0185012Y0215562D01*
X0185116Y0215672D01*
X0185221Y0215778D01*
X0185330Y0215883D01*
X0185441Y0215984D01*
X0185555Y0216082D01*
X0185671Y0216178D01*
X0185789Y0216271D01*
X0185910Y0216360D01*
X0186033Y0216447D01*
X0186158Y0216530D01*
X0186285Y0216611D01*
X0186414Y0216688D01*
X0186545Y0216762D01*
X0186678Y0216833D01*
X0186812Y0216900D01*
X0186948Y0216964D01*
X0187086Y0217024D01*
X0187225Y0217081D01*
X0187366Y0217134D01*
X0187508Y0217184D01*
X0187651Y0217231D01*
X0187795Y0217273D01*
X0187940Y0217313D01*
X0188086Y0217348D01*
X0188233Y0217380D01*
X0188381Y0217408D01*
X0188529Y0217432D01*
X0188678Y0217453D01*
X0188828Y0217470D01*
X0188977Y0217483D01*
X0189127Y0217492D01*
X0189278Y0217498D01*
X0189428Y0217500D01*
X0194164Y0207817D02*
X0194070Y0207698D01*
X0193972Y0207582D01*
X0193872Y0207468D01*
X0193768Y0207357D01*
X0193662Y0207249D01*
X0193554Y0207143D01*
X0193442Y0207041D01*
X0193328Y0206941D01*
X0193212Y0206843D01*
X0193093Y0206749D01*
X0192972Y0206658D01*
X0192848Y0206570D01*
X0192722Y0206485D01*
X0192595Y0206404D01*
X0192465Y0206325D01*
X0192333Y0206250D01*
X0192200Y0206179D01*
X0192064Y0206110D01*
X0191927Y0206045D01*
X0191789Y0205984D01*
X0191648Y0205926D01*
X0191507Y0205872D01*
X0191364Y0205821D01*
X0191220Y0205774D01*
X0191075Y0205730D01*
X0190928Y0205691D01*
X0190781Y0205655D01*
X0190633Y0205622D01*
X0190484Y0205594D01*
X0190334Y0205569D01*
X0190184Y0205548D01*
X0190034Y0205531D01*
X0189882Y0205517D01*
X0189731Y0205508D01*
X0189580Y0205502D01*
X0189428Y0205500D01*
X0184428Y0228000D02*
X0183428Y0228000D01*
X0183368Y0228002D01*
X0183307Y0228007D01*
X0183248Y0228016D01*
X0183189Y0228029D01*
X0183130Y0228045D01*
X0183073Y0228065D01*
X0183018Y0228088D01*
X0182963Y0228115D01*
X0182911Y0228144D01*
X0182860Y0228177D01*
X0182811Y0228213D01*
X0182765Y0228251D01*
X0182721Y0228293D01*
X0182679Y0228337D01*
X0182641Y0228383D01*
X0182605Y0228432D01*
X0182572Y0228483D01*
X0182543Y0228535D01*
X0182516Y0228590D01*
X0182493Y0228645D01*
X0182473Y0228702D01*
X0182457Y0228761D01*
X0182444Y0228820D01*
X0182435Y0228879D01*
X0182430Y0228940D01*
X0182428Y0229000D01*
X0184428Y0228000D02*
X0184928Y0228500D01*
X0193928Y0228500D01*
X0194428Y0228000D01*
X0195428Y0228000D01*
X0195488Y0228002D01*
X0195549Y0228007D01*
X0195608Y0228016D01*
X0195667Y0228029D01*
X0195726Y0228045D01*
X0195783Y0228065D01*
X0195838Y0228088D01*
X0195893Y0228115D01*
X0195945Y0228144D01*
X0195996Y0228177D01*
X0196045Y0228213D01*
X0196091Y0228251D01*
X0196135Y0228293D01*
X0196177Y0228337D01*
X0196215Y0228383D01*
X0196251Y0228432D01*
X0196284Y0228483D01*
X0196313Y0228535D01*
X0196340Y0228590D01*
X0196363Y0228645D01*
X0196383Y0228702D01*
X0196399Y0228761D01*
X0196412Y0228820D01*
X0196421Y0228879D01*
X0196426Y0228940D01*
X0196428Y0229000D01*
X0196428Y0234000D02*
X0196426Y0234060D01*
X0196421Y0234121D01*
X0196412Y0234180D01*
X0196399Y0234239D01*
X0196383Y0234298D01*
X0196363Y0234355D01*
X0196340Y0234410D01*
X0196313Y0234465D01*
X0196284Y0234517D01*
X0196251Y0234568D01*
X0196215Y0234617D01*
X0196177Y0234663D01*
X0196135Y0234707D01*
X0196091Y0234749D01*
X0196045Y0234787D01*
X0195996Y0234823D01*
X0195945Y0234856D01*
X0195893Y0234885D01*
X0195838Y0234912D01*
X0195783Y0234935D01*
X0195726Y0234955D01*
X0195667Y0234971D01*
X0195608Y0234984D01*
X0195549Y0234993D01*
X0195488Y0234998D01*
X0195428Y0235000D01*
X0194428Y0235000D01*
X0193928Y0234500D01*
X0184928Y0234500D01*
X0184428Y0235000D01*
X0183428Y0235000D01*
X0183368Y0234998D01*
X0183307Y0234993D01*
X0183248Y0234984D01*
X0183189Y0234971D01*
X0183130Y0234955D01*
X0183073Y0234935D01*
X0183018Y0234912D01*
X0182963Y0234885D01*
X0182911Y0234856D01*
X0182860Y0234823D01*
X0182811Y0234787D01*
X0182765Y0234749D01*
X0182721Y0234707D01*
X0182679Y0234663D01*
X0182641Y0234617D01*
X0182605Y0234568D01*
X0182572Y0234517D01*
X0182543Y0234465D01*
X0182516Y0234410D01*
X0182493Y0234355D01*
X0182473Y0234298D01*
X0182457Y0234239D01*
X0182444Y0234180D01*
X0182435Y0234121D01*
X0182430Y0234060D01*
X0182428Y0234000D01*
X0194310Y0254987D02*
X0194219Y0255112D01*
X0194125Y0255234D01*
X0194027Y0255353D01*
X0193927Y0255470D01*
X0193823Y0255584D01*
X0193717Y0255696D01*
X0193608Y0255804D01*
X0193496Y0255910D01*
X0193381Y0256013D01*
X0193264Y0256113D01*
X0193144Y0256211D01*
X0193022Y0256304D01*
X0192898Y0256395D01*
X0192771Y0256483D01*
X0192642Y0256567D01*
X0192510Y0256648D01*
X0192377Y0256725D01*
X0192242Y0256799D01*
X0192105Y0256870D01*
X0191966Y0256937D01*
X0191826Y0257000D01*
X0191683Y0257060D01*
X0191540Y0257116D01*
X0191395Y0257168D01*
X0191249Y0257217D01*
X0191101Y0257262D01*
X0190953Y0257303D01*
X0190803Y0257340D01*
X0190653Y0257374D01*
X0190501Y0257403D01*
X0190349Y0257429D01*
X0190197Y0257451D01*
X0190044Y0257468D01*
X0189890Y0257482D01*
X0189736Y0257492D01*
X0189582Y0257498D01*
X0189428Y0257500D01*
X0184692Y0247817D02*
X0184786Y0247698D01*
X0184884Y0247582D01*
X0184984Y0247468D01*
X0185088Y0247357D01*
X0185194Y0247249D01*
X0185302Y0247143D01*
X0185414Y0247041D01*
X0185528Y0246941D01*
X0185644Y0246843D01*
X0185763Y0246749D01*
X0185884Y0246658D01*
X0186008Y0246570D01*
X0186134Y0246485D01*
X0186261Y0246404D01*
X0186391Y0246325D01*
X0186523Y0246250D01*
X0186656Y0246179D01*
X0186792Y0246110D01*
X0186929Y0246045D01*
X0187067Y0245984D01*
X0187208Y0245926D01*
X0187349Y0245872D01*
X0187492Y0245821D01*
X0187636Y0245774D01*
X0187781Y0245730D01*
X0187928Y0245691D01*
X0188075Y0245655D01*
X0188223Y0245622D01*
X0188372Y0245594D01*
X0188522Y0245569D01*
X0188672Y0245548D01*
X0188822Y0245531D01*
X0188974Y0245517D01*
X0189125Y0245508D01*
X0189276Y0245502D01*
X0189428Y0245500D01*
X0184628Y0255100D02*
X0184720Y0255219D01*
X0184814Y0255336D01*
X0184912Y0255450D01*
X0185012Y0255562D01*
X0185116Y0255672D01*
X0185221Y0255778D01*
X0185330Y0255883D01*
X0185441Y0255984D01*
X0185555Y0256082D01*
X0185671Y0256178D01*
X0185789Y0256271D01*
X0185910Y0256360D01*
X0186033Y0256447D01*
X0186158Y0256530D01*
X0186285Y0256611D01*
X0186414Y0256688D01*
X0186545Y0256762D01*
X0186678Y0256833D01*
X0186812Y0256900D01*
X0186948Y0256964D01*
X0187086Y0257024D01*
X0187225Y0257081D01*
X0187366Y0257134D01*
X0187508Y0257184D01*
X0187651Y0257231D01*
X0187795Y0257273D01*
X0187940Y0257313D01*
X0188086Y0257348D01*
X0188233Y0257380D01*
X0188381Y0257408D01*
X0188529Y0257432D01*
X0188678Y0257453D01*
X0188828Y0257470D01*
X0188977Y0257483D01*
X0189127Y0257492D01*
X0189278Y0257498D01*
X0189428Y0257500D01*
X0194164Y0247817D02*
X0194070Y0247698D01*
X0193972Y0247582D01*
X0193872Y0247468D01*
X0193768Y0247357D01*
X0193662Y0247249D01*
X0193554Y0247143D01*
X0193442Y0247041D01*
X0193328Y0246941D01*
X0193212Y0246843D01*
X0193093Y0246749D01*
X0192972Y0246658D01*
X0192848Y0246570D01*
X0192722Y0246485D01*
X0192595Y0246404D01*
X0192465Y0246325D01*
X0192333Y0246250D01*
X0192200Y0246179D01*
X0192064Y0246110D01*
X0191927Y0246045D01*
X0191789Y0245984D01*
X0191648Y0245926D01*
X0191507Y0245872D01*
X0191364Y0245821D01*
X0191220Y0245774D01*
X0191075Y0245730D01*
X0190928Y0245691D01*
X0190781Y0245655D01*
X0190633Y0245622D01*
X0190484Y0245594D01*
X0190334Y0245569D01*
X0190184Y0245548D01*
X0190034Y0245531D01*
X0189882Y0245517D01*
X0189731Y0245508D01*
X0189580Y0245502D01*
X0189428Y0245500D01*
X0184428Y0268000D02*
X0183428Y0268000D01*
X0183368Y0268002D01*
X0183307Y0268007D01*
X0183248Y0268016D01*
X0183189Y0268029D01*
X0183130Y0268045D01*
X0183073Y0268065D01*
X0183018Y0268088D01*
X0182963Y0268115D01*
X0182911Y0268144D01*
X0182860Y0268177D01*
X0182811Y0268213D01*
X0182765Y0268251D01*
X0182721Y0268293D01*
X0182679Y0268337D01*
X0182641Y0268383D01*
X0182605Y0268432D01*
X0182572Y0268483D01*
X0182543Y0268535D01*
X0182516Y0268590D01*
X0182493Y0268645D01*
X0182473Y0268702D01*
X0182457Y0268761D01*
X0182444Y0268820D01*
X0182435Y0268879D01*
X0182430Y0268940D01*
X0182428Y0269000D01*
X0184428Y0268000D02*
X0184928Y0268500D01*
X0193928Y0268500D01*
X0194428Y0268000D01*
X0195428Y0268000D01*
X0195488Y0268002D01*
X0195549Y0268007D01*
X0195608Y0268016D01*
X0195667Y0268029D01*
X0195726Y0268045D01*
X0195783Y0268065D01*
X0195838Y0268088D01*
X0195893Y0268115D01*
X0195945Y0268144D01*
X0195996Y0268177D01*
X0196045Y0268213D01*
X0196091Y0268251D01*
X0196135Y0268293D01*
X0196177Y0268337D01*
X0196215Y0268383D01*
X0196251Y0268432D01*
X0196284Y0268483D01*
X0196313Y0268535D01*
X0196340Y0268590D01*
X0196363Y0268645D01*
X0196383Y0268702D01*
X0196399Y0268761D01*
X0196412Y0268820D01*
X0196421Y0268879D01*
X0196426Y0268940D01*
X0196428Y0269000D01*
X0196428Y0274000D02*
X0196426Y0274060D01*
X0196421Y0274121D01*
X0196412Y0274180D01*
X0196399Y0274239D01*
X0196383Y0274298D01*
X0196363Y0274355D01*
X0196340Y0274410D01*
X0196313Y0274465D01*
X0196284Y0274517D01*
X0196251Y0274568D01*
X0196215Y0274617D01*
X0196177Y0274663D01*
X0196135Y0274707D01*
X0196091Y0274749D01*
X0196045Y0274787D01*
X0195996Y0274823D01*
X0195945Y0274856D01*
X0195893Y0274885D01*
X0195838Y0274912D01*
X0195783Y0274935D01*
X0195726Y0274955D01*
X0195667Y0274971D01*
X0195608Y0274984D01*
X0195549Y0274993D01*
X0195488Y0274998D01*
X0195428Y0275000D01*
X0194428Y0275000D01*
X0193928Y0274500D01*
X0184928Y0274500D01*
X0184428Y0275000D01*
X0183428Y0275000D01*
X0183368Y0274998D01*
X0183307Y0274993D01*
X0183248Y0274984D01*
X0183189Y0274971D01*
X0183130Y0274955D01*
X0183073Y0274935D01*
X0183018Y0274912D01*
X0182963Y0274885D01*
X0182911Y0274856D01*
X0182860Y0274823D01*
X0182811Y0274787D01*
X0182765Y0274749D01*
X0182721Y0274707D01*
X0182679Y0274663D01*
X0182641Y0274617D01*
X0182605Y0274568D01*
X0182572Y0274517D01*
X0182543Y0274465D01*
X0182516Y0274410D01*
X0182493Y0274355D01*
X0182473Y0274298D01*
X0182457Y0274239D01*
X0182444Y0274180D01*
X0182435Y0274121D01*
X0182430Y0274060D01*
X0182428Y0274000D01*
X0161428Y0274000D02*
X0161426Y0274060D01*
X0161421Y0274121D01*
X0161412Y0274180D01*
X0161399Y0274239D01*
X0161383Y0274298D01*
X0161363Y0274355D01*
X0161340Y0274410D01*
X0161313Y0274465D01*
X0161284Y0274517D01*
X0161251Y0274568D01*
X0161215Y0274617D01*
X0161177Y0274663D01*
X0161135Y0274707D01*
X0161091Y0274749D01*
X0161045Y0274787D01*
X0160996Y0274823D01*
X0160945Y0274856D01*
X0160893Y0274885D01*
X0160838Y0274912D01*
X0160783Y0274935D01*
X0160726Y0274955D01*
X0160667Y0274971D01*
X0160608Y0274984D01*
X0160549Y0274993D01*
X0160488Y0274998D01*
X0160428Y0275000D01*
X0159428Y0275000D01*
X0158928Y0274500D01*
X0149928Y0274500D01*
X0149428Y0275000D01*
X0148428Y0275000D01*
X0148368Y0274998D01*
X0148307Y0274993D01*
X0148248Y0274984D01*
X0148189Y0274971D01*
X0148130Y0274955D01*
X0148073Y0274935D01*
X0148018Y0274912D01*
X0147963Y0274885D01*
X0147911Y0274856D01*
X0147860Y0274823D01*
X0147811Y0274787D01*
X0147765Y0274749D01*
X0147721Y0274707D01*
X0147679Y0274663D01*
X0147641Y0274617D01*
X0147605Y0274568D01*
X0147572Y0274517D01*
X0147543Y0274465D01*
X0147516Y0274410D01*
X0147493Y0274355D01*
X0147473Y0274298D01*
X0147457Y0274239D01*
X0147444Y0274180D01*
X0147435Y0274121D01*
X0147430Y0274060D01*
X0147428Y0274000D01*
X0147428Y0269000D02*
X0147430Y0268940D01*
X0147435Y0268879D01*
X0147444Y0268820D01*
X0147457Y0268761D01*
X0147473Y0268702D01*
X0147493Y0268645D01*
X0147516Y0268590D01*
X0147543Y0268535D01*
X0147572Y0268483D01*
X0147605Y0268432D01*
X0147641Y0268383D01*
X0147679Y0268337D01*
X0147721Y0268293D01*
X0147765Y0268251D01*
X0147811Y0268213D01*
X0147860Y0268177D01*
X0147911Y0268144D01*
X0147963Y0268115D01*
X0148018Y0268088D01*
X0148073Y0268065D01*
X0148130Y0268045D01*
X0148189Y0268029D01*
X0148248Y0268016D01*
X0148307Y0268007D01*
X0148368Y0268002D01*
X0148428Y0268000D01*
X0149428Y0268000D01*
X0149928Y0268500D01*
X0158928Y0268500D01*
X0159428Y0268000D01*
X0160428Y0268000D01*
X0160488Y0268002D01*
X0160549Y0268007D01*
X0160608Y0268016D01*
X0160667Y0268029D01*
X0160726Y0268045D01*
X0160783Y0268065D01*
X0160838Y0268088D01*
X0160893Y0268115D01*
X0160945Y0268144D01*
X0160996Y0268177D01*
X0161045Y0268213D01*
X0161091Y0268251D01*
X0161135Y0268293D01*
X0161177Y0268337D01*
X0161215Y0268383D01*
X0161251Y0268432D01*
X0161284Y0268483D01*
X0161313Y0268535D01*
X0161340Y0268590D01*
X0161363Y0268645D01*
X0161383Y0268702D01*
X0161399Y0268761D01*
X0161412Y0268820D01*
X0161421Y0268879D01*
X0161426Y0268940D01*
X0161428Y0269000D01*
X0149692Y0247817D02*
X0149786Y0247698D01*
X0149884Y0247582D01*
X0149984Y0247468D01*
X0150088Y0247357D01*
X0150194Y0247249D01*
X0150302Y0247143D01*
X0150414Y0247041D01*
X0150528Y0246941D01*
X0150644Y0246843D01*
X0150763Y0246749D01*
X0150884Y0246658D01*
X0151008Y0246570D01*
X0151134Y0246485D01*
X0151261Y0246404D01*
X0151391Y0246325D01*
X0151523Y0246250D01*
X0151656Y0246179D01*
X0151792Y0246110D01*
X0151929Y0246045D01*
X0152067Y0245984D01*
X0152208Y0245926D01*
X0152349Y0245872D01*
X0152492Y0245821D01*
X0152636Y0245774D01*
X0152781Y0245730D01*
X0152928Y0245691D01*
X0153075Y0245655D01*
X0153223Y0245622D01*
X0153372Y0245594D01*
X0153522Y0245569D01*
X0153672Y0245548D01*
X0153822Y0245531D01*
X0153974Y0245517D01*
X0154125Y0245508D01*
X0154276Y0245502D01*
X0154428Y0245500D01*
X0149628Y0255100D02*
X0149720Y0255219D01*
X0149814Y0255336D01*
X0149912Y0255450D01*
X0150012Y0255562D01*
X0150116Y0255672D01*
X0150221Y0255778D01*
X0150330Y0255883D01*
X0150441Y0255984D01*
X0150555Y0256082D01*
X0150671Y0256178D01*
X0150789Y0256271D01*
X0150910Y0256360D01*
X0151033Y0256447D01*
X0151158Y0256530D01*
X0151285Y0256611D01*
X0151414Y0256688D01*
X0151545Y0256762D01*
X0151678Y0256833D01*
X0151812Y0256900D01*
X0151948Y0256964D01*
X0152086Y0257024D01*
X0152225Y0257081D01*
X0152366Y0257134D01*
X0152508Y0257184D01*
X0152651Y0257231D01*
X0152795Y0257273D01*
X0152940Y0257313D01*
X0153086Y0257348D01*
X0153233Y0257380D01*
X0153381Y0257408D01*
X0153529Y0257432D01*
X0153678Y0257453D01*
X0153828Y0257470D01*
X0153977Y0257483D01*
X0154127Y0257492D01*
X0154278Y0257498D01*
X0154428Y0257500D01*
X0159164Y0247817D02*
X0159070Y0247698D01*
X0158972Y0247582D01*
X0158872Y0247468D01*
X0158768Y0247357D01*
X0158662Y0247249D01*
X0158554Y0247143D01*
X0158442Y0247041D01*
X0158328Y0246941D01*
X0158212Y0246843D01*
X0158093Y0246749D01*
X0157972Y0246658D01*
X0157848Y0246570D01*
X0157722Y0246485D01*
X0157595Y0246404D01*
X0157465Y0246325D01*
X0157333Y0246250D01*
X0157200Y0246179D01*
X0157064Y0246110D01*
X0156927Y0246045D01*
X0156789Y0245984D01*
X0156648Y0245926D01*
X0156507Y0245872D01*
X0156364Y0245821D01*
X0156220Y0245774D01*
X0156075Y0245730D01*
X0155928Y0245691D01*
X0155781Y0245655D01*
X0155633Y0245622D01*
X0155484Y0245594D01*
X0155334Y0245569D01*
X0155184Y0245548D01*
X0155034Y0245531D01*
X0154882Y0245517D01*
X0154731Y0245508D01*
X0154580Y0245502D01*
X0154428Y0245500D01*
X0159310Y0254987D02*
X0159219Y0255112D01*
X0159125Y0255234D01*
X0159027Y0255353D01*
X0158927Y0255470D01*
X0158823Y0255584D01*
X0158717Y0255696D01*
X0158608Y0255804D01*
X0158496Y0255910D01*
X0158381Y0256013D01*
X0158264Y0256113D01*
X0158144Y0256211D01*
X0158022Y0256304D01*
X0157898Y0256395D01*
X0157771Y0256483D01*
X0157642Y0256567D01*
X0157510Y0256648D01*
X0157377Y0256725D01*
X0157242Y0256799D01*
X0157105Y0256870D01*
X0156966Y0256937D01*
X0156826Y0257000D01*
X0156683Y0257060D01*
X0156540Y0257116D01*
X0156395Y0257168D01*
X0156249Y0257217D01*
X0156101Y0257262D01*
X0155953Y0257303D01*
X0155803Y0257340D01*
X0155653Y0257374D01*
X0155501Y0257403D01*
X0155349Y0257429D01*
X0155197Y0257451D01*
X0155044Y0257468D01*
X0154890Y0257482D01*
X0154736Y0257492D01*
X0154582Y0257498D01*
X0154428Y0257500D01*
X0149428Y0040000D02*
X0148428Y0040000D01*
X0148368Y0039998D01*
X0148307Y0039993D01*
X0148248Y0039984D01*
X0148189Y0039971D01*
X0148130Y0039955D01*
X0148073Y0039935D01*
X0148018Y0039912D01*
X0147963Y0039885D01*
X0147911Y0039856D01*
X0147860Y0039823D01*
X0147811Y0039787D01*
X0147765Y0039749D01*
X0147721Y0039707D01*
X0147679Y0039663D01*
X0147641Y0039617D01*
X0147605Y0039568D01*
X0147572Y0039517D01*
X0147543Y0039465D01*
X0147516Y0039410D01*
X0147493Y0039355D01*
X0147473Y0039298D01*
X0147457Y0039239D01*
X0147444Y0039180D01*
X0147435Y0039121D01*
X0147430Y0039060D01*
X0147428Y0039000D01*
X0149428Y0040000D02*
X0149928Y0039500D01*
X0158928Y0039500D01*
X0159428Y0040000D01*
X0160428Y0040000D01*
X0160488Y0039998D01*
X0160549Y0039993D01*
X0160608Y0039984D01*
X0160667Y0039971D01*
X0160726Y0039955D01*
X0160783Y0039935D01*
X0160838Y0039912D01*
X0160893Y0039885D01*
X0160945Y0039856D01*
X0160996Y0039823D01*
X0161045Y0039787D01*
X0161091Y0039749D01*
X0161135Y0039707D01*
X0161177Y0039663D01*
X0161215Y0039617D01*
X0161251Y0039568D01*
X0161284Y0039517D01*
X0161313Y0039465D01*
X0161340Y0039410D01*
X0161363Y0039355D01*
X0161383Y0039298D01*
X0161399Y0039239D01*
X0161412Y0039180D01*
X0161421Y0039121D01*
X0161426Y0039060D01*
X0161428Y0039000D01*
X0161428Y0034000D02*
X0161426Y0033940D01*
X0161421Y0033879D01*
X0161412Y0033820D01*
X0161399Y0033761D01*
X0161383Y0033702D01*
X0161363Y0033645D01*
X0161340Y0033590D01*
X0161313Y0033535D01*
X0161284Y0033483D01*
X0161251Y0033432D01*
X0161215Y0033383D01*
X0161177Y0033337D01*
X0161135Y0033293D01*
X0161091Y0033251D01*
X0161045Y0033213D01*
X0160996Y0033177D01*
X0160945Y0033144D01*
X0160893Y0033115D01*
X0160838Y0033088D01*
X0160783Y0033065D01*
X0160726Y0033045D01*
X0160667Y0033029D01*
X0160608Y0033016D01*
X0160549Y0033007D01*
X0160488Y0033002D01*
X0160428Y0033000D01*
X0159428Y0033000D01*
X0158928Y0033500D01*
X0149928Y0033500D01*
X0149428Y0033000D01*
X0148428Y0033000D01*
X0148368Y0033002D01*
X0148307Y0033007D01*
X0148248Y0033016D01*
X0148189Y0033029D01*
X0148130Y0033045D01*
X0148073Y0033065D01*
X0148018Y0033088D01*
X0147963Y0033115D01*
X0147911Y0033144D01*
X0147860Y0033177D01*
X0147811Y0033213D01*
X0147765Y0033251D01*
X0147721Y0033293D01*
X0147679Y0033337D01*
X0147641Y0033383D01*
X0147605Y0033432D01*
X0147572Y0033483D01*
X0147543Y0033535D01*
X0147516Y0033590D01*
X0147493Y0033645D01*
X0147473Y0033702D01*
X0147457Y0033761D01*
X0147444Y0033820D01*
X0147435Y0033879D01*
X0147430Y0033940D01*
X0147428Y0034000D01*
X0148428Y0025000D02*
X0149428Y0025000D01*
X0149928Y0024500D01*
X0158928Y0024500D01*
X0159428Y0025000D01*
X0160428Y0025000D01*
X0160488Y0024998D01*
X0160549Y0024993D01*
X0160608Y0024984D01*
X0160667Y0024971D01*
X0160726Y0024955D01*
X0160783Y0024935D01*
X0160838Y0024912D01*
X0160893Y0024885D01*
X0160945Y0024856D01*
X0160996Y0024823D01*
X0161045Y0024787D01*
X0161091Y0024749D01*
X0161135Y0024707D01*
X0161177Y0024663D01*
X0161215Y0024617D01*
X0161251Y0024568D01*
X0161284Y0024517D01*
X0161313Y0024465D01*
X0161340Y0024410D01*
X0161363Y0024355D01*
X0161383Y0024298D01*
X0161399Y0024239D01*
X0161412Y0024180D01*
X0161421Y0024121D01*
X0161426Y0024060D01*
X0161428Y0024000D01*
X0161428Y0019000D02*
X0161426Y0018940D01*
X0161421Y0018879D01*
X0161412Y0018820D01*
X0161399Y0018761D01*
X0161383Y0018702D01*
X0161363Y0018645D01*
X0161340Y0018590D01*
X0161313Y0018535D01*
X0161284Y0018483D01*
X0161251Y0018432D01*
X0161215Y0018383D01*
X0161177Y0018337D01*
X0161135Y0018293D01*
X0161091Y0018251D01*
X0161045Y0018213D01*
X0160996Y0018177D01*
X0160945Y0018144D01*
X0160893Y0018115D01*
X0160838Y0018088D01*
X0160783Y0018065D01*
X0160726Y0018045D01*
X0160667Y0018029D01*
X0160608Y0018016D01*
X0160549Y0018007D01*
X0160488Y0018002D01*
X0160428Y0018000D01*
X0159428Y0018000D01*
X0158928Y0018500D01*
X0149928Y0018500D01*
X0149428Y0018000D01*
X0148428Y0018000D01*
X0148368Y0018002D01*
X0148307Y0018007D01*
X0148248Y0018016D01*
X0148189Y0018029D01*
X0148130Y0018045D01*
X0148073Y0018065D01*
X0148018Y0018088D01*
X0147963Y0018115D01*
X0147911Y0018144D01*
X0147860Y0018177D01*
X0147811Y0018213D01*
X0147765Y0018251D01*
X0147721Y0018293D01*
X0147679Y0018337D01*
X0147641Y0018383D01*
X0147605Y0018432D01*
X0147572Y0018483D01*
X0147543Y0018535D01*
X0147516Y0018590D01*
X0147493Y0018645D01*
X0147473Y0018702D01*
X0147457Y0018761D01*
X0147444Y0018820D01*
X0147435Y0018879D01*
X0147430Y0018940D01*
X0147428Y0019000D01*
X0147428Y0024000D02*
X0147430Y0024060D01*
X0147435Y0024121D01*
X0147444Y0024180D01*
X0147457Y0024239D01*
X0147473Y0024298D01*
X0147493Y0024355D01*
X0147516Y0024410D01*
X0147543Y0024465D01*
X0147572Y0024517D01*
X0147605Y0024568D01*
X0147641Y0024617D01*
X0147679Y0024663D01*
X0147721Y0024707D01*
X0147765Y0024749D01*
X0147811Y0024787D01*
X0147860Y0024823D01*
X0147911Y0024856D01*
X0147963Y0024885D01*
X0148018Y0024912D01*
X0148073Y0024935D01*
X0148130Y0024955D01*
X0148189Y0024971D01*
X0148248Y0024984D01*
X0148307Y0024993D01*
X0148368Y0024998D01*
X0148428Y0025000D01*
D14*
X0104783Y0024571D02*
X0098484Y0024571D01*
X0104783Y0024571D02*
X0104783Y0030870D01*
X0104783Y0052130D02*
X0104783Y0058429D01*
X0048484Y0058429D01*
X0048484Y0024571D01*
X0079783Y0024571D01*
D15*
X0088428Y0078500D02*
X0088428Y0081500D01*
X0088428Y0084500D01*
X0090428Y0084500D02*
X0090428Y0081500D01*
X0090428Y0078500D01*
X0060428Y0078500D02*
X0060428Y0081500D01*
X0060428Y0084500D01*
X0058428Y0084500D02*
X0058428Y0081500D01*
X0058428Y0078500D01*
X0052370Y0160265D02*
X0052463Y0160433D01*
X0052559Y0160599D01*
X0052659Y0160763D01*
X0052764Y0160924D01*
X0052872Y0161083D01*
X0052984Y0161239D01*
X0053100Y0161393D01*
X0053219Y0161543D01*
X0053342Y0161691D01*
X0053468Y0161836D01*
X0053598Y0161977D01*
X0053731Y0162116D01*
X0053868Y0162251D01*
X0054008Y0162383D01*
X0054150Y0162511D01*
X0054296Y0162636D01*
X0054445Y0162758D01*
X0054597Y0162876D01*
X0054751Y0162990D01*
X0054909Y0163100D01*
X0055068Y0163207D01*
X0055231Y0163310D01*
X0055396Y0163409D01*
X0055563Y0163504D01*
X0055732Y0163594D01*
X0055903Y0163681D01*
X0056077Y0163764D01*
X0056252Y0163842D01*
X0056430Y0163916D01*
X0056609Y0163986D01*
X0056789Y0164052D01*
X0056971Y0164113D01*
X0057155Y0164170D01*
X0057340Y0164222D01*
X0057526Y0164270D01*
X0057713Y0164314D01*
X0057901Y0164353D01*
X0058090Y0164387D01*
X0058280Y0164417D01*
X0058470Y0164442D01*
X0058661Y0164463D01*
X0058853Y0164479D01*
X0059045Y0164491D01*
X0059237Y0164498D01*
X0059429Y0164500D01*
X0052482Y0152531D02*
X0052581Y0152362D01*
X0052685Y0152196D01*
X0052792Y0152032D01*
X0052903Y0151871D01*
X0053018Y0151713D01*
X0053137Y0151558D01*
X0053260Y0151405D01*
X0053386Y0151256D01*
X0053516Y0151110D01*
X0053650Y0150967D01*
X0053787Y0150827D01*
X0053927Y0150691D01*
X0054071Y0150558D01*
X0054218Y0150429D01*
X0054368Y0150303D01*
X0054521Y0150182D01*
X0054677Y0150063D01*
X0054836Y0149949D01*
X0054997Y0149839D01*
X0055162Y0149733D01*
X0055328Y0149630D01*
X0055498Y0149532D01*
X0055669Y0149438D01*
X0055843Y0149348D01*
X0056019Y0149263D01*
X0056197Y0149181D01*
X0056377Y0149105D01*
X0056559Y0149032D01*
X0056742Y0148964D01*
X0056927Y0148901D01*
X0057114Y0148842D01*
X0057302Y0148788D01*
X0057491Y0148738D01*
X0057681Y0148693D01*
X0057873Y0148653D01*
X0058065Y0148617D01*
X0058258Y0148586D01*
X0058452Y0148560D01*
X0058647Y0148538D01*
X0058842Y0148522D01*
X0059037Y0148510D01*
X0059233Y0148502D01*
X0059428Y0148500D01*
X0059429Y0148500D02*
X0059622Y0148502D01*
X0059815Y0148509D01*
X0060007Y0148521D01*
X0060200Y0148537D01*
X0060392Y0148558D01*
X0060583Y0148584D01*
X0060773Y0148614D01*
X0060963Y0148649D01*
X0061152Y0148688D01*
X0061340Y0148732D01*
X0061527Y0148780D01*
X0061713Y0148833D01*
X0061897Y0148890D01*
X0062080Y0148952D01*
X0062261Y0149018D01*
X0062441Y0149089D01*
X0062619Y0149163D01*
X0062795Y0149242D01*
X0062969Y0149326D01*
X0063141Y0149413D01*
X0063311Y0149505D01*
X0063478Y0149601D01*
X0063644Y0149700D01*
X0063807Y0149804D01*
X0063967Y0149911D01*
X0064124Y0150023D01*
X0064279Y0150138D01*
X0064431Y0150257D01*
X0064580Y0150379D01*
X0064727Y0150505D01*
X0064870Y0150635D01*
X0065010Y0150768D01*
X0065146Y0150904D01*
X0065280Y0151044D01*
X0065409Y0151186D01*
X0065536Y0151332D01*
X0065575Y0161622D02*
X0065448Y0161770D01*
X0065318Y0161915D01*
X0065185Y0162056D01*
X0065048Y0162195D01*
X0064908Y0162330D01*
X0064764Y0162461D01*
X0064617Y0162589D01*
X0064468Y0162714D01*
X0064315Y0162835D01*
X0064160Y0162952D01*
X0064001Y0163065D01*
X0063840Y0163174D01*
X0063676Y0163279D01*
X0063510Y0163381D01*
X0063341Y0163478D01*
X0063171Y0163571D01*
X0062997Y0163660D01*
X0062822Y0163745D01*
X0062645Y0163825D01*
X0062466Y0163901D01*
X0062285Y0163973D01*
X0062102Y0164040D01*
X0061918Y0164103D01*
X0061732Y0164161D01*
X0061545Y0164215D01*
X0061357Y0164264D01*
X0061167Y0164309D01*
X0060977Y0164349D01*
X0060785Y0164384D01*
X0060593Y0164415D01*
X0060400Y0164441D01*
X0060206Y0164462D01*
X0060012Y0164479D01*
X0059818Y0164491D01*
X0059624Y0164498D01*
X0059429Y0164500D01*
X0147482Y0167531D02*
X0147581Y0167362D01*
X0147685Y0167196D01*
X0147792Y0167032D01*
X0147903Y0166871D01*
X0148018Y0166713D01*
X0148137Y0166558D01*
X0148260Y0166405D01*
X0148386Y0166256D01*
X0148516Y0166110D01*
X0148650Y0165967D01*
X0148787Y0165827D01*
X0148927Y0165691D01*
X0149071Y0165558D01*
X0149218Y0165429D01*
X0149368Y0165303D01*
X0149521Y0165182D01*
X0149677Y0165063D01*
X0149836Y0164949D01*
X0149997Y0164839D01*
X0150162Y0164733D01*
X0150328Y0164630D01*
X0150498Y0164532D01*
X0150669Y0164438D01*
X0150843Y0164348D01*
X0151019Y0164263D01*
X0151197Y0164181D01*
X0151377Y0164105D01*
X0151559Y0164032D01*
X0151742Y0163964D01*
X0151927Y0163901D01*
X0152114Y0163842D01*
X0152302Y0163788D01*
X0152491Y0163738D01*
X0152681Y0163693D01*
X0152873Y0163653D01*
X0153065Y0163617D01*
X0153258Y0163586D01*
X0153452Y0163560D01*
X0153647Y0163538D01*
X0153842Y0163522D01*
X0154037Y0163510D01*
X0154233Y0163502D01*
X0154428Y0163500D01*
X0147370Y0175265D02*
X0147463Y0175433D01*
X0147559Y0175599D01*
X0147659Y0175763D01*
X0147764Y0175924D01*
X0147872Y0176083D01*
X0147984Y0176239D01*
X0148100Y0176393D01*
X0148219Y0176543D01*
X0148342Y0176691D01*
X0148468Y0176836D01*
X0148598Y0176977D01*
X0148731Y0177116D01*
X0148868Y0177251D01*
X0149008Y0177383D01*
X0149150Y0177511D01*
X0149296Y0177636D01*
X0149445Y0177758D01*
X0149597Y0177876D01*
X0149751Y0177990D01*
X0149909Y0178100D01*
X0150068Y0178207D01*
X0150231Y0178310D01*
X0150396Y0178409D01*
X0150563Y0178504D01*
X0150732Y0178594D01*
X0150903Y0178681D01*
X0151077Y0178764D01*
X0151252Y0178842D01*
X0151430Y0178916D01*
X0151609Y0178986D01*
X0151789Y0179052D01*
X0151971Y0179113D01*
X0152155Y0179170D01*
X0152340Y0179222D01*
X0152526Y0179270D01*
X0152713Y0179314D01*
X0152901Y0179353D01*
X0153090Y0179387D01*
X0153280Y0179417D01*
X0153470Y0179442D01*
X0153661Y0179463D01*
X0153853Y0179479D01*
X0154045Y0179491D01*
X0154237Y0179498D01*
X0154429Y0179500D01*
X0160536Y0166332D02*
X0160409Y0166186D01*
X0160280Y0166044D01*
X0160146Y0165904D01*
X0160010Y0165768D01*
X0159870Y0165635D01*
X0159727Y0165505D01*
X0159580Y0165379D01*
X0159431Y0165257D01*
X0159279Y0165138D01*
X0159124Y0165023D01*
X0158967Y0164911D01*
X0158807Y0164804D01*
X0158644Y0164700D01*
X0158478Y0164601D01*
X0158311Y0164505D01*
X0158141Y0164413D01*
X0157969Y0164326D01*
X0157795Y0164242D01*
X0157619Y0164163D01*
X0157441Y0164089D01*
X0157261Y0164018D01*
X0157080Y0163952D01*
X0156897Y0163890D01*
X0156713Y0163833D01*
X0156527Y0163780D01*
X0156340Y0163732D01*
X0156152Y0163688D01*
X0155963Y0163649D01*
X0155773Y0163614D01*
X0155583Y0163584D01*
X0155392Y0163558D01*
X0155200Y0163537D01*
X0155007Y0163521D01*
X0154815Y0163509D01*
X0154622Y0163502D01*
X0154429Y0163500D01*
X0160575Y0176622D02*
X0160448Y0176770D01*
X0160318Y0176915D01*
X0160185Y0177056D01*
X0160048Y0177195D01*
X0159908Y0177330D01*
X0159764Y0177461D01*
X0159617Y0177589D01*
X0159468Y0177714D01*
X0159315Y0177835D01*
X0159160Y0177952D01*
X0159001Y0178065D01*
X0158840Y0178174D01*
X0158676Y0178279D01*
X0158510Y0178381D01*
X0158341Y0178478D01*
X0158171Y0178571D01*
X0157997Y0178660D01*
X0157822Y0178745D01*
X0157645Y0178825D01*
X0157466Y0178901D01*
X0157285Y0178973D01*
X0157102Y0179040D01*
X0156918Y0179103D01*
X0156732Y0179161D01*
X0156545Y0179215D01*
X0156357Y0179264D01*
X0156167Y0179309D01*
X0155977Y0179349D01*
X0155785Y0179384D01*
X0155593Y0179415D01*
X0155400Y0179441D01*
X0155206Y0179462D01*
X0155012Y0179479D01*
X0154818Y0179491D01*
X0154624Y0179498D01*
X0154429Y0179500D01*
X0147370Y0215265D02*
X0147463Y0215433D01*
X0147559Y0215599D01*
X0147659Y0215763D01*
X0147764Y0215924D01*
X0147872Y0216083D01*
X0147984Y0216239D01*
X0148100Y0216393D01*
X0148219Y0216543D01*
X0148342Y0216691D01*
X0148468Y0216836D01*
X0148598Y0216977D01*
X0148731Y0217116D01*
X0148868Y0217251D01*
X0149008Y0217383D01*
X0149150Y0217511D01*
X0149296Y0217636D01*
X0149445Y0217758D01*
X0149597Y0217876D01*
X0149751Y0217990D01*
X0149909Y0218100D01*
X0150068Y0218207D01*
X0150231Y0218310D01*
X0150396Y0218409D01*
X0150563Y0218504D01*
X0150732Y0218594D01*
X0150903Y0218681D01*
X0151077Y0218764D01*
X0151252Y0218842D01*
X0151430Y0218916D01*
X0151609Y0218986D01*
X0151789Y0219052D01*
X0151971Y0219113D01*
X0152155Y0219170D01*
X0152340Y0219222D01*
X0152526Y0219270D01*
X0152713Y0219314D01*
X0152901Y0219353D01*
X0153090Y0219387D01*
X0153280Y0219417D01*
X0153470Y0219442D01*
X0153661Y0219463D01*
X0153853Y0219479D01*
X0154045Y0219491D01*
X0154237Y0219498D01*
X0154429Y0219500D01*
X0147482Y0207531D02*
X0147581Y0207362D01*
X0147685Y0207196D01*
X0147792Y0207032D01*
X0147903Y0206871D01*
X0148018Y0206713D01*
X0148137Y0206558D01*
X0148260Y0206405D01*
X0148386Y0206256D01*
X0148516Y0206110D01*
X0148650Y0205967D01*
X0148787Y0205827D01*
X0148927Y0205691D01*
X0149071Y0205558D01*
X0149218Y0205429D01*
X0149368Y0205303D01*
X0149521Y0205182D01*
X0149677Y0205063D01*
X0149836Y0204949D01*
X0149997Y0204839D01*
X0150162Y0204733D01*
X0150328Y0204630D01*
X0150498Y0204532D01*
X0150669Y0204438D01*
X0150843Y0204348D01*
X0151019Y0204263D01*
X0151197Y0204181D01*
X0151377Y0204105D01*
X0151559Y0204032D01*
X0151742Y0203964D01*
X0151927Y0203901D01*
X0152114Y0203842D01*
X0152302Y0203788D01*
X0152491Y0203738D01*
X0152681Y0203693D01*
X0152873Y0203653D01*
X0153065Y0203617D01*
X0153258Y0203586D01*
X0153452Y0203560D01*
X0153647Y0203538D01*
X0153842Y0203522D01*
X0154037Y0203510D01*
X0154233Y0203502D01*
X0154428Y0203500D01*
X0154429Y0203500D02*
X0154622Y0203502D01*
X0154815Y0203509D01*
X0155007Y0203521D01*
X0155200Y0203537D01*
X0155392Y0203558D01*
X0155583Y0203584D01*
X0155773Y0203614D01*
X0155963Y0203649D01*
X0156152Y0203688D01*
X0156340Y0203732D01*
X0156527Y0203780D01*
X0156713Y0203833D01*
X0156897Y0203890D01*
X0157080Y0203952D01*
X0157261Y0204018D01*
X0157441Y0204089D01*
X0157619Y0204163D01*
X0157795Y0204242D01*
X0157969Y0204326D01*
X0158141Y0204413D01*
X0158311Y0204505D01*
X0158478Y0204601D01*
X0158644Y0204700D01*
X0158807Y0204804D01*
X0158967Y0204911D01*
X0159124Y0205023D01*
X0159279Y0205138D01*
X0159431Y0205257D01*
X0159580Y0205379D01*
X0159727Y0205505D01*
X0159870Y0205635D01*
X0160010Y0205768D01*
X0160146Y0205904D01*
X0160280Y0206044D01*
X0160409Y0206186D01*
X0160536Y0206332D01*
X0160575Y0216622D02*
X0160448Y0216770D01*
X0160318Y0216915D01*
X0160185Y0217056D01*
X0160048Y0217195D01*
X0159908Y0217330D01*
X0159764Y0217461D01*
X0159617Y0217589D01*
X0159468Y0217714D01*
X0159315Y0217835D01*
X0159160Y0217952D01*
X0159001Y0218065D01*
X0158840Y0218174D01*
X0158676Y0218279D01*
X0158510Y0218381D01*
X0158341Y0218478D01*
X0158171Y0218571D01*
X0157997Y0218660D01*
X0157822Y0218745D01*
X0157645Y0218825D01*
X0157466Y0218901D01*
X0157285Y0218973D01*
X0157102Y0219040D01*
X0156918Y0219103D01*
X0156732Y0219161D01*
X0156545Y0219215D01*
X0156357Y0219264D01*
X0156167Y0219309D01*
X0155977Y0219349D01*
X0155785Y0219384D01*
X0155593Y0219415D01*
X0155400Y0219441D01*
X0155206Y0219462D01*
X0155012Y0219479D01*
X0154818Y0219491D01*
X0154624Y0219498D01*
X0154429Y0219500D01*
X0147370Y0255265D02*
X0147463Y0255433D01*
X0147559Y0255599D01*
X0147659Y0255763D01*
X0147764Y0255924D01*
X0147872Y0256083D01*
X0147984Y0256239D01*
X0148100Y0256393D01*
X0148219Y0256543D01*
X0148342Y0256691D01*
X0148468Y0256836D01*
X0148598Y0256977D01*
X0148731Y0257116D01*
X0148868Y0257251D01*
X0149008Y0257383D01*
X0149150Y0257511D01*
X0149296Y0257636D01*
X0149445Y0257758D01*
X0149597Y0257876D01*
X0149751Y0257990D01*
X0149909Y0258100D01*
X0150068Y0258207D01*
X0150231Y0258310D01*
X0150396Y0258409D01*
X0150563Y0258504D01*
X0150732Y0258594D01*
X0150903Y0258681D01*
X0151077Y0258764D01*
X0151252Y0258842D01*
X0151430Y0258916D01*
X0151609Y0258986D01*
X0151789Y0259052D01*
X0151971Y0259113D01*
X0152155Y0259170D01*
X0152340Y0259222D01*
X0152526Y0259270D01*
X0152713Y0259314D01*
X0152901Y0259353D01*
X0153090Y0259387D01*
X0153280Y0259417D01*
X0153470Y0259442D01*
X0153661Y0259463D01*
X0153853Y0259479D01*
X0154045Y0259491D01*
X0154237Y0259498D01*
X0154429Y0259500D01*
X0147482Y0247531D02*
X0147581Y0247362D01*
X0147685Y0247196D01*
X0147792Y0247032D01*
X0147903Y0246871D01*
X0148018Y0246713D01*
X0148137Y0246558D01*
X0148260Y0246405D01*
X0148386Y0246256D01*
X0148516Y0246110D01*
X0148650Y0245967D01*
X0148787Y0245827D01*
X0148927Y0245691D01*
X0149071Y0245558D01*
X0149218Y0245429D01*
X0149368Y0245303D01*
X0149521Y0245182D01*
X0149677Y0245063D01*
X0149836Y0244949D01*
X0149997Y0244839D01*
X0150162Y0244733D01*
X0150328Y0244630D01*
X0150498Y0244532D01*
X0150669Y0244438D01*
X0150843Y0244348D01*
X0151019Y0244263D01*
X0151197Y0244181D01*
X0151377Y0244105D01*
X0151559Y0244032D01*
X0151742Y0243964D01*
X0151927Y0243901D01*
X0152114Y0243842D01*
X0152302Y0243788D01*
X0152491Y0243738D01*
X0152681Y0243693D01*
X0152873Y0243653D01*
X0153065Y0243617D01*
X0153258Y0243586D01*
X0153452Y0243560D01*
X0153647Y0243538D01*
X0153842Y0243522D01*
X0154037Y0243510D01*
X0154233Y0243502D01*
X0154428Y0243500D01*
X0154429Y0243500D02*
X0154622Y0243502D01*
X0154815Y0243509D01*
X0155007Y0243521D01*
X0155200Y0243537D01*
X0155392Y0243558D01*
X0155583Y0243584D01*
X0155773Y0243614D01*
X0155963Y0243649D01*
X0156152Y0243688D01*
X0156340Y0243732D01*
X0156527Y0243780D01*
X0156713Y0243833D01*
X0156897Y0243890D01*
X0157080Y0243952D01*
X0157261Y0244018D01*
X0157441Y0244089D01*
X0157619Y0244163D01*
X0157795Y0244242D01*
X0157969Y0244326D01*
X0158141Y0244413D01*
X0158311Y0244505D01*
X0158478Y0244601D01*
X0158644Y0244700D01*
X0158807Y0244804D01*
X0158967Y0244911D01*
X0159124Y0245023D01*
X0159279Y0245138D01*
X0159431Y0245257D01*
X0159580Y0245379D01*
X0159727Y0245505D01*
X0159870Y0245635D01*
X0160010Y0245768D01*
X0160146Y0245904D01*
X0160280Y0246044D01*
X0160409Y0246186D01*
X0160536Y0246332D01*
X0160575Y0256622D02*
X0160448Y0256770D01*
X0160318Y0256915D01*
X0160185Y0257056D01*
X0160048Y0257195D01*
X0159908Y0257330D01*
X0159764Y0257461D01*
X0159617Y0257589D01*
X0159468Y0257714D01*
X0159315Y0257835D01*
X0159160Y0257952D01*
X0159001Y0258065D01*
X0158840Y0258174D01*
X0158676Y0258279D01*
X0158510Y0258381D01*
X0158341Y0258478D01*
X0158171Y0258571D01*
X0157997Y0258660D01*
X0157822Y0258745D01*
X0157645Y0258825D01*
X0157466Y0258901D01*
X0157285Y0258973D01*
X0157102Y0259040D01*
X0156918Y0259103D01*
X0156732Y0259161D01*
X0156545Y0259215D01*
X0156357Y0259264D01*
X0156167Y0259309D01*
X0155977Y0259349D01*
X0155785Y0259384D01*
X0155593Y0259415D01*
X0155400Y0259441D01*
X0155206Y0259462D01*
X0155012Y0259479D01*
X0154818Y0259491D01*
X0154624Y0259498D01*
X0154429Y0259500D01*
X0182482Y0247531D02*
X0182581Y0247362D01*
X0182685Y0247196D01*
X0182792Y0247032D01*
X0182903Y0246871D01*
X0183018Y0246713D01*
X0183137Y0246558D01*
X0183260Y0246405D01*
X0183386Y0246256D01*
X0183516Y0246110D01*
X0183650Y0245967D01*
X0183787Y0245827D01*
X0183927Y0245691D01*
X0184071Y0245558D01*
X0184218Y0245429D01*
X0184368Y0245303D01*
X0184521Y0245182D01*
X0184677Y0245063D01*
X0184836Y0244949D01*
X0184997Y0244839D01*
X0185162Y0244733D01*
X0185328Y0244630D01*
X0185498Y0244532D01*
X0185669Y0244438D01*
X0185843Y0244348D01*
X0186019Y0244263D01*
X0186197Y0244181D01*
X0186377Y0244105D01*
X0186559Y0244032D01*
X0186742Y0243964D01*
X0186927Y0243901D01*
X0187114Y0243842D01*
X0187302Y0243788D01*
X0187491Y0243738D01*
X0187681Y0243693D01*
X0187873Y0243653D01*
X0188065Y0243617D01*
X0188258Y0243586D01*
X0188452Y0243560D01*
X0188647Y0243538D01*
X0188842Y0243522D01*
X0189037Y0243510D01*
X0189233Y0243502D01*
X0189428Y0243500D01*
X0182370Y0255265D02*
X0182463Y0255433D01*
X0182559Y0255599D01*
X0182659Y0255763D01*
X0182764Y0255924D01*
X0182872Y0256083D01*
X0182984Y0256239D01*
X0183100Y0256393D01*
X0183219Y0256543D01*
X0183342Y0256691D01*
X0183468Y0256836D01*
X0183598Y0256977D01*
X0183731Y0257116D01*
X0183868Y0257251D01*
X0184008Y0257383D01*
X0184150Y0257511D01*
X0184296Y0257636D01*
X0184445Y0257758D01*
X0184597Y0257876D01*
X0184751Y0257990D01*
X0184909Y0258100D01*
X0185068Y0258207D01*
X0185231Y0258310D01*
X0185396Y0258409D01*
X0185563Y0258504D01*
X0185732Y0258594D01*
X0185903Y0258681D01*
X0186077Y0258764D01*
X0186252Y0258842D01*
X0186430Y0258916D01*
X0186609Y0258986D01*
X0186789Y0259052D01*
X0186971Y0259113D01*
X0187155Y0259170D01*
X0187340Y0259222D01*
X0187526Y0259270D01*
X0187713Y0259314D01*
X0187901Y0259353D01*
X0188090Y0259387D01*
X0188280Y0259417D01*
X0188470Y0259442D01*
X0188661Y0259463D01*
X0188853Y0259479D01*
X0189045Y0259491D01*
X0189237Y0259498D01*
X0189429Y0259500D01*
X0195536Y0246332D02*
X0195409Y0246186D01*
X0195280Y0246044D01*
X0195146Y0245904D01*
X0195010Y0245768D01*
X0194870Y0245635D01*
X0194727Y0245505D01*
X0194580Y0245379D01*
X0194431Y0245257D01*
X0194279Y0245138D01*
X0194124Y0245023D01*
X0193967Y0244911D01*
X0193807Y0244804D01*
X0193644Y0244700D01*
X0193478Y0244601D01*
X0193311Y0244505D01*
X0193141Y0244413D01*
X0192969Y0244326D01*
X0192795Y0244242D01*
X0192619Y0244163D01*
X0192441Y0244089D01*
X0192261Y0244018D01*
X0192080Y0243952D01*
X0191897Y0243890D01*
X0191713Y0243833D01*
X0191527Y0243780D01*
X0191340Y0243732D01*
X0191152Y0243688D01*
X0190963Y0243649D01*
X0190773Y0243614D01*
X0190583Y0243584D01*
X0190392Y0243558D01*
X0190200Y0243537D01*
X0190007Y0243521D01*
X0189815Y0243509D01*
X0189622Y0243502D01*
X0189429Y0243500D01*
X0195575Y0256622D02*
X0195448Y0256770D01*
X0195318Y0256915D01*
X0195185Y0257056D01*
X0195048Y0257195D01*
X0194908Y0257330D01*
X0194764Y0257461D01*
X0194617Y0257589D01*
X0194468Y0257714D01*
X0194315Y0257835D01*
X0194160Y0257952D01*
X0194001Y0258065D01*
X0193840Y0258174D01*
X0193676Y0258279D01*
X0193510Y0258381D01*
X0193341Y0258478D01*
X0193171Y0258571D01*
X0192997Y0258660D01*
X0192822Y0258745D01*
X0192645Y0258825D01*
X0192466Y0258901D01*
X0192285Y0258973D01*
X0192102Y0259040D01*
X0191918Y0259103D01*
X0191732Y0259161D01*
X0191545Y0259215D01*
X0191357Y0259264D01*
X0191167Y0259309D01*
X0190977Y0259349D01*
X0190785Y0259384D01*
X0190593Y0259415D01*
X0190400Y0259441D01*
X0190206Y0259462D01*
X0190012Y0259479D01*
X0189818Y0259491D01*
X0189624Y0259498D01*
X0189429Y0259500D01*
X0182482Y0207531D02*
X0182581Y0207362D01*
X0182685Y0207196D01*
X0182792Y0207032D01*
X0182903Y0206871D01*
X0183018Y0206713D01*
X0183137Y0206558D01*
X0183260Y0206405D01*
X0183386Y0206256D01*
X0183516Y0206110D01*
X0183650Y0205967D01*
X0183787Y0205827D01*
X0183927Y0205691D01*
X0184071Y0205558D01*
X0184218Y0205429D01*
X0184368Y0205303D01*
X0184521Y0205182D01*
X0184677Y0205063D01*
X0184836Y0204949D01*
X0184997Y0204839D01*
X0185162Y0204733D01*
X0185328Y0204630D01*
X0185498Y0204532D01*
X0185669Y0204438D01*
X0185843Y0204348D01*
X0186019Y0204263D01*
X0186197Y0204181D01*
X0186377Y0204105D01*
X0186559Y0204032D01*
X0186742Y0203964D01*
X0186927Y0203901D01*
X0187114Y0203842D01*
X0187302Y0203788D01*
X0187491Y0203738D01*
X0187681Y0203693D01*
X0187873Y0203653D01*
X0188065Y0203617D01*
X0188258Y0203586D01*
X0188452Y0203560D01*
X0188647Y0203538D01*
X0188842Y0203522D01*
X0189037Y0203510D01*
X0189233Y0203502D01*
X0189428Y0203500D01*
X0182370Y0215265D02*
X0182463Y0215433D01*
X0182559Y0215599D01*
X0182659Y0215763D01*
X0182764Y0215924D01*
X0182872Y0216083D01*
X0182984Y0216239D01*
X0183100Y0216393D01*
X0183219Y0216543D01*
X0183342Y0216691D01*
X0183468Y0216836D01*
X0183598Y0216977D01*
X0183731Y0217116D01*
X0183868Y0217251D01*
X0184008Y0217383D01*
X0184150Y0217511D01*
X0184296Y0217636D01*
X0184445Y0217758D01*
X0184597Y0217876D01*
X0184751Y0217990D01*
X0184909Y0218100D01*
X0185068Y0218207D01*
X0185231Y0218310D01*
X0185396Y0218409D01*
X0185563Y0218504D01*
X0185732Y0218594D01*
X0185903Y0218681D01*
X0186077Y0218764D01*
X0186252Y0218842D01*
X0186430Y0218916D01*
X0186609Y0218986D01*
X0186789Y0219052D01*
X0186971Y0219113D01*
X0187155Y0219170D01*
X0187340Y0219222D01*
X0187526Y0219270D01*
X0187713Y0219314D01*
X0187901Y0219353D01*
X0188090Y0219387D01*
X0188280Y0219417D01*
X0188470Y0219442D01*
X0188661Y0219463D01*
X0188853Y0219479D01*
X0189045Y0219491D01*
X0189237Y0219498D01*
X0189429Y0219500D01*
X0195536Y0206332D02*
X0195409Y0206186D01*
X0195280Y0206044D01*
X0195146Y0205904D01*
X0195010Y0205768D01*
X0194870Y0205635D01*
X0194727Y0205505D01*
X0194580Y0205379D01*
X0194431Y0205257D01*
X0194279Y0205138D01*
X0194124Y0205023D01*
X0193967Y0204911D01*
X0193807Y0204804D01*
X0193644Y0204700D01*
X0193478Y0204601D01*
X0193311Y0204505D01*
X0193141Y0204413D01*
X0192969Y0204326D01*
X0192795Y0204242D01*
X0192619Y0204163D01*
X0192441Y0204089D01*
X0192261Y0204018D01*
X0192080Y0203952D01*
X0191897Y0203890D01*
X0191713Y0203833D01*
X0191527Y0203780D01*
X0191340Y0203732D01*
X0191152Y0203688D01*
X0190963Y0203649D01*
X0190773Y0203614D01*
X0190583Y0203584D01*
X0190392Y0203558D01*
X0190200Y0203537D01*
X0190007Y0203521D01*
X0189815Y0203509D01*
X0189622Y0203502D01*
X0189429Y0203500D01*
X0195575Y0216622D02*
X0195448Y0216770D01*
X0195318Y0216915D01*
X0195185Y0217056D01*
X0195048Y0217195D01*
X0194908Y0217330D01*
X0194764Y0217461D01*
X0194617Y0217589D01*
X0194468Y0217714D01*
X0194315Y0217835D01*
X0194160Y0217952D01*
X0194001Y0218065D01*
X0193840Y0218174D01*
X0193676Y0218279D01*
X0193510Y0218381D01*
X0193341Y0218478D01*
X0193171Y0218571D01*
X0192997Y0218660D01*
X0192822Y0218745D01*
X0192645Y0218825D01*
X0192466Y0218901D01*
X0192285Y0218973D01*
X0192102Y0219040D01*
X0191918Y0219103D01*
X0191732Y0219161D01*
X0191545Y0219215D01*
X0191357Y0219264D01*
X0191167Y0219309D01*
X0190977Y0219349D01*
X0190785Y0219384D01*
X0190593Y0219415D01*
X0190400Y0219441D01*
X0190206Y0219462D01*
X0190012Y0219479D01*
X0189818Y0219491D01*
X0189624Y0219498D01*
X0189429Y0219500D01*
X0182482Y0167531D02*
X0182581Y0167362D01*
X0182685Y0167196D01*
X0182792Y0167032D01*
X0182903Y0166871D01*
X0183018Y0166713D01*
X0183137Y0166558D01*
X0183260Y0166405D01*
X0183386Y0166256D01*
X0183516Y0166110D01*
X0183650Y0165967D01*
X0183787Y0165827D01*
X0183927Y0165691D01*
X0184071Y0165558D01*
X0184218Y0165429D01*
X0184368Y0165303D01*
X0184521Y0165182D01*
X0184677Y0165063D01*
X0184836Y0164949D01*
X0184997Y0164839D01*
X0185162Y0164733D01*
X0185328Y0164630D01*
X0185498Y0164532D01*
X0185669Y0164438D01*
X0185843Y0164348D01*
X0186019Y0164263D01*
X0186197Y0164181D01*
X0186377Y0164105D01*
X0186559Y0164032D01*
X0186742Y0163964D01*
X0186927Y0163901D01*
X0187114Y0163842D01*
X0187302Y0163788D01*
X0187491Y0163738D01*
X0187681Y0163693D01*
X0187873Y0163653D01*
X0188065Y0163617D01*
X0188258Y0163586D01*
X0188452Y0163560D01*
X0188647Y0163538D01*
X0188842Y0163522D01*
X0189037Y0163510D01*
X0189233Y0163502D01*
X0189428Y0163500D01*
X0182370Y0175265D02*
X0182463Y0175433D01*
X0182559Y0175599D01*
X0182659Y0175763D01*
X0182764Y0175924D01*
X0182872Y0176083D01*
X0182984Y0176239D01*
X0183100Y0176393D01*
X0183219Y0176543D01*
X0183342Y0176691D01*
X0183468Y0176836D01*
X0183598Y0176977D01*
X0183731Y0177116D01*
X0183868Y0177251D01*
X0184008Y0177383D01*
X0184150Y0177511D01*
X0184296Y0177636D01*
X0184445Y0177758D01*
X0184597Y0177876D01*
X0184751Y0177990D01*
X0184909Y0178100D01*
X0185068Y0178207D01*
X0185231Y0178310D01*
X0185396Y0178409D01*
X0185563Y0178504D01*
X0185732Y0178594D01*
X0185903Y0178681D01*
X0186077Y0178764D01*
X0186252Y0178842D01*
X0186430Y0178916D01*
X0186609Y0178986D01*
X0186789Y0179052D01*
X0186971Y0179113D01*
X0187155Y0179170D01*
X0187340Y0179222D01*
X0187526Y0179270D01*
X0187713Y0179314D01*
X0187901Y0179353D01*
X0188090Y0179387D01*
X0188280Y0179417D01*
X0188470Y0179442D01*
X0188661Y0179463D01*
X0188853Y0179479D01*
X0189045Y0179491D01*
X0189237Y0179498D01*
X0189429Y0179500D01*
X0195536Y0166332D02*
X0195409Y0166186D01*
X0195280Y0166044D01*
X0195146Y0165904D01*
X0195010Y0165768D01*
X0194870Y0165635D01*
X0194727Y0165505D01*
X0194580Y0165379D01*
X0194431Y0165257D01*
X0194279Y0165138D01*
X0194124Y0165023D01*
X0193967Y0164911D01*
X0193807Y0164804D01*
X0193644Y0164700D01*
X0193478Y0164601D01*
X0193311Y0164505D01*
X0193141Y0164413D01*
X0192969Y0164326D01*
X0192795Y0164242D01*
X0192619Y0164163D01*
X0192441Y0164089D01*
X0192261Y0164018D01*
X0192080Y0163952D01*
X0191897Y0163890D01*
X0191713Y0163833D01*
X0191527Y0163780D01*
X0191340Y0163732D01*
X0191152Y0163688D01*
X0190963Y0163649D01*
X0190773Y0163614D01*
X0190583Y0163584D01*
X0190392Y0163558D01*
X0190200Y0163537D01*
X0190007Y0163521D01*
X0189815Y0163509D01*
X0189622Y0163502D01*
X0189429Y0163500D01*
X0195575Y0176622D02*
X0195448Y0176770D01*
X0195318Y0176915D01*
X0195185Y0177056D01*
X0195048Y0177195D01*
X0194908Y0177330D01*
X0194764Y0177461D01*
X0194617Y0177589D01*
X0194468Y0177714D01*
X0194315Y0177835D01*
X0194160Y0177952D01*
X0194001Y0178065D01*
X0193840Y0178174D01*
X0193676Y0178279D01*
X0193510Y0178381D01*
X0193341Y0178478D01*
X0193171Y0178571D01*
X0192997Y0178660D01*
X0192822Y0178745D01*
X0192645Y0178825D01*
X0192466Y0178901D01*
X0192285Y0178973D01*
X0192102Y0179040D01*
X0191918Y0179103D01*
X0191732Y0179161D01*
X0191545Y0179215D01*
X0191357Y0179264D01*
X0191167Y0179309D01*
X0190977Y0179349D01*
X0190785Y0179384D01*
X0190593Y0179415D01*
X0190400Y0179441D01*
X0190206Y0179462D01*
X0190012Y0179479D01*
X0189818Y0179491D01*
X0189624Y0179498D01*
X0189429Y0179500D01*
D16*
X0208928Y0184500D02*
X0213104Y0184500D01*
X0213104Y0188500D02*
X0208928Y0188500D01*
X0208928Y0184500D01*
X0212928Y0186500D02*
X0212931Y0186782D01*
X0212942Y0187064D01*
X0212959Y0187346D01*
X0212983Y0187627D01*
X0213014Y0187908D01*
X0213052Y0188187D01*
X0213097Y0188466D01*
X0213149Y0188744D01*
X0213207Y0189020D01*
X0213273Y0189294D01*
X0213345Y0189567D01*
X0213423Y0189838D01*
X0213508Y0190107D01*
X0213600Y0190374D01*
X0213699Y0190639D01*
X0213803Y0190901D01*
X0213915Y0191160D01*
X0214032Y0191417D01*
X0214156Y0191671D01*
X0214286Y0191921D01*
X0214422Y0192168D01*
X0214564Y0192412D01*
X0214712Y0192652D01*
X0214866Y0192889D01*
X0215026Y0193122D01*
X0215191Y0193351D01*
X0215362Y0193575D01*
X0215538Y0193796D01*
X0215720Y0194011D01*
X0215907Y0194223D01*
X0216099Y0194430D01*
X0216296Y0194632D01*
X0216498Y0194829D01*
X0216705Y0195021D01*
X0216917Y0195208D01*
X0217132Y0195390D01*
X0217353Y0195566D01*
X0217577Y0195737D01*
X0217806Y0195902D01*
X0218039Y0196062D01*
X0218276Y0196216D01*
X0218516Y0196364D01*
X0218760Y0196506D01*
X0219007Y0196642D01*
X0219257Y0196772D01*
X0219511Y0196896D01*
X0219768Y0197013D01*
X0220027Y0197125D01*
X0220289Y0197229D01*
X0220554Y0197328D01*
X0220821Y0197420D01*
X0221090Y0197505D01*
X0221361Y0197583D01*
X0221634Y0197655D01*
X0221908Y0197721D01*
X0222184Y0197779D01*
X0222462Y0197831D01*
X0222741Y0197876D01*
X0223020Y0197914D01*
X0223301Y0197945D01*
X0223582Y0197969D01*
X0223864Y0197986D01*
X0224146Y0197997D01*
X0224428Y0198000D01*
X0224710Y0197997D01*
X0224992Y0197986D01*
X0225274Y0197969D01*
X0225555Y0197945D01*
X0225836Y0197914D01*
X0226115Y0197876D01*
X0226394Y0197831D01*
X0226672Y0197779D01*
X0226948Y0197721D01*
X0227222Y0197655D01*
X0227495Y0197583D01*
X0227766Y0197505D01*
X0228035Y0197420D01*
X0228302Y0197328D01*
X0228567Y0197229D01*
X0228829Y0197125D01*
X0229088Y0197013D01*
X0229345Y0196896D01*
X0229599Y0196772D01*
X0229849Y0196642D01*
X0230096Y0196506D01*
X0230340Y0196364D01*
X0230580Y0196216D01*
X0230817Y0196062D01*
X0231050Y0195902D01*
X0231279Y0195737D01*
X0231503Y0195566D01*
X0231724Y0195390D01*
X0231939Y0195208D01*
X0232151Y0195021D01*
X0232358Y0194829D01*
X0232560Y0194632D01*
X0232757Y0194430D01*
X0232949Y0194223D01*
X0233136Y0194011D01*
X0233318Y0193796D01*
X0233494Y0193575D01*
X0233665Y0193351D01*
X0233830Y0193122D01*
X0233990Y0192889D01*
X0234144Y0192652D01*
X0234292Y0192412D01*
X0234434Y0192168D01*
X0234570Y0191921D01*
X0234700Y0191671D01*
X0234824Y0191417D01*
X0234941Y0191160D01*
X0235053Y0190901D01*
X0235157Y0190639D01*
X0235256Y0190374D01*
X0235348Y0190107D01*
X0235433Y0189838D01*
X0235511Y0189567D01*
X0235583Y0189294D01*
X0235649Y0189020D01*
X0235707Y0188744D01*
X0235759Y0188466D01*
X0235804Y0188187D01*
X0235842Y0187908D01*
X0235873Y0187627D01*
X0235897Y0187346D01*
X0235914Y0187064D01*
X0235925Y0186782D01*
X0235928Y0186500D01*
X0235925Y0186218D01*
X0235914Y0185936D01*
X0235897Y0185654D01*
X0235873Y0185373D01*
X0235842Y0185092D01*
X0235804Y0184813D01*
X0235759Y0184534D01*
X0235707Y0184256D01*
X0235649Y0183980D01*
X0235583Y0183706D01*
X0235511Y0183433D01*
X0235433Y0183162D01*
X0235348Y0182893D01*
X0235256Y0182626D01*
X0235157Y0182361D01*
X0235053Y0182099D01*
X0234941Y0181840D01*
X0234824Y0181583D01*
X0234700Y0181329D01*
X0234570Y0181079D01*
X0234434Y0180832D01*
X0234292Y0180588D01*
X0234144Y0180348D01*
X0233990Y0180111D01*
X0233830Y0179878D01*
X0233665Y0179649D01*
X0233494Y0179425D01*
X0233318Y0179204D01*
X0233136Y0178989D01*
X0232949Y0178777D01*
X0232757Y0178570D01*
X0232560Y0178368D01*
X0232358Y0178171D01*
X0232151Y0177979D01*
X0231939Y0177792D01*
X0231724Y0177610D01*
X0231503Y0177434D01*
X0231279Y0177263D01*
X0231050Y0177098D01*
X0230817Y0176938D01*
X0230580Y0176784D01*
X0230340Y0176636D01*
X0230096Y0176494D01*
X0229849Y0176358D01*
X0229599Y0176228D01*
X0229345Y0176104D01*
X0229088Y0175987D01*
X0228829Y0175875D01*
X0228567Y0175771D01*
X0228302Y0175672D01*
X0228035Y0175580D01*
X0227766Y0175495D01*
X0227495Y0175417D01*
X0227222Y0175345D01*
X0226948Y0175279D01*
X0226672Y0175221D01*
X0226394Y0175169D01*
X0226115Y0175124D01*
X0225836Y0175086D01*
X0225555Y0175055D01*
X0225274Y0175031D01*
X0224992Y0175014D01*
X0224710Y0175003D01*
X0224428Y0175000D01*
X0224146Y0175003D01*
X0223864Y0175014D01*
X0223582Y0175031D01*
X0223301Y0175055D01*
X0223020Y0175086D01*
X0222741Y0175124D01*
X0222462Y0175169D01*
X0222184Y0175221D01*
X0221908Y0175279D01*
X0221634Y0175345D01*
X0221361Y0175417D01*
X0221090Y0175495D01*
X0220821Y0175580D01*
X0220554Y0175672D01*
X0220289Y0175771D01*
X0220027Y0175875D01*
X0219768Y0175987D01*
X0219511Y0176104D01*
X0219257Y0176228D01*
X0219007Y0176358D01*
X0218760Y0176494D01*
X0218516Y0176636D01*
X0218276Y0176784D01*
X0218039Y0176938D01*
X0217806Y0177098D01*
X0217577Y0177263D01*
X0217353Y0177434D01*
X0217132Y0177610D01*
X0216917Y0177792D01*
X0216705Y0177979D01*
X0216498Y0178171D01*
X0216296Y0178368D01*
X0216099Y0178570D01*
X0215907Y0178777D01*
X0215720Y0178989D01*
X0215538Y0179204D01*
X0215362Y0179425D01*
X0215191Y0179649D01*
X0215026Y0179878D01*
X0214866Y0180111D01*
X0214712Y0180348D01*
X0214564Y0180588D01*
X0214422Y0180832D01*
X0214286Y0181079D01*
X0214156Y0181329D01*
X0214032Y0181583D01*
X0213915Y0181840D01*
X0213803Y0182099D01*
X0213699Y0182361D01*
X0213600Y0182626D01*
X0213508Y0182893D01*
X0213423Y0183162D01*
X0213345Y0183433D01*
X0213273Y0183706D01*
X0213207Y0183980D01*
X0213149Y0184256D01*
X0213097Y0184534D01*
X0213052Y0184813D01*
X0213014Y0185092D01*
X0212983Y0185373D01*
X0212959Y0185654D01*
X0212942Y0185936D01*
X0212931Y0186218D01*
X0212928Y0186500D01*
X0213104Y0224500D02*
X0208928Y0224500D01*
X0208928Y0228500D01*
X0213104Y0228500D01*
X0212928Y0226500D02*
X0212931Y0226782D01*
X0212942Y0227064D01*
X0212959Y0227346D01*
X0212983Y0227627D01*
X0213014Y0227908D01*
X0213052Y0228187D01*
X0213097Y0228466D01*
X0213149Y0228744D01*
X0213207Y0229020D01*
X0213273Y0229294D01*
X0213345Y0229567D01*
X0213423Y0229838D01*
X0213508Y0230107D01*
X0213600Y0230374D01*
X0213699Y0230639D01*
X0213803Y0230901D01*
X0213915Y0231160D01*
X0214032Y0231417D01*
X0214156Y0231671D01*
X0214286Y0231921D01*
X0214422Y0232168D01*
X0214564Y0232412D01*
X0214712Y0232652D01*
X0214866Y0232889D01*
X0215026Y0233122D01*
X0215191Y0233351D01*
X0215362Y0233575D01*
X0215538Y0233796D01*
X0215720Y0234011D01*
X0215907Y0234223D01*
X0216099Y0234430D01*
X0216296Y0234632D01*
X0216498Y0234829D01*
X0216705Y0235021D01*
X0216917Y0235208D01*
X0217132Y0235390D01*
X0217353Y0235566D01*
X0217577Y0235737D01*
X0217806Y0235902D01*
X0218039Y0236062D01*
X0218276Y0236216D01*
X0218516Y0236364D01*
X0218760Y0236506D01*
X0219007Y0236642D01*
X0219257Y0236772D01*
X0219511Y0236896D01*
X0219768Y0237013D01*
X0220027Y0237125D01*
X0220289Y0237229D01*
X0220554Y0237328D01*
X0220821Y0237420D01*
X0221090Y0237505D01*
X0221361Y0237583D01*
X0221634Y0237655D01*
X0221908Y0237721D01*
X0222184Y0237779D01*
X0222462Y0237831D01*
X0222741Y0237876D01*
X0223020Y0237914D01*
X0223301Y0237945D01*
X0223582Y0237969D01*
X0223864Y0237986D01*
X0224146Y0237997D01*
X0224428Y0238000D01*
X0224710Y0237997D01*
X0224992Y0237986D01*
X0225274Y0237969D01*
X0225555Y0237945D01*
X0225836Y0237914D01*
X0226115Y0237876D01*
X0226394Y0237831D01*
X0226672Y0237779D01*
X0226948Y0237721D01*
X0227222Y0237655D01*
X0227495Y0237583D01*
X0227766Y0237505D01*
X0228035Y0237420D01*
X0228302Y0237328D01*
X0228567Y0237229D01*
X0228829Y0237125D01*
X0229088Y0237013D01*
X0229345Y0236896D01*
X0229599Y0236772D01*
X0229849Y0236642D01*
X0230096Y0236506D01*
X0230340Y0236364D01*
X0230580Y0236216D01*
X0230817Y0236062D01*
X0231050Y0235902D01*
X0231279Y0235737D01*
X0231503Y0235566D01*
X0231724Y0235390D01*
X0231939Y0235208D01*
X0232151Y0235021D01*
X0232358Y0234829D01*
X0232560Y0234632D01*
X0232757Y0234430D01*
X0232949Y0234223D01*
X0233136Y0234011D01*
X0233318Y0233796D01*
X0233494Y0233575D01*
X0233665Y0233351D01*
X0233830Y0233122D01*
X0233990Y0232889D01*
X0234144Y0232652D01*
X0234292Y0232412D01*
X0234434Y0232168D01*
X0234570Y0231921D01*
X0234700Y0231671D01*
X0234824Y0231417D01*
X0234941Y0231160D01*
X0235053Y0230901D01*
X0235157Y0230639D01*
X0235256Y0230374D01*
X0235348Y0230107D01*
X0235433Y0229838D01*
X0235511Y0229567D01*
X0235583Y0229294D01*
X0235649Y0229020D01*
X0235707Y0228744D01*
X0235759Y0228466D01*
X0235804Y0228187D01*
X0235842Y0227908D01*
X0235873Y0227627D01*
X0235897Y0227346D01*
X0235914Y0227064D01*
X0235925Y0226782D01*
X0235928Y0226500D01*
X0235925Y0226218D01*
X0235914Y0225936D01*
X0235897Y0225654D01*
X0235873Y0225373D01*
X0235842Y0225092D01*
X0235804Y0224813D01*
X0235759Y0224534D01*
X0235707Y0224256D01*
X0235649Y0223980D01*
X0235583Y0223706D01*
X0235511Y0223433D01*
X0235433Y0223162D01*
X0235348Y0222893D01*
X0235256Y0222626D01*
X0235157Y0222361D01*
X0235053Y0222099D01*
X0234941Y0221840D01*
X0234824Y0221583D01*
X0234700Y0221329D01*
X0234570Y0221079D01*
X0234434Y0220832D01*
X0234292Y0220588D01*
X0234144Y0220348D01*
X0233990Y0220111D01*
X0233830Y0219878D01*
X0233665Y0219649D01*
X0233494Y0219425D01*
X0233318Y0219204D01*
X0233136Y0218989D01*
X0232949Y0218777D01*
X0232757Y0218570D01*
X0232560Y0218368D01*
X0232358Y0218171D01*
X0232151Y0217979D01*
X0231939Y0217792D01*
X0231724Y0217610D01*
X0231503Y0217434D01*
X0231279Y0217263D01*
X0231050Y0217098D01*
X0230817Y0216938D01*
X0230580Y0216784D01*
X0230340Y0216636D01*
X0230096Y0216494D01*
X0229849Y0216358D01*
X0229599Y0216228D01*
X0229345Y0216104D01*
X0229088Y0215987D01*
X0228829Y0215875D01*
X0228567Y0215771D01*
X0228302Y0215672D01*
X0228035Y0215580D01*
X0227766Y0215495D01*
X0227495Y0215417D01*
X0227222Y0215345D01*
X0226948Y0215279D01*
X0226672Y0215221D01*
X0226394Y0215169D01*
X0226115Y0215124D01*
X0225836Y0215086D01*
X0225555Y0215055D01*
X0225274Y0215031D01*
X0224992Y0215014D01*
X0224710Y0215003D01*
X0224428Y0215000D01*
X0224146Y0215003D01*
X0223864Y0215014D01*
X0223582Y0215031D01*
X0223301Y0215055D01*
X0223020Y0215086D01*
X0222741Y0215124D01*
X0222462Y0215169D01*
X0222184Y0215221D01*
X0221908Y0215279D01*
X0221634Y0215345D01*
X0221361Y0215417D01*
X0221090Y0215495D01*
X0220821Y0215580D01*
X0220554Y0215672D01*
X0220289Y0215771D01*
X0220027Y0215875D01*
X0219768Y0215987D01*
X0219511Y0216104D01*
X0219257Y0216228D01*
X0219007Y0216358D01*
X0218760Y0216494D01*
X0218516Y0216636D01*
X0218276Y0216784D01*
X0218039Y0216938D01*
X0217806Y0217098D01*
X0217577Y0217263D01*
X0217353Y0217434D01*
X0217132Y0217610D01*
X0216917Y0217792D01*
X0216705Y0217979D01*
X0216498Y0218171D01*
X0216296Y0218368D01*
X0216099Y0218570D01*
X0215907Y0218777D01*
X0215720Y0218989D01*
X0215538Y0219204D01*
X0215362Y0219425D01*
X0215191Y0219649D01*
X0215026Y0219878D01*
X0214866Y0220111D01*
X0214712Y0220348D01*
X0214564Y0220588D01*
X0214422Y0220832D01*
X0214286Y0221079D01*
X0214156Y0221329D01*
X0214032Y0221583D01*
X0213915Y0221840D01*
X0213803Y0222099D01*
X0213699Y0222361D01*
X0213600Y0222626D01*
X0213508Y0222893D01*
X0213423Y0223162D01*
X0213345Y0223433D01*
X0213273Y0223706D01*
X0213207Y0223980D01*
X0213149Y0224256D01*
X0213097Y0224534D01*
X0213052Y0224813D01*
X0213014Y0225092D01*
X0212983Y0225373D01*
X0212959Y0225654D01*
X0212942Y0225936D01*
X0212931Y0226218D01*
X0212928Y0226500D01*
X0213104Y0264500D02*
X0208928Y0264500D01*
X0208928Y0268500D01*
X0213104Y0268500D01*
X0212928Y0266500D02*
X0212931Y0266782D01*
X0212942Y0267064D01*
X0212959Y0267346D01*
X0212983Y0267627D01*
X0213014Y0267908D01*
X0213052Y0268187D01*
X0213097Y0268466D01*
X0213149Y0268744D01*
X0213207Y0269020D01*
X0213273Y0269294D01*
X0213345Y0269567D01*
X0213423Y0269838D01*
X0213508Y0270107D01*
X0213600Y0270374D01*
X0213699Y0270639D01*
X0213803Y0270901D01*
X0213915Y0271160D01*
X0214032Y0271417D01*
X0214156Y0271671D01*
X0214286Y0271921D01*
X0214422Y0272168D01*
X0214564Y0272412D01*
X0214712Y0272652D01*
X0214866Y0272889D01*
X0215026Y0273122D01*
X0215191Y0273351D01*
X0215362Y0273575D01*
X0215538Y0273796D01*
X0215720Y0274011D01*
X0215907Y0274223D01*
X0216099Y0274430D01*
X0216296Y0274632D01*
X0216498Y0274829D01*
X0216705Y0275021D01*
X0216917Y0275208D01*
X0217132Y0275390D01*
X0217353Y0275566D01*
X0217577Y0275737D01*
X0217806Y0275902D01*
X0218039Y0276062D01*
X0218276Y0276216D01*
X0218516Y0276364D01*
X0218760Y0276506D01*
X0219007Y0276642D01*
X0219257Y0276772D01*
X0219511Y0276896D01*
X0219768Y0277013D01*
X0220027Y0277125D01*
X0220289Y0277229D01*
X0220554Y0277328D01*
X0220821Y0277420D01*
X0221090Y0277505D01*
X0221361Y0277583D01*
X0221634Y0277655D01*
X0221908Y0277721D01*
X0222184Y0277779D01*
X0222462Y0277831D01*
X0222741Y0277876D01*
X0223020Y0277914D01*
X0223301Y0277945D01*
X0223582Y0277969D01*
X0223864Y0277986D01*
X0224146Y0277997D01*
X0224428Y0278000D01*
X0224710Y0277997D01*
X0224992Y0277986D01*
X0225274Y0277969D01*
X0225555Y0277945D01*
X0225836Y0277914D01*
X0226115Y0277876D01*
X0226394Y0277831D01*
X0226672Y0277779D01*
X0226948Y0277721D01*
X0227222Y0277655D01*
X0227495Y0277583D01*
X0227766Y0277505D01*
X0228035Y0277420D01*
X0228302Y0277328D01*
X0228567Y0277229D01*
X0228829Y0277125D01*
X0229088Y0277013D01*
X0229345Y0276896D01*
X0229599Y0276772D01*
X0229849Y0276642D01*
X0230096Y0276506D01*
X0230340Y0276364D01*
X0230580Y0276216D01*
X0230817Y0276062D01*
X0231050Y0275902D01*
X0231279Y0275737D01*
X0231503Y0275566D01*
X0231724Y0275390D01*
X0231939Y0275208D01*
X0232151Y0275021D01*
X0232358Y0274829D01*
X0232560Y0274632D01*
X0232757Y0274430D01*
X0232949Y0274223D01*
X0233136Y0274011D01*
X0233318Y0273796D01*
X0233494Y0273575D01*
X0233665Y0273351D01*
X0233830Y0273122D01*
X0233990Y0272889D01*
X0234144Y0272652D01*
X0234292Y0272412D01*
X0234434Y0272168D01*
X0234570Y0271921D01*
X0234700Y0271671D01*
X0234824Y0271417D01*
X0234941Y0271160D01*
X0235053Y0270901D01*
X0235157Y0270639D01*
X0235256Y0270374D01*
X0235348Y0270107D01*
X0235433Y0269838D01*
X0235511Y0269567D01*
X0235583Y0269294D01*
X0235649Y0269020D01*
X0235707Y0268744D01*
X0235759Y0268466D01*
X0235804Y0268187D01*
X0235842Y0267908D01*
X0235873Y0267627D01*
X0235897Y0267346D01*
X0235914Y0267064D01*
X0235925Y0266782D01*
X0235928Y0266500D01*
X0235925Y0266218D01*
X0235914Y0265936D01*
X0235897Y0265654D01*
X0235873Y0265373D01*
X0235842Y0265092D01*
X0235804Y0264813D01*
X0235759Y0264534D01*
X0235707Y0264256D01*
X0235649Y0263980D01*
X0235583Y0263706D01*
X0235511Y0263433D01*
X0235433Y0263162D01*
X0235348Y0262893D01*
X0235256Y0262626D01*
X0235157Y0262361D01*
X0235053Y0262099D01*
X0234941Y0261840D01*
X0234824Y0261583D01*
X0234700Y0261329D01*
X0234570Y0261079D01*
X0234434Y0260832D01*
X0234292Y0260588D01*
X0234144Y0260348D01*
X0233990Y0260111D01*
X0233830Y0259878D01*
X0233665Y0259649D01*
X0233494Y0259425D01*
X0233318Y0259204D01*
X0233136Y0258989D01*
X0232949Y0258777D01*
X0232757Y0258570D01*
X0232560Y0258368D01*
X0232358Y0258171D01*
X0232151Y0257979D01*
X0231939Y0257792D01*
X0231724Y0257610D01*
X0231503Y0257434D01*
X0231279Y0257263D01*
X0231050Y0257098D01*
X0230817Y0256938D01*
X0230580Y0256784D01*
X0230340Y0256636D01*
X0230096Y0256494D01*
X0229849Y0256358D01*
X0229599Y0256228D01*
X0229345Y0256104D01*
X0229088Y0255987D01*
X0228829Y0255875D01*
X0228567Y0255771D01*
X0228302Y0255672D01*
X0228035Y0255580D01*
X0227766Y0255495D01*
X0227495Y0255417D01*
X0227222Y0255345D01*
X0226948Y0255279D01*
X0226672Y0255221D01*
X0226394Y0255169D01*
X0226115Y0255124D01*
X0225836Y0255086D01*
X0225555Y0255055D01*
X0225274Y0255031D01*
X0224992Y0255014D01*
X0224710Y0255003D01*
X0224428Y0255000D01*
X0224146Y0255003D01*
X0223864Y0255014D01*
X0223582Y0255031D01*
X0223301Y0255055D01*
X0223020Y0255086D01*
X0222741Y0255124D01*
X0222462Y0255169D01*
X0222184Y0255221D01*
X0221908Y0255279D01*
X0221634Y0255345D01*
X0221361Y0255417D01*
X0221090Y0255495D01*
X0220821Y0255580D01*
X0220554Y0255672D01*
X0220289Y0255771D01*
X0220027Y0255875D01*
X0219768Y0255987D01*
X0219511Y0256104D01*
X0219257Y0256228D01*
X0219007Y0256358D01*
X0218760Y0256494D01*
X0218516Y0256636D01*
X0218276Y0256784D01*
X0218039Y0256938D01*
X0217806Y0257098D01*
X0217577Y0257263D01*
X0217353Y0257434D01*
X0217132Y0257610D01*
X0216917Y0257792D01*
X0216705Y0257979D01*
X0216498Y0258171D01*
X0216296Y0258368D01*
X0216099Y0258570D01*
X0215907Y0258777D01*
X0215720Y0258989D01*
X0215538Y0259204D01*
X0215362Y0259425D01*
X0215191Y0259649D01*
X0215026Y0259878D01*
X0214866Y0260111D01*
X0214712Y0260348D01*
X0214564Y0260588D01*
X0214422Y0260832D01*
X0214286Y0261079D01*
X0214156Y0261329D01*
X0214032Y0261583D01*
X0213915Y0261840D01*
X0213803Y0262099D01*
X0213699Y0262361D01*
X0213600Y0262626D01*
X0213508Y0262893D01*
X0213423Y0263162D01*
X0213345Y0263433D01*
X0213273Y0263706D01*
X0213207Y0263980D01*
X0213149Y0264256D01*
X0213097Y0264534D01*
X0213052Y0264813D01*
X0213014Y0265092D01*
X0212983Y0265373D01*
X0212959Y0265654D01*
X0212942Y0265936D01*
X0212931Y0266218D01*
X0212928Y0266500D01*
X0082928Y0166500D02*
X0082931Y0166782D01*
X0082942Y0167064D01*
X0082959Y0167346D01*
X0082983Y0167627D01*
X0083014Y0167908D01*
X0083052Y0168187D01*
X0083097Y0168466D01*
X0083149Y0168744D01*
X0083207Y0169020D01*
X0083273Y0169294D01*
X0083345Y0169567D01*
X0083423Y0169838D01*
X0083508Y0170107D01*
X0083600Y0170374D01*
X0083699Y0170639D01*
X0083803Y0170901D01*
X0083915Y0171160D01*
X0084032Y0171417D01*
X0084156Y0171671D01*
X0084286Y0171921D01*
X0084422Y0172168D01*
X0084564Y0172412D01*
X0084712Y0172652D01*
X0084866Y0172889D01*
X0085026Y0173122D01*
X0085191Y0173351D01*
X0085362Y0173575D01*
X0085538Y0173796D01*
X0085720Y0174011D01*
X0085907Y0174223D01*
X0086099Y0174430D01*
X0086296Y0174632D01*
X0086498Y0174829D01*
X0086705Y0175021D01*
X0086917Y0175208D01*
X0087132Y0175390D01*
X0087353Y0175566D01*
X0087577Y0175737D01*
X0087806Y0175902D01*
X0088039Y0176062D01*
X0088276Y0176216D01*
X0088516Y0176364D01*
X0088760Y0176506D01*
X0089007Y0176642D01*
X0089257Y0176772D01*
X0089511Y0176896D01*
X0089768Y0177013D01*
X0090027Y0177125D01*
X0090289Y0177229D01*
X0090554Y0177328D01*
X0090821Y0177420D01*
X0091090Y0177505D01*
X0091361Y0177583D01*
X0091634Y0177655D01*
X0091908Y0177721D01*
X0092184Y0177779D01*
X0092462Y0177831D01*
X0092741Y0177876D01*
X0093020Y0177914D01*
X0093301Y0177945D01*
X0093582Y0177969D01*
X0093864Y0177986D01*
X0094146Y0177997D01*
X0094428Y0178000D01*
X0094710Y0177997D01*
X0094992Y0177986D01*
X0095274Y0177969D01*
X0095555Y0177945D01*
X0095836Y0177914D01*
X0096115Y0177876D01*
X0096394Y0177831D01*
X0096672Y0177779D01*
X0096948Y0177721D01*
X0097222Y0177655D01*
X0097495Y0177583D01*
X0097766Y0177505D01*
X0098035Y0177420D01*
X0098302Y0177328D01*
X0098567Y0177229D01*
X0098829Y0177125D01*
X0099088Y0177013D01*
X0099345Y0176896D01*
X0099599Y0176772D01*
X0099849Y0176642D01*
X0100096Y0176506D01*
X0100340Y0176364D01*
X0100580Y0176216D01*
X0100817Y0176062D01*
X0101050Y0175902D01*
X0101279Y0175737D01*
X0101503Y0175566D01*
X0101724Y0175390D01*
X0101939Y0175208D01*
X0102151Y0175021D01*
X0102358Y0174829D01*
X0102560Y0174632D01*
X0102757Y0174430D01*
X0102949Y0174223D01*
X0103136Y0174011D01*
X0103318Y0173796D01*
X0103494Y0173575D01*
X0103665Y0173351D01*
X0103830Y0173122D01*
X0103990Y0172889D01*
X0104144Y0172652D01*
X0104292Y0172412D01*
X0104434Y0172168D01*
X0104570Y0171921D01*
X0104700Y0171671D01*
X0104824Y0171417D01*
X0104941Y0171160D01*
X0105053Y0170901D01*
X0105157Y0170639D01*
X0105256Y0170374D01*
X0105348Y0170107D01*
X0105433Y0169838D01*
X0105511Y0169567D01*
X0105583Y0169294D01*
X0105649Y0169020D01*
X0105707Y0168744D01*
X0105759Y0168466D01*
X0105804Y0168187D01*
X0105842Y0167908D01*
X0105873Y0167627D01*
X0105897Y0167346D01*
X0105914Y0167064D01*
X0105925Y0166782D01*
X0105928Y0166500D01*
X0105925Y0166218D01*
X0105914Y0165936D01*
X0105897Y0165654D01*
X0105873Y0165373D01*
X0105842Y0165092D01*
X0105804Y0164813D01*
X0105759Y0164534D01*
X0105707Y0164256D01*
X0105649Y0163980D01*
X0105583Y0163706D01*
X0105511Y0163433D01*
X0105433Y0163162D01*
X0105348Y0162893D01*
X0105256Y0162626D01*
X0105157Y0162361D01*
X0105053Y0162099D01*
X0104941Y0161840D01*
X0104824Y0161583D01*
X0104700Y0161329D01*
X0104570Y0161079D01*
X0104434Y0160832D01*
X0104292Y0160588D01*
X0104144Y0160348D01*
X0103990Y0160111D01*
X0103830Y0159878D01*
X0103665Y0159649D01*
X0103494Y0159425D01*
X0103318Y0159204D01*
X0103136Y0158989D01*
X0102949Y0158777D01*
X0102757Y0158570D01*
X0102560Y0158368D01*
X0102358Y0158171D01*
X0102151Y0157979D01*
X0101939Y0157792D01*
X0101724Y0157610D01*
X0101503Y0157434D01*
X0101279Y0157263D01*
X0101050Y0157098D01*
X0100817Y0156938D01*
X0100580Y0156784D01*
X0100340Y0156636D01*
X0100096Y0156494D01*
X0099849Y0156358D01*
X0099599Y0156228D01*
X0099345Y0156104D01*
X0099088Y0155987D01*
X0098829Y0155875D01*
X0098567Y0155771D01*
X0098302Y0155672D01*
X0098035Y0155580D01*
X0097766Y0155495D01*
X0097495Y0155417D01*
X0097222Y0155345D01*
X0096948Y0155279D01*
X0096672Y0155221D01*
X0096394Y0155169D01*
X0096115Y0155124D01*
X0095836Y0155086D01*
X0095555Y0155055D01*
X0095274Y0155031D01*
X0094992Y0155014D01*
X0094710Y0155003D01*
X0094428Y0155000D01*
X0094146Y0155003D01*
X0093864Y0155014D01*
X0093582Y0155031D01*
X0093301Y0155055D01*
X0093020Y0155086D01*
X0092741Y0155124D01*
X0092462Y0155169D01*
X0092184Y0155221D01*
X0091908Y0155279D01*
X0091634Y0155345D01*
X0091361Y0155417D01*
X0091090Y0155495D01*
X0090821Y0155580D01*
X0090554Y0155672D01*
X0090289Y0155771D01*
X0090027Y0155875D01*
X0089768Y0155987D01*
X0089511Y0156104D01*
X0089257Y0156228D01*
X0089007Y0156358D01*
X0088760Y0156494D01*
X0088516Y0156636D01*
X0088276Y0156784D01*
X0088039Y0156938D01*
X0087806Y0157098D01*
X0087577Y0157263D01*
X0087353Y0157434D01*
X0087132Y0157610D01*
X0086917Y0157792D01*
X0086705Y0157979D01*
X0086498Y0158171D01*
X0086296Y0158368D01*
X0086099Y0158570D01*
X0085907Y0158777D01*
X0085720Y0158989D01*
X0085538Y0159204D01*
X0085362Y0159425D01*
X0085191Y0159649D01*
X0085026Y0159878D01*
X0084866Y0160111D01*
X0084712Y0160348D01*
X0084564Y0160588D01*
X0084422Y0160832D01*
X0084286Y0161079D01*
X0084156Y0161329D01*
X0084032Y0161583D01*
X0083915Y0161840D01*
X0083803Y0162099D01*
X0083699Y0162361D01*
X0083600Y0162626D01*
X0083508Y0162893D01*
X0083423Y0163162D01*
X0083345Y0163433D01*
X0083273Y0163706D01*
X0083207Y0163980D01*
X0083149Y0164256D01*
X0083097Y0164534D01*
X0083052Y0164813D01*
X0083014Y0165092D01*
X0082983Y0165373D01*
X0082959Y0165654D01*
X0082942Y0165936D01*
X0082931Y0166218D01*
X0082928Y0166500D01*
X0083104Y0164500D02*
X0078928Y0164500D01*
X0078928Y0168500D01*
X0083104Y0168500D01*
D17*
X0103196Y0170157D02*
X0103281Y0169946D01*
X0103361Y0169733D01*
X0103436Y0169518D01*
X0103505Y0169302D01*
X0103570Y0169084D01*
X0103629Y0168864D01*
X0103683Y0168643D01*
X0103732Y0168421D01*
X0103775Y0168197D01*
X0103813Y0167973D01*
X0103846Y0167748D01*
X0103873Y0167522D01*
X0103895Y0167295D01*
X0103911Y0167068D01*
X0103922Y0166841D01*
X0103927Y0166614D01*
X0103927Y0166386D01*
X0103922Y0166159D01*
X0103911Y0165932D01*
X0103895Y0165705D01*
X0103873Y0165478D01*
X0103846Y0165252D01*
X0103813Y0165027D01*
X0103775Y0164803D01*
X0103732Y0164579D01*
X0103683Y0164357D01*
X0103629Y0164136D01*
X0103570Y0163916D01*
X0103505Y0163698D01*
X0103436Y0163482D01*
X0103361Y0163267D01*
X0103281Y0163054D01*
X0103196Y0162843D01*
X0098086Y0175268D02*
X0097872Y0175354D01*
X0097655Y0175435D01*
X0097437Y0175511D01*
X0097216Y0175582D01*
X0096994Y0175647D01*
X0096771Y0175707D01*
X0096546Y0175761D01*
X0096320Y0175810D01*
X0096093Y0175853D01*
X0095865Y0175891D01*
X0095636Y0175923D01*
X0095406Y0175950D01*
X0095176Y0175971D01*
X0094945Y0175986D01*
X0094714Y0175996D01*
X0094483Y0176000D01*
X0094252Y0175998D01*
X0094021Y0175991D01*
X0093790Y0175978D01*
X0093559Y0175960D01*
X0093329Y0175936D01*
X0093100Y0175907D01*
X0092871Y0175871D01*
X0092644Y0175831D01*
X0092417Y0175785D01*
X0092192Y0175733D01*
X0091968Y0175676D01*
X0091745Y0175613D01*
X0091524Y0175545D01*
X0091305Y0175472D01*
X0091087Y0175393D01*
X0090872Y0175309D01*
X0090659Y0175220D01*
X0090448Y0175125D01*
X0090239Y0175026D01*
X0090033Y0174921D01*
X0089829Y0174812D01*
X0089628Y0174698D01*
X0089430Y0174578D01*
X0089235Y0174454D01*
X0089043Y0174325D01*
X0088854Y0174192D01*
X0088668Y0174054D01*
X0088486Y0173912D01*
X0088307Y0173765D01*
X0088132Y0173614D01*
X0087961Y0173458D01*
X0087794Y0173299D01*
X0087630Y0173135D01*
X0087471Y0172968D01*
X0087315Y0172797D01*
X0087164Y0172622D01*
X0087017Y0172443D01*
X0086875Y0172261D01*
X0086737Y0172075D01*
X0086604Y0171886D01*
X0086475Y0171694D01*
X0086351Y0171499D01*
X0086231Y0171301D01*
X0086117Y0171100D01*
X0086008Y0170896D01*
X0085903Y0170690D01*
X0085804Y0170481D01*
X0085709Y0170270D01*
X0085620Y0170057D01*
X0085536Y0169842D01*
X0085457Y0169624D01*
X0085384Y0169405D01*
X0085316Y0169184D01*
X0085253Y0168961D01*
X0085196Y0168737D01*
X0085144Y0168512D01*
X0085098Y0168285D01*
X0085058Y0168058D01*
X0085022Y0167829D01*
X0084993Y0167600D01*
X0084969Y0167370D01*
X0084951Y0167139D01*
X0084938Y0166908D01*
X0084931Y0166677D01*
X0084929Y0166446D01*
X0084933Y0166215D01*
X0084943Y0165984D01*
X0084958Y0165753D01*
X0084979Y0165523D01*
X0085006Y0165293D01*
X0085038Y0165064D01*
X0085076Y0164836D01*
X0085119Y0164609D01*
X0085168Y0164383D01*
X0085222Y0164158D01*
X0085282Y0163935D01*
X0085347Y0163713D01*
X0085418Y0163492D01*
X0085494Y0163274D01*
X0085575Y0163057D01*
X0085661Y0162843D01*
X0090771Y0157732D02*
X0090982Y0157647D01*
X0091195Y0157567D01*
X0091410Y0157492D01*
X0091626Y0157423D01*
X0091844Y0157358D01*
X0092064Y0157299D01*
X0092285Y0157245D01*
X0092507Y0157196D01*
X0092731Y0157153D01*
X0092955Y0157115D01*
X0093180Y0157082D01*
X0093406Y0157055D01*
X0093633Y0157033D01*
X0093860Y0157017D01*
X0094087Y0157006D01*
X0094314Y0157001D01*
X0094542Y0157001D01*
X0094769Y0157006D01*
X0094996Y0157017D01*
X0095223Y0157033D01*
X0095450Y0157055D01*
X0095676Y0157082D01*
X0095901Y0157115D01*
X0096125Y0157153D01*
X0096349Y0157196D01*
X0096571Y0157245D01*
X0096792Y0157299D01*
X0097012Y0157358D01*
X0097230Y0157423D01*
X0097446Y0157492D01*
X0097661Y0157567D01*
X0097874Y0157647D01*
X0098085Y0157732D01*
X0106928Y0134500D02*
X0074428Y0134500D01*
X0074428Y0098500D01*
X0106928Y0098500D01*
X0106928Y0134500D01*
X0233196Y0182843D02*
X0233281Y0183054D01*
X0233361Y0183267D01*
X0233436Y0183482D01*
X0233505Y0183698D01*
X0233570Y0183916D01*
X0233629Y0184136D01*
X0233683Y0184357D01*
X0233732Y0184579D01*
X0233775Y0184803D01*
X0233813Y0185027D01*
X0233846Y0185252D01*
X0233873Y0185478D01*
X0233895Y0185705D01*
X0233911Y0185932D01*
X0233922Y0186159D01*
X0233927Y0186386D01*
X0233927Y0186614D01*
X0233922Y0186841D01*
X0233911Y0187068D01*
X0233895Y0187295D01*
X0233873Y0187522D01*
X0233846Y0187748D01*
X0233813Y0187973D01*
X0233775Y0188197D01*
X0233732Y0188421D01*
X0233683Y0188643D01*
X0233629Y0188864D01*
X0233570Y0189084D01*
X0233505Y0189302D01*
X0233436Y0189518D01*
X0233361Y0189733D01*
X0233281Y0189946D01*
X0233196Y0190157D01*
X0228086Y0195268D02*
X0227872Y0195354D01*
X0227655Y0195435D01*
X0227437Y0195511D01*
X0227216Y0195582D01*
X0226994Y0195647D01*
X0226771Y0195707D01*
X0226546Y0195761D01*
X0226320Y0195810D01*
X0226093Y0195853D01*
X0225865Y0195891D01*
X0225636Y0195923D01*
X0225406Y0195950D01*
X0225176Y0195971D01*
X0224945Y0195986D01*
X0224714Y0195996D01*
X0224483Y0196000D01*
X0224252Y0195998D01*
X0224021Y0195991D01*
X0223790Y0195978D01*
X0223559Y0195960D01*
X0223329Y0195936D01*
X0223100Y0195907D01*
X0222871Y0195871D01*
X0222644Y0195831D01*
X0222417Y0195785D01*
X0222192Y0195733D01*
X0221968Y0195676D01*
X0221745Y0195613D01*
X0221524Y0195545D01*
X0221305Y0195472D01*
X0221087Y0195393D01*
X0220872Y0195309D01*
X0220659Y0195220D01*
X0220448Y0195125D01*
X0220239Y0195026D01*
X0220033Y0194921D01*
X0219829Y0194812D01*
X0219628Y0194698D01*
X0219430Y0194578D01*
X0219235Y0194454D01*
X0219043Y0194325D01*
X0218854Y0194192D01*
X0218668Y0194054D01*
X0218486Y0193912D01*
X0218307Y0193765D01*
X0218132Y0193614D01*
X0217961Y0193458D01*
X0217794Y0193299D01*
X0217630Y0193135D01*
X0217471Y0192968D01*
X0217315Y0192797D01*
X0217164Y0192622D01*
X0217017Y0192443D01*
X0216875Y0192261D01*
X0216737Y0192075D01*
X0216604Y0191886D01*
X0216475Y0191694D01*
X0216351Y0191499D01*
X0216231Y0191301D01*
X0216117Y0191100D01*
X0216008Y0190896D01*
X0215903Y0190690D01*
X0215804Y0190481D01*
X0215709Y0190270D01*
X0215620Y0190057D01*
X0215536Y0189842D01*
X0215457Y0189624D01*
X0215384Y0189405D01*
X0215316Y0189184D01*
X0215253Y0188961D01*
X0215196Y0188737D01*
X0215144Y0188512D01*
X0215098Y0188285D01*
X0215058Y0188058D01*
X0215022Y0187829D01*
X0214993Y0187600D01*
X0214969Y0187370D01*
X0214951Y0187139D01*
X0214938Y0186908D01*
X0214931Y0186677D01*
X0214929Y0186446D01*
X0214933Y0186215D01*
X0214943Y0185984D01*
X0214958Y0185753D01*
X0214979Y0185523D01*
X0215006Y0185293D01*
X0215038Y0185064D01*
X0215076Y0184836D01*
X0215119Y0184609D01*
X0215168Y0184383D01*
X0215222Y0184158D01*
X0215282Y0183935D01*
X0215347Y0183713D01*
X0215418Y0183492D01*
X0215494Y0183274D01*
X0215575Y0183057D01*
X0215661Y0182843D01*
X0220771Y0177732D02*
X0220982Y0177647D01*
X0221195Y0177567D01*
X0221410Y0177492D01*
X0221626Y0177423D01*
X0221844Y0177358D01*
X0222064Y0177299D01*
X0222285Y0177245D01*
X0222507Y0177196D01*
X0222731Y0177153D01*
X0222955Y0177115D01*
X0223180Y0177082D01*
X0223406Y0177055D01*
X0223633Y0177033D01*
X0223860Y0177017D01*
X0224087Y0177006D01*
X0224314Y0177001D01*
X0224542Y0177001D01*
X0224769Y0177006D01*
X0224996Y0177017D01*
X0225223Y0177033D01*
X0225450Y0177055D01*
X0225676Y0177082D01*
X0225901Y0177115D01*
X0226125Y0177153D01*
X0226349Y0177196D01*
X0226571Y0177245D01*
X0226792Y0177299D01*
X0227012Y0177358D01*
X0227230Y0177423D01*
X0227446Y0177492D01*
X0227661Y0177567D01*
X0227874Y0177647D01*
X0228085Y0177732D01*
X0215661Y0222843D02*
X0215575Y0223057D01*
X0215494Y0223274D01*
X0215418Y0223492D01*
X0215347Y0223713D01*
X0215282Y0223935D01*
X0215222Y0224158D01*
X0215168Y0224383D01*
X0215119Y0224609D01*
X0215076Y0224836D01*
X0215038Y0225064D01*
X0215006Y0225293D01*
X0214979Y0225523D01*
X0214958Y0225753D01*
X0214943Y0225984D01*
X0214933Y0226215D01*
X0214929Y0226446D01*
X0214931Y0226677D01*
X0214938Y0226908D01*
X0214951Y0227139D01*
X0214969Y0227370D01*
X0214993Y0227600D01*
X0215022Y0227829D01*
X0215058Y0228058D01*
X0215098Y0228285D01*
X0215144Y0228512D01*
X0215196Y0228737D01*
X0215253Y0228961D01*
X0215316Y0229184D01*
X0215384Y0229405D01*
X0215457Y0229624D01*
X0215536Y0229842D01*
X0215620Y0230057D01*
X0215709Y0230270D01*
X0215804Y0230481D01*
X0215903Y0230690D01*
X0216008Y0230896D01*
X0216117Y0231100D01*
X0216231Y0231301D01*
X0216351Y0231499D01*
X0216475Y0231694D01*
X0216604Y0231886D01*
X0216737Y0232075D01*
X0216875Y0232261D01*
X0217017Y0232443D01*
X0217164Y0232622D01*
X0217315Y0232797D01*
X0217471Y0232968D01*
X0217630Y0233135D01*
X0217794Y0233299D01*
X0217961Y0233458D01*
X0218132Y0233614D01*
X0218307Y0233765D01*
X0218486Y0233912D01*
X0218668Y0234054D01*
X0218854Y0234192D01*
X0219043Y0234325D01*
X0219235Y0234454D01*
X0219430Y0234578D01*
X0219628Y0234698D01*
X0219829Y0234812D01*
X0220033Y0234921D01*
X0220239Y0235026D01*
X0220448Y0235125D01*
X0220659Y0235220D01*
X0220872Y0235309D01*
X0221087Y0235393D01*
X0221305Y0235472D01*
X0221524Y0235545D01*
X0221745Y0235613D01*
X0221968Y0235676D01*
X0222192Y0235733D01*
X0222417Y0235785D01*
X0222644Y0235831D01*
X0222871Y0235871D01*
X0223100Y0235907D01*
X0223329Y0235936D01*
X0223559Y0235960D01*
X0223790Y0235978D01*
X0224021Y0235991D01*
X0224252Y0235998D01*
X0224483Y0236000D01*
X0224714Y0235996D01*
X0224945Y0235986D01*
X0225176Y0235971D01*
X0225406Y0235950D01*
X0225636Y0235923D01*
X0225865Y0235891D01*
X0226093Y0235853D01*
X0226320Y0235810D01*
X0226546Y0235761D01*
X0226771Y0235707D01*
X0226994Y0235647D01*
X0227216Y0235582D01*
X0227437Y0235511D01*
X0227655Y0235435D01*
X0227872Y0235354D01*
X0228086Y0235268D01*
X0228085Y0217732D02*
X0227874Y0217647D01*
X0227661Y0217567D01*
X0227446Y0217492D01*
X0227230Y0217423D01*
X0227012Y0217358D01*
X0226792Y0217299D01*
X0226571Y0217245D01*
X0226349Y0217196D01*
X0226125Y0217153D01*
X0225901Y0217115D01*
X0225676Y0217082D01*
X0225450Y0217055D01*
X0225223Y0217033D01*
X0224996Y0217017D01*
X0224769Y0217006D01*
X0224542Y0217001D01*
X0224314Y0217001D01*
X0224087Y0217006D01*
X0223860Y0217017D01*
X0223633Y0217033D01*
X0223406Y0217055D01*
X0223180Y0217082D01*
X0222955Y0217115D01*
X0222731Y0217153D01*
X0222507Y0217196D01*
X0222285Y0217245D01*
X0222064Y0217299D01*
X0221844Y0217358D01*
X0221626Y0217423D01*
X0221410Y0217492D01*
X0221195Y0217567D01*
X0220982Y0217647D01*
X0220771Y0217732D01*
X0233196Y0222843D02*
X0233281Y0223054D01*
X0233361Y0223267D01*
X0233436Y0223482D01*
X0233505Y0223698D01*
X0233570Y0223916D01*
X0233629Y0224136D01*
X0233683Y0224357D01*
X0233732Y0224579D01*
X0233775Y0224803D01*
X0233813Y0225027D01*
X0233846Y0225252D01*
X0233873Y0225478D01*
X0233895Y0225705D01*
X0233911Y0225932D01*
X0233922Y0226159D01*
X0233927Y0226386D01*
X0233927Y0226614D01*
X0233922Y0226841D01*
X0233911Y0227068D01*
X0233895Y0227295D01*
X0233873Y0227522D01*
X0233846Y0227748D01*
X0233813Y0227973D01*
X0233775Y0228197D01*
X0233732Y0228421D01*
X0233683Y0228643D01*
X0233629Y0228864D01*
X0233570Y0229084D01*
X0233505Y0229302D01*
X0233436Y0229518D01*
X0233361Y0229733D01*
X0233281Y0229946D01*
X0233196Y0230157D01*
X0215661Y0262843D02*
X0215575Y0263057D01*
X0215494Y0263274D01*
X0215418Y0263492D01*
X0215347Y0263713D01*
X0215282Y0263935D01*
X0215222Y0264158D01*
X0215168Y0264383D01*
X0215119Y0264609D01*
X0215076Y0264836D01*
X0215038Y0265064D01*
X0215006Y0265293D01*
X0214979Y0265523D01*
X0214958Y0265753D01*
X0214943Y0265984D01*
X0214933Y0266215D01*
X0214929Y0266446D01*
X0214931Y0266677D01*
X0214938Y0266908D01*
X0214951Y0267139D01*
X0214969Y0267370D01*
X0214993Y0267600D01*
X0215022Y0267829D01*
X0215058Y0268058D01*
X0215098Y0268285D01*
X0215144Y0268512D01*
X0215196Y0268737D01*
X0215253Y0268961D01*
X0215316Y0269184D01*
X0215384Y0269405D01*
X0215457Y0269624D01*
X0215536Y0269842D01*
X0215620Y0270057D01*
X0215709Y0270270D01*
X0215804Y0270481D01*
X0215903Y0270690D01*
X0216008Y0270896D01*
X0216117Y0271100D01*
X0216231Y0271301D01*
X0216351Y0271499D01*
X0216475Y0271694D01*
X0216604Y0271886D01*
X0216737Y0272075D01*
X0216875Y0272261D01*
X0217017Y0272443D01*
X0217164Y0272622D01*
X0217315Y0272797D01*
X0217471Y0272968D01*
X0217630Y0273135D01*
X0217794Y0273299D01*
X0217961Y0273458D01*
X0218132Y0273614D01*
X0218307Y0273765D01*
X0218486Y0273912D01*
X0218668Y0274054D01*
X0218854Y0274192D01*
X0219043Y0274325D01*
X0219235Y0274454D01*
X0219430Y0274578D01*
X0219628Y0274698D01*
X0219829Y0274812D01*
X0220033Y0274921D01*
X0220239Y0275026D01*
X0220448Y0275125D01*
X0220659Y0275220D01*
X0220872Y0275309D01*
X0221087Y0275393D01*
X0221305Y0275472D01*
X0221524Y0275545D01*
X0221745Y0275613D01*
X0221968Y0275676D01*
X0222192Y0275733D01*
X0222417Y0275785D01*
X0222644Y0275831D01*
X0222871Y0275871D01*
X0223100Y0275907D01*
X0223329Y0275936D01*
X0223559Y0275960D01*
X0223790Y0275978D01*
X0224021Y0275991D01*
X0224252Y0275998D01*
X0224483Y0276000D01*
X0224714Y0275996D01*
X0224945Y0275986D01*
X0225176Y0275971D01*
X0225406Y0275950D01*
X0225636Y0275923D01*
X0225865Y0275891D01*
X0226093Y0275853D01*
X0226320Y0275810D01*
X0226546Y0275761D01*
X0226771Y0275707D01*
X0226994Y0275647D01*
X0227216Y0275582D01*
X0227437Y0275511D01*
X0227655Y0275435D01*
X0227872Y0275354D01*
X0228086Y0275268D01*
X0228085Y0257732D02*
X0227874Y0257647D01*
X0227661Y0257567D01*
X0227446Y0257492D01*
X0227230Y0257423D01*
X0227012Y0257358D01*
X0226792Y0257299D01*
X0226571Y0257245D01*
X0226349Y0257196D01*
X0226125Y0257153D01*
X0225901Y0257115D01*
X0225676Y0257082D01*
X0225450Y0257055D01*
X0225223Y0257033D01*
X0224996Y0257017D01*
X0224769Y0257006D01*
X0224542Y0257001D01*
X0224314Y0257001D01*
X0224087Y0257006D01*
X0223860Y0257017D01*
X0223633Y0257033D01*
X0223406Y0257055D01*
X0223180Y0257082D01*
X0222955Y0257115D01*
X0222731Y0257153D01*
X0222507Y0257196D01*
X0222285Y0257245D01*
X0222064Y0257299D01*
X0221844Y0257358D01*
X0221626Y0257423D01*
X0221410Y0257492D01*
X0221195Y0257567D01*
X0220982Y0257647D01*
X0220771Y0257732D01*
X0233196Y0262843D02*
X0233281Y0263054D01*
X0233361Y0263267D01*
X0233436Y0263482D01*
X0233505Y0263698D01*
X0233570Y0263916D01*
X0233629Y0264136D01*
X0233683Y0264357D01*
X0233732Y0264579D01*
X0233775Y0264803D01*
X0233813Y0265027D01*
X0233846Y0265252D01*
X0233873Y0265478D01*
X0233895Y0265705D01*
X0233911Y0265932D01*
X0233922Y0266159D01*
X0233927Y0266386D01*
X0233927Y0266614D01*
X0233922Y0266841D01*
X0233911Y0267068D01*
X0233895Y0267295D01*
X0233873Y0267522D01*
X0233846Y0267748D01*
X0233813Y0267973D01*
X0233775Y0268197D01*
X0233732Y0268421D01*
X0233683Y0268643D01*
X0233629Y0268864D01*
X0233570Y0269084D01*
X0233505Y0269302D01*
X0233436Y0269518D01*
X0233361Y0269733D01*
X0233281Y0269946D01*
X0233196Y0270157D01*
D18*
X0121678Y0126500D03*
X0121678Y0116500D03*
X0121678Y0106500D03*
D19*
X0114928Y0106500D03*
X0114928Y0116500D03*
X0114928Y0126500D03*
M02*
