G75*
%MOIN*%
%OFA0B0*%
%FSLAX25Y25*%
%IPPOS*%
%LPD*%
%AMOC8*
5,1,8,0,0,1.08239X$1,22.5*
%
%ADD10C,0.00400*%
%ADD11C,0.00300*%
%ADD12C,0.00600*%
%ADD13C,0.01000*%
%ADD14C,0.00200*%
%ADD15R,0.03000X0.02500*%
%ADD16R,0.05000X0.11000*%
%ADD17C,0.00800*%
%ADD18C,0.00500*%
%ADD19R,0.02500X0.03000*%
%ADD20R,0.11000X0.05000*%
D10*
X0066700Y0014002D02*
X0069769Y0014002D01*
X0071304Y0014769D02*
X0071304Y0015537D01*
X0072071Y0016304D01*
X0073606Y0016304D01*
X0074373Y0015537D01*
X0074373Y0012467D01*
X0073606Y0011700D01*
X0072071Y0011700D01*
X0071304Y0012467D01*
X0072071Y0014002D02*
X0074373Y0014002D01*
X0075908Y0013235D02*
X0077442Y0011700D01*
X0078977Y0013235D01*
X0078977Y0016304D01*
X0075908Y0016304D02*
X0075908Y0013235D01*
X0072071Y0014002D02*
X0071304Y0014769D01*
X0068235Y0015537D02*
X0068235Y0012467D01*
X0085116Y0012467D02*
X0085883Y0011700D01*
X0087418Y0011700D01*
X0088185Y0012467D01*
X0088185Y0013235D01*
X0087418Y0014002D01*
X0085883Y0014002D01*
X0085116Y0014769D01*
X0085116Y0015537D01*
X0085883Y0016304D01*
X0087418Y0016304D01*
X0088185Y0015537D01*
X0089720Y0016304D02*
X0089720Y0012467D01*
X0090487Y0011700D01*
X0092022Y0011700D01*
X0092789Y0012467D01*
X0092789Y0016304D01*
X0094324Y0016304D02*
X0096626Y0016304D01*
X0097393Y0015537D01*
X0097393Y0014002D01*
X0096626Y0013235D01*
X0094324Y0013235D01*
X0094324Y0011700D02*
X0094324Y0016304D01*
X0098927Y0016304D02*
X0098927Y0011700D01*
X0098927Y0013235D02*
X0101229Y0013235D01*
X0101997Y0014002D01*
X0101997Y0015537D01*
X0101229Y0016304D01*
X0098927Y0016304D01*
X0103531Y0016304D02*
X0103531Y0011700D01*
X0106601Y0011700D01*
X0109670Y0011700D02*
X0109670Y0014002D01*
X0111205Y0015537D01*
X0111205Y0016304D01*
X0109670Y0014002D02*
X0108135Y0015537D01*
X0108135Y0016304D01*
X0131700Y0017467D02*
X0132467Y0016700D01*
X0134002Y0016700D01*
X0134769Y0017467D01*
X0134769Y0018235D01*
X0134002Y0019002D01*
X0132467Y0019002D01*
X0131700Y0019769D01*
X0131700Y0020537D01*
X0132467Y0021304D01*
X0134002Y0021304D01*
X0134769Y0020537D01*
X0136304Y0019769D02*
X0138606Y0019769D01*
X0139373Y0019002D01*
X0139373Y0017467D01*
X0138606Y0016700D01*
X0136304Y0016700D01*
X0136304Y0015165D02*
X0136304Y0019769D01*
X0140908Y0017467D02*
X0141675Y0018235D01*
X0143977Y0018235D01*
X0143977Y0019002D02*
X0143977Y0016700D01*
X0141675Y0016700D01*
X0140908Y0017467D01*
X0141675Y0019769D02*
X0143210Y0019769D01*
X0143977Y0019002D01*
X0145512Y0019769D02*
X0145512Y0016700D01*
X0148581Y0016700D02*
X0148581Y0019002D01*
X0147814Y0019769D01*
X0145512Y0019769D01*
X0150116Y0019769D02*
X0150116Y0016700D01*
X0153185Y0016700D02*
X0153185Y0019002D01*
X0152418Y0019769D01*
X0150116Y0019769D01*
X0154720Y0019769D02*
X0154720Y0017467D01*
X0155487Y0016700D01*
X0157789Y0016700D01*
X0157789Y0019769D01*
X0159324Y0019769D02*
X0159324Y0016700D01*
X0162393Y0016700D02*
X0162393Y0019002D01*
X0161626Y0019769D01*
X0159324Y0019769D01*
X0163927Y0019002D02*
X0163927Y0017467D01*
X0164695Y0016700D01*
X0166997Y0016700D01*
X0166997Y0015933D02*
X0166997Y0019769D01*
X0164695Y0019769D01*
X0163927Y0019002D01*
X0166997Y0015933D02*
X0166229Y0015165D01*
X0165462Y0015165D01*
X0168531Y0016700D02*
X0170833Y0016700D01*
X0171601Y0017467D01*
X0170833Y0018235D01*
X0169299Y0018235D01*
X0168531Y0019002D01*
X0169299Y0019769D01*
X0171601Y0019769D01*
X0173135Y0019769D02*
X0174670Y0016700D01*
X0176205Y0019769D01*
X0177739Y0019002D02*
X0178507Y0019769D01*
X0180041Y0019769D01*
X0180809Y0019002D01*
X0180809Y0018235D01*
X0177739Y0018235D01*
X0177739Y0019002D02*
X0177739Y0017467D01*
X0178507Y0016700D01*
X0180041Y0016700D01*
X0182343Y0016700D02*
X0182343Y0019769D01*
X0182343Y0018235D02*
X0183878Y0019769D01*
X0184645Y0019769D01*
X0186180Y0019002D02*
X0186947Y0019769D01*
X0189249Y0019769D01*
X0188482Y0018235D02*
X0186947Y0018235D01*
X0186180Y0019002D01*
X0186180Y0016700D02*
X0188482Y0016700D01*
X0189249Y0017467D01*
X0188482Y0018235D01*
X0190784Y0019002D02*
X0190784Y0017467D01*
X0191551Y0016700D01*
X0193086Y0016700D01*
X0193853Y0017467D01*
X0193853Y0019002D01*
X0193086Y0019769D01*
X0191551Y0019769D01*
X0190784Y0019002D01*
X0195388Y0019769D02*
X0195388Y0016700D01*
X0195388Y0018235D02*
X0196922Y0019769D01*
X0197690Y0019769D01*
X0199224Y0019002D02*
X0199224Y0017467D01*
X0199992Y0016700D01*
X0202294Y0016700D01*
X0202294Y0015933D02*
X0202294Y0019769D01*
X0199992Y0019769D01*
X0199224Y0019002D01*
X0202294Y0015933D02*
X0201526Y0015165D01*
X0200759Y0015165D01*
X0203828Y0017467D02*
X0204595Y0016700D01*
X0206897Y0016700D01*
X0206897Y0019769D01*
X0208432Y0019769D02*
X0210734Y0019769D01*
X0211501Y0019002D01*
X0211501Y0016700D01*
X0213036Y0017467D02*
X0213036Y0019002D01*
X0213803Y0019769D01*
X0216105Y0019769D01*
X0216105Y0015933D01*
X0215338Y0015165D01*
X0214571Y0015165D01*
X0213803Y0016700D02*
X0216105Y0016700D01*
X0213803Y0016700D02*
X0213036Y0017467D01*
X0208432Y0016700D02*
X0208432Y0019769D01*
X0203828Y0019769D02*
X0203828Y0017467D01*
X0203828Y0024200D02*
X0201526Y0024200D01*
X0200759Y0024967D01*
X0201526Y0025735D01*
X0203828Y0025735D01*
X0203828Y0026502D02*
X0203828Y0024200D01*
X0203828Y0026502D02*
X0203061Y0027269D01*
X0201526Y0027269D01*
X0199224Y0027269D02*
X0196922Y0025735D01*
X0199224Y0024200D01*
X0196922Y0024200D02*
X0196922Y0028804D01*
X0194620Y0028804D02*
X0194620Y0029571D01*
X0194620Y0027269D02*
X0194620Y0024200D01*
X0193853Y0024200D02*
X0195388Y0024200D01*
X0192318Y0024200D02*
X0190016Y0024200D01*
X0189249Y0024967D01*
X0189249Y0026502D01*
X0190016Y0027269D01*
X0192318Y0027269D01*
X0192318Y0028804D02*
X0192318Y0024200D01*
X0193853Y0027269D02*
X0194620Y0027269D01*
X0187714Y0026502D02*
X0187714Y0024200D01*
X0187714Y0026502D02*
X0186947Y0027269D01*
X0184645Y0027269D01*
X0184645Y0024200D01*
X0183110Y0024200D02*
X0181576Y0024200D01*
X0182343Y0024200D02*
X0182343Y0027269D01*
X0181576Y0027269D01*
X0180041Y0027269D02*
X0177739Y0027269D01*
X0176972Y0026502D01*
X0177739Y0025735D01*
X0179274Y0025735D01*
X0180041Y0024967D01*
X0179274Y0024200D01*
X0176972Y0024200D01*
X0175437Y0024200D02*
X0173135Y0024200D01*
X0172368Y0024967D01*
X0172368Y0026502D01*
X0173135Y0027269D01*
X0175437Y0027269D01*
X0175437Y0023433D01*
X0174670Y0022665D01*
X0173903Y0022665D01*
X0170833Y0024200D02*
X0170833Y0026502D01*
X0170066Y0027269D01*
X0167764Y0027269D01*
X0167764Y0024200D01*
X0166229Y0024200D02*
X0166229Y0027269D01*
X0163160Y0027269D02*
X0163160Y0024967D01*
X0163927Y0024200D01*
X0166229Y0024200D01*
X0161626Y0027269D02*
X0160858Y0027269D01*
X0159324Y0025735D01*
X0159324Y0027269D02*
X0159324Y0024200D01*
X0157789Y0025735D02*
X0157789Y0026502D01*
X0157022Y0027269D01*
X0155487Y0027269D01*
X0154720Y0026502D01*
X0154720Y0024967D01*
X0155487Y0024200D01*
X0157022Y0024200D01*
X0157789Y0025735D02*
X0154720Y0025735D01*
X0153185Y0024967D02*
X0152418Y0025735D01*
X0150883Y0025735D01*
X0150116Y0026502D01*
X0150883Y0027269D01*
X0153185Y0027269D01*
X0153185Y0024967D02*
X0152418Y0024200D01*
X0150116Y0024200D01*
X0148581Y0024967D02*
X0147814Y0025735D01*
X0146279Y0025735D01*
X0145512Y0026502D01*
X0146279Y0027269D01*
X0148581Y0027269D01*
X0148581Y0024967D02*
X0147814Y0024200D01*
X0145512Y0024200D01*
X0143977Y0025735D02*
X0143977Y0026502D01*
X0143210Y0027269D01*
X0141675Y0027269D01*
X0140908Y0026502D01*
X0140908Y0024967D01*
X0141675Y0024200D01*
X0143210Y0024200D01*
X0143977Y0025735D02*
X0140908Y0025735D01*
X0139373Y0025735D02*
X0137071Y0025735D01*
X0136304Y0024967D01*
X0137071Y0024200D01*
X0139373Y0024200D01*
X0139373Y0026502D01*
X0138606Y0027269D01*
X0137071Y0027269D01*
X0134769Y0028804D02*
X0134769Y0024200D01*
X0133235Y0025735D01*
X0131700Y0024200D01*
X0131700Y0028804D01*
X0182343Y0028804D02*
X0182343Y0029571D01*
X0205363Y0027269D02*
X0206897Y0027269D01*
X0206130Y0028037D02*
X0206130Y0024967D01*
X0206897Y0024200D01*
X0208432Y0024967D02*
X0209199Y0024200D01*
X0210734Y0024200D01*
X0211501Y0024967D01*
X0211501Y0026502D01*
X0210734Y0027269D01*
X0209199Y0027269D01*
X0208432Y0026502D01*
X0208432Y0024967D01*
X0213036Y0024200D02*
X0213036Y0027269D01*
X0213036Y0025735D02*
X0214571Y0027269D01*
X0215338Y0027269D01*
X0216873Y0024967D02*
X0217640Y0024967D01*
X0217640Y0024200D01*
X0216873Y0024200D01*
X0216873Y0024967D01*
X0222244Y0020537D02*
X0223011Y0021304D01*
X0224546Y0021304D01*
X0225313Y0020537D01*
X0225313Y0017467D01*
X0224546Y0016700D01*
X0223011Y0016700D01*
X0222244Y0017467D01*
X0223011Y0019002D02*
X0225313Y0019002D01*
X0226848Y0018235D02*
X0228382Y0016700D01*
X0229917Y0018235D01*
X0229917Y0021304D01*
X0226848Y0021304D02*
X0226848Y0018235D01*
X0223011Y0019002D02*
X0222244Y0019769D01*
X0222244Y0020537D01*
X0236056Y0021304D02*
X0236056Y0016700D01*
X0238358Y0016700D01*
X0239125Y0017467D01*
X0239125Y0018235D01*
X0238358Y0019002D01*
X0236056Y0019002D01*
X0238358Y0019002D02*
X0239125Y0019769D01*
X0239125Y0020537D01*
X0238358Y0021304D01*
X0236056Y0021304D01*
X0240660Y0021304D02*
X0241427Y0021304D01*
X0241427Y0016700D01*
X0240660Y0016700D02*
X0242194Y0016700D01*
X0243729Y0017467D02*
X0243729Y0019002D01*
X0244496Y0019769D01*
X0246031Y0019769D01*
X0246798Y0019002D01*
X0246798Y0017467D01*
X0246031Y0016700D01*
X0244496Y0016700D01*
X0243729Y0017467D01*
X0248333Y0017467D02*
X0248333Y0019002D01*
X0249100Y0019769D01*
X0251402Y0019769D01*
X0252937Y0018235D02*
X0255239Y0019769D01*
X0252937Y0018235D02*
X0255239Y0016700D01*
X0252937Y0016700D02*
X0252937Y0021304D01*
X0251402Y0016700D02*
X0249100Y0016700D01*
X0248333Y0017467D01*
X0261377Y0016700D02*
X0263679Y0016700D01*
X0264446Y0017467D01*
X0264446Y0018235D01*
X0263679Y0019002D01*
X0261377Y0019002D01*
X0261377Y0016700D02*
X0261377Y0021304D01*
X0263679Y0021304D01*
X0264446Y0020537D01*
X0264446Y0019769D01*
X0263679Y0019002D01*
X0265981Y0017467D02*
X0266748Y0018235D01*
X0269050Y0018235D01*
X0269050Y0019002D02*
X0269050Y0016700D01*
X0266748Y0016700D01*
X0265981Y0017467D01*
X0266748Y0019769D02*
X0268283Y0019769D01*
X0269050Y0019002D01*
X0270585Y0019769D02*
X0272120Y0019769D01*
X0271352Y0020537D02*
X0271352Y0017467D01*
X0272120Y0016700D01*
X0274422Y0017467D02*
X0274422Y0020537D01*
X0275189Y0019769D02*
X0273654Y0019769D01*
X0274422Y0017467D02*
X0275189Y0016700D01*
X0276724Y0017467D02*
X0276724Y0019002D01*
X0277491Y0019769D01*
X0279026Y0019769D01*
X0279793Y0019002D01*
X0279793Y0018235D01*
X0276724Y0018235D01*
X0276724Y0017467D02*
X0277491Y0016700D01*
X0279026Y0016700D01*
X0281328Y0016700D02*
X0281328Y0019769D01*
X0282862Y0019769D02*
X0283629Y0019769D01*
X0282862Y0019769D02*
X0281328Y0018235D01*
X0285164Y0019769D02*
X0285931Y0019769D01*
X0285931Y0016700D01*
X0285164Y0016700D02*
X0286699Y0016700D01*
X0288233Y0017467D02*
X0288233Y0019002D01*
X0289001Y0019769D01*
X0290535Y0019769D01*
X0291303Y0019002D01*
X0291303Y0018235D01*
X0288233Y0018235D01*
X0288233Y0017467D02*
X0289001Y0016700D01*
X0290535Y0016700D01*
X0285931Y0021304D02*
X0285931Y0022071D01*
X0306696Y0086700D02*
X0306696Y0089769D01*
X0306696Y0088235D02*
X0311300Y0088235D01*
X0311300Y0091304D02*
X0306696Y0091304D01*
X0306696Y0093606D01*
X0307463Y0094373D01*
X0308998Y0094373D01*
X0309765Y0093606D01*
X0309765Y0091304D01*
X0309765Y0092839D02*
X0311300Y0094373D01*
X0310533Y0095908D02*
X0311300Y0096675D01*
X0311300Y0098210D01*
X0310533Y0098977D01*
X0307463Y0098977D01*
X0306696Y0098210D01*
X0306696Y0096675D01*
X0307463Y0095908D01*
X0310533Y0095908D01*
X0310533Y0100512D02*
X0307463Y0100512D01*
X0306696Y0101279D01*
X0306696Y0102814D01*
X0307463Y0103581D01*
X0306696Y0105116D02*
X0311300Y0105116D01*
X0309765Y0105116D02*
X0306696Y0108185D01*
X0306696Y0109720D02*
X0311300Y0109720D01*
X0311300Y0112789D01*
X0311300Y0114324D02*
X0306696Y0114324D01*
X0311300Y0117393D01*
X0306696Y0117393D01*
X0306696Y0112789D02*
X0306696Y0109720D01*
X0308998Y0109720D02*
X0308998Y0111254D01*
X0311300Y0108185D02*
X0308998Y0105883D01*
X0310533Y0103581D02*
X0311300Y0102814D01*
X0311300Y0101279D01*
X0310533Y0100512D01*
X0310533Y0123531D02*
X0311300Y0124299D01*
X0311300Y0125833D01*
X0310533Y0126601D01*
X0309765Y0126601D01*
X0308998Y0125833D01*
X0308998Y0124299D01*
X0308231Y0123531D01*
X0307463Y0123531D01*
X0306696Y0124299D01*
X0306696Y0125833D01*
X0307463Y0126601D01*
X0306696Y0128135D02*
X0306696Y0129670D01*
X0306696Y0128903D02*
X0311300Y0128903D01*
X0311300Y0129670D02*
X0311300Y0128135D01*
X0310533Y0131205D02*
X0311300Y0131972D01*
X0311300Y0133507D01*
X0310533Y0134274D01*
X0308998Y0134274D01*
X0308998Y0132739D01*
X0307463Y0131205D02*
X0310533Y0131205D01*
X0307463Y0131205D02*
X0306696Y0131972D01*
X0306696Y0133507D01*
X0307463Y0134274D01*
X0306696Y0135809D02*
X0311300Y0138878D01*
X0306696Y0138878D01*
X0308231Y0140412D02*
X0306696Y0141947D01*
X0308231Y0143482D01*
X0311300Y0143482D01*
X0311300Y0145016D02*
X0311300Y0148086D01*
X0311300Y0145016D02*
X0306696Y0145016D01*
X0308998Y0143482D02*
X0308998Y0140412D01*
X0308231Y0140412D02*
X0311300Y0140412D01*
X0311300Y0135809D02*
X0306696Y0135809D01*
X0276300Y0158235D02*
X0271696Y0158235D01*
X0271696Y0159769D02*
X0271696Y0156700D01*
X0271696Y0161304D02*
X0271696Y0163606D01*
X0272463Y0164373D01*
X0273998Y0164373D01*
X0274765Y0163606D01*
X0274765Y0161304D01*
X0274765Y0162839D02*
X0276300Y0164373D01*
X0275533Y0165908D02*
X0272463Y0165908D01*
X0271696Y0166675D01*
X0271696Y0168210D01*
X0272463Y0168977D01*
X0275533Y0168977D01*
X0276300Y0168210D01*
X0276300Y0166675D01*
X0275533Y0165908D01*
X0275533Y0170512D02*
X0272463Y0170512D01*
X0271696Y0171279D01*
X0271696Y0172814D01*
X0272463Y0173581D01*
X0271696Y0175116D02*
X0276300Y0175116D01*
X0274765Y0175116D02*
X0271696Y0178185D01*
X0271696Y0179720D02*
X0276300Y0179720D01*
X0276300Y0182789D01*
X0276300Y0184324D02*
X0271696Y0184324D01*
X0276300Y0187393D01*
X0271696Y0187393D01*
X0271696Y0182789D02*
X0271696Y0179720D01*
X0273998Y0179720D02*
X0273998Y0181254D01*
X0276300Y0178185D02*
X0273998Y0175883D01*
X0275533Y0173581D02*
X0276300Y0172814D01*
X0276300Y0171279D01*
X0275533Y0170512D01*
X0276300Y0161304D02*
X0271696Y0161304D01*
X0246300Y0161304D02*
X0246300Y0164373D01*
X0245533Y0165908D02*
X0241696Y0165908D01*
X0241696Y0164373D02*
X0241696Y0161304D01*
X0246300Y0161304D01*
X0243998Y0161304D02*
X0243998Y0162839D01*
X0245533Y0165908D02*
X0246300Y0166675D01*
X0246300Y0168210D01*
X0245533Y0168977D01*
X0241696Y0168977D01*
X0242463Y0170512D02*
X0245533Y0170512D01*
X0246300Y0171279D01*
X0246300Y0172814D01*
X0245533Y0173581D01*
X0246300Y0175116D02*
X0241696Y0175116D01*
X0242463Y0173581D02*
X0241696Y0172814D01*
X0241696Y0171279D01*
X0242463Y0170512D01*
X0243998Y0175116D02*
X0243998Y0178185D01*
X0241696Y0178185D02*
X0246300Y0178185D01*
X0246300Y0181254D02*
X0241696Y0181254D01*
X0241696Y0179720D02*
X0241696Y0182789D01*
X0216300Y0172814D02*
X0216300Y0171279D01*
X0215533Y0170512D01*
X0215533Y0168977D02*
X0216300Y0168210D01*
X0216300Y0166675D01*
X0215533Y0165908D01*
X0216300Y0164373D02*
X0213231Y0164373D01*
X0211696Y0162839D01*
X0213231Y0161304D01*
X0216300Y0161304D01*
X0216300Y0159769D02*
X0211696Y0159769D01*
X0213998Y0161304D02*
X0213998Y0164373D01*
X0213231Y0165908D02*
X0212463Y0165908D01*
X0211696Y0166675D01*
X0211696Y0168210D01*
X0212463Y0168977D01*
X0212463Y0170512D02*
X0213231Y0170512D01*
X0213998Y0171279D01*
X0213998Y0172814D01*
X0214765Y0173581D01*
X0215533Y0173581D01*
X0216300Y0172814D01*
X0212463Y0173581D02*
X0211696Y0172814D01*
X0211696Y0171279D01*
X0212463Y0170512D01*
X0213998Y0168210D02*
X0214765Y0168977D01*
X0215533Y0168977D01*
X0213998Y0168210D02*
X0213998Y0166675D01*
X0213231Y0165908D01*
X0216300Y0159769D02*
X0211696Y0156700D01*
X0216300Y0156700D01*
X0200858Y0161700D02*
X0200858Y0164002D01*
X0202393Y0165537D01*
X0202393Y0166304D01*
X0200858Y0164002D02*
X0199324Y0165537D01*
X0199324Y0166304D01*
X0197789Y0165537D02*
X0197789Y0164002D01*
X0197022Y0163235D01*
X0194720Y0163235D01*
X0196254Y0163235D02*
X0197789Y0161700D01*
X0194720Y0161700D02*
X0194720Y0166304D01*
X0197022Y0166304D01*
X0197789Y0165537D01*
X0193185Y0166304D02*
X0190116Y0166304D01*
X0190116Y0161700D01*
X0193185Y0161700D01*
X0191650Y0164002D02*
X0190116Y0164002D01*
X0188581Y0166304D02*
X0185512Y0166304D01*
X0187046Y0166304D02*
X0187046Y0161700D01*
X0182442Y0161700D02*
X0182442Y0166304D01*
X0180908Y0166304D02*
X0183977Y0166304D01*
X0179373Y0164769D02*
X0179373Y0161700D01*
X0179373Y0164002D02*
X0176304Y0164002D01*
X0176304Y0164769D02*
X0177839Y0166304D01*
X0179373Y0164769D01*
X0176304Y0164769D02*
X0176304Y0161700D01*
X0174769Y0162467D02*
X0174769Y0163235D01*
X0174002Y0164002D01*
X0171700Y0164002D01*
X0171700Y0161700D02*
X0171700Y0166304D01*
X0174002Y0166304D01*
X0174769Y0165537D01*
X0174769Y0164769D01*
X0174002Y0164002D01*
X0174769Y0162467D02*
X0174002Y0161700D01*
X0171700Y0161700D01*
X0241696Y0159769D02*
X0241696Y0156700D01*
X0246300Y0156700D01*
X0243998Y0156700D02*
X0243998Y0158235D01*
X0086501Y0180249D02*
X0085300Y0181450D01*
X0085300Y0180850D01*
X0084699Y0180850D01*
X0084699Y0181450D01*
X0085300Y0181450D01*
X0084699Y0182705D02*
X0085300Y0183305D01*
X0085300Y0184506D01*
X0084699Y0185107D01*
X0083498Y0185107D01*
X0082898Y0184506D01*
X0082898Y0183906D01*
X0083498Y0182705D01*
X0081697Y0182705D01*
X0081697Y0185107D01*
X0082898Y0186388D02*
X0082898Y0186989D01*
X0083498Y0187589D01*
X0082898Y0188190D01*
X0083498Y0188790D01*
X0085300Y0188790D01*
X0085300Y0187589D02*
X0083498Y0187589D01*
X0082898Y0186388D02*
X0085300Y0186388D01*
X0085300Y0190071D02*
X0082898Y0190071D01*
X0082898Y0190672D01*
X0083498Y0191272D01*
X0082898Y0191873D01*
X0083498Y0192473D01*
X0085300Y0192473D01*
X0085300Y0191272D02*
X0083498Y0191272D01*
X0082297Y0178968D02*
X0084699Y0176566D01*
X0085300Y0176566D01*
X0085300Y0175285D02*
X0085300Y0172883D01*
X0085300Y0174084D02*
X0081697Y0174084D01*
X0082898Y0172883D01*
X0082898Y0171602D02*
X0085300Y0171602D01*
X0083498Y0171602D02*
X0083498Y0169200D01*
X0082898Y0169200D02*
X0081697Y0170401D01*
X0082898Y0171602D01*
X0082898Y0169200D02*
X0085300Y0169200D01*
X0081697Y0176566D02*
X0081697Y0178968D01*
X0082297Y0178968D01*
D11*
X0082647Y0164812D02*
X0082647Y0162343D01*
X0082647Y0163577D02*
X0086350Y0163577D01*
X0085733Y0161128D02*
X0086350Y0160511D01*
X0086350Y0159277D01*
X0085733Y0158660D01*
X0086350Y0157439D02*
X0086350Y0156204D01*
X0086350Y0156821D02*
X0082647Y0156821D01*
X0082647Y0156204D02*
X0082647Y0157439D01*
X0083264Y0158660D02*
X0083881Y0158660D01*
X0084498Y0159277D01*
X0084498Y0160511D01*
X0085116Y0161128D01*
X0085733Y0161128D01*
X0083264Y0161128D02*
X0082647Y0160511D01*
X0082647Y0159277D01*
X0083264Y0158660D01*
X0083264Y0154990D02*
X0082647Y0154373D01*
X0082647Y0153138D01*
X0083264Y0152521D01*
X0085733Y0152521D01*
X0086350Y0153138D01*
X0086350Y0154373D01*
X0085733Y0154990D01*
X0083264Y0154990D01*
X0082647Y0151307D02*
X0086350Y0151307D01*
X0086350Y0148838D02*
X0082647Y0148838D01*
X0083881Y0150072D01*
X0082647Y0151307D01*
X0086967Y0147624D02*
X0086967Y0145155D01*
X0086350Y0143940D02*
X0086350Y0141472D01*
X0082647Y0141472D01*
X0082647Y0140251D02*
X0082647Y0139016D01*
X0082647Y0139633D02*
X0086350Y0139633D01*
X0086350Y0139016D02*
X0086350Y0140251D01*
X0085733Y0137802D02*
X0083264Y0137802D01*
X0082647Y0137185D01*
X0082647Y0135950D01*
X0083264Y0135333D01*
X0085733Y0135333D01*
X0086350Y0135950D01*
X0086350Y0137185D01*
X0085733Y0137802D01*
X0085733Y0134119D02*
X0086350Y0133502D01*
X0086350Y0132267D01*
X0085733Y0131650D01*
X0084498Y0132267D02*
X0084498Y0133502D01*
X0085116Y0134119D01*
X0085733Y0134119D01*
X0084498Y0132267D02*
X0083881Y0131650D01*
X0083264Y0131650D01*
X0082647Y0132267D01*
X0082647Y0133502D01*
X0083264Y0134119D01*
D12*
X0091500Y0134000D02*
X0094000Y0131500D01*
X0099000Y0131500D01*
X0101500Y0134000D01*
X0101500Y0139000D01*
X0099000Y0141500D01*
X0094000Y0141500D01*
X0091500Y0139000D01*
X0091500Y0134000D01*
X0094000Y0141500D02*
X0091500Y0144000D01*
X0091500Y0149000D01*
X0094000Y0151500D01*
X0091500Y0154000D01*
X0091500Y0159000D01*
X0094000Y0161500D01*
X0099000Y0161500D01*
X0101500Y0159000D01*
X0101500Y0154000D01*
X0099000Y0151500D01*
X0101500Y0149000D01*
X0101500Y0144000D01*
X0099000Y0141500D01*
X0099000Y0151500D02*
X0094000Y0151500D01*
X0072500Y0166000D02*
X0072500Y0169500D01*
X0066500Y0169500D01*
X0066500Y0166000D01*
X0059000Y0166000D01*
X0059000Y0207000D01*
X0066500Y0207000D01*
X0066500Y0203500D01*
X0072500Y0203500D01*
X0072500Y0207000D01*
X0121500Y0207000D01*
X0121500Y0166000D01*
X0072500Y0166000D01*
X0057000Y0165500D02*
X0053500Y0165500D01*
X0053500Y0171500D01*
X0057000Y0171500D01*
X0057000Y0179000D01*
X0016000Y0179000D01*
X0016000Y0171500D01*
X0019500Y0171500D01*
X0019500Y0165500D01*
X0016000Y0165500D01*
X0016000Y0116500D01*
X0057000Y0116500D01*
X0057000Y0165500D01*
X0029400Y0165500D02*
X0029402Y0165674D01*
X0029409Y0165848D01*
X0029419Y0166022D01*
X0029434Y0166196D01*
X0029453Y0166369D01*
X0029477Y0166542D01*
X0029505Y0166714D01*
X0029536Y0166885D01*
X0029573Y0167056D01*
X0029613Y0167225D01*
X0029657Y0167394D01*
X0029706Y0167561D01*
X0029758Y0167727D01*
X0029815Y0167892D01*
X0029876Y0168055D01*
X0029940Y0168217D01*
X0030009Y0168377D01*
X0030082Y0168536D01*
X0030158Y0168692D01*
X0030238Y0168847D01*
X0030322Y0169000D01*
X0030410Y0169150D01*
X0030502Y0169298D01*
X0030597Y0169445D01*
X0030695Y0169588D01*
X0030797Y0169729D01*
X0030903Y0169868D01*
X0031012Y0170004D01*
X0031124Y0170138D01*
X0031239Y0170268D01*
X0031358Y0170396D01*
X0031480Y0170520D01*
X0031604Y0170642D01*
X0031732Y0170761D01*
X0031862Y0170876D01*
X0031996Y0170988D01*
X0032132Y0171097D01*
X0032271Y0171203D01*
X0032412Y0171305D01*
X0032555Y0171403D01*
X0032702Y0171498D01*
X0032850Y0171590D01*
X0033000Y0171678D01*
X0033153Y0171762D01*
X0033308Y0171842D01*
X0033464Y0171918D01*
X0033623Y0171991D01*
X0033783Y0172060D01*
X0033945Y0172124D01*
X0034108Y0172185D01*
X0034273Y0172242D01*
X0034439Y0172294D01*
X0034606Y0172343D01*
X0034775Y0172387D01*
X0034944Y0172427D01*
X0035115Y0172464D01*
X0035286Y0172495D01*
X0035458Y0172523D01*
X0035631Y0172547D01*
X0035804Y0172566D01*
X0035978Y0172581D01*
X0036152Y0172591D01*
X0036326Y0172598D01*
X0036500Y0172600D01*
X0036674Y0172598D01*
X0036848Y0172591D01*
X0037022Y0172581D01*
X0037196Y0172566D01*
X0037369Y0172547D01*
X0037542Y0172523D01*
X0037714Y0172495D01*
X0037885Y0172464D01*
X0038056Y0172427D01*
X0038225Y0172387D01*
X0038394Y0172343D01*
X0038561Y0172294D01*
X0038727Y0172242D01*
X0038892Y0172185D01*
X0039055Y0172124D01*
X0039217Y0172060D01*
X0039377Y0171991D01*
X0039536Y0171918D01*
X0039692Y0171842D01*
X0039847Y0171762D01*
X0040000Y0171678D01*
X0040150Y0171590D01*
X0040298Y0171498D01*
X0040445Y0171403D01*
X0040588Y0171305D01*
X0040729Y0171203D01*
X0040868Y0171097D01*
X0041004Y0170988D01*
X0041138Y0170876D01*
X0041268Y0170761D01*
X0041396Y0170642D01*
X0041520Y0170520D01*
X0041642Y0170396D01*
X0041761Y0170268D01*
X0041876Y0170138D01*
X0041988Y0170004D01*
X0042097Y0169868D01*
X0042203Y0169729D01*
X0042305Y0169588D01*
X0042403Y0169445D01*
X0042498Y0169298D01*
X0042590Y0169150D01*
X0042678Y0169000D01*
X0042762Y0168847D01*
X0042842Y0168692D01*
X0042918Y0168536D01*
X0042991Y0168377D01*
X0043060Y0168217D01*
X0043124Y0168055D01*
X0043185Y0167892D01*
X0043242Y0167727D01*
X0043294Y0167561D01*
X0043343Y0167394D01*
X0043387Y0167225D01*
X0043427Y0167056D01*
X0043464Y0166885D01*
X0043495Y0166714D01*
X0043523Y0166542D01*
X0043547Y0166369D01*
X0043566Y0166196D01*
X0043581Y0166022D01*
X0043591Y0165848D01*
X0043598Y0165674D01*
X0043600Y0165500D01*
X0043598Y0165326D01*
X0043591Y0165152D01*
X0043581Y0164978D01*
X0043566Y0164804D01*
X0043547Y0164631D01*
X0043523Y0164458D01*
X0043495Y0164286D01*
X0043464Y0164115D01*
X0043427Y0163944D01*
X0043387Y0163775D01*
X0043343Y0163606D01*
X0043294Y0163439D01*
X0043242Y0163273D01*
X0043185Y0163108D01*
X0043124Y0162945D01*
X0043060Y0162783D01*
X0042991Y0162623D01*
X0042918Y0162464D01*
X0042842Y0162308D01*
X0042762Y0162153D01*
X0042678Y0162000D01*
X0042590Y0161850D01*
X0042498Y0161702D01*
X0042403Y0161555D01*
X0042305Y0161412D01*
X0042203Y0161271D01*
X0042097Y0161132D01*
X0041988Y0160996D01*
X0041876Y0160862D01*
X0041761Y0160732D01*
X0041642Y0160604D01*
X0041520Y0160480D01*
X0041396Y0160358D01*
X0041268Y0160239D01*
X0041138Y0160124D01*
X0041004Y0160012D01*
X0040868Y0159903D01*
X0040729Y0159797D01*
X0040588Y0159695D01*
X0040445Y0159597D01*
X0040298Y0159502D01*
X0040150Y0159410D01*
X0040000Y0159322D01*
X0039847Y0159238D01*
X0039692Y0159158D01*
X0039536Y0159082D01*
X0039377Y0159009D01*
X0039217Y0158940D01*
X0039055Y0158876D01*
X0038892Y0158815D01*
X0038727Y0158758D01*
X0038561Y0158706D01*
X0038394Y0158657D01*
X0038225Y0158613D01*
X0038056Y0158573D01*
X0037885Y0158536D01*
X0037714Y0158505D01*
X0037542Y0158477D01*
X0037369Y0158453D01*
X0037196Y0158434D01*
X0037022Y0158419D01*
X0036848Y0158409D01*
X0036674Y0158402D01*
X0036500Y0158400D01*
X0036326Y0158402D01*
X0036152Y0158409D01*
X0035978Y0158419D01*
X0035804Y0158434D01*
X0035631Y0158453D01*
X0035458Y0158477D01*
X0035286Y0158505D01*
X0035115Y0158536D01*
X0034944Y0158573D01*
X0034775Y0158613D01*
X0034606Y0158657D01*
X0034439Y0158706D01*
X0034273Y0158758D01*
X0034108Y0158815D01*
X0033945Y0158876D01*
X0033783Y0158940D01*
X0033623Y0159009D01*
X0033464Y0159082D01*
X0033308Y0159158D01*
X0033153Y0159238D01*
X0033000Y0159322D01*
X0032850Y0159410D01*
X0032702Y0159502D01*
X0032555Y0159597D01*
X0032412Y0159695D01*
X0032271Y0159797D01*
X0032132Y0159903D01*
X0031996Y0160012D01*
X0031862Y0160124D01*
X0031732Y0160239D01*
X0031604Y0160358D01*
X0031480Y0160480D01*
X0031358Y0160604D01*
X0031239Y0160732D01*
X0031124Y0160862D01*
X0031012Y0160996D01*
X0030903Y0161132D01*
X0030797Y0161271D01*
X0030695Y0161412D01*
X0030597Y0161555D01*
X0030502Y0161702D01*
X0030410Y0161850D01*
X0030322Y0162000D01*
X0030238Y0162153D01*
X0030158Y0162308D01*
X0030082Y0162464D01*
X0030009Y0162623D01*
X0029940Y0162783D01*
X0029876Y0162945D01*
X0029815Y0163108D01*
X0029758Y0163273D01*
X0029706Y0163439D01*
X0029657Y0163606D01*
X0029613Y0163775D01*
X0029573Y0163944D01*
X0029536Y0164115D01*
X0029505Y0164286D01*
X0029477Y0164458D01*
X0029453Y0164631D01*
X0029434Y0164804D01*
X0029419Y0164978D01*
X0029409Y0165152D01*
X0029402Y0165326D01*
X0029400Y0165500D01*
X0065400Y0186500D02*
X0065402Y0186674D01*
X0065409Y0186848D01*
X0065419Y0187022D01*
X0065434Y0187196D01*
X0065453Y0187369D01*
X0065477Y0187542D01*
X0065505Y0187714D01*
X0065536Y0187885D01*
X0065573Y0188056D01*
X0065613Y0188225D01*
X0065657Y0188394D01*
X0065706Y0188561D01*
X0065758Y0188727D01*
X0065815Y0188892D01*
X0065876Y0189055D01*
X0065940Y0189217D01*
X0066009Y0189377D01*
X0066082Y0189536D01*
X0066158Y0189692D01*
X0066238Y0189847D01*
X0066322Y0190000D01*
X0066410Y0190150D01*
X0066502Y0190298D01*
X0066597Y0190445D01*
X0066695Y0190588D01*
X0066797Y0190729D01*
X0066903Y0190868D01*
X0067012Y0191004D01*
X0067124Y0191138D01*
X0067239Y0191268D01*
X0067358Y0191396D01*
X0067480Y0191520D01*
X0067604Y0191642D01*
X0067732Y0191761D01*
X0067862Y0191876D01*
X0067996Y0191988D01*
X0068132Y0192097D01*
X0068271Y0192203D01*
X0068412Y0192305D01*
X0068555Y0192403D01*
X0068702Y0192498D01*
X0068850Y0192590D01*
X0069000Y0192678D01*
X0069153Y0192762D01*
X0069308Y0192842D01*
X0069464Y0192918D01*
X0069623Y0192991D01*
X0069783Y0193060D01*
X0069945Y0193124D01*
X0070108Y0193185D01*
X0070273Y0193242D01*
X0070439Y0193294D01*
X0070606Y0193343D01*
X0070775Y0193387D01*
X0070944Y0193427D01*
X0071115Y0193464D01*
X0071286Y0193495D01*
X0071458Y0193523D01*
X0071631Y0193547D01*
X0071804Y0193566D01*
X0071978Y0193581D01*
X0072152Y0193591D01*
X0072326Y0193598D01*
X0072500Y0193600D01*
X0072674Y0193598D01*
X0072848Y0193591D01*
X0073022Y0193581D01*
X0073196Y0193566D01*
X0073369Y0193547D01*
X0073542Y0193523D01*
X0073714Y0193495D01*
X0073885Y0193464D01*
X0074056Y0193427D01*
X0074225Y0193387D01*
X0074394Y0193343D01*
X0074561Y0193294D01*
X0074727Y0193242D01*
X0074892Y0193185D01*
X0075055Y0193124D01*
X0075217Y0193060D01*
X0075377Y0192991D01*
X0075536Y0192918D01*
X0075692Y0192842D01*
X0075847Y0192762D01*
X0076000Y0192678D01*
X0076150Y0192590D01*
X0076298Y0192498D01*
X0076445Y0192403D01*
X0076588Y0192305D01*
X0076729Y0192203D01*
X0076868Y0192097D01*
X0077004Y0191988D01*
X0077138Y0191876D01*
X0077268Y0191761D01*
X0077396Y0191642D01*
X0077520Y0191520D01*
X0077642Y0191396D01*
X0077761Y0191268D01*
X0077876Y0191138D01*
X0077988Y0191004D01*
X0078097Y0190868D01*
X0078203Y0190729D01*
X0078305Y0190588D01*
X0078403Y0190445D01*
X0078498Y0190298D01*
X0078590Y0190150D01*
X0078678Y0190000D01*
X0078762Y0189847D01*
X0078842Y0189692D01*
X0078918Y0189536D01*
X0078991Y0189377D01*
X0079060Y0189217D01*
X0079124Y0189055D01*
X0079185Y0188892D01*
X0079242Y0188727D01*
X0079294Y0188561D01*
X0079343Y0188394D01*
X0079387Y0188225D01*
X0079427Y0188056D01*
X0079464Y0187885D01*
X0079495Y0187714D01*
X0079523Y0187542D01*
X0079547Y0187369D01*
X0079566Y0187196D01*
X0079581Y0187022D01*
X0079591Y0186848D01*
X0079598Y0186674D01*
X0079600Y0186500D01*
X0079598Y0186326D01*
X0079591Y0186152D01*
X0079581Y0185978D01*
X0079566Y0185804D01*
X0079547Y0185631D01*
X0079523Y0185458D01*
X0079495Y0185286D01*
X0079464Y0185115D01*
X0079427Y0184944D01*
X0079387Y0184775D01*
X0079343Y0184606D01*
X0079294Y0184439D01*
X0079242Y0184273D01*
X0079185Y0184108D01*
X0079124Y0183945D01*
X0079060Y0183783D01*
X0078991Y0183623D01*
X0078918Y0183464D01*
X0078842Y0183308D01*
X0078762Y0183153D01*
X0078678Y0183000D01*
X0078590Y0182850D01*
X0078498Y0182702D01*
X0078403Y0182555D01*
X0078305Y0182412D01*
X0078203Y0182271D01*
X0078097Y0182132D01*
X0077988Y0181996D01*
X0077876Y0181862D01*
X0077761Y0181732D01*
X0077642Y0181604D01*
X0077520Y0181480D01*
X0077396Y0181358D01*
X0077268Y0181239D01*
X0077138Y0181124D01*
X0077004Y0181012D01*
X0076868Y0180903D01*
X0076729Y0180797D01*
X0076588Y0180695D01*
X0076445Y0180597D01*
X0076298Y0180502D01*
X0076150Y0180410D01*
X0076000Y0180322D01*
X0075847Y0180238D01*
X0075692Y0180158D01*
X0075536Y0180082D01*
X0075377Y0180009D01*
X0075217Y0179940D01*
X0075055Y0179876D01*
X0074892Y0179815D01*
X0074727Y0179758D01*
X0074561Y0179706D01*
X0074394Y0179657D01*
X0074225Y0179613D01*
X0074056Y0179573D01*
X0073885Y0179536D01*
X0073714Y0179505D01*
X0073542Y0179477D01*
X0073369Y0179453D01*
X0073196Y0179434D01*
X0073022Y0179419D01*
X0072848Y0179409D01*
X0072674Y0179402D01*
X0072500Y0179400D01*
X0072326Y0179402D01*
X0072152Y0179409D01*
X0071978Y0179419D01*
X0071804Y0179434D01*
X0071631Y0179453D01*
X0071458Y0179477D01*
X0071286Y0179505D01*
X0071115Y0179536D01*
X0070944Y0179573D01*
X0070775Y0179613D01*
X0070606Y0179657D01*
X0070439Y0179706D01*
X0070273Y0179758D01*
X0070108Y0179815D01*
X0069945Y0179876D01*
X0069783Y0179940D01*
X0069623Y0180009D01*
X0069464Y0180082D01*
X0069308Y0180158D01*
X0069153Y0180238D01*
X0069000Y0180322D01*
X0068850Y0180410D01*
X0068702Y0180502D01*
X0068555Y0180597D01*
X0068412Y0180695D01*
X0068271Y0180797D01*
X0068132Y0180903D01*
X0067996Y0181012D01*
X0067862Y0181124D01*
X0067732Y0181239D01*
X0067604Y0181358D01*
X0067480Y0181480D01*
X0067358Y0181604D01*
X0067239Y0181732D01*
X0067124Y0181862D01*
X0067012Y0181996D01*
X0066903Y0182132D01*
X0066797Y0182271D01*
X0066695Y0182412D01*
X0066597Y0182555D01*
X0066502Y0182702D01*
X0066410Y0182850D01*
X0066322Y0183000D01*
X0066238Y0183153D01*
X0066158Y0183308D01*
X0066082Y0183464D01*
X0066009Y0183623D01*
X0065940Y0183783D01*
X0065876Y0183945D01*
X0065815Y0184108D01*
X0065758Y0184273D01*
X0065706Y0184439D01*
X0065657Y0184606D01*
X0065613Y0184775D01*
X0065573Y0184944D01*
X0065536Y0185115D01*
X0065505Y0185286D01*
X0065477Y0185458D01*
X0065453Y0185631D01*
X0065434Y0185804D01*
X0065419Y0185978D01*
X0065409Y0186152D01*
X0065402Y0186326D01*
X0065400Y0186500D01*
X0120000Y0141500D02*
X0127500Y0141500D01*
X0127502Y0141374D01*
X0127508Y0141249D01*
X0127518Y0141124D01*
X0127532Y0140999D01*
X0127549Y0140874D01*
X0127571Y0140750D01*
X0127596Y0140627D01*
X0127626Y0140505D01*
X0127659Y0140384D01*
X0127696Y0140264D01*
X0127736Y0140145D01*
X0127781Y0140028D01*
X0127829Y0139911D01*
X0127881Y0139797D01*
X0127936Y0139684D01*
X0127995Y0139573D01*
X0128057Y0139464D01*
X0128123Y0139357D01*
X0128192Y0139252D01*
X0128264Y0139149D01*
X0128339Y0139048D01*
X0128418Y0138950D01*
X0128500Y0138855D01*
X0128584Y0138762D01*
X0128672Y0138672D01*
X0128762Y0138584D01*
X0128855Y0138500D01*
X0128950Y0138418D01*
X0129048Y0138339D01*
X0129149Y0138264D01*
X0129252Y0138192D01*
X0129357Y0138123D01*
X0129464Y0138057D01*
X0129573Y0137995D01*
X0129684Y0137936D01*
X0129797Y0137881D01*
X0129911Y0137829D01*
X0130028Y0137781D01*
X0130145Y0137736D01*
X0130264Y0137696D01*
X0130384Y0137659D01*
X0130505Y0137626D01*
X0130627Y0137596D01*
X0130750Y0137571D01*
X0130874Y0137549D01*
X0130999Y0137532D01*
X0131124Y0137518D01*
X0131249Y0137508D01*
X0131374Y0137502D01*
X0131500Y0137500D01*
X0131626Y0137502D01*
X0131751Y0137508D01*
X0131876Y0137518D01*
X0132001Y0137532D01*
X0132126Y0137549D01*
X0132250Y0137571D01*
X0132373Y0137596D01*
X0132495Y0137626D01*
X0132616Y0137659D01*
X0132736Y0137696D01*
X0132855Y0137736D01*
X0132972Y0137781D01*
X0133089Y0137829D01*
X0133203Y0137881D01*
X0133316Y0137936D01*
X0133427Y0137995D01*
X0133536Y0138057D01*
X0133643Y0138123D01*
X0133748Y0138192D01*
X0133851Y0138264D01*
X0133952Y0138339D01*
X0134050Y0138418D01*
X0134145Y0138500D01*
X0134238Y0138584D01*
X0134328Y0138672D01*
X0134416Y0138762D01*
X0134500Y0138855D01*
X0134582Y0138950D01*
X0134661Y0139048D01*
X0134736Y0139149D01*
X0134808Y0139252D01*
X0134877Y0139357D01*
X0134943Y0139464D01*
X0135005Y0139573D01*
X0135064Y0139684D01*
X0135119Y0139797D01*
X0135171Y0139911D01*
X0135219Y0140028D01*
X0135264Y0140145D01*
X0135304Y0140264D01*
X0135341Y0140384D01*
X0135374Y0140505D01*
X0135404Y0140627D01*
X0135429Y0140750D01*
X0135451Y0140874D01*
X0135468Y0140999D01*
X0135482Y0141124D01*
X0135492Y0141249D01*
X0135498Y0141374D01*
X0135500Y0141500D01*
X0143000Y0141500D01*
X0143000Y0071500D01*
X0120000Y0071500D01*
X0120000Y0141500D01*
X0135500Y0153000D02*
X0136500Y0153000D01*
X0137000Y0153500D01*
X0146000Y0153500D01*
X0146500Y0153000D01*
X0147500Y0153000D01*
X0147560Y0153002D01*
X0147621Y0153007D01*
X0147680Y0153016D01*
X0147739Y0153029D01*
X0147798Y0153045D01*
X0147855Y0153065D01*
X0147910Y0153088D01*
X0147965Y0153115D01*
X0148017Y0153144D01*
X0148068Y0153177D01*
X0148117Y0153213D01*
X0148163Y0153251D01*
X0148207Y0153293D01*
X0148249Y0153337D01*
X0148287Y0153383D01*
X0148323Y0153432D01*
X0148356Y0153483D01*
X0148385Y0153535D01*
X0148412Y0153590D01*
X0148435Y0153645D01*
X0148455Y0153702D01*
X0148471Y0153761D01*
X0148484Y0153820D01*
X0148493Y0153879D01*
X0148498Y0153940D01*
X0148500Y0154000D01*
X0148500Y0159000D02*
X0148498Y0159060D01*
X0148493Y0159121D01*
X0148484Y0159180D01*
X0148471Y0159239D01*
X0148455Y0159298D01*
X0148435Y0159355D01*
X0148412Y0159410D01*
X0148385Y0159465D01*
X0148356Y0159517D01*
X0148323Y0159568D01*
X0148287Y0159617D01*
X0148249Y0159663D01*
X0148207Y0159707D01*
X0148163Y0159749D01*
X0148117Y0159787D01*
X0148068Y0159823D01*
X0148017Y0159856D01*
X0147965Y0159885D01*
X0147910Y0159912D01*
X0147855Y0159935D01*
X0147798Y0159955D01*
X0147739Y0159971D01*
X0147680Y0159984D01*
X0147621Y0159993D01*
X0147560Y0159998D01*
X0147500Y0160000D01*
X0146500Y0160000D01*
X0146000Y0159500D01*
X0137000Y0159500D01*
X0136500Y0160000D01*
X0135500Y0160000D01*
X0135440Y0159998D01*
X0135379Y0159993D01*
X0135320Y0159984D01*
X0135261Y0159971D01*
X0135202Y0159955D01*
X0135145Y0159935D01*
X0135090Y0159912D01*
X0135035Y0159885D01*
X0134983Y0159856D01*
X0134932Y0159823D01*
X0134883Y0159787D01*
X0134837Y0159749D01*
X0134793Y0159707D01*
X0134751Y0159663D01*
X0134713Y0159617D01*
X0134677Y0159568D01*
X0134644Y0159517D01*
X0134615Y0159465D01*
X0134588Y0159410D01*
X0134565Y0159355D01*
X0134545Y0159298D01*
X0134529Y0159239D01*
X0134516Y0159180D01*
X0134507Y0159121D01*
X0134502Y0159060D01*
X0134500Y0159000D01*
X0134500Y0154000D02*
X0134502Y0153940D01*
X0134507Y0153879D01*
X0134516Y0153820D01*
X0134529Y0153761D01*
X0134545Y0153702D01*
X0134565Y0153645D01*
X0134588Y0153590D01*
X0134615Y0153535D01*
X0134644Y0153483D01*
X0134677Y0153432D01*
X0134713Y0153383D01*
X0134751Y0153337D01*
X0134793Y0153293D01*
X0134837Y0153251D01*
X0134883Y0153213D01*
X0134932Y0153177D01*
X0134983Y0153144D01*
X0135035Y0153115D01*
X0135090Y0153088D01*
X0135145Y0153065D01*
X0135202Y0153045D01*
X0135261Y0153029D01*
X0135320Y0153016D01*
X0135379Y0153007D01*
X0135440Y0153002D01*
X0135500Y0153000D01*
X0153000Y0181500D02*
X0170000Y0181500D01*
X0170060Y0181502D01*
X0170121Y0181507D01*
X0170180Y0181516D01*
X0170239Y0181529D01*
X0170298Y0181545D01*
X0170355Y0181565D01*
X0170410Y0181588D01*
X0170465Y0181615D01*
X0170517Y0181644D01*
X0170568Y0181677D01*
X0170617Y0181713D01*
X0170663Y0181751D01*
X0170707Y0181793D01*
X0170749Y0181837D01*
X0170787Y0181883D01*
X0170823Y0181932D01*
X0170856Y0181983D01*
X0170885Y0182035D01*
X0170912Y0182090D01*
X0170935Y0182145D01*
X0170955Y0182202D01*
X0170971Y0182261D01*
X0170984Y0182320D01*
X0170993Y0182379D01*
X0170998Y0182440D01*
X0171000Y0182500D01*
X0171000Y0190500D01*
X0170998Y0190560D01*
X0170993Y0190621D01*
X0170984Y0190680D01*
X0170971Y0190739D01*
X0170955Y0190798D01*
X0170935Y0190855D01*
X0170912Y0190910D01*
X0170885Y0190965D01*
X0170856Y0191017D01*
X0170823Y0191068D01*
X0170787Y0191117D01*
X0170749Y0191163D01*
X0170707Y0191207D01*
X0170663Y0191249D01*
X0170617Y0191287D01*
X0170568Y0191323D01*
X0170517Y0191356D01*
X0170465Y0191385D01*
X0170410Y0191412D01*
X0170355Y0191435D01*
X0170298Y0191455D01*
X0170239Y0191471D01*
X0170180Y0191484D01*
X0170121Y0191493D01*
X0170060Y0191498D01*
X0170000Y0191500D01*
X0153000Y0191500D01*
X0152940Y0191498D01*
X0152879Y0191493D01*
X0152820Y0191484D01*
X0152761Y0191471D01*
X0152702Y0191455D01*
X0152645Y0191435D01*
X0152590Y0191412D01*
X0152535Y0191385D01*
X0152483Y0191356D01*
X0152432Y0191323D01*
X0152383Y0191287D01*
X0152337Y0191249D01*
X0152293Y0191207D01*
X0152251Y0191163D01*
X0152213Y0191117D01*
X0152177Y0191068D01*
X0152144Y0191017D01*
X0152115Y0190965D01*
X0152088Y0190910D01*
X0152065Y0190855D01*
X0152045Y0190798D01*
X0152029Y0190739D01*
X0152016Y0190680D01*
X0152007Y0190621D01*
X0152002Y0190560D01*
X0152000Y0190500D01*
X0152000Y0182500D01*
X0152002Y0182440D01*
X0152007Y0182379D01*
X0152016Y0182320D01*
X0152029Y0182261D01*
X0152045Y0182202D01*
X0152065Y0182145D01*
X0152088Y0182090D01*
X0152115Y0182035D01*
X0152144Y0181983D01*
X0152177Y0181932D01*
X0152213Y0181883D01*
X0152251Y0181837D01*
X0152293Y0181793D01*
X0152337Y0181751D01*
X0152383Y0181713D01*
X0152432Y0181677D01*
X0152483Y0181644D01*
X0152535Y0181615D01*
X0152590Y0181588D01*
X0152645Y0181565D01*
X0152702Y0181545D01*
X0152761Y0181529D01*
X0152820Y0181516D01*
X0152879Y0181507D01*
X0152940Y0181502D01*
X0153000Y0181500D01*
X0160000Y0186500D02*
X0160500Y0186500D01*
X0162500Y0186500D02*
X0163000Y0186500D01*
X0175500Y0193000D02*
X0176500Y0193000D01*
X0177000Y0193500D01*
X0186000Y0193500D01*
X0186500Y0193000D01*
X0187500Y0193000D01*
X0187560Y0193002D01*
X0187621Y0193007D01*
X0187680Y0193016D01*
X0187739Y0193029D01*
X0187798Y0193045D01*
X0187855Y0193065D01*
X0187910Y0193088D01*
X0187965Y0193115D01*
X0188017Y0193144D01*
X0188068Y0193177D01*
X0188117Y0193213D01*
X0188163Y0193251D01*
X0188207Y0193293D01*
X0188249Y0193337D01*
X0188287Y0193383D01*
X0188323Y0193432D01*
X0188356Y0193483D01*
X0188385Y0193535D01*
X0188412Y0193590D01*
X0188435Y0193645D01*
X0188455Y0193702D01*
X0188471Y0193761D01*
X0188484Y0193820D01*
X0188493Y0193879D01*
X0188498Y0193940D01*
X0188500Y0194000D01*
X0188500Y0199000D02*
X0188498Y0199060D01*
X0188493Y0199121D01*
X0188484Y0199180D01*
X0188471Y0199239D01*
X0188455Y0199298D01*
X0188435Y0199355D01*
X0188412Y0199410D01*
X0188385Y0199465D01*
X0188356Y0199517D01*
X0188323Y0199568D01*
X0188287Y0199617D01*
X0188249Y0199663D01*
X0188207Y0199707D01*
X0188163Y0199749D01*
X0188117Y0199787D01*
X0188068Y0199823D01*
X0188017Y0199856D01*
X0187965Y0199885D01*
X0187910Y0199912D01*
X0187855Y0199935D01*
X0187798Y0199955D01*
X0187739Y0199971D01*
X0187680Y0199984D01*
X0187621Y0199993D01*
X0187560Y0199998D01*
X0187500Y0200000D01*
X0186500Y0200000D01*
X0186000Y0199500D01*
X0177000Y0199500D01*
X0176500Y0200000D01*
X0175500Y0200000D01*
X0175440Y0199998D01*
X0175379Y0199993D01*
X0175320Y0199984D01*
X0175261Y0199971D01*
X0175202Y0199955D01*
X0175145Y0199935D01*
X0175090Y0199912D01*
X0175035Y0199885D01*
X0174983Y0199856D01*
X0174932Y0199823D01*
X0174883Y0199787D01*
X0174837Y0199749D01*
X0174793Y0199707D01*
X0174751Y0199663D01*
X0174713Y0199617D01*
X0174677Y0199568D01*
X0174644Y0199517D01*
X0174615Y0199465D01*
X0174588Y0199410D01*
X0174565Y0199355D01*
X0174545Y0199298D01*
X0174529Y0199239D01*
X0174516Y0199180D01*
X0174507Y0199121D01*
X0174502Y0199060D01*
X0174500Y0199000D01*
X0174500Y0194000D02*
X0174502Y0193940D01*
X0174507Y0193879D01*
X0174516Y0193820D01*
X0174529Y0193761D01*
X0174545Y0193702D01*
X0174565Y0193645D01*
X0174588Y0193590D01*
X0174615Y0193535D01*
X0174644Y0193483D01*
X0174677Y0193432D01*
X0174713Y0193383D01*
X0174751Y0193337D01*
X0174793Y0193293D01*
X0174837Y0193251D01*
X0174883Y0193213D01*
X0174932Y0193177D01*
X0174983Y0193144D01*
X0175035Y0193115D01*
X0175090Y0193088D01*
X0175145Y0193065D01*
X0175202Y0193045D01*
X0175261Y0193029D01*
X0175320Y0193016D01*
X0175379Y0193007D01*
X0175440Y0193002D01*
X0175500Y0193000D01*
X0186500Y0182500D02*
X0186652Y0182498D01*
X0186803Y0182492D01*
X0186954Y0182483D01*
X0187106Y0182469D01*
X0187256Y0182452D01*
X0187406Y0182431D01*
X0187556Y0182406D01*
X0187705Y0182378D01*
X0187853Y0182345D01*
X0188000Y0182309D01*
X0188147Y0182270D01*
X0188292Y0182226D01*
X0188436Y0182179D01*
X0188579Y0182128D01*
X0188720Y0182074D01*
X0188861Y0182016D01*
X0188999Y0181955D01*
X0189136Y0181890D01*
X0189272Y0181821D01*
X0189405Y0181750D01*
X0189537Y0181675D01*
X0189667Y0181596D01*
X0189794Y0181515D01*
X0189920Y0181430D01*
X0190044Y0181342D01*
X0190165Y0181251D01*
X0190284Y0181157D01*
X0190400Y0181059D01*
X0190514Y0180959D01*
X0190626Y0180857D01*
X0190734Y0180751D01*
X0190840Y0180643D01*
X0190944Y0180532D01*
X0191044Y0180418D01*
X0191142Y0180302D01*
X0191236Y0180183D01*
X0186500Y0170500D02*
X0186346Y0170502D01*
X0186192Y0170508D01*
X0186038Y0170518D01*
X0185884Y0170532D01*
X0185731Y0170549D01*
X0185579Y0170571D01*
X0185427Y0170597D01*
X0185275Y0170626D01*
X0185125Y0170660D01*
X0184975Y0170697D01*
X0184827Y0170738D01*
X0184679Y0170783D01*
X0184533Y0170832D01*
X0184388Y0170884D01*
X0184245Y0170940D01*
X0184102Y0171000D01*
X0183962Y0171063D01*
X0183823Y0171130D01*
X0183686Y0171201D01*
X0183551Y0171275D01*
X0183418Y0171352D01*
X0183286Y0171433D01*
X0183157Y0171517D01*
X0183030Y0171605D01*
X0182906Y0171696D01*
X0182784Y0171789D01*
X0182664Y0171887D01*
X0182547Y0171987D01*
X0182432Y0172090D01*
X0182320Y0172196D01*
X0182211Y0172304D01*
X0182105Y0172416D01*
X0182001Y0172530D01*
X0181901Y0172647D01*
X0181803Y0172766D01*
X0181709Y0172888D01*
X0181618Y0173013D01*
X0186500Y0170500D02*
X0186650Y0170502D01*
X0186801Y0170508D01*
X0186951Y0170517D01*
X0187100Y0170530D01*
X0187250Y0170547D01*
X0187399Y0170568D01*
X0187547Y0170592D01*
X0187695Y0170620D01*
X0187842Y0170652D01*
X0187988Y0170687D01*
X0188133Y0170727D01*
X0188277Y0170769D01*
X0188420Y0170816D01*
X0188562Y0170866D01*
X0188703Y0170919D01*
X0188842Y0170976D01*
X0188980Y0171036D01*
X0189116Y0171100D01*
X0189250Y0171167D01*
X0189383Y0171238D01*
X0189514Y0171312D01*
X0189643Y0171389D01*
X0189770Y0171470D01*
X0189895Y0171553D01*
X0190018Y0171640D01*
X0190139Y0171729D01*
X0190257Y0171822D01*
X0190373Y0171918D01*
X0190487Y0172016D01*
X0190598Y0172117D01*
X0190707Y0172222D01*
X0190812Y0172328D01*
X0190916Y0172438D01*
X0191016Y0172550D01*
X0191114Y0172664D01*
X0191208Y0172781D01*
X0191300Y0172900D01*
X0186500Y0182500D02*
X0186348Y0182498D01*
X0186197Y0182492D01*
X0186046Y0182483D01*
X0185894Y0182469D01*
X0185744Y0182452D01*
X0185594Y0182431D01*
X0185444Y0182406D01*
X0185295Y0182378D01*
X0185147Y0182345D01*
X0185000Y0182309D01*
X0184853Y0182270D01*
X0184708Y0182226D01*
X0184564Y0182179D01*
X0184421Y0182128D01*
X0184280Y0182074D01*
X0184139Y0182016D01*
X0184001Y0181955D01*
X0183864Y0181890D01*
X0183728Y0181821D01*
X0183595Y0181750D01*
X0183463Y0181675D01*
X0183333Y0181596D01*
X0183206Y0181515D01*
X0183080Y0181430D01*
X0182956Y0181342D01*
X0182835Y0181251D01*
X0182716Y0181157D01*
X0182600Y0181059D01*
X0182486Y0180959D01*
X0182374Y0180857D01*
X0182266Y0180751D01*
X0182160Y0180643D01*
X0182056Y0180532D01*
X0181956Y0180418D01*
X0181858Y0180302D01*
X0181764Y0180183D01*
X0222500Y0141500D02*
X0222498Y0141348D01*
X0222492Y0141197D01*
X0222483Y0141046D01*
X0222469Y0140894D01*
X0222452Y0140744D01*
X0222431Y0140594D01*
X0222406Y0140444D01*
X0222378Y0140295D01*
X0222345Y0140147D01*
X0222309Y0140000D01*
X0222270Y0139853D01*
X0222226Y0139708D01*
X0222179Y0139564D01*
X0222128Y0139421D01*
X0222074Y0139280D01*
X0222016Y0139139D01*
X0221955Y0139001D01*
X0221890Y0138864D01*
X0221821Y0138728D01*
X0221750Y0138595D01*
X0221675Y0138463D01*
X0221596Y0138333D01*
X0221515Y0138206D01*
X0221430Y0138080D01*
X0221342Y0137956D01*
X0221251Y0137835D01*
X0221157Y0137716D01*
X0221059Y0137600D01*
X0220959Y0137486D01*
X0220857Y0137374D01*
X0220751Y0137266D01*
X0220643Y0137160D01*
X0220532Y0137056D01*
X0220418Y0136956D01*
X0220302Y0136858D01*
X0220183Y0136764D01*
X0210500Y0141500D02*
X0210502Y0141654D01*
X0210508Y0141808D01*
X0210518Y0141962D01*
X0210532Y0142116D01*
X0210549Y0142269D01*
X0210571Y0142421D01*
X0210597Y0142573D01*
X0210626Y0142725D01*
X0210660Y0142875D01*
X0210697Y0143025D01*
X0210738Y0143173D01*
X0210783Y0143321D01*
X0210832Y0143467D01*
X0210884Y0143612D01*
X0210940Y0143755D01*
X0211000Y0143898D01*
X0211063Y0144038D01*
X0211130Y0144177D01*
X0211201Y0144314D01*
X0211275Y0144449D01*
X0211352Y0144582D01*
X0211433Y0144714D01*
X0211517Y0144843D01*
X0211605Y0144970D01*
X0211696Y0145094D01*
X0211789Y0145216D01*
X0211887Y0145336D01*
X0211987Y0145453D01*
X0212090Y0145568D01*
X0212196Y0145680D01*
X0212304Y0145789D01*
X0212416Y0145895D01*
X0212530Y0145999D01*
X0212647Y0146099D01*
X0212766Y0146197D01*
X0212888Y0146291D01*
X0213013Y0146382D01*
X0210500Y0141500D02*
X0210502Y0141350D01*
X0210508Y0141199D01*
X0210517Y0141049D01*
X0210530Y0140900D01*
X0210547Y0140750D01*
X0210568Y0140601D01*
X0210592Y0140453D01*
X0210620Y0140305D01*
X0210652Y0140158D01*
X0210687Y0140012D01*
X0210727Y0139867D01*
X0210769Y0139723D01*
X0210816Y0139580D01*
X0210866Y0139438D01*
X0210919Y0139297D01*
X0210976Y0139158D01*
X0211036Y0139020D01*
X0211100Y0138884D01*
X0211167Y0138750D01*
X0211238Y0138617D01*
X0211312Y0138486D01*
X0211389Y0138357D01*
X0211470Y0138230D01*
X0211553Y0138105D01*
X0211640Y0137982D01*
X0211729Y0137861D01*
X0211822Y0137743D01*
X0211918Y0137627D01*
X0212016Y0137513D01*
X0212117Y0137402D01*
X0212222Y0137293D01*
X0212328Y0137188D01*
X0212438Y0137084D01*
X0212550Y0136984D01*
X0212664Y0136886D01*
X0212781Y0136792D01*
X0212900Y0136700D01*
X0222500Y0141500D02*
X0222498Y0141652D01*
X0222492Y0141803D01*
X0222483Y0141954D01*
X0222469Y0142106D01*
X0222452Y0142256D01*
X0222431Y0142406D01*
X0222406Y0142556D01*
X0222378Y0142705D01*
X0222345Y0142853D01*
X0222309Y0143000D01*
X0222270Y0143147D01*
X0222226Y0143292D01*
X0222179Y0143436D01*
X0222128Y0143579D01*
X0222074Y0143720D01*
X0222016Y0143861D01*
X0221955Y0143999D01*
X0221890Y0144136D01*
X0221821Y0144272D01*
X0221750Y0144405D01*
X0221675Y0144537D01*
X0221596Y0144667D01*
X0221515Y0144794D01*
X0221430Y0144920D01*
X0221342Y0145044D01*
X0221251Y0145165D01*
X0221157Y0145284D01*
X0221059Y0145400D01*
X0220959Y0145514D01*
X0220857Y0145626D01*
X0220751Y0145734D01*
X0220643Y0145840D01*
X0220532Y0145944D01*
X0220418Y0146044D01*
X0220302Y0146142D01*
X0220183Y0146236D01*
X0250183Y0136764D02*
X0250302Y0136858D01*
X0250418Y0136956D01*
X0250532Y0137056D01*
X0250643Y0137160D01*
X0250751Y0137266D01*
X0250857Y0137374D01*
X0250959Y0137486D01*
X0251059Y0137600D01*
X0251157Y0137716D01*
X0251251Y0137835D01*
X0251342Y0137956D01*
X0251430Y0138080D01*
X0251515Y0138206D01*
X0251596Y0138333D01*
X0251675Y0138463D01*
X0251750Y0138595D01*
X0251821Y0138728D01*
X0251890Y0138864D01*
X0251955Y0139001D01*
X0252016Y0139139D01*
X0252074Y0139280D01*
X0252128Y0139421D01*
X0252179Y0139564D01*
X0252226Y0139708D01*
X0252270Y0139853D01*
X0252309Y0140000D01*
X0252345Y0140147D01*
X0252378Y0140295D01*
X0252406Y0140444D01*
X0252431Y0140594D01*
X0252452Y0140744D01*
X0252469Y0140894D01*
X0252483Y0141046D01*
X0252492Y0141197D01*
X0252498Y0141348D01*
X0252500Y0141500D01*
X0242900Y0136700D02*
X0242781Y0136792D01*
X0242664Y0136886D01*
X0242550Y0136984D01*
X0242438Y0137084D01*
X0242328Y0137188D01*
X0242222Y0137293D01*
X0242117Y0137402D01*
X0242016Y0137513D01*
X0241918Y0137627D01*
X0241822Y0137743D01*
X0241729Y0137861D01*
X0241640Y0137982D01*
X0241553Y0138105D01*
X0241470Y0138230D01*
X0241389Y0138357D01*
X0241312Y0138486D01*
X0241238Y0138617D01*
X0241167Y0138750D01*
X0241100Y0138884D01*
X0241036Y0139020D01*
X0240976Y0139158D01*
X0240919Y0139297D01*
X0240866Y0139438D01*
X0240816Y0139580D01*
X0240769Y0139723D01*
X0240727Y0139867D01*
X0240687Y0140012D01*
X0240652Y0140158D01*
X0240620Y0140305D01*
X0240592Y0140453D01*
X0240568Y0140601D01*
X0240547Y0140750D01*
X0240530Y0140900D01*
X0240517Y0141049D01*
X0240508Y0141199D01*
X0240502Y0141350D01*
X0240500Y0141500D01*
X0250183Y0146236D02*
X0250302Y0146142D01*
X0250418Y0146044D01*
X0250532Y0145944D01*
X0250643Y0145840D01*
X0250751Y0145734D01*
X0250857Y0145626D01*
X0250959Y0145514D01*
X0251059Y0145400D01*
X0251157Y0145284D01*
X0251251Y0145165D01*
X0251342Y0145044D01*
X0251430Y0144920D01*
X0251515Y0144794D01*
X0251596Y0144667D01*
X0251675Y0144537D01*
X0251750Y0144405D01*
X0251821Y0144272D01*
X0251890Y0144136D01*
X0251955Y0143999D01*
X0252016Y0143861D01*
X0252074Y0143720D01*
X0252128Y0143579D01*
X0252179Y0143436D01*
X0252226Y0143292D01*
X0252270Y0143147D01*
X0252309Y0143000D01*
X0252345Y0142853D01*
X0252378Y0142705D01*
X0252406Y0142556D01*
X0252431Y0142406D01*
X0252452Y0142256D01*
X0252469Y0142106D01*
X0252483Y0141954D01*
X0252492Y0141803D01*
X0252498Y0141652D01*
X0252500Y0141500D01*
X0243013Y0146382D02*
X0242888Y0146291D01*
X0242766Y0146197D01*
X0242647Y0146099D01*
X0242530Y0145999D01*
X0242416Y0145895D01*
X0242304Y0145789D01*
X0242196Y0145680D01*
X0242090Y0145568D01*
X0241987Y0145453D01*
X0241887Y0145336D01*
X0241789Y0145216D01*
X0241696Y0145094D01*
X0241605Y0144970D01*
X0241517Y0144843D01*
X0241433Y0144714D01*
X0241352Y0144582D01*
X0241275Y0144449D01*
X0241201Y0144314D01*
X0241130Y0144177D01*
X0241063Y0144038D01*
X0241000Y0143898D01*
X0240940Y0143755D01*
X0240884Y0143612D01*
X0240832Y0143467D01*
X0240783Y0143321D01*
X0240738Y0143173D01*
X0240697Y0143025D01*
X0240660Y0142875D01*
X0240626Y0142725D01*
X0240597Y0142573D01*
X0240571Y0142421D01*
X0240549Y0142269D01*
X0240532Y0142116D01*
X0240518Y0141962D01*
X0240508Y0141808D01*
X0240502Y0141654D01*
X0240500Y0141500D01*
X0252500Y0121500D02*
X0252498Y0121348D01*
X0252492Y0121197D01*
X0252483Y0121046D01*
X0252469Y0120894D01*
X0252452Y0120744D01*
X0252431Y0120594D01*
X0252406Y0120444D01*
X0252378Y0120295D01*
X0252345Y0120147D01*
X0252309Y0120000D01*
X0252270Y0119853D01*
X0252226Y0119708D01*
X0252179Y0119564D01*
X0252128Y0119421D01*
X0252074Y0119280D01*
X0252016Y0119139D01*
X0251955Y0119001D01*
X0251890Y0118864D01*
X0251821Y0118728D01*
X0251750Y0118595D01*
X0251675Y0118463D01*
X0251596Y0118333D01*
X0251515Y0118206D01*
X0251430Y0118080D01*
X0251342Y0117956D01*
X0251251Y0117835D01*
X0251157Y0117716D01*
X0251059Y0117600D01*
X0250959Y0117486D01*
X0250857Y0117374D01*
X0250751Y0117266D01*
X0250643Y0117160D01*
X0250532Y0117056D01*
X0250418Y0116956D01*
X0250302Y0116858D01*
X0250183Y0116764D01*
X0240500Y0121500D02*
X0240502Y0121654D01*
X0240508Y0121808D01*
X0240518Y0121962D01*
X0240532Y0122116D01*
X0240549Y0122269D01*
X0240571Y0122421D01*
X0240597Y0122573D01*
X0240626Y0122725D01*
X0240660Y0122875D01*
X0240697Y0123025D01*
X0240738Y0123173D01*
X0240783Y0123321D01*
X0240832Y0123467D01*
X0240884Y0123612D01*
X0240940Y0123755D01*
X0241000Y0123898D01*
X0241063Y0124038D01*
X0241130Y0124177D01*
X0241201Y0124314D01*
X0241275Y0124449D01*
X0241352Y0124582D01*
X0241433Y0124714D01*
X0241517Y0124843D01*
X0241605Y0124970D01*
X0241696Y0125094D01*
X0241789Y0125216D01*
X0241887Y0125336D01*
X0241987Y0125453D01*
X0242090Y0125568D01*
X0242196Y0125680D01*
X0242304Y0125789D01*
X0242416Y0125895D01*
X0242530Y0125999D01*
X0242647Y0126099D01*
X0242766Y0126197D01*
X0242888Y0126291D01*
X0243013Y0126382D01*
X0240500Y0121500D02*
X0240502Y0121350D01*
X0240508Y0121199D01*
X0240517Y0121049D01*
X0240530Y0120900D01*
X0240547Y0120750D01*
X0240568Y0120601D01*
X0240592Y0120453D01*
X0240620Y0120305D01*
X0240652Y0120158D01*
X0240687Y0120012D01*
X0240727Y0119867D01*
X0240769Y0119723D01*
X0240816Y0119580D01*
X0240866Y0119438D01*
X0240919Y0119297D01*
X0240976Y0119158D01*
X0241036Y0119020D01*
X0241100Y0118884D01*
X0241167Y0118750D01*
X0241238Y0118617D01*
X0241312Y0118486D01*
X0241389Y0118357D01*
X0241470Y0118230D01*
X0241553Y0118105D01*
X0241640Y0117982D01*
X0241729Y0117861D01*
X0241822Y0117743D01*
X0241918Y0117627D01*
X0242016Y0117513D01*
X0242117Y0117402D01*
X0242222Y0117293D01*
X0242328Y0117188D01*
X0242438Y0117084D01*
X0242550Y0116984D01*
X0242664Y0116886D01*
X0242781Y0116792D01*
X0242900Y0116700D01*
X0252500Y0121500D02*
X0252498Y0121652D01*
X0252492Y0121803D01*
X0252483Y0121954D01*
X0252469Y0122106D01*
X0252452Y0122256D01*
X0252431Y0122406D01*
X0252406Y0122556D01*
X0252378Y0122705D01*
X0252345Y0122853D01*
X0252309Y0123000D01*
X0252270Y0123147D01*
X0252226Y0123292D01*
X0252179Y0123436D01*
X0252128Y0123579D01*
X0252074Y0123720D01*
X0252016Y0123861D01*
X0251955Y0123999D01*
X0251890Y0124136D01*
X0251821Y0124272D01*
X0251750Y0124405D01*
X0251675Y0124537D01*
X0251596Y0124667D01*
X0251515Y0124794D01*
X0251430Y0124920D01*
X0251342Y0125044D01*
X0251251Y0125165D01*
X0251157Y0125284D01*
X0251059Y0125400D01*
X0250959Y0125514D01*
X0250857Y0125626D01*
X0250751Y0125734D01*
X0250643Y0125840D01*
X0250532Y0125944D01*
X0250418Y0126044D01*
X0250302Y0126142D01*
X0250183Y0126236D01*
X0280183Y0116764D02*
X0280302Y0116858D01*
X0280418Y0116956D01*
X0280532Y0117056D01*
X0280643Y0117160D01*
X0280751Y0117266D01*
X0280857Y0117374D01*
X0280959Y0117486D01*
X0281059Y0117600D01*
X0281157Y0117716D01*
X0281251Y0117835D01*
X0281342Y0117956D01*
X0281430Y0118080D01*
X0281515Y0118206D01*
X0281596Y0118333D01*
X0281675Y0118463D01*
X0281750Y0118595D01*
X0281821Y0118728D01*
X0281890Y0118864D01*
X0281955Y0119001D01*
X0282016Y0119139D01*
X0282074Y0119280D01*
X0282128Y0119421D01*
X0282179Y0119564D01*
X0282226Y0119708D01*
X0282270Y0119853D01*
X0282309Y0120000D01*
X0282345Y0120147D01*
X0282378Y0120295D01*
X0282406Y0120444D01*
X0282431Y0120594D01*
X0282452Y0120744D01*
X0282469Y0120894D01*
X0282483Y0121046D01*
X0282492Y0121197D01*
X0282498Y0121348D01*
X0282500Y0121500D01*
X0272900Y0116700D02*
X0272781Y0116792D01*
X0272664Y0116886D01*
X0272550Y0116984D01*
X0272438Y0117084D01*
X0272328Y0117188D01*
X0272222Y0117293D01*
X0272117Y0117402D01*
X0272016Y0117513D01*
X0271918Y0117627D01*
X0271822Y0117743D01*
X0271729Y0117861D01*
X0271640Y0117982D01*
X0271553Y0118105D01*
X0271470Y0118230D01*
X0271389Y0118357D01*
X0271312Y0118486D01*
X0271238Y0118617D01*
X0271167Y0118750D01*
X0271100Y0118884D01*
X0271036Y0119020D01*
X0270976Y0119158D01*
X0270919Y0119297D01*
X0270866Y0119438D01*
X0270816Y0119580D01*
X0270769Y0119723D01*
X0270727Y0119867D01*
X0270687Y0120012D01*
X0270652Y0120158D01*
X0270620Y0120305D01*
X0270592Y0120453D01*
X0270568Y0120601D01*
X0270547Y0120750D01*
X0270530Y0120900D01*
X0270517Y0121049D01*
X0270508Y0121199D01*
X0270502Y0121350D01*
X0270500Y0121500D01*
X0280183Y0126236D02*
X0280302Y0126142D01*
X0280418Y0126044D01*
X0280532Y0125944D01*
X0280643Y0125840D01*
X0280751Y0125734D01*
X0280857Y0125626D01*
X0280959Y0125514D01*
X0281059Y0125400D01*
X0281157Y0125284D01*
X0281251Y0125165D01*
X0281342Y0125044D01*
X0281430Y0124920D01*
X0281515Y0124794D01*
X0281596Y0124667D01*
X0281675Y0124537D01*
X0281750Y0124405D01*
X0281821Y0124272D01*
X0281890Y0124136D01*
X0281955Y0123999D01*
X0282016Y0123861D01*
X0282074Y0123720D01*
X0282128Y0123579D01*
X0282179Y0123436D01*
X0282226Y0123292D01*
X0282270Y0123147D01*
X0282309Y0123000D01*
X0282345Y0122853D01*
X0282378Y0122705D01*
X0282406Y0122556D01*
X0282431Y0122406D01*
X0282452Y0122256D01*
X0282469Y0122106D01*
X0282483Y0121954D01*
X0282492Y0121803D01*
X0282498Y0121652D01*
X0282500Y0121500D01*
X0273013Y0126382D02*
X0272888Y0126291D01*
X0272766Y0126197D01*
X0272647Y0126099D01*
X0272530Y0125999D01*
X0272416Y0125895D01*
X0272304Y0125789D01*
X0272196Y0125680D01*
X0272090Y0125568D01*
X0271987Y0125453D01*
X0271887Y0125336D01*
X0271789Y0125216D01*
X0271696Y0125094D01*
X0271605Y0124970D01*
X0271517Y0124843D01*
X0271433Y0124714D01*
X0271352Y0124582D01*
X0271275Y0124449D01*
X0271201Y0124314D01*
X0271130Y0124177D01*
X0271063Y0124038D01*
X0271000Y0123898D01*
X0270940Y0123755D01*
X0270884Y0123612D01*
X0270832Y0123467D01*
X0270783Y0123321D01*
X0270738Y0123173D01*
X0270697Y0123025D01*
X0270660Y0122875D01*
X0270626Y0122725D01*
X0270597Y0122573D01*
X0270571Y0122421D01*
X0270549Y0122269D01*
X0270532Y0122116D01*
X0270518Y0121962D01*
X0270508Y0121808D01*
X0270502Y0121654D01*
X0270500Y0121500D01*
X0270500Y0105000D02*
X0271500Y0105000D01*
X0272000Y0104500D01*
X0281000Y0104500D01*
X0281500Y0105000D01*
X0282500Y0105000D01*
X0282560Y0104998D01*
X0282621Y0104993D01*
X0282680Y0104984D01*
X0282739Y0104971D01*
X0282798Y0104955D01*
X0282855Y0104935D01*
X0282910Y0104912D01*
X0282965Y0104885D01*
X0283017Y0104856D01*
X0283068Y0104823D01*
X0283117Y0104787D01*
X0283163Y0104749D01*
X0283207Y0104707D01*
X0283249Y0104663D01*
X0283287Y0104617D01*
X0283323Y0104568D01*
X0283356Y0104517D01*
X0283385Y0104465D01*
X0283412Y0104410D01*
X0283435Y0104355D01*
X0283455Y0104298D01*
X0283471Y0104239D01*
X0283484Y0104180D01*
X0283493Y0104121D01*
X0283498Y0104060D01*
X0283500Y0104000D01*
X0283500Y0099000D02*
X0283498Y0098940D01*
X0283493Y0098879D01*
X0283484Y0098820D01*
X0283471Y0098761D01*
X0283455Y0098702D01*
X0283435Y0098645D01*
X0283412Y0098590D01*
X0283385Y0098535D01*
X0283356Y0098483D01*
X0283323Y0098432D01*
X0283287Y0098383D01*
X0283249Y0098337D01*
X0283207Y0098293D01*
X0283163Y0098251D01*
X0283117Y0098213D01*
X0283068Y0098177D01*
X0283017Y0098144D01*
X0282965Y0098115D01*
X0282910Y0098088D01*
X0282855Y0098065D01*
X0282798Y0098045D01*
X0282739Y0098029D01*
X0282680Y0098016D01*
X0282621Y0098007D01*
X0282560Y0098002D01*
X0282500Y0098000D01*
X0281500Y0098000D01*
X0281000Y0098500D01*
X0272000Y0098500D01*
X0271500Y0098000D01*
X0270500Y0098000D01*
X0270440Y0098002D01*
X0270379Y0098007D01*
X0270320Y0098016D01*
X0270261Y0098029D01*
X0270202Y0098045D01*
X0270145Y0098065D01*
X0270090Y0098088D01*
X0270035Y0098115D01*
X0269983Y0098144D01*
X0269932Y0098177D01*
X0269883Y0098213D01*
X0269837Y0098251D01*
X0269793Y0098293D01*
X0269751Y0098337D01*
X0269713Y0098383D01*
X0269677Y0098432D01*
X0269644Y0098483D01*
X0269615Y0098535D01*
X0269588Y0098590D01*
X0269565Y0098645D01*
X0269545Y0098702D01*
X0269529Y0098761D01*
X0269516Y0098820D01*
X0269507Y0098879D01*
X0269502Y0098940D01*
X0269500Y0099000D01*
X0269500Y0104000D02*
X0269502Y0104060D01*
X0269507Y0104121D01*
X0269516Y0104180D01*
X0269529Y0104239D01*
X0269545Y0104298D01*
X0269565Y0104355D01*
X0269588Y0104410D01*
X0269615Y0104465D01*
X0269644Y0104517D01*
X0269677Y0104568D01*
X0269713Y0104617D01*
X0269751Y0104663D01*
X0269793Y0104707D01*
X0269837Y0104749D01*
X0269883Y0104787D01*
X0269932Y0104823D01*
X0269983Y0104856D01*
X0270035Y0104885D01*
X0270090Y0104912D01*
X0270145Y0104935D01*
X0270202Y0104955D01*
X0270261Y0104971D01*
X0270320Y0104984D01*
X0270379Y0104993D01*
X0270440Y0104998D01*
X0270500Y0105000D01*
X0252500Y0105000D02*
X0251500Y0105000D01*
X0251000Y0104500D01*
X0242000Y0104500D01*
X0241500Y0105000D01*
X0240500Y0105000D01*
X0240440Y0104998D01*
X0240379Y0104993D01*
X0240320Y0104984D01*
X0240261Y0104971D01*
X0240202Y0104955D01*
X0240145Y0104935D01*
X0240090Y0104912D01*
X0240035Y0104885D01*
X0239983Y0104856D01*
X0239932Y0104823D01*
X0239883Y0104787D01*
X0239837Y0104749D01*
X0239793Y0104707D01*
X0239751Y0104663D01*
X0239713Y0104617D01*
X0239677Y0104568D01*
X0239644Y0104517D01*
X0239615Y0104465D01*
X0239588Y0104410D01*
X0239565Y0104355D01*
X0239545Y0104298D01*
X0239529Y0104239D01*
X0239516Y0104180D01*
X0239507Y0104121D01*
X0239502Y0104060D01*
X0239500Y0104000D01*
X0239500Y0099000D02*
X0239502Y0098940D01*
X0239507Y0098879D01*
X0239516Y0098820D01*
X0239529Y0098761D01*
X0239545Y0098702D01*
X0239565Y0098645D01*
X0239588Y0098590D01*
X0239615Y0098535D01*
X0239644Y0098483D01*
X0239677Y0098432D01*
X0239713Y0098383D01*
X0239751Y0098337D01*
X0239793Y0098293D01*
X0239837Y0098251D01*
X0239883Y0098213D01*
X0239932Y0098177D01*
X0239983Y0098144D01*
X0240035Y0098115D01*
X0240090Y0098088D01*
X0240145Y0098065D01*
X0240202Y0098045D01*
X0240261Y0098029D01*
X0240320Y0098016D01*
X0240379Y0098007D01*
X0240440Y0098002D01*
X0240500Y0098000D01*
X0241500Y0098000D01*
X0242000Y0098500D01*
X0251000Y0098500D01*
X0251500Y0098000D01*
X0252500Y0098000D01*
X0252560Y0098002D01*
X0252621Y0098007D01*
X0252680Y0098016D01*
X0252739Y0098029D01*
X0252798Y0098045D01*
X0252855Y0098065D01*
X0252910Y0098088D01*
X0252965Y0098115D01*
X0253017Y0098144D01*
X0253068Y0098177D01*
X0253117Y0098213D01*
X0253163Y0098251D01*
X0253207Y0098293D01*
X0253249Y0098337D01*
X0253287Y0098383D01*
X0253323Y0098432D01*
X0253356Y0098483D01*
X0253385Y0098535D01*
X0253412Y0098590D01*
X0253435Y0098645D01*
X0253455Y0098702D01*
X0253471Y0098761D01*
X0253484Y0098820D01*
X0253493Y0098879D01*
X0253498Y0098940D01*
X0253500Y0099000D01*
X0253500Y0104000D02*
X0253498Y0104060D01*
X0253493Y0104121D01*
X0253484Y0104180D01*
X0253471Y0104239D01*
X0253455Y0104298D01*
X0253435Y0104355D01*
X0253412Y0104410D01*
X0253385Y0104465D01*
X0253356Y0104517D01*
X0253323Y0104568D01*
X0253287Y0104617D01*
X0253249Y0104663D01*
X0253207Y0104707D01*
X0253163Y0104749D01*
X0253117Y0104787D01*
X0253068Y0104823D01*
X0253017Y0104856D01*
X0252965Y0104885D01*
X0252910Y0104912D01*
X0252855Y0104935D01*
X0252798Y0104955D01*
X0252739Y0104971D01*
X0252680Y0104984D01*
X0252621Y0104993D01*
X0252560Y0104998D01*
X0252500Y0105000D01*
X0252500Y0085000D02*
X0251500Y0085000D01*
X0251000Y0084500D01*
X0242000Y0084500D01*
X0241500Y0085000D01*
X0240500Y0085000D01*
X0240440Y0084998D01*
X0240379Y0084993D01*
X0240320Y0084984D01*
X0240261Y0084971D01*
X0240202Y0084955D01*
X0240145Y0084935D01*
X0240090Y0084912D01*
X0240035Y0084885D01*
X0239983Y0084856D01*
X0239932Y0084823D01*
X0239883Y0084787D01*
X0239837Y0084749D01*
X0239793Y0084707D01*
X0239751Y0084663D01*
X0239713Y0084617D01*
X0239677Y0084568D01*
X0239644Y0084517D01*
X0239615Y0084465D01*
X0239588Y0084410D01*
X0239565Y0084355D01*
X0239545Y0084298D01*
X0239529Y0084239D01*
X0239516Y0084180D01*
X0239507Y0084121D01*
X0239502Y0084060D01*
X0239500Y0084000D01*
X0239500Y0079000D02*
X0239502Y0078940D01*
X0239507Y0078879D01*
X0239516Y0078820D01*
X0239529Y0078761D01*
X0239545Y0078702D01*
X0239565Y0078645D01*
X0239588Y0078590D01*
X0239615Y0078535D01*
X0239644Y0078483D01*
X0239677Y0078432D01*
X0239713Y0078383D01*
X0239751Y0078337D01*
X0239793Y0078293D01*
X0239837Y0078251D01*
X0239883Y0078213D01*
X0239932Y0078177D01*
X0239983Y0078144D01*
X0240035Y0078115D01*
X0240090Y0078088D01*
X0240145Y0078065D01*
X0240202Y0078045D01*
X0240261Y0078029D01*
X0240320Y0078016D01*
X0240379Y0078007D01*
X0240440Y0078002D01*
X0240500Y0078000D01*
X0241500Y0078000D01*
X0242000Y0078500D01*
X0251000Y0078500D01*
X0251500Y0078000D01*
X0252500Y0078000D01*
X0252560Y0078002D01*
X0252621Y0078007D01*
X0252680Y0078016D01*
X0252739Y0078029D01*
X0252798Y0078045D01*
X0252855Y0078065D01*
X0252910Y0078088D01*
X0252965Y0078115D01*
X0253017Y0078144D01*
X0253068Y0078177D01*
X0253117Y0078213D01*
X0253163Y0078251D01*
X0253207Y0078293D01*
X0253249Y0078337D01*
X0253287Y0078383D01*
X0253323Y0078432D01*
X0253356Y0078483D01*
X0253385Y0078535D01*
X0253412Y0078590D01*
X0253435Y0078645D01*
X0253455Y0078702D01*
X0253471Y0078761D01*
X0253484Y0078820D01*
X0253493Y0078879D01*
X0253498Y0078940D01*
X0253500Y0079000D01*
X0253500Y0084000D02*
X0253498Y0084060D01*
X0253493Y0084121D01*
X0253484Y0084180D01*
X0253471Y0084239D01*
X0253455Y0084298D01*
X0253435Y0084355D01*
X0253412Y0084410D01*
X0253385Y0084465D01*
X0253356Y0084517D01*
X0253323Y0084568D01*
X0253287Y0084617D01*
X0253249Y0084663D01*
X0253207Y0084707D01*
X0253163Y0084749D01*
X0253117Y0084787D01*
X0253068Y0084823D01*
X0253017Y0084856D01*
X0252965Y0084885D01*
X0252910Y0084912D01*
X0252855Y0084935D01*
X0252798Y0084955D01*
X0252739Y0084971D01*
X0252680Y0084984D01*
X0252621Y0084993D01*
X0252560Y0084998D01*
X0252500Y0085000D01*
X0270500Y0085000D02*
X0271500Y0085000D01*
X0272000Y0084500D01*
X0281000Y0084500D01*
X0281500Y0085000D01*
X0282500Y0085000D01*
X0282560Y0084998D01*
X0282621Y0084993D01*
X0282680Y0084984D01*
X0282739Y0084971D01*
X0282798Y0084955D01*
X0282855Y0084935D01*
X0282910Y0084912D01*
X0282965Y0084885D01*
X0283017Y0084856D01*
X0283068Y0084823D01*
X0283117Y0084787D01*
X0283163Y0084749D01*
X0283207Y0084707D01*
X0283249Y0084663D01*
X0283287Y0084617D01*
X0283323Y0084568D01*
X0283356Y0084517D01*
X0283385Y0084465D01*
X0283412Y0084410D01*
X0283435Y0084355D01*
X0283455Y0084298D01*
X0283471Y0084239D01*
X0283484Y0084180D01*
X0283493Y0084121D01*
X0283498Y0084060D01*
X0283500Y0084000D01*
X0283500Y0079000D02*
X0283498Y0078940D01*
X0283493Y0078879D01*
X0283484Y0078820D01*
X0283471Y0078761D01*
X0283455Y0078702D01*
X0283435Y0078645D01*
X0283412Y0078590D01*
X0283385Y0078535D01*
X0283356Y0078483D01*
X0283323Y0078432D01*
X0283287Y0078383D01*
X0283249Y0078337D01*
X0283207Y0078293D01*
X0283163Y0078251D01*
X0283117Y0078213D01*
X0283068Y0078177D01*
X0283017Y0078144D01*
X0282965Y0078115D01*
X0282910Y0078088D01*
X0282855Y0078065D01*
X0282798Y0078045D01*
X0282739Y0078029D01*
X0282680Y0078016D01*
X0282621Y0078007D01*
X0282560Y0078002D01*
X0282500Y0078000D01*
X0281500Y0078000D01*
X0281000Y0078500D01*
X0272000Y0078500D01*
X0271500Y0078000D01*
X0270500Y0078000D01*
X0270440Y0078002D01*
X0270379Y0078007D01*
X0270320Y0078016D01*
X0270261Y0078029D01*
X0270202Y0078045D01*
X0270145Y0078065D01*
X0270090Y0078088D01*
X0270035Y0078115D01*
X0269983Y0078144D01*
X0269932Y0078177D01*
X0269883Y0078213D01*
X0269837Y0078251D01*
X0269793Y0078293D01*
X0269751Y0078337D01*
X0269713Y0078383D01*
X0269677Y0078432D01*
X0269644Y0078483D01*
X0269615Y0078535D01*
X0269588Y0078590D01*
X0269565Y0078645D01*
X0269545Y0078702D01*
X0269529Y0078761D01*
X0269516Y0078820D01*
X0269507Y0078879D01*
X0269502Y0078940D01*
X0269500Y0079000D01*
X0269500Y0084000D02*
X0269502Y0084060D01*
X0269507Y0084121D01*
X0269516Y0084180D01*
X0269529Y0084239D01*
X0269545Y0084298D01*
X0269565Y0084355D01*
X0269588Y0084410D01*
X0269615Y0084465D01*
X0269644Y0084517D01*
X0269677Y0084568D01*
X0269713Y0084617D01*
X0269751Y0084663D01*
X0269793Y0084707D01*
X0269837Y0084749D01*
X0269883Y0084787D01*
X0269932Y0084823D01*
X0269983Y0084856D01*
X0270035Y0084885D01*
X0270090Y0084912D01*
X0270145Y0084935D01*
X0270202Y0084955D01*
X0270261Y0084971D01*
X0270320Y0084984D01*
X0270379Y0084993D01*
X0270440Y0084998D01*
X0270500Y0085000D01*
X0306500Y0079000D02*
X0306500Y0074000D01*
X0309000Y0071500D01*
X0314000Y0071500D01*
X0316500Y0074000D01*
X0316500Y0079000D01*
X0314000Y0081500D01*
X0309000Y0081500D01*
X0306500Y0079000D01*
X0318000Y0072500D02*
X0318000Y0071500D01*
X0318500Y0071000D01*
X0318500Y0062000D01*
X0318000Y0061500D01*
X0318000Y0060500D01*
X0318002Y0060440D01*
X0318007Y0060379D01*
X0318016Y0060320D01*
X0318029Y0060261D01*
X0318045Y0060202D01*
X0318065Y0060145D01*
X0318088Y0060090D01*
X0318115Y0060035D01*
X0318144Y0059983D01*
X0318177Y0059932D01*
X0318213Y0059883D01*
X0318251Y0059837D01*
X0318293Y0059793D01*
X0318337Y0059751D01*
X0318383Y0059713D01*
X0318432Y0059677D01*
X0318483Y0059644D01*
X0318535Y0059615D01*
X0318590Y0059588D01*
X0318645Y0059565D01*
X0318702Y0059545D01*
X0318761Y0059529D01*
X0318820Y0059516D01*
X0318879Y0059507D01*
X0318940Y0059502D01*
X0319000Y0059500D01*
X0324000Y0059500D02*
X0324060Y0059502D01*
X0324121Y0059507D01*
X0324180Y0059516D01*
X0324239Y0059529D01*
X0324298Y0059545D01*
X0324355Y0059565D01*
X0324410Y0059588D01*
X0324465Y0059615D01*
X0324517Y0059644D01*
X0324568Y0059677D01*
X0324617Y0059713D01*
X0324663Y0059751D01*
X0324707Y0059793D01*
X0324749Y0059837D01*
X0324787Y0059883D01*
X0324823Y0059932D01*
X0324856Y0059983D01*
X0324885Y0060035D01*
X0324912Y0060090D01*
X0324935Y0060145D01*
X0324955Y0060202D01*
X0324971Y0060261D01*
X0324984Y0060320D01*
X0324993Y0060379D01*
X0324998Y0060440D01*
X0325000Y0060500D01*
X0325000Y0061500D01*
X0324500Y0062000D01*
X0324500Y0071000D01*
X0325000Y0071500D01*
X0325000Y0072500D01*
X0324998Y0072560D01*
X0324993Y0072621D01*
X0324984Y0072680D01*
X0324971Y0072739D01*
X0324955Y0072798D01*
X0324935Y0072855D01*
X0324912Y0072910D01*
X0324885Y0072965D01*
X0324856Y0073017D01*
X0324823Y0073068D01*
X0324787Y0073117D01*
X0324749Y0073163D01*
X0324707Y0073207D01*
X0324663Y0073249D01*
X0324617Y0073287D01*
X0324568Y0073323D01*
X0324517Y0073356D01*
X0324465Y0073385D01*
X0324410Y0073412D01*
X0324355Y0073435D01*
X0324298Y0073455D01*
X0324239Y0073471D01*
X0324180Y0073484D01*
X0324121Y0073493D01*
X0324060Y0073498D01*
X0324000Y0073500D01*
X0319000Y0073500D02*
X0318940Y0073498D01*
X0318879Y0073493D01*
X0318820Y0073484D01*
X0318761Y0073471D01*
X0318702Y0073455D01*
X0318645Y0073435D01*
X0318590Y0073412D01*
X0318535Y0073385D01*
X0318483Y0073356D01*
X0318432Y0073323D01*
X0318383Y0073287D01*
X0318337Y0073249D01*
X0318293Y0073207D01*
X0318251Y0073163D01*
X0318213Y0073117D01*
X0318177Y0073068D01*
X0318144Y0073017D01*
X0318115Y0072965D01*
X0318088Y0072910D01*
X0318065Y0072855D01*
X0318045Y0072798D01*
X0318029Y0072739D01*
X0318016Y0072680D01*
X0318007Y0072621D01*
X0318002Y0072560D01*
X0318000Y0072500D01*
X0270500Y0141500D02*
X0270502Y0141654D01*
X0270508Y0141808D01*
X0270518Y0141962D01*
X0270532Y0142116D01*
X0270549Y0142269D01*
X0270571Y0142421D01*
X0270597Y0142573D01*
X0270626Y0142725D01*
X0270660Y0142875D01*
X0270697Y0143025D01*
X0270738Y0143173D01*
X0270783Y0143321D01*
X0270832Y0143467D01*
X0270884Y0143612D01*
X0270940Y0143755D01*
X0271000Y0143898D01*
X0271063Y0144038D01*
X0271130Y0144177D01*
X0271201Y0144314D01*
X0271275Y0144449D01*
X0271352Y0144582D01*
X0271433Y0144714D01*
X0271517Y0144843D01*
X0271605Y0144970D01*
X0271696Y0145094D01*
X0271789Y0145216D01*
X0271887Y0145336D01*
X0271987Y0145453D01*
X0272090Y0145568D01*
X0272196Y0145680D01*
X0272304Y0145789D01*
X0272416Y0145895D01*
X0272530Y0145999D01*
X0272647Y0146099D01*
X0272766Y0146197D01*
X0272888Y0146291D01*
X0273013Y0146382D01*
X0282500Y0141500D02*
X0282498Y0141348D01*
X0282492Y0141197D01*
X0282483Y0141046D01*
X0282469Y0140894D01*
X0282452Y0140744D01*
X0282431Y0140594D01*
X0282406Y0140444D01*
X0282378Y0140295D01*
X0282345Y0140147D01*
X0282309Y0140000D01*
X0282270Y0139853D01*
X0282226Y0139708D01*
X0282179Y0139564D01*
X0282128Y0139421D01*
X0282074Y0139280D01*
X0282016Y0139139D01*
X0281955Y0139001D01*
X0281890Y0138864D01*
X0281821Y0138728D01*
X0281750Y0138595D01*
X0281675Y0138463D01*
X0281596Y0138333D01*
X0281515Y0138206D01*
X0281430Y0138080D01*
X0281342Y0137956D01*
X0281251Y0137835D01*
X0281157Y0137716D01*
X0281059Y0137600D01*
X0280959Y0137486D01*
X0280857Y0137374D01*
X0280751Y0137266D01*
X0280643Y0137160D01*
X0280532Y0137056D01*
X0280418Y0136956D01*
X0280302Y0136858D01*
X0280183Y0136764D01*
X0282500Y0141500D02*
X0282498Y0141652D01*
X0282492Y0141803D01*
X0282483Y0141954D01*
X0282469Y0142106D01*
X0282452Y0142256D01*
X0282431Y0142406D01*
X0282406Y0142556D01*
X0282378Y0142705D01*
X0282345Y0142853D01*
X0282309Y0143000D01*
X0282270Y0143147D01*
X0282226Y0143292D01*
X0282179Y0143436D01*
X0282128Y0143579D01*
X0282074Y0143720D01*
X0282016Y0143861D01*
X0281955Y0143999D01*
X0281890Y0144136D01*
X0281821Y0144272D01*
X0281750Y0144405D01*
X0281675Y0144537D01*
X0281596Y0144667D01*
X0281515Y0144794D01*
X0281430Y0144920D01*
X0281342Y0145044D01*
X0281251Y0145165D01*
X0281157Y0145284D01*
X0281059Y0145400D01*
X0280959Y0145514D01*
X0280857Y0145626D01*
X0280751Y0145734D01*
X0280643Y0145840D01*
X0280532Y0145944D01*
X0280418Y0146044D01*
X0280302Y0146142D01*
X0280183Y0146236D01*
X0270500Y0141500D02*
X0270502Y0141350D01*
X0270508Y0141199D01*
X0270517Y0141049D01*
X0270530Y0140900D01*
X0270547Y0140750D01*
X0270568Y0140601D01*
X0270592Y0140453D01*
X0270620Y0140305D01*
X0270652Y0140158D01*
X0270687Y0140012D01*
X0270727Y0139867D01*
X0270769Y0139723D01*
X0270816Y0139580D01*
X0270866Y0139438D01*
X0270919Y0139297D01*
X0270976Y0139158D01*
X0271036Y0139020D01*
X0271100Y0138884D01*
X0271167Y0138750D01*
X0271238Y0138617D01*
X0271312Y0138486D01*
X0271389Y0138357D01*
X0271470Y0138230D01*
X0271553Y0138105D01*
X0271640Y0137982D01*
X0271729Y0137861D01*
X0271822Y0137743D01*
X0271918Y0137627D01*
X0272016Y0137513D01*
X0272117Y0137402D01*
X0272222Y0137293D01*
X0272328Y0137188D01*
X0272438Y0137084D01*
X0272550Y0136984D01*
X0272664Y0136886D01*
X0272781Y0136792D01*
X0272900Y0136700D01*
X0222500Y0105000D02*
X0221500Y0105000D01*
X0221000Y0104500D01*
X0212000Y0104500D01*
X0211500Y0105000D01*
X0210500Y0105000D01*
X0210440Y0104998D01*
X0210379Y0104993D01*
X0210320Y0104984D01*
X0210261Y0104971D01*
X0210202Y0104955D01*
X0210145Y0104935D01*
X0210090Y0104912D01*
X0210035Y0104885D01*
X0209983Y0104856D01*
X0209932Y0104823D01*
X0209883Y0104787D01*
X0209837Y0104749D01*
X0209793Y0104707D01*
X0209751Y0104663D01*
X0209713Y0104617D01*
X0209677Y0104568D01*
X0209644Y0104517D01*
X0209615Y0104465D01*
X0209588Y0104410D01*
X0209565Y0104355D01*
X0209545Y0104298D01*
X0209529Y0104239D01*
X0209516Y0104180D01*
X0209507Y0104121D01*
X0209502Y0104060D01*
X0209500Y0104000D01*
X0209500Y0099000D02*
X0209502Y0098940D01*
X0209507Y0098879D01*
X0209516Y0098820D01*
X0209529Y0098761D01*
X0209545Y0098702D01*
X0209565Y0098645D01*
X0209588Y0098590D01*
X0209615Y0098535D01*
X0209644Y0098483D01*
X0209677Y0098432D01*
X0209713Y0098383D01*
X0209751Y0098337D01*
X0209793Y0098293D01*
X0209837Y0098251D01*
X0209883Y0098213D01*
X0209932Y0098177D01*
X0209983Y0098144D01*
X0210035Y0098115D01*
X0210090Y0098088D01*
X0210145Y0098065D01*
X0210202Y0098045D01*
X0210261Y0098029D01*
X0210320Y0098016D01*
X0210379Y0098007D01*
X0210440Y0098002D01*
X0210500Y0098000D01*
X0211500Y0098000D01*
X0212000Y0098500D01*
X0221000Y0098500D01*
X0221500Y0098000D01*
X0222500Y0098000D01*
X0222560Y0098002D01*
X0222621Y0098007D01*
X0222680Y0098016D01*
X0222739Y0098029D01*
X0222798Y0098045D01*
X0222855Y0098065D01*
X0222910Y0098088D01*
X0222965Y0098115D01*
X0223017Y0098144D01*
X0223068Y0098177D01*
X0223117Y0098213D01*
X0223163Y0098251D01*
X0223207Y0098293D01*
X0223249Y0098337D01*
X0223287Y0098383D01*
X0223323Y0098432D01*
X0223356Y0098483D01*
X0223385Y0098535D01*
X0223412Y0098590D01*
X0223435Y0098645D01*
X0223455Y0098702D01*
X0223471Y0098761D01*
X0223484Y0098820D01*
X0223493Y0098879D01*
X0223498Y0098940D01*
X0223500Y0099000D01*
X0223500Y0104000D02*
X0223498Y0104060D01*
X0223493Y0104121D01*
X0223484Y0104180D01*
X0223471Y0104239D01*
X0223455Y0104298D01*
X0223435Y0104355D01*
X0223412Y0104410D01*
X0223385Y0104465D01*
X0223356Y0104517D01*
X0223323Y0104568D01*
X0223287Y0104617D01*
X0223249Y0104663D01*
X0223207Y0104707D01*
X0223163Y0104749D01*
X0223117Y0104787D01*
X0223068Y0104823D01*
X0223017Y0104856D01*
X0222965Y0104885D01*
X0222910Y0104912D01*
X0222855Y0104935D01*
X0222798Y0104955D01*
X0222739Y0104971D01*
X0222680Y0104984D01*
X0222621Y0104993D01*
X0222560Y0104998D01*
X0222500Y0105000D01*
X0210500Y0121500D02*
X0210502Y0121654D01*
X0210508Y0121808D01*
X0210518Y0121962D01*
X0210532Y0122116D01*
X0210549Y0122269D01*
X0210571Y0122421D01*
X0210597Y0122573D01*
X0210626Y0122725D01*
X0210660Y0122875D01*
X0210697Y0123025D01*
X0210738Y0123173D01*
X0210783Y0123321D01*
X0210832Y0123467D01*
X0210884Y0123612D01*
X0210940Y0123755D01*
X0211000Y0123898D01*
X0211063Y0124038D01*
X0211130Y0124177D01*
X0211201Y0124314D01*
X0211275Y0124449D01*
X0211352Y0124582D01*
X0211433Y0124714D01*
X0211517Y0124843D01*
X0211605Y0124970D01*
X0211696Y0125094D01*
X0211789Y0125216D01*
X0211887Y0125336D01*
X0211987Y0125453D01*
X0212090Y0125568D01*
X0212196Y0125680D01*
X0212304Y0125789D01*
X0212416Y0125895D01*
X0212530Y0125999D01*
X0212647Y0126099D01*
X0212766Y0126197D01*
X0212888Y0126291D01*
X0213013Y0126382D01*
X0222500Y0121500D02*
X0222498Y0121348D01*
X0222492Y0121197D01*
X0222483Y0121046D01*
X0222469Y0120894D01*
X0222452Y0120744D01*
X0222431Y0120594D01*
X0222406Y0120444D01*
X0222378Y0120295D01*
X0222345Y0120147D01*
X0222309Y0120000D01*
X0222270Y0119853D01*
X0222226Y0119708D01*
X0222179Y0119564D01*
X0222128Y0119421D01*
X0222074Y0119280D01*
X0222016Y0119139D01*
X0221955Y0119001D01*
X0221890Y0118864D01*
X0221821Y0118728D01*
X0221750Y0118595D01*
X0221675Y0118463D01*
X0221596Y0118333D01*
X0221515Y0118206D01*
X0221430Y0118080D01*
X0221342Y0117956D01*
X0221251Y0117835D01*
X0221157Y0117716D01*
X0221059Y0117600D01*
X0220959Y0117486D01*
X0220857Y0117374D01*
X0220751Y0117266D01*
X0220643Y0117160D01*
X0220532Y0117056D01*
X0220418Y0116956D01*
X0220302Y0116858D01*
X0220183Y0116764D01*
X0222500Y0121500D02*
X0222498Y0121652D01*
X0222492Y0121803D01*
X0222483Y0121954D01*
X0222469Y0122106D01*
X0222452Y0122256D01*
X0222431Y0122406D01*
X0222406Y0122556D01*
X0222378Y0122705D01*
X0222345Y0122853D01*
X0222309Y0123000D01*
X0222270Y0123147D01*
X0222226Y0123292D01*
X0222179Y0123436D01*
X0222128Y0123579D01*
X0222074Y0123720D01*
X0222016Y0123861D01*
X0221955Y0123999D01*
X0221890Y0124136D01*
X0221821Y0124272D01*
X0221750Y0124405D01*
X0221675Y0124537D01*
X0221596Y0124667D01*
X0221515Y0124794D01*
X0221430Y0124920D01*
X0221342Y0125044D01*
X0221251Y0125165D01*
X0221157Y0125284D01*
X0221059Y0125400D01*
X0220959Y0125514D01*
X0220857Y0125626D01*
X0220751Y0125734D01*
X0220643Y0125840D01*
X0220532Y0125944D01*
X0220418Y0126044D01*
X0220302Y0126142D01*
X0220183Y0126236D01*
X0210500Y0121500D02*
X0210502Y0121350D01*
X0210508Y0121199D01*
X0210517Y0121049D01*
X0210530Y0120900D01*
X0210547Y0120750D01*
X0210568Y0120601D01*
X0210592Y0120453D01*
X0210620Y0120305D01*
X0210652Y0120158D01*
X0210687Y0120012D01*
X0210727Y0119867D01*
X0210769Y0119723D01*
X0210816Y0119580D01*
X0210866Y0119438D01*
X0210919Y0119297D01*
X0210976Y0119158D01*
X0211036Y0119020D01*
X0211100Y0118884D01*
X0211167Y0118750D01*
X0211238Y0118617D01*
X0211312Y0118486D01*
X0211389Y0118357D01*
X0211470Y0118230D01*
X0211553Y0118105D01*
X0211640Y0117982D01*
X0211729Y0117861D01*
X0211822Y0117743D01*
X0211918Y0117627D01*
X0212016Y0117513D01*
X0212117Y0117402D01*
X0212222Y0117293D01*
X0212328Y0117188D01*
X0212438Y0117084D01*
X0212550Y0116984D01*
X0212664Y0116886D01*
X0212781Y0116792D01*
X0212900Y0116700D01*
X0175000Y0112500D02*
X0175000Y0111500D01*
X0174500Y0111000D01*
X0174500Y0102000D01*
X0175000Y0101500D01*
X0175000Y0100500D01*
X0174998Y0100440D01*
X0174993Y0100379D01*
X0174984Y0100320D01*
X0174971Y0100261D01*
X0174955Y0100202D01*
X0174935Y0100145D01*
X0174912Y0100090D01*
X0174885Y0100035D01*
X0174856Y0099983D01*
X0174823Y0099932D01*
X0174787Y0099883D01*
X0174749Y0099837D01*
X0174707Y0099793D01*
X0174663Y0099751D01*
X0174617Y0099713D01*
X0174568Y0099677D01*
X0174517Y0099644D01*
X0174465Y0099615D01*
X0174410Y0099588D01*
X0174355Y0099565D01*
X0174298Y0099545D01*
X0174239Y0099529D01*
X0174180Y0099516D01*
X0174121Y0099507D01*
X0174060Y0099502D01*
X0174000Y0099500D01*
X0169000Y0099500D02*
X0168940Y0099502D01*
X0168879Y0099507D01*
X0168820Y0099516D01*
X0168761Y0099529D01*
X0168702Y0099545D01*
X0168645Y0099565D01*
X0168590Y0099588D01*
X0168535Y0099615D01*
X0168483Y0099644D01*
X0168432Y0099677D01*
X0168383Y0099713D01*
X0168337Y0099751D01*
X0168293Y0099793D01*
X0168251Y0099837D01*
X0168213Y0099883D01*
X0168177Y0099932D01*
X0168144Y0099983D01*
X0168115Y0100035D01*
X0168088Y0100090D01*
X0168065Y0100145D01*
X0168045Y0100202D01*
X0168029Y0100261D01*
X0168016Y0100320D01*
X0168007Y0100379D01*
X0168002Y0100440D01*
X0168000Y0100500D01*
X0168000Y0101500D01*
X0168500Y0102000D01*
X0168500Y0111000D01*
X0168000Y0111500D01*
X0168000Y0112500D01*
X0168002Y0112560D01*
X0168007Y0112621D01*
X0168016Y0112680D01*
X0168029Y0112739D01*
X0168045Y0112798D01*
X0168065Y0112855D01*
X0168088Y0112910D01*
X0168115Y0112965D01*
X0168144Y0113017D01*
X0168177Y0113068D01*
X0168213Y0113117D01*
X0168251Y0113163D01*
X0168293Y0113207D01*
X0168337Y0113249D01*
X0168383Y0113287D01*
X0168432Y0113323D01*
X0168483Y0113356D01*
X0168535Y0113385D01*
X0168590Y0113412D01*
X0168645Y0113435D01*
X0168702Y0113455D01*
X0168761Y0113471D01*
X0168820Y0113484D01*
X0168879Y0113493D01*
X0168940Y0113498D01*
X0169000Y0113500D01*
X0174000Y0113500D02*
X0174060Y0113498D01*
X0174121Y0113493D01*
X0174180Y0113484D01*
X0174239Y0113471D01*
X0174298Y0113455D01*
X0174355Y0113435D01*
X0174410Y0113412D01*
X0174465Y0113385D01*
X0174517Y0113356D01*
X0174568Y0113323D01*
X0174617Y0113287D01*
X0174663Y0113249D01*
X0174707Y0113207D01*
X0174749Y0113163D01*
X0174787Y0113117D01*
X0174823Y0113068D01*
X0174856Y0113017D01*
X0174885Y0112965D01*
X0174912Y0112910D01*
X0174935Y0112855D01*
X0174955Y0112798D01*
X0174971Y0112739D01*
X0174984Y0112680D01*
X0174993Y0112621D01*
X0174998Y0112560D01*
X0175000Y0112500D01*
X0165000Y0112500D02*
X0165000Y0111500D01*
X0164500Y0111000D01*
X0164500Y0102000D01*
X0165000Y0101500D01*
X0165000Y0100500D01*
X0164998Y0100440D01*
X0164993Y0100379D01*
X0164984Y0100320D01*
X0164971Y0100261D01*
X0164955Y0100202D01*
X0164935Y0100145D01*
X0164912Y0100090D01*
X0164885Y0100035D01*
X0164856Y0099983D01*
X0164823Y0099932D01*
X0164787Y0099883D01*
X0164749Y0099837D01*
X0164707Y0099793D01*
X0164663Y0099751D01*
X0164617Y0099713D01*
X0164568Y0099677D01*
X0164517Y0099644D01*
X0164465Y0099615D01*
X0164410Y0099588D01*
X0164355Y0099565D01*
X0164298Y0099545D01*
X0164239Y0099529D01*
X0164180Y0099516D01*
X0164121Y0099507D01*
X0164060Y0099502D01*
X0164000Y0099500D01*
X0159000Y0099500D02*
X0158940Y0099502D01*
X0158879Y0099507D01*
X0158820Y0099516D01*
X0158761Y0099529D01*
X0158702Y0099545D01*
X0158645Y0099565D01*
X0158590Y0099588D01*
X0158535Y0099615D01*
X0158483Y0099644D01*
X0158432Y0099677D01*
X0158383Y0099713D01*
X0158337Y0099751D01*
X0158293Y0099793D01*
X0158251Y0099837D01*
X0158213Y0099883D01*
X0158177Y0099932D01*
X0158144Y0099983D01*
X0158115Y0100035D01*
X0158088Y0100090D01*
X0158065Y0100145D01*
X0158045Y0100202D01*
X0158029Y0100261D01*
X0158016Y0100320D01*
X0158007Y0100379D01*
X0158002Y0100440D01*
X0158000Y0100500D01*
X0158000Y0101500D01*
X0158500Y0102000D01*
X0158500Y0111000D01*
X0158000Y0111500D01*
X0158000Y0112500D01*
X0158002Y0112560D01*
X0158007Y0112621D01*
X0158016Y0112680D01*
X0158029Y0112739D01*
X0158045Y0112798D01*
X0158065Y0112855D01*
X0158088Y0112910D01*
X0158115Y0112965D01*
X0158144Y0113017D01*
X0158177Y0113068D01*
X0158213Y0113117D01*
X0158251Y0113163D01*
X0158293Y0113207D01*
X0158337Y0113249D01*
X0158383Y0113287D01*
X0158432Y0113323D01*
X0158483Y0113356D01*
X0158535Y0113385D01*
X0158590Y0113412D01*
X0158645Y0113435D01*
X0158702Y0113455D01*
X0158761Y0113471D01*
X0158820Y0113484D01*
X0158879Y0113493D01*
X0158940Y0113498D01*
X0159000Y0113500D01*
X0164000Y0113500D02*
X0164060Y0113498D01*
X0164121Y0113493D01*
X0164180Y0113484D01*
X0164239Y0113471D01*
X0164298Y0113455D01*
X0164355Y0113435D01*
X0164410Y0113412D01*
X0164465Y0113385D01*
X0164517Y0113356D01*
X0164568Y0113323D01*
X0164617Y0113287D01*
X0164663Y0113249D01*
X0164707Y0113207D01*
X0164749Y0113163D01*
X0164787Y0113117D01*
X0164823Y0113068D01*
X0164856Y0113017D01*
X0164885Y0112965D01*
X0164912Y0112910D01*
X0164935Y0112855D01*
X0164955Y0112798D01*
X0164971Y0112739D01*
X0164984Y0112680D01*
X0164993Y0112621D01*
X0164998Y0112560D01*
X0165000Y0112500D01*
X0210500Y0085000D02*
X0211500Y0085000D01*
X0212000Y0084500D01*
X0221000Y0084500D01*
X0221500Y0085000D01*
X0222500Y0085000D01*
X0222560Y0084998D01*
X0222621Y0084993D01*
X0222680Y0084984D01*
X0222739Y0084971D01*
X0222798Y0084955D01*
X0222855Y0084935D01*
X0222910Y0084912D01*
X0222965Y0084885D01*
X0223017Y0084856D01*
X0223068Y0084823D01*
X0223117Y0084787D01*
X0223163Y0084749D01*
X0223207Y0084707D01*
X0223249Y0084663D01*
X0223287Y0084617D01*
X0223323Y0084568D01*
X0223356Y0084517D01*
X0223385Y0084465D01*
X0223412Y0084410D01*
X0223435Y0084355D01*
X0223455Y0084298D01*
X0223471Y0084239D01*
X0223484Y0084180D01*
X0223493Y0084121D01*
X0223498Y0084060D01*
X0223500Y0084000D01*
X0223500Y0079000D02*
X0223498Y0078940D01*
X0223493Y0078879D01*
X0223484Y0078820D01*
X0223471Y0078761D01*
X0223455Y0078702D01*
X0223435Y0078645D01*
X0223412Y0078590D01*
X0223385Y0078535D01*
X0223356Y0078483D01*
X0223323Y0078432D01*
X0223287Y0078383D01*
X0223249Y0078337D01*
X0223207Y0078293D01*
X0223163Y0078251D01*
X0223117Y0078213D01*
X0223068Y0078177D01*
X0223017Y0078144D01*
X0222965Y0078115D01*
X0222910Y0078088D01*
X0222855Y0078065D01*
X0222798Y0078045D01*
X0222739Y0078029D01*
X0222680Y0078016D01*
X0222621Y0078007D01*
X0222560Y0078002D01*
X0222500Y0078000D01*
X0221500Y0078000D01*
X0221000Y0078500D01*
X0212000Y0078500D01*
X0211500Y0078000D01*
X0210500Y0078000D01*
X0210440Y0078002D01*
X0210379Y0078007D01*
X0210320Y0078016D01*
X0210261Y0078029D01*
X0210202Y0078045D01*
X0210145Y0078065D01*
X0210090Y0078088D01*
X0210035Y0078115D01*
X0209983Y0078144D01*
X0209932Y0078177D01*
X0209883Y0078213D01*
X0209837Y0078251D01*
X0209793Y0078293D01*
X0209751Y0078337D01*
X0209713Y0078383D01*
X0209677Y0078432D01*
X0209644Y0078483D01*
X0209615Y0078535D01*
X0209588Y0078590D01*
X0209565Y0078645D01*
X0209545Y0078702D01*
X0209529Y0078761D01*
X0209516Y0078820D01*
X0209507Y0078879D01*
X0209502Y0078940D01*
X0209500Y0079000D01*
X0209500Y0084000D02*
X0209502Y0084060D01*
X0209507Y0084121D01*
X0209516Y0084180D01*
X0209529Y0084239D01*
X0209545Y0084298D01*
X0209565Y0084355D01*
X0209588Y0084410D01*
X0209615Y0084465D01*
X0209644Y0084517D01*
X0209677Y0084568D01*
X0209713Y0084617D01*
X0209751Y0084663D01*
X0209793Y0084707D01*
X0209837Y0084749D01*
X0209883Y0084787D01*
X0209932Y0084823D01*
X0209983Y0084856D01*
X0210035Y0084885D01*
X0210090Y0084912D01*
X0210145Y0084935D01*
X0210202Y0084955D01*
X0210261Y0084971D01*
X0210320Y0084984D01*
X0210379Y0084993D01*
X0210440Y0084998D01*
X0210500Y0085000D01*
X0117500Y0060000D02*
X0116500Y0060000D01*
X0116000Y0059500D01*
X0107000Y0059500D01*
X0106500Y0060000D01*
X0105500Y0060000D01*
X0105440Y0059998D01*
X0105379Y0059993D01*
X0105320Y0059984D01*
X0105261Y0059971D01*
X0105202Y0059955D01*
X0105145Y0059935D01*
X0105090Y0059912D01*
X0105035Y0059885D01*
X0104983Y0059856D01*
X0104932Y0059823D01*
X0104883Y0059787D01*
X0104837Y0059749D01*
X0104793Y0059707D01*
X0104751Y0059663D01*
X0104713Y0059617D01*
X0104677Y0059568D01*
X0104644Y0059517D01*
X0104615Y0059465D01*
X0104588Y0059410D01*
X0104565Y0059355D01*
X0104545Y0059298D01*
X0104529Y0059239D01*
X0104516Y0059180D01*
X0104507Y0059121D01*
X0104502Y0059060D01*
X0104500Y0059000D01*
X0104500Y0054000D02*
X0104502Y0053940D01*
X0104507Y0053879D01*
X0104516Y0053820D01*
X0104529Y0053761D01*
X0104545Y0053702D01*
X0104565Y0053645D01*
X0104588Y0053590D01*
X0104615Y0053535D01*
X0104644Y0053483D01*
X0104677Y0053432D01*
X0104713Y0053383D01*
X0104751Y0053337D01*
X0104793Y0053293D01*
X0104837Y0053251D01*
X0104883Y0053213D01*
X0104932Y0053177D01*
X0104983Y0053144D01*
X0105035Y0053115D01*
X0105090Y0053088D01*
X0105145Y0053065D01*
X0105202Y0053045D01*
X0105261Y0053029D01*
X0105320Y0053016D01*
X0105379Y0053007D01*
X0105440Y0053002D01*
X0105500Y0053000D01*
X0106500Y0053000D01*
X0107000Y0053500D01*
X0116000Y0053500D01*
X0116500Y0053000D01*
X0117500Y0053000D01*
X0117560Y0053002D01*
X0117621Y0053007D01*
X0117680Y0053016D01*
X0117739Y0053029D01*
X0117798Y0053045D01*
X0117855Y0053065D01*
X0117910Y0053088D01*
X0117965Y0053115D01*
X0118017Y0053144D01*
X0118068Y0053177D01*
X0118117Y0053213D01*
X0118163Y0053251D01*
X0118207Y0053293D01*
X0118249Y0053337D01*
X0118287Y0053383D01*
X0118323Y0053432D01*
X0118356Y0053483D01*
X0118385Y0053535D01*
X0118412Y0053590D01*
X0118435Y0053645D01*
X0118455Y0053702D01*
X0118471Y0053761D01*
X0118484Y0053820D01*
X0118493Y0053879D01*
X0118498Y0053940D01*
X0118500Y0054000D01*
X0118500Y0059000D02*
X0118498Y0059060D01*
X0118493Y0059121D01*
X0118484Y0059180D01*
X0118471Y0059239D01*
X0118455Y0059298D01*
X0118435Y0059355D01*
X0118412Y0059410D01*
X0118385Y0059465D01*
X0118356Y0059517D01*
X0118323Y0059568D01*
X0118287Y0059617D01*
X0118249Y0059663D01*
X0118207Y0059707D01*
X0118163Y0059749D01*
X0118117Y0059787D01*
X0118068Y0059823D01*
X0118017Y0059856D01*
X0117965Y0059885D01*
X0117910Y0059912D01*
X0117855Y0059935D01*
X0117798Y0059955D01*
X0117739Y0059971D01*
X0117680Y0059984D01*
X0117621Y0059993D01*
X0117560Y0059998D01*
X0117500Y0060000D01*
X0105000Y0080500D02*
X0105000Y0081500D01*
X0104500Y0082000D01*
X0104500Y0091000D01*
X0105000Y0091500D01*
X0105000Y0092500D01*
X0104998Y0092560D01*
X0104993Y0092621D01*
X0104984Y0092680D01*
X0104971Y0092739D01*
X0104955Y0092798D01*
X0104935Y0092855D01*
X0104912Y0092910D01*
X0104885Y0092965D01*
X0104856Y0093017D01*
X0104823Y0093068D01*
X0104787Y0093117D01*
X0104749Y0093163D01*
X0104707Y0093207D01*
X0104663Y0093249D01*
X0104617Y0093287D01*
X0104568Y0093323D01*
X0104517Y0093356D01*
X0104465Y0093385D01*
X0104410Y0093412D01*
X0104355Y0093435D01*
X0104298Y0093455D01*
X0104239Y0093471D01*
X0104180Y0093484D01*
X0104121Y0093493D01*
X0104060Y0093498D01*
X0104000Y0093500D01*
X0099000Y0093500D02*
X0098940Y0093498D01*
X0098879Y0093493D01*
X0098820Y0093484D01*
X0098761Y0093471D01*
X0098702Y0093455D01*
X0098645Y0093435D01*
X0098590Y0093412D01*
X0098535Y0093385D01*
X0098483Y0093356D01*
X0098432Y0093323D01*
X0098383Y0093287D01*
X0098337Y0093249D01*
X0098293Y0093207D01*
X0098251Y0093163D01*
X0098213Y0093117D01*
X0098177Y0093068D01*
X0098144Y0093017D01*
X0098115Y0092965D01*
X0098088Y0092910D01*
X0098065Y0092855D01*
X0098045Y0092798D01*
X0098029Y0092739D01*
X0098016Y0092680D01*
X0098007Y0092621D01*
X0098002Y0092560D01*
X0098000Y0092500D01*
X0098000Y0091500D01*
X0098500Y0091000D01*
X0098500Y0082000D01*
X0098000Y0081500D01*
X0098000Y0080500D01*
X0098002Y0080440D01*
X0098007Y0080379D01*
X0098016Y0080320D01*
X0098029Y0080261D01*
X0098045Y0080202D01*
X0098065Y0080145D01*
X0098088Y0080090D01*
X0098115Y0080035D01*
X0098144Y0079983D01*
X0098177Y0079932D01*
X0098213Y0079883D01*
X0098251Y0079837D01*
X0098293Y0079793D01*
X0098337Y0079751D01*
X0098383Y0079713D01*
X0098432Y0079677D01*
X0098483Y0079644D01*
X0098535Y0079615D01*
X0098590Y0079588D01*
X0098645Y0079565D01*
X0098702Y0079545D01*
X0098761Y0079529D01*
X0098820Y0079516D01*
X0098879Y0079507D01*
X0098940Y0079502D01*
X0099000Y0079500D01*
X0104000Y0079500D02*
X0104060Y0079502D01*
X0104121Y0079507D01*
X0104180Y0079516D01*
X0104239Y0079529D01*
X0104298Y0079545D01*
X0104355Y0079565D01*
X0104410Y0079588D01*
X0104465Y0079615D01*
X0104517Y0079644D01*
X0104568Y0079677D01*
X0104617Y0079713D01*
X0104663Y0079751D01*
X0104707Y0079793D01*
X0104749Y0079837D01*
X0104787Y0079883D01*
X0104823Y0079932D01*
X0104856Y0079983D01*
X0104885Y0080035D01*
X0104912Y0080090D01*
X0104935Y0080145D01*
X0104955Y0080202D01*
X0104971Y0080261D01*
X0104984Y0080320D01*
X0104993Y0080379D01*
X0104998Y0080440D01*
X0105000Y0080500D01*
X0085000Y0080500D02*
X0085000Y0081500D01*
X0084500Y0082000D01*
X0084500Y0091000D01*
X0085000Y0091500D01*
X0085000Y0092500D01*
X0084998Y0092560D01*
X0084993Y0092621D01*
X0084984Y0092680D01*
X0084971Y0092739D01*
X0084955Y0092798D01*
X0084935Y0092855D01*
X0084912Y0092910D01*
X0084885Y0092965D01*
X0084856Y0093017D01*
X0084823Y0093068D01*
X0084787Y0093117D01*
X0084749Y0093163D01*
X0084707Y0093207D01*
X0084663Y0093249D01*
X0084617Y0093287D01*
X0084568Y0093323D01*
X0084517Y0093356D01*
X0084465Y0093385D01*
X0084410Y0093412D01*
X0084355Y0093435D01*
X0084298Y0093455D01*
X0084239Y0093471D01*
X0084180Y0093484D01*
X0084121Y0093493D01*
X0084060Y0093498D01*
X0084000Y0093500D01*
X0079000Y0093500D02*
X0078940Y0093498D01*
X0078879Y0093493D01*
X0078820Y0093484D01*
X0078761Y0093471D01*
X0078702Y0093455D01*
X0078645Y0093435D01*
X0078590Y0093412D01*
X0078535Y0093385D01*
X0078483Y0093356D01*
X0078432Y0093323D01*
X0078383Y0093287D01*
X0078337Y0093249D01*
X0078293Y0093207D01*
X0078251Y0093163D01*
X0078213Y0093117D01*
X0078177Y0093068D01*
X0078144Y0093017D01*
X0078115Y0092965D01*
X0078088Y0092910D01*
X0078065Y0092855D01*
X0078045Y0092798D01*
X0078029Y0092739D01*
X0078016Y0092680D01*
X0078007Y0092621D01*
X0078002Y0092560D01*
X0078000Y0092500D01*
X0078000Y0091500D01*
X0078500Y0091000D01*
X0078500Y0082000D01*
X0078000Y0081500D01*
X0078000Y0080500D01*
X0078002Y0080440D01*
X0078007Y0080379D01*
X0078016Y0080320D01*
X0078029Y0080261D01*
X0078045Y0080202D01*
X0078065Y0080145D01*
X0078088Y0080090D01*
X0078115Y0080035D01*
X0078144Y0079983D01*
X0078177Y0079932D01*
X0078213Y0079883D01*
X0078251Y0079837D01*
X0078293Y0079793D01*
X0078337Y0079751D01*
X0078383Y0079713D01*
X0078432Y0079677D01*
X0078483Y0079644D01*
X0078535Y0079615D01*
X0078590Y0079588D01*
X0078645Y0079565D01*
X0078702Y0079545D01*
X0078761Y0079529D01*
X0078820Y0079516D01*
X0078879Y0079507D01*
X0078940Y0079502D01*
X0079000Y0079500D01*
X0084000Y0079500D02*
X0084060Y0079502D01*
X0084121Y0079507D01*
X0084180Y0079516D01*
X0084239Y0079529D01*
X0084298Y0079545D01*
X0084355Y0079565D01*
X0084410Y0079588D01*
X0084465Y0079615D01*
X0084517Y0079644D01*
X0084568Y0079677D01*
X0084617Y0079713D01*
X0084663Y0079751D01*
X0084707Y0079793D01*
X0084749Y0079837D01*
X0084787Y0079883D01*
X0084823Y0079932D01*
X0084856Y0079983D01*
X0084885Y0080035D01*
X0084912Y0080090D01*
X0084935Y0080145D01*
X0084955Y0080202D01*
X0084971Y0080261D01*
X0084984Y0080320D01*
X0084993Y0080379D01*
X0084998Y0080440D01*
X0085000Y0080500D01*
X0085500Y0061000D02*
X0077500Y0061000D01*
X0077440Y0060998D01*
X0077379Y0060993D01*
X0077320Y0060984D01*
X0077261Y0060971D01*
X0077202Y0060955D01*
X0077145Y0060935D01*
X0077090Y0060912D01*
X0077035Y0060885D01*
X0076983Y0060856D01*
X0076932Y0060823D01*
X0076883Y0060787D01*
X0076837Y0060749D01*
X0076793Y0060707D01*
X0076751Y0060663D01*
X0076713Y0060617D01*
X0076677Y0060568D01*
X0076644Y0060517D01*
X0076615Y0060465D01*
X0076588Y0060410D01*
X0076565Y0060355D01*
X0076545Y0060298D01*
X0076529Y0060239D01*
X0076516Y0060180D01*
X0076507Y0060121D01*
X0076502Y0060060D01*
X0076500Y0060000D01*
X0076500Y0043000D01*
X0076502Y0042940D01*
X0076507Y0042879D01*
X0076516Y0042820D01*
X0076529Y0042761D01*
X0076545Y0042702D01*
X0076565Y0042645D01*
X0076588Y0042590D01*
X0076615Y0042535D01*
X0076644Y0042483D01*
X0076677Y0042432D01*
X0076713Y0042383D01*
X0076751Y0042337D01*
X0076793Y0042293D01*
X0076837Y0042251D01*
X0076883Y0042213D01*
X0076932Y0042177D01*
X0076983Y0042144D01*
X0077035Y0042115D01*
X0077090Y0042088D01*
X0077145Y0042065D01*
X0077202Y0042045D01*
X0077261Y0042029D01*
X0077320Y0042016D01*
X0077379Y0042007D01*
X0077440Y0042002D01*
X0077500Y0042000D01*
X0085500Y0042000D01*
X0085560Y0042002D01*
X0085621Y0042007D01*
X0085680Y0042016D01*
X0085739Y0042029D01*
X0085798Y0042045D01*
X0085855Y0042065D01*
X0085910Y0042088D01*
X0085965Y0042115D01*
X0086017Y0042144D01*
X0086068Y0042177D01*
X0086117Y0042213D01*
X0086163Y0042251D01*
X0086207Y0042293D01*
X0086249Y0042337D01*
X0086287Y0042383D01*
X0086323Y0042432D01*
X0086356Y0042483D01*
X0086385Y0042535D01*
X0086412Y0042590D01*
X0086435Y0042645D01*
X0086455Y0042702D01*
X0086471Y0042761D01*
X0086484Y0042820D01*
X0086493Y0042879D01*
X0086498Y0042940D01*
X0086500Y0043000D01*
X0086500Y0060000D01*
X0086498Y0060060D01*
X0086493Y0060121D01*
X0086484Y0060180D01*
X0086471Y0060239D01*
X0086455Y0060298D01*
X0086435Y0060355D01*
X0086412Y0060410D01*
X0086385Y0060465D01*
X0086356Y0060517D01*
X0086323Y0060568D01*
X0086287Y0060617D01*
X0086249Y0060663D01*
X0086207Y0060707D01*
X0086163Y0060749D01*
X0086117Y0060787D01*
X0086068Y0060823D01*
X0086017Y0060856D01*
X0085965Y0060885D01*
X0085910Y0060912D01*
X0085855Y0060935D01*
X0085798Y0060955D01*
X0085739Y0060971D01*
X0085680Y0060984D01*
X0085621Y0060993D01*
X0085560Y0060998D01*
X0085500Y0061000D01*
X0081500Y0053000D02*
X0081500Y0052500D01*
X0081500Y0050500D02*
X0081500Y0050000D01*
X0050500Y0077000D02*
X0042500Y0077000D01*
X0042440Y0077002D01*
X0042379Y0077007D01*
X0042320Y0077016D01*
X0042261Y0077029D01*
X0042202Y0077045D01*
X0042145Y0077065D01*
X0042090Y0077088D01*
X0042035Y0077115D01*
X0041983Y0077144D01*
X0041932Y0077177D01*
X0041883Y0077213D01*
X0041837Y0077251D01*
X0041793Y0077293D01*
X0041751Y0077337D01*
X0041713Y0077383D01*
X0041677Y0077432D01*
X0041644Y0077483D01*
X0041615Y0077535D01*
X0041588Y0077590D01*
X0041565Y0077645D01*
X0041545Y0077702D01*
X0041529Y0077761D01*
X0041516Y0077820D01*
X0041507Y0077879D01*
X0041502Y0077940D01*
X0041500Y0078000D01*
X0041500Y0095000D01*
X0041502Y0095060D01*
X0041507Y0095121D01*
X0041516Y0095180D01*
X0041529Y0095239D01*
X0041545Y0095298D01*
X0041565Y0095355D01*
X0041588Y0095410D01*
X0041615Y0095465D01*
X0041644Y0095517D01*
X0041677Y0095568D01*
X0041713Y0095617D01*
X0041751Y0095663D01*
X0041793Y0095707D01*
X0041837Y0095749D01*
X0041883Y0095787D01*
X0041932Y0095823D01*
X0041983Y0095856D01*
X0042035Y0095885D01*
X0042090Y0095912D01*
X0042145Y0095935D01*
X0042202Y0095955D01*
X0042261Y0095971D01*
X0042320Y0095984D01*
X0042379Y0095993D01*
X0042440Y0095998D01*
X0042500Y0096000D01*
X0050500Y0096000D01*
X0050560Y0095998D01*
X0050621Y0095993D01*
X0050680Y0095984D01*
X0050739Y0095971D01*
X0050798Y0095955D01*
X0050855Y0095935D01*
X0050910Y0095912D01*
X0050965Y0095885D01*
X0051017Y0095856D01*
X0051068Y0095823D01*
X0051117Y0095787D01*
X0051163Y0095749D01*
X0051207Y0095707D01*
X0051249Y0095663D01*
X0051287Y0095617D01*
X0051323Y0095568D01*
X0051356Y0095517D01*
X0051385Y0095465D01*
X0051412Y0095410D01*
X0051435Y0095355D01*
X0051455Y0095298D01*
X0051471Y0095239D01*
X0051484Y0095180D01*
X0051493Y0095121D01*
X0051498Y0095060D01*
X0051500Y0095000D01*
X0051500Y0078000D01*
X0051498Y0077940D01*
X0051493Y0077879D01*
X0051484Y0077820D01*
X0051471Y0077761D01*
X0051455Y0077702D01*
X0051435Y0077645D01*
X0051412Y0077590D01*
X0051385Y0077535D01*
X0051356Y0077483D01*
X0051323Y0077432D01*
X0051287Y0077383D01*
X0051249Y0077337D01*
X0051207Y0077293D01*
X0051163Y0077251D01*
X0051117Y0077213D01*
X0051068Y0077177D01*
X0051017Y0077144D01*
X0050965Y0077115D01*
X0050910Y0077088D01*
X0050855Y0077065D01*
X0050798Y0077045D01*
X0050739Y0077029D01*
X0050680Y0077016D01*
X0050621Y0077007D01*
X0050560Y0077002D01*
X0050500Y0077000D01*
X0046500Y0085000D02*
X0046500Y0085500D01*
X0046500Y0087500D02*
X0046500Y0088000D01*
X0031500Y0090000D02*
X0031500Y0073000D01*
X0031498Y0072940D01*
X0031493Y0072879D01*
X0031484Y0072820D01*
X0031471Y0072761D01*
X0031455Y0072702D01*
X0031435Y0072645D01*
X0031412Y0072590D01*
X0031385Y0072535D01*
X0031356Y0072483D01*
X0031323Y0072432D01*
X0031287Y0072383D01*
X0031249Y0072337D01*
X0031207Y0072293D01*
X0031163Y0072251D01*
X0031117Y0072213D01*
X0031068Y0072177D01*
X0031017Y0072144D01*
X0030965Y0072115D01*
X0030910Y0072088D01*
X0030855Y0072065D01*
X0030798Y0072045D01*
X0030739Y0072029D01*
X0030680Y0072016D01*
X0030621Y0072007D01*
X0030560Y0072002D01*
X0030500Y0072000D01*
X0022500Y0072000D01*
X0022440Y0072002D01*
X0022379Y0072007D01*
X0022320Y0072016D01*
X0022261Y0072029D01*
X0022202Y0072045D01*
X0022145Y0072065D01*
X0022090Y0072088D01*
X0022035Y0072115D01*
X0021983Y0072144D01*
X0021932Y0072177D01*
X0021883Y0072213D01*
X0021837Y0072251D01*
X0021793Y0072293D01*
X0021751Y0072337D01*
X0021713Y0072383D01*
X0021677Y0072432D01*
X0021644Y0072483D01*
X0021615Y0072535D01*
X0021588Y0072590D01*
X0021565Y0072645D01*
X0021545Y0072702D01*
X0021529Y0072761D01*
X0021516Y0072820D01*
X0021507Y0072879D01*
X0021502Y0072940D01*
X0021500Y0073000D01*
X0021500Y0090000D01*
X0021502Y0090060D01*
X0021507Y0090121D01*
X0021516Y0090180D01*
X0021529Y0090239D01*
X0021545Y0090298D01*
X0021565Y0090355D01*
X0021588Y0090410D01*
X0021615Y0090465D01*
X0021644Y0090517D01*
X0021677Y0090568D01*
X0021713Y0090617D01*
X0021751Y0090663D01*
X0021793Y0090707D01*
X0021837Y0090749D01*
X0021883Y0090787D01*
X0021932Y0090823D01*
X0021983Y0090856D01*
X0022035Y0090885D01*
X0022090Y0090912D01*
X0022145Y0090935D01*
X0022202Y0090955D01*
X0022261Y0090971D01*
X0022320Y0090984D01*
X0022379Y0090993D01*
X0022440Y0090998D01*
X0022500Y0091000D01*
X0030500Y0091000D01*
X0030560Y0090998D01*
X0030621Y0090993D01*
X0030680Y0090984D01*
X0030739Y0090971D01*
X0030798Y0090955D01*
X0030855Y0090935D01*
X0030910Y0090912D01*
X0030965Y0090885D01*
X0031017Y0090856D01*
X0031068Y0090823D01*
X0031117Y0090787D01*
X0031163Y0090749D01*
X0031207Y0090707D01*
X0031249Y0090663D01*
X0031287Y0090617D01*
X0031323Y0090568D01*
X0031356Y0090517D01*
X0031385Y0090465D01*
X0031412Y0090410D01*
X0031435Y0090355D01*
X0031455Y0090298D01*
X0031471Y0090239D01*
X0031484Y0090180D01*
X0031493Y0090121D01*
X0031498Y0090060D01*
X0031500Y0090000D01*
X0026500Y0083000D02*
X0026500Y0082500D01*
X0026500Y0080500D02*
X0026500Y0080000D01*
X0078000Y0110500D02*
X0078000Y0111500D01*
X0078500Y0112000D01*
X0078500Y0121000D01*
X0078000Y0121500D01*
X0078000Y0122500D01*
X0078002Y0122560D01*
X0078007Y0122621D01*
X0078016Y0122680D01*
X0078029Y0122739D01*
X0078045Y0122798D01*
X0078065Y0122855D01*
X0078088Y0122910D01*
X0078115Y0122965D01*
X0078144Y0123017D01*
X0078177Y0123068D01*
X0078213Y0123117D01*
X0078251Y0123163D01*
X0078293Y0123207D01*
X0078337Y0123249D01*
X0078383Y0123287D01*
X0078432Y0123323D01*
X0078483Y0123356D01*
X0078535Y0123385D01*
X0078590Y0123412D01*
X0078645Y0123435D01*
X0078702Y0123455D01*
X0078761Y0123471D01*
X0078820Y0123484D01*
X0078879Y0123493D01*
X0078940Y0123498D01*
X0079000Y0123500D01*
X0084000Y0123500D02*
X0084060Y0123498D01*
X0084121Y0123493D01*
X0084180Y0123484D01*
X0084239Y0123471D01*
X0084298Y0123455D01*
X0084355Y0123435D01*
X0084410Y0123412D01*
X0084465Y0123385D01*
X0084517Y0123356D01*
X0084568Y0123323D01*
X0084617Y0123287D01*
X0084663Y0123249D01*
X0084707Y0123207D01*
X0084749Y0123163D01*
X0084787Y0123117D01*
X0084823Y0123068D01*
X0084856Y0123017D01*
X0084885Y0122965D01*
X0084912Y0122910D01*
X0084935Y0122855D01*
X0084955Y0122798D01*
X0084971Y0122739D01*
X0084984Y0122680D01*
X0084993Y0122621D01*
X0084998Y0122560D01*
X0085000Y0122500D01*
X0085000Y0121500D01*
X0084500Y0121000D01*
X0084500Y0112000D01*
X0085000Y0111500D01*
X0085000Y0110500D01*
X0084998Y0110440D01*
X0084993Y0110379D01*
X0084984Y0110320D01*
X0084971Y0110261D01*
X0084955Y0110202D01*
X0084935Y0110145D01*
X0084912Y0110090D01*
X0084885Y0110035D01*
X0084856Y0109983D01*
X0084823Y0109932D01*
X0084787Y0109883D01*
X0084749Y0109837D01*
X0084707Y0109793D01*
X0084663Y0109751D01*
X0084617Y0109713D01*
X0084568Y0109677D01*
X0084517Y0109644D01*
X0084465Y0109615D01*
X0084410Y0109588D01*
X0084355Y0109565D01*
X0084298Y0109545D01*
X0084239Y0109529D01*
X0084180Y0109516D01*
X0084121Y0109507D01*
X0084060Y0109502D01*
X0084000Y0109500D01*
X0079000Y0109500D02*
X0078940Y0109502D01*
X0078879Y0109507D01*
X0078820Y0109516D01*
X0078761Y0109529D01*
X0078702Y0109545D01*
X0078645Y0109565D01*
X0078590Y0109588D01*
X0078535Y0109615D01*
X0078483Y0109644D01*
X0078432Y0109677D01*
X0078383Y0109713D01*
X0078337Y0109751D01*
X0078293Y0109793D01*
X0078251Y0109837D01*
X0078213Y0109883D01*
X0078177Y0109932D01*
X0078144Y0109983D01*
X0078115Y0110035D01*
X0078088Y0110090D01*
X0078065Y0110145D01*
X0078045Y0110202D01*
X0078029Y0110261D01*
X0078016Y0110320D01*
X0078007Y0110379D01*
X0078002Y0110440D01*
X0078000Y0110500D01*
X0098000Y0110500D02*
X0098000Y0111500D01*
X0098500Y0112000D01*
X0098500Y0121000D01*
X0098000Y0121500D01*
X0098000Y0122500D01*
X0098002Y0122560D01*
X0098007Y0122621D01*
X0098016Y0122680D01*
X0098029Y0122739D01*
X0098045Y0122798D01*
X0098065Y0122855D01*
X0098088Y0122910D01*
X0098115Y0122965D01*
X0098144Y0123017D01*
X0098177Y0123068D01*
X0098213Y0123117D01*
X0098251Y0123163D01*
X0098293Y0123207D01*
X0098337Y0123249D01*
X0098383Y0123287D01*
X0098432Y0123323D01*
X0098483Y0123356D01*
X0098535Y0123385D01*
X0098590Y0123412D01*
X0098645Y0123435D01*
X0098702Y0123455D01*
X0098761Y0123471D01*
X0098820Y0123484D01*
X0098879Y0123493D01*
X0098940Y0123498D01*
X0099000Y0123500D01*
X0104000Y0123500D02*
X0104060Y0123498D01*
X0104121Y0123493D01*
X0104180Y0123484D01*
X0104239Y0123471D01*
X0104298Y0123455D01*
X0104355Y0123435D01*
X0104410Y0123412D01*
X0104465Y0123385D01*
X0104517Y0123356D01*
X0104568Y0123323D01*
X0104617Y0123287D01*
X0104663Y0123249D01*
X0104707Y0123207D01*
X0104749Y0123163D01*
X0104787Y0123117D01*
X0104823Y0123068D01*
X0104856Y0123017D01*
X0104885Y0122965D01*
X0104912Y0122910D01*
X0104935Y0122855D01*
X0104955Y0122798D01*
X0104971Y0122739D01*
X0104984Y0122680D01*
X0104993Y0122621D01*
X0104998Y0122560D01*
X0105000Y0122500D01*
X0105000Y0121500D01*
X0104500Y0121000D01*
X0104500Y0112000D01*
X0105000Y0111500D01*
X0105000Y0110500D01*
X0104998Y0110440D01*
X0104993Y0110379D01*
X0104984Y0110320D01*
X0104971Y0110261D01*
X0104955Y0110202D01*
X0104935Y0110145D01*
X0104912Y0110090D01*
X0104885Y0110035D01*
X0104856Y0109983D01*
X0104823Y0109932D01*
X0104787Y0109883D01*
X0104749Y0109837D01*
X0104707Y0109793D01*
X0104663Y0109751D01*
X0104617Y0109713D01*
X0104568Y0109677D01*
X0104517Y0109644D01*
X0104465Y0109615D01*
X0104410Y0109588D01*
X0104355Y0109565D01*
X0104298Y0109545D01*
X0104239Y0109529D01*
X0104180Y0109516D01*
X0104121Y0109507D01*
X0104060Y0109502D01*
X0104000Y0109500D01*
X0099000Y0109500D02*
X0098940Y0109502D01*
X0098879Y0109507D01*
X0098820Y0109516D01*
X0098761Y0109529D01*
X0098702Y0109545D01*
X0098645Y0109565D01*
X0098590Y0109588D01*
X0098535Y0109615D01*
X0098483Y0109644D01*
X0098432Y0109677D01*
X0098383Y0109713D01*
X0098337Y0109751D01*
X0098293Y0109793D01*
X0098251Y0109837D01*
X0098213Y0109883D01*
X0098177Y0109932D01*
X0098144Y0109983D01*
X0098115Y0110035D01*
X0098088Y0110090D01*
X0098065Y0110145D01*
X0098045Y0110202D01*
X0098029Y0110261D01*
X0098016Y0110320D01*
X0098007Y0110379D01*
X0098002Y0110440D01*
X0098000Y0110500D01*
D13*
X0049500Y0087500D02*
X0046500Y0087500D01*
X0043500Y0087500D01*
X0043500Y0085500D02*
X0046500Y0085500D01*
X0049500Y0085500D01*
X0029500Y0082500D02*
X0026500Y0082500D01*
X0023500Y0082500D01*
X0023500Y0080500D02*
X0026500Y0080500D01*
X0029500Y0080500D01*
X0078500Y0052500D02*
X0081500Y0052500D01*
X0084500Y0052500D01*
X0084500Y0050500D02*
X0081500Y0050500D01*
X0078500Y0050500D01*
X0095500Y0036500D02*
X0101500Y0036500D01*
X0101500Y0041500D01*
X0111500Y0036500D01*
X0111500Y0041500D01*
X0116500Y0041500D01*
X0117500Y0036500D02*
X0111500Y0036500D01*
X0111500Y0031500D01*
X0106500Y0031500D01*
X0101500Y0031500D02*
X0101500Y0036500D01*
X0101500Y0031500D02*
X0111500Y0036500D01*
X0220469Y0114554D02*
X0220638Y0114653D01*
X0220804Y0114757D01*
X0220968Y0114864D01*
X0221129Y0114975D01*
X0221287Y0115090D01*
X0221442Y0115209D01*
X0221595Y0115332D01*
X0221744Y0115458D01*
X0221890Y0115588D01*
X0222033Y0115722D01*
X0222173Y0115859D01*
X0222309Y0115999D01*
X0222442Y0116143D01*
X0222571Y0116290D01*
X0222697Y0116440D01*
X0222818Y0116593D01*
X0222937Y0116749D01*
X0223051Y0116908D01*
X0223161Y0117069D01*
X0223267Y0117234D01*
X0223370Y0117400D01*
X0223468Y0117570D01*
X0223562Y0117741D01*
X0223652Y0117915D01*
X0223737Y0118091D01*
X0223819Y0118269D01*
X0223895Y0118449D01*
X0223968Y0118631D01*
X0224036Y0118814D01*
X0224099Y0118999D01*
X0224158Y0119186D01*
X0224212Y0119374D01*
X0224262Y0119563D01*
X0224307Y0119753D01*
X0224347Y0119945D01*
X0224383Y0120137D01*
X0224414Y0120330D01*
X0224440Y0120524D01*
X0224462Y0120719D01*
X0224478Y0120914D01*
X0224490Y0121109D01*
X0224498Y0121305D01*
X0224500Y0121500D01*
X0212735Y0114441D02*
X0212567Y0114534D01*
X0212401Y0114630D01*
X0212237Y0114730D01*
X0212076Y0114835D01*
X0211917Y0114943D01*
X0211761Y0115055D01*
X0211607Y0115171D01*
X0211457Y0115290D01*
X0211309Y0115413D01*
X0211164Y0115539D01*
X0211023Y0115669D01*
X0210884Y0115802D01*
X0210749Y0115939D01*
X0210617Y0116079D01*
X0210489Y0116221D01*
X0210364Y0116367D01*
X0210242Y0116516D01*
X0210124Y0116668D01*
X0210010Y0116822D01*
X0209900Y0116980D01*
X0209793Y0117139D01*
X0209690Y0117302D01*
X0209591Y0117467D01*
X0209496Y0117634D01*
X0209406Y0117803D01*
X0209319Y0117974D01*
X0209236Y0118148D01*
X0209158Y0118323D01*
X0209084Y0118501D01*
X0209014Y0118680D01*
X0208948Y0118860D01*
X0208887Y0119042D01*
X0208830Y0119226D01*
X0208778Y0119411D01*
X0208730Y0119597D01*
X0208686Y0119784D01*
X0208647Y0119972D01*
X0208613Y0120161D01*
X0208583Y0120351D01*
X0208558Y0120541D01*
X0208537Y0120732D01*
X0208521Y0120924D01*
X0208509Y0121116D01*
X0208502Y0121308D01*
X0208500Y0121500D01*
X0221668Y0127607D02*
X0221814Y0127480D01*
X0221956Y0127351D01*
X0222096Y0127217D01*
X0222232Y0127081D01*
X0222365Y0126941D01*
X0222495Y0126798D01*
X0222621Y0126651D01*
X0222743Y0126502D01*
X0222862Y0126350D01*
X0222977Y0126195D01*
X0223089Y0126038D01*
X0223196Y0125878D01*
X0223300Y0125715D01*
X0223399Y0125549D01*
X0223495Y0125382D01*
X0223587Y0125212D01*
X0223674Y0125040D01*
X0223758Y0124866D01*
X0223837Y0124690D01*
X0223911Y0124512D01*
X0223982Y0124332D01*
X0224048Y0124151D01*
X0224110Y0123968D01*
X0224167Y0123784D01*
X0224220Y0123598D01*
X0224268Y0123411D01*
X0224312Y0123223D01*
X0224351Y0123034D01*
X0224386Y0122844D01*
X0224416Y0122654D01*
X0224442Y0122463D01*
X0224463Y0122271D01*
X0224479Y0122078D01*
X0224491Y0121886D01*
X0224498Y0121693D01*
X0224500Y0121500D01*
X0211378Y0127646D02*
X0211230Y0127519D01*
X0211085Y0127389D01*
X0210944Y0127256D01*
X0210805Y0127119D01*
X0210670Y0126979D01*
X0210539Y0126835D01*
X0210411Y0126688D01*
X0210286Y0126539D01*
X0210165Y0126386D01*
X0210048Y0126231D01*
X0209935Y0126072D01*
X0209826Y0125911D01*
X0209721Y0125747D01*
X0209619Y0125581D01*
X0209522Y0125412D01*
X0209429Y0125242D01*
X0209340Y0125068D01*
X0209255Y0124893D01*
X0209175Y0124716D01*
X0209099Y0124537D01*
X0209027Y0124356D01*
X0208960Y0124173D01*
X0208897Y0123989D01*
X0208839Y0123803D01*
X0208785Y0123616D01*
X0208736Y0123428D01*
X0208691Y0123238D01*
X0208651Y0123048D01*
X0208616Y0122856D01*
X0208585Y0122664D01*
X0208559Y0122471D01*
X0208538Y0122277D01*
X0208521Y0122083D01*
X0208509Y0121889D01*
X0208502Y0121695D01*
X0208500Y0121500D01*
X0220469Y0134554D02*
X0220638Y0134653D01*
X0220804Y0134757D01*
X0220968Y0134864D01*
X0221129Y0134975D01*
X0221287Y0135090D01*
X0221442Y0135209D01*
X0221595Y0135332D01*
X0221744Y0135458D01*
X0221890Y0135588D01*
X0222033Y0135722D01*
X0222173Y0135859D01*
X0222309Y0135999D01*
X0222442Y0136143D01*
X0222571Y0136290D01*
X0222697Y0136440D01*
X0222818Y0136593D01*
X0222937Y0136749D01*
X0223051Y0136908D01*
X0223161Y0137069D01*
X0223267Y0137234D01*
X0223370Y0137400D01*
X0223468Y0137570D01*
X0223562Y0137741D01*
X0223652Y0137915D01*
X0223737Y0138091D01*
X0223819Y0138269D01*
X0223895Y0138449D01*
X0223968Y0138631D01*
X0224036Y0138814D01*
X0224099Y0138999D01*
X0224158Y0139186D01*
X0224212Y0139374D01*
X0224262Y0139563D01*
X0224307Y0139753D01*
X0224347Y0139945D01*
X0224383Y0140137D01*
X0224414Y0140330D01*
X0224440Y0140524D01*
X0224462Y0140719D01*
X0224478Y0140914D01*
X0224490Y0141109D01*
X0224498Y0141305D01*
X0224500Y0141500D01*
X0212735Y0134441D02*
X0212567Y0134534D01*
X0212401Y0134630D01*
X0212237Y0134730D01*
X0212076Y0134835D01*
X0211917Y0134943D01*
X0211761Y0135055D01*
X0211607Y0135171D01*
X0211457Y0135290D01*
X0211309Y0135413D01*
X0211164Y0135539D01*
X0211023Y0135669D01*
X0210884Y0135802D01*
X0210749Y0135939D01*
X0210617Y0136079D01*
X0210489Y0136221D01*
X0210364Y0136367D01*
X0210242Y0136516D01*
X0210124Y0136668D01*
X0210010Y0136822D01*
X0209900Y0136980D01*
X0209793Y0137139D01*
X0209690Y0137302D01*
X0209591Y0137467D01*
X0209496Y0137634D01*
X0209406Y0137803D01*
X0209319Y0137974D01*
X0209236Y0138148D01*
X0209158Y0138323D01*
X0209084Y0138501D01*
X0209014Y0138680D01*
X0208948Y0138860D01*
X0208887Y0139042D01*
X0208830Y0139226D01*
X0208778Y0139411D01*
X0208730Y0139597D01*
X0208686Y0139784D01*
X0208647Y0139972D01*
X0208613Y0140161D01*
X0208583Y0140351D01*
X0208558Y0140541D01*
X0208537Y0140732D01*
X0208521Y0140924D01*
X0208509Y0141116D01*
X0208502Y0141308D01*
X0208500Y0141500D01*
X0221668Y0147607D02*
X0221814Y0147480D01*
X0221956Y0147351D01*
X0222096Y0147217D01*
X0222232Y0147081D01*
X0222365Y0146941D01*
X0222495Y0146798D01*
X0222621Y0146651D01*
X0222743Y0146502D01*
X0222862Y0146350D01*
X0222977Y0146195D01*
X0223089Y0146038D01*
X0223196Y0145878D01*
X0223300Y0145715D01*
X0223399Y0145549D01*
X0223495Y0145382D01*
X0223587Y0145212D01*
X0223674Y0145040D01*
X0223758Y0144866D01*
X0223837Y0144690D01*
X0223911Y0144512D01*
X0223982Y0144332D01*
X0224048Y0144151D01*
X0224110Y0143968D01*
X0224167Y0143784D01*
X0224220Y0143598D01*
X0224268Y0143411D01*
X0224312Y0143223D01*
X0224351Y0143034D01*
X0224386Y0142844D01*
X0224416Y0142654D01*
X0224442Y0142463D01*
X0224463Y0142271D01*
X0224479Y0142078D01*
X0224491Y0141886D01*
X0224498Y0141693D01*
X0224500Y0141500D01*
X0211378Y0147646D02*
X0211230Y0147519D01*
X0211085Y0147389D01*
X0210944Y0147256D01*
X0210805Y0147119D01*
X0210670Y0146979D01*
X0210539Y0146835D01*
X0210411Y0146688D01*
X0210286Y0146539D01*
X0210165Y0146386D01*
X0210048Y0146231D01*
X0209935Y0146072D01*
X0209826Y0145911D01*
X0209721Y0145747D01*
X0209619Y0145581D01*
X0209522Y0145412D01*
X0209429Y0145242D01*
X0209340Y0145068D01*
X0209255Y0144893D01*
X0209175Y0144716D01*
X0209099Y0144537D01*
X0209027Y0144356D01*
X0208960Y0144173D01*
X0208897Y0143989D01*
X0208839Y0143803D01*
X0208785Y0143616D01*
X0208736Y0143428D01*
X0208691Y0143238D01*
X0208651Y0143048D01*
X0208616Y0142856D01*
X0208585Y0142664D01*
X0208559Y0142471D01*
X0208538Y0142277D01*
X0208521Y0142083D01*
X0208509Y0141889D01*
X0208502Y0141695D01*
X0208500Y0141500D01*
X0250469Y0134554D02*
X0250638Y0134653D01*
X0250804Y0134757D01*
X0250968Y0134864D01*
X0251129Y0134975D01*
X0251287Y0135090D01*
X0251442Y0135209D01*
X0251595Y0135332D01*
X0251744Y0135458D01*
X0251890Y0135588D01*
X0252033Y0135722D01*
X0252173Y0135859D01*
X0252309Y0135999D01*
X0252442Y0136143D01*
X0252571Y0136290D01*
X0252697Y0136440D01*
X0252818Y0136593D01*
X0252937Y0136749D01*
X0253051Y0136908D01*
X0253161Y0137069D01*
X0253267Y0137234D01*
X0253370Y0137400D01*
X0253468Y0137570D01*
X0253562Y0137741D01*
X0253652Y0137915D01*
X0253737Y0138091D01*
X0253819Y0138269D01*
X0253895Y0138449D01*
X0253968Y0138631D01*
X0254036Y0138814D01*
X0254099Y0138999D01*
X0254158Y0139186D01*
X0254212Y0139374D01*
X0254262Y0139563D01*
X0254307Y0139753D01*
X0254347Y0139945D01*
X0254383Y0140137D01*
X0254414Y0140330D01*
X0254440Y0140524D01*
X0254462Y0140719D01*
X0254478Y0140914D01*
X0254490Y0141109D01*
X0254498Y0141305D01*
X0254500Y0141500D01*
X0242735Y0134441D02*
X0242567Y0134534D01*
X0242401Y0134630D01*
X0242237Y0134730D01*
X0242076Y0134835D01*
X0241917Y0134943D01*
X0241761Y0135055D01*
X0241607Y0135171D01*
X0241457Y0135290D01*
X0241309Y0135413D01*
X0241164Y0135539D01*
X0241023Y0135669D01*
X0240884Y0135802D01*
X0240749Y0135939D01*
X0240617Y0136079D01*
X0240489Y0136221D01*
X0240364Y0136367D01*
X0240242Y0136516D01*
X0240124Y0136668D01*
X0240010Y0136822D01*
X0239900Y0136980D01*
X0239793Y0137139D01*
X0239690Y0137302D01*
X0239591Y0137467D01*
X0239496Y0137634D01*
X0239406Y0137803D01*
X0239319Y0137974D01*
X0239236Y0138148D01*
X0239158Y0138323D01*
X0239084Y0138501D01*
X0239014Y0138680D01*
X0238948Y0138860D01*
X0238887Y0139042D01*
X0238830Y0139226D01*
X0238778Y0139411D01*
X0238730Y0139597D01*
X0238686Y0139784D01*
X0238647Y0139972D01*
X0238613Y0140161D01*
X0238583Y0140351D01*
X0238558Y0140541D01*
X0238537Y0140732D01*
X0238521Y0140924D01*
X0238509Y0141116D01*
X0238502Y0141308D01*
X0238500Y0141500D01*
X0251668Y0147607D02*
X0251814Y0147480D01*
X0251956Y0147351D01*
X0252096Y0147217D01*
X0252232Y0147081D01*
X0252365Y0146941D01*
X0252495Y0146798D01*
X0252621Y0146651D01*
X0252743Y0146502D01*
X0252862Y0146350D01*
X0252977Y0146195D01*
X0253089Y0146038D01*
X0253196Y0145878D01*
X0253300Y0145715D01*
X0253399Y0145549D01*
X0253495Y0145382D01*
X0253587Y0145212D01*
X0253674Y0145040D01*
X0253758Y0144866D01*
X0253837Y0144690D01*
X0253911Y0144512D01*
X0253982Y0144332D01*
X0254048Y0144151D01*
X0254110Y0143968D01*
X0254167Y0143784D01*
X0254220Y0143598D01*
X0254268Y0143411D01*
X0254312Y0143223D01*
X0254351Y0143034D01*
X0254386Y0142844D01*
X0254416Y0142654D01*
X0254442Y0142463D01*
X0254463Y0142271D01*
X0254479Y0142078D01*
X0254491Y0141886D01*
X0254498Y0141693D01*
X0254500Y0141500D01*
X0241378Y0147646D02*
X0241230Y0147519D01*
X0241085Y0147389D01*
X0240944Y0147256D01*
X0240805Y0147119D01*
X0240670Y0146979D01*
X0240539Y0146835D01*
X0240411Y0146688D01*
X0240286Y0146539D01*
X0240165Y0146386D01*
X0240048Y0146231D01*
X0239935Y0146072D01*
X0239826Y0145911D01*
X0239721Y0145747D01*
X0239619Y0145581D01*
X0239522Y0145412D01*
X0239429Y0145242D01*
X0239340Y0145068D01*
X0239255Y0144893D01*
X0239175Y0144716D01*
X0239099Y0144537D01*
X0239027Y0144356D01*
X0238960Y0144173D01*
X0238897Y0143989D01*
X0238839Y0143803D01*
X0238785Y0143616D01*
X0238736Y0143428D01*
X0238691Y0143238D01*
X0238651Y0143048D01*
X0238616Y0142856D01*
X0238585Y0142664D01*
X0238559Y0142471D01*
X0238538Y0142277D01*
X0238521Y0142083D01*
X0238509Y0141889D01*
X0238502Y0141695D01*
X0238500Y0141500D01*
X0238500Y0121500D02*
X0238502Y0121308D01*
X0238509Y0121116D01*
X0238521Y0120924D01*
X0238537Y0120732D01*
X0238558Y0120541D01*
X0238583Y0120351D01*
X0238613Y0120161D01*
X0238647Y0119972D01*
X0238686Y0119784D01*
X0238730Y0119597D01*
X0238778Y0119411D01*
X0238830Y0119226D01*
X0238887Y0119042D01*
X0238948Y0118860D01*
X0239014Y0118680D01*
X0239084Y0118501D01*
X0239158Y0118323D01*
X0239236Y0118148D01*
X0239319Y0117974D01*
X0239406Y0117803D01*
X0239496Y0117634D01*
X0239591Y0117467D01*
X0239690Y0117302D01*
X0239793Y0117139D01*
X0239900Y0116980D01*
X0240010Y0116822D01*
X0240124Y0116668D01*
X0240242Y0116516D01*
X0240364Y0116367D01*
X0240489Y0116221D01*
X0240617Y0116079D01*
X0240749Y0115939D01*
X0240884Y0115802D01*
X0241023Y0115669D01*
X0241164Y0115539D01*
X0241309Y0115413D01*
X0241457Y0115290D01*
X0241607Y0115171D01*
X0241761Y0115055D01*
X0241917Y0114943D01*
X0242076Y0114835D01*
X0242237Y0114730D01*
X0242401Y0114630D01*
X0242567Y0114534D01*
X0242735Y0114441D01*
X0250469Y0114554D02*
X0250638Y0114653D01*
X0250804Y0114757D01*
X0250968Y0114864D01*
X0251129Y0114975D01*
X0251287Y0115090D01*
X0251442Y0115209D01*
X0251595Y0115332D01*
X0251744Y0115458D01*
X0251890Y0115588D01*
X0252033Y0115722D01*
X0252173Y0115859D01*
X0252309Y0115999D01*
X0252442Y0116143D01*
X0252571Y0116290D01*
X0252697Y0116440D01*
X0252818Y0116593D01*
X0252937Y0116749D01*
X0253051Y0116908D01*
X0253161Y0117069D01*
X0253267Y0117234D01*
X0253370Y0117400D01*
X0253468Y0117570D01*
X0253562Y0117741D01*
X0253652Y0117915D01*
X0253737Y0118091D01*
X0253819Y0118269D01*
X0253895Y0118449D01*
X0253968Y0118631D01*
X0254036Y0118814D01*
X0254099Y0118999D01*
X0254158Y0119186D01*
X0254212Y0119374D01*
X0254262Y0119563D01*
X0254307Y0119753D01*
X0254347Y0119945D01*
X0254383Y0120137D01*
X0254414Y0120330D01*
X0254440Y0120524D01*
X0254462Y0120719D01*
X0254478Y0120914D01*
X0254490Y0121109D01*
X0254498Y0121305D01*
X0254500Y0121500D01*
X0254498Y0121693D01*
X0254491Y0121886D01*
X0254479Y0122078D01*
X0254463Y0122271D01*
X0254442Y0122463D01*
X0254416Y0122654D01*
X0254386Y0122844D01*
X0254351Y0123034D01*
X0254312Y0123223D01*
X0254268Y0123411D01*
X0254220Y0123598D01*
X0254167Y0123784D01*
X0254110Y0123968D01*
X0254048Y0124151D01*
X0253982Y0124332D01*
X0253911Y0124512D01*
X0253837Y0124690D01*
X0253758Y0124866D01*
X0253674Y0125040D01*
X0253587Y0125212D01*
X0253495Y0125382D01*
X0253399Y0125549D01*
X0253300Y0125715D01*
X0253196Y0125878D01*
X0253089Y0126038D01*
X0252977Y0126195D01*
X0252862Y0126350D01*
X0252743Y0126502D01*
X0252621Y0126651D01*
X0252495Y0126798D01*
X0252365Y0126941D01*
X0252232Y0127081D01*
X0252096Y0127217D01*
X0251956Y0127351D01*
X0251814Y0127480D01*
X0251668Y0127607D01*
X0241378Y0127646D02*
X0241230Y0127519D01*
X0241085Y0127389D01*
X0240944Y0127256D01*
X0240805Y0127119D01*
X0240670Y0126979D01*
X0240539Y0126835D01*
X0240411Y0126688D01*
X0240286Y0126539D01*
X0240165Y0126386D01*
X0240048Y0126231D01*
X0239935Y0126072D01*
X0239826Y0125911D01*
X0239721Y0125747D01*
X0239619Y0125581D01*
X0239522Y0125412D01*
X0239429Y0125242D01*
X0239340Y0125068D01*
X0239255Y0124893D01*
X0239175Y0124716D01*
X0239099Y0124537D01*
X0239027Y0124356D01*
X0238960Y0124173D01*
X0238897Y0123989D01*
X0238839Y0123803D01*
X0238785Y0123616D01*
X0238736Y0123428D01*
X0238691Y0123238D01*
X0238651Y0123048D01*
X0238616Y0122856D01*
X0238585Y0122664D01*
X0238559Y0122471D01*
X0238538Y0122277D01*
X0238521Y0122083D01*
X0238509Y0121889D01*
X0238502Y0121695D01*
X0238500Y0121500D01*
X0280469Y0114554D02*
X0280638Y0114653D01*
X0280804Y0114757D01*
X0280968Y0114864D01*
X0281129Y0114975D01*
X0281287Y0115090D01*
X0281442Y0115209D01*
X0281595Y0115332D01*
X0281744Y0115458D01*
X0281890Y0115588D01*
X0282033Y0115722D01*
X0282173Y0115859D01*
X0282309Y0115999D01*
X0282442Y0116143D01*
X0282571Y0116290D01*
X0282697Y0116440D01*
X0282818Y0116593D01*
X0282937Y0116749D01*
X0283051Y0116908D01*
X0283161Y0117069D01*
X0283267Y0117234D01*
X0283370Y0117400D01*
X0283468Y0117570D01*
X0283562Y0117741D01*
X0283652Y0117915D01*
X0283737Y0118091D01*
X0283819Y0118269D01*
X0283895Y0118449D01*
X0283968Y0118631D01*
X0284036Y0118814D01*
X0284099Y0118999D01*
X0284158Y0119186D01*
X0284212Y0119374D01*
X0284262Y0119563D01*
X0284307Y0119753D01*
X0284347Y0119945D01*
X0284383Y0120137D01*
X0284414Y0120330D01*
X0284440Y0120524D01*
X0284462Y0120719D01*
X0284478Y0120914D01*
X0284490Y0121109D01*
X0284498Y0121305D01*
X0284500Y0121500D01*
X0272735Y0114441D02*
X0272567Y0114534D01*
X0272401Y0114630D01*
X0272237Y0114730D01*
X0272076Y0114835D01*
X0271917Y0114943D01*
X0271761Y0115055D01*
X0271607Y0115171D01*
X0271457Y0115290D01*
X0271309Y0115413D01*
X0271164Y0115539D01*
X0271023Y0115669D01*
X0270884Y0115802D01*
X0270749Y0115939D01*
X0270617Y0116079D01*
X0270489Y0116221D01*
X0270364Y0116367D01*
X0270242Y0116516D01*
X0270124Y0116668D01*
X0270010Y0116822D01*
X0269900Y0116980D01*
X0269793Y0117139D01*
X0269690Y0117302D01*
X0269591Y0117467D01*
X0269496Y0117634D01*
X0269406Y0117803D01*
X0269319Y0117974D01*
X0269236Y0118148D01*
X0269158Y0118323D01*
X0269084Y0118501D01*
X0269014Y0118680D01*
X0268948Y0118860D01*
X0268887Y0119042D01*
X0268830Y0119226D01*
X0268778Y0119411D01*
X0268730Y0119597D01*
X0268686Y0119784D01*
X0268647Y0119972D01*
X0268613Y0120161D01*
X0268583Y0120351D01*
X0268558Y0120541D01*
X0268537Y0120732D01*
X0268521Y0120924D01*
X0268509Y0121116D01*
X0268502Y0121308D01*
X0268500Y0121500D01*
X0281668Y0127607D02*
X0281814Y0127480D01*
X0281956Y0127351D01*
X0282096Y0127217D01*
X0282232Y0127081D01*
X0282365Y0126941D01*
X0282495Y0126798D01*
X0282621Y0126651D01*
X0282743Y0126502D01*
X0282862Y0126350D01*
X0282977Y0126195D01*
X0283089Y0126038D01*
X0283196Y0125878D01*
X0283300Y0125715D01*
X0283399Y0125549D01*
X0283495Y0125382D01*
X0283587Y0125212D01*
X0283674Y0125040D01*
X0283758Y0124866D01*
X0283837Y0124690D01*
X0283911Y0124512D01*
X0283982Y0124332D01*
X0284048Y0124151D01*
X0284110Y0123968D01*
X0284167Y0123784D01*
X0284220Y0123598D01*
X0284268Y0123411D01*
X0284312Y0123223D01*
X0284351Y0123034D01*
X0284386Y0122844D01*
X0284416Y0122654D01*
X0284442Y0122463D01*
X0284463Y0122271D01*
X0284479Y0122078D01*
X0284491Y0121886D01*
X0284498Y0121693D01*
X0284500Y0121500D01*
X0271378Y0127646D02*
X0271230Y0127519D01*
X0271085Y0127389D01*
X0270944Y0127256D01*
X0270805Y0127119D01*
X0270670Y0126979D01*
X0270539Y0126835D01*
X0270411Y0126688D01*
X0270286Y0126539D01*
X0270165Y0126386D01*
X0270048Y0126231D01*
X0269935Y0126072D01*
X0269826Y0125911D01*
X0269721Y0125747D01*
X0269619Y0125581D01*
X0269522Y0125412D01*
X0269429Y0125242D01*
X0269340Y0125068D01*
X0269255Y0124893D01*
X0269175Y0124716D01*
X0269099Y0124537D01*
X0269027Y0124356D01*
X0268960Y0124173D01*
X0268897Y0123989D01*
X0268839Y0123803D01*
X0268785Y0123616D01*
X0268736Y0123428D01*
X0268691Y0123238D01*
X0268651Y0123048D01*
X0268616Y0122856D01*
X0268585Y0122664D01*
X0268559Y0122471D01*
X0268538Y0122277D01*
X0268521Y0122083D01*
X0268509Y0121889D01*
X0268502Y0121695D01*
X0268500Y0121500D01*
X0280469Y0134554D02*
X0280638Y0134653D01*
X0280804Y0134757D01*
X0280968Y0134864D01*
X0281129Y0134975D01*
X0281287Y0135090D01*
X0281442Y0135209D01*
X0281595Y0135332D01*
X0281744Y0135458D01*
X0281890Y0135588D01*
X0282033Y0135722D01*
X0282173Y0135859D01*
X0282309Y0135999D01*
X0282442Y0136143D01*
X0282571Y0136290D01*
X0282697Y0136440D01*
X0282818Y0136593D01*
X0282937Y0136749D01*
X0283051Y0136908D01*
X0283161Y0137069D01*
X0283267Y0137234D01*
X0283370Y0137400D01*
X0283468Y0137570D01*
X0283562Y0137741D01*
X0283652Y0137915D01*
X0283737Y0138091D01*
X0283819Y0138269D01*
X0283895Y0138449D01*
X0283968Y0138631D01*
X0284036Y0138814D01*
X0284099Y0138999D01*
X0284158Y0139186D01*
X0284212Y0139374D01*
X0284262Y0139563D01*
X0284307Y0139753D01*
X0284347Y0139945D01*
X0284383Y0140137D01*
X0284414Y0140330D01*
X0284440Y0140524D01*
X0284462Y0140719D01*
X0284478Y0140914D01*
X0284490Y0141109D01*
X0284498Y0141305D01*
X0284500Y0141500D01*
X0272735Y0134441D02*
X0272567Y0134534D01*
X0272401Y0134630D01*
X0272237Y0134730D01*
X0272076Y0134835D01*
X0271917Y0134943D01*
X0271761Y0135055D01*
X0271607Y0135171D01*
X0271457Y0135290D01*
X0271309Y0135413D01*
X0271164Y0135539D01*
X0271023Y0135669D01*
X0270884Y0135802D01*
X0270749Y0135939D01*
X0270617Y0136079D01*
X0270489Y0136221D01*
X0270364Y0136367D01*
X0270242Y0136516D01*
X0270124Y0136668D01*
X0270010Y0136822D01*
X0269900Y0136980D01*
X0269793Y0137139D01*
X0269690Y0137302D01*
X0269591Y0137467D01*
X0269496Y0137634D01*
X0269406Y0137803D01*
X0269319Y0137974D01*
X0269236Y0138148D01*
X0269158Y0138323D01*
X0269084Y0138501D01*
X0269014Y0138680D01*
X0268948Y0138860D01*
X0268887Y0139042D01*
X0268830Y0139226D01*
X0268778Y0139411D01*
X0268730Y0139597D01*
X0268686Y0139784D01*
X0268647Y0139972D01*
X0268613Y0140161D01*
X0268583Y0140351D01*
X0268558Y0140541D01*
X0268537Y0140732D01*
X0268521Y0140924D01*
X0268509Y0141116D01*
X0268502Y0141308D01*
X0268500Y0141500D01*
X0281668Y0147607D02*
X0281814Y0147480D01*
X0281956Y0147351D01*
X0282096Y0147217D01*
X0282232Y0147081D01*
X0282365Y0146941D01*
X0282495Y0146798D01*
X0282621Y0146651D01*
X0282743Y0146502D01*
X0282862Y0146350D01*
X0282977Y0146195D01*
X0283089Y0146038D01*
X0283196Y0145878D01*
X0283300Y0145715D01*
X0283399Y0145549D01*
X0283495Y0145382D01*
X0283587Y0145212D01*
X0283674Y0145040D01*
X0283758Y0144866D01*
X0283837Y0144690D01*
X0283911Y0144512D01*
X0283982Y0144332D01*
X0284048Y0144151D01*
X0284110Y0143968D01*
X0284167Y0143784D01*
X0284220Y0143598D01*
X0284268Y0143411D01*
X0284312Y0143223D01*
X0284351Y0143034D01*
X0284386Y0142844D01*
X0284416Y0142654D01*
X0284442Y0142463D01*
X0284463Y0142271D01*
X0284479Y0142078D01*
X0284491Y0141886D01*
X0284498Y0141693D01*
X0284500Y0141500D01*
X0271378Y0147646D02*
X0271230Y0147519D01*
X0271085Y0147389D01*
X0270944Y0147256D01*
X0270805Y0147119D01*
X0270670Y0146979D01*
X0270539Y0146835D01*
X0270411Y0146688D01*
X0270286Y0146539D01*
X0270165Y0146386D01*
X0270048Y0146231D01*
X0269935Y0146072D01*
X0269826Y0145911D01*
X0269721Y0145747D01*
X0269619Y0145581D01*
X0269522Y0145412D01*
X0269429Y0145242D01*
X0269340Y0145068D01*
X0269255Y0144893D01*
X0269175Y0144716D01*
X0269099Y0144537D01*
X0269027Y0144356D01*
X0268960Y0144173D01*
X0268897Y0143989D01*
X0268839Y0143803D01*
X0268785Y0143616D01*
X0268736Y0143428D01*
X0268691Y0143238D01*
X0268651Y0143048D01*
X0268616Y0142856D01*
X0268585Y0142664D01*
X0268559Y0142471D01*
X0268538Y0142277D01*
X0268521Y0142083D01*
X0268509Y0141889D01*
X0268502Y0141695D01*
X0268500Y0141500D01*
X0193446Y0180469D02*
X0193347Y0180638D01*
X0193243Y0180804D01*
X0193136Y0180968D01*
X0193025Y0181129D01*
X0192910Y0181287D01*
X0192791Y0181442D01*
X0192668Y0181595D01*
X0192542Y0181744D01*
X0192412Y0181890D01*
X0192278Y0182033D01*
X0192141Y0182173D01*
X0192001Y0182309D01*
X0191857Y0182442D01*
X0191710Y0182571D01*
X0191560Y0182697D01*
X0191407Y0182818D01*
X0191251Y0182937D01*
X0191092Y0183051D01*
X0190931Y0183161D01*
X0190766Y0183267D01*
X0190600Y0183370D01*
X0190430Y0183468D01*
X0190259Y0183562D01*
X0190085Y0183652D01*
X0189909Y0183737D01*
X0189731Y0183819D01*
X0189551Y0183895D01*
X0189369Y0183968D01*
X0189186Y0184036D01*
X0189001Y0184099D01*
X0188814Y0184158D01*
X0188626Y0184212D01*
X0188437Y0184262D01*
X0188247Y0184307D01*
X0188055Y0184347D01*
X0187863Y0184383D01*
X0187670Y0184414D01*
X0187476Y0184440D01*
X0187281Y0184462D01*
X0187086Y0184478D01*
X0186891Y0184490D01*
X0186695Y0184498D01*
X0186500Y0184500D01*
X0193559Y0172735D02*
X0193466Y0172567D01*
X0193370Y0172401D01*
X0193270Y0172237D01*
X0193165Y0172076D01*
X0193057Y0171917D01*
X0192945Y0171761D01*
X0192829Y0171607D01*
X0192710Y0171457D01*
X0192587Y0171309D01*
X0192461Y0171164D01*
X0192331Y0171023D01*
X0192198Y0170884D01*
X0192061Y0170749D01*
X0191921Y0170617D01*
X0191779Y0170489D01*
X0191633Y0170364D01*
X0191484Y0170242D01*
X0191332Y0170124D01*
X0191178Y0170010D01*
X0191020Y0169900D01*
X0190861Y0169793D01*
X0190698Y0169690D01*
X0190533Y0169591D01*
X0190366Y0169496D01*
X0190197Y0169406D01*
X0190026Y0169319D01*
X0189852Y0169236D01*
X0189677Y0169158D01*
X0189499Y0169084D01*
X0189320Y0169014D01*
X0189140Y0168948D01*
X0188958Y0168887D01*
X0188774Y0168830D01*
X0188589Y0168778D01*
X0188403Y0168730D01*
X0188216Y0168686D01*
X0188028Y0168647D01*
X0187839Y0168613D01*
X0187649Y0168583D01*
X0187459Y0168558D01*
X0187268Y0168537D01*
X0187076Y0168521D01*
X0186884Y0168509D01*
X0186692Y0168502D01*
X0186500Y0168500D01*
X0180393Y0181668D02*
X0180520Y0181814D01*
X0180649Y0181956D01*
X0180783Y0182096D01*
X0180919Y0182232D01*
X0181059Y0182365D01*
X0181202Y0182495D01*
X0181349Y0182621D01*
X0181498Y0182743D01*
X0181650Y0182862D01*
X0181805Y0182977D01*
X0181962Y0183089D01*
X0182122Y0183196D01*
X0182285Y0183300D01*
X0182451Y0183399D01*
X0182618Y0183495D01*
X0182788Y0183587D01*
X0182960Y0183674D01*
X0183134Y0183758D01*
X0183310Y0183837D01*
X0183488Y0183911D01*
X0183668Y0183982D01*
X0183849Y0184048D01*
X0184032Y0184110D01*
X0184216Y0184167D01*
X0184402Y0184220D01*
X0184589Y0184268D01*
X0184777Y0184312D01*
X0184966Y0184351D01*
X0185156Y0184386D01*
X0185346Y0184416D01*
X0185537Y0184442D01*
X0185729Y0184463D01*
X0185922Y0184479D01*
X0186114Y0184491D01*
X0186307Y0184498D01*
X0186500Y0184500D01*
X0180354Y0171378D02*
X0180481Y0171230D01*
X0180611Y0171085D01*
X0180744Y0170944D01*
X0180881Y0170805D01*
X0181021Y0170670D01*
X0181165Y0170539D01*
X0181312Y0170411D01*
X0181461Y0170286D01*
X0181614Y0170165D01*
X0181769Y0170048D01*
X0181928Y0169935D01*
X0182089Y0169826D01*
X0182253Y0169721D01*
X0182419Y0169619D01*
X0182588Y0169522D01*
X0182758Y0169429D01*
X0182932Y0169340D01*
X0183107Y0169255D01*
X0183284Y0169175D01*
X0183463Y0169099D01*
X0183644Y0169027D01*
X0183827Y0168960D01*
X0184011Y0168897D01*
X0184197Y0168839D01*
X0184384Y0168785D01*
X0184572Y0168736D01*
X0184762Y0168691D01*
X0184952Y0168651D01*
X0185144Y0168616D01*
X0185336Y0168585D01*
X0185529Y0168559D01*
X0185723Y0168538D01*
X0185917Y0168521D01*
X0186111Y0168509D01*
X0186305Y0168502D01*
X0186500Y0168500D01*
X0162500Y0183500D02*
X0162500Y0186500D01*
X0162500Y0189500D01*
X0160500Y0189500D02*
X0160500Y0186500D01*
X0160500Y0183500D01*
D14*
X0119000Y0168500D02*
X0086500Y0168500D01*
X0086500Y0204500D01*
X0119000Y0204500D01*
X0119000Y0168500D01*
X0054500Y0151500D02*
X0054500Y0119000D01*
X0018500Y0119000D01*
X0018500Y0151500D01*
X0054500Y0151500D01*
X0225268Y0065157D02*
X0225353Y0064946D01*
X0225433Y0064733D01*
X0225508Y0064518D01*
X0225577Y0064302D01*
X0225642Y0064084D01*
X0225701Y0063864D01*
X0225755Y0063643D01*
X0225804Y0063421D01*
X0225847Y0063197D01*
X0225885Y0062973D01*
X0225918Y0062748D01*
X0225945Y0062522D01*
X0225967Y0062295D01*
X0225983Y0062068D01*
X0225994Y0061841D01*
X0225999Y0061614D01*
X0225999Y0061386D01*
X0225994Y0061159D01*
X0225983Y0060932D01*
X0225967Y0060705D01*
X0225945Y0060478D01*
X0225918Y0060252D01*
X0225885Y0060027D01*
X0225847Y0059803D01*
X0225804Y0059579D01*
X0225755Y0059357D01*
X0225701Y0059136D01*
X0225642Y0058916D01*
X0225577Y0058698D01*
X0225508Y0058482D01*
X0225433Y0058267D01*
X0225353Y0058054D01*
X0225268Y0057843D01*
X0220157Y0070268D02*
X0219943Y0070354D01*
X0219726Y0070435D01*
X0219508Y0070511D01*
X0219287Y0070582D01*
X0219065Y0070647D01*
X0218842Y0070707D01*
X0218617Y0070761D01*
X0218391Y0070810D01*
X0218164Y0070853D01*
X0217936Y0070891D01*
X0217707Y0070923D01*
X0217477Y0070950D01*
X0217247Y0070971D01*
X0217016Y0070986D01*
X0216785Y0070996D01*
X0216554Y0071000D01*
X0216323Y0070998D01*
X0216092Y0070991D01*
X0215861Y0070978D01*
X0215630Y0070960D01*
X0215400Y0070936D01*
X0215171Y0070907D01*
X0214942Y0070871D01*
X0214715Y0070831D01*
X0214488Y0070785D01*
X0214263Y0070733D01*
X0214039Y0070676D01*
X0213816Y0070613D01*
X0213595Y0070545D01*
X0213376Y0070472D01*
X0213158Y0070393D01*
X0212943Y0070309D01*
X0212730Y0070220D01*
X0212519Y0070125D01*
X0212310Y0070026D01*
X0212104Y0069921D01*
X0211900Y0069812D01*
X0211699Y0069698D01*
X0211501Y0069578D01*
X0211306Y0069454D01*
X0211114Y0069325D01*
X0210925Y0069192D01*
X0210739Y0069054D01*
X0210557Y0068912D01*
X0210378Y0068765D01*
X0210203Y0068614D01*
X0210032Y0068458D01*
X0209865Y0068299D01*
X0209701Y0068135D01*
X0209542Y0067968D01*
X0209386Y0067797D01*
X0209235Y0067622D01*
X0209088Y0067443D01*
X0208946Y0067261D01*
X0208808Y0067075D01*
X0208675Y0066886D01*
X0208546Y0066694D01*
X0208422Y0066499D01*
X0208302Y0066301D01*
X0208188Y0066100D01*
X0208079Y0065896D01*
X0207974Y0065690D01*
X0207875Y0065481D01*
X0207780Y0065270D01*
X0207691Y0065057D01*
X0207607Y0064842D01*
X0207528Y0064624D01*
X0207455Y0064405D01*
X0207387Y0064184D01*
X0207324Y0063961D01*
X0207267Y0063737D01*
X0207215Y0063512D01*
X0207169Y0063285D01*
X0207129Y0063058D01*
X0207093Y0062829D01*
X0207064Y0062600D01*
X0207040Y0062370D01*
X0207022Y0062139D01*
X0207009Y0061908D01*
X0207002Y0061677D01*
X0207000Y0061446D01*
X0207004Y0061215D01*
X0207014Y0060984D01*
X0207029Y0060753D01*
X0207050Y0060523D01*
X0207077Y0060293D01*
X0207109Y0060064D01*
X0207147Y0059836D01*
X0207190Y0059609D01*
X0207239Y0059383D01*
X0207293Y0059158D01*
X0207353Y0058935D01*
X0207418Y0058713D01*
X0207489Y0058492D01*
X0207565Y0058274D01*
X0207646Y0058057D01*
X0207732Y0057843D01*
X0212843Y0052732D02*
X0213054Y0052647D01*
X0213267Y0052567D01*
X0213482Y0052492D01*
X0213698Y0052423D01*
X0213916Y0052358D01*
X0214136Y0052299D01*
X0214357Y0052245D01*
X0214579Y0052196D01*
X0214803Y0052153D01*
X0215027Y0052115D01*
X0215252Y0052082D01*
X0215478Y0052055D01*
X0215705Y0052033D01*
X0215932Y0052017D01*
X0216159Y0052006D01*
X0216386Y0052001D01*
X0216614Y0052001D01*
X0216841Y0052006D01*
X0217068Y0052017D01*
X0217295Y0052033D01*
X0217522Y0052055D01*
X0217748Y0052082D01*
X0217973Y0052115D01*
X0218197Y0052153D01*
X0218421Y0052196D01*
X0218643Y0052245D01*
X0218864Y0052299D01*
X0219084Y0052358D01*
X0219302Y0052423D01*
X0219518Y0052492D01*
X0219733Y0052567D01*
X0219946Y0052647D01*
X0220157Y0052732D01*
X0255268Y0057843D02*
X0255353Y0058054D01*
X0255433Y0058267D01*
X0255508Y0058482D01*
X0255577Y0058698D01*
X0255642Y0058916D01*
X0255701Y0059136D01*
X0255755Y0059357D01*
X0255804Y0059579D01*
X0255847Y0059803D01*
X0255885Y0060027D01*
X0255918Y0060252D01*
X0255945Y0060478D01*
X0255967Y0060705D01*
X0255983Y0060932D01*
X0255994Y0061159D01*
X0255999Y0061386D01*
X0255999Y0061614D01*
X0255994Y0061841D01*
X0255983Y0062068D01*
X0255967Y0062295D01*
X0255945Y0062522D01*
X0255918Y0062748D01*
X0255885Y0062973D01*
X0255847Y0063197D01*
X0255804Y0063421D01*
X0255755Y0063643D01*
X0255701Y0063864D01*
X0255642Y0064084D01*
X0255577Y0064302D01*
X0255508Y0064518D01*
X0255433Y0064733D01*
X0255353Y0064946D01*
X0255268Y0065157D01*
X0250157Y0070268D02*
X0249943Y0070354D01*
X0249726Y0070435D01*
X0249508Y0070511D01*
X0249287Y0070582D01*
X0249065Y0070647D01*
X0248842Y0070707D01*
X0248617Y0070761D01*
X0248391Y0070810D01*
X0248164Y0070853D01*
X0247936Y0070891D01*
X0247707Y0070923D01*
X0247477Y0070950D01*
X0247247Y0070971D01*
X0247016Y0070986D01*
X0246785Y0070996D01*
X0246554Y0071000D01*
X0246323Y0070998D01*
X0246092Y0070991D01*
X0245861Y0070978D01*
X0245630Y0070960D01*
X0245400Y0070936D01*
X0245171Y0070907D01*
X0244942Y0070871D01*
X0244715Y0070831D01*
X0244488Y0070785D01*
X0244263Y0070733D01*
X0244039Y0070676D01*
X0243816Y0070613D01*
X0243595Y0070545D01*
X0243376Y0070472D01*
X0243158Y0070393D01*
X0242943Y0070309D01*
X0242730Y0070220D01*
X0242519Y0070125D01*
X0242310Y0070026D01*
X0242104Y0069921D01*
X0241900Y0069812D01*
X0241699Y0069698D01*
X0241501Y0069578D01*
X0241306Y0069454D01*
X0241114Y0069325D01*
X0240925Y0069192D01*
X0240739Y0069054D01*
X0240557Y0068912D01*
X0240378Y0068765D01*
X0240203Y0068614D01*
X0240032Y0068458D01*
X0239865Y0068299D01*
X0239701Y0068135D01*
X0239542Y0067968D01*
X0239386Y0067797D01*
X0239235Y0067622D01*
X0239088Y0067443D01*
X0238946Y0067261D01*
X0238808Y0067075D01*
X0238675Y0066886D01*
X0238546Y0066694D01*
X0238422Y0066499D01*
X0238302Y0066301D01*
X0238188Y0066100D01*
X0238079Y0065896D01*
X0237974Y0065690D01*
X0237875Y0065481D01*
X0237780Y0065270D01*
X0237691Y0065057D01*
X0237607Y0064842D01*
X0237528Y0064624D01*
X0237455Y0064405D01*
X0237387Y0064184D01*
X0237324Y0063961D01*
X0237267Y0063737D01*
X0237215Y0063512D01*
X0237169Y0063285D01*
X0237129Y0063058D01*
X0237093Y0062829D01*
X0237064Y0062600D01*
X0237040Y0062370D01*
X0237022Y0062139D01*
X0237009Y0061908D01*
X0237002Y0061677D01*
X0237000Y0061446D01*
X0237004Y0061215D01*
X0237014Y0060984D01*
X0237029Y0060753D01*
X0237050Y0060523D01*
X0237077Y0060293D01*
X0237109Y0060064D01*
X0237147Y0059836D01*
X0237190Y0059609D01*
X0237239Y0059383D01*
X0237293Y0059158D01*
X0237353Y0058935D01*
X0237418Y0058713D01*
X0237489Y0058492D01*
X0237565Y0058274D01*
X0237646Y0058057D01*
X0237732Y0057843D01*
X0242843Y0052732D02*
X0243054Y0052647D01*
X0243267Y0052567D01*
X0243482Y0052492D01*
X0243698Y0052423D01*
X0243916Y0052358D01*
X0244136Y0052299D01*
X0244357Y0052245D01*
X0244579Y0052196D01*
X0244803Y0052153D01*
X0245027Y0052115D01*
X0245252Y0052082D01*
X0245478Y0052055D01*
X0245705Y0052033D01*
X0245932Y0052017D01*
X0246159Y0052006D01*
X0246386Y0052001D01*
X0246614Y0052001D01*
X0246841Y0052006D01*
X0247068Y0052017D01*
X0247295Y0052033D01*
X0247522Y0052055D01*
X0247748Y0052082D01*
X0247973Y0052115D01*
X0248197Y0052153D01*
X0248421Y0052196D01*
X0248643Y0052245D01*
X0248864Y0052299D01*
X0249084Y0052358D01*
X0249302Y0052423D01*
X0249518Y0052492D01*
X0249733Y0052567D01*
X0249946Y0052647D01*
X0250157Y0052732D01*
X0285268Y0057843D02*
X0285353Y0058054D01*
X0285433Y0058267D01*
X0285508Y0058482D01*
X0285577Y0058698D01*
X0285642Y0058916D01*
X0285701Y0059136D01*
X0285755Y0059357D01*
X0285804Y0059579D01*
X0285847Y0059803D01*
X0285885Y0060027D01*
X0285918Y0060252D01*
X0285945Y0060478D01*
X0285967Y0060705D01*
X0285983Y0060932D01*
X0285994Y0061159D01*
X0285999Y0061386D01*
X0285999Y0061614D01*
X0285994Y0061841D01*
X0285983Y0062068D01*
X0285967Y0062295D01*
X0285945Y0062522D01*
X0285918Y0062748D01*
X0285885Y0062973D01*
X0285847Y0063197D01*
X0285804Y0063421D01*
X0285755Y0063643D01*
X0285701Y0063864D01*
X0285642Y0064084D01*
X0285577Y0064302D01*
X0285508Y0064518D01*
X0285433Y0064733D01*
X0285353Y0064946D01*
X0285268Y0065157D01*
X0280157Y0070268D02*
X0279943Y0070354D01*
X0279726Y0070435D01*
X0279508Y0070511D01*
X0279287Y0070582D01*
X0279065Y0070647D01*
X0278842Y0070707D01*
X0278617Y0070761D01*
X0278391Y0070810D01*
X0278164Y0070853D01*
X0277936Y0070891D01*
X0277707Y0070923D01*
X0277477Y0070950D01*
X0277247Y0070971D01*
X0277016Y0070986D01*
X0276785Y0070996D01*
X0276554Y0071000D01*
X0276323Y0070998D01*
X0276092Y0070991D01*
X0275861Y0070978D01*
X0275630Y0070960D01*
X0275400Y0070936D01*
X0275171Y0070907D01*
X0274942Y0070871D01*
X0274715Y0070831D01*
X0274488Y0070785D01*
X0274263Y0070733D01*
X0274039Y0070676D01*
X0273816Y0070613D01*
X0273595Y0070545D01*
X0273376Y0070472D01*
X0273158Y0070393D01*
X0272943Y0070309D01*
X0272730Y0070220D01*
X0272519Y0070125D01*
X0272310Y0070026D01*
X0272104Y0069921D01*
X0271900Y0069812D01*
X0271699Y0069698D01*
X0271501Y0069578D01*
X0271306Y0069454D01*
X0271114Y0069325D01*
X0270925Y0069192D01*
X0270739Y0069054D01*
X0270557Y0068912D01*
X0270378Y0068765D01*
X0270203Y0068614D01*
X0270032Y0068458D01*
X0269865Y0068299D01*
X0269701Y0068135D01*
X0269542Y0067968D01*
X0269386Y0067797D01*
X0269235Y0067622D01*
X0269088Y0067443D01*
X0268946Y0067261D01*
X0268808Y0067075D01*
X0268675Y0066886D01*
X0268546Y0066694D01*
X0268422Y0066499D01*
X0268302Y0066301D01*
X0268188Y0066100D01*
X0268079Y0065896D01*
X0267974Y0065690D01*
X0267875Y0065481D01*
X0267780Y0065270D01*
X0267691Y0065057D01*
X0267607Y0064842D01*
X0267528Y0064624D01*
X0267455Y0064405D01*
X0267387Y0064184D01*
X0267324Y0063961D01*
X0267267Y0063737D01*
X0267215Y0063512D01*
X0267169Y0063285D01*
X0267129Y0063058D01*
X0267093Y0062829D01*
X0267064Y0062600D01*
X0267040Y0062370D01*
X0267022Y0062139D01*
X0267009Y0061908D01*
X0267002Y0061677D01*
X0267000Y0061446D01*
X0267004Y0061215D01*
X0267014Y0060984D01*
X0267029Y0060753D01*
X0267050Y0060523D01*
X0267077Y0060293D01*
X0267109Y0060064D01*
X0267147Y0059836D01*
X0267190Y0059609D01*
X0267239Y0059383D01*
X0267293Y0059158D01*
X0267353Y0058935D01*
X0267418Y0058713D01*
X0267489Y0058492D01*
X0267565Y0058274D01*
X0267646Y0058057D01*
X0267732Y0057843D01*
X0272843Y0052732D02*
X0273054Y0052647D01*
X0273267Y0052567D01*
X0273482Y0052492D01*
X0273698Y0052423D01*
X0273916Y0052358D01*
X0274136Y0052299D01*
X0274357Y0052245D01*
X0274579Y0052196D01*
X0274803Y0052153D01*
X0275027Y0052115D01*
X0275252Y0052082D01*
X0275478Y0052055D01*
X0275705Y0052033D01*
X0275932Y0052017D01*
X0276159Y0052006D01*
X0276386Y0052001D01*
X0276614Y0052001D01*
X0276841Y0052006D01*
X0277068Y0052017D01*
X0277295Y0052033D01*
X0277522Y0052055D01*
X0277748Y0052082D01*
X0277973Y0052115D01*
X0278197Y0052153D01*
X0278421Y0052196D01*
X0278643Y0052245D01*
X0278864Y0052299D01*
X0279084Y0052358D01*
X0279302Y0052423D01*
X0279518Y0052492D01*
X0279733Y0052567D01*
X0279946Y0052647D01*
X0280157Y0052732D01*
D15*
X0046500Y0104250D03*
X0036500Y0104250D03*
X0026500Y0104250D03*
D16*
X0026500Y0111000D03*
X0036500Y0111000D03*
X0046500Y0111000D03*
D17*
X0029571Y0061854D02*
X0029571Y0005555D01*
X0063429Y0005555D01*
X0063429Y0036854D01*
X0063429Y0055555D02*
X0063429Y0061854D01*
X0057130Y0061854D01*
X0035870Y0061854D02*
X0029571Y0061854D01*
D18*
X0201000Y0063500D02*
X0201000Y0059500D01*
X0205175Y0059500D01*
X0205175Y0063500D02*
X0201000Y0063500D01*
X0205000Y0061500D02*
X0205003Y0061782D01*
X0205014Y0062064D01*
X0205031Y0062346D01*
X0205055Y0062627D01*
X0205086Y0062908D01*
X0205124Y0063187D01*
X0205169Y0063466D01*
X0205221Y0063744D01*
X0205279Y0064020D01*
X0205345Y0064294D01*
X0205417Y0064567D01*
X0205495Y0064838D01*
X0205580Y0065107D01*
X0205672Y0065374D01*
X0205771Y0065639D01*
X0205875Y0065901D01*
X0205987Y0066160D01*
X0206104Y0066417D01*
X0206228Y0066671D01*
X0206358Y0066921D01*
X0206494Y0067168D01*
X0206636Y0067412D01*
X0206784Y0067652D01*
X0206938Y0067889D01*
X0207098Y0068122D01*
X0207263Y0068351D01*
X0207434Y0068575D01*
X0207610Y0068796D01*
X0207792Y0069011D01*
X0207979Y0069223D01*
X0208171Y0069430D01*
X0208368Y0069632D01*
X0208570Y0069829D01*
X0208777Y0070021D01*
X0208989Y0070208D01*
X0209204Y0070390D01*
X0209425Y0070566D01*
X0209649Y0070737D01*
X0209878Y0070902D01*
X0210111Y0071062D01*
X0210348Y0071216D01*
X0210588Y0071364D01*
X0210832Y0071506D01*
X0211079Y0071642D01*
X0211329Y0071772D01*
X0211583Y0071896D01*
X0211840Y0072013D01*
X0212099Y0072125D01*
X0212361Y0072229D01*
X0212626Y0072328D01*
X0212893Y0072420D01*
X0213162Y0072505D01*
X0213433Y0072583D01*
X0213706Y0072655D01*
X0213980Y0072721D01*
X0214256Y0072779D01*
X0214534Y0072831D01*
X0214813Y0072876D01*
X0215092Y0072914D01*
X0215373Y0072945D01*
X0215654Y0072969D01*
X0215936Y0072986D01*
X0216218Y0072997D01*
X0216500Y0073000D01*
X0216782Y0072997D01*
X0217064Y0072986D01*
X0217346Y0072969D01*
X0217627Y0072945D01*
X0217908Y0072914D01*
X0218187Y0072876D01*
X0218466Y0072831D01*
X0218744Y0072779D01*
X0219020Y0072721D01*
X0219294Y0072655D01*
X0219567Y0072583D01*
X0219838Y0072505D01*
X0220107Y0072420D01*
X0220374Y0072328D01*
X0220639Y0072229D01*
X0220901Y0072125D01*
X0221160Y0072013D01*
X0221417Y0071896D01*
X0221671Y0071772D01*
X0221921Y0071642D01*
X0222168Y0071506D01*
X0222412Y0071364D01*
X0222652Y0071216D01*
X0222889Y0071062D01*
X0223122Y0070902D01*
X0223351Y0070737D01*
X0223575Y0070566D01*
X0223796Y0070390D01*
X0224011Y0070208D01*
X0224223Y0070021D01*
X0224430Y0069829D01*
X0224632Y0069632D01*
X0224829Y0069430D01*
X0225021Y0069223D01*
X0225208Y0069011D01*
X0225390Y0068796D01*
X0225566Y0068575D01*
X0225737Y0068351D01*
X0225902Y0068122D01*
X0226062Y0067889D01*
X0226216Y0067652D01*
X0226364Y0067412D01*
X0226506Y0067168D01*
X0226642Y0066921D01*
X0226772Y0066671D01*
X0226896Y0066417D01*
X0227013Y0066160D01*
X0227125Y0065901D01*
X0227229Y0065639D01*
X0227328Y0065374D01*
X0227420Y0065107D01*
X0227505Y0064838D01*
X0227583Y0064567D01*
X0227655Y0064294D01*
X0227721Y0064020D01*
X0227779Y0063744D01*
X0227831Y0063466D01*
X0227876Y0063187D01*
X0227914Y0062908D01*
X0227945Y0062627D01*
X0227969Y0062346D01*
X0227986Y0062064D01*
X0227997Y0061782D01*
X0228000Y0061500D01*
X0227997Y0061218D01*
X0227986Y0060936D01*
X0227969Y0060654D01*
X0227945Y0060373D01*
X0227914Y0060092D01*
X0227876Y0059813D01*
X0227831Y0059534D01*
X0227779Y0059256D01*
X0227721Y0058980D01*
X0227655Y0058706D01*
X0227583Y0058433D01*
X0227505Y0058162D01*
X0227420Y0057893D01*
X0227328Y0057626D01*
X0227229Y0057361D01*
X0227125Y0057099D01*
X0227013Y0056840D01*
X0226896Y0056583D01*
X0226772Y0056329D01*
X0226642Y0056079D01*
X0226506Y0055832D01*
X0226364Y0055588D01*
X0226216Y0055348D01*
X0226062Y0055111D01*
X0225902Y0054878D01*
X0225737Y0054649D01*
X0225566Y0054425D01*
X0225390Y0054204D01*
X0225208Y0053989D01*
X0225021Y0053777D01*
X0224829Y0053570D01*
X0224632Y0053368D01*
X0224430Y0053171D01*
X0224223Y0052979D01*
X0224011Y0052792D01*
X0223796Y0052610D01*
X0223575Y0052434D01*
X0223351Y0052263D01*
X0223122Y0052098D01*
X0222889Y0051938D01*
X0222652Y0051784D01*
X0222412Y0051636D01*
X0222168Y0051494D01*
X0221921Y0051358D01*
X0221671Y0051228D01*
X0221417Y0051104D01*
X0221160Y0050987D01*
X0220901Y0050875D01*
X0220639Y0050771D01*
X0220374Y0050672D01*
X0220107Y0050580D01*
X0219838Y0050495D01*
X0219567Y0050417D01*
X0219294Y0050345D01*
X0219020Y0050279D01*
X0218744Y0050221D01*
X0218466Y0050169D01*
X0218187Y0050124D01*
X0217908Y0050086D01*
X0217627Y0050055D01*
X0217346Y0050031D01*
X0217064Y0050014D01*
X0216782Y0050003D01*
X0216500Y0050000D01*
X0216218Y0050003D01*
X0215936Y0050014D01*
X0215654Y0050031D01*
X0215373Y0050055D01*
X0215092Y0050086D01*
X0214813Y0050124D01*
X0214534Y0050169D01*
X0214256Y0050221D01*
X0213980Y0050279D01*
X0213706Y0050345D01*
X0213433Y0050417D01*
X0213162Y0050495D01*
X0212893Y0050580D01*
X0212626Y0050672D01*
X0212361Y0050771D01*
X0212099Y0050875D01*
X0211840Y0050987D01*
X0211583Y0051104D01*
X0211329Y0051228D01*
X0211079Y0051358D01*
X0210832Y0051494D01*
X0210588Y0051636D01*
X0210348Y0051784D01*
X0210111Y0051938D01*
X0209878Y0052098D01*
X0209649Y0052263D01*
X0209425Y0052434D01*
X0209204Y0052610D01*
X0208989Y0052792D01*
X0208777Y0052979D01*
X0208570Y0053171D01*
X0208368Y0053368D01*
X0208171Y0053570D01*
X0207979Y0053777D01*
X0207792Y0053989D01*
X0207610Y0054204D01*
X0207434Y0054425D01*
X0207263Y0054649D01*
X0207098Y0054878D01*
X0206938Y0055111D01*
X0206784Y0055348D01*
X0206636Y0055588D01*
X0206494Y0055832D01*
X0206358Y0056079D01*
X0206228Y0056329D01*
X0206104Y0056583D01*
X0205987Y0056840D01*
X0205875Y0057099D01*
X0205771Y0057361D01*
X0205672Y0057626D01*
X0205580Y0057893D01*
X0205495Y0058162D01*
X0205417Y0058433D01*
X0205345Y0058706D01*
X0205279Y0058980D01*
X0205221Y0059256D01*
X0205169Y0059534D01*
X0205124Y0059813D01*
X0205086Y0060092D01*
X0205055Y0060373D01*
X0205031Y0060654D01*
X0205014Y0060936D01*
X0205003Y0061218D01*
X0205000Y0061500D01*
X0231000Y0059500D02*
X0235175Y0059500D01*
X0235175Y0063500D02*
X0231000Y0063500D01*
X0231000Y0059500D01*
X0235000Y0061500D02*
X0235003Y0061782D01*
X0235014Y0062064D01*
X0235031Y0062346D01*
X0235055Y0062627D01*
X0235086Y0062908D01*
X0235124Y0063187D01*
X0235169Y0063466D01*
X0235221Y0063744D01*
X0235279Y0064020D01*
X0235345Y0064294D01*
X0235417Y0064567D01*
X0235495Y0064838D01*
X0235580Y0065107D01*
X0235672Y0065374D01*
X0235771Y0065639D01*
X0235875Y0065901D01*
X0235987Y0066160D01*
X0236104Y0066417D01*
X0236228Y0066671D01*
X0236358Y0066921D01*
X0236494Y0067168D01*
X0236636Y0067412D01*
X0236784Y0067652D01*
X0236938Y0067889D01*
X0237098Y0068122D01*
X0237263Y0068351D01*
X0237434Y0068575D01*
X0237610Y0068796D01*
X0237792Y0069011D01*
X0237979Y0069223D01*
X0238171Y0069430D01*
X0238368Y0069632D01*
X0238570Y0069829D01*
X0238777Y0070021D01*
X0238989Y0070208D01*
X0239204Y0070390D01*
X0239425Y0070566D01*
X0239649Y0070737D01*
X0239878Y0070902D01*
X0240111Y0071062D01*
X0240348Y0071216D01*
X0240588Y0071364D01*
X0240832Y0071506D01*
X0241079Y0071642D01*
X0241329Y0071772D01*
X0241583Y0071896D01*
X0241840Y0072013D01*
X0242099Y0072125D01*
X0242361Y0072229D01*
X0242626Y0072328D01*
X0242893Y0072420D01*
X0243162Y0072505D01*
X0243433Y0072583D01*
X0243706Y0072655D01*
X0243980Y0072721D01*
X0244256Y0072779D01*
X0244534Y0072831D01*
X0244813Y0072876D01*
X0245092Y0072914D01*
X0245373Y0072945D01*
X0245654Y0072969D01*
X0245936Y0072986D01*
X0246218Y0072997D01*
X0246500Y0073000D01*
X0246782Y0072997D01*
X0247064Y0072986D01*
X0247346Y0072969D01*
X0247627Y0072945D01*
X0247908Y0072914D01*
X0248187Y0072876D01*
X0248466Y0072831D01*
X0248744Y0072779D01*
X0249020Y0072721D01*
X0249294Y0072655D01*
X0249567Y0072583D01*
X0249838Y0072505D01*
X0250107Y0072420D01*
X0250374Y0072328D01*
X0250639Y0072229D01*
X0250901Y0072125D01*
X0251160Y0072013D01*
X0251417Y0071896D01*
X0251671Y0071772D01*
X0251921Y0071642D01*
X0252168Y0071506D01*
X0252412Y0071364D01*
X0252652Y0071216D01*
X0252889Y0071062D01*
X0253122Y0070902D01*
X0253351Y0070737D01*
X0253575Y0070566D01*
X0253796Y0070390D01*
X0254011Y0070208D01*
X0254223Y0070021D01*
X0254430Y0069829D01*
X0254632Y0069632D01*
X0254829Y0069430D01*
X0255021Y0069223D01*
X0255208Y0069011D01*
X0255390Y0068796D01*
X0255566Y0068575D01*
X0255737Y0068351D01*
X0255902Y0068122D01*
X0256062Y0067889D01*
X0256216Y0067652D01*
X0256364Y0067412D01*
X0256506Y0067168D01*
X0256642Y0066921D01*
X0256772Y0066671D01*
X0256896Y0066417D01*
X0257013Y0066160D01*
X0257125Y0065901D01*
X0257229Y0065639D01*
X0257328Y0065374D01*
X0257420Y0065107D01*
X0257505Y0064838D01*
X0257583Y0064567D01*
X0257655Y0064294D01*
X0257721Y0064020D01*
X0257779Y0063744D01*
X0257831Y0063466D01*
X0257876Y0063187D01*
X0257914Y0062908D01*
X0257945Y0062627D01*
X0257969Y0062346D01*
X0257986Y0062064D01*
X0257997Y0061782D01*
X0258000Y0061500D01*
X0257997Y0061218D01*
X0257986Y0060936D01*
X0257969Y0060654D01*
X0257945Y0060373D01*
X0257914Y0060092D01*
X0257876Y0059813D01*
X0257831Y0059534D01*
X0257779Y0059256D01*
X0257721Y0058980D01*
X0257655Y0058706D01*
X0257583Y0058433D01*
X0257505Y0058162D01*
X0257420Y0057893D01*
X0257328Y0057626D01*
X0257229Y0057361D01*
X0257125Y0057099D01*
X0257013Y0056840D01*
X0256896Y0056583D01*
X0256772Y0056329D01*
X0256642Y0056079D01*
X0256506Y0055832D01*
X0256364Y0055588D01*
X0256216Y0055348D01*
X0256062Y0055111D01*
X0255902Y0054878D01*
X0255737Y0054649D01*
X0255566Y0054425D01*
X0255390Y0054204D01*
X0255208Y0053989D01*
X0255021Y0053777D01*
X0254829Y0053570D01*
X0254632Y0053368D01*
X0254430Y0053171D01*
X0254223Y0052979D01*
X0254011Y0052792D01*
X0253796Y0052610D01*
X0253575Y0052434D01*
X0253351Y0052263D01*
X0253122Y0052098D01*
X0252889Y0051938D01*
X0252652Y0051784D01*
X0252412Y0051636D01*
X0252168Y0051494D01*
X0251921Y0051358D01*
X0251671Y0051228D01*
X0251417Y0051104D01*
X0251160Y0050987D01*
X0250901Y0050875D01*
X0250639Y0050771D01*
X0250374Y0050672D01*
X0250107Y0050580D01*
X0249838Y0050495D01*
X0249567Y0050417D01*
X0249294Y0050345D01*
X0249020Y0050279D01*
X0248744Y0050221D01*
X0248466Y0050169D01*
X0248187Y0050124D01*
X0247908Y0050086D01*
X0247627Y0050055D01*
X0247346Y0050031D01*
X0247064Y0050014D01*
X0246782Y0050003D01*
X0246500Y0050000D01*
X0246218Y0050003D01*
X0245936Y0050014D01*
X0245654Y0050031D01*
X0245373Y0050055D01*
X0245092Y0050086D01*
X0244813Y0050124D01*
X0244534Y0050169D01*
X0244256Y0050221D01*
X0243980Y0050279D01*
X0243706Y0050345D01*
X0243433Y0050417D01*
X0243162Y0050495D01*
X0242893Y0050580D01*
X0242626Y0050672D01*
X0242361Y0050771D01*
X0242099Y0050875D01*
X0241840Y0050987D01*
X0241583Y0051104D01*
X0241329Y0051228D01*
X0241079Y0051358D01*
X0240832Y0051494D01*
X0240588Y0051636D01*
X0240348Y0051784D01*
X0240111Y0051938D01*
X0239878Y0052098D01*
X0239649Y0052263D01*
X0239425Y0052434D01*
X0239204Y0052610D01*
X0238989Y0052792D01*
X0238777Y0052979D01*
X0238570Y0053171D01*
X0238368Y0053368D01*
X0238171Y0053570D01*
X0237979Y0053777D01*
X0237792Y0053989D01*
X0237610Y0054204D01*
X0237434Y0054425D01*
X0237263Y0054649D01*
X0237098Y0054878D01*
X0236938Y0055111D01*
X0236784Y0055348D01*
X0236636Y0055588D01*
X0236494Y0055832D01*
X0236358Y0056079D01*
X0236228Y0056329D01*
X0236104Y0056583D01*
X0235987Y0056840D01*
X0235875Y0057099D01*
X0235771Y0057361D01*
X0235672Y0057626D01*
X0235580Y0057893D01*
X0235495Y0058162D01*
X0235417Y0058433D01*
X0235345Y0058706D01*
X0235279Y0058980D01*
X0235221Y0059256D01*
X0235169Y0059534D01*
X0235124Y0059813D01*
X0235086Y0060092D01*
X0235055Y0060373D01*
X0235031Y0060654D01*
X0235014Y0060936D01*
X0235003Y0061218D01*
X0235000Y0061500D01*
X0261000Y0059500D02*
X0265175Y0059500D01*
X0265175Y0063500D02*
X0261000Y0063500D01*
X0261000Y0059500D01*
X0265000Y0061500D02*
X0265003Y0061782D01*
X0265014Y0062064D01*
X0265031Y0062346D01*
X0265055Y0062627D01*
X0265086Y0062908D01*
X0265124Y0063187D01*
X0265169Y0063466D01*
X0265221Y0063744D01*
X0265279Y0064020D01*
X0265345Y0064294D01*
X0265417Y0064567D01*
X0265495Y0064838D01*
X0265580Y0065107D01*
X0265672Y0065374D01*
X0265771Y0065639D01*
X0265875Y0065901D01*
X0265987Y0066160D01*
X0266104Y0066417D01*
X0266228Y0066671D01*
X0266358Y0066921D01*
X0266494Y0067168D01*
X0266636Y0067412D01*
X0266784Y0067652D01*
X0266938Y0067889D01*
X0267098Y0068122D01*
X0267263Y0068351D01*
X0267434Y0068575D01*
X0267610Y0068796D01*
X0267792Y0069011D01*
X0267979Y0069223D01*
X0268171Y0069430D01*
X0268368Y0069632D01*
X0268570Y0069829D01*
X0268777Y0070021D01*
X0268989Y0070208D01*
X0269204Y0070390D01*
X0269425Y0070566D01*
X0269649Y0070737D01*
X0269878Y0070902D01*
X0270111Y0071062D01*
X0270348Y0071216D01*
X0270588Y0071364D01*
X0270832Y0071506D01*
X0271079Y0071642D01*
X0271329Y0071772D01*
X0271583Y0071896D01*
X0271840Y0072013D01*
X0272099Y0072125D01*
X0272361Y0072229D01*
X0272626Y0072328D01*
X0272893Y0072420D01*
X0273162Y0072505D01*
X0273433Y0072583D01*
X0273706Y0072655D01*
X0273980Y0072721D01*
X0274256Y0072779D01*
X0274534Y0072831D01*
X0274813Y0072876D01*
X0275092Y0072914D01*
X0275373Y0072945D01*
X0275654Y0072969D01*
X0275936Y0072986D01*
X0276218Y0072997D01*
X0276500Y0073000D01*
X0276782Y0072997D01*
X0277064Y0072986D01*
X0277346Y0072969D01*
X0277627Y0072945D01*
X0277908Y0072914D01*
X0278187Y0072876D01*
X0278466Y0072831D01*
X0278744Y0072779D01*
X0279020Y0072721D01*
X0279294Y0072655D01*
X0279567Y0072583D01*
X0279838Y0072505D01*
X0280107Y0072420D01*
X0280374Y0072328D01*
X0280639Y0072229D01*
X0280901Y0072125D01*
X0281160Y0072013D01*
X0281417Y0071896D01*
X0281671Y0071772D01*
X0281921Y0071642D01*
X0282168Y0071506D01*
X0282412Y0071364D01*
X0282652Y0071216D01*
X0282889Y0071062D01*
X0283122Y0070902D01*
X0283351Y0070737D01*
X0283575Y0070566D01*
X0283796Y0070390D01*
X0284011Y0070208D01*
X0284223Y0070021D01*
X0284430Y0069829D01*
X0284632Y0069632D01*
X0284829Y0069430D01*
X0285021Y0069223D01*
X0285208Y0069011D01*
X0285390Y0068796D01*
X0285566Y0068575D01*
X0285737Y0068351D01*
X0285902Y0068122D01*
X0286062Y0067889D01*
X0286216Y0067652D01*
X0286364Y0067412D01*
X0286506Y0067168D01*
X0286642Y0066921D01*
X0286772Y0066671D01*
X0286896Y0066417D01*
X0287013Y0066160D01*
X0287125Y0065901D01*
X0287229Y0065639D01*
X0287328Y0065374D01*
X0287420Y0065107D01*
X0287505Y0064838D01*
X0287583Y0064567D01*
X0287655Y0064294D01*
X0287721Y0064020D01*
X0287779Y0063744D01*
X0287831Y0063466D01*
X0287876Y0063187D01*
X0287914Y0062908D01*
X0287945Y0062627D01*
X0287969Y0062346D01*
X0287986Y0062064D01*
X0287997Y0061782D01*
X0288000Y0061500D01*
X0287997Y0061218D01*
X0287986Y0060936D01*
X0287969Y0060654D01*
X0287945Y0060373D01*
X0287914Y0060092D01*
X0287876Y0059813D01*
X0287831Y0059534D01*
X0287779Y0059256D01*
X0287721Y0058980D01*
X0287655Y0058706D01*
X0287583Y0058433D01*
X0287505Y0058162D01*
X0287420Y0057893D01*
X0287328Y0057626D01*
X0287229Y0057361D01*
X0287125Y0057099D01*
X0287013Y0056840D01*
X0286896Y0056583D01*
X0286772Y0056329D01*
X0286642Y0056079D01*
X0286506Y0055832D01*
X0286364Y0055588D01*
X0286216Y0055348D01*
X0286062Y0055111D01*
X0285902Y0054878D01*
X0285737Y0054649D01*
X0285566Y0054425D01*
X0285390Y0054204D01*
X0285208Y0053989D01*
X0285021Y0053777D01*
X0284829Y0053570D01*
X0284632Y0053368D01*
X0284430Y0053171D01*
X0284223Y0052979D01*
X0284011Y0052792D01*
X0283796Y0052610D01*
X0283575Y0052434D01*
X0283351Y0052263D01*
X0283122Y0052098D01*
X0282889Y0051938D01*
X0282652Y0051784D01*
X0282412Y0051636D01*
X0282168Y0051494D01*
X0281921Y0051358D01*
X0281671Y0051228D01*
X0281417Y0051104D01*
X0281160Y0050987D01*
X0280901Y0050875D01*
X0280639Y0050771D01*
X0280374Y0050672D01*
X0280107Y0050580D01*
X0279838Y0050495D01*
X0279567Y0050417D01*
X0279294Y0050345D01*
X0279020Y0050279D01*
X0278744Y0050221D01*
X0278466Y0050169D01*
X0278187Y0050124D01*
X0277908Y0050086D01*
X0277627Y0050055D01*
X0277346Y0050031D01*
X0277064Y0050014D01*
X0276782Y0050003D01*
X0276500Y0050000D01*
X0276218Y0050003D01*
X0275936Y0050014D01*
X0275654Y0050031D01*
X0275373Y0050055D01*
X0275092Y0050086D01*
X0274813Y0050124D01*
X0274534Y0050169D01*
X0274256Y0050221D01*
X0273980Y0050279D01*
X0273706Y0050345D01*
X0273433Y0050417D01*
X0273162Y0050495D01*
X0272893Y0050580D01*
X0272626Y0050672D01*
X0272361Y0050771D01*
X0272099Y0050875D01*
X0271840Y0050987D01*
X0271583Y0051104D01*
X0271329Y0051228D01*
X0271079Y0051358D01*
X0270832Y0051494D01*
X0270588Y0051636D01*
X0270348Y0051784D01*
X0270111Y0051938D01*
X0269878Y0052098D01*
X0269649Y0052263D01*
X0269425Y0052434D01*
X0269204Y0052610D01*
X0268989Y0052792D01*
X0268777Y0052979D01*
X0268570Y0053171D01*
X0268368Y0053368D01*
X0268171Y0053570D01*
X0267979Y0053777D01*
X0267792Y0053989D01*
X0267610Y0054204D01*
X0267434Y0054425D01*
X0267263Y0054649D01*
X0267098Y0054878D01*
X0266938Y0055111D01*
X0266784Y0055348D01*
X0266636Y0055588D01*
X0266494Y0055832D01*
X0266358Y0056079D01*
X0266228Y0056329D01*
X0266104Y0056583D01*
X0265987Y0056840D01*
X0265875Y0057099D01*
X0265771Y0057361D01*
X0265672Y0057626D01*
X0265580Y0057893D01*
X0265495Y0058162D01*
X0265417Y0058433D01*
X0265345Y0058706D01*
X0265279Y0058980D01*
X0265221Y0059256D01*
X0265169Y0059534D01*
X0265124Y0059813D01*
X0265086Y0060092D01*
X0265055Y0060373D01*
X0265031Y0060654D01*
X0265014Y0060936D01*
X0265003Y0061218D01*
X0265000Y0061500D01*
D19*
X0133750Y0176500D03*
X0133750Y0186500D03*
X0133750Y0196500D03*
D20*
X0127000Y0196500D03*
X0127000Y0186500D03*
X0127000Y0176500D03*
M02*
