G75*
%MOIN*%
%OFA0B0*%
%FSLAX25Y25*%
%IPPOS*%
%LPD*%
%AMOC8*
5,1,8,0,0,1.08239X$1,22.5*
%
%ADD10OC8,0.06000*%
%ADD11C,0.06000*%
%ADD12C,0.07400*%
%ADD13C,0.13800*%
%ADD14C,0.08674*%
%ADD15C,0.06800*%
%ADD16OC8,0.06800*%
%ADD17C,0.03778*%
D10*
X0109428Y0046500D03*
X0109428Y0056500D03*
X0129428Y0056500D03*
X0149428Y0056500D03*
X0149428Y0036500D03*
X0119428Y0036500D03*
X0109428Y0076500D03*
X0129428Y0076500D03*
X0129428Y0096500D03*
X0129428Y0106500D03*
X0109428Y0106500D03*
X0109428Y0096500D03*
X0079428Y0091500D03*
X0079428Y0081500D03*
X0054428Y0076500D03*
X0054428Y0086500D03*
X0109428Y0126500D03*
X0129428Y0126500D03*
X0189428Y0116500D03*
X0209428Y0116500D03*
X0234428Y0101500D03*
X0254428Y0101500D03*
X0264428Y0101500D03*
X0284428Y0101500D03*
X0294428Y0101500D03*
X0314428Y0101500D03*
X0304428Y0116500D03*
X0304428Y0126500D03*
X0304428Y0136500D03*
X0304428Y0146500D03*
X0274428Y0146500D03*
X0274428Y0136500D03*
X0274428Y0126500D03*
X0274428Y0116500D03*
X0244428Y0116500D03*
X0244428Y0126500D03*
X0244428Y0136500D03*
X0244428Y0146500D03*
X0209428Y0096500D03*
X0189428Y0096500D03*
X0234428Y0081500D03*
X0254428Y0081500D03*
X0264428Y0081500D03*
X0284428Y0081500D03*
X0294428Y0081500D03*
X0314428Y0081500D03*
X0309428Y0066500D03*
X0309428Y0056500D03*
X0299428Y0056500D03*
X0279428Y0056500D03*
X0269428Y0056500D03*
X0279428Y0066500D03*
X0249428Y0066500D03*
X0249428Y0056500D03*
X0239428Y0056500D03*
X0339428Y0136500D03*
X0339428Y0156500D03*
X0184428Y0196500D03*
X0174428Y0196500D03*
X0159428Y0206500D03*
X0149428Y0206500D03*
X0164428Y0216500D03*
X0184428Y0216500D03*
D11*
X0177028Y0136500D02*
X0171828Y0136500D01*
X0171828Y0126500D02*
X0177028Y0126500D01*
X0177028Y0116500D02*
X0171828Y0116500D01*
X0171828Y0106500D02*
X0177028Y0106500D01*
X0177028Y0096500D02*
X0171828Y0096500D01*
X0171828Y0086500D02*
X0177028Y0086500D01*
X0177028Y0076500D02*
X0171828Y0076500D01*
X0147028Y0076500D02*
X0141828Y0076500D01*
X0141828Y0086500D02*
X0147028Y0086500D01*
X0147028Y0096500D02*
X0141828Y0096500D01*
X0141828Y0106500D02*
X0147028Y0106500D01*
X0147028Y0116500D02*
X0141828Y0116500D01*
X0141828Y0126500D02*
X0147028Y0126500D01*
X0147028Y0136500D02*
X0141828Y0136500D01*
D12*
X0074428Y0109800D02*
X0074428Y0103200D01*
X0064428Y0103200D02*
X0064428Y0109800D01*
X0054428Y0109800D02*
X0054428Y0103200D01*
X0131128Y0196500D02*
X0137728Y0196500D01*
X0137728Y0206500D02*
X0131128Y0206500D01*
X0131128Y0216500D02*
X0137728Y0216500D01*
D13*
X0065428Y0206500D03*
X0064428Y0165500D03*
D14*
X0070491Y0034689D02*
X0078365Y0034689D01*
X0093326Y0042563D02*
X0093326Y0050437D01*
X0078365Y0058705D02*
X0070491Y0058705D01*
D15*
X0169428Y0163500D02*
X0169428Y0169500D01*
X0179428Y0169500D02*
X0179428Y0163500D01*
X0189428Y0163500D02*
X0189428Y0169500D01*
D16*
X0329428Y0156500D03*
D17*
X0169428Y0101500D03*
X0159428Y0101500D03*
M02*
