%
M48
M72
T01C0.01378
T02C0.03200
T03C0.03937
T04C0.04000
T05C0.04400
T06C0.13000
%
T01
X134428Y111500
X134428Y121500
X144428Y121500
X154428Y111500
X144428Y101500
X164428Y111500
X179428Y86500
X189428Y111500
X194428Y111500
X184428Y141500
X224428Y116500
T02
X54428Y81500
X64428Y81500
X84428Y81500
X94428Y81500
X124428Y46500
X134428Y56500
X144428Y56500
X144428Y76500
X134428Y76500
X134428Y86500
X134428Y106500
X154428Y101500
X164428Y101500
X174428Y101500
X184428Y101500
X194428Y101500
X204428Y101500
X214428Y101500
X214428Y131500
X204428Y131500
X194428Y131500
X184428Y131500
X174428Y131500
X164428Y131500
X154428Y131500
X149428Y171500
X159428Y171500
X164428Y191500
X179428Y191500
X184428Y171500
X194428Y171500
X199428Y191500
X194428Y211500
X184428Y211500
X179428Y231500
X164428Y231500
X159428Y211500
X149428Y211500
X144428Y231500
X149428Y251500
X159428Y251500
X164428Y271500
X179428Y271500
X199428Y271500
X194428Y251500
X184428Y251500
X199428Y231500
X219428Y221500
X229428Y221500
X229428Y231500
X229428Y261500
X219428Y261500
X229428Y271500
X229428Y191500
X229428Y181500
X219428Y181500
X144428Y191500
X99428Y171500
X99428Y161500
X89428Y161500
X74428Y176500
X64428Y156500
X54428Y156500
X54428Y176500
X144428Y271500
X164428Y76500
X164428Y56500
X164428Y36500
X164428Y21500
X144428Y21500
X144428Y36500
X124428Y26500
T03
X101633Y41500
X89428Y22602
X77617Y41500
T04
X59428Y201500
X59428Y211500
X59428Y221500
T05
X119428Y126500
X119428Y116500
X119428Y106500
T06
X60428Y116500
M30
