G75*
%MOIN*%
%OFA0B0*%
%FSLAX25Y25*%
%IPPOS*%
%LPD*%
%AMOC8*
5,1,8,0,0,1.08239X$1,22.5*
%
%ADD10OC8,0.05200*%
%ADD11C,0.05200*%
%ADD12C,0.06600*%
%ADD13C,0.07874*%
%ADD14C,0.06000*%
%ADD15OC8,0.06000*%
%ADD16R,0.02978X0.02978*%
%ADD17C,0.01000*%
D10*
X0081500Y0046500D03*
X0081500Y0056500D03*
X0101500Y0056500D03*
X0121500Y0056500D03*
X0121500Y0036500D03*
X0091500Y0036500D03*
X0081500Y0076500D03*
X0101500Y0076500D03*
X0101500Y0096500D03*
X0101500Y0106500D03*
X0081500Y0106500D03*
X0081500Y0096500D03*
X0046500Y0091500D03*
X0046500Y0081500D03*
X0026500Y0076500D03*
X0026500Y0086500D03*
X0081500Y0126500D03*
X0101500Y0126500D03*
X0131500Y0156500D03*
X0151500Y0156500D03*
X0181500Y0176500D03*
X0191500Y0176500D03*
X0166500Y0186500D03*
X0156500Y0186500D03*
X0171500Y0196500D03*
X0191500Y0196500D03*
X0216500Y0146500D03*
X0216500Y0136500D03*
X0216500Y0126500D03*
X0216500Y0116500D03*
X0206500Y0101500D03*
X0226500Y0101500D03*
X0236500Y0101500D03*
X0246500Y0116500D03*
X0246500Y0126500D03*
X0246500Y0136500D03*
X0246500Y0146500D03*
X0276500Y0146500D03*
X0276500Y0136500D03*
X0276500Y0126500D03*
X0276500Y0116500D03*
X0266500Y0101500D03*
X0256500Y0101500D03*
X0256500Y0081500D03*
X0266500Y0081500D03*
X0286500Y0081500D03*
X0281500Y0066500D03*
X0281500Y0056500D03*
X0271500Y0056500D03*
X0251500Y0056500D03*
X0241500Y0056500D03*
X0251500Y0066500D03*
X0236500Y0081500D03*
X0226500Y0081500D03*
X0221500Y0066500D03*
X0221500Y0056500D03*
X0211500Y0056500D03*
X0206500Y0081500D03*
X0171500Y0096500D03*
X0161500Y0096500D03*
X0161500Y0116500D03*
X0171500Y0116500D03*
X0286500Y0101500D03*
X0321500Y0076500D03*
X0321500Y0056500D03*
D11*
X0149100Y0076500D02*
X0143900Y0076500D01*
X0143900Y0086500D02*
X0149100Y0086500D01*
X0149100Y0096500D02*
X0143900Y0096500D01*
X0143900Y0106500D02*
X0149100Y0106500D01*
X0149100Y0116500D02*
X0143900Y0116500D01*
X0143900Y0126500D02*
X0149100Y0126500D01*
X0149100Y0136500D02*
X0143900Y0136500D01*
X0119100Y0136500D02*
X0113900Y0136500D01*
X0113900Y0126500D02*
X0119100Y0126500D01*
X0119100Y0116500D02*
X0113900Y0116500D01*
X0113900Y0106500D02*
X0119100Y0106500D01*
X0119100Y0096500D02*
X0113900Y0096500D01*
X0113900Y0086500D02*
X0119100Y0086500D01*
X0119100Y0076500D02*
X0113900Y0076500D01*
D12*
X0046500Y0103200D02*
X0046500Y0109800D01*
X0036500Y0109800D02*
X0036500Y0103200D01*
X0026500Y0103200D02*
X0026500Y0109800D01*
X0138200Y0176500D02*
X0144800Y0176500D01*
X0144800Y0186500D02*
X0138200Y0186500D01*
X0138200Y0196500D02*
X0144800Y0196500D01*
D13*
X0050437Y0058705D02*
X0042563Y0058705D01*
X0065398Y0050437D02*
X0065398Y0042563D01*
X0050437Y0034689D02*
X0042563Y0034689D01*
D14*
X0093500Y0136500D02*
X0099500Y0136500D01*
X0099500Y0146500D02*
X0093500Y0146500D01*
X0093500Y0156500D02*
X0099500Y0156500D01*
D15*
X0311500Y0076500D03*
D16*
X0156500Y0066500D03*
D17*
X0006000Y0006000D02*
X0006000Y0211961D01*
X0330701Y0211961D01*
X0330701Y0006000D01*
X0006000Y0006000D01*
X0006000Y0006493D02*
X0330701Y0006493D01*
X0330701Y0007491D02*
X0006000Y0007491D01*
X0006000Y0008490D02*
X0330701Y0008490D01*
X0330701Y0009488D02*
X0006000Y0009488D01*
X0006000Y0010487D02*
X0330701Y0010487D01*
X0330701Y0011485D02*
X0006000Y0011485D01*
X0006000Y0012484D02*
X0330701Y0012484D01*
X0330701Y0013482D02*
X0006000Y0013482D01*
X0006000Y0014481D02*
X0330701Y0014481D01*
X0330701Y0015479D02*
X0006000Y0015479D01*
X0006000Y0016478D02*
X0330701Y0016478D01*
X0330701Y0017476D02*
X0006000Y0017476D01*
X0006000Y0018475D02*
X0330701Y0018475D01*
X0330701Y0019473D02*
X0006000Y0019473D01*
X0006000Y0020472D02*
X0330701Y0020472D01*
X0330701Y0021470D02*
X0006000Y0021470D01*
X0006000Y0022469D02*
X0330701Y0022469D01*
X0330701Y0023467D02*
X0006000Y0023467D01*
X0006000Y0024466D02*
X0330701Y0024466D01*
X0330701Y0025464D02*
X0006000Y0025464D01*
X0006000Y0026463D02*
X0330701Y0026463D01*
X0330701Y0027461D02*
X0006000Y0027461D01*
X0006000Y0028460D02*
X0330701Y0028460D01*
X0330701Y0029458D02*
X0052539Y0029458D01*
X0051558Y0029052D02*
X0053630Y0029910D01*
X0055216Y0031496D01*
X0056074Y0033568D01*
X0056074Y0035810D01*
X0055216Y0037882D01*
X0053630Y0039468D01*
X0051558Y0040326D01*
X0041442Y0040326D01*
X0039370Y0039468D01*
X0037784Y0037882D01*
X0036926Y0035810D01*
X0036926Y0033568D01*
X0037784Y0031496D01*
X0039370Y0029910D01*
X0041442Y0029052D01*
X0051558Y0029052D01*
X0054177Y0030457D02*
X0330701Y0030457D01*
X0330701Y0031455D02*
X0055175Y0031455D01*
X0055613Y0032454D02*
X0089465Y0032454D01*
X0089719Y0032200D02*
X0093281Y0032200D01*
X0095800Y0034719D01*
X0095800Y0038281D01*
X0093281Y0040800D01*
X0089719Y0040800D01*
X0087200Y0038281D01*
X0087200Y0034719D01*
X0089719Y0032200D01*
X0088467Y0033452D02*
X0056026Y0033452D01*
X0056074Y0034451D02*
X0087468Y0034451D01*
X0087200Y0035449D02*
X0056074Y0035449D01*
X0055810Y0036448D02*
X0087200Y0036448D01*
X0087200Y0037446D02*
X0067775Y0037446D01*
X0068591Y0037784D02*
X0070176Y0039370D01*
X0071035Y0041442D01*
X0071035Y0051558D01*
X0070176Y0053630D01*
X0068591Y0055216D01*
X0066519Y0056074D01*
X0064276Y0056074D01*
X0062205Y0055216D01*
X0060619Y0053630D01*
X0059761Y0051558D01*
X0059761Y0041442D01*
X0060619Y0039370D01*
X0062205Y0037784D01*
X0064276Y0036926D01*
X0066519Y0036926D01*
X0068591Y0037784D01*
X0069251Y0038445D02*
X0087364Y0038445D01*
X0088362Y0039443D02*
X0070207Y0039443D01*
X0070621Y0040442D02*
X0089361Y0040442D01*
X0093639Y0040442D02*
X0119361Y0040442D01*
X0119719Y0040800D02*
X0117200Y0038281D01*
X0117200Y0034719D01*
X0119719Y0032200D01*
X0123281Y0032200D01*
X0125800Y0034719D01*
X0125800Y0038281D01*
X0123281Y0040800D01*
X0119719Y0040800D01*
X0118362Y0039443D02*
X0094638Y0039443D01*
X0095636Y0038445D02*
X0117364Y0038445D01*
X0117200Y0037446D02*
X0095800Y0037446D01*
X0095800Y0036448D02*
X0117200Y0036448D01*
X0117200Y0035449D02*
X0095800Y0035449D01*
X0095532Y0034451D02*
X0117468Y0034451D01*
X0118467Y0033452D02*
X0094533Y0033452D01*
X0093535Y0032454D02*
X0119465Y0032454D01*
X0123535Y0032454D02*
X0330701Y0032454D01*
X0330701Y0033452D02*
X0124533Y0033452D01*
X0125532Y0034451D02*
X0330701Y0034451D01*
X0330701Y0035449D02*
X0125800Y0035449D01*
X0125800Y0036448D02*
X0330701Y0036448D01*
X0330701Y0037446D02*
X0125800Y0037446D01*
X0125636Y0038445D02*
X0330701Y0038445D01*
X0330701Y0039443D02*
X0124638Y0039443D01*
X0123639Y0040442D02*
X0330701Y0040442D01*
X0330701Y0041440D02*
X0071034Y0041440D01*
X0071035Y0042439D02*
X0079480Y0042439D01*
X0079719Y0042200D02*
X0083281Y0042200D01*
X0085800Y0044719D01*
X0085800Y0048281D01*
X0083281Y0050800D01*
X0079719Y0050800D01*
X0077200Y0048281D01*
X0077200Y0044719D01*
X0079719Y0042200D01*
X0078481Y0043437D02*
X0071035Y0043437D01*
X0071035Y0044436D02*
X0077483Y0044436D01*
X0077200Y0045434D02*
X0071035Y0045434D01*
X0071035Y0046433D02*
X0077200Y0046433D01*
X0077200Y0047432D02*
X0071035Y0047432D01*
X0071035Y0048430D02*
X0077349Y0048430D01*
X0078347Y0049429D02*
X0071035Y0049429D01*
X0071035Y0050427D02*
X0079346Y0050427D01*
X0079719Y0052200D02*
X0083281Y0052200D01*
X0085800Y0054719D01*
X0085800Y0058281D01*
X0083281Y0060800D01*
X0079719Y0060800D01*
X0077200Y0058281D01*
X0077200Y0054719D01*
X0079719Y0052200D01*
X0079495Y0052424D02*
X0070676Y0052424D01*
X0071035Y0051426D02*
X0330701Y0051426D01*
X0330701Y0052424D02*
X0323505Y0052424D01*
X0323281Y0052200D02*
X0325800Y0054719D01*
X0325800Y0058281D01*
X0323281Y0060800D01*
X0319719Y0060800D01*
X0317200Y0058281D01*
X0317200Y0054719D01*
X0319719Y0052200D01*
X0323281Y0052200D01*
X0324504Y0053423D02*
X0330701Y0053423D01*
X0330701Y0054421D02*
X0325502Y0054421D01*
X0325800Y0055420D02*
X0330701Y0055420D01*
X0330701Y0056418D02*
X0325800Y0056418D01*
X0325800Y0057417D02*
X0330701Y0057417D01*
X0330701Y0058415D02*
X0325666Y0058415D01*
X0324667Y0059414D02*
X0330701Y0059414D01*
X0330701Y0060412D02*
X0323669Y0060412D01*
X0319331Y0060412D02*
X0283669Y0060412D01*
X0283281Y0060800D02*
X0279719Y0060800D01*
X0277200Y0058281D01*
X0277200Y0054719D01*
X0279719Y0052200D01*
X0283281Y0052200D01*
X0285800Y0054719D01*
X0285800Y0058281D01*
X0283281Y0060800D01*
X0283198Y0062400D02*
X0285600Y0064802D01*
X0285600Y0066200D01*
X0281800Y0066200D01*
X0281800Y0066800D01*
X0285600Y0066800D01*
X0285600Y0068198D01*
X0283198Y0070600D01*
X0281800Y0070600D01*
X0281800Y0066800D01*
X0281200Y0066800D01*
X0281200Y0070600D01*
X0279802Y0070600D01*
X0277400Y0068198D01*
X0277400Y0066800D01*
X0281200Y0066800D01*
X0281200Y0066200D01*
X0281800Y0066200D01*
X0281800Y0062400D01*
X0283198Y0062400D01*
X0283207Y0062409D02*
X0330701Y0062409D01*
X0330701Y0061411D02*
X0055418Y0061411D01*
X0055216Y0061898D02*
X0053630Y0063484D01*
X0051558Y0064342D01*
X0041442Y0064342D01*
X0039370Y0063484D01*
X0037784Y0061898D01*
X0036926Y0059826D01*
X0036926Y0057583D01*
X0037784Y0055512D01*
X0039370Y0053926D01*
X0041442Y0053068D01*
X0051558Y0053068D01*
X0053630Y0053926D01*
X0055216Y0055512D01*
X0056074Y0057583D01*
X0056074Y0059826D01*
X0055216Y0061898D01*
X0054704Y0062409D02*
X0219793Y0062409D01*
X0219802Y0062400D02*
X0221200Y0062400D01*
X0221200Y0066200D01*
X0221800Y0066200D01*
X0221800Y0066800D01*
X0225600Y0066800D01*
X0225600Y0068198D01*
X0223198Y0070600D01*
X0221800Y0070600D01*
X0221800Y0066800D01*
X0221200Y0066800D01*
X0221200Y0070600D01*
X0219802Y0070600D01*
X0217400Y0068198D01*
X0217400Y0066800D01*
X0221200Y0066800D01*
X0221200Y0066200D01*
X0217400Y0066200D01*
X0217400Y0064802D01*
X0219802Y0062400D01*
X0221200Y0062409D02*
X0221800Y0062409D01*
X0221800Y0062400D02*
X0223198Y0062400D01*
X0225600Y0064802D01*
X0225600Y0066200D01*
X0221800Y0066200D01*
X0221800Y0062400D01*
X0221800Y0063408D02*
X0221200Y0063408D01*
X0221200Y0064406D02*
X0221800Y0064406D01*
X0221800Y0065405D02*
X0221200Y0065405D01*
X0221200Y0066403D02*
X0159689Y0066403D01*
X0159689Y0065405D02*
X0217400Y0065405D01*
X0217796Y0064406D02*
X0159689Y0064406D01*
X0159689Y0064307D02*
X0159689Y0068693D01*
X0158700Y0069682D01*
X0158700Y0093219D01*
X0159719Y0092200D01*
X0163281Y0092200D01*
X0165800Y0094719D01*
X0165800Y0098281D01*
X0163281Y0100800D01*
X0159719Y0100800D01*
X0158700Y0099781D01*
X0158700Y0107411D01*
X0157411Y0108700D01*
X0152843Y0108700D01*
X0152745Y0108936D01*
X0151536Y0110145D01*
X0149955Y0110800D01*
X0143045Y0110800D01*
X0141464Y0110145D01*
X0140255Y0108936D01*
X0139600Y0107355D01*
X0139600Y0105645D01*
X0140255Y0104064D01*
X0141464Y0102855D01*
X0143045Y0102200D01*
X0149955Y0102200D01*
X0151536Y0102855D01*
X0152745Y0104064D01*
X0152843Y0104300D01*
X0154300Y0104300D01*
X0154300Y0069682D01*
X0153311Y0068693D01*
X0153311Y0064307D01*
X0154307Y0063311D01*
X0158693Y0063311D01*
X0159689Y0064307D01*
X0158790Y0063408D02*
X0218794Y0063408D01*
X0219719Y0060800D02*
X0217200Y0058281D01*
X0217200Y0054719D01*
X0219719Y0052200D01*
X0223281Y0052200D01*
X0225800Y0054719D01*
X0225800Y0058281D01*
X0223281Y0060800D01*
X0219719Y0060800D01*
X0219331Y0060412D02*
X0213669Y0060412D01*
X0213281Y0060800D02*
X0209719Y0060800D01*
X0207200Y0058281D01*
X0207200Y0054719D01*
X0209719Y0052200D01*
X0213281Y0052200D01*
X0215800Y0054719D01*
X0215800Y0058281D01*
X0213281Y0060800D01*
X0214667Y0059414D02*
X0218333Y0059414D01*
X0217334Y0058415D02*
X0215666Y0058415D01*
X0215800Y0057417D02*
X0217200Y0057417D01*
X0217200Y0056418D02*
X0215800Y0056418D01*
X0215800Y0055420D02*
X0217200Y0055420D01*
X0217498Y0054421D02*
X0215502Y0054421D01*
X0214504Y0053423D02*
X0218496Y0053423D01*
X0219495Y0052424D02*
X0213505Y0052424D01*
X0209495Y0052424D02*
X0123505Y0052424D01*
X0123281Y0052200D02*
X0125800Y0054719D01*
X0125800Y0058281D01*
X0123281Y0060800D01*
X0119719Y0060800D01*
X0117200Y0058281D01*
X0117200Y0054719D01*
X0119719Y0052200D01*
X0123281Y0052200D01*
X0124504Y0053423D02*
X0208496Y0053423D01*
X0207498Y0054421D02*
X0125502Y0054421D01*
X0125800Y0055420D02*
X0207200Y0055420D01*
X0207200Y0056418D02*
X0125800Y0056418D01*
X0125800Y0057417D02*
X0207200Y0057417D01*
X0207334Y0058415D02*
X0125666Y0058415D01*
X0124667Y0059414D02*
X0208333Y0059414D01*
X0209331Y0060412D02*
X0123669Y0060412D01*
X0119331Y0060412D02*
X0103669Y0060412D01*
X0103281Y0060800D02*
X0099719Y0060800D01*
X0097200Y0058281D01*
X0097200Y0054719D01*
X0099719Y0052200D01*
X0103281Y0052200D01*
X0105800Y0054719D01*
X0105800Y0058281D01*
X0103281Y0060800D01*
X0104667Y0059414D02*
X0118333Y0059414D01*
X0117334Y0058415D02*
X0105666Y0058415D01*
X0105800Y0057417D02*
X0117200Y0057417D01*
X0117200Y0056418D02*
X0105800Y0056418D01*
X0105800Y0055420D02*
X0117200Y0055420D01*
X0117498Y0054421D02*
X0105502Y0054421D01*
X0104504Y0053423D02*
X0118496Y0053423D01*
X0119495Y0052424D02*
X0103505Y0052424D01*
X0099495Y0052424D02*
X0083505Y0052424D01*
X0084504Y0053423D02*
X0098496Y0053423D01*
X0097498Y0054421D02*
X0085502Y0054421D01*
X0085800Y0055420D02*
X0097200Y0055420D01*
X0097200Y0056418D02*
X0085800Y0056418D01*
X0085800Y0057417D02*
X0097200Y0057417D01*
X0097334Y0058415D02*
X0085666Y0058415D01*
X0084667Y0059414D02*
X0098333Y0059414D01*
X0099331Y0060412D02*
X0083669Y0060412D01*
X0079331Y0060412D02*
X0055831Y0060412D01*
X0056074Y0059414D02*
X0078333Y0059414D01*
X0077334Y0058415D02*
X0056074Y0058415D01*
X0056005Y0057417D02*
X0077200Y0057417D01*
X0077200Y0056418D02*
X0055591Y0056418D01*
X0055124Y0055420D02*
X0062697Y0055420D01*
X0061410Y0054421D02*
X0054125Y0054421D01*
X0052415Y0053423D02*
X0060533Y0053423D01*
X0060119Y0052424D02*
X0006000Y0052424D01*
X0006000Y0051426D02*
X0059761Y0051426D01*
X0059761Y0050427D02*
X0006000Y0050427D01*
X0006000Y0049429D02*
X0059761Y0049429D01*
X0059761Y0048430D02*
X0006000Y0048430D01*
X0006000Y0047432D02*
X0059761Y0047432D01*
X0059761Y0046433D02*
X0006000Y0046433D01*
X0006000Y0045434D02*
X0059761Y0045434D01*
X0059761Y0044436D02*
X0006000Y0044436D01*
X0006000Y0043437D02*
X0059761Y0043437D01*
X0059761Y0042439D02*
X0006000Y0042439D01*
X0006000Y0041440D02*
X0059761Y0041440D01*
X0060175Y0040442D02*
X0006000Y0040442D01*
X0006000Y0039443D02*
X0039346Y0039443D01*
X0038347Y0038445D02*
X0006000Y0038445D01*
X0006000Y0037446D02*
X0037604Y0037446D01*
X0037190Y0036448D02*
X0006000Y0036448D01*
X0006000Y0035449D02*
X0036926Y0035449D01*
X0036926Y0034451D02*
X0006000Y0034451D01*
X0006000Y0033452D02*
X0036974Y0033452D01*
X0037387Y0032454D02*
X0006000Y0032454D01*
X0006000Y0031455D02*
X0037825Y0031455D01*
X0038823Y0030457D02*
X0006000Y0030457D01*
X0006000Y0029458D02*
X0040461Y0029458D01*
X0053654Y0039443D02*
X0060588Y0039443D01*
X0061544Y0038445D02*
X0054653Y0038445D01*
X0055396Y0037446D02*
X0063020Y0037446D01*
X0070262Y0053423D02*
X0078496Y0053423D01*
X0077498Y0054421D02*
X0069385Y0054421D01*
X0068099Y0055420D02*
X0077200Y0055420D01*
X0083654Y0050427D02*
X0330701Y0050427D01*
X0330701Y0049429D02*
X0084653Y0049429D01*
X0085651Y0048430D02*
X0330701Y0048430D01*
X0330701Y0047432D02*
X0085800Y0047432D01*
X0085800Y0046433D02*
X0330701Y0046433D01*
X0330701Y0045434D02*
X0085800Y0045434D01*
X0085517Y0044436D02*
X0330701Y0044436D01*
X0330701Y0043437D02*
X0084519Y0043437D01*
X0083520Y0042439D02*
X0330701Y0042439D01*
X0319495Y0052424D02*
X0283505Y0052424D01*
X0284504Y0053423D02*
X0318496Y0053423D01*
X0317498Y0054421D02*
X0285502Y0054421D01*
X0285800Y0055420D02*
X0317200Y0055420D01*
X0317200Y0056418D02*
X0285800Y0056418D01*
X0285800Y0057417D02*
X0317200Y0057417D01*
X0317334Y0058415D02*
X0285666Y0058415D01*
X0284667Y0059414D02*
X0318333Y0059414D01*
X0330701Y0063408D02*
X0284206Y0063408D01*
X0285204Y0064406D02*
X0330701Y0064406D01*
X0330701Y0065405D02*
X0285600Y0065405D01*
X0285600Y0067402D02*
X0330701Y0067402D01*
X0330701Y0068400D02*
X0285398Y0068400D01*
X0284399Y0069399D02*
X0330701Y0069399D01*
X0330701Y0070397D02*
X0283401Y0070397D01*
X0281800Y0070397D02*
X0281200Y0070397D01*
X0281200Y0069399D02*
X0281800Y0069399D01*
X0281800Y0068400D02*
X0281200Y0068400D01*
X0281200Y0067402D02*
X0281800Y0067402D01*
X0281800Y0066403D02*
X0330701Y0066403D01*
X0330701Y0071396D02*
X0158700Y0071396D01*
X0158700Y0072394D02*
X0308959Y0072394D01*
X0309553Y0071800D02*
X0313447Y0071800D01*
X0316200Y0074553D01*
X0316200Y0078447D01*
X0313447Y0081200D01*
X0309553Y0081200D01*
X0306800Y0078447D01*
X0306800Y0074553D01*
X0309553Y0071800D01*
X0307960Y0073393D02*
X0158700Y0073393D01*
X0158700Y0074391D02*
X0306962Y0074391D01*
X0306800Y0075390D02*
X0158700Y0075390D01*
X0158700Y0076388D02*
X0306800Y0076388D01*
X0306800Y0077387D02*
X0288468Y0077387D01*
X0288281Y0077200D02*
X0290800Y0079719D01*
X0290800Y0083281D01*
X0288281Y0085800D01*
X0284719Y0085800D01*
X0282200Y0083281D01*
X0282200Y0079719D01*
X0284719Y0077200D01*
X0288281Y0077200D01*
X0289466Y0078385D02*
X0306800Y0078385D01*
X0307737Y0079384D02*
X0290465Y0079384D01*
X0290800Y0080382D02*
X0308736Y0080382D01*
X0314264Y0080382D02*
X0319301Y0080382D01*
X0319719Y0080800D02*
X0317200Y0078281D01*
X0317200Y0074719D01*
X0319719Y0072200D01*
X0323281Y0072200D01*
X0325800Y0074719D01*
X0325800Y0078281D01*
X0323281Y0080800D01*
X0319719Y0080800D01*
X0318303Y0079384D02*
X0315263Y0079384D01*
X0316200Y0078385D02*
X0317304Y0078385D01*
X0317200Y0077387D02*
X0316200Y0077387D01*
X0316200Y0076388D02*
X0317200Y0076388D01*
X0317200Y0075390D02*
X0316200Y0075390D01*
X0316038Y0074391D02*
X0317528Y0074391D01*
X0318526Y0073393D02*
X0315040Y0073393D01*
X0314041Y0072394D02*
X0319525Y0072394D01*
X0323475Y0072394D02*
X0330701Y0072394D01*
X0330701Y0073393D02*
X0324474Y0073393D01*
X0325472Y0074391D02*
X0330701Y0074391D01*
X0330701Y0075390D02*
X0325800Y0075390D01*
X0325800Y0076388D02*
X0330701Y0076388D01*
X0330701Y0077387D02*
X0325800Y0077387D01*
X0325696Y0078385D02*
X0330701Y0078385D01*
X0330701Y0079384D02*
X0324697Y0079384D01*
X0323699Y0080382D02*
X0330701Y0080382D01*
X0330701Y0081381D02*
X0290800Y0081381D01*
X0290800Y0082379D02*
X0330701Y0082379D01*
X0330701Y0083378D02*
X0290703Y0083378D01*
X0289705Y0084376D02*
X0330701Y0084376D01*
X0330701Y0085375D02*
X0288706Y0085375D01*
X0284294Y0085375D02*
X0268706Y0085375D01*
X0268281Y0085800D02*
X0264719Y0085800D01*
X0262200Y0083281D01*
X0262200Y0079719D01*
X0264719Y0077200D01*
X0268281Y0077200D01*
X0270800Y0079719D01*
X0270800Y0083281D01*
X0268281Y0085800D01*
X0269705Y0084376D02*
X0283295Y0084376D01*
X0282297Y0083378D02*
X0270703Y0083378D01*
X0270800Y0082379D02*
X0282200Y0082379D01*
X0282200Y0081381D02*
X0270800Y0081381D01*
X0270800Y0080382D02*
X0282200Y0080382D01*
X0282535Y0079384D02*
X0270465Y0079384D01*
X0269466Y0078385D02*
X0283534Y0078385D01*
X0284532Y0077387D02*
X0268468Y0077387D01*
X0264532Y0077387D02*
X0258468Y0077387D01*
X0258281Y0077200D02*
X0260800Y0079719D01*
X0260800Y0083281D01*
X0258281Y0085800D01*
X0254719Y0085800D01*
X0252200Y0083281D01*
X0252200Y0079719D01*
X0254719Y0077200D01*
X0258281Y0077200D01*
X0259466Y0078385D02*
X0263534Y0078385D01*
X0262535Y0079384D02*
X0260465Y0079384D01*
X0260800Y0080382D02*
X0262200Y0080382D01*
X0262200Y0081381D02*
X0260800Y0081381D01*
X0260800Y0082379D02*
X0262200Y0082379D01*
X0262297Y0083378D02*
X0260703Y0083378D01*
X0259705Y0084376D02*
X0263295Y0084376D01*
X0264294Y0085375D02*
X0258706Y0085375D01*
X0254294Y0085375D02*
X0238706Y0085375D01*
X0238281Y0085800D02*
X0234719Y0085800D01*
X0232200Y0083281D01*
X0232200Y0079719D01*
X0234719Y0077200D01*
X0238281Y0077200D01*
X0240800Y0079719D01*
X0240800Y0083281D01*
X0238281Y0085800D01*
X0239705Y0084376D02*
X0253295Y0084376D01*
X0252297Y0083378D02*
X0240703Y0083378D01*
X0240800Y0082379D02*
X0252200Y0082379D01*
X0252200Y0081381D02*
X0240800Y0081381D01*
X0240800Y0080382D02*
X0252200Y0080382D01*
X0252535Y0079384D02*
X0240465Y0079384D01*
X0239466Y0078385D02*
X0253534Y0078385D01*
X0254532Y0077387D02*
X0238468Y0077387D01*
X0234532Y0077387D02*
X0228468Y0077387D01*
X0228281Y0077200D02*
X0230800Y0079719D01*
X0230800Y0083281D01*
X0228281Y0085800D01*
X0224719Y0085800D01*
X0222200Y0083281D01*
X0222200Y0079719D01*
X0224719Y0077200D01*
X0228281Y0077200D01*
X0229466Y0078385D02*
X0233534Y0078385D01*
X0232535Y0079384D02*
X0230465Y0079384D01*
X0230800Y0080382D02*
X0232200Y0080382D01*
X0232200Y0081381D02*
X0230800Y0081381D01*
X0230800Y0082379D02*
X0232200Y0082379D01*
X0232297Y0083378D02*
X0230703Y0083378D01*
X0229705Y0084376D02*
X0233295Y0084376D01*
X0234294Y0085375D02*
X0228706Y0085375D01*
X0224294Y0085375D02*
X0208706Y0085375D01*
X0208281Y0085800D02*
X0204719Y0085800D01*
X0202200Y0083281D01*
X0202200Y0079719D01*
X0204719Y0077200D01*
X0208281Y0077200D01*
X0210800Y0079719D01*
X0210800Y0083281D01*
X0208281Y0085800D01*
X0209705Y0084376D02*
X0223295Y0084376D01*
X0222297Y0083378D02*
X0210703Y0083378D01*
X0210800Y0082379D02*
X0222200Y0082379D01*
X0222200Y0081381D02*
X0210800Y0081381D01*
X0210800Y0080382D02*
X0222200Y0080382D01*
X0222535Y0079384D02*
X0210465Y0079384D01*
X0209466Y0078385D02*
X0223534Y0078385D01*
X0224532Y0077387D02*
X0208468Y0077387D01*
X0204532Y0077387D02*
X0158700Y0077387D01*
X0158700Y0078385D02*
X0203534Y0078385D01*
X0202535Y0079384D02*
X0158700Y0079384D01*
X0158700Y0080382D02*
X0202200Y0080382D01*
X0202200Y0081381D02*
X0158700Y0081381D01*
X0158700Y0082379D02*
X0202200Y0082379D01*
X0202297Y0083378D02*
X0158700Y0083378D01*
X0158700Y0084376D02*
X0203295Y0084376D01*
X0204294Y0085375D02*
X0158700Y0085375D01*
X0158700Y0086373D02*
X0330701Y0086373D01*
X0330701Y0087372D02*
X0158700Y0087372D01*
X0158700Y0088370D02*
X0330701Y0088370D01*
X0330701Y0089369D02*
X0158700Y0089369D01*
X0158700Y0090368D02*
X0330701Y0090368D01*
X0330701Y0091366D02*
X0158700Y0091366D01*
X0158700Y0092365D02*
X0159554Y0092365D01*
X0163446Y0092365D02*
X0169554Y0092365D01*
X0169719Y0092200D02*
X0173281Y0092200D01*
X0175800Y0094719D01*
X0175800Y0098281D01*
X0173281Y0100800D01*
X0169719Y0100800D01*
X0167200Y0098281D01*
X0167200Y0094719D01*
X0169719Y0092200D01*
X0168556Y0093363D02*
X0164444Y0093363D01*
X0165443Y0094362D02*
X0167557Y0094362D01*
X0167200Y0095360D02*
X0165800Y0095360D01*
X0165800Y0096359D02*
X0167200Y0096359D01*
X0167200Y0097357D02*
X0165800Y0097357D01*
X0165725Y0098356D02*
X0167274Y0098356D01*
X0168273Y0099354D02*
X0164727Y0099354D01*
X0163728Y0100353D02*
X0169272Y0100353D01*
X0173728Y0100353D02*
X0202200Y0100353D01*
X0202200Y0099719D02*
X0204719Y0097200D01*
X0208281Y0097200D01*
X0210800Y0099719D01*
X0210800Y0103281D01*
X0208281Y0105800D01*
X0204719Y0105800D01*
X0202200Y0103281D01*
X0202200Y0099719D01*
X0202565Y0099354D02*
X0174727Y0099354D01*
X0175725Y0098356D02*
X0203563Y0098356D01*
X0204562Y0097357D02*
X0175800Y0097357D01*
X0175800Y0096359D02*
X0330701Y0096359D01*
X0330701Y0097357D02*
X0288438Y0097357D01*
X0288281Y0097200D02*
X0290800Y0099719D01*
X0290800Y0103281D01*
X0288281Y0105800D01*
X0284719Y0105800D01*
X0282200Y0103281D01*
X0282200Y0099719D01*
X0284719Y0097200D01*
X0288281Y0097200D01*
X0289437Y0098356D02*
X0330701Y0098356D01*
X0330701Y0099354D02*
X0290435Y0099354D01*
X0290800Y0100353D02*
X0330701Y0100353D01*
X0330701Y0101351D02*
X0290800Y0101351D01*
X0290800Y0102350D02*
X0330701Y0102350D01*
X0330701Y0103348D02*
X0290733Y0103348D01*
X0289734Y0104347D02*
X0330701Y0104347D01*
X0330701Y0105345D02*
X0288736Y0105345D01*
X0284264Y0105345D02*
X0268736Y0105345D01*
X0268281Y0105800D02*
X0264719Y0105800D01*
X0262200Y0103281D01*
X0262200Y0099719D01*
X0264719Y0097200D01*
X0268281Y0097200D01*
X0270800Y0099719D01*
X0270800Y0103281D01*
X0268281Y0105800D01*
X0269734Y0104347D02*
X0283266Y0104347D01*
X0282267Y0103348D02*
X0270733Y0103348D01*
X0270800Y0102350D02*
X0282200Y0102350D01*
X0282200Y0101351D02*
X0270800Y0101351D01*
X0270800Y0100353D02*
X0282200Y0100353D01*
X0282565Y0099354D02*
X0270435Y0099354D01*
X0269437Y0098356D02*
X0283563Y0098356D01*
X0284562Y0097357D02*
X0268438Y0097357D01*
X0264562Y0097357D02*
X0258438Y0097357D01*
X0258281Y0097200D02*
X0260800Y0099719D01*
X0260800Y0103281D01*
X0258281Y0105800D01*
X0254719Y0105800D01*
X0252200Y0103281D01*
X0252200Y0099719D01*
X0254719Y0097200D01*
X0258281Y0097200D01*
X0259437Y0098356D02*
X0263563Y0098356D01*
X0262565Y0099354D02*
X0260435Y0099354D01*
X0260800Y0100353D02*
X0262200Y0100353D01*
X0262200Y0101351D02*
X0260800Y0101351D01*
X0260800Y0102350D02*
X0262200Y0102350D01*
X0262267Y0103348D02*
X0260733Y0103348D01*
X0259734Y0104347D02*
X0263266Y0104347D01*
X0264264Y0105345D02*
X0258736Y0105345D01*
X0254264Y0105345D02*
X0238736Y0105345D01*
X0238281Y0105800D02*
X0234719Y0105800D01*
X0232200Y0103281D01*
X0232200Y0099719D01*
X0234719Y0097200D01*
X0238281Y0097200D01*
X0240800Y0099719D01*
X0240800Y0103281D01*
X0238281Y0105800D01*
X0239734Y0104347D02*
X0253266Y0104347D01*
X0252267Y0103348D02*
X0240733Y0103348D01*
X0240800Y0102350D02*
X0252200Y0102350D01*
X0252200Y0101351D02*
X0240800Y0101351D01*
X0240800Y0100353D02*
X0252200Y0100353D01*
X0252565Y0099354D02*
X0240435Y0099354D01*
X0239437Y0098356D02*
X0253563Y0098356D01*
X0254562Y0097357D02*
X0238438Y0097357D01*
X0234562Y0097357D02*
X0228438Y0097357D01*
X0228281Y0097200D02*
X0230800Y0099719D01*
X0230800Y0103281D01*
X0228281Y0105800D01*
X0224719Y0105800D01*
X0222200Y0103281D01*
X0222200Y0099719D01*
X0224719Y0097200D01*
X0228281Y0097200D01*
X0229437Y0098356D02*
X0233563Y0098356D01*
X0232565Y0099354D02*
X0230435Y0099354D01*
X0230800Y0100353D02*
X0232200Y0100353D01*
X0232200Y0101351D02*
X0230800Y0101351D01*
X0230800Y0102350D02*
X0232200Y0102350D01*
X0232267Y0103348D02*
X0230733Y0103348D01*
X0229734Y0104347D02*
X0233266Y0104347D01*
X0234264Y0105345D02*
X0228736Y0105345D01*
X0224264Y0105345D02*
X0208736Y0105345D01*
X0209734Y0104347D02*
X0223266Y0104347D01*
X0222267Y0103348D02*
X0210733Y0103348D01*
X0210800Y0102350D02*
X0222200Y0102350D01*
X0222200Y0101351D02*
X0210800Y0101351D01*
X0210800Y0100353D02*
X0222200Y0100353D01*
X0222565Y0099354D02*
X0210435Y0099354D01*
X0209437Y0098356D02*
X0223563Y0098356D01*
X0224562Y0097357D02*
X0208438Y0097357D01*
X0202200Y0101351D02*
X0158700Y0101351D01*
X0158700Y0100353D02*
X0159272Y0100353D01*
X0158700Y0102350D02*
X0202200Y0102350D01*
X0202267Y0103348D02*
X0158700Y0103348D01*
X0158700Y0104347D02*
X0203266Y0104347D01*
X0204264Y0105345D02*
X0158700Y0105345D01*
X0158700Y0106344D02*
X0330701Y0106344D01*
X0330701Y0107342D02*
X0158700Y0107342D01*
X0157771Y0108341D02*
X0330701Y0108341D01*
X0330701Y0109339D02*
X0152342Y0109339D01*
X0151071Y0110338D02*
X0330701Y0110338D01*
X0330701Y0111336D02*
X0108700Y0111336D01*
X0108700Y0110338D02*
X0112443Y0110338D01*
X0112326Y0110300D02*
X0111751Y0110007D01*
X0111229Y0109627D01*
X0110773Y0109171D01*
X0110393Y0108649D01*
X0110100Y0108074D01*
X0109901Y0107460D01*
X0109800Y0106823D01*
X0109800Y0106800D01*
X0116200Y0106800D01*
X0116200Y0110600D01*
X0113577Y0110600D01*
X0112940Y0110499D01*
X0112326Y0110300D01*
X0110941Y0109339D02*
X0108700Y0109339D01*
X0108700Y0108341D02*
X0110236Y0108341D01*
X0109882Y0107342D02*
X0108700Y0107342D01*
X0108700Y0106344D02*
X0116200Y0106344D01*
X0116200Y0106200D02*
X0109800Y0106200D01*
X0109800Y0106177D01*
X0109901Y0105540D01*
X0110100Y0104926D01*
X0110393Y0104351D01*
X0110773Y0103829D01*
X0111229Y0103373D01*
X0111751Y0102993D01*
X0112326Y0102700D01*
X0112940Y0102501D01*
X0113577Y0102400D01*
X0116200Y0102400D01*
X0116200Y0106200D01*
X0116800Y0106200D01*
X0116800Y0106800D01*
X0116200Y0106800D01*
X0116200Y0106200D01*
X0116800Y0106200D02*
X0116800Y0102400D01*
X0119423Y0102400D01*
X0120060Y0102501D01*
X0120674Y0102700D01*
X0121249Y0102993D01*
X0121771Y0103373D01*
X0122227Y0103829D01*
X0122607Y0104351D01*
X0122900Y0104926D01*
X0123099Y0105540D01*
X0123200Y0106177D01*
X0123200Y0106200D01*
X0116800Y0106200D01*
X0116800Y0106344D02*
X0139600Y0106344D01*
X0139600Y0107342D02*
X0123118Y0107342D01*
X0123099Y0107460D02*
X0122900Y0108074D01*
X0122607Y0108649D01*
X0122227Y0109171D01*
X0121771Y0109627D01*
X0121249Y0110007D01*
X0120674Y0110300D01*
X0120060Y0110499D01*
X0119423Y0110600D01*
X0116800Y0110600D01*
X0116800Y0106800D01*
X0123200Y0106800D01*
X0123200Y0106823D01*
X0123099Y0107460D01*
X0122764Y0108341D02*
X0140008Y0108341D01*
X0140658Y0109339D02*
X0122059Y0109339D01*
X0120557Y0110338D02*
X0141929Y0110338D01*
X0142719Y0112335D02*
X0120281Y0112335D01*
X0119955Y0112200D02*
X0121536Y0112855D01*
X0122745Y0114064D01*
X0123400Y0115645D01*
X0123400Y0117355D01*
X0122745Y0118936D01*
X0121536Y0120145D01*
X0119955Y0120800D01*
X0113045Y0120800D01*
X0111464Y0120145D01*
X0110255Y0118936D01*
X0109600Y0117355D01*
X0109600Y0115645D01*
X0110255Y0114064D01*
X0111464Y0112855D01*
X0113045Y0112200D01*
X0119955Y0112200D01*
X0122014Y0113333D02*
X0140986Y0113333D01*
X0141464Y0112855D02*
X0143045Y0112200D01*
X0149955Y0112200D01*
X0151536Y0112855D01*
X0152745Y0114064D01*
X0153400Y0115645D01*
X0153400Y0117355D01*
X0152745Y0118936D01*
X0151536Y0120145D01*
X0149955Y0120800D01*
X0143045Y0120800D01*
X0141464Y0120145D01*
X0140255Y0118936D01*
X0139600Y0117355D01*
X0139600Y0115645D01*
X0140255Y0114064D01*
X0141464Y0112855D01*
X0140144Y0114332D02*
X0122856Y0114332D01*
X0123270Y0115330D02*
X0139730Y0115330D01*
X0139600Y0116329D02*
X0123400Y0116329D01*
X0123400Y0117327D02*
X0139600Y0117327D01*
X0140002Y0118326D02*
X0122998Y0118326D01*
X0122357Y0119324D02*
X0140643Y0119324D01*
X0141893Y0120323D02*
X0121107Y0120323D01*
X0120245Y0122320D02*
X0142755Y0122320D01*
X0143045Y0122200D02*
X0149955Y0122200D01*
X0151536Y0122855D01*
X0152745Y0124064D01*
X0153400Y0125645D01*
X0153400Y0127355D01*
X0152745Y0128936D01*
X0151536Y0130145D01*
X0149955Y0130800D01*
X0143045Y0130800D01*
X0141464Y0130145D01*
X0140255Y0128936D01*
X0139600Y0127355D01*
X0139600Y0125645D01*
X0140255Y0124064D01*
X0141464Y0122855D01*
X0143045Y0122200D01*
X0141000Y0123318D02*
X0121999Y0123318D01*
X0121536Y0122855D02*
X0122745Y0124064D01*
X0123400Y0125645D01*
X0123400Y0127355D01*
X0122745Y0128936D01*
X0121536Y0130145D01*
X0119955Y0130800D01*
X0113045Y0130800D01*
X0111464Y0130145D01*
X0110255Y0128936D01*
X0109600Y0127355D01*
X0109600Y0125645D01*
X0110255Y0124064D01*
X0111464Y0122855D01*
X0113045Y0122200D01*
X0119955Y0122200D01*
X0121536Y0122855D01*
X0122850Y0124317D02*
X0140150Y0124317D01*
X0139736Y0125315D02*
X0123264Y0125315D01*
X0123400Y0126314D02*
X0139600Y0126314D01*
X0139600Y0127312D02*
X0123400Y0127312D01*
X0123004Y0128311D02*
X0139996Y0128311D01*
X0140628Y0129309D02*
X0122372Y0129309D01*
X0121143Y0130308D02*
X0141857Y0130308D01*
X0142791Y0132305D02*
X0120209Y0132305D01*
X0119955Y0132200D02*
X0121536Y0132855D01*
X0122745Y0134064D01*
X0123400Y0135645D01*
X0123400Y0137355D01*
X0122745Y0138936D01*
X0121536Y0140145D01*
X0119955Y0140800D01*
X0113045Y0140800D01*
X0111464Y0140145D01*
X0110255Y0138936D01*
X0109600Y0137355D01*
X0109600Y0135645D01*
X0110255Y0134064D01*
X0111464Y0132855D01*
X0113045Y0132200D01*
X0119955Y0132200D01*
X0121985Y0133303D02*
X0141015Y0133303D01*
X0141464Y0132855D02*
X0143045Y0132200D01*
X0149955Y0132200D01*
X0151536Y0132855D01*
X0152745Y0134064D01*
X0153400Y0135645D01*
X0153400Y0137355D01*
X0152745Y0138936D01*
X0151536Y0140145D01*
X0149955Y0140800D01*
X0143045Y0140800D01*
X0141464Y0140145D01*
X0140255Y0138936D01*
X0139600Y0137355D01*
X0139600Y0135645D01*
X0140255Y0134064D01*
X0141464Y0132855D01*
X0140156Y0134302D02*
X0122844Y0134302D01*
X0123257Y0135301D02*
X0139743Y0135301D01*
X0139600Y0136299D02*
X0123400Y0136299D01*
X0123400Y0137298D02*
X0139600Y0137298D01*
X0139990Y0138296D02*
X0123010Y0138296D01*
X0122387Y0139295D02*
X0140613Y0139295D01*
X0141821Y0140293D02*
X0121179Y0140293D01*
X0111821Y0140293D02*
X0108700Y0140293D01*
X0108700Y0139295D02*
X0110613Y0139295D01*
X0109990Y0138296D02*
X0108700Y0138296D01*
X0108700Y0137298D02*
X0109600Y0137298D01*
X0109600Y0136299D02*
X0108700Y0136299D01*
X0108700Y0135301D02*
X0109743Y0135301D01*
X0110156Y0134302D02*
X0108700Y0134302D01*
X0108700Y0133303D02*
X0111015Y0133303D01*
X0112791Y0132305D02*
X0108700Y0132305D01*
X0108700Y0131306D02*
X0330701Y0131306D01*
X0330701Y0130308D02*
X0278773Y0130308D01*
X0278281Y0130800D02*
X0274719Y0130800D01*
X0272200Y0128281D01*
X0272200Y0124719D01*
X0274719Y0122200D01*
X0278281Y0122200D01*
X0280800Y0124719D01*
X0280800Y0128281D01*
X0278281Y0130800D01*
X0278281Y0132200D02*
X0274719Y0132200D01*
X0272200Y0134719D01*
X0272200Y0138281D01*
X0274719Y0140800D01*
X0278281Y0140800D01*
X0280800Y0138281D01*
X0280800Y0134719D01*
X0278281Y0132200D01*
X0278386Y0132305D02*
X0330701Y0132305D01*
X0330701Y0133303D02*
X0279385Y0133303D01*
X0280383Y0134302D02*
X0330701Y0134302D01*
X0330701Y0135301D02*
X0280800Y0135301D01*
X0280800Y0136299D02*
X0330701Y0136299D01*
X0330701Y0137298D02*
X0280800Y0137298D01*
X0280785Y0138296D02*
X0330701Y0138296D01*
X0330701Y0139295D02*
X0279787Y0139295D01*
X0278788Y0140293D02*
X0330701Y0140293D01*
X0330701Y0141292D02*
X0108700Y0141292D01*
X0108700Y0142290D02*
X0214629Y0142290D01*
X0214719Y0142200D02*
X0218281Y0142200D01*
X0220800Y0144719D01*
X0220800Y0148281D01*
X0218281Y0150800D01*
X0214719Y0150800D01*
X0212200Y0148281D01*
X0212200Y0144719D01*
X0214719Y0142200D01*
X0214719Y0140800D02*
X0212200Y0138281D01*
X0212200Y0134719D01*
X0214719Y0132200D01*
X0218281Y0132200D01*
X0220800Y0134719D01*
X0220800Y0138281D01*
X0218281Y0140800D01*
X0214719Y0140800D01*
X0214212Y0140293D02*
X0151179Y0140293D01*
X0152387Y0139295D02*
X0213213Y0139295D01*
X0212215Y0138296D02*
X0153010Y0138296D01*
X0153400Y0137298D02*
X0212200Y0137298D01*
X0212200Y0136299D02*
X0153400Y0136299D01*
X0153257Y0135301D02*
X0212200Y0135301D01*
X0212617Y0134302D02*
X0152844Y0134302D01*
X0151985Y0133303D02*
X0213615Y0133303D01*
X0214614Y0132305D02*
X0150209Y0132305D01*
X0151143Y0130308D02*
X0214227Y0130308D01*
X0214719Y0130800D02*
X0212200Y0128281D01*
X0212200Y0124719D01*
X0214719Y0122200D01*
X0218281Y0122200D01*
X0220800Y0124719D01*
X0220800Y0128281D01*
X0218281Y0130800D01*
X0214719Y0130800D01*
X0213228Y0129309D02*
X0152372Y0129309D01*
X0153004Y0128311D02*
X0212230Y0128311D01*
X0212200Y0127312D02*
X0153400Y0127312D01*
X0153400Y0126314D02*
X0212200Y0126314D01*
X0212200Y0125315D02*
X0153264Y0125315D01*
X0152850Y0124317D02*
X0212602Y0124317D01*
X0213601Y0123318D02*
X0151999Y0123318D01*
X0150245Y0122320D02*
X0214599Y0122320D01*
X0214719Y0120800D02*
X0212200Y0118281D01*
X0212200Y0114719D01*
X0214719Y0112200D01*
X0218281Y0112200D01*
X0220800Y0114719D01*
X0220800Y0118281D01*
X0218281Y0120800D01*
X0214719Y0120800D01*
X0214242Y0120323D02*
X0173758Y0120323D01*
X0173281Y0120800D02*
X0169719Y0120800D01*
X0167200Y0118281D01*
X0167200Y0114719D01*
X0169719Y0112200D01*
X0173281Y0112200D01*
X0175800Y0114719D01*
X0175800Y0118281D01*
X0173281Y0120800D01*
X0174757Y0119324D02*
X0213243Y0119324D01*
X0212245Y0118326D02*
X0175755Y0118326D01*
X0175800Y0117327D02*
X0212200Y0117327D01*
X0212200Y0116329D02*
X0175800Y0116329D01*
X0175800Y0115330D02*
X0212200Y0115330D01*
X0212587Y0114332D02*
X0175413Y0114332D01*
X0174414Y0113333D02*
X0213586Y0113333D01*
X0214584Y0112335D02*
X0173416Y0112335D01*
X0169584Y0112335D02*
X0163416Y0112335D01*
X0163281Y0112200D02*
X0165800Y0114719D01*
X0165800Y0118281D01*
X0163281Y0120800D01*
X0159719Y0120800D01*
X0157200Y0118281D01*
X0157200Y0114719D01*
X0159719Y0112200D01*
X0163281Y0112200D01*
X0164414Y0113333D02*
X0168586Y0113333D01*
X0167587Y0114332D02*
X0165413Y0114332D01*
X0165800Y0115330D02*
X0167200Y0115330D01*
X0167200Y0116329D02*
X0165800Y0116329D01*
X0165800Y0117327D02*
X0167200Y0117327D01*
X0167245Y0118326D02*
X0165755Y0118326D01*
X0164757Y0119324D02*
X0168243Y0119324D01*
X0169242Y0120323D02*
X0163758Y0120323D01*
X0159242Y0120323D02*
X0151107Y0120323D01*
X0152357Y0119324D02*
X0158243Y0119324D01*
X0157245Y0118326D02*
X0152998Y0118326D01*
X0153400Y0117327D02*
X0157200Y0117327D01*
X0157200Y0116329D02*
X0153400Y0116329D01*
X0153270Y0115330D02*
X0157200Y0115330D01*
X0157587Y0114332D02*
X0152856Y0114332D01*
X0152014Y0113333D02*
X0158586Y0113333D01*
X0159584Y0112335D02*
X0150281Y0112335D01*
X0146500Y0106500D02*
X0156500Y0106500D01*
X0156500Y0066500D01*
X0153311Y0066403D02*
X0006000Y0066403D01*
X0006000Y0065405D02*
X0153311Y0065405D01*
X0153311Y0064406D02*
X0006000Y0064406D01*
X0006000Y0063408D02*
X0039294Y0063408D01*
X0038296Y0062409D02*
X0006000Y0062409D01*
X0006000Y0061411D02*
X0037582Y0061411D01*
X0037169Y0060412D02*
X0006000Y0060412D01*
X0006000Y0059414D02*
X0036926Y0059414D01*
X0036926Y0058415D02*
X0006000Y0058415D01*
X0006000Y0057417D02*
X0036995Y0057417D01*
X0037409Y0056418D02*
X0006000Y0056418D01*
X0006000Y0055420D02*
X0037876Y0055420D01*
X0038875Y0054421D02*
X0006000Y0054421D01*
X0006000Y0053423D02*
X0040585Y0053423D01*
X0053706Y0063408D02*
X0154210Y0063408D01*
X0153311Y0067402D02*
X0006000Y0067402D01*
X0006000Y0068400D02*
X0153311Y0068400D01*
X0154017Y0069399D02*
X0006000Y0069399D01*
X0006000Y0070397D02*
X0154300Y0070397D01*
X0154300Y0071396D02*
X0006000Y0071396D01*
X0006000Y0072394D02*
X0024525Y0072394D01*
X0024719Y0072200D02*
X0028281Y0072200D01*
X0030800Y0074719D01*
X0030800Y0078281D01*
X0028281Y0080800D01*
X0024719Y0080800D01*
X0022200Y0078281D01*
X0022200Y0074719D01*
X0024719Y0072200D01*
X0023526Y0073393D02*
X0006000Y0073393D01*
X0006000Y0074391D02*
X0022528Y0074391D01*
X0022200Y0075390D02*
X0006000Y0075390D01*
X0006000Y0076388D02*
X0022200Y0076388D01*
X0022200Y0077387D02*
X0006000Y0077387D01*
X0006000Y0078385D02*
X0022304Y0078385D01*
X0023303Y0079384D02*
X0006000Y0079384D01*
X0006000Y0080382D02*
X0024301Y0080382D01*
X0024719Y0082200D02*
X0028281Y0082200D01*
X0030800Y0084719D01*
X0030800Y0088281D01*
X0028281Y0090800D01*
X0024719Y0090800D01*
X0022200Y0088281D01*
X0022200Y0084719D01*
X0024719Y0082200D01*
X0024539Y0082379D02*
X0006000Y0082379D01*
X0006000Y0081381D02*
X0042200Y0081381D01*
X0042200Y0082379D02*
X0028461Y0082379D01*
X0029459Y0083378D02*
X0042297Y0083378D01*
X0042200Y0083281D02*
X0042200Y0079719D01*
X0044719Y0077200D01*
X0048281Y0077200D01*
X0050800Y0079719D01*
X0050800Y0083281D01*
X0048281Y0085800D01*
X0044719Y0085800D01*
X0042200Y0083281D01*
X0043295Y0084376D02*
X0030458Y0084376D01*
X0030800Y0085375D02*
X0044294Y0085375D01*
X0044802Y0087400D02*
X0042400Y0089802D01*
X0042400Y0091200D01*
X0046200Y0091200D01*
X0046200Y0091800D01*
X0046200Y0095600D01*
X0044802Y0095600D01*
X0042400Y0093198D01*
X0042400Y0091800D01*
X0046200Y0091800D01*
X0046800Y0091800D01*
X0046800Y0095600D01*
X0048198Y0095600D01*
X0050600Y0093198D01*
X0050600Y0091800D01*
X0046800Y0091800D01*
X0046800Y0091200D01*
X0050600Y0091200D01*
X0050600Y0089802D01*
X0048198Y0087400D01*
X0046800Y0087400D01*
X0046800Y0091200D01*
X0046200Y0091200D01*
X0046200Y0087400D01*
X0044802Y0087400D01*
X0043831Y0088370D02*
X0030711Y0088370D01*
X0030800Y0087372D02*
X0104300Y0087372D01*
X0104300Y0088370D02*
X0049169Y0088370D01*
X0050167Y0089369D02*
X0104300Y0089369D01*
X0104300Y0090368D02*
X0050600Y0090368D01*
X0050600Y0092365D02*
X0079554Y0092365D01*
X0079719Y0092200D02*
X0083281Y0092200D01*
X0085800Y0094719D01*
X0085800Y0098281D01*
X0083281Y0100800D01*
X0079719Y0100800D01*
X0077200Y0098281D01*
X0077200Y0094719D01*
X0079719Y0092200D01*
X0078556Y0093363D02*
X0050435Y0093363D01*
X0049437Y0094362D02*
X0077557Y0094362D01*
X0077200Y0095360D02*
X0048438Y0095360D01*
X0046800Y0095360D02*
X0046200Y0095360D01*
X0046200Y0094362D02*
X0046800Y0094362D01*
X0046800Y0093363D02*
X0046200Y0093363D01*
X0046200Y0092365D02*
X0046800Y0092365D01*
X0046800Y0091366D02*
X0104300Y0091366D01*
X0104300Y0092365D02*
X0103446Y0092365D01*
X0103281Y0092200D02*
X0104300Y0093219D01*
X0104300Y0079781D01*
X0103281Y0080800D01*
X0099719Y0080800D01*
X0097200Y0078281D01*
X0097200Y0074719D01*
X0099719Y0072200D01*
X0103281Y0072200D01*
X0105485Y0074404D01*
X0105589Y0074300D01*
X0110157Y0074300D01*
X0110255Y0074064D01*
X0111464Y0072855D01*
X0113045Y0072200D01*
X0119955Y0072200D01*
X0121536Y0072855D01*
X0122745Y0074064D01*
X0123400Y0075645D01*
X0123400Y0077355D01*
X0122745Y0078936D01*
X0121536Y0080145D01*
X0119955Y0080800D01*
X0113045Y0080800D01*
X0111464Y0080145D01*
X0110255Y0078936D01*
X0110157Y0078700D01*
X0108700Y0078700D01*
X0108700Y0159300D01*
X0128219Y0159300D01*
X0127200Y0158281D01*
X0127200Y0154719D01*
X0129719Y0152200D01*
X0133281Y0152200D01*
X0135800Y0154719D01*
X0135800Y0158281D01*
X0134781Y0159300D01*
X0142411Y0159300D01*
X0143700Y0160589D01*
X0143700Y0171500D01*
X0145795Y0171500D01*
X0147632Y0172261D01*
X0149039Y0173668D01*
X0149800Y0175505D01*
X0149800Y0177495D01*
X0149039Y0179332D01*
X0147632Y0180739D01*
X0145795Y0181500D01*
X0137205Y0181500D01*
X0135368Y0180739D01*
X0133961Y0179332D01*
X0133200Y0177495D01*
X0133200Y0175505D01*
X0133961Y0173668D01*
X0135368Y0172261D01*
X0137205Y0171500D01*
X0139300Y0171500D01*
X0139300Y0163700D01*
X0105589Y0163700D01*
X0104300Y0162411D01*
X0104300Y0129781D01*
X0103281Y0130800D01*
X0099719Y0130800D01*
X0097200Y0128281D01*
X0097200Y0124719D01*
X0099719Y0122200D01*
X0103281Y0122200D01*
X0104300Y0123219D01*
X0104300Y0109781D01*
X0103281Y0110800D01*
X0099719Y0110800D01*
X0097200Y0108281D01*
X0097200Y0104719D01*
X0099719Y0102200D01*
X0103281Y0102200D01*
X0104300Y0103219D01*
X0104300Y0099781D01*
X0103281Y0100800D01*
X0099719Y0100800D01*
X0097200Y0098281D01*
X0097200Y0094719D01*
X0099719Y0092200D01*
X0103281Y0092200D01*
X0099554Y0092365D02*
X0083446Y0092365D01*
X0084444Y0093363D02*
X0098556Y0093363D01*
X0097557Y0094362D02*
X0085443Y0094362D01*
X0085800Y0095360D02*
X0097200Y0095360D01*
X0097200Y0096359D02*
X0085800Y0096359D01*
X0085800Y0097357D02*
X0097200Y0097357D01*
X0097274Y0098356D02*
X0085725Y0098356D01*
X0084727Y0099354D02*
X0098273Y0099354D01*
X0099272Y0100353D02*
X0083728Y0100353D01*
X0083281Y0102200D02*
X0079719Y0102200D01*
X0077200Y0104719D01*
X0077200Y0108281D01*
X0079719Y0110800D01*
X0083281Y0110800D01*
X0085800Y0108281D01*
X0085800Y0104719D01*
X0083281Y0102200D01*
X0083431Y0102350D02*
X0099569Y0102350D01*
X0098571Y0103348D02*
X0084429Y0103348D01*
X0085428Y0104347D02*
X0097572Y0104347D01*
X0097200Y0105345D02*
X0085800Y0105345D01*
X0085800Y0106344D02*
X0097200Y0106344D01*
X0097200Y0107342D02*
X0085800Y0107342D01*
X0085740Y0108341D02*
X0097260Y0108341D01*
X0098258Y0109339D02*
X0084742Y0109339D01*
X0083743Y0110338D02*
X0099257Y0110338D01*
X0103743Y0110338D02*
X0104300Y0110338D01*
X0104300Y0111336D02*
X0051048Y0111336D01*
X0050948Y0111643D02*
X0050605Y0112316D01*
X0050161Y0112927D01*
X0049627Y0113461D01*
X0049016Y0113905D01*
X0048343Y0114248D01*
X0047624Y0114482D01*
X0047000Y0114581D01*
X0047000Y0107000D01*
X0051300Y0107000D01*
X0051300Y0110178D01*
X0051182Y0110924D01*
X0050948Y0111643D01*
X0050591Y0112335D02*
X0104300Y0112335D01*
X0104300Y0113333D02*
X0049755Y0113333D01*
X0048086Y0114332D02*
X0104300Y0114332D01*
X0104300Y0115330D02*
X0006000Y0115330D01*
X0006000Y0114332D02*
X0024375Y0114332D01*
X0023668Y0114039D02*
X0022261Y0112632D01*
X0021500Y0110795D01*
X0021500Y0102205D01*
X0022261Y0100368D01*
X0023668Y0098961D01*
X0025505Y0098200D01*
X0027495Y0098200D01*
X0029332Y0098961D01*
X0030739Y0100368D01*
X0031500Y0102205D01*
X0031500Y0110795D01*
X0030739Y0112632D01*
X0029332Y0114039D01*
X0027495Y0114800D01*
X0025505Y0114800D01*
X0023668Y0114039D01*
X0022962Y0113333D02*
X0006000Y0113333D01*
X0006000Y0112335D02*
X0022138Y0112335D01*
X0021724Y0111336D02*
X0006000Y0111336D01*
X0006000Y0110338D02*
X0021500Y0110338D01*
X0021500Y0109339D02*
X0006000Y0109339D01*
X0006000Y0108341D02*
X0021500Y0108341D01*
X0021500Y0107342D02*
X0006000Y0107342D01*
X0006000Y0106344D02*
X0021500Y0106344D01*
X0021500Y0105345D02*
X0006000Y0105345D01*
X0006000Y0104347D02*
X0021500Y0104347D01*
X0021500Y0103348D02*
X0006000Y0103348D01*
X0006000Y0102350D02*
X0021500Y0102350D01*
X0021854Y0101351D02*
X0006000Y0101351D01*
X0006000Y0100353D02*
X0022276Y0100353D01*
X0023275Y0099354D02*
X0006000Y0099354D01*
X0006000Y0098356D02*
X0025130Y0098356D01*
X0027870Y0098356D02*
X0035130Y0098356D01*
X0035505Y0098200D02*
X0037495Y0098200D01*
X0039332Y0098961D01*
X0040739Y0100368D01*
X0041500Y0102205D01*
X0041500Y0110795D01*
X0040739Y0112632D01*
X0039332Y0114039D01*
X0037495Y0114800D01*
X0035505Y0114800D01*
X0033668Y0114039D01*
X0032261Y0112632D01*
X0031500Y0110795D01*
X0031500Y0102205D01*
X0032261Y0100368D01*
X0033668Y0098961D01*
X0035505Y0098200D01*
X0037870Y0098356D02*
X0077274Y0098356D01*
X0077200Y0097357D02*
X0006000Y0097357D01*
X0006000Y0096359D02*
X0077200Y0096359D01*
X0078273Y0099354D02*
X0049373Y0099354D01*
X0049627Y0099539D02*
X0050161Y0100073D01*
X0050605Y0100684D01*
X0050948Y0101357D01*
X0051182Y0102076D01*
X0051300Y0102822D01*
X0051300Y0106000D01*
X0047000Y0106000D01*
X0047000Y0107000D01*
X0046000Y0107000D01*
X0046000Y0114581D01*
X0045376Y0114482D01*
X0044657Y0114248D01*
X0043984Y0113905D01*
X0043373Y0113461D01*
X0042839Y0112927D01*
X0042395Y0112316D01*
X0042052Y0111643D01*
X0041818Y0110924D01*
X0041700Y0110178D01*
X0041700Y0107000D01*
X0046000Y0107000D01*
X0046000Y0106000D01*
X0047000Y0106000D01*
X0047000Y0098419D01*
X0047624Y0098518D01*
X0048343Y0098752D01*
X0049016Y0099095D01*
X0049627Y0099539D01*
X0050364Y0100353D02*
X0079272Y0100353D01*
X0079569Y0102350D02*
X0051225Y0102350D01*
X0051300Y0103348D02*
X0078571Y0103348D01*
X0077572Y0104347D02*
X0051300Y0104347D01*
X0051300Y0105345D02*
X0077200Y0105345D01*
X0077200Y0106344D02*
X0047000Y0106344D01*
X0047000Y0107342D02*
X0046000Y0107342D01*
X0046000Y0106344D02*
X0041500Y0106344D01*
X0041700Y0106000D02*
X0041700Y0102822D01*
X0041818Y0102076D01*
X0042052Y0101357D01*
X0042395Y0100684D01*
X0042839Y0100073D01*
X0043373Y0099539D01*
X0043984Y0099095D01*
X0044657Y0098752D01*
X0045376Y0098518D01*
X0046000Y0098419D01*
X0046000Y0106000D01*
X0041700Y0106000D01*
X0041700Y0105345D02*
X0041500Y0105345D01*
X0041500Y0104347D02*
X0041700Y0104347D01*
X0041700Y0103348D02*
X0041500Y0103348D01*
X0041500Y0102350D02*
X0041775Y0102350D01*
X0042055Y0101351D02*
X0041146Y0101351D01*
X0040724Y0100353D02*
X0042636Y0100353D01*
X0043627Y0099354D02*
X0039725Y0099354D01*
X0044562Y0095360D02*
X0006000Y0095360D01*
X0006000Y0094362D02*
X0043563Y0094362D01*
X0042565Y0093363D02*
X0006000Y0093363D01*
X0006000Y0092365D02*
X0042400Y0092365D01*
X0042400Y0090368D02*
X0028714Y0090368D01*
X0029712Y0089369D02*
X0042833Y0089369D01*
X0046200Y0089369D02*
X0046800Y0089369D01*
X0046800Y0088370D02*
X0046200Y0088370D01*
X0046200Y0090368D02*
X0046800Y0090368D01*
X0046200Y0091366D02*
X0006000Y0091366D01*
X0006000Y0090368D02*
X0024286Y0090368D01*
X0023288Y0089369D02*
X0006000Y0089369D01*
X0006000Y0088370D02*
X0022289Y0088370D01*
X0022200Y0087372D02*
X0006000Y0087372D01*
X0006000Y0086373D02*
X0022200Y0086373D01*
X0022200Y0085375D02*
X0006000Y0085375D01*
X0006000Y0084376D02*
X0022542Y0084376D01*
X0023541Y0083378D02*
X0006000Y0083378D01*
X0028699Y0080382D02*
X0042200Y0080382D01*
X0042535Y0079384D02*
X0029697Y0079384D01*
X0030696Y0078385D02*
X0043534Y0078385D01*
X0044532Y0077387D02*
X0030800Y0077387D01*
X0030800Y0076388D02*
X0077200Y0076388D01*
X0077200Y0075390D02*
X0030800Y0075390D01*
X0030472Y0074391D02*
X0077528Y0074391D01*
X0077200Y0074719D02*
X0079719Y0072200D01*
X0083281Y0072200D01*
X0085800Y0074719D01*
X0085800Y0078281D01*
X0083281Y0080800D01*
X0079719Y0080800D01*
X0077200Y0078281D01*
X0077200Y0074719D01*
X0078526Y0073393D02*
X0029474Y0073393D01*
X0028475Y0072394D02*
X0079525Y0072394D01*
X0083475Y0072394D02*
X0099525Y0072394D01*
X0098526Y0073393D02*
X0084474Y0073393D01*
X0085472Y0074391D02*
X0097528Y0074391D01*
X0097200Y0075390D02*
X0085800Y0075390D01*
X0085800Y0076388D02*
X0097200Y0076388D01*
X0097200Y0077387D02*
X0085800Y0077387D01*
X0085696Y0078385D02*
X0097304Y0078385D01*
X0098303Y0079384D02*
X0084697Y0079384D01*
X0083699Y0080382D02*
X0099301Y0080382D01*
X0103699Y0080382D02*
X0104300Y0080382D01*
X0104300Y0081381D02*
X0050800Y0081381D01*
X0050800Y0082379D02*
X0104300Y0082379D01*
X0104300Y0083378D02*
X0050703Y0083378D01*
X0049705Y0084376D02*
X0104300Y0084376D01*
X0104300Y0085375D02*
X0048706Y0085375D01*
X0050800Y0080382D02*
X0079301Y0080382D01*
X0078303Y0079384D02*
X0050465Y0079384D01*
X0049466Y0078385D02*
X0077304Y0078385D01*
X0077200Y0077387D02*
X0048468Y0077387D01*
X0030800Y0086373D02*
X0104300Y0086373D01*
X0108700Y0086373D02*
X0109600Y0086373D01*
X0109600Y0085645D02*
X0110255Y0084064D01*
X0111464Y0082855D01*
X0113045Y0082200D01*
X0119955Y0082200D01*
X0121536Y0082855D01*
X0122745Y0084064D01*
X0123400Y0085645D01*
X0123400Y0087355D01*
X0122745Y0088936D01*
X0121536Y0090145D01*
X0119955Y0090800D01*
X0113045Y0090800D01*
X0111464Y0090145D01*
X0110255Y0088936D01*
X0109600Y0087355D01*
X0109600Y0085645D01*
X0109712Y0085375D02*
X0108700Y0085375D01*
X0108700Y0084376D02*
X0110125Y0084376D01*
X0110941Y0083378D02*
X0108700Y0083378D01*
X0108700Y0082379D02*
X0112612Y0082379D01*
X0112037Y0080382D02*
X0108700Y0080382D01*
X0108700Y0079384D02*
X0110703Y0079384D01*
X0108700Y0081381D02*
X0154300Y0081381D01*
X0154300Y0082379D02*
X0150388Y0082379D01*
X0149955Y0082200D02*
X0151536Y0082855D01*
X0152745Y0084064D01*
X0153400Y0085645D01*
X0153400Y0087355D01*
X0152745Y0088936D01*
X0151536Y0090145D01*
X0149955Y0090800D01*
X0143045Y0090800D01*
X0141464Y0090145D01*
X0140255Y0088936D01*
X0139600Y0087355D01*
X0139600Y0085645D01*
X0140255Y0084064D01*
X0141464Y0082855D01*
X0143045Y0082200D01*
X0149955Y0082200D01*
X0149955Y0080800D02*
X0151536Y0080145D01*
X0152745Y0078936D01*
X0153400Y0077355D01*
X0153400Y0075645D01*
X0152745Y0074064D01*
X0151536Y0072855D01*
X0149955Y0072200D01*
X0143045Y0072200D01*
X0141464Y0072855D01*
X0140255Y0074064D01*
X0139600Y0075645D01*
X0139600Y0077355D01*
X0140255Y0078936D01*
X0141464Y0080145D01*
X0143045Y0080800D01*
X0149955Y0080800D01*
X0150963Y0080382D02*
X0154300Y0080382D01*
X0154300Y0079384D02*
X0152297Y0079384D01*
X0152973Y0078385D02*
X0154300Y0078385D01*
X0154300Y0077387D02*
X0153387Y0077387D01*
X0153400Y0076388D02*
X0154300Y0076388D01*
X0154300Y0075390D02*
X0153294Y0075390D01*
X0152881Y0074391D02*
X0154300Y0074391D01*
X0154300Y0073393D02*
X0152074Y0073393D01*
X0150424Y0072394D02*
X0154300Y0072394D01*
X0158700Y0070397D02*
X0219599Y0070397D01*
X0218601Y0069399D02*
X0158983Y0069399D01*
X0159689Y0068400D02*
X0217602Y0068400D01*
X0217400Y0067402D02*
X0159689Y0067402D01*
X0142576Y0072394D02*
X0120424Y0072394D01*
X0122074Y0073393D02*
X0140926Y0073393D01*
X0140119Y0074391D02*
X0122881Y0074391D01*
X0123294Y0075390D02*
X0139706Y0075390D01*
X0139600Y0076388D02*
X0123400Y0076388D01*
X0123387Y0077387D02*
X0139613Y0077387D01*
X0140027Y0078385D02*
X0122973Y0078385D01*
X0122297Y0079384D02*
X0140703Y0079384D01*
X0142037Y0080382D02*
X0120963Y0080382D01*
X0120388Y0082379D02*
X0142612Y0082379D01*
X0140941Y0083378D02*
X0122059Y0083378D01*
X0122875Y0084376D02*
X0140125Y0084376D01*
X0139712Y0085375D02*
X0123288Y0085375D01*
X0123400Y0086373D02*
X0139600Y0086373D01*
X0139607Y0087372D02*
X0123393Y0087372D01*
X0122980Y0088370D02*
X0140020Y0088370D01*
X0140688Y0089369D02*
X0122312Y0089369D01*
X0120999Y0090368D02*
X0142001Y0090368D01*
X0142647Y0092365D02*
X0120353Y0092365D01*
X0119955Y0092200D02*
X0121536Y0092855D01*
X0122745Y0094064D01*
X0123400Y0095645D01*
X0123400Y0097355D01*
X0122745Y0098936D01*
X0121536Y0100145D01*
X0119955Y0100800D01*
X0113045Y0100800D01*
X0111464Y0100145D01*
X0110255Y0098936D01*
X0109600Y0097355D01*
X0109600Y0095645D01*
X0110255Y0094064D01*
X0111464Y0092855D01*
X0113045Y0092200D01*
X0119955Y0092200D01*
X0122044Y0093363D02*
X0140956Y0093363D01*
X0141464Y0092855D02*
X0140255Y0094064D01*
X0139600Y0095645D01*
X0139600Y0097355D01*
X0140255Y0098936D01*
X0141464Y0100145D01*
X0143045Y0100800D01*
X0149955Y0100800D01*
X0151536Y0100145D01*
X0152745Y0098936D01*
X0153400Y0097355D01*
X0153400Y0095645D01*
X0152745Y0094064D01*
X0151536Y0092855D01*
X0149955Y0092200D01*
X0143045Y0092200D01*
X0141464Y0092855D01*
X0140131Y0094362D02*
X0122868Y0094362D01*
X0123282Y0095360D02*
X0139718Y0095360D01*
X0139600Y0096359D02*
X0123400Y0096359D01*
X0123399Y0097357D02*
X0139601Y0097357D01*
X0140014Y0098356D02*
X0122986Y0098356D01*
X0122327Y0099354D02*
X0140673Y0099354D01*
X0141965Y0100353D02*
X0121035Y0100353D01*
X0121737Y0103348D02*
X0140971Y0103348D01*
X0140138Y0104347D02*
X0122603Y0104347D01*
X0123036Y0105345D02*
X0139724Y0105345D01*
X0142683Y0102350D02*
X0108700Y0102350D01*
X0108700Y0103348D02*
X0111263Y0103348D01*
X0110397Y0104347D02*
X0108700Y0104347D01*
X0108700Y0105345D02*
X0109964Y0105345D01*
X0108700Y0101351D02*
X0154300Y0101351D01*
X0154300Y0100353D02*
X0151035Y0100353D01*
X0152327Y0099354D02*
X0154300Y0099354D01*
X0154300Y0098356D02*
X0152986Y0098356D01*
X0153399Y0097357D02*
X0154300Y0097357D01*
X0154300Y0096359D02*
X0153400Y0096359D01*
X0153282Y0095360D02*
X0154300Y0095360D01*
X0154300Y0094362D02*
X0152868Y0094362D01*
X0152044Y0093363D02*
X0154300Y0093363D01*
X0154300Y0092365D02*
X0150353Y0092365D01*
X0150999Y0090368D02*
X0154300Y0090368D01*
X0154300Y0091366D02*
X0108700Y0091366D01*
X0108700Y0090368D02*
X0112001Y0090368D01*
X0110688Y0089369D02*
X0108700Y0089369D01*
X0108700Y0088370D02*
X0110020Y0088370D01*
X0109607Y0087372D02*
X0108700Y0087372D01*
X0108700Y0092365D02*
X0112647Y0092365D01*
X0110956Y0093363D02*
X0108700Y0093363D01*
X0108700Y0094362D02*
X0110131Y0094362D01*
X0109718Y0095360D02*
X0108700Y0095360D01*
X0108700Y0096359D02*
X0109600Y0096359D01*
X0109601Y0097357D02*
X0108700Y0097357D01*
X0108700Y0098356D02*
X0110014Y0098356D01*
X0110673Y0099354D02*
X0108700Y0099354D01*
X0108700Y0100353D02*
X0111965Y0100353D01*
X0116200Y0103348D02*
X0116800Y0103348D01*
X0116800Y0104347D02*
X0116200Y0104347D01*
X0116200Y0105345D02*
X0116800Y0105345D01*
X0116800Y0107342D02*
X0116200Y0107342D01*
X0116200Y0108341D02*
X0116800Y0108341D01*
X0116800Y0109339D02*
X0116200Y0109339D01*
X0116200Y0110338D02*
X0116800Y0110338D01*
X0112719Y0112335D02*
X0108700Y0112335D01*
X0108700Y0113333D02*
X0110986Y0113333D01*
X0110144Y0114332D02*
X0108700Y0114332D01*
X0108700Y0115330D02*
X0109730Y0115330D01*
X0109600Y0116329D02*
X0108700Y0116329D01*
X0108700Y0117327D02*
X0109600Y0117327D01*
X0110002Y0118326D02*
X0108700Y0118326D01*
X0108700Y0119324D02*
X0110643Y0119324D01*
X0111893Y0120323D02*
X0108700Y0120323D01*
X0108700Y0121321D02*
X0330701Y0121321D01*
X0330701Y0120323D02*
X0278758Y0120323D01*
X0278281Y0120800D02*
X0274719Y0120800D01*
X0272200Y0118281D01*
X0272200Y0114719D01*
X0274719Y0112200D01*
X0278281Y0112200D01*
X0280800Y0114719D01*
X0280800Y0118281D01*
X0278281Y0120800D01*
X0278401Y0122320D02*
X0330701Y0122320D01*
X0330701Y0123318D02*
X0279399Y0123318D01*
X0280398Y0124317D02*
X0330701Y0124317D01*
X0330701Y0125315D02*
X0280800Y0125315D01*
X0280800Y0126314D02*
X0330701Y0126314D01*
X0330701Y0127312D02*
X0280800Y0127312D01*
X0280770Y0128311D02*
X0330701Y0128311D01*
X0330701Y0129309D02*
X0279772Y0129309D01*
X0274227Y0130308D02*
X0248773Y0130308D01*
X0248281Y0130800D02*
X0244719Y0130800D01*
X0242200Y0128281D01*
X0242200Y0124719D01*
X0244719Y0122200D01*
X0248281Y0122200D01*
X0250800Y0124719D01*
X0250800Y0128281D01*
X0248281Y0130800D01*
X0248281Y0132200D02*
X0244719Y0132200D01*
X0242200Y0134719D01*
X0242200Y0138281D01*
X0244719Y0140800D01*
X0248281Y0140800D01*
X0250800Y0138281D01*
X0250800Y0134719D01*
X0248281Y0132200D01*
X0248386Y0132305D02*
X0274614Y0132305D01*
X0273615Y0133303D02*
X0249385Y0133303D01*
X0250383Y0134302D02*
X0272617Y0134302D01*
X0272200Y0135301D02*
X0250800Y0135301D01*
X0250800Y0136299D02*
X0272200Y0136299D01*
X0272200Y0137298D02*
X0250800Y0137298D01*
X0250785Y0138296D02*
X0272215Y0138296D01*
X0273213Y0139295D02*
X0249787Y0139295D01*
X0248788Y0140293D02*
X0274212Y0140293D01*
X0274719Y0142200D02*
X0278281Y0142200D01*
X0280800Y0144719D01*
X0280800Y0148281D01*
X0278281Y0150800D01*
X0274719Y0150800D01*
X0272200Y0148281D01*
X0272200Y0144719D01*
X0274719Y0142200D01*
X0274629Y0142290D02*
X0248371Y0142290D01*
X0248281Y0142200D02*
X0250800Y0144719D01*
X0250800Y0148281D01*
X0248281Y0150800D01*
X0244719Y0150800D01*
X0242200Y0148281D01*
X0242200Y0144719D01*
X0244719Y0142200D01*
X0248281Y0142200D01*
X0249370Y0143289D02*
X0273630Y0143289D01*
X0272632Y0144287D02*
X0250368Y0144287D01*
X0250800Y0145286D02*
X0272200Y0145286D01*
X0272200Y0146284D02*
X0250800Y0146284D01*
X0250800Y0147283D02*
X0272200Y0147283D01*
X0272200Y0148281D02*
X0250800Y0148281D01*
X0249801Y0149280D02*
X0273199Y0149280D01*
X0274197Y0150278D02*
X0248803Y0150278D01*
X0244197Y0150278D02*
X0218803Y0150278D01*
X0219801Y0149280D02*
X0243199Y0149280D01*
X0242200Y0148281D02*
X0220800Y0148281D01*
X0220800Y0147283D02*
X0242200Y0147283D01*
X0242200Y0146284D02*
X0220800Y0146284D01*
X0220800Y0145286D02*
X0242200Y0145286D01*
X0242632Y0144287D02*
X0220368Y0144287D01*
X0219370Y0143289D02*
X0243630Y0143289D01*
X0244629Y0142290D02*
X0218371Y0142290D01*
X0218788Y0140293D02*
X0244212Y0140293D01*
X0243213Y0139295D02*
X0219787Y0139295D01*
X0220785Y0138296D02*
X0242215Y0138296D01*
X0242200Y0137298D02*
X0220800Y0137298D01*
X0220800Y0136299D02*
X0242200Y0136299D01*
X0242200Y0135301D02*
X0220800Y0135301D01*
X0220383Y0134302D02*
X0242617Y0134302D01*
X0243615Y0133303D02*
X0219385Y0133303D01*
X0218386Y0132305D02*
X0244614Y0132305D01*
X0244227Y0130308D02*
X0218773Y0130308D01*
X0219772Y0129309D02*
X0243228Y0129309D01*
X0242230Y0128311D02*
X0220770Y0128311D01*
X0220800Y0127312D02*
X0242200Y0127312D01*
X0242200Y0126314D02*
X0220800Y0126314D01*
X0220800Y0125315D02*
X0242200Y0125315D01*
X0242602Y0124317D02*
X0220398Y0124317D01*
X0219399Y0123318D02*
X0243601Y0123318D01*
X0244599Y0122320D02*
X0218401Y0122320D01*
X0218758Y0120323D02*
X0244242Y0120323D01*
X0244719Y0120800D02*
X0242200Y0118281D01*
X0242200Y0114719D01*
X0244719Y0112200D01*
X0248281Y0112200D01*
X0250800Y0114719D01*
X0250800Y0118281D01*
X0248281Y0120800D01*
X0244719Y0120800D01*
X0243243Y0119324D02*
X0219757Y0119324D01*
X0220755Y0118326D02*
X0242245Y0118326D01*
X0242200Y0117327D02*
X0220800Y0117327D01*
X0220800Y0116329D02*
X0242200Y0116329D01*
X0242200Y0115330D02*
X0220800Y0115330D01*
X0220413Y0114332D02*
X0242587Y0114332D01*
X0243586Y0113333D02*
X0219414Y0113333D01*
X0218416Y0112335D02*
X0244584Y0112335D01*
X0248416Y0112335D02*
X0274584Y0112335D01*
X0273586Y0113333D02*
X0249414Y0113333D01*
X0250413Y0114332D02*
X0272587Y0114332D01*
X0272200Y0115330D02*
X0250800Y0115330D01*
X0250800Y0116329D02*
X0272200Y0116329D01*
X0272200Y0117327D02*
X0250800Y0117327D01*
X0250755Y0118326D02*
X0272245Y0118326D01*
X0273243Y0119324D02*
X0249757Y0119324D01*
X0248758Y0120323D02*
X0274242Y0120323D01*
X0274599Y0122320D02*
X0248401Y0122320D01*
X0249399Y0123318D02*
X0273601Y0123318D01*
X0272602Y0124317D02*
X0250398Y0124317D01*
X0250800Y0125315D02*
X0272200Y0125315D01*
X0272200Y0126314D02*
X0250800Y0126314D01*
X0250800Y0127312D02*
X0272200Y0127312D01*
X0272230Y0128311D02*
X0250770Y0128311D01*
X0249772Y0129309D02*
X0273228Y0129309D01*
X0279757Y0119324D02*
X0330701Y0119324D01*
X0330701Y0118326D02*
X0280755Y0118326D01*
X0280800Y0117327D02*
X0330701Y0117327D01*
X0330701Y0116329D02*
X0280800Y0116329D01*
X0280800Y0115330D02*
X0330701Y0115330D01*
X0330701Y0114332D02*
X0280413Y0114332D01*
X0279414Y0113333D02*
X0330701Y0113333D01*
X0330701Y0112335D02*
X0278416Y0112335D01*
X0278371Y0142290D02*
X0330701Y0142290D01*
X0330701Y0143289D02*
X0279370Y0143289D01*
X0280368Y0144287D02*
X0330701Y0144287D01*
X0330701Y0145286D02*
X0280800Y0145286D01*
X0280800Y0146284D02*
X0330701Y0146284D01*
X0330701Y0147283D02*
X0280800Y0147283D01*
X0280800Y0148281D02*
X0330701Y0148281D01*
X0330701Y0149280D02*
X0279801Y0149280D01*
X0278803Y0150278D02*
X0330701Y0150278D01*
X0330701Y0151277D02*
X0108700Y0151277D01*
X0108700Y0152275D02*
X0129644Y0152275D01*
X0128645Y0153274D02*
X0108700Y0153274D01*
X0108700Y0154272D02*
X0127647Y0154272D01*
X0127200Y0155271D02*
X0108700Y0155271D01*
X0108700Y0156269D02*
X0127200Y0156269D01*
X0127200Y0157268D02*
X0108700Y0157268D01*
X0108700Y0158266D02*
X0127200Y0158266D01*
X0128184Y0159265D02*
X0108700Y0159265D01*
X0106500Y0161500D02*
X0131669Y0161500D01*
X0131669Y0156500D01*
X0131500Y0156500D01*
X0134355Y0153274D02*
X0148645Y0153274D01*
X0147647Y0154272D02*
X0135353Y0154272D01*
X0135800Y0155271D02*
X0147200Y0155271D01*
X0147200Y0154719D02*
X0149719Y0152200D01*
X0153281Y0152200D01*
X0155800Y0154719D01*
X0155800Y0158281D01*
X0153281Y0160800D01*
X0149719Y0160800D01*
X0147200Y0158281D01*
X0147200Y0154719D01*
X0147200Y0156269D02*
X0135800Y0156269D01*
X0135800Y0157268D02*
X0147200Y0157268D01*
X0147200Y0158266D02*
X0135800Y0158266D01*
X0134816Y0159265D02*
X0148184Y0159265D01*
X0149182Y0160263D02*
X0143375Y0160263D01*
X0143700Y0161262D02*
X0330701Y0161262D01*
X0330701Y0162260D02*
X0143700Y0162260D01*
X0143700Y0163259D02*
X0330701Y0163259D01*
X0330701Y0164257D02*
X0143700Y0164257D01*
X0143700Y0165256D02*
X0330701Y0165256D01*
X0330701Y0166254D02*
X0143700Y0166254D01*
X0143700Y0167253D02*
X0330701Y0167253D01*
X0330701Y0168251D02*
X0143700Y0168251D01*
X0143700Y0169250D02*
X0330701Y0169250D01*
X0330701Y0170248D02*
X0143700Y0170248D01*
X0143700Y0171247D02*
X0330701Y0171247D01*
X0330701Y0172245D02*
X0193327Y0172245D01*
X0193281Y0172200D02*
X0195800Y0174719D01*
X0195800Y0178281D01*
X0193281Y0180800D01*
X0189719Y0180800D01*
X0187200Y0178281D01*
X0187200Y0174719D01*
X0189719Y0172200D01*
X0193281Y0172200D01*
X0194325Y0173244D02*
X0330701Y0173244D01*
X0330701Y0174242D02*
X0195324Y0174242D01*
X0195800Y0175241D02*
X0330701Y0175241D01*
X0330701Y0176239D02*
X0195800Y0176239D01*
X0195800Y0177238D02*
X0330701Y0177238D01*
X0330701Y0178237D02*
X0195800Y0178237D01*
X0194846Y0179235D02*
X0330701Y0179235D01*
X0330701Y0180234D02*
X0193848Y0180234D01*
X0189152Y0180234D02*
X0183848Y0180234D01*
X0183281Y0180800D02*
X0185800Y0178281D01*
X0185800Y0174719D01*
X0183281Y0172200D01*
X0179719Y0172200D01*
X0177200Y0174719D01*
X0177200Y0178281D01*
X0179719Y0180800D01*
X0183281Y0180800D01*
X0184846Y0179235D02*
X0188154Y0179235D01*
X0187200Y0178237D02*
X0185800Y0178237D01*
X0185800Y0177238D02*
X0187200Y0177238D01*
X0187200Y0176239D02*
X0185800Y0176239D01*
X0185800Y0175241D02*
X0187200Y0175241D01*
X0187676Y0174242D02*
X0185324Y0174242D01*
X0184325Y0173244D02*
X0188675Y0173244D01*
X0189673Y0172245D02*
X0183327Y0172245D01*
X0179673Y0172245D02*
X0147594Y0172245D01*
X0148615Y0173244D02*
X0178675Y0173244D01*
X0177676Y0174242D02*
X0149277Y0174242D01*
X0149690Y0175241D02*
X0177200Y0175241D01*
X0177200Y0176239D02*
X0149800Y0176239D01*
X0149800Y0177238D02*
X0177200Y0177238D01*
X0177200Y0178237D02*
X0149493Y0178237D01*
X0149079Y0179235D02*
X0178154Y0179235D01*
X0179152Y0180234D02*
X0148138Y0180234D01*
X0146441Y0181232D02*
X0330701Y0181232D01*
X0330701Y0182231D02*
X0168312Y0182231D01*
X0168281Y0182200D02*
X0170800Y0184719D01*
X0170800Y0188281D01*
X0168281Y0190800D01*
X0164719Y0190800D01*
X0162200Y0188281D01*
X0162200Y0184719D01*
X0164719Y0182200D01*
X0168281Y0182200D01*
X0169310Y0183229D02*
X0330701Y0183229D01*
X0330701Y0184228D02*
X0170309Y0184228D01*
X0170800Y0185226D02*
X0330701Y0185226D01*
X0330701Y0186225D02*
X0170800Y0186225D01*
X0170800Y0187223D02*
X0330701Y0187223D01*
X0330701Y0188222D02*
X0170800Y0188222D01*
X0169861Y0189220D02*
X0330701Y0189220D01*
X0330701Y0190219D02*
X0168862Y0190219D01*
X0169719Y0192200D02*
X0173281Y0192200D01*
X0175800Y0194719D01*
X0175800Y0198281D01*
X0173281Y0200800D01*
X0169719Y0200800D01*
X0167200Y0198281D01*
X0167200Y0194719D01*
X0169719Y0192200D01*
X0169703Y0192216D02*
X0147522Y0192216D01*
X0147632Y0192261D02*
X0149039Y0193668D01*
X0149800Y0195505D01*
X0149800Y0197495D01*
X0149039Y0199332D01*
X0147632Y0200739D01*
X0145795Y0201500D01*
X0137205Y0201500D01*
X0135368Y0200739D01*
X0133961Y0199332D01*
X0133200Y0197495D01*
X0133200Y0195505D01*
X0133961Y0193668D01*
X0135368Y0192261D01*
X0137205Y0191500D01*
X0145795Y0191500D01*
X0147632Y0192261D01*
X0148585Y0193214D02*
X0168705Y0193214D01*
X0167706Y0194213D02*
X0149265Y0194213D01*
X0149678Y0195211D02*
X0167200Y0195211D01*
X0167200Y0196210D02*
X0149800Y0196210D01*
X0149800Y0197208D02*
X0167200Y0197208D01*
X0167200Y0198207D02*
X0149505Y0198207D01*
X0149091Y0199205D02*
X0168124Y0199205D01*
X0169123Y0200204D02*
X0148167Y0200204D01*
X0146513Y0201202D02*
X0330701Y0201202D01*
X0330701Y0200204D02*
X0193877Y0200204D01*
X0193281Y0200800D02*
X0189719Y0200800D01*
X0187200Y0198281D01*
X0187200Y0194719D01*
X0189719Y0192200D01*
X0193281Y0192200D01*
X0195800Y0194719D01*
X0195800Y0198281D01*
X0193281Y0200800D01*
X0194876Y0199205D02*
X0330701Y0199205D01*
X0330701Y0198207D02*
X0195800Y0198207D01*
X0195800Y0197208D02*
X0330701Y0197208D01*
X0330701Y0196210D02*
X0195800Y0196210D01*
X0195800Y0195211D02*
X0330701Y0195211D01*
X0330701Y0194213D02*
X0195294Y0194213D01*
X0194295Y0193214D02*
X0330701Y0193214D01*
X0330701Y0192216D02*
X0193297Y0192216D01*
X0189703Y0192216D02*
X0173297Y0192216D01*
X0174295Y0193214D02*
X0188705Y0193214D01*
X0187706Y0194213D02*
X0175294Y0194213D01*
X0175800Y0195211D02*
X0187200Y0195211D01*
X0187200Y0196210D02*
X0175800Y0196210D01*
X0175800Y0197208D02*
X0187200Y0197208D01*
X0187200Y0198207D02*
X0175800Y0198207D01*
X0174876Y0199205D02*
X0188124Y0199205D01*
X0189123Y0200204D02*
X0173877Y0200204D01*
X0164138Y0190219D02*
X0158580Y0190219D01*
X0158198Y0190600D02*
X0156800Y0190600D01*
X0156800Y0186800D01*
X0160600Y0186800D01*
X0160600Y0188198D01*
X0158198Y0190600D01*
X0156800Y0190219D02*
X0156200Y0190219D01*
X0156200Y0190600D02*
X0154802Y0190600D01*
X0152400Y0188198D01*
X0152400Y0186800D01*
X0156200Y0186800D01*
X0156200Y0190600D01*
X0156200Y0189220D02*
X0156800Y0189220D01*
X0156800Y0188222D02*
X0156200Y0188222D01*
X0156200Y0187223D02*
X0156800Y0187223D01*
X0156800Y0186800D02*
X0156200Y0186800D01*
X0156200Y0186200D01*
X0156800Y0186200D01*
X0156800Y0186800D01*
X0156800Y0186225D02*
X0162200Y0186225D01*
X0162200Y0187223D02*
X0160600Y0187223D01*
X0160577Y0188222D02*
X0162200Y0188222D01*
X0163139Y0189220D02*
X0159578Y0189220D01*
X0160600Y0186200D02*
X0156800Y0186200D01*
X0156800Y0182400D01*
X0158198Y0182400D01*
X0160600Y0184802D01*
X0160600Y0186200D01*
X0160600Y0185226D02*
X0162200Y0185226D01*
X0162691Y0184228D02*
X0160026Y0184228D01*
X0159027Y0183229D02*
X0163690Y0183229D01*
X0164688Y0182231D02*
X0146994Y0182231D01*
X0147316Y0182395D02*
X0147927Y0182839D01*
X0148461Y0183373D01*
X0148905Y0183984D01*
X0149248Y0184657D01*
X0149482Y0185376D01*
X0149581Y0186000D01*
X0142000Y0186000D01*
X0142000Y0187000D01*
X0141000Y0187000D01*
X0141000Y0191300D01*
X0137822Y0191300D01*
X0137076Y0191182D01*
X0136357Y0190948D01*
X0135684Y0190605D01*
X0135073Y0190161D01*
X0134539Y0189627D01*
X0134095Y0189016D01*
X0133752Y0188343D01*
X0133518Y0187624D01*
X0133419Y0187000D01*
X0141000Y0187000D01*
X0141000Y0186000D01*
X0142000Y0186000D01*
X0142000Y0181700D01*
X0145178Y0181700D01*
X0145924Y0181818D01*
X0146643Y0182052D01*
X0147316Y0182395D01*
X0148317Y0183229D02*
X0153973Y0183229D01*
X0154802Y0182400D02*
X0152400Y0184802D01*
X0152400Y0186200D01*
X0156200Y0186200D01*
X0156200Y0182400D01*
X0154802Y0182400D01*
X0156200Y0183229D02*
X0156800Y0183229D01*
X0156800Y0184228D02*
X0156200Y0184228D01*
X0156200Y0185226D02*
X0156800Y0185226D01*
X0156200Y0186225D02*
X0142000Y0186225D01*
X0142000Y0187000D02*
X0149581Y0187000D01*
X0149482Y0187624D01*
X0149248Y0188343D01*
X0148905Y0189016D01*
X0148461Y0189627D01*
X0147927Y0190161D01*
X0147316Y0190605D01*
X0146643Y0190948D01*
X0145924Y0191182D01*
X0145178Y0191300D01*
X0142000Y0191300D01*
X0142000Y0187000D01*
X0142000Y0187223D02*
X0141000Y0187223D01*
X0141000Y0186225D02*
X0090700Y0186225D01*
X0090700Y0187223D02*
X0133455Y0187223D01*
X0133712Y0188222D02*
X0090700Y0188222D01*
X0090700Y0188896D02*
X0090700Y0184104D01*
X0089460Y0179475D01*
X0087064Y0175325D01*
X0083675Y0171936D01*
X0079525Y0169540D01*
X0074896Y0168300D01*
X0070104Y0168300D01*
X0065475Y0169540D01*
X0061325Y0171936D01*
X0057936Y0175325D01*
X0055540Y0179475D01*
X0054300Y0184104D01*
X0054300Y0188896D01*
X0055540Y0193525D01*
X0057936Y0197675D01*
X0061325Y0201064D01*
X0065475Y0203460D01*
X0070104Y0204700D01*
X0074896Y0204700D01*
X0079525Y0203460D01*
X0083675Y0201064D01*
X0087064Y0197675D01*
X0089460Y0193525D01*
X0090700Y0188896D01*
X0090613Y0189220D02*
X0134243Y0189220D01*
X0135152Y0190219D02*
X0090346Y0190219D01*
X0090078Y0191217D02*
X0137299Y0191217D01*
X0135478Y0192216D02*
X0089811Y0192216D01*
X0089543Y0193214D02*
X0134415Y0193214D01*
X0133735Y0194213D02*
X0089063Y0194213D01*
X0088486Y0195211D02*
X0133322Y0195211D01*
X0133200Y0196210D02*
X0087910Y0196210D01*
X0087333Y0197208D02*
X0133200Y0197208D01*
X0133495Y0198207D02*
X0086532Y0198207D01*
X0085533Y0199205D02*
X0133909Y0199205D01*
X0134833Y0200204D02*
X0084535Y0200204D01*
X0083435Y0201202D02*
X0136487Y0201202D01*
X0141000Y0191217D02*
X0142000Y0191217D01*
X0142000Y0190219D02*
X0141000Y0190219D01*
X0141000Y0189220D02*
X0142000Y0189220D01*
X0142000Y0188222D02*
X0141000Y0188222D01*
X0141000Y0186000D02*
X0133419Y0186000D01*
X0133518Y0185376D01*
X0133752Y0184657D01*
X0134095Y0183984D01*
X0134539Y0183373D01*
X0135073Y0182839D01*
X0135684Y0182395D01*
X0136357Y0182052D01*
X0137076Y0181818D01*
X0137822Y0181700D01*
X0141000Y0181700D01*
X0141000Y0186000D01*
X0141000Y0185226D02*
X0142000Y0185226D01*
X0142000Y0184228D02*
X0141000Y0184228D01*
X0141000Y0183229D02*
X0142000Y0183229D01*
X0142000Y0182231D02*
X0141000Y0182231D01*
X0136559Y0181232D02*
X0089930Y0181232D01*
X0089663Y0180234D02*
X0134862Y0180234D01*
X0133921Y0179235D02*
X0089321Y0179235D01*
X0088745Y0178237D02*
X0133507Y0178237D01*
X0133200Y0177238D02*
X0088168Y0177238D01*
X0087592Y0176239D02*
X0133200Y0176239D01*
X0133310Y0175241D02*
X0086980Y0175241D01*
X0085981Y0174242D02*
X0133723Y0174242D01*
X0134385Y0173244D02*
X0084983Y0173244D01*
X0083984Y0172245D02*
X0135406Y0172245D01*
X0139300Y0171247D02*
X0082481Y0171247D01*
X0080751Y0170248D02*
X0139300Y0170248D01*
X0139300Y0169250D02*
X0078441Y0169250D01*
X0090568Y0159932D02*
X0091141Y0160349D01*
X0091773Y0160670D01*
X0092446Y0160889D01*
X0093146Y0161000D01*
X0096000Y0161000D01*
X0096000Y0157000D01*
X0097000Y0157000D01*
X0097000Y0161000D01*
X0099854Y0161000D01*
X0100554Y0160889D01*
X0101227Y0160670D01*
X0101859Y0160349D01*
X0102432Y0159932D01*
X0102932Y0159432D01*
X0103349Y0158859D01*
X0103670Y0158227D01*
X0103889Y0157554D01*
X0103977Y0157000D01*
X0097000Y0157000D01*
X0097000Y0156000D01*
X0103977Y0156000D01*
X0103889Y0155446D01*
X0103670Y0154773D01*
X0103349Y0154141D01*
X0102932Y0153568D01*
X0102432Y0153068D01*
X0101859Y0152651D01*
X0101227Y0152330D01*
X0100554Y0152111D01*
X0099854Y0152000D01*
X0097000Y0152000D01*
X0097000Y0156000D01*
X0096000Y0156000D01*
X0096000Y0152000D01*
X0093146Y0152000D01*
X0092446Y0152111D01*
X0091773Y0152330D01*
X0091141Y0152651D01*
X0090568Y0153068D01*
X0090068Y0153568D01*
X0089651Y0154141D01*
X0089330Y0154773D01*
X0089111Y0155446D01*
X0089023Y0156000D01*
X0096000Y0156000D01*
X0096000Y0157000D01*
X0089023Y0157000D01*
X0089111Y0157554D01*
X0089330Y0158227D01*
X0089651Y0158859D01*
X0090068Y0159432D01*
X0090568Y0159932D01*
X0091024Y0160263D02*
X0046987Y0160263D01*
X0047403Y0160984D02*
X0045862Y0158316D01*
X0043684Y0156138D01*
X0041016Y0154597D01*
X0038040Y0153800D01*
X0034960Y0153800D01*
X0031984Y0154597D01*
X0029316Y0156138D01*
X0027138Y0158316D01*
X0025597Y0160984D01*
X0024800Y0163960D01*
X0024800Y0167040D01*
X0025597Y0170016D01*
X0027138Y0172684D01*
X0029316Y0174862D01*
X0031984Y0176403D01*
X0034960Y0177200D01*
X0038040Y0177200D01*
X0041016Y0176403D01*
X0043684Y0174862D01*
X0045862Y0172684D01*
X0047403Y0170016D01*
X0048200Y0167040D01*
X0048200Y0163960D01*
X0047403Y0160984D01*
X0047477Y0161262D02*
X0104300Y0161262D01*
X0104300Y0162260D02*
X0047745Y0162260D01*
X0048012Y0163259D02*
X0105148Y0163259D01*
X0106500Y0161500D02*
X0106500Y0076500D01*
X0116500Y0076500D01*
X0112576Y0072394D02*
X0103475Y0072394D01*
X0104474Y0073393D02*
X0110926Y0073393D01*
X0105497Y0074391D02*
X0105472Y0074391D01*
X0104300Y0100353D02*
X0103728Y0100353D01*
X0104300Y0101351D02*
X0050945Y0101351D01*
X0047000Y0101351D02*
X0046000Y0101351D01*
X0046000Y0100353D02*
X0047000Y0100353D01*
X0047000Y0099354D02*
X0046000Y0099354D01*
X0046000Y0102350D02*
X0047000Y0102350D01*
X0047000Y0103348D02*
X0046000Y0103348D01*
X0046000Y0104347D02*
X0047000Y0104347D01*
X0047000Y0105345D02*
X0046000Y0105345D01*
X0046000Y0108341D02*
X0047000Y0108341D01*
X0047000Y0109339D02*
X0046000Y0109339D01*
X0046000Y0110338D02*
X0047000Y0110338D01*
X0047000Y0111336D02*
X0046000Y0111336D01*
X0046000Y0112335D02*
X0047000Y0112335D01*
X0047000Y0113333D02*
X0046000Y0113333D01*
X0046000Y0114332D02*
X0047000Y0114332D01*
X0044914Y0114332D02*
X0038625Y0114332D01*
X0040038Y0113333D02*
X0043245Y0113333D01*
X0042409Y0112335D02*
X0040862Y0112335D01*
X0041276Y0111336D02*
X0041952Y0111336D01*
X0041725Y0110338D02*
X0041500Y0110338D01*
X0041500Y0109339D02*
X0041700Y0109339D01*
X0041700Y0108341D02*
X0041500Y0108341D01*
X0041500Y0107342D02*
X0041700Y0107342D01*
X0051300Y0107342D02*
X0077200Y0107342D01*
X0077260Y0108341D02*
X0051300Y0108341D01*
X0051300Y0109339D02*
X0078258Y0109339D01*
X0079257Y0110338D02*
X0051275Y0110338D01*
X0034375Y0114332D02*
X0028625Y0114332D01*
X0030038Y0113333D02*
X0032962Y0113333D01*
X0032138Y0112335D02*
X0030862Y0112335D01*
X0031276Y0111336D02*
X0031724Y0111336D01*
X0031500Y0110338D02*
X0031500Y0110338D01*
X0031500Y0109339D02*
X0031500Y0109339D01*
X0031500Y0108341D02*
X0031500Y0108341D01*
X0031500Y0107342D02*
X0031500Y0107342D01*
X0031500Y0106344D02*
X0031500Y0106344D01*
X0031500Y0105345D02*
X0031500Y0105345D01*
X0031500Y0104347D02*
X0031500Y0104347D01*
X0031500Y0103348D02*
X0031500Y0103348D01*
X0031500Y0102350D02*
X0031500Y0102350D01*
X0031146Y0101351D02*
X0031854Y0101351D01*
X0032276Y0100353D02*
X0030724Y0100353D01*
X0029725Y0099354D02*
X0033275Y0099354D01*
X0006000Y0116329D02*
X0104300Y0116329D01*
X0104300Y0117327D02*
X0006000Y0117327D01*
X0006000Y0118326D02*
X0104300Y0118326D01*
X0104300Y0119324D02*
X0006000Y0119324D01*
X0006000Y0120323D02*
X0104300Y0120323D01*
X0104300Y0121321D02*
X0006000Y0121321D01*
X0006000Y0122320D02*
X0099599Y0122320D01*
X0098601Y0123318D02*
X0084117Y0123318D01*
X0083198Y0122400D02*
X0085600Y0124802D01*
X0085600Y0126200D01*
X0081800Y0126200D01*
X0081800Y0126800D01*
X0081200Y0126800D01*
X0081200Y0130600D01*
X0079802Y0130600D01*
X0077400Y0128198D01*
X0077400Y0126800D01*
X0081200Y0126800D01*
X0081200Y0126200D01*
X0077400Y0126200D01*
X0077400Y0124802D01*
X0079802Y0122400D01*
X0081200Y0122400D01*
X0081200Y0126200D01*
X0081800Y0126200D01*
X0081800Y0122400D01*
X0083198Y0122400D01*
X0081800Y0123318D02*
X0081200Y0123318D01*
X0081200Y0124317D02*
X0081800Y0124317D01*
X0081800Y0125315D02*
X0081200Y0125315D01*
X0081200Y0126314D02*
X0006000Y0126314D01*
X0006000Y0127312D02*
X0077400Y0127312D01*
X0077513Y0128311D02*
X0006000Y0128311D01*
X0006000Y0129309D02*
X0078511Y0129309D01*
X0079510Y0130308D02*
X0006000Y0130308D01*
X0006000Y0131306D02*
X0104300Y0131306D01*
X0104300Y0130308D02*
X0103773Y0130308D01*
X0104300Y0132305D02*
X0101654Y0132305D01*
X0102162Y0132516D02*
X0103484Y0133838D01*
X0104200Y0135565D01*
X0104200Y0137435D01*
X0103484Y0139162D01*
X0102162Y0140484D01*
X0100435Y0141200D01*
X0092565Y0141200D01*
X0090838Y0140484D01*
X0089516Y0139162D01*
X0088800Y0137435D01*
X0088800Y0135565D01*
X0089516Y0133838D01*
X0090838Y0132516D01*
X0092565Y0131800D01*
X0100435Y0131800D01*
X0102162Y0132516D01*
X0102950Y0133303D02*
X0104300Y0133303D01*
X0104300Y0134302D02*
X0103677Y0134302D01*
X0104090Y0135301D02*
X0104300Y0135301D01*
X0104300Y0136299D02*
X0104200Y0136299D01*
X0104200Y0137298D02*
X0104300Y0137298D01*
X0104300Y0138296D02*
X0103843Y0138296D01*
X0104300Y0139295D02*
X0103352Y0139295D01*
X0104300Y0140293D02*
X0102354Y0140293D01*
X0101618Y0142290D02*
X0104300Y0142290D01*
X0104300Y0141292D02*
X0006000Y0141292D01*
X0006000Y0142290D02*
X0091382Y0142290D01*
X0090838Y0142516D02*
X0092565Y0141800D01*
X0100435Y0141800D01*
X0102162Y0142516D01*
X0103484Y0143838D01*
X0104200Y0145565D01*
X0104200Y0147435D01*
X0103484Y0149162D01*
X0102162Y0150484D01*
X0100435Y0151200D01*
X0092565Y0151200D01*
X0090838Y0150484D01*
X0089516Y0149162D01*
X0088800Y0147435D01*
X0088800Y0145565D01*
X0089516Y0143838D01*
X0090838Y0142516D01*
X0090065Y0143289D02*
X0006000Y0143289D01*
X0006000Y0144287D02*
X0089329Y0144287D01*
X0088916Y0145286D02*
X0006000Y0145286D01*
X0006000Y0146284D02*
X0088800Y0146284D01*
X0088800Y0147283D02*
X0006000Y0147283D01*
X0006000Y0148281D02*
X0089151Y0148281D01*
X0089633Y0149280D02*
X0006000Y0149280D01*
X0006000Y0150278D02*
X0090631Y0150278D01*
X0091940Y0152275D02*
X0006000Y0152275D01*
X0006000Y0151277D02*
X0104300Y0151277D01*
X0104300Y0152275D02*
X0101060Y0152275D01*
X0102638Y0153274D02*
X0104300Y0153274D01*
X0104300Y0154272D02*
X0103415Y0154272D01*
X0103832Y0155271D02*
X0104300Y0155271D01*
X0104300Y0156269D02*
X0097000Y0156269D01*
X0097000Y0155271D02*
X0096000Y0155271D01*
X0096000Y0156269D02*
X0043816Y0156269D01*
X0044814Y0157268D02*
X0089066Y0157268D01*
X0089350Y0158266D02*
X0045813Y0158266D01*
X0046410Y0159265D02*
X0089946Y0159265D01*
X0089168Y0155271D02*
X0042182Y0155271D01*
X0039803Y0154272D02*
X0089585Y0154272D01*
X0090362Y0153274D02*
X0006000Y0153274D01*
X0006000Y0154272D02*
X0033197Y0154272D01*
X0030818Y0155271D02*
X0006000Y0155271D01*
X0006000Y0156269D02*
X0029184Y0156269D01*
X0028186Y0157268D02*
X0006000Y0157268D01*
X0006000Y0158266D02*
X0027187Y0158266D01*
X0026590Y0159265D02*
X0006000Y0159265D01*
X0006000Y0160263D02*
X0026013Y0160263D01*
X0025523Y0161262D02*
X0006000Y0161262D01*
X0006000Y0162260D02*
X0025255Y0162260D01*
X0024988Y0163259D02*
X0006000Y0163259D01*
X0006000Y0164257D02*
X0024800Y0164257D01*
X0024800Y0165256D02*
X0006000Y0165256D01*
X0006000Y0166254D02*
X0024800Y0166254D01*
X0024857Y0167253D02*
X0006000Y0167253D01*
X0006000Y0168251D02*
X0025125Y0168251D01*
X0025392Y0169250D02*
X0006000Y0169250D01*
X0006000Y0170248D02*
X0025732Y0170248D01*
X0026308Y0171247D02*
X0006000Y0171247D01*
X0006000Y0172245D02*
X0026884Y0172245D01*
X0027698Y0173244D02*
X0006000Y0173244D01*
X0006000Y0174242D02*
X0028696Y0174242D01*
X0029972Y0175241D02*
X0006000Y0175241D01*
X0006000Y0176239D02*
X0031701Y0176239D01*
X0041299Y0176239D02*
X0057408Y0176239D01*
X0056832Y0177238D02*
X0006000Y0177238D01*
X0006000Y0178237D02*
X0056255Y0178237D01*
X0055679Y0179235D02*
X0006000Y0179235D01*
X0006000Y0180234D02*
X0055337Y0180234D01*
X0055070Y0181232D02*
X0006000Y0181232D01*
X0006000Y0182231D02*
X0054802Y0182231D01*
X0054534Y0183229D02*
X0006000Y0183229D01*
X0006000Y0184228D02*
X0054300Y0184228D01*
X0054300Y0185226D02*
X0006000Y0185226D01*
X0006000Y0186225D02*
X0054300Y0186225D01*
X0054300Y0187223D02*
X0006000Y0187223D01*
X0006000Y0188222D02*
X0054300Y0188222D01*
X0054387Y0189220D02*
X0006000Y0189220D01*
X0006000Y0190219D02*
X0054654Y0190219D01*
X0054922Y0191217D02*
X0006000Y0191217D01*
X0006000Y0192216D02*
X0055189Y0192216D01*
X0055457Y0193214D02*
X0006000Y0193214D01*
X0006000Y0194213D02*
X0055937Y0194213D01*
X0056514Y0195211D02*
X0006000Y0195211D01*
X0006000Y0196210D02*
X0057090Y0196210D01*
X0057667Y0197208D02*
X0006000Y0197208D01*
X0006000Y0198207D02*
X0058468Y0198207D01*
X0059467Y0199205D02*
X0006000Y0199205D01*
X0006000Y0200204D02*
X0060465Y0200204D01*
X0061565Y0201202D02*
X0006000Y0201202D01*
X0006000Y0202201D02*
X0063295Y0202201D01*
X0065024Y0203199D02*
X0006000Y0203199D01*
X0006000Y0204198D02*
X0068230Y0204198D01*
X0076770Y0204198D02*
X0330701Y0204198D01*
X0330701Y0205196D02*
X0006000Y0205196D01*
X0006000Y0206195D02*
X0330701Y0206195D01*
X0330701Y0207193D02*
X0006000Y0207193D01*
X0006000Y0208192D02*
X0330701Y0208192D01*
X0330701Y0209190D02*
X0006000Y0209190D01*
X0006000Y0210189D02*
X0330701Y0210189D01*
X0330701Y0211187D02*
X0006000Y0211187D01*
X0043028Y0175241D02*
X0058020Y0175241D01*
X0059019Y0174242D02*
X0044304Y0174242D01*
X0045302Y0173244D02*
X0060017Y0173244D01*
X0061016Y0172245D02*
X0046116Y0172245D01*
X0046692Y0171247D02*
X0062519Y0171247D01*
X0064249Y0170248D02*
X0047268Y0170248D01*
X0047608Y0169250D02*
X0066559Y0169250D01*
X0048143Y0167253D02*
X0139300Y0167253D01*
X0139300Y0168251D02*
X0047875Y0168251D01*
X0048200Y0166254D02*
X0139300Y0166254D01*
X0139300Y0165256D02*
X0048200Y0165256D01*
X0048200Y0164257D02*
X0139300Y0164257D01*
X0141500Y0161500D02*
X0141500Y0176500D01*
X0136006Y0182231D02*
X0090198Y0182231D01*
X0090466Y0183229D02*
X0134683Y0183229D01*
X0133971Y0184228D02*
X0090700Y0184228D01*
X0090700Y0185226D02*
X0133567Y0185226D01*
X0145701Y0191217D02*
X0330701Y0191217D01*
X0330701Y0202201D02*
X0081705Y0202201D01*
X0079976Y0203199D02*
X0330701Y0203199D01*
X0330701Y0160263D02*
X0153818Y0160263D01*
X0154816Y0159265D02*
X0330701Y0159265D01*
X0330701Y0158266D02*
X0155800Y0158266D01*
X0155800Y0157268D02*
X0330701Y0157268D01*
X0330701Y0156269D02*
X0155800Y0156269D01*
X0155800Y0155271D02*
X0330701Y0155271D01*
X0330701Y0154272D02*
X0155353Y0154272D01*
X0154355Y0153274D02*
X0330701Y0153274D01*
X0330701Y0152275D02*
X0153356Y0152275D01*
X0149644Y0152275D02*
X0133356Y0152275D01*
X0131669Y0161500D02*
X0141500Y0161500D01*
X0149029Y0184228D02*
X0152974Y0184228D01*
X0152400Y0185226D02*
X0149433Y0185226D01*
X0149545Y0187223D02*
X0152400Y0187223D01*
X0152423Y0188222D02*
X0149288Y0188222D01*
X0148757Y0189220D02*
X0153422Y0189220D01*
X0154420Y0190219D02*
X0147848Y0190219D01*
X0104300Y0160263D02*
X0101976Y0160263D01*
X0103054Y0159265D02*
X0104300Y0159265D01*
X0104300Y0158266D02*
X0103650Y0158266D01*
X0103934Y0157268D02*
X0104300Y0157268D01*
X0104300Y0150278D02*
X0102369Y0150278D01*
X0103367Y0149280D02*
X0104300Y0149280D01*
X0104300Y0148281D02*
X0103849Y0148281D01*
X0104200Y0147283D02*
X0104300Y0147283D01*
X0104300Y0146284D02*
X0104200Y0146284D01*
X0104300Y0145286D02*
X0104084Y0145286D01*
X0104300Y0144287D02*
X0103671Y0144287D01*
X0104300Y0143289D02*
X0102935Y0143289D01*
X0108700Y0143289D02*
X0213630Y0143289D01*
X0212632Y0144287D02*
X0108700Y0144287D01*
X0108700Y0145286D02*
X0212200Y0145286D01*
X0212200Y0146284D02*
X0108700Y0146284D01*
X0108700Y0147283D02*
X0212200Y0147283D01*
X0212200Y0148281D02*
X0108700Y0148281D01*
X0108700Y0149280D02*
X0213199Y0149280D01*
X0214197Y0150278D02*
X0108700Y0150278D01*
X0097000Y0152275D02*
X0096000Y0152275D01*
X0096000Y0153274D02*
X0097000Y0153274D01*
X0097000Y0154272D02*
X0096000Y0154272D01*
X0096000Y0157268D02*
X0097000Y0157268D01*
X0097000Y0158266D02*
X0096000Y0158266D01*
X0096000Y0159265D02*
X0097000Y0159265D01*
X0097000Y0160263D02*
X0096000Y0160263D01*
X0090646Y0140293D02*
X0006000Y0140293D01*
X0006000Y0139295D02*
X0089648Y0139295D01*
X0089157Y0138296D02*
X0006000Y0138296D01*
X0006000Y0137298D02*
X0088800Y0137298D01*
X0088800Y0136299D02*
X0006000Y0136299D01*
X0006000Y0135301D02*
X0088910Y0135301D01*
X0089323Y0134302D02*
X0006000Y0134302D01*
X0006000Y0133303D02*
X0090050Y0133303D01*
X0091346Y0132305D02*
X0006000Y0132305D01*
X0006000Y0125315D02*
X0077400Y0125315D01*
X0077885Y0124317D02*
X0006000Y0124317D01*
X0006000Y0123318D02*
X0078883Y0123318D01*
X0081800Y0126314D02*
X0097200Y0126314D01*
X0097200Y0127312D02*
X0085600Y0127312D01*
X0085600Y0126800D02*
X0085600Y0128198D01*
X0083198Y0130600D01*
X0081800Y0130600D01*
X0081800Y0126800D01*
X0085600Y0126800D01*
X0085600Y0125315D02*
X0097200Y0125315D01*
X0097602Y0124317D02*
X0085115Y0124317D01*
X0085487Y0128311D02*
X0097230Y0128311D01*
X0098228Y0129309D02*
X0084489Y0129309D01*
X0083490Y0130308D02*
X0099227Y0130308D01*
X0103401Y0122320D02*
X0104300Y0122320D01*
X0108700Y0122320D02*
X0112755Y0122320D01*
X0111000Y0123318D02*
X0108700Y0123318D01*
X0108700Y0124317D02*
X0110150Y0124317D01*
X0109736Y0125315D02*
X0108700Y0125315D01*
X0108700Y0126314D02*
X0109600Y0126314D01*
X0109600Y0127312D02*
X0108700Y0127312D01*
X0108700Y0128311D02*
X0109996Y0128311D01*
X0110628Y0129309D02*
X0108700Y0129309D01*
X0108700Y0130308D02*
X0111857Y0130308D01*
X0081800Y0130308D02*
X0081200Y0130308D01*
X0081200Y0129309D02*
X0081800Y0129309D01*
X0081800Y0128311D02*
X0081200Y0128311D01*
X0081200Y0127312D02*
X0081800Y0127312D01*
X0103431Y0102350D02*
X0104300Y0102350D01*
X0150317Y0102350D02*
X0154300Y0102350D01*
X0154300Y0103348D02*
X0152029Y0103348D01*
X0152312Y0089369D02*
X0154300Y0089369D01*
X0154300Y0088370D02*
X0152980Y0088370D01*
X0153393Y0087372D02*
X0154300Y0087372D01*
X0154300Y0086373D02*
X0153400Y0086373D01*
X0153288Y0085375D02*
X0154300Y0085375D01*
X0154300Y0084376D02*
X0152875Y0084376D01*
X0152059Y0083378D02*
X0154300Y0083378D01*
X0173446Y0092365D02*
X0330701Y0092365D01*
X0330701Y0093363D02*
X0174444Y0093363D01*
X0175443Y0094362D02*
X0330701Y0094362D01*
X0330701Y0095360D02*
X0175800Y0095360D01*
X0221200Y0070397D02*
X0221800Y0070397D01*
X0221800Y0069399D02*
X0221200Y0069399D01*
X0221200Y0068400D02*
X0221800Y0068400D01*
X0221800Y0067402D02*
X0221200Y0067402D01*
X0221800Y0066403D02*
X0251200Y0066403D01*
X0251200Y0066200D02*
X0247400Y0066200D01*
X0247400Y0064802D01*
X0249802Y0062400D01*
X0251200Y0062400D01*
X0251200Y0066200D01*
X0251800Y0066200D01*
X0251800Y0066800D01*
X0255600Y0066800D01*
X0255600Y0068198D01*
X0253198Y0070600D01*
X0251800Y0070600D01*
X0251800Y0066800D01*
X0251200Y0066800D01*
X0251200Y0070600D01*
X0249802Y0070600D01*
X0247400Y0068198D01*
X0247400Y0066800D01*
X0251200Y0066800D01*
X0251200Y0066200D01*
X0251800Y0066200D02*
X0251800Y0062400D01*
X0253198Y0062400D01*
X0255600Y0064802D01*
X0255600Y0066200D01*
X0251800Y0066200D01*
X0251800Y0066403D02*
X0281200Y0066403D01*
X0281200Y0066200D02*
X0277400Y0066200D01*
X0277400Y0064802D01*
X0279802Y0062400D01*
X0281200Y0062400D01*
X0281200Y0066200D01*
X0281200Y0065405D02*
X0281800Y0065405D01*
X0281800Y0064406D02*
X0281200Y0064406D01*
X0281200Y0063408D02*
X0281800Y0063408D01*
X0281800Y0062409D02*
X0281200Y0062409D01*
X0279793Y0062409D02*
X0253207Y0062409D01*
X0251800Y0062409D02*
X0251200Y0062409D01*
X0251200Y0063408D02*
X0251800Y0063408D01*
X0251800Y0064406D02*
X0251200Y0064406D01*
X0251200Y0065405D02*
X0251800Y0065405D01*
X0251800Y0067402D02*
X0251200Y0067402D01*
X0251200Y0068400D02*
X0251800Y0068400D01*
X0251800Y0069399D02*
X0251200Y0069399D01*
X0251200Y0070397D02*
X0251800Y0070397D01*
X0253401Y0070397D02*
X0279599Y0070397D01*
X0278601Y0069399D02*
X0254399Y0069399D01*
X0255398Y0068400D02*
X0277602Y0068400D01*
X0277400Y0067402D02*
X0255600Y0067402D01*
X0255600Y0065405D02*
X0277400Y0065405D01*
X0277796Y0064406D02*
X0255204Y0064406D01*
X0254206Y0063408D02*
X0278794Y0063408D01*
X0279331Y0060412D02*
X0273669Y0060412D01*
X0273281Y0060800D02*
X0269719Y0060800D01*
X0267200Y0058281D01*
X0267200Y0054719D01*
X0269719Y0052200D01*
X0273281Y0052200D01*
X0275800Y0054719D01*
X0275800Y0058281D01*
X0273281Y0060800D01*
X0274667Y0059414D02*
X0278333Y0059414D01*
X0277334Y0058415D02*
X0275666Y0058415D01*
X0275800Y0057417D02*
X0277200Y0057417D01*
X0277200Y0056418D02*
X0275800Y0056418D01*
X0275800Y0055420D02*
X0277200Y0055420D01*
X0277498Y0054421D02*
X0275502Y0054421D01*
X0274504Y0053423D02*
X0278496Y0053423D01*
X0279495Y0052424D02*
X0273505Y0052424D01*
X0269495Y0052424D02*
X0253505Y0052424D01*
X0253281Y0052200D02*
X0255800Y0054719D01*
X0255800Y0058281D01*
X0253281Y0060800D01*
X0249719Y0060800D01*
X0247200Y0058281D01*
X0247200Y0054719D01*
X0249719Y0052200D01*
X0253281Y0052200D01*
X0254504Y0053423D02*
X0268496Y0053423D01*
X0267498Y0054421D02*
X0255502Y0054421D01*
X0255800Y0055420D02*
X0267200Y0055420D01*
X0267200Y0056418D02*
X0255800Y0056418D01*
X0255800Y0057417D02*
X0267200Y0057417D01*
X0267334Y0058415D02*
X0255666Y0058415D01*
X0254667Y0059414D02*
X0268333Y0059414D01*
X0269331Y0060412D02*
X0253669Y0060412D01*
X0249331Y0060412D02*
X0243669Y0060412D01*
X0243281Y0060800D02*
X0245800Y0058281D01*
X0245800Y0054719D01*
X0243281Y0052200D01*
X0239719Y0052200D01*
X0237200Y0054719D01*
X0237200Y0058281D01*
X0239719Y0060800D01*
X0243281Y0060800D01*
X0244667Y0059414D02*
X0248333Y0059414D01*
X0247334Y0058415D02*
X0245666Y0058415D01*
X0245800Y0057417D02*
X0247200Y0057417D01*
X0247200Y0056418D02*
X0245800Y0056418D01*
X0245800Y0055420D02*
X0247200Y0055420D01*
X0247498Y0054421D02*
X0245502Y0054421D01*
X0244504Y0053423D02*
X0248496Y0053423D01*
X0249495Y0052424D02*
X0243505Y0052424D01*
X0239495Y0052424D02*
X0223505Y0052424D01*
X0224504Y0053423D02*
X0238496Y0053423D01*
X0237498Y0054421D02*
X0225502Y0054421D01*
X0225800Y0055420D02*
X0237200Y0055420D01*
X0237200Y0056418D02*
X0225800Y0056418D01*
X0225800Y0057417D02*
X0237200Y0057417D01*
X0237334Y0058415D02*
X0225666Y0058415D01*
X0224667Y0059414D02*
X0238333Y0059414D01*
X0239331Y0060412D02*
X0223669Y0060412D01*
X0223207Y0062409D02*
X0249793Y0062409D01*
X0248794Y0063408D02*
X0224206Y0063408D01*
X0225204Y0064406D02*
X0247796Y0064406D01*
X0247400Y0065405D02*
X0225600Y0065405D01*
X0225600Y0067402D02*
X0247400Y0067402D01*
X0247602Y0068400D02*
X0225398Y0068400D01*
X0224399Y0069399D02*
X0248601Y0069399D01*
X0249599Y0070397D02*
X0223401Y0070397D01*
M02*
