G75*
%MOIN*%
%OFA0B0*%
%FSLAX25Y25*%
%IPPOS*%
%LPD*%
%AMOC8*
5,1,8,0,0,1.08239X$1,22.5*
%
%ADD10C,0.00400*%
%ADD11C,0.00600*%
%ADD12C,0.01000*%
%ADD13C,0.00200*%
%ADD14R,0.03000X0.02500*%
%ADD15R,0.05000X0.11000*%
%ADD16C,0.00800*%
%ADD17C,0.00500*%
%ADD18R,0.02500X0.03000*%
%ADD19R,0.11000X0.05000*%
D10*
X0229628Y0017467D02*
X0230396Y0016700D01*
X0231930Y0016700D01*
X0232698Y0017467D01*
X0232698Y0018235D01*
X0231930Y0019002D01*
X0230396Y0019002D01*
X0229628Y0019769D01*
X0229628Y0020537D01*
X0230396Y0021304D01*
X0231930Y0021304D01*
X0232698Y0020537D01*
X0234232Y0019769D02*
X0236534Y0019769D01*
X0237302Y0019002D01*
X0237302Y0017467D01*
X0236534Y0016700D01*
X0234232Y0016700D01*
X0234232Y0015165D02*
X0234232Y0019769D01*
X0238836Y0017467D02*
X0239604Y0018235D01*
X0241906Y0018235D01*
X0241906Y0019002D02*
X0241906Y0016700D01*
X0239604Y0016700D01*
X0238836Y0017467D01*
X0239604Y0019769D02*
X0241138Y0019769D01*
X0241906Y0019002D01*
X0243440Y0019769D02*
X0245742Y0019769D01*
X0246510Y0019002D01*
X0246510Y0016700D01*
X0248044Y0016700D02*
X0248044Y0019769D01*
X0250346Y0019769D01*
X0251113Y0019002D01*
X0251113Y0016700D01*
X0252648Y0017467D02*
X0252648Y0019769D01*
X0252648Y0017467D02*
X0253415Y0016700D01*
X0255717Y0016700D01*
X0255717Y0019769D01*
X0257252Y0019769D02*
X0259554Y0019769D01*
X0260321Y0019002D01*
X0260321Y0016700D01*
X0261856Y0017467D02*
X0262623Y0016700D01*
X0264925Y0016700D01*
X0264925Y0015933D02*
X0264925Y0019769D01*
X0262623Y0019769D01*
X0261856Y0019002D01*
X0261856Y0017467D01*
X0263391Y0015165D02*
X0264158Y0015165D01*
X0264925Y0015933D01*
X0266460Y0016700D02*
X0268762Y0016700D01*
X0269529Y0017467D01*
X0268762Y0018235D01*
X0267227Y0018235D01*
X0266460Y0019002D01*
X0267227Y0019769D01*
X0269529Y0019769D01*
X0271064Y0019769D02*
X0272598Y0016700D01*
X0274133Y0019769D01*
X0275668Y0019002D02*
X0275668Y0017467D01*
X0276435Y0016700D01*
X0277970Y0016700D01*
X0278737Y0018235D02*
X0275668Y0018235D01*
X0275668Y0019002D02*
X0276435Y0019769D01*
X0277970Y0019769D01*
X0278737Y0019002D01*
X0278737Y0018235D01*
X0280272Y0018235D02*
X0281806Y0019769D01*
X0282574Y0019769D01*
X0284108Y0019002D02*
X0284876Y0019769D01*
X0287178Y0019769D01*
X0288712Y0019002D02*
X0288712Y0017467D01*
X0289479Y0016700D01*
X0291014Y0016700D01*
X0291781Y0017467D01*
X0291781Y0019002D01*
X0291014Y0019769D01*
X0289479Y0019769D01*
X0288712Y0019002D01*
X0287178Y0017467D02*
X0286410Y0016700D01*
X0284108Y0016700D01*
X0284876Y0018235D02*
X0284108Y0019002D01*
X0284876Y0018235D02*
X0286410Y0018235D01*
X0287178Y0017467D01*
X0293316Y0016700D02*
X0293316Y0019769D01*
X0293316Y0018235D02*
X0294851Y0019769D01*
X0295618Y0019769D01*
X0297153Y0019002D02*
X0297153Y0017467D01*
X0297920Y0016700D01*
X0300222Y0016700D01*
X0300222Y0015933D02*
X0300222Y0019769D01*
X0297920Y0019769D01*
X0297153Y0019002D01*
X0300222Y0015933D02*
X0299455Y0015165D01*
X0298687Y0015165D01*
X0301757Y0017467D02*
X0302524Y0016700D01*
X0304826Y0016700D01*
X0304826Y0019769D01*
X0306361Y0019769D02*
X0308663Y0019769D01*
X0309430Y0019002D01*
X0309430Y0016700D01*
X0310964Y0017467D02*
X0310964Y0019002D01*
X0311732Y0019769D01*
X0314034Y0019769D01*
X0314034Y0015933D01*
X0313266Y0015165D01*
X0312499Y0015165D01*
X0311732Y0016700D02*
X0314034Y0016700D01*
X0311732Y0016700D02*
X0310964Y0017467D01*
X0306361Y0016700D02*
X0306361Y0019769D01*
X0301757Y0019769D02*
X0301757Y0017467D01*
X0301757Y0024200D02*
X0299455Y0024200D01*
X0298687Y0024967D01*
X0299455Y0025735D01*
X0301757Y0025735D01*
X0301757Y0026502D02*
X0301757Y0024200D01*
X0301757Y0026502D02*
X0300989Y0027269D01*
X0299455Y0027269D01*
X0297153Y0027269D02*
X0294851Y0025735D01*
X0297153Y0024200D01*
X0294851Y0024200D02*
X0294851Y0028804D01*
X0292549Y0028804D02*
X0292549Y0029571D01*
X0292549Y0027269D02*
X0292549Y0024200D01*
X0293316Y0024200D02*
X0291781Y0024200D01*
X0290247Y0024200D02*
X0287945Y0024200D01*
X0287178Y0024967D01*
X0287178Y0026502D01*
X0287945Y0027269D01*
X0290247Y0027269D01*
X0291781Y0027269D02*
X0292549Y0027269D01*
X0290247Y0028804D02*
X0290247Y0024200D01*
X0285643Y0024200D02*
X0285643Y0026502D01*
X0284876Y0027269D01*
X0282574Y0027269D01*
X0282574Y0024200D01*
X0281039Y0024200D02*
X0279504Y0024200D01*
X0280272Y0024200D02*
X0280272Y0027269D01*
X0279504Y0027269D01*
X0277970Y0027269D02*
X0275668Y0027269D01*
X0274900Y0026502D01*
X0275668Y0025735D01*
X0277202Y0025735D01*
X0277970Y0024967D01*
X0277202Y0024200D01*
X0274900Y0024200D01*
X0273366Y0024200D02*
X0271064Y0024200D01*
X0270296Y0024967D01*
X0270296Y0026502D01*
X0271064Y0027269D01*
X0273366Y0027269D01*
X0273366Y0023433D01*
X0272598Y0022665D01*
X0271831Y0022665D01*
X0268762Y0024200D02*
X0268762Y0026502D01*
X0267995Y0027269D01*
X0265693Y0027269D01*
X0265693Y0024200D01*
X0264158Y0024200D02*
X0264158Y0027269D01*
X0264158Y0024200D02*
X0261856Y0024200D01*
X0261089Y0024967D01*
X0261089Y0027269D01*
X0259554Y0027269D02*
X0258787Y0027269D01*
X0257252Y0025735D01*
X0257252Y0027269D02*
X0257252Y0024200D01*
X0255717Y0025735D02*
X0252648Y0025735D01*
X0252648Y0026502D02*
X0252648Y0024967D01*
X0253415Y0024200D01*
X0254950Y0024200D01*
X0255717Y0025735D02*
X0255717Y0026502D01*
X0254950Y0027269D01*
X0253415Y0027269D01*
X0252648Y0026502D01*
X0251113Y0027269D02*
X0248811Y0027269D01*
X0248044Y0026502D01*
X0248811Y0025735D01*
X0250346Y0025735D01*
X0251113Y0024967D01*
X0250346Y0024200D01*
X0248044Y0024200D01*
X0246510Y0024967D02*
X0245742Y0025735D01*
X0244208Y0025735D01*
X0243440Y0026502D01*
X0244208Y0027269D01*
X0246510Y0027269D01*
X0246510Y0024967D02*
X0245742Y0024200D01*
X0243440Y0024200D01*
X0241906Y0025735D02*
X0238836Y0025735D01*
X0238836Y0026502D02*
X0238836Y0024967D01*
X0239604Y0024200D01*
X0241138Y0024200D01*
X0241906Y0025735D02*
X0241906Y0026502D01*
X0241138Y0027269D01*
X0239604Y0027269D01*
X0238836Y0026502D01*
X0237302Y0026502D02*
X0237302Y0024200D01*
X0235000Y0024200D01*
X0234232Y0024967D01*
X0235000Y0025735D01*
X0237302Y0025735D01*
X0237302Y0026502D02*
X0236534Y0027269D01*
X0235000Y0027269D01*
X0232698Y0028804D02*
X0232698Y0024200D01*
X0231163Y0025735D01*
X0229628Y0024200D01*
X0229628Y0028804D01*
X0243440Y0019769D02*
X0243440Y0016700D01*
X0257252Y0016700D02*
X0257252Y0019769D01*
X0280272Y0019769D02*
X0280272Y0016700D01*
X0280272Y0028804D02*
X0280272Y0029571D01*
X0303291Y0027269D02*
X0304826Y0027269D01*
X0304059Y0028037D02*
X0304059Y0024967D01*
X0304826Y0024200D01*
X0306361Y0024967D02*
X0307128Y0024200D01*
X0308662Y0024200D01*
X0309430Y0024967D01*
X0309430Y0026502D01*
X0308662Y0027269D01*
X0307128Y0027269D01*
X0306361Y0026502D01*
X0306361Y0024967D01*
X0310964Y0024200D02*
X0310964Y0027269D01*
X0310964Y0025735D02*
X0312499Y0027269D01*
X0313266Y0027269D01*
X0314801Y0024967D02*
X0315568Y0024967D01*
X0315568Y0024200D01*
X0314801Y0024200D01*
X0314801Y0024967D01*
X0320172Y0020537D02*
X0320940Y0021304D01*
X0322474Y0021304D01*
X0323242Y0020537D01*
X0323242Y0017467D01*
X0322474Y0016700D01*
X0320940Y0016700D01*
X0320172Y0017467D01*
X0320940Y0019002D02*
X0323242Y0019002D01*
X0324776Y0018235D02*
X0326311Y0016700D01*
X0327846Y0018235D01*
X0327846Y0021304D01*
X0324776Y0021304D02*
X0324776Y0018235D01*
X0320940Y0019002D02*
X0320172Y0019769D01*
X0320172Y0020537D01*
X0333984Y0021304D02*
X0333984Y0016700D01*
X0336286Y0016700D01*
X0337053Y0017467D01*
X0337053Y0018235D01*
X0336286Y0019002D01*
X0333984Y0019002D01*
X0333984Y0021304D02*
X0336286Y0021304D01*
X0337053Y0020537D01*
X0337053Y0019769D01*
X0336286Y0019002D01*
X0338588Y0021304D02*
X0339355Y0021304D01*
X0339355Y0016700D01*
X0338588Y0016700D02*
X0340123Y0016700D01*
X0341657Y0017467D02*
X0342425Y0016700D01*
X0343959Y0016700D01*
X0344727Y0017467D01*
X0344727Y0019002D01*
X0343959Y0019769D01*
X0342425Y0019769D01*
X0341657Y0019002D01*
X0341657Y0017467D01*
X0346261Y0017467D02*
X0347029Y0016700D01*
X0349330Y0016700D01*
X0350865Y0016700D02*
X0350865Y0021304D01*
X0349330Y0019769D02*
X0347029Y0019769D01*
X0346261Y0019002D01*
X0346261Y0017467D01*
X0350865Y0018235D02*
X0353167Y0019769D01*
X0350865Y0018235D02*
X0353167Y0016700D01*
X0359306Y0016700D02*
X0359306Y0021304D01*
X0361608Y0021304D01*
X0362375Y0020537D01*
X0362375Y0019769D01*
X0361608Y0019002D01*
X0359306Y0019002D01*
X0361608Y0019002D02*
X0362375Y0018235D01*
X0362375Y0017467D01*
X0361608Y0016700D01*
X0359306Y0016700D01*
X0363910Y0017467D02*
X0364677Y0018235D01*
X0366979Y0018235D01*
X0366979Y0019002D02*
X0366979Y0016700D01*
X0364677Y0016700D01*
X0363910Y0017467D01*
X0364677Y0019769D02*
X0366212Y0019769D01*
X0366979Y0019002D01*
X0368514Y0019769D02*
X0370048Y0019769D01*
X0369281Y0020537D02*
X0369281Y0017467D01*
X0370048Y0016700D01*
X0372350Y0017467D02*
X0373117Y0016700D01*
X0372350Y0017467D02*
X0372350Y0020537D01*
X0371583Y0019769D02*
X0373117Y0019769D01*
X0374652Y0019002D02*
X0374652Y0017467D01*
X0375419Y0016700D01*
X0376954Y0016700D01*
X0377721Y0018235D02*
X0374652Y0018235D01*
X0374652Y0019002D02*
X0375419Y0019769D01*
X0376954Y0019769D01*
X0377721Y0019002D01*
X0377721Y0018235D01*
X0379256Y0018235D02*
X0380791Y0019769D01*
X0381558Y0019769D01*
X0383093Y0019769D02*
X0383860Y0019769D01*
X0383860Y0016700D01*
X0383093Y0016700D02*
X0384627Y0016700D01*
X0386162Y0017467D02*
X0386162Y0019002D01*
X0386929Y0019769D01*
X0388464Y0019769D01*
X0389231Y0019002D01*
X0389231Y0018235D01*
X0386162Y0018235D01*
X0386162Y0017467D02*
X0386929Y0016700D01*
X0388464Y0016700D01*
X0383860Y0021304D02*
X0383860Y0022071D01*
X0379256Y0019769D02*
X0379256Y0016700D01*
X0324625Y0166700D02*
X0324625Y0169769D01*
X0324625Y0168235D02*
X0329228Y0168235D01*
X0329228Y0171304D02*
X0326159Y0171304D01*
X0326159Y0172839D02*
X0326159Y0173606D01*
X0326159Y0172839D02*
X0327694Y0171304D01*
X0328461Y0175141D02*
X0329228Y0175908D01*
X0329228Y0177442D01*
X0328461Y0178210D01*
X0326927Y0178210D01*
X0326159Y0177442D01*
X0326159Y0175908D01*
X0326927Y0175141D01*
X0328461Y0175141D01*
X0328461Y0179744D02*
X0329228Y0180512D01*
X0329228Y0182814D01*
X0329228Y0184348D02*
X0324625Y0184348D01*
X0326159Y0182814D02*
X0326159Y0180512D01*
X0326927Y0179744D01*
X0328461Y0179744D01*
X0327694Y0184348D02*
X0326159Y0186650D01*
X0326927Y0188185D02*
X0326159Y0188952D01*
X0326159Y0190487D01*
X0326927Y0191254D01*
X0327694Y0191254D01*
X0327694Y0188185D01*
X0328461Y0188185D02*
X0326927Y0188185D01*
X0328461Y0188185D02*
X0329228Y0188952D01*
X0329228Y0190487D01*
X0329228Y0192789D02*
X0326159Y0192789D01*
X0326159Y0195091D01*
X0326927Y0195858D01*
X0329228Y0195858D01*
X0328461Y0201997D02*
X0329228Y0202764D01*
X0329228Y0204299D01*
X0328461Y0205066D01*
X0327694Y0205066D01*
X0326927Y0204299D01*
X0326927Y0202764D01*
X0326159Y0201997D01*
X0325392Y0201997D01*
X0324625Y0202764D01*
X0324625Y0204299D01*
X0325392Y0205066D01*
X0326159Y0206601D02*
X0326159Y0207368D01*
X0329228Y0207368D01*
X0329228Y0206601D02*
X0329228Y0208135D01*
X0328461Y0209670D02*
X0329228Y0210437D01*
X0329228Y0212739D01*
X0329996Y0212739D02*
X0326159Y0212739D01*
X0326159Y0210437D01*
X0326927Y0209670D01*
X0328461Y0209670D01*
X0330763Y0211205D02*
X0330763Y0211972D01*
X0329996Y0212739D01*
X0329228Y0214274D02*
X0326159Y0214274D01*
X0326159Y0216576D01*
X0326927Y0217343D01*
X0329228Y0217343D01*
X0328461Y0218878D02*
X0327694Y0219645D01*
X0327694Y0221947D01*
X0326927Y0221947D02*
X0329228Y0221947D01*
X0329228Y0219645D01*
X0328461Y0218878D01*
X0326159Y0219645D02*
X0326159Y0221180D01*
X0326927Y0221947D01*
X0329228Y0223482D02*
X0329228Y0225016D01*
X0329228Y0224249D02*
X0324625Y0224249D01*
X0324625Y0223482D01*
X0324625Y0207368D02*
X0323857Y0207368D01*
X0329228Y0186650D02*
X0327694Y0184348D01*
D11*
X0326928Y0161500D02*
X0331928Y0161500D01*
X0334428Y0159000D01*
X0334428Y0154000D01*
X0331928Y0151500D01*
X0326928Y0151500D01*
X0324428Y0154000D01*
X0324428Y0159000D01*
X0326928Y0161500D01*
X0335928Y0152500D02*
X0335928Y0151500D01*
X0336428Y0151000D01*
X0336428Y0142000D01*
X0335928Y0141500D01*
X0335928Y0140500D01*
X0335930Y0140440D01*
X0335935Y0140379D01*
X0335944Y0140320D01*
X0335957Y0140261D01*
X0335973Y0140202D01*
X0335993Y0140145D01*
X0336016Y0140090D01*
X0336043Y0140035D01*
X0336072Y0139983D01*
X0336105Y0139932D01*
X0336141Y0139883D01*
X0336179Y0139837D01*
X0336221Y0139793D01*
X0336265Y0139751D01*
X0336311Y0139713D01*
X0336360Y0139677D01*
X0336411Y0139644D01*
X0336463Y0139615D01*
X0336518Y0139588D01*
X0336573Y0139565D01*
X0336630Y0139545D01*
X0336689Y0139529D01*
X0336748Y0139516D01*
X0336807Y0139507D01*
X0336868Y0139502D01*
X0336928Y0139500D01*
X0341928Y0139500D02*
X0341988Y0139502D01*
X0342049Y0139507D01*
X0342108Y0139516D01*
X0342167Y0139529D01*
X0342226Y0139545D01*
X0342283Y0139565D01*
X0342338Y0139588D01*
X0342393Y0139615D01*
X0342445Y0139644D01*
X0342496Y0139677D01*
X0342545Y0139713D01*
X0342591Y0139751D01*
X0342635Y0139793D01*
X0342677Y0139837D01*
X0342715Y0139883D01*
X0342751Y0139932D01*
X0342784Y0139983D01*
X0342813Y0140035D01*
X0342840Y0140090D01*
X0342863Y0140145D01*
X0342883Y0140202D01*
X0342899Y0140261D01*
X0342912Y0140320D01*
X0342921Y0140379D01*
X0342926Y0140440D01*
X0342928Y0140500D01*
X0342928Y0141500D01*
X0342428Y0142000D01*
X0342428Y0151000D01*
X0342928Y0151500D01*
X0342928Y0152500D01*
X0342926Y0152560D01*
X0342921Y0152621D01*
X0342912Y0152680D01*
X0342899Y0152739D01*
X0342883Y0152798D01*
X0342863Y0152855D01*
X0342840Y0152910D01*
X0342813Y0152965D01*
X0342784Y0153017D01*
X0342751Y0153068D01*
X0342715Y0153117D01*
X0342677Y0153163D01*
X0342635Y0153207D01*
X0342591Y0153249D01*
X0342545Y0153287D01*
X0342496Y0153323D01*
X0342445Y0153356D01*
X0342393Y0153385D01*
X0342338Y0153412D01*
X0342283Y0153435D01*
X0342226Y0153455D01*
X0342167Y0153471D01*
X0342108Y0153484D01*
X0342049Y0153493D01*
X0341988Y0153498D01*
X0341928Y0153500D01*
X0336928Y0153500D02*
X0336868Y0153498D01*
X0336807Y0153493D01*
X0336748Y0153484D01*
X0336689Y0153471D01*
X0336630Y0153455D01*
X0336573Y0153435D01*
X0336518Y0153412D01*
X0336463Y0153385D01*
X0336411Y0153356D01*
X0336360Y0153323D01*
X0336311Y0153287D01*
X0336265Y0153249D01*
X0336221Y0153207D01*
X0336179Y0153163D01*
X0336141Y0153117D01*
X0336105Y0153068D01*
X0336072Y0153017D01*
X0336043Y0152965D01*
X0336016Y0152910D01*
X0335993Y0152855D01*
X0335973Y0152798D01*
X0335957Y0152739D01*
X0335944Y0152680D01*
X0335935Y0152621D01*
X0335930Y0152560D01*
X0335928Y0152500D01*
X0300828Y0136700D02*
X0300709Y0136792D01*
X0300592Y0136886D01*
X0300478Y0136984D01*
X0300366Y0137084D01*
X0300256Y0137188D01*
X0300150Y0137293D01*
X0300045Y0137402D01*
X0299944Y0137513D01*
X0299846Y0137627D01*
X0299750Y0137743D01*
X0299657Y0137861D01*
X0299568Y0137982D01*
X0299481Y0138105D01*
X0299398Y0138230D01*
X0299317Y0138357D01*
X0299240Y0138486D01*
X0299166Y0138617D01*
X0299095Y0138750D01*
X0299028Y0138884D01*
X0298964Y0139020D01*
X0298904Y0139158D01*
X0298847Y0139297D01*
X0298794Y0139438D01*
X0298744Y0139580D01*
X0298697Y0139723D01*
X0298655Y0139867D01*
X0298615Y0140012D01*
X0298580Y0140158D01*
X0298548Y0140305D01*
X0298520Y0140453D01*
X0298496Y0140601D01*
X0298475Y0140750D01*
X0298458Y0140900D01*
X0298445Y0141049D01*
X0298436Y0141199D01*
X0298430Y0141350D01*
X0298428Y0141500D01*
X0308111Y0136764D02*
X0308230Y0136858D01*
X0308346Y0136956D01*
X0308460Y0137056D01*
X0308571Y0137160D01*
X0308679Y0137266D01*
X0308785Y0137374D01*
X0308887Y0137486D01*
X0308987Y0137600D01*
X0309085Y0137716D01*
X0309179Y0137835D01*
X0309270Y0137956D01*
X0309358Y0138080D01*
X0309443Y0138206D01*
X0309524Y0138333D01*
X0309603Y0138463D01*
X0309678Y0138595D01*
X0309749Y0138728D01*
X0309818Y0138864D01*
X0309883Y0139001D01*
X0309944Y0139139D01*
X0310002Y0139280D01*
X0310056Y0139421D01*
X0310107Y0139564D01*
X0310154Y0139708D01*
X0310198Y0139853D01*
X0310237Y0140000D01*
X0310273Y0140147D01*
X0310306Y0140295D01*
X0310334Y0140444D01*
X0310359Y0140594D01*
X0310380Y0140744D01*
X0310397Y0140894D01*
X0310411Y0141046D01*
X0310420Y0141197D01*
X0310426Y0141348D01*
X0310428Y0141500D01*
X0300941Y0146382D02*
X0300816Y0146291D01*
X0300694Y0146197D01*
X0300575Y0146099D01*
X0300458Y0145999D01*
X0300344Y0145895D01*
X0300232Y0145789D01*
X0300124Y0145680D01*
X0300018Y0145568D01*
X0299915Y0145453D01*
X0299815Y0145336D01*
X0299717Y0145216D01*
X0299624Y0145094D01*
X0299533Y0144970D01*
X0299445Y0144843D01*
X0299361Y0144714D01*
X0299280Y0144582D01*
X0299203Y0144449D01*
X0299129Y0144314D01*
X0299058Y0144177D01*
X0298991Y0144038D01*
X0298928Y0143898D01*
X0298868Y0143755D01*
X0298812Y0143612D01*
X0298760Y0143467D01*
X0298711Y0143321D01*
X0298666Y0143173D01*
X0298625Y0143025D01*
X0298588Y0142875D01*
X0298554Y0142725D01*
X0298525Y0142573D01*
X0298499Y0142421D01*
X0298477Y0142269D01*
X0298460Y0142116D01*
X0298446Y0141962D01*
X0298436Y0141808D01*
X0298430Y0141654D01*
X0298428Y0141500D01*
X0308111Y0146236D02*
X0308230Y0146142D01*
X0308346Y0146044D01*
X0308460Y0145944D01*
X0308571Y0145840D01*
X0308679Y0145734D01*
X0308785Y0145626D01*
X0308887Y0145514D01*
X0308987Y0145400D01*
X0309085Y0145284D01*
X0309179Y0145165D01*
X0309270Y0145044D01*
X0309358Y0144920D01*
X0309443Y0144794D01*
X0309524Y0144667D01*
X0309603Y0144537D01*
X0309678Y0144405D01*
X0309749Y0144272D01*
X0309818Y0144136D01*
X0309883Y0143999D01*
X0309944Y0143861D01*
X0310002Y0143720D01*
X0310056Y0143579D01*
X0310107Y0143436D01*
X0310154Y0143292D01*
X0310198Y0143147D01*
X0310237Y0143000D01*
X0310273Y0142853D01*
X0310306Y0142705D01*
X0310334Y0142556D01*
X0310359Y0142406D01*
X0310380Y0142256D01*
X0310397Y0142106D01*
X0310411Y0141954D01*
X0310420Y0141803D01*
X0310426Y0141652D01*
X0310428Y0141500D01*
X0310428Y0121500D02*
X0310426Y0121348D01*
X0310420Y0121197D01*
X0310411Y0121046D01*
X0310397Y0120894D01*
X0310380Y0120744D01*
X0310359Y0120594D01*
X0310334Y0120444D01*
X0310306Y0120295D01*
X0310273Y0120147D01*
X0310237Y0120000D01*
X0310198Y0119853D01*
X0310154Y0119708D01*
X0310107Y0119564D01*
X0310056Y0119421D01*
X0310002Y0119280D01*
X0309944Y0119139D01*
X0309883Y0119001D01*
X0309818Y0118864D01*
X0309749Y0118728D01*
X0309678Y0118595D01*
X0309603Y0118463D01*
X0309524Y0118333D01*
X0309443Y0118206D01*
X0309358Y0118080D01*
X0309270Y0117956D01*
X0309179Y0117835D01*
X0309085Y0117716D01*
X0308987Y0117600D01*
X0308887Y0117486D01*
X0308785Y0117374D01*
X0308679Y0117266D01*
X0308571Y0117160D01*
X0308460Y0117056D01*
X0308346Y0116956D01*
X0308230Y0116858D01*
X0308111Y0116764D01*
X0298428Y0121500D02*
X0298430Y0121654D01*
X0298436Y0121808D01*
X0298446Y0121962D01*
X0298460Y0122116D01*
X0298477Y0122269D01*
X0298499Y0122421D01*
X0298525Y0122573D01*
X0298554Y0122725D01*
X0298588Y0122875D01*
X0298625Y0123025D01*
X0298666Y0123173D01*
X0298711Y0123321D01*
X0298760Y0123467D01*
X0298812Y0123612D01*
X0298868Y0123755D01*
X0298928Y0123898D01*
X0298991Y0124038D01*
X0299058Y0124177D01*
X0299129Y0124314D01*
X0299203Y0124449D01*
X0299280Y0124582D01*
X0299361Y0124714D01*
X0299445Y0124843D01*
X0299533Y0124970D01*
X0299624Y0125094D01*
X0299717Y0125216D01*
X0299815Y0125336D01*
X0299915Y0125453D01*
X0300018Y0125568D01*
X0300124Y0125680D01*
X0300232Y0125789D01*
X0300344Y0125895D01*
X0300458Y0125999D01*
X0300575Y0126099D01*
X0300694Y0126197D01*
X0300816Y0126291D01*
X0300941Y0126382D01*
X0298428Y0121500D02*
X0298430Y0121350D01*
X0298436Y0121199D01*
X0298445Y0121049D01*
X0298458Y0120900D01*
X0298475Y0120750D01*
X0298496Y0120601D01*
X0298520Y0120453D01*
X0298548Y0120305D01*
X0298580Y0120158D01*
X0298615Y0120012D01*
X0298655Y0119867D01*
X0298697Y0119723D01*
X0298744Y0119580D01*
X0298794Y0119438D01*
X0298847Y0119297D01*
X0298904Y0119158D01*
X0298964Y0119020D01*
X0299028Y0118884D01*
X0299095Y0118750D01*
X0299166Y0118617D01*
X0299240Y0118486D01*
X0299317Y0118357D01*
X0299398Y0118230D01*
X0299481Y0118105D01*
X0299568Y0117982D01*
X0299657Y0117861D01*
X0299750Y0117743D01*
X0299846Y0117627D01*
X0299944Y0117513D01*
X0300045Y0117402D01*
X0300150Y0117293D01*
X0300256Y0117188D01*
X0300366Y0117084D01*
X0300478Y0116984D01*
X0300592Y0116886D01*
X0300709Y0116792D01*
X0300828Y0116700D01*
X0310428Y0121500D02*
X0310426Y0121652D01*
X0310420Y0121803D01*
X0310411Y0121954D01*
X0310397Y0122106D01*
X0310380Y0122256D01*
X0310359Y0122406D01*
X0310334Y0122556D01*
X0310306Y0122705D01*
X0310273Y0122853D01*
X0310237Y0123000D01*
X0310198Y0123147D01*
X0310154Y0123292D01*
X0310107Y0123436D01*
X0310056Y0123579D01*
X0310002Y0123720D01*
X0309944Y0123861D01*
X0309883Y0123999D01*
X0309818Y0124136D01*
X0309749Y0124272D01*
X0309678Y0124405D01*
X0309603Y0124537D01*
X0309524Y0124667D01*
X0309443Y0124794D01*
X0309358Y0124920D01*
X0309270Y0125044D01*
X0309179Y0125165D01*
X0309085Y0125284D01*
X0308987Y0125400D01*
X0308887Y0125514D01*
X0308785Y0125626D01*
X0308679Y0125734D01*
X0308571Y0125840D01*
X0308460Y0125944D01*
X0308346Y0126044D01*
X0308230Y0126142D01*
X0308111Y0126236D01*
X0309428Y0105000D02*
X0308928Y0104500D01*
X0299928Y0104500D01*
X0299428Y0105000D01*
X0298428Y0105000D01*
X0298368Y0104998D01*
X0298307Y0104993D01*
X0298248Y0104984D01*
X0298189Y0104971D01*
X0298130Y0104955D01*
X0298073Y0104935D01*
X0298018Y0104912D01*
X0297963Y0104885D01*
X0297911Y0104856D01*
X0297860Y0104823D01*
X0297811Y0104787D01*
X0297765Y0104749D01*
X0297721Y0104707D01*
X0297679Y0104663D01*
X0297641Y0104617D01*
X0297605Y0104568D01*
X0297572Y0104517D01*
X0297543Y0104465D01*
X0297516Y0104410D01*
X0297493Y0104355D01*
X0297473Y0104298D01*
X0297457Y0104239D01*
X0297444Y0104180D01*
X0297435Y0104121D01*
X0297430Y0104060D01*
X0297428Y0104000D01*
X0297428Y0099000D02*
X0297430Y0098940D01*
X0297435Y0098879D01*
X0297444Y0098820D01*
X0297457Y0098761D01*
X0297473Y0098702D01*
X0297493Y0098645D01*
X0297516Y0098590D01*
X0297543Y0098535D01*
X0297572Y0098483D01*
X0297605Y0098432D01*
X0297641Y0098383D01*
X0297679Y0098337D01*
X0297721Y0098293D01*
X0297765Y0098251D01*
X0297811Y0098213D01*
X0297860Y0098177D01*
X0297911Y0098144D01*
X0297963Y0098115D01*
X0298018Y0098088D01*
X0298073Y0098065D01*
X0298130Y0098045D01*
X0298189Y0098029D01*
X0298248Y0098016D01*
X0298307Y0098007D01*
X0298368Y0098002D01*
X0298428Y0098000D01*
X0299428Y0098000D01*
X0299928Y0098500D01*
X0308928Y0098500D01*
X0309428Y0098000D01*
X0310428Y0098000D01*
X0310488Y0098002D01*
X0310549Y0098007D01*
X0310608Y0098016D01*
X0310667Y0098029D01*
X0310726Y0098045D01*
X0310783Y0098065D01*
X0310838Y0098088D01*
X0310893Y0098115D01*
X0310945Y0098144D01*
X0310996Y0098177D01*
X0311045Y0098213D01*
X0311091Y0098251D01*
X0311135Y0098293D01*
X0311177Y0098337D01*
X0311215Y0098383D01*
X0311251Y0098432D01*
X0311284Y0098483D01*
X0311313Y0098535D01*
X0311340Y0098590D01*
X0311363Y0098645D01*
X0311383Y0098702D01*
X0311399Y0098761D01*
X0311412Y0098820D01*
X0311421Y0098879D01*
X0311426Y0098940D01*
X0311428Y0099000D01*
X0311428Y0104000D02*
X0311426Y0104060D01*
X0311421Y0104121D01*
X0311412Y0104180D01*
X0311399Y0104239D01*
X0311383Y0104298D01*
X0311363Y0104355D01*
X0311340Y0104410D01*
X0311313Y0104465D01*
X0311284Y0104517D01*
X0311251Y0104568D01*
X0311215Y0104617D01*
X0311177Y0104663D01*
X0311135Y0104707D01*
X0311091Y0104749D01*
X0311045Y0104787D01*
X0310996Y0104823D01*
X0310945Y0104856D01*
X0310893Y0104885D01*
X0310838Y0104912D01*
X0310783Y0104935D01*
X0310726Y0104955D01*
X0310667Y0104971D01*
X0310608Y0104984D01*
X0310549Y0104993D01*
X0310488Y0104998D01*
X0310428Y0105000D01*
X0309428Y0105000D01*
X0280428Y0105000D02*
X0279428Y0105000D01*
X0278928Y0104500D01*
X0269928Y0104500D01*
X0269428Y0105000D01*
X0268428Y0105000D01*
X0268368Y0104998D01*
X0268307Y0104993D01*
X0268248Y0104984D01*
X0268189Y0104971D01*
X0268130Y0104955D01*
X0268073Y0104935D01*
X0268018Y0104912D01*
X0267963Y0104885D01*
X0267911Y0104856D01*
X0267860Y0104823D01*
X0267811Y0104787D01*
X0267765Y0104749D01*
X0267721Y0104707D01*
X0267679Y0104663D01*
X0267641Y0104617D01*
X0267605Y0104568D01*
X0267572Y0104517D01*
X0267543Y0104465D01*
X0267516Y0104410D01*
X0267493Y0104355D01*
X0267473Y0104298D01*
X0267457Y0104239D01*
X0267444Y0104180D01*
X0267435Y0104121D01*
X0267430Y0104060D01*
X0267428Y0104000D01*
X0267428Y0099000D02*
X0267430Y0098940D01*
X0267435Y0098879D01*
X0267444Y0098820D01*
X0267457Y0098761D01*
X0267473Y0098702D01*
X0267493Y0098645D01*
X0267516Y0098590D01*
X0267543Y0098535D01*
X0267572Y0098483D01*
X0267605Y0098432D01*
X0267641Y0098383D01*
X0267679Y0098337D01*
X0267721Y0098293D01*
X0267765Y0098251D01*
X0267811Y0098213D01*
X0267860Y0098177D01*
X0267911Y0098144D01*
X0267963Y0098115D01*
X0268018Y0098088D01*
X0268073Y0098065D01*
X0268130Y0098045D01*
X0268189Y0098029D01*
X0268248Y0098016D01*
X0268307Y0098007D01*
X0268368Y0098002D01*
X0268428Y0098000D01*
X0269428Y0098000D01*
X0269928Y0098500D01*
X0278928Y0098500D01*
X0279428Y0098000D01*
X0280428Y0098000D01*
X0280488Y0098002D01*
X0280549Y0098007D01*
X0280608Y0098016D01*
X0280667Y0098029D01*
X0280726Y0098045D01*
X0280783Y0098065D01*
X0280838Y0098088D01*
X0280893Y0098115D01*
X0280945Y0098144D01*
X0280996Y0098177D01*
X0281045Y0098213D01*
X0281091Y0098251D01*
X0281135Y0098293D01*
X0281177Y0098337D01*
X0281215Y0098383D01*
X0281251Y0098432D01*
X0281284Y0098483D01*
X0281313Y0098535D01*
X0281340Y0098590D01*
X0281363Y0098645D01*
X0281383Y0098702D01*
X0281399Y0098761D01*
X0281412Y0098820D01*
X0281421Y0098879D01*
X0281426Y0098940D01*
X0281428Y0099000D01*
X0281428Y0104000D02*
X0281426Y0104060D01*
X0281421Y0104121D01*
X0281412Y0104180D01*
X0281399Y0104239D01*
X0281383Y0104298D01*
X0281363Y0104355D01*
X0281340Y0104410D01*
X0281313Y0104465D01*
X0281284Y0104517D01*
X0281251Y0104568D01*
X0281215Y0104617D01*
X0281177Y0104663D01*
X0281135Y0104707D01*
X0281091Y0104749D01*
X0281045Y0104787D01*
X0280996Y0104823D01*
X0280945Y0104856D01*
X0280893Y0104885D01*
X0280838Y0104912D01*
X0280783Y0104935D01*
X0280726Y0104955D01*
X0280667Y0104971D01*
X0280608Y0104984D01*
X0280549Y0104993D01*
X0280488Y0104998D01*
X0280428Y0105000D01*
X0268428Y0121500D02*
X0268430Y0121654D01*
X0268436Y0121808D01*
X0268446Y0121962D01*
X0268460Y0122116D01*
X0268477Y0122269D01*
X0268499Y0122421D01*
X0268525Y0122573D01*
X0268554Y0122725D01*
X0268588Y0122875D01*
X0268625Y0123025D01*
X0268666Y0123173D01*
X0268711Y0123321D01*
X0268760Y0123467D01*
X0268812Y0123612D01*
X0268868Y0123755D01*
X0268928Y0123898D01*
X0268991Y0124038D01*
X0269058Y0124177D01*
X0269129Y0124314D01*
X0269203Y0124449D01*
X0269280Y0124582D01*
X0269361Y0124714D01*
X0269445Y0124843D01*
X0269533Y0124970D01*
X0269624Y0125094D01*
X0269717Y0125216D01*
X0269815Y0125336D01*
X0269915Y0125453D01*
X0270018Y0125568D01*
X0270124Y0125680D01*
X0270232Y0125789D01*
X0270344Y0125895D01*
X0270458Y0125999D01*
X0270575Y0126099D01*
X0270694Y0126197D01*
X0270816Y0126291D01*
X0270941Y0126382D01*
X0280428Y0121500D02*
X0280426Y0121348D01*
X0280420Y0121197D01*
X0280411Y0121046D01*
X0280397Y0120894D01*
X0280380Y0120744D01*
X0280359Y0120594D01*
X0280334Y0120444D01*
X0280306Y0120295D01*
X0280273Y0120147D01*
X0280237Y0120000D01*
X0280198Y0119853D01*
X0280154Y0119708D01*
X0280107Y0119564D01*
X0280056Y0119421D01*
X0280002Y0119280D01*
X0279944Y0119139D01*
X0279883Y0119001D01*
X0279818Y0118864D01*
X0279749Y0118728D01*
X0279678Y0118595D01*
X0279603Y0118463D01*
X0279524Y0118333D01*
X0279443Y0118206D01*
X0279358Y0118080D01*
X0279270Y0117956D01*
X0279179Y0117835D01*
X0279085Y0117716D01*
X0278987Y0117600D01*
X0278887Y0117486D01*
X0278785Y0117374D01*
X0278679Y0117266D01*
X0278571Y0117160D01*
X0278460Y0117056D01*
X0278346Y0116956D01*
X0278230Y0116858D01*
X0278111Y0116764D01*
X0280428Y0121500D02*
X0280426Y0121652D01*
X0280420Y0121803D01*
X0280411Y0121954D01*
X0280397Y0122106D01*
X0280380Y0122256D01*
X0280359Y0122406D01*
X0280334Y0122556D01*
X0280306Y0122705D01*
X0280273Y0122853D01*
X0280237Y0123000D01*
X0280198Y0123147D01*
X0280154Y0123292D01*
X0280107Y0123436D01*
X0280056Y0123579D01*
X0280002Y0123720D01*
X0279944Y0123861D01*
X0279883Y0123999D01*
X0279818Y0124136D01*
X0279749Y0124272D01*
X0279678Y0124405D01*
X0279603Y0124537D01*
X0279524Y0124667D01*
X0279443Y0124794D01*
X0279358Y0124920D01*
X0279270Y0125044D01*
X0279179Y0125165D01*
X0279085Y0125284D01*
X0278987Y0125400D01*
X0278887Y0125514D01*
X0278785Y0125626D01*
X0278679Y0125734D01*
X0278571Y0125840D01*
X0278460Y0125944D01*
X0278346Y0126044D01*
X0278230Y0126142D01*
X0278111Y0126236D01*
X0268428Y0121500D02*
X0268430Y0121350D01*
X0268436Y0121199D01*
X0268445Y0121049D01*
X0268458Y0120900D01*
X0268475Y0120750D01*
X0268496Y0120601D01*
X0268520Y0120453D01*
X0268548Y0120305D01*
X0268580Y0120158D01*
X0268615Y0120012D01*
X0268655Y0119867D01*
X0268697Y0119723D01*
X0268744Y0119580D01*
X0268794Y0119438D01*
X0268847Y0119297D01*
X0268904Y0119158D01*
X0268964Y0119020D01*
X0269028Y0118884D01*
X0269095Y0118750D01*
X0269166Y0118617D01*
X0269240Y0118486D01*
X0269317Y0118357D01*
X0269398Y0118230D01*
X0269481Y0118105D01*
X0269568Y0117982D01*
X0269657Y0117861D01*
X0269750Y0117743D01*
X0269846Y0117627D01*
X0269944Y0117513D01*
X0270045Y0117402D01*
X0270150Y0117293D01*
X0270256Y0117188D01*
X0270366Y0117084D01*
X0270478Y0116984D01*
X0270592Y0116886D01*
X0270709Y0116792D01*
X0270828Y0116700D01*
X0250428Y0105000D02*
X0249428Y0105000D01*
X0248928Y0104500D01*
X0239928Y0104500D01*
X0239428Y0105000D01*
X0238428Y0105000D01*
X0238368Y0104998D01*
X0238307Y0104993D01*
X0238248Y0104984D01*
X0238189Y0104971D01*
X0238130Y0104955D01*
X0238073Y0104935D01*
X0238018Y0104912D01*
X0237963Y0104885D01*
X0237911Y0104856D01*
X0237860Y0104823D01*
X0237811Y0104787D01*
X0237765Y0104749D01*
X0237721Y0104707D01*
X0237679Y0104663D01*
X0237641Y0104617D01*
X0237605Y0104568D01*
X0237572Y0104517D01*
X0237543Y0104465D01*
X0237516Y0104410D01*
X0237493Y0104355D01*
X0237473Y0104298D01*
X0237457Y0104239D01*
X0237444Y0104180D01*
X0237435Y0104121D01*
X0237430Y0104060D01*
X0237428Y0104000D01*
X0237428Y0099000D02*
X0237430Y0098940D01*
X0237435Y0098879D01*
X0237444Y0098820D01*
X0237457Y0098761D01*
X0237473Y0098702D01*
X0237493Y0098645D01*
X0237516Y0098590D01*
X0237543Y0098535D01*
X0237572Y0098483D01*
X0237605Y0098432D01*
X0237641Y0098383D01*
X0237679Y0098337D01*
X0237721Y0098293D01*
X0237765Y0098251D01*
X0237811Y0098213D01*
X0237860Y0098177D01*
X0237911Y0098144D01*
X0237963Y0098115D01*
X0238018Y0098088D01*
X0238073Y0098065D01*
X0238130Y0098045D01*
X0238189Y0098029D01*
X0238248Y0098016D01*
X0238307Y0098007D01*
X0238368Y0098002D01*
X0238428Y0098000D01*
X0239428Y0098000D01*
X0239928Y0098500D01*
X0248928Y0098500D01*
X0249428Y0098000D01*
X0250428Y0098000D01*
X0250488Y0098002D01*
X0250549Y0098007D01*
X0250608Y0098016D01*
X0250667Y0098029D01*
X0250726Y0098045D01*
X0250783Y0098065D01*
X0250838Y0098088D01*
X0250893Y0098115D01*
X0250945Y0098144D01*
X0250996Y0098177D01*
X0251045Y0098213D01*
X0251091Y0098251D01*
X0251135Y0098293D01*
X0251177Y0098337D01*
X0251215Y0098383D01*
X0251251Y0098432D01*
X0251284Y0098483D01*
X0251313Y0098535D01*
X0251340Y0098590D01*
X0251363Y0098645D01*
X0251383Y0098702D01*
X0251399Y0098761D01*
X0251412Y0098820D01*
X0251421Y0098879D01*
X0251426Y0098940D01*
X0251428Y0099000D01*
X0251428Y0104000D02*
X0251426Y0104060D01*
X0251421Y0104121D01*
X0251412Y0104180D01*
X0251399Y0104239D01*
X0251383Y0104298D01*
X0251363Y0104355D01*
X0251340Y0104410D01*
X0251313Y0104465D01*
X0251284Y0104517D01*
X0251251Y0104568D01*
X0251215Y0104617D01*
X0251177Y0104663D01*
X0251135Y0104707D01*
X0251091Y0104749D01*
X0251045Y0104787D01*
X0250996Y0104823D01*
X0250945Y0104856D01*
X0250893Y0104885D01*
X0250838Y0104912D01*
X0250783Y0104935D01*
X0250726Y0104955D01*
X0250667Y0104971D01*
X0250608Y0104984D01*
X0250549Y0104993D01*
X0250488Y0104998D01*
X0250428Y0105000D01*
X0238428Y0121500D02*
X0238430Y0121654D01*
X0238436Y0121808D01*
X0238446Y0121962D01*
X0238460Y0122116D01*
X0238477Y0122269D01*
X0238499Y0122421D01*
X0238525Y0122573D01*
X0238554Y0122725D01*
X0238588Y0122875D01*
X0238625Y0123025D01*
X0238666Y0123173D01*
X0238711Y0123321D01*
X0238760Y0123467D01*
X0238812Y0123612D01*
X0238868Y0123755D01*
X0238928Y0123898D01*
X0238991Y0124038D01*
X0239058Y0124177D01*
X0239129Y0124314D01*
X0239203Y0124449D01*
X0239280Y0124582D01*
X0239361Y0124714D01*
X0239445Y0124843D01*
X0239533Y0124970D01*
X0239624Y0125094D01*
X0239717Y0125216D01*
X0239815Y0125336D01*
X0239915Y0125453D01*
X0240018Y0125568D01*
X0240124Y0125680D01*
X0240232Y0125789D01*
X0240344Y0125895D01*
X0240458Y0125999D01*
X0240575Y0126099D01*
X0240694Y0126197D01*
X0240816Y0126291D01*
X0240941Y0126382D01*
X0250428Y0121500D02*
X0250426Y0121348D01*
X0250420Y0121197D01*
X0250411Y0121046D01*
X0250397Y0120894D01*
X0250380Y0120744D01*
X0250359Y0120594D01*
X0250334Y0120444D01*
X0250306Y0120295D01*
X0250273Y0120147D01*
X0250237Y0120000D01*
X0250198Y0119853D01*
X0250154Y0119708D01*
X0250107Y0119564D01*
X0250056Y0119421D01*
X0250002Y0119280D01*
X0249944Y0119139D01*
X0249883Y0119001D01*
X0249818Y0118864D01*
X0249749Y0118728D01*
X0249678Y0118595D01*
X0249603Y0118463D01*
X0249524Y0118333D01*
X0249443Y0118206D01*
X0249358Y0118080D01*
X0249270Y0117956D01*
X0249179Y0117835D01*
X0249085Y0117716D01*
X0248987Y0117600D01*
X0248887Y0117486D01*
X0248785Y0117374D01*
X0248679Y0117266D01*
X0248571Y0117160D01*
X0248460Y0117056D01*
X0248346Y0116956D01*
X0248230Y0116858D01*
X0248111Y0116764D01*
X0250428Y0121500D02*
X0250426Y0121652D01*
X0250420Y0121803D01*
X0250411Y0121954D01*
X0250397Y0122106D01*
X0250380Y0122256D01*
X0250359Y0122406D01*
X0250334Y0122556D01*
X0250306Y0122705D01*
X0250273Y0122853D01*
X0250237Y0123000D01*
X0250198Y0123147D01*
X0250154Y0123292D01*
X0250107Y0123436D01*
X0250056Y0123579D01*
X0250002Y0123720D01*
X0249944Y0123861D01*
X0249883Y0123999D01*
X0249818Y0124136D01*
X0249749Y0124272D01*
X0249678Y0124405D01*
X0249603Y0124537D01*
X0249524Y0124667D01*
X0249443Y0124794D01*
X0249358Y0124920D01*
X0249270Y0125044D01*
X0249179Y0125165D01*
X0249085Y0125284D01*
X0248987Y0125400D01*
X0248887Y0125514D01*
X0248785Y0125626D01*
X0248679Y0125734D01*
X0248571Y0125840D01*
X0248460Y0125944D01*
X0248346Y0126044D01*
X0248230Y0126142D01*
X0248111Y0126236D01*
X0238428Y0121500D02*
X0238430Y0121350D01*
X0238436Y0121199D01*
X0238445Y0121049D01*
X0238458Y0120900D01*
X0238475Y0120750D01*
X0238496Y0120601D01*
X0238520Y0120453D01*
X0238548Y0120305D01*
X0238580Y0120158D01*
X0238615Y0120012D01*
X0238655Y0119867D01*
X0238697Y0119723D01*
X0238744Y0119580D01*
X0238794Y0119438D01*
X0238847Y0119297D01*
X0238904Y0119158D01*
X0238964Y0119020D01*
X0239028Y0118884D01*
X0239095Y0118750D01*
X0239166Y0118617D01*
X0239240Y0118486D01*
X0239317Y0118357D01*
X0239398Y0118230D01*
X0239481Y0118105D01*
X0239568Y0117982D01*
X0239657Y0117861D01*
X0239750Y0117743D01*
X0239846Y0117627D01*
X0239944Y0117513D01*
X0240045Y0117402D01*
X0240150Y0117293D01*
X0240256Y0117188D01*
X0240366Y0117084D01*
X0240478Y0116984D01*
X0240592Y0116886D01*
X0240709Y0116792D01*
X0240828Y0116700D01*
X0212928Y0112500D02*
X0212928Y0111500D01*
X0212428Y0111000D01*
X0212428Y0102000D01*
X0212928Y0101500D01*
X0212928Y0100500D01*
X0212926Y0100440D01*
X0212921Y0100379D01*
X0212912Y0100320D01*
X0212899Y0100261D01*
X0212883Y0100202D01*
X0212863Y0100145D01*
X0212840Y0100090D01*
X0212813Y0100035D01*
X0212784Y0099983D01*
X0212751Y0099932D01*
X0212715Y0099883D01*
X0212677Y0099837D01*
X0212635Y0099793D01*
X0212591Y0099751D01*
X0212545Y0099713D01*
X0212496Y0099677D01*
X0212445Y0099644D01*
X0212393Y0099615D01*
X0212338Y0099588D01*
X0212283Y0099565D01*
X0212226Y0099545D01*
X0212167Y0099529D01*
X0212108Y0099516D01*
X0212049Y0099507D01*
X0211988Y0099502D01*
X0211928Y0099500D01*
X0206928Y0099500D02*
X0206868Y0099502D01*
X0206807Y0099507D01*
X0206748Y0099516D01*
X0206689Y0099529D01*
X0206630Y0099545D01*
X0206573Y0099565D01*
X0206518Y0099588D01*
X0206463Y0099615D01*
X0206411Y0099644D01*
X0206360Y0099677D01*
X0206311Y0099713D01*
X0206265Y0099751D01*
X0206221Y0099793D01*
X0206179Y0099837D01*
X0206141Y0099883D01*
X0206105Y0099932D01*
X0206072Y0099983D01*
X0206043Y0100035D01*
X0206016Y0100090D01*
X0205993Y0100145D01*
X0205973Y0100202D01*
X0205957Y0100261D01*
X0205944Y0100320D01*
X0205935Y0100379D01*
X0205930Y0100440D01*
X0205928Y0100500D01*
X0205928Y0101500D01*
X0206428Y0102000D01*
X0206428Y0111000D01*
X0205928Y0111500D01*
X0205928Y0112500D01*
X0205930Y0112560D01*
X0205935Y0112621D01*
X0205944Y0112680D01*
X0205957Y0112739D01*
X0205973Y0112798D01*
X0205993Y0112855D01*
X0206016Y0112910D01*
X0206043Y0112965D01*
X0206072Y0113017D01*
X0206105Y0113068D01*
X0206141Y0113117D01*
X0206179Y0113163D01*
X0206221Y0113207D01*
X0206265Y0113249D01*
X0206311Y0113287D01*
X0206360Y0113323D01*
X0206411Y0113356D01*
X0206463Y0113385D01*
X0206518Y0113412D01*
X0206573Y0113435D01*
X0206630Y0113455D01*
X0206689Y0113471D01*
X0206748Y0113484D01*
X0206807Y0113493D01*
X0206868Y0113498D01*
X0206928Y0113500D01*
X0211928Y0113500D02*
X0211988Y0113498D01*
X0212049Y0113493D01*
X0212108Y0113484D01*
X0212167Y0113471D01*
X0212226Y0113455D01*
X0212283Y0113435D01*
X0212338Y0113412D01*
X0212393Y0113385D01*
X0212445Y0113356D01*
X0212496Y0113323D01*
X0212545Y0113287D01*
X0212591Y0113249D01*
X0212635Y0113207D01*
X0212677Y0113163D01*
X0212715Y0113117D01*
X0212751Y0113068D01*
X0212784Y0113017D01*
X0212813Y0112965D01*
X0212840Y0112910D01*
X0212863Y0112855D01*
X0212883Y0112798D01*
X0212899Y0112739D01*
X0212912Y0112680D01*
X0212921Y0112621D01*
X0212926Y0112560D01*
X0212928Y0112500D01*
X0192928Y0112500D02*
X0192928Y0111500D01*
X0192428Y0111000D01*
X0192428Y0102000D01*
X0192928Y0101500D01*
X0192928Y0100500D01*
X0192926Y0100440D01*
X0192921Y0100379D01*
X0192912Y0100320D01*
X0192899Y0100261D01*
X0192883Y0100202D01*
X0192863Y0100145D01*
X0192840Y0100090D01*
X0192813Y0100035D01*
X0192784Y0099983D01*
X0192751Y0099932D01*
X0192715Y0099883D01*
X0192677Y0099837D01*
X0192635Y0099793D01*
X0192591Y0099751D01*
X0192545Y0099713D01*
X0192496Y0099677D01*
X0192445Y0099644D01*
X0192393Y0099615D01*
X0192338Y0099588D01*
X0192283Y0099565D01*
X0192226Y0099545D01*
X0192167Y0099529D01*
X0192108Y0099516D01*
X0192049Y0099507D01*
X0191988Y0099502D01*
X0191928Y0099500D01*
X0186928Y0099500D02*
X0186868Y0099502D01*
X0186807Y0099507D01*
X0186748Y0099516D01*
X0186689Y0099529D01*
X0186630Y0099545D01*
X0186573Y0099565D01*
X0186518Y0099588D01*
X0186463Y0099615D01*
X0186411Y0099644D01*
X0186360Y0099677D01*
X0186311Y0099713D01*
X0186265Y0099751D01*
X0186221Y0099793D01*
X0186179Y0099837D01*
X0186141Y0099883D01*
X0186105Y0099932D01*
X0186072Y0099983D01*
X0186043Y0100035D01*
X0186016Y0100090D01*
X0185993Y0100145D01*
X0185973Y0100202D01*
X0185957Y0100261D01*
X0185944Y0100320D01*
X0185935Y0100379D01*
X0185930Y0100440D01*
X0185928Y0100500D01*
X0185928Y0101500D01*
X0186428Y0102000D01*
X0186428Y0111000D01*
X0185928Y0111500D01*
X0185928Y0112500D01*
X0185930Y0112560D01*
X0185935Y0112621D01*
X0185944Y0112680D01*
X0185957Y0112739D01*
X0185973Y0112798D01*
X0185993Y0112855D01*
X0186016Y0112910D01*
X0186043Y0112965D01*
X0186072Y0113017D01*
X0186105Y0113068D01*
X0186141Y0113117D01*
X0186179Y0113163D01*
X0186221Y0113207D01*
X0186265Y0113249D01*
X0186311Y0113287D01*
X0186360Y0113323D01*
X0186411Y0113356D01*
X0186463Y0113385D01*
X0186518Y0113412D01*
X0186573Y0113435D01*
X0186630Y0113455D01*
X0186689Y0113471D01*
X0186748Y0113484D01*
X0186807Y0113493D01*
X0186868Y0113498D01*
X0186928Y0113500D01*
X0191928Y0113500D02*
X0191988Y0113498D01*
X0192049Y0113493D01*
X0192108Y0113484D01*
X0192167Y0113471D01*
X0192226Y0113455D01*
X0192283Y0113435D01*
X0192338Y0113412D01*
X0192393Y0113385D01*
X0192445Y0113356D01*
X0192496Y0113323D01*
X0192545Y0113287D01*
X0192591Y0113249D01*
X0192635Y0113207D01*
X0192677Y0113163D01*
X0192715Y0113117D01*
X0192751Y0113068D01*
X0192784Y0113017D01*
X0192813Y0112965D01*
X0192840Y0112910D01*
X0192863Y0112855D01*
X0192883Y0112798D01*
X0192899Y0112739D01*
X0192912Y0112680D01*
X0192921Y0112621D01*
X0192926Y0112560D01*
X0192928Y0112500D01*
X0170928Y0141500D02*
X0163428Y0141500D01*
X0163426Y0141374D01*
X0163420Y0141249D01*
X0163410Y0141124D01*
X0163396Y0140999D01*
X0163379Y0140874D01*
X0163357Y0140750D01*
X0163332Y0140627D01*
X0163302Y0140505D01*
X0163269Y0140384D01*
X0163232Y0140264D01*
X0163192Y0140145D01*
X0163147Y0140028D01*
X0163099Y0139911D01*
X0163047Y0139797D01*
X0162992Y0139684D01*
X0162933Y0139573D01*
X0162871Y0139464D01*
X0162805Y0139357D01*
X0162736Y0139252D01*
X0162664Y0139149D01*
X0162589Y0139048D01*
X0162510Y0138950D01*
X0162428Y0138855D01*
X0162344Y0138762D01*
X0162256Y0138672D01*
X0162166Y0138584D01*
X0162073Y0138500D01*
X0161978Y0138418D01*
X0161880Y0138339D01*
X0161779Y0138264D01*
X0161676Y0138192D01*
X0161571Y0138123D01*
X0161464Y0138057D01*
X0161355Y0137995D01*
X0161244Y0137936D01*
X0161131Y0137881D01*
X0161017Y0137829D01*
X0160900Y0137781D01*
X0160783Y0137736D01*
X0160664Y0137696D01*
X0160544Y0137659D01*
X0160423Y0137626D01*
X0160301Y0137596D01*
X0160178Y0137571D01*
X0160054Y0137549D01*
X0159929Y0137532D01*
X0159804Y0137518D01*
X0159679Y0137508D01*
X0159554Y0137502D01*
X0159428Y0137500D01*
X0159302Y0137502D01*
X0159177Y0137508D01*
X0159052Y0137518D01*
X0158927Y0137532D01*
X0158802Y0137549D01*
X0158678Y0137571D01*
X0158555Y0137596D01*
X0158433Y0137626D01*
X0158312Y0137659D01*
X0158192Y0137696D01*
X0158073Y0137736D01*
X0157956Y0137781D01*
X0157839Y0137829D01*
X0157725Y0137881D01*
X0157612Y0137936D01*
X0157501Y0137995D01*
X0157392Y0138057D01*
X0157285Y0138123D01*
X0157180Y0138192D01*
X0157077Y0138264D01*
X0156976Y0138339D01*
X0156878Y0138418D01*
X0156783Y0138500D01*
X0156690Y0138584D01*
X0156600Y0138672D01*
X0156512Y0138762D01*
X0156428Y0138855D01*
X0156346Y0138950D01*
X0156267Y0139048D01*
X0156192Y0139149D01*
X0156120Y0139252D01*
X0156051Y0139357D01*
X0155985Y0139464D01*
X0155923Y0139573D01*
X0155864Y0139684D01*
X0155809Y0139797D01*
X0155757Y0139911D01*
X0155709Y0140028D01*
X0155664Y0140145D01*
X0155624Y0140264D01*
X0155587Y0140384D01*
X0155554Y0140505D01*
X0155524Y0140627D01*
X0155499Y0140750D01*
X0155477Y0140874D01*
X0155460Y0140999D01*
X0155446Y0141124D01*
X0155436Y0141249D01*
X0155430Y0141374D01*
X0155428Y0141500D01*
X0147928Y0141500D01*
X0147928Y0071500D01*
X0170928Y0071500D01*
X0170928Y0141500D01*
X0171928Y0161500D02*
X0166928Y0161500D01*
X0164428Y0164000D01*
X0164428Y0169000D01*
X0166928Y0171500D01*
X0171928Y0171500D01*
X0174428Y0169000D01*
X0176928Y0171500D01*
X0181928Y0171500D01*
X0184428Y0169000D01*
X0186928Y0171500D01*
X0191928Y0171500D01*
X0194428Y0169000D01*
X0194428Y0164000D01*
X0191928Y0161500D01*
X0186928Y0161500D01*
X0184428Y0164000D01*
X0181928Y0161500D01*
X0176928Y0161500D01*
X0174428Y0164000D01*
X0171928Y0161500D01*
X0174428Y0164000D02*
X0174428Y0169000D01*
X0184428Y0169000D02*
X0184428Y0164000D01*
X0174692Y0200183D02*
X0174786Y0200302D01*
X0174884Y0200418D01*
X0174984Y0200532D01*
X0175088Y0200643D01*
X0175194Y0200751D01*
X0175302Y0200857D01*
X0175414Y0200959D01*
X0175528Y0201059D01*
X0175644Y0201157D01*
X0175763Y0201251D01*
X0175884Y0201342D01*
X0176008Y0201430D01*
X0176134Y0201515D01*
X0176261Y0201596D01*
X0176391Y0201675D01*
X0176523Y0201750D01*
X0176656Y0201821D01*
X0176792Y0201890D01*
X0176929Y0201955D01*
X0177067Y0202016D01*
X0177208Y0202074D01*
X0177349Y0202128D01*
X0177492Y0202179D01*
X0177636Y0202226D01*
X0177781Y0202270D01*
X0177928Y0202309D01*
X0178075Y0202345D01*
X0178223Y0202378D01*
X0178372Y0202406D01*
X0178522Y0202431D01*
X0178672Y0202452D01*
X0178822Y0202469D01*
X0178974Y0202483D01*
X0179125Y0202492D01*
X0179276Y0202498D01*
X0179428Y0202500D01*
X0184228Y0192900D02*
X0184136Y0192781D01*
X0184042Y0192664D01*
X0183944Y0192550D01*
X0183844Y0192438D01*
X0183740Y0192328D01*
X0183635Y0192222D01*
X0183526Y0192117D01*
X0183415Y0192016D01*
X0183301Y0191918D01*
X0183185Y0191822D01*
X0183067Y0191729D01*
X0182946Y0191640D01*
X0182823Y0191553D01*
X0182698Y0191470D01*
X0182571Y0191389D01*
X0182442Y0191312D01*
X0182311Y0191238D01*
X0182178Y0191167D01*
X0182044Y0191100D01*
X0181908Y0191036D01*
X0181770Y0190976D01*
X0181631Y0190919D01*
X0181490Y0190866D01*
X0181348Y0190816D01*
X0181205Y0190769D01*
X0181061Y0190727D01*
X0180916Y0190687D01*
X0180770Y0190652D01*
X0180623Y0190620D01*
X0180475Y0190592D01*
X0180327Y0190568D01*
X0180178Y0190547D01*
X0180028Y0190530D01*
X0179879Y0190517D01*
X0179729Y0190508D01*
X0179578Y0190502D01*
X0179428Y0190500D01*
X0184164Y0200183D02*
X0184070Y0200302D01*
X0183972Y0200418D01*
X0183872Y0200532D01*
X0183768Y0200643D01*
X0183662Y0200751D01*
X0183554Y0200857D01*
X0183442Y0200959D01*
X0183328Y0201059D01*
X0183212Y0201157D01*
X0183093Y0201251D01*
X0182972Y0201342D01*
X0182848Y0201430D01*
X0182722Y0201515D01*
X0182595Y0201596D01*
X0182465Y0201675D01*
X0182333Y0201750D01*
X0182200Y0201821D01*
X0182064Y0201890D01*
X0181927Y0201955D01*
X0181789Y0202016D01*
X0181648Y0202074D01*
X0181507Y0202128D01*
X0181364Y0202179D01*
X0181220Y0202226D01*
X0181075Y0202270D01*
X0180928Y0202309D01*
X0180781Y0202345D01*
X0180633Y0202378D01*
X0180484Y0202406D01*
X0180334Y0202431D01*
X0180184Y0202452D01*
X0180034Y0202469D01*
X0179882Y0202483D01*
X0179731Y0202492D01*
X0179580Y0202498D01*
X0179428Y0202500D01*
X0174547Y0193013D02*
X0174638Y0192888D01*
X0174732Y0192766D01*
X0174830Y0192647D01*
X0174930Y0192530D01*
X0175034Y0192416D01*
X0175140Y0192304D01*
X0175249Y0192196D01*
X0175361Y0192090D01*
X0175476Y0191987D01*
X0175593Y0191887D01*
X0175713Y0191789D01*
X0175835Y0191696D01*
X0175959Y0191605D01*
X0176086Y0191517D01*
X0176215Y0191433D01*
X0176347Y0191352D01*
X0176480Y0191275D01*
X0176615Y0191201D01*
X0176752Y0191130D01*
X0176891Y0191063D01*
X0177031Y0191000D01*
X0177174Y0190940D01*
X0177317Y0190884D01*
X0177462Y0190832D01*
X0177608Y0190783D01*
X0177756Y0190738D01*
X0177904Y0190697D01*
X0178054Y0190660D01*
X0178204Y0190626D01*
X0178356Y0190597D01*
X0178508Y0190571D01*
X0178660Y0190549D01*
X0178813Y0190532D01*
X0178967Y0190518D01*
X0179121Y0190508D01*
X0179275Y0190502D01*
X0179429Y0190500D01*
X0163928Y0202500D02*
X0163928Y0210500D01*
X0163926Y0210560D01*
X0163921Y0210621D01*
X0163912Y0210680D01*
X0163899Y0210739D01*
X0163883Y0210798D01*
X0163863Y0210855D01*
X0163840Y0210910D01*
X0163813Y0210965D01*
X0163784Y0211017D01*
X0163751Y0211068D01*
X0163715Y0211117D01*
X0163677Y0211163D01*
X0163635Y0211207D01*
X0163591Y0211249D01*
X0163545Y0211287D01*
X0163496Y0211323D01*
X0163445Y0211356D01*
X0163393Y0211385D01*
X0163338Y0211412D01*
X0163283Y0211435D01*
X0163226Y0211455D01*
X0163167Y0211471D01*
X0163108Y0211484D01*
X0163049Y0211493D01*
X0162988Y0211498D01*
X0162928Y0211500D01*
X0145928Y0211500D01*
X0145868Y0211498D01*
X0145807Y0211493D01*
X0145748Y0211484D01*
X0145689Y0211471D01*
X0145630Y0211455D01*
X0145573Y0211435D01*
X0145518Y0211412D01*
X0145463Y0211385D01*
X0145411Y0211356D01*
X0145360Y0211323D01*
X0145311Y0211287D01*
X0145265Y0211249D01*
X0145221Y0211207D01*
X0145179Y0211163D01*
X0145141Y0211117D01*
X0145105Y0211068D01*
X0145072Y0211017D01*
X0145043Y0210965D01*
X0145016Y0210910D01*
X0144993Y0210855D01*
X0144973Y0210798D01*
X0144957Y0210739D01*
X0144944Y0210680D01*
X0144935Y0210621D01*
X0144930Y0210560D01*
X0144928Y0210500D01*
X0144928Y0202500D01*
X0144930Y0202440D01*
X0144935Y0202379D01*
X0144944Y0202320D01*
X0144957Y0202261D01*
X0144973Y0202202D01*
X0144993Y0202145D01*
X0145016Y0202090D01*
X0145043Y0202035D01*
X0145072Y0201983D01*
X0145105Y0201932D01*
X0145141Y0201883D01*
X0145179Y0201837D01*
X0145221Y0201793D01*
X0145265Y0201751D01*
X0145311Y0201713D01*
X0145360Y0201677D01*
X0145411Y0201644D01*
X0145463Y0201615D01*
X0145518Y0201588D01*
X0145573Y0201565D01*
X0145630Y0201545D01*
X0145689Y0201529D01*
X0145748Y0201516D01*
X0145807Y0201507D01*
X0145868Y0201502D01*
X0145928Y0201500D01*
X0162928Y0201500D01*
X0162988Y0201502D01*
X0163049Y0201507D01*
X0163108Y0201516D01*
X0163167Y0201529D01*
X0163226Y0201545D01*
X0163283Y0201565D01*
X0163338Y0201588D01*
X0163393Y0201615D01*
X0163445Y0201644D01*
X0163496Y0201677D01*
X0163545Y0201713D01*
X0163591Y0201751D01*
X0163635Y0201793D01*
X0163677Y0201837D01*
X0163715Y0201883D01*
X0163751Y0201932D01*
X0163784Y0201983D01*
X0163813Y0202035D01*
X0163840Y0202090D01*
X0163863Y0202145D01*
X0163883Y0202202D01*
X0163899Y0202261D01*
X0163912Y0202320D01*
X0163921Y0202379D01*
X0163926Y0202440D01*
X0163928Y0202500D01*
X0155928Y0206500D02*
X0155428Y0206500D01*
X0153428Y0206500D02*
X0152928Y0206500D01*
X0168428Y0213000D02*
X0169428Y0213000D01*
X0169928Y0213500D01*
X0178928Y0213500D01*
X0179428Y0213000D01*
X0180428Y0213000D01*
X0180488Y0213002D01*
X0180549Y0213007D01*
X0180608Y0213016D01*
X0180667Y0213029D01*
X0180726Y0213045D01*
X0180783Y0213065D01*
X0180838Y0213088D01*
X0180893Y0213115D01*
X0180945Y0213144D01*
X0180996Y0213177D01*
X0181045Y0213213D01*
X0181091Y0213251D01*
X0181135Y0213293D01*
X0181177Y0213337D01*
X0181215Y0213383D01*
X0181251Y0213432D01*
X0181284Y0213483D01*
X0181313Y0213535D01*
X0181340Y0213590D01*
X0181363Y0213645D01*
X0181383Y0213702D01*
X0181399Y0213761D01*
X0181412Y0213820D01*
X0181421Y0213879D01*
X0181426Y0213940D01*
X0181428Y0214000D01*
X0181428Y0219000D02*
X0181426Y0219060D01*
X0181421Y0219121D01*
X0181412Y0219180D01*
X0181399Y0219239D01*
X0181383Y0219298D01*
X0181363Y0219355D01*
X0181340Y0219410D01*
X0181313Y0219465D01*
X0181284Y0219517D01*
X0181251Y0219568D01*
X0181215Y0219617D01*
X0181177Y0219663D01*
X0181135Y0219707D01*
X0181091Y0219749D01*
X0181045Y0219787D01*
X0180996Y0219823D01*
X0180945Y0219856D01*
X0180893Y0219885D01*
X0180838Y0219912D01*
X0180783Y0219935D01*
X0180726Y0219955D01*
X0180667Y0219971D01*
X0180608Y0219984D01*
X0180549Y0219993D01*
X0180488Y0219998D01*
X0180428Y0220000D01*
X0179428Y0220000D01*
X0178928Y0219500D01*
X0169928Y0219500D01*
X0169428Y0220000D01*
X0168428Y0220000D01*
X0168368Y0219998D01*
X0168307Y0219993D01*
X0168248Y0219984D01*
X0168189Y0219971D01*
X0168130Y0219955D01*
X0168073Y0219935D01*
X0168018Y0219912D01*
X0167963Y0219885D01*
X0167911Y0219856D01*
X0167860Y0219823D01*
X0167811Y0219787D01*
X0167765Y0219749D01*
X0167721Y0219707D01*
X0167679Y0219663D01*
X0167641Y0219617D01*
X0167605Y0219568D01*
X0167572Y0219517D01*
X0167543Y0219465D01*
X0167516Y0219410D01*
X0167493Y0219355D01*
X0167473Y0219298D01*
X0167457Y0219239D01*
X0167444Y0219180D01*
X0167435Y0219121D01*
X0167430Y0219060D01*
X0167428Y0219000D01*
X0167428Y0214000D02*
X0167430Y0213940D01*
X0167435Y0213879D01*
X0167444Y0213820D01*
X0167457Y0213761D01*
X0167473Y0213702D01*
X0167493Y0213645D01*
X0167516Y0213590D01*
X0167543Y0213535D01*
X0167572Y0213483D01*
X0167605Y0213432D01*
X0167641Y0213383D01*
X0167679Y0213337D01*
X0167721Y0213293D01*
X0167765Y0213251D01*
X0167811Y0213213D01*
X0167860Y0213177D01*
X0167911Y0213144D01*
X0167963Y0213115D01*
X0168018Y0213088D01*
X0168073Y0213065D01*
X0168130Y0213045D01*
X0168189Y0213029D01*
X0168248Y0213016D01*
X0168307Y0213007D01*
X0168368Y0213002D01*
X0168428Y0213000D01*
X0084928Y0179000D02*
X0084928Y0171500D01*
X0081428Y0171500D01*
X0081428Y0165500D01*
X0084928Y0165500D01*
X0084928Y0116500D01*
X0043928Y0116500D01*
X0043928Y0165500D01*
X0047428Y0165500D01*
X0047428Y0171500D01*
X0043928Y0171500D01*
X0043928Y0179000D01*
X0084928Y0179000D01*
X0057328Y0165500D02*
X0057330Y0165674D01*
X0057337Y0165848D01*
X0057347Y0166022D01*
X0057362Y0166196D01*
X0057381Y0166369D01*
X0057405Y0166542D01*
X0057433Y0166714D01*
X0057464Y0166885D01*
X0057501Y0167056D01*
X0057541Y0167225D01*
X0057585Y0167394D01*
X0057634Y0167561D01*
X0057686Y0167727D01*
X0057743Y0167892D01*
X0057804Y0168055D01*
X0057868Y0168217D01*
X0057937Y0168377D01*
X0058010Y0168536D01*
X0058086Y0168692D01*
X0058166Y0168847D01*
X0058250Y0169000D01*
X0058338Y0169150D01*
X0058430Y0169298D01*
X0058525Y0169445D01*
X0058623Y0169588D01*
X0058725Y0169729D01*
X0058831Y0169868D01*
X0058940Y0170004D01*
X0059052Y0170138D01*
X0059167Y0170268D01*
X0059286Y0170396D01*
X0059408Y0170520D01*
X0059532Y0170642D01*
X0059660Y0170761D01*
X0059790Y0170876D01*
X0059924Y0170988D01*
X0060060Y0171097D01*
X0060199Y0171203D01*
X0060340Y0171305D01*
X0060483Y0171403D01*
X0060630Y0171498D01*
X0060778Y0171590D01*
X0060928Y0171678D01*
X0061081Y0171762D01*
X0061236Y0171842D01*
X0061392Y0171918D01*
X0061551Y0171991D01*
X0061711Y0172060D01*
X0061873Y0172124D01*
X0062036Y0172185D01*
X0062201Y0172242D01*
X0062367Y0172294D01*
X0062534Y0172343D01*
X0062703Y0172387D01*
X0062872Y0172427D01*
X0063043Y0172464D01*
X0063214Y0172495D01*
X0063386Y0172523D01*
X0063559Y0172547D01*
X0063732Y0172566D01*
X0063906Y0172581D01*
X0064080Y0172591D01*
X0064254Y0172598D01*
X0064428Y0172600D01*
X0064602Y0172598D01*
X0064776Y0172591D01*
X0064950Y0172581D01*
X0065124Y0172566D01*
X0065297Y0172547D01*
X0065470Y0172523D01*
X0065642Y0172495D01*
X0065813Y0172464D01*
X0065984Y0172427D01*
X0066153Y0172387D01*
X0066322Y0172343D01*
X0066489Y0172294D01*
X0066655Y0172242D01*
X0066820Y0172185D01*
X0066983Y0172124D01*
X0067145Y0172060D01*
X0067305Y0171991D01*
X0067464Y0171918D01*
X0067620Y0171842D01*
X0067775Y0171762D01*
X0067928Y0171678D01*
X0068078Y0171590D01*
X0068226Y0171498D01*
X0068373Y0171403D01*
X0068516Y0171305D01*
X0068657Y0171203D01*
X0068796Y0171097D01*
X0068932Y0170988D01*
X0069066Y0170876D01*
X0069196Y0170761D01*
X0069324Y0170642D01*
X0069448Y0170520D01*
X0069570Y0170396D01*
X0069689Y0170268D01*
X0069804Y0170138D01*
X0069916Y0170004D01*
X0070025Y0169868D01*
X0070131Y0169729D01*
X0070233Y0169588D01*
X0070331Y0169445D01*
X0070426Y0169298D01*
X0070518Y0169150D01*
X0070606Y0169000D01*
X0070690Y0168847D01*
X0070770Y0168692D01*
X0070846Y0168536D01*
X0070919Y0168377D01*
X0070988Y0168217D01*
X0071052Y0168055D01*
X0071113Y0167892D01*
X0071170Y0167727D01*
X0071222Y0167561D01*
X0071271Y0167394D01*
X0071315Y0167225D01*
X0071355Y0167056D01*
X0071392Y0166885D01*
X0071423Y0166714D01*
X0071451Y0166542D01*
X0071475Y0166369D01*
X0071494Y0166196D01*
X0071509Y0166022D01*
X0071519Y0165848D01*
X0071526Y0165674D01*
X0071528Y0165500D01*
X0071526Y0165326D01*
X0071519Y0165152D01*
X0071509Y0164978D01*
X0071494Y0164804D01*
X0071475Y0164631D01*
X0071451Y0164458D01*
X0071423Y0164286D01*
X0071392Y0164115D01*
X0071355Y0163944D01*
X0071315Y0163775D01*
X0071271Y0163606D01*
X0071222Y0163439D01*
X0071170Y0163273D01*
X0071113Y0163108D01*
X0071052Y0162945D01*
X0070988Y0162783D01*
X0070919Y0162623D01*
X0070846Y0162464D01*
X0070770Y0162308D01*
X0070690Y0162153D01*
X0070606Y0162000D01*
X0070518Y0161850D01*
X0070426Y0161702D01*
X0070331Y0161555D01*
X0070233Y0161412D01*
X0070131Y0161271D01*
X0070025Y0161132D01*
X0069916Y0160996D01*
X0069804Y0160862D01*
X0069689Y0160732D01*
X0069570Y0160604D01*
X0069448Y0160480D01*
X0069324Y0160358D01*
X0069196Y0160239D01*
X0069066Y0160124D01*
X0068932Y0160012D01*
X0068796Y0159903D01*
X0068657Y0159797D01*
X0068516Y0159695D01*
X0068373Y0159597D01*
X0068226Y0159502D01*
X0068078Y0159410D01*
X0067928Y0159322D01*
X0067775Y0159238D01*
X0067620Y0159158D01*
X0067464Y0159082D01*
X0067305Y0159009D01*
X0067145Y0158940D01*
X0066983Y0158876D01*
X0066820Y0158815D01*
X0066655Y0158758D01*
X0066489Y0158706D01*
X0066322Y0158657D01*
X0066153Y0158613D01*
X0065984Y0158573D01*
X0065813Y0158536D01*
X0065642Y0158505D01*
X0065470Y0158477D01*
X0065297Y0158453D01*
X0065124Y0158434D01*
X0064950Y0158419D01*
X0064776Y0158409D01*
X0064602Y0158402D01*
X0064428Y0158400D01*
X0064254Y0158402D01*
X0064080Y0158409D01*
X0063906Y0158419D01*
X0063732Y0158434D01*
X0063559Y0158453D01*
X0063386Y0158477D01*
X0063214Y0158505D01*
X0063043Y0158536D01*
X0062872Y0158573D01*
X0062703Y0158613D01*
X0062534Y0158657D01*
X0062367Y0158706D01*
X0062201Y0158758D01*
X0062036Y0158815D01*
X0061873Y0158876D01*
X0061711Y0158940D01*
X0061551Y0159009D01*
X0061392Y0159082D01*
X0061236Y0159158D01*
X0061081Y0159238D01*
X0060928Y0159322D01*
X0060778Y0159410D01*
X0060630Y0159502D01*
X0060483Y0159597D01*
X0060340Y0159695D01*
X0060199Y0159797D01*
X0060060Y0159903D01*
X0059924Y0160012D01*
X0059790Y0160124D01*
X0059660Y0160239D01*
X0059532Y0160358D01*
X0059408Y0160480D01*
X0059286Y0160604D01*
X0059167Y0160732D01*
X0059052Y0160862D01*
X0058940Y0160996D01*
X0058831Y0161132D01*
X0058725Y0161271D01*
X0058623Y0161412D01*
X0058525Y0161555D01*
X0058430Y0161702D01*
X0058338Y0161850D01*
X0058250Y0162000D01*
X0058166Y0162153D01*
X0058086Y0162308D01*
X0058010Y0162464D01*
X0057937Y0162623D01*
X0057868Y0162783D01*
X0057804Y0162945D01*
X0057743Y0163108D01*
X0057686Y0163273D01*
X0057634Y0163439D01*
X0057585Y0163606D01*
X0057541Y0163775D01*
X0057501Y0163944D01*
X0057464Y0164115D01*
X0057433Y0164286D01*
X0057405Y0164458D01*
X0057381Y0164631D01*
X0057362Y0164804D01*
X0057347Y0164978D01*
X0057337Y0165152D01*
X0057330Y0165326D01*
X0057328Y0165500D01*
X0105928Y0122500D02*
X0105928Y0121500D01*
X0106428Y0121000D01*
X0106428Y0112000D01*
X0105928Y0111500D01*
X0105928Y0110500D01*
X0105930Y0110440D01*
X0105935Y0110379D01*
X0105944Y0110320D01*
X0105957Y0110261D01*
X0105973Y0110202D01*
X0105993Y0110145D01*
X0106016Y0110090D01*
X0106043Y0110035D01*
X0106072Y0109983D01*
X0106105Y0109932D01*
X0106141Y0109883D01*
X0106179Y0109837D01*
X0106221Y0109793D01*
X0106265Y0109751D01*
X0106311Y0109713D01*
X0106360Y0109677D01*
X0106411Y0109644D01*
X0106463Y0109615D01*
X0106518Y0109588D01*
X0106573Y0109565D01*
X0106630Y0109545D01*
X0106689Y0109529D01*
X0106748Y0109516D01*
X0106807Y0109507D01*
X0106868Y0109502D01*
X0106928Y0109500D01*
X0111928Y0109500D02*
X0111988Y0109502D01*
X0112049Y0109507D01*
X0112108Y0109516D01*
X0112167Y0109529D01*
X0112226Y0109545D01*
X0112283Y0109565D01*
X0112338Y0109588D01*
X0112393Y0109615D01*
X0112445Y0109644D01*
X0112496Y0109677D01*
X0112545Y0109713D01*
X0112591Y0109751D01*
X0112635Y0109793D01*
X0112677Y0109837D01*
X0112715Y0109883D01*
X0112751Y0109932D01*
X0112784Y0109983D01*
X0112813Y0110035D01*
X0112840Y0110090D01*
X0112863Y0110145D01*
X0112883Y0110202D01*
X0112899Y0110261D01*
X0112912Y0110320D01*
X0112921Y0110379D01*
X0112926Y0110440D01*
X0112928Y0110500D01*
X0112928Y0111500D01*
X0112428Y0112000D01*
X0112428Y0121000D01*
X0112928Y0121500D01*
X0112928Y0122500D01*
X0112926Y0122560D01*
X0112921Y0122621D01*
X0112912Y0122680D01*
X0112899Y0122739D01*
X0112883Y0122798D01*
X0112863Y0122855D01*
X0112840Y0122910D01*
X0112813Y0122965D01*
X0112784Y0123017D01*
X0112751Y0123068D01*
X0112715Y0123117D01*
X0112677Y0123163D01*
X0112635Y0123207D01*
X0112591Y0123249D01*
X0112545Y0123287D01*
X0112496Y0123323D01*
X0112445Y0123356D01*
X0112393Y0123385D01*
X0112338Y0123412D01*
X0112283Y0123435D01*
X0112226Y0123455D01*
X0112167Y0123471D01*
X0112108Y0123484D01*
X0112049Y0123493D01*
X0111988Y0123498D01*
X0111928Y0123500D01*
X0106928Y0123500D02*
X0106868Y0123498D01*
X0106807Y0123493D01*
X0106748Y0123484D01*
X0106689Y0123471D01*
X0106630Y0123455D01*
X0106573Y0123435D01*
X0106518Y0123412D01*
X0106463Y0123385D01*
X0106411Y0123356D01*
X0106360Y0123323D01*
X0106311Y0123287D01*
X0106265Y0123249D01*
X0106221Y0123207D01*
X0106179Y0123163D01*
X0106141Y0123117D01*
X0106105Y0123068D01*
X0106072Y0123017D01*
X0106043Y0122965D01*
X0106016Y0122910D01*
X0105993Y0122855D01*
X0105973Y0122798D01*
X0105957Y0122739D01*
X0105944Y0122680D01*
X0105935Y0122621D01*
X0105930Y0122560D01*
X0105928Y0122500D01*
X0125928Y0122500D02*
X0125928Y0121500D01*
X0126428Y0121000D01*
X0126428Y0112000D01*
X0125928Y0111500D01*
X0125928Y0110500D01*
X0125930Y0110440D01*
X0125935Y0110379D01*
X0125944Y0110320D01*
X0125957Y0110261D01*
X0125973Y0110202D01*
X0125993Y0110145D01*
X0126016Y0110090D01*
X0126043Y0110035D01*
X0126072Y0109983D01*
X0126105Y0109932D01*
X0126141Y0109883D01*
X0126179Y0109837D01*
X0126221Y0109793D01*
X0126265Y0109751D01*
X0126311Y0109713D01*
X0126360Y0109677D01*
X0126411Y0109644D01*
X0126463Y0109615D01*
X0126518Y0109588D01*
X0126573Y0109565D01*
X0126630Y0109545D01*
X0126689Y0109529D01*
X0126748Y0109516D01*
X0126807Y0109507D01*
X0126868Y0109502D01*
X0126928Y0109500D01*
X0131928Y0109500D02*
X0131988Y0109502D01*
X0132049Y0109507D01*
X0132108Y0109516D01*
X0132167Y0109529D01*
X0132226Y0109545D01*
X0132283Y0109565D01*
X0132338Y0109588D01*
X0132393Y0109615D01*
X0132445Y0109644D01*
X0132496Y0109677D01*
X0132545Y0109713D01*
X0132591Y0109751D01*
X0132635Y0109793D01*
X0132677Y0109837D01*
X0132715Y0109883D01*
X0132751Y0109932D01*
X0132784Y0109983D01*
X0132813Y0110035D01*
X0132840Y0110090D01*
X0132863Y0110145D01*
X0132883Y0110202D01*
X0132899Y0110261D01*
X0132912Y0110320D01*
X0132921Y0110379D01*
X0132926Y0110440D01*
X0132928Y0110500D01*
X0132928Y0111500D01*
X0132428Y0112000D01*
X0132428Y0121000D01*
X0132928Y0121500D01*
X0132928Y0122500D01*
X0132926Y0122560D01*
X0132921Y0122621D01*
X0132912Y0122680D01*
X0132899Y0122739D01*
X0132883Y0122798D01*
X0132863Y0122855D01*
X0132840Y0122910D01*
X0132813Y0122965D01*
X0132784Y0123017D01*
X0132751Y0123068D01*
X0132715Y0123117D01*
X0132677Y0123163D01*
X0132635Y0123207D01*
X0132591Y0123249D01*
X0132545Y0123287D01*
X0132496Y0123323D01*
X0132445Y0123356D01*
X0132393Y0123385D01*
X0132338Y0123412D01*
X0132283Y0123435D01*
X0132226Y0123455D01*
X0132167Y0123471D01*
X0132108Y0123484D01*
X0132049Y0123493D01*
X0131988Y0123498D01*
X0131928Y0123500D01*
X0126928Y0123500D02*
X0126868Y0123498D01*
X0126807Y0123493D01*
X0126748Y0123484D01*
X0126689Y0123471D01*
X0126630Y0123455D01*
X0126573Y0123435D01*
X0126518Y0123412D01*
X0126463Y0123385D01*
X0126411Y0123356D01*
X0126360Y0123323D01*
X0126311Y0123287D01*
X0126265Y0123249D01*
X0126221Y0123207D01*
X0126179Y0123163D01*
X0126141Y0123117D01*
X0126105Y0123068D01*
X0126072Y0123017D01*
X0126043Y0122965D01*
X0126016Y0122910D01*
X0125993Y0122855D01*
X0125973Y0122798D01*
X0125957Y0122739D01*
X0125944Y0122680D01*
X0125935Y0122621D01*
X0125930Y0122560D01*
X0125928Y0122500D01*
X0084428Y0095000D02*
X0084428Y0078000D01*
X0084426Y0077940D01*
X0084421Y0077879D01*
X0084412Y0077820D01*
X0084399Y0077761D01*
X0084383Y0077702D01*
X0084363Y0077645D01*
X0084340Y0077590D01*
X0084313Y0077535D01*
X0084284Y0077483D01*
X0084251Y0077432D01*
X0084215Y0077383D01*
X0084177Y0077337D01*
X0084135Y0077293D01*
X0084091Y0077251D01*
X0084045Y0077213D01*
X0083996Y0077177D01*
X0083945Y0077144D01*
X0083893Y0077115D01*
X0083838Y0077088D01*
X0083783Y0077065D01*
X0083726Y0077045D01*
X0083667Y0077029D01*
X0083608Y0077016D01*
X0083549Y0077007D01*
X0083488Y0077002D01*
X0083428Y0077000D01*
X0075428Y0077000D01*
X0075368Y0077002D01*
X0075307Y0077007D01*
X0075248Y0077016D01*
X0075189Y0077029D01*
X0075130Y0077045D01*
X0075073Y0077065D01*
X0075018Y0077088D01*
X0074963Y0077115D01*
X0074911Y0077144D01*
X0074860Y0077177D01*
X0074811Y0077213D01*
X0074765Y0077251D01*
X0074721Y0077293D01*
X0074679Y0077337D01*
X0074641Y0077383D01*
X0074605Y0077432D01*
X0074572Y0077483D01*
X0074543Y0077535D01*
X0074516Y0077590D01*
X0074493Y0077645D01*
X0074473Y0077702D01*
X0074457Y0077761D01*
X0074444Y0077820D01*
X0074435Y0077879D01*
X0074430Y0077940D01*
X0074428Y0078000D01*
X0074428Y0095000D01*
X0074430Y0095060D01*
X0074435Y0095121D01*
X0074444Y0095180D01*
X0074457Y0095239D01*
X0074473Y0095298D01*
X0074493Y0095355D01*
X0074516Y0095410D01*
X0074543Y0095465D01*
X0074572Y0095517D01*
X0074605Y0095568D01*
X0074641Y0095617D01*
X0074679Y0095663D01*
X0074721Y0095707D01*
X0074765Y0095749D01*
X0074811Y0095787D01*
X0074860Y0095823D01*
X0074911Y0095856D01*
X0074963Y0095885D01*
X0075018Y0095912D01*
X0075073Y0095935D01*
X0075130Y0095955D01*
X0075189Y0095971D01*
X0075248Y0095984D01*
X0075307Y0095993D01*
X0075368Y0095998D01*
X0075428Y0096000D01*
X0083428Y0096000D01*
X0083488Y0095998D01*
X0083549Y0095993D01*
X0083608Y0095984D01*
X0083667Y0095971D01*
X0083726Y0095955D01*
X0083783Y0095935D01*
X0083838Y0095912D01*
X0083893Y0095885D01*
X0083945Y0095856D01*
X0083996Y0095823D01*
X0084045Y0095787D01*
X0084091Y0095749D01*
X0084135Y0095707D01*
X0084177Y0095663D01*
X0084215Y0095617D01*
X0084251Y0095568D01*
X0084284Y0095517D01*
X0084313Y0095465D01*
X0084340Y0095410D01*
X0084363Y0095355D01*
X0084383Y0095298D01*
X0084399Y0095239D01*
X0084412Y0095180D01*
X0084421Y0095121D01*
X0084426Y0095060D01*
X0084428Y0095000D01*
X0079428Y0088000D02*
X0079428Y0087500D01*
X0079428Y0085500D02*
X0079428Y0085000D01*
X0059428Y0090000D02*
X0059428Y0073000D01*
X0059426Y0072940D01*
X0059421Y0072879D01*
X0059412Y0072820D01*
X0059399Y0072761D01*
X0059383Y0072702D01*
X0059363Y0072645D01*
X0059340Y0072590D01*
X0059313Y0072535D01*
X0059284Y0072483D01*
X0059251Y0072432D01*
X0059215Y0072383D01*
X0059177Y0072337D01*
X0059135Y0072293D01*
X0059091Y0072251D01*
X0059045Y0072213D01*
X0058996Y0072177D01*
X0058945Y0072144D01*
X0058893Y0072115D01*
X0058838Y0072088D01*
X0058783Y0072065D01*
X0058726Y0072045D01*
X0058667Y0072029D01*
X0058608Y0072016D01*
X0058549Y0072007D01*
X0058488Y0072002D01*
X0058428Y0072000D01*
X0050428Y0072000D01*
X0050368Y0072002D01*
X0050307Y0072007D01*
X0050248Y0072016D01*
X0050189Y0072029D01*
X0050130Y0072045D01*
X0050073Y0072065D01*
X0050018Y0072088D01*
X0049963Y0072115D01*
X0049911Y0072144D01*
X0049860Y0072177D01*
X0049811Y0072213D01*
X0049765Y0072251D01*
X0049721Y0072293D01*
X0049679Y0072337D01*
X0049641Y0072383D01*
X0049605Y0072432D01*
X0049572Y0072483D01*
X0049543Y0072535D01*
X0049516Y0072590D01*
X0049493Y0072645D01*
X0049473Y0072702D01*
X0049457Y0072761D01*
X0049444Y0072820D01*
X0049435Y0072879D01*
X0049430Y0072940D01*
X0049428Y0073000D01*
X0049428Y0090000D01*
X0049430Y0090060D01*
X0049435Y0090121D01*
X0049444Y0090180D01*
X0049457Y0090239D01*
X0049473Y0090298D01*
X0049493Y0090355D01*
X0049516Y0090410D01*
X0049543Y0090465D01*
X0049572Y0090517D01*
X0049605Y0090568D01*
X0049641Y0090617D01*
X0049679Y0090663D01*
X0049721Y0090707D01*
X0049765Y0090749D01*
X0049811Y0090787D01*
X0049860Y0090823D01*
X0049911Y0090856D01*
X0049963Y0090885D01*
X0050018Y0090912D01*
X0050073Y0090935D01*
X0050130Y0090955D01*
X0050189Y0090971D01*
X0050248Y0090984D01*
X0050307Y0090993D01*
X0050368Y0090998D01*
X0050428Y0091000D01*
X0058428Y0091000D01*
X0058488Y0090998D01*
X0058549Y0090993D01*
X0058608Y0090984D01*
X0058667Y0090971D01*
X0058726Y0090955D01*
X0058783Y0090935D01*
X0058838Y0090912D01*
X0058893Y0090885D01*
X0058945Y0090856D01*
X0058996Y0090823D01*
X0059045Y0090787D01*
X0059091Y0090749D01*
X0059135Y0090707D01*
X0059177Y0090663D01*
X0059215Y0090617D01*
X0059251Y0090568D01*
X0059284Y0090517D01*
X0059313Y0090465D01*
X0059340Y0090410D01*
X0059363Y0090355D01*
X0059383Y0090298D01*
X0059399Y0090239D01*
X0059412Y0090180D01*
X0059421Y0090121D01*
X0059426Y0090060D01*
X0059428Y0090000D01*
X0054428Y0083000D02*
X0054428Y0082500D01*
X0054428Y0080500D02*
X0054428Y0080000D01*
X0105928Y0080500D02*
X0105928Y0081500D01*
X0106428Y0082000D01*
X0106428Y0091000D01*
X0105928Y0091500D01*
X0105928Y0092500D01*
X0105930Y0092560D01*
X0105935Y0092621D01*
X0105944Y0092680D01*
X0105957Y0092739D01*
X0105973Y0092798D01*
X0105993Y0092855D01*
X0106016Y0092910D01*
X0106043Y0092965D01*
X0106072Y0093017D01*
X0106105Y0093068D01*
X0106141Y0093117D01*
X0106179Y0093163D01*
X0106221Y0093207D01*
X0106265Y0093249D01*
X0106311Y0093287D01*
X0106360Y0093323D01*
X0106411Y0093356D01*
X0106463Y0093385D01*
X0106518Y0093412D01*
X0106573Y0093435D01*
X0106630Y0093455D01*
X0106689Y0093471D01*
X0106748Y0093484D01*
X0106807Y0093493D01*
X0106868Y0093498D01*
X0106928Y0093500D01*
X0111928Y0093500D02*
X0111988Y0093498D01*
X0112049Y0093493D01*
X0112108Y0093484D01*
X0112167Y0093471D01*
X0112226Y0093455D01*
X0112283Y0093435D01*
X0112338Y0093412D01*
X0112393Y0093385D01*
X0112445Y0093356D01*
X0112496Y0093323D01*
X0112545Y0093287D01*
X0112591Y0093249D01*
X0112635Y0093207D01*
X0112677Y0093163D01*
X0112715Y0093117D01*
X0112751Y0093068D01*
X0112784Y0093017D01*
X0112813Y0092965D01*
X0112840Y0092910D01*
X0112863Y0092855D01*
X0112883Y0092798D01*
X0112899Y0092739D01*
X0112912Y0092680D01*
X0112921Y0092621D01*
X0112926Y0092560D01*
X0112928Y0092500D01*
X0112928Y0091500D01*
X0112428Y0091000D01*
X0112428Y0082000D01*
X0112928Y0081500D01*
X0112928Y0080500D01*
X0112926Y0080440D01*
X0112921Y0080379D01*
X0112912Y0080320D01*
X0112899Y0080261D01*
X0112883Y0080202D01*
X0112863Y0080145D01*
X0112840Y0080090D01*
X0112813Y0080035D01*
X0112784Y0079983D01*
X0112751Y0079932D01*
X0112715Y0079883D01*
X0112677Y0079837D01*
X0112635Y0079793D01*
X0112591Y0079751D01*
X0112545Y0079713D01*
X0112496Y0079677D01*
X0112445Y0079644D01*
X0112393Y0079615D01*
X0112338Y0079588D01*
X0112283Y0079565D01*
X0112226Y0079545D01*
X0112167Y0079529D01*
X0112108Y0079516D01*
X0112049Y0079507D01*
X0111988Y0079502D01*
X0111928Y0079500D01*
X0106928Y0079500D02*
X0106868Y0079502D01*
X0106807Y0079507D01*
X0106748Y0079516D01*
X0106689Y0079529D01*
X0106630Y0079545D01*
X0106573Y0079565D01*
X0106518Y0079588D01*
X0106463Y0079615D01*
X0106411Y0079644D01*
X0106360Y0079677D01*
X0106311Y0079713D01*
X0106265Y0079751D01*
X0106221Y0079793D01*
X0106179Y0079837D01*
X0106141Y0079883D01*
X0106105Y0079932D01*
X0106072Y0079983D01*
X0106043Y0080035D01*
X0106016Y0080090D01*
X0105993Y0080145D01*
X0105973Y0080202D01*
X0105957Y0080261D01*
X0105944Y0080320D01*
X0105935Y0080379D01*
X0105930Y0080440D01*
X0105928Y0080500D01*
X0125928Y0080500D02*
X0125928Y0081500D01*
X0126428Y0082000D01*
X0126428Y0091000D01*
X0125928Y0091500D01*
X0125928Y0092500D01*
X0125930Y0092560D01*
X0125935Y0092621D01*
X0125944Y0092680D01*
X0125957Y0092739D01*
X0125973Y0092798D01*
X0125993Y0092855D01*
X0126016Y0092910D01*
X0126043Y0092965D01*
X0126072Y0093017D01*
X0126105Y0093068D01*
X0126141Y0093117D01*
X0126179Y0093163D01*
X0126221Y0093207D01*
X0126265Y0093249D01*
X0126311Y0093287D01*
X0126360Y0093323D01*
X0126411Y0093356D01*
X0126463Y0093385D01*
X0126518Y0093412D01*
X0126573Y0093435D01*
X0126630Y0093455D01*
X0126689Y0093471D01*
X0126748Y0093484D01*
X0126807Y0093493D01*
X0126868Y0093498D01*
X0126928Y0093500D01*
X0131928Y0093500D02*
X0131988Y0093498D01*
X0132049Y0093493D01*
X0132108Y0093484D01*
X0132167Y0093471D01*
X0132226Y0093455D01*
X0132283Y0093435D01*
X0132338Y0093412D01*
X0132393Y0093385D01*
X0132445Y0093356D01*
X0132496Y0093323D01*
X0132545Y0093287D01*
X0132591Y0093249D01*
X0132635Y0093207D01*
X0132677Y0093163D01*
X0132715Y0093117D01*
X0132751Y0093068D01*
X0132784Y0093017D01*
X0132813Y0092965D01*
X0132840Y0092910D01*
X0132863Y0092855D01*
X0132883Y0092798D01*
X0132899Y0092739D01*
X0132912Y0092680D01*
X0132921Y0092621D01*
X0132926Y0092560D01*
X0132928Y0092500D01*
X0132928Y0091500D01*
X0132428Y0091000D01*
X0132428Y0082000D01*
X0132928Y0081500D01*
X0132928Y0080500D01*
X0132926Y0080440D01*
X0132921Y0080379D01*
X0132912Y0080320D01*
X0132899Y0080261D01*
X0132883Y0080202D01*
X0132863Y0080145D01*
X0132840Y0080090D01*
X0132813Y0080035D01*
X0132784Y0079983D01*
X0132751Y0079932D01*
X0132715Y0079883D01*
X0132677Y0079837D01*
X0132635Y0079793D01*
X0132591Y0079751D01*
X0132545Y0079713D01*
X0132496Y0079677D01*
X0132445Y0079644D01*
X0132393Y0079615D01*
X0132338Y0079588D01*
X0132283Y0079565D01*
X0132226Y0079545D01*
X0132167Y0079529D01*
X0132108Y0079516D01*
X0132049Y0079507D01*
X0131988Y0079502D01*
X0131928Y0079500D01*
X0126928Y0079500D02*
X0126868Y0079502D01*
X0126807Y0079507D01*
X0126748Y0079516D01*
X0126689Y0079529D01*
X0126630Y0079545D01*
X0126573Y0079565D01*
X0126518Y0079588D01*
X0126463Y0079615D01*
X0126411Y0079644D01*
X0126360Y0079677D01*
X0126311Y0079713D01*
X0126265Y0079751D01*
X0126221Y0079793D01*
X0126179Y0079837D01*
X0126141Y0079883D01*
X0126105Y0079932D01*
X0126072Y0079983D01*
X0126043Y0080035D01*
X0126016Y0080090D01*
X0125993Y0080145D01*
X0125973Y0080202D01*
X0125957Y0080261D01*
X0125944Y0080320D01*
X0125935Y0080379D01*
X0125930Y0080440D01*
X0125928Y0080500D01*
X0133428Y0060000D02*
X0134428Y0060000D01*
X0134928Y0059500D01*
X0143928Y0059500D01*
X0144428Y0060000D01*
X0145428Y0060000D01*
X0145488Y0059998D01*
X0145549Y0059993D01*
X0145608Y0059984D01*
X0145667Y0059971D01*
X0145726Y0059955D01*
X0145783Y0059935D01*
X0145838Y0059912D01*
X0145893Y0059885D01*
X0145945Y0059856D01*
X0145996Y0059823D01*
X0146045Y0059787D01*
X0146091Y0059749D01*
X0146135Y0059707D01*
X0146177Y0059663D01*
X0146215Y0059617D01*
X0146251Y0059568D01*
X0146284Y0059517D01*
X0146313Y0059465D01*
X0146340Y0059410D01*
X0146363Y0059355D01*
X0146383Y0059298D01*
X0146399Y0059239D01*
X0146412Y0059180D01*
X0146421Y0059121D01*
X0146426Y0059060D01*
X0146428Y0059000D01*
X0146428Y0054000D02*
X0146426Y0053940D01*
X0146421Y0053879D01*
X0146412Y0053820D01*
X0146399Y0053761D01*
X0146383Y0053702D01*
X0146363Y0053645D01*
X0146340Y0053590D01*
X0146313Y0053535D01*
X0146284Y0053483D01*
X0146251Y0053432D01*
X0146215Y0053383D01*
X0146177Y0053337D01*
X0146135Y0053293D01*
X0146091Y0053251D01*
X0146045Y0053213D01*
X0145996Y0053177D01*
X0145945Y0053144D01*
X0145893Y0053115D01*
X0145838Y0053088D01*
X0145783Y0053065D01*
X0145726Y0053045D01*
X0145667Y0053029D01*
X0145608Y0053016D01*
X0145549Y0053007D01*
X0145488Y0053002D01*
X0145428Y0053000D01*
X0144428Y0053000D01*
X0143928Y0053500D01*
X0134928Y0053500D01*
X0134428Y0053000D01*
X0133428Y0053000D01*
X0133368Y0053002D01*
X0133307Y0053007D01*
X0133248Y0053016D01*
X0133189Y0053029D01*
X0133130Y0053045D01*
X0133073Y0053065D01*
X0133018Y0053088D01*
X0132963Y0053115D01*
X0132911Y0053144D01*
X0132860Y0053177D01*
X0132811Y0053213D01*
X0132765Y0053251D01*
X0132721Y0053293D01*
X0132679Y0053337D01*
X0132641Y0053383D01*
X0132605Y0053432D01*
X0132572Y0053483D01*
X0132543Y0053535D01*
X0132516Y0053590D01*
X0132493Y0053645D01*
X0132473Y0053702D01*
X0132457Y0053761D01*
X0132444Y0053820D01*
X0132435Y0053879D01*
X0132430Y0053940D01*
X0132428Y0054000D01*
X0132428Y0059000D02*
X0132430Y0059060D01*
X0132435Y0059121D01*
X0132444Y0059180D01*
X0132457Y0059239D01*
X0132473Y0059298D01*
X0132493Y0059355D01*
X0132516Y0059410D01*
X0132543Y0059465D01*
X0132572Y0059517D01*
X0132605Y0059568D01*
X0132641Y0059617D01*
X0132679Y0059663D01*
X0132721Y0059707D01*
X0132765Y0059749D01*
X0132811Y0059787D01*
X0132860Y0059823D01*
X0132911Y0059856D01*
X0132963Y0059885D01*
X0133018Y0059912D01*
X0133073Y0059935D01*
X0133130Y0059955D01*
X0133189Y0059971D01*
X0133248Y0059984D01*
X0133307Y0059993D01*
X0133368Y0059998D01*
X0133428Y0060000D01*
X0114428Y0060000D02*
X0114428Y0043000D01*
X0114426Y0042940D01*
X0114421Y0042879D01*
X0114412Y0042820D01*
X0114399Y0042761D01*
X0114383Y0042702D01*
X0114363Y0042645D01*
X0114340Y0042590D01*
X0114313Y0042535D01*
X0114284Y0042483D01*
X0114251Y0042432D01*
X0114215Y0042383D01*
X0114177Y0042337D01*
X0114135Y0042293D01*
X0114091Y0042251D01*
X0114045Y0042213D01*
X0113996Y0042177D01*
X0113945Y0042144D01*
X0113893Y0042115D01*
X0113838Y0042088D01*
X0113783Y0042065D01*
X0113726Y0042045D01*
X0113667Y0042029D01*
X0113608Y0042016D01*
X0113549Y0042007D01*
X0113488Y0042002D01*
X0113428Y0042000D01*
X0105428Y0042000D01*
X0105368Y0042002D01*
X0105307Y0042007D01*
X0105248Y0042016D01*
X0105189Y0042029D01*
X0105130Y0042045D01*
X0105073Y0042065D01*
X0105018Y0042088D01*
X0104963Y0042115D01*
X0104911Y0042144D01*
X0104860Y0042177D01*
X0104811Y0042213D01*
X0104765Y0042251D01*
X0104721Y0042293D01*
X0104679Y0042337D01*
X0104641Y0042383D01*
X0104605Y0042432D01*
X0104572Y0042483D01*
X0104543Y0042535D01*
X0104516Y0042590D01*
X0104493Y0042645D01*
X0104473Y0042702D01*
X0104457Y0042761D01*
X0104444Y0042820D01*
X0104435Y0042879D01*
X0104430Y0042940D01*
X0104428Y0043000D01*
X0104428Y0060000D01*
X0104430Y0060060D01*
X0104435Y0060121D01*
X0104444Y0060180D01*
X0104457Y0060239D01*
X0104473Y0060298D01*
X0104493Y0060355D01*
X0104516Y0060410D01*
X0104543Y0060465D01*
X0104572Y0060517D01*
X0104605Y0060568D01*
X0104641Y0060617D01*
X0104679Y0060663D01*
X0104721Y0060707D01*
X0104765Y0060749D01*
X0104811Y0060787D01*
X0104860Y0060823D01*
X0104911Y0060856D01*
X0104963Y0060885D01*
X0105018Y0060912D01*
X0105073Y0060935D01*
X0105130Y0060955D01*
X0105189Y0060971D01*
X0105248Y0060984D01*
X0105307Y0060993D01*
X0105368Y0060998D01*
X0105428Y0061000D01*
X0113428Y0061000D01*
X0113488Y0060998D01*
X0113549Y0060993D01*
X0113608Y0060984D01*
X0113667Y0060971D01*
X0113726Y0060955D01*
X0113783Y0060935D01*
X0113838Y0060912D01*
X0113893Y0060885D01*
X0113945Y0060856D01*
X0113996Y0060823D01*
X0114045Y0060787D01*
X0114091Y0060749D01*
X0114135Y0060707D01*
X0114177Y0060663D01*
X0114215Y0060617D01*
X0114251Y0060568D01*
X0114284Y0060517D01*
X0114313Y0060465D01*
X0114340Y0060410D01*
X0114363Y0060355D01*
X0114383Y0060298D01*
X0114399Y0060239D01*
X0114412Y0060180D01*
X0114421Y0060121D01*
X0114426Y0060060D01*
X0114428Y0060000D01*
X0109428Y0053000D02*
X0109428Y0052500D01*
X0109428Y0050500D02*
X0109428Y0050000D01*
X0238428Y0078000D02*
X0239428Y0078000D01*
X0239928Y0078500D01*
X0248928Y0078500D01*
X0249428Y0078000D01*
X0250428Y0078000D01*
X0250488Y0078002D01*
X0250549Y0078007D01*
X0250608Y0078016D01*
X0250667Y0078029D01*
X0250726Y0078045D01*
X0250783Y0078065D01*
X0250838Y0078088D01*
X0250893Y0078115D01*
X0250945Y0078144D01*
X0250996Y0078177D01*
X0251045Y0078213D01*
X0251091Y0078251D01*
X0251135Y0078293D01*
X0251177Y0078337D01*
X0251215Y0078383D01*
X0251251Y0078432D01*
X0251284Y0078483D01*
X0251313Y0078535D01*
X0251340Y0078590D01*
X0251363Y0078645D01*
X0251383Y0078702D01*
X0251399Y0078761D01*
X0251412Y0078820D01*
X0251421Y0078879D01*
X0251426Y0078940D01*
X0251428Y0079000D01*
X0251428Y0084000D02*
X0251426Y0084060D01*
X0251421Y0084121D01*
X0251412Y0084180D01*
X0251399Y0084239D01*
X0251383Y0084298D01*
X0251363Y0084355D01*
X0251340Y0084410D01*
X0251313Y0084465D01*
X0251284Y0084517D01*
X0251251Y0084568D01*
X0251215Y0084617D01*
X0251177Y0084663D01*
X0251135Y0084707D01*
X0251091Y0084749D01*
X0251045Y0084787D01*
X0250996Y0084823D01*
X0250945Y0084856D01*
X0250893Y0084885D01*
X0250838Y0084912D01*
X0250783Y0084935D01*
X0250726Y0084955D01*
X0250667Y0084971D01*
X0250608Y0084984D01*
X0250549Y0084993D01*
X0250488Y0084998D01*
X0250428Y0085000D01*
X0249428Y0085000D01*
X0248928Y0084500D01*
X0239928Y0084500D01*
X0239428Y0085000D01*
X0238428Y0085000D01*
X0238368Y0084998D01*
X0238307Y0084993D01*
X0238248Y0084984D01*
X0238189Y0084971D01*
X0238130Y0084955D01*
X0238073Y0084935D01*
X0238018Y0084912D01*
X0237963Y0084885D01*
X0237911Y0084856D01*
X0237860Y0084823D01*
X0237811Y0084787D01*
X0237765Y0084749D01*
X0237721Y0084707D01*
X0237679Y0084663D01*
X0237641Y0084617D01*
X0237605Y0084568D01*
X0237572Y0084517D01*
X0237543Y0084465D01*
X0237516Y0084410D01*
X0237493Y0084355D01*
X0237473Y0084298D01*
X0237457Y0084239D01*
X0237444Y0084180D01*
X0237435Y0084121D01*
X0237430Y0084060D01*
X0237428Y0084000D01*
X0237428Y0079000D02*
X0237430Y0078940D01*
X0237435Y0078879D01*
X0237444Y0078820D01*
X0237457Y0078761D01*
X0237473Y0078702D01*
X0237493Y0078645D01*
X0237516Y0078590D01*
X0237543Y0078535D01*
X0237572Y0078483D01*
X0237605Y0078432D01*
X0237641Y0078383D01*
X0237679Y0078337D01*
X0237721Y0078293D01*
X0237765Y0078251D01*
X0237811Y0078213D01*
X0237860Y0078177D01*
X0237911Y0078144D01*
X0237963Y0078115D01*
X0238018Y0078088D01*
X0238073Y0078065D01*
X0238130Y0078045D01*
X0238189Y0078029D01*
X0238248Y0078016D01*
X0238307Y0078007D01*
X0238368Y0078002D01*
X0238428Y0078000D01*
X0268428Y0078000D02*
X0269428Y0078000D01*
X0269928Y0078500D01*
X0278928Y0078500D01*
X0279428Y0078000D01*
X0280428Y0078000D01*
X0280488Y0078002D01*
X0280549Y0078007D01*
X0280608Y0078016D01*
X0280667Y0078029D01*
X0280726Y0078045D01*
X0280783Y0078065D01*
X0280838Y0078088D01*
X0280893Y0078115D01*
X0280945Y0078144D01*
X0280996Y0078177D01*
X0281045Y0078213D01*
X0281091Y0078251D01*
X0281135Y0078293D01*
X0281177Y0078337D01*
X0281215Y0078383D01*
X0281251Y0078432D01*
X0281284Y0078483D01*
X0281313Y0078535D01*
X0281340Y0078590D01*
X0281363Y0078645D01*
X0281383Y0078702D01*
X0281399Y0078761D01*
X0281412Y0078820D01*
X0281421Y0078879D01*
X0281426Y0078940D01*
X0281428Y0079000D01*
X0281428Y0084000D02*
X0281426Y0084060D01*
X0281421Y0084121D01*
X0281412Y0084180D01*
X0281399Y0084239D01*
X0281383Y0084298D01*
X0281363Y0084355D01*
X0281340Y0084410D01*
X0281313Y0084465D01*
X0281284Y0084517D01*
X0281251Y0084568D01*
X0281215Y0084617D01*
X0281177Y0084663D01*
X0281135Y0084707D01*
X0281091Y0084749D01*
X0281045Y0084787D01*
X0280996Y0084823D01*
X0280945Y0084856D01*
X0280893Y0084885D01*
X0280838Y0084912D01*
X0280783Y0084935D01*
X0280726Y0084955D01*
X0280667Y0084971D01*
X0280608Y0084984D01*
X0280549Y0084993D01*
X0280488Y0084998D01*
X0280428Y0085000D01*
X0279428Y0085000D01*
X0278928Y0084500D01*
X0269928Y0084500D01*
X0269428Y0085000D01*
X0268428Y0085000D01*
X0268368Y0084998D01*
X0268307Y0084993D01*
X0268248Y0084984D01*
X0268189Y0084971D01*
X0268130Y0084955D01*
X0268073Y0084935D01*
X0268018Y0084912D01*
X0267963Y0084885D01*
X0267911Y0084856D01*
X0267860Y0084823D01*
X0267811Y0084787D01*
X0267765Y0084749D01*
X0267721Y0084707D01*
X0267679Y0084663D01*
X0267641Y0084617D01*
X0267605Y0084568D01*
X0267572Y0084517D01*
X0267543Y0084465D01*
X0267516Y0084410D01*
X0267493Y0084355D01*
X0267473Y0084298D01*
X0267457Y0084239D01*
X0267444Y0084180D01*
X0267435Y0084121D01*
X0267430Y0084060D01*
X0267428Y0084000D01*
X0267428Y0079000D02*
X0267430Y0078940D01*
X0267435Y0078879D01*
X0267444Y0078820D01*
X0267457Y0078761D01*
X0267473Y0078702D01*
X0267493Y0078645D01*
X0267516Y0078590D01*
X0267543Y0078535D01*
X0267572Y0078483D01*
X0267605Y0078432D01*
X0267641Y0078383D01*
X0267679Y0078337D01*
X0267721Y0078293D01*
X0267765Y0078251D01*
X0267811Y0078213D01*
X0267860Y0078177D01*
X0267911Y0078144D01*
X0267963Y0078115D01*
X0268018Y0078088D01*
X0268073Y0078065D01*
X0268130Y0078045D01*
X0268189Y0078029D01*
X0268248Y0078016D01*
X0268307Y0078007D01*
X0268368Y0078002D01*
X0268428Y0078000D01*
X0298428Y0078000D02*
X0299428Y0078000D01*
X0299928Y0078500D01*
X0308928Y0078500D01*
X0309428Y0078000D01*
X0310428Y0078000D01*
X0310488Y0078002D01*
X0310549Y0078007D01*
X0310608Y0078016D01*
X0310667Y0078029D01*
X0310726Y0078045D01*
X0310783Y0078065D01*
X0310838Y0078088D01*
X0310893Y0078115D01*
X0310945Y0078144D01*
X0310996Y0078177D01*
X0311045Y0078213D01*
X0311091Y0078251D01*
X0311135Y0078293D01*
X0311177Y0078337D01*
X0311215Y0078383D01*
X0311251Y0078432D01*
X0311284Y0078483D01*
X0311313Y0078535D01*
X0311340Y0078590D01*
X0311363Y0078645D01*
X0311383Y0078702D01*
X0311399Y0078761D01*
X0311412Y0078820D01*
X0311421Y0078879D01*
X0311426Y0078940D01*
X0311428Y0079000D01*
X0311428Y0084000D02*
X0311426Y0084060D01*
X0311421Y0084121D01*
X0311412Y0084180D01*
X0311399Y0084239D01*
X0311383Y0084298D01*
X0311363Y0084355D01*
X0311340Y0084410D01*
X0311313Y0084465D01*
X0311284Y0084517D01*
X0311251Y0084568D01*
X0311215Y0084617D01*
X0311177Y0084663D01*
X0311135Y0084707D01*
X0311091Y0084749D01*
X0311045Y0084787D01*
X0310996Y0084823D01*
X0310945Y0084856D01*
X0310893Y0084885D01*
X0310838Y0084912D01*
X0310783Y0084935D01*
X0310726Y0084955D01*
X0310667Y0084971D01*
X0310608Y0084984D01*
X0310549Y0084993D01*
X0310488Y0084998D01*
X0310428Y0085000D01*
X0309428Y0085000D01*
X0308928Y0084500D01*
X0299928Y0084500D01*
X0299428Y0085000D01*
X0298428Y0085000D01*
X0298368Y0084998D01*
X0298307Y0084993D01*
X0298248Y0084984D01*
X0298189Y0084971D01*
X0298130Y0084955D01*
X0298073Y0084935D01*
X0298018Y0084912D01*
X0297963Y0084885D01*
X0297911Y0084856D01*
X0297860Y0084823D01*
X0297811Y0084787D01*
X0297765Y0084749D01*
X0297721Y0084707D01*
X0297679Y0084663D01*
X0297641Y0084617D01*
X0297605Y0084568D01*
X0297572Y0084517D01*
X0297543Y0084465D01*
X0297516Y0084410D01*
X0297493Y0084355D01*
X0297473Y0084298D01*
X0297457Y0084239D01*
X0297444Y0084180D01*
X0297435Y0084121D01*
X0297430Y0084060D01*
X0297428Y0084000D01*
X0297428Y0079000D02*
X0297430Y0078940D01*
X0297435Y0078879D01*
X0297444Y0078820D01*
X0297457Y0078761D01*
X0297473Y0078702D01*
X0297493Y0078645D01*
X0297516Y0078590D01*
X0297543Y0078535D01*
X0297572Y0078483D01*
X0297605Y0078432D01*
X0297641Y0078383D01*
X0297679Y0078337D01*
X0297721Y0078293D01*
X0297765Y0078251D01*
X0297811Y0078213D01*
X0297860Y0078177D01*
X0297911Y0078144D01*
X0297963Y0078115D01*
X0298018Y0078088D01*
X0298073Y0078065D01*
X0298130Y0078045D01*
X0298189Y0078029D01*
X0298248Y0078016D01*
X0298307Y0078007D01*
X0298368Y0078002D01*
X0298428Y0078000D01*
X0268428Y0141500D02*
X0268430Y0141654D01*
X0268436Y0141808D01*
X0268446Y0141962D01*
X0268460Y0142116D01*
X0268477Y0142269D01*
X0268499Y0142421D01*
X0268525Y0142573D01*
X0268554Y0142725D01*
X0268588Y0142875D01*
X0268625Y0143025D01*
X0268666Y0143173D01*
X0268711Y0143321D01*
X0268760Y0143467D01*
X0268812Y0143612D01*
X0268868Y0143755D01*
X0268928Y0143898D01*
X0268991Y0144038D01*
X0269058Y0144177D01*
X0269129Y0144314D01*
X0269203Y0144449D01*
X0269280Y0144582D01*
X0269361Y0144714D01*
X0269445Y0144843D01*
X0269533Y0144970D01*
X0269624Y0145094D01*
X0269717Y0145216D01*
X0269815Y0145336D01*
X0269915Y0145453D01*
X0270018Y0145568D01*
X0270124Y0145680D01*
X0270232Y0145789D01*
X0270344Y0145895D01*
X0270458Y0145999D01*
X0270575Y0146099D01*
X0270694Y0146197D01*
X0270816Y0146291D01*
X0270941Y0146382D01*
X0280428Y0141500D02*
X0280426Y0141348D01*
X0280420Y0141197D01*
X0280411Y0141046D01*
X0280397Y0140894D01*
X0280380Y0140744D01*
X0280359Y0140594D01*
X0280334Y0140444D01*
X0280306Y0140295D01*
X0280273Y0140147D01*
X0280237Y0140000D01*
X0280198Y0139853D01*
X0280154Y0139708D01*
X0280107Y0139564D01*
X0280056Y0139421D01*
X0280002Y0139280D01*
X0279944Y0139139D01*
X0279883Y0139001D01*
X0279818Y0138864D01*
X0279749Y0138728D01*
X0279678Y0138595D01*
X0279603Y0138463D01*
X0279524Y0138333D01*
X0279443Y0138206D01*
X0279358Y0138080D01*
X0279270Y0137956D01*
X0279179Y0137835D01*
X0279085Y0137716D01*
X0278987Y0137600D01*
X0278887Y0137486D01*
X0278785Y0137374D01*
X0278679Y0137266D01*
X0278571Y0137160D01*
X0278460Y0137056D01*
X0278346Y0136956D01*
X0278230Y0136858D01*
X0278111Y0136764D01*
X0280428Y0141500D02*
X0280426Y0141652D01*
X0280420Y0141803D01*
X0280411Y0141954D01*
X0280397Y0142106D01*
X0280380Y0142256D01*
X0280359Y0142406D01*
X0280334Y0142556D01*
X0280306Y0142705D01*
X0280273Y0142853D01*
X0280237Y0143000D01*
X0280198Y0143147D01*
X0280154Y0143292D01*
X0280107Y0143436D01*
X0280056Y0143579D01*
X0280002Y0143720D01*
X0279944Y0143861D01*
X0279883Y0143999D01*
X0279818Y0144136D01*
X0279749Y0144272D01*
X0279678Y0144405D01*
X0279603Y0144537D01*
X0279524Y0144667D01*
X0279443Y0144794D01*
X0279358Y0144920D01*
X0279270Y0145044D01*
X0279179Y0145165D01*
X0279085Y0145284D01*
X0278987Y0145400D01*
X0278887Y0145514D01*
X0278785Y0145626D01*
X0278679Y0145734D01*
X0278571Y0145840D01*
X0278460Y0145944D01*
X0278346Y0146044D01*
X0278230Y0146142D01*
X0278111Y0146236D01*
X0268428Y0141500D02*
X0268430Y0141350D01*
X0268436Y0141199D01*
X0268445Y0141049D01*
X0268458Y0140900D01*
X0268475Y0140750D01*
X0268496Y0140601D01*
X0268520Y0140453D01*
X0268548Y0140305D01*
X0268580Y0140158D01*
X0268615Y0140012D01*
X0268655Y0139867D01*
X0268697Y0139723D01*
X0268744Y0139580D01*
X0268794Y0139438D01*
X0268847Y0139297D01*
X0268904Y0139158D01*
X0268964Y0139020D01*
X0269028Y0138884D01*
X0269095Y0138750D01*
X0269166Y0138617D01*
X0269240Y0138486D01*
X0269317Y0138357D01*
X0269398Y0138230D01*
X0269481Y0138105D01*
X0269568Y0137982D01*
X0269657Y0137861D01*
X0269750Y0137743D01*
X0269846Y0137627D01*
X0269944Y0137513D01*
X0270045Y0137402D01*
X0270150Y0137293D01*
X0270256Y0137188D01*
X0270366Y0137084D01*
X0270478Y0136984D01*
X0270592Y0136886D01*
X0270709Y0136792D01*
X0270828Y0136700D01*
X0240941Y0146382D02*
X0240816Y0146291D01*
X0240694Y0146197D01*
X0240575Y0146099D01*
X0240458Y0145999D01*
X0240344Y0145895D01*
X0240232Y0145789D01*
X0240124Y0145680D01*
X0240018Y0145568D01*
X0239915Y0145453D01*
X0239815Y0145336D01*
X0239717Y0145216D01*
X0239624Y0145094D01*
X0239533Y0144970D01*
X0239445Y0144843D01*
X0239361Y0144714D01*
X0239280Y0144582D01*
X0239203Y0144449D01*
X0239129Y0144314D01*
X0239058Y0144177D01*
X0238991Y0144038D01*
X0238928Y0143898D01*
X0238868Y0143755D01*
X0238812Y0143612D01*
X0238760Y0143467D01*
X0238711Y0143321D01*
X0238666Y0143173D01*
X0238625Y0143025D01*
X0238588Y0142875D01*
X0238554Y0142725D01*
X0238525Y0142573D01*
X0238499Y0142421D01*
X0238477Y0142269D01*
X0238460Y0142116D01*
X0238446Y0141962D01*
X0238436Y0141808D01*
X0238430Y0141654D01*
X0238428Y0141500D01*
X0248111Y0136764D02*
X0248230Y0136858D01*
X0248346Y0136956D01*
X0248460Y0137056D01*
X0248571Y0137160D01*
X0248679Y0137266D01*
X0248785Y0137374D01*
X0248887Y0137486D01*
X0248987Y0137600D01*
X0249085Y0137716D01*
X0249179Y0137835D01*
X0249270Y0137956D01*
X0249358Y0138080D01*
X0249443Y0138206D01*
X0249524Y0138333D01*
X0249603Y0138463D01*
X0249678Y0138595D01*
X0249749Y0138728D01*
X0249818Y0138864D01*
X0249883Y0139001D01*
X0249944Y0139139D01*
X0250002Y0139280D01*
X0250056Y0139421D01*
X0250107Y0139564D01*
X0250154Y0139708D01*
X0250198Y0139853D01*
X0250237Y0140000D01*
X0250273Y0140147D01*
X0250306Y0140295D01*
X0250334Y0140444D01*
X0250359Y0140594D01*
X0250380Y0140744D01*
X0250397Y0140894D01*
X0250411Y0141046D01*
X0250420Y0141197D01*
X0250426Y0141348D01*
X0250428Y0141500D01*
X0240828Y0136700D02*
X0240709Y0136792D01*
X0240592Y0136886D01*
X0240478Y0136984D01*
X0240366Y0137084D01*
X0240256Y0137188D01*
X0240150Y0137293D01*
X0240045Y0137402D01*
X0239944Y0137513D01*
X0239846Y0137627D01*
X0239750Y0137743D01*
X0239657Y0137861D01*
X0239568Y0137982D01*
X0239481Y0138105D01*
X0239398Y0138230D01*
X0239317Y0138357D01*
X0239240Y0138486D01*
X0239166Y0138617D01*
X0239095Y0138750D01*
X0239028Y0138884D01*
X0238964Y0139020D01*
X0238904Y0139158D01*
X0238847Y0139297D01*
X0238794Y0139438D01*
X0238744Y0139580D01*
X0238697Y0139723D01*
X0238655Y0139867D01*
X0238615Y0140012D01*
X0238580Y0140158D01*
X0238548Y0140305D01*
X0238520Y0140453D01*
X0238496Y0140601D01*
X0238475Y0140750D01*
X0238458Y0140900D01*
X0238445Y0141049D01*
X0238436Y0141199D01*
X0238430Y0141350D01*
X0238428Y0141500D01*
X0248111Y0146236D02*
X0248230Y0146142D01*
X0248346Y0146044D01*
X0248460Y0145944D01*
X0248571Y0145840D01*
X0248679Y0145734D01*
X0248785Y0145626D01*
X0248887Y0145514D01*
X0248987Y0145400D01*
X0249085Y0145284D01*
X0249179Y0145165D01*
X0249270Y0145044D01*
X0249358Y0144920D01*
X0249443Y0144794D01*
X0249524Y0144667D01*
X0249603Y0144537D01*
X0249678Y0144405D01*
X0249749Y0144272D01*
X0249818Y0144136D01*
X0249883Y0143999D01*
X0249944Y0143861D01*
X0250002Y0143720D01*
X0250056Y0143579D01*
X0250107Y0143436D01*
X0250154Y0143292D01*
X0250198Y0143147D01*
X0250237Y0143000D01*
X0250273Y0142853D01*
X0250306Y0142705D01*
X0250334Y0142556D01*
X0250359Y0142406D01*
X0250380Y0142256D01*
X0250397Y0142106D01*
X0250411Y0141954D01*
X0250420Y0141803D01*
X0250426Y0141652D01*
X0250428Y0141500D01*
D12*
X0240663Y0134441D02*
X0240495Y0134534D01*
X0240329Y0134630D01*
X0240165Y0134730D01*
X0240004Y0134835D01*
X0239845Y0134943D01*
X0239689Y0135055D01*
X0239535Y0135171D01*
X0239385Y0135290D01*
X0239237Y0135413D01*
X0239092Y0135539D01*
X0238951Y0135669D01*
X0238812Y0135802D01*
X0238677Y0135939D01*
X0238545Y0136079D01*
X0238417Y0136221D01*
X0238292Y0136367D01*
X0238170Y0136516D01*
X0238052Y0136668D01*
X0237938Y0136822D01*
X0237828Y0136980D01*
X0237721Y0137139D01*
X0237618Y0137302D01*
X0237519Y0137467D01*
X0237424Y0137634D01*
X0237334Y0137803D01*
X0237247Y0137974D01*
X0237164Y0138148D01*
X0237086Y0138323D01*
X0237012Y0138501D01*
X0236942Y0138680D01*
X0236876Y0138860D01*
X0236815Y0139042D01*
X0236758Y0139226D01*
X0236706Y0139411D01*
X0236658Y0139597D01*
X0236614Y0139784D01*
X0236575Y0139972D01*
X0236541Y0140161D01*
X0236511Y0140351D01*
X0236486Y0140541D01*
X0236465Y0140732D01*
X0236449Y0140924D01*
X0236437Y0141116D01*
X0236430Y0141308D01*
X0236428Y0141500D01*
X0248397Y0134554D02*
X0248566Y0134653D01*
X0248732Y0134757D01*
X0248896Y0134864D01*
X0249057Y0134975D01*
X0249215Y0135090D01*
X0249370Y0135209D01*
X0249523Y0135332D01*
X0249672Y0135458D01*
X0249818Y0135588D01*
X0249961Y0135722D01*
X0250101Y0135859D01*
X0250237Y0135999D01*
X0250370Y0136143D01*
X0250499Y0136290D01*
X0250625Y0136440D01*
X0250746Y0136593D01*
X0250865Y0136749D01*
X0250979Y0136908D01*
X0251089Y0137069D01*
X0251195Y0137234D01*
X0251298Y0137400D01*
X0251396Y0137570D01*
X0251490Y0137741D01*
X0251580Y0137915D01*
X0251665Y0138091D01*
X0251747Y0138269D01*
X0251823Y0138449D01*
X0251896Y0138631D01*
X0251964Y0138814D01*
X0252027Y0138999D01*
X0252086Y0139186D01*
X0252140Y0139374D01*
X0252190Y0139563D01*
X0252235Y0139753D01*
X0252275Y0139945D01*
X0252311Y0140137D01*
X0252342Y0140330D01*
X0252368Y0140524D01*
X0252390Y0140719D01*
X0252406Y0140914D01*
X0252418Y0141109D01*
X0252426Y0141305D01*
X0252428Y0141500D01*
X0252426Y0141693D01*
X0252419Y0141886D01*
X0252407Y0142078D01*
X0252391Y0142271D01*
X0252370Y0142463D01*
X0252344Y0142654D01*
X0252314Y0142844D01*
X0252279Y0143034D01*
X0252240Y0143223D01*
X0252196Y0143411D01*
X0252148Y0143598D01*
X0252095Y0143784D01*
X0252038Y0143968D01*
X0251976Y0144151D01*
X0251910Y0144332D01*
X0251839Y0144512D01*
X0251765Y0144690D01*
X0251686Y0144866D01*
X0251602Y0145040D01*
X0251515Y0145212D01*
X0251423Y0145382D01*
X0251327Y0145549D01*
X0251228Y0145715D01*
X0251124Y0145878D01*
X0251017Y0146038D01*
X0250905Y0146195D01*
X0250790Y0146350D01*
X0250671Y0146502D01*
X0250549Y0146651D01*
X0250423Y0146798D01*
X0250293Y0146941D01*
X0250160Y0147081D01*
X0250024Y0147217D01*
X0249884Y0147351D01*
X0249742Y0147480D01*
X0249596Y0147607D01*
X0239306Y0147646D02*
X0239158Y0147519D01*
X0239013Y0147389D01*
X0238872Y0147256D01*
X0238733Y0147119D01*
X0238598Y0146979D01*
X0238467Y0146835D01*
X0238339Y0146688D01*
X0238214Y0146539D01*
X0238093Y0146386D01*
X0237976Y0146231D01*
X0237863Y0146072D01*
X0237754Y0145911D01*
X0237649Y0145747D01*
X0237547Y0145581D01*
X0237450Y0145412D01*
X0237357Y0145242D01*
X0237268Y0145068D01*
X0237183Y0144893D01*
X0237103Y0144716D01*
X0237027Y0144537D01*
X0236955Y0144356D01*
X0236888Y0144173D01*
X0236825Y0143989D01*
X0236767Y0143803D01*
X0236713Y0143616D01*
X0236664Y0143428D01*
X0236619Y0143238D01*
X0236579Y0143048D01*
X0236544Y0142856D01*
X0236513Y0142664D01*
X0236487Y0142471D01*
X0236466Y0142277D01*
X0236449Y0142083D01*
X0236437Y0141889D01*
X0236430Y0141695D01*
X0236428Y0141500D01*
X0236428Y0121500D02*
X0236430Y0121308D01*
X0236437Y0121116D01*
X0236449Y0120924D01*
X0236465Y0120732D01*
X0236486Y0120541D01*
X0236511Y0120351D01*
X0236541Y0120161D01*
X0236575Y0119972D01*
X0236614Y0119784D01*
X0236658Y0119597D01*
X0236706Y0119411D01*
X0236758Y0119226D01*
X0236815Y0119042D01*
X0236876Y0118860D01*
X0236942Y0118680D01*
X0237012Y0118501D01*
X0237086Y0118323D01*
X0237164Y0118148D01*
X0237247Y0117974D01*
X0237334Y0117803D01*
X0237424Y0117634D01*
X0237519Y0117467D01*
X0237618Y0117302D01*
X0237721Y0117139D01*
X0237828Y0116980D01*
X0237938Y0116822D01*
X0238052Y0116668D01*
X0238170Y0116516D01*
X0238292Y0116367D01*
X0238417Y0116221D01*
X0238545Y0116079D01*
X0238677Y0115939D01*
X0238812Y0115802D01*
X0238951Y0115669D01*
X0239092Y0115539D01*
X0239237Y0115413D01*
X0239385Y0115290D01*
X0239535Y0115171D01*
X0239689Y0115055D01*
X0239845Y0114943D01*
X0240004Y0114835D01*
X0240165Y0114730D01*
X0240329Y0114630D01*
X0240495Y0114534D01*
X0240663Y0114441D01*
X0248397Y0114554D02*
X0248566Y0114653D01*
X0248732Y0114757D01*
X0248896Y0114864D01*
X0249057Y0114975D01*
X0249215Y0115090D01*
X0249370Y0115209D01*
X0249523Y0115332D01*
X0249672Y0115458D01*
X0249818Y0115588D01*
X0249961Y0115722D01*
X0250101Y0115859D01*
X0250237Y0115999D01*
X0250370Y0116143D01*
X0250499Y0116290D01*
X0250625Y0116440D01*
X0250746Y0116593D01*
X0250865Y0116749D01*
X0250979Y0116908D01*
X0251089Y0117069D01*
X0251195Y0117234D01*
X0251298Y0117400D01*
X0251396Y0117570D01*
X0251490Y0117741D01*
X0251580Y0117915D01*
X0251665Y0118091D01*
X0251747Y0118269D01*
X0251823Y0118449D01*
X0251896Y0118631D01*
X0251964Y0118814D01*
X0252027Y0118999D01*
X0252086Y0119186D01*
X0252140Y0119374D01*
X0252190Y0119563D01*
X0252235Y0119753D01*
X0252275Y0119945D01*
X0252311Y0120137D01*
X0252342Y0120330D01*
X0252368Y0120524D01*
X0252390Y0120719D01*
X0252406Y0120914D01*
X0252418Y0121109D01*
X0252426Y0121305D01*
X0252428Y0121500D01*
X0252426Y0121693D01*
X0252419Y0121886D01*
X0252407Y0122078D01*
X0252391Y0122271D01*
X0252370Y0122463D01*
X0252344Y0122654D01*
X0252314Y0122844D01*
X0252279Y0123034D01*
X0252240Y0123223D01*
X0252196Y0123411D01*
X0252148Y0123598D01*
X0252095Y0123784D01*
X0252038Y0123968D01*
X0251976Y0124151D01*
X0251910Y0124332D01*
X0251839Y0124512D01*
X0251765Y0124690D01*
X0251686Y0124866D01*
X0251602Y0125040D01*
X0251515Y0125212D01*
X0251423Y0125382D01*
X0251327Y0125549D01*
X0251228Y0125715D01*
X0251124Y0125878D01*
X0251017Y0126038D01*
X0250905Y0126195D01*
X0250790Y0126350D01*
X0250671Y0126502D01*
X0250549Y0126651D01*
X0250423Y0126798D01*
X0250293Y0126941D01*
X0250160Y0127081D01*
X0250024Y0127217D01*
X0249884Y0127351D01*
X0249742Y0127480D01*
X0249596Y0127607D01*
X0239306Y0127646D02*
X0239158Y0127519D01*
X0239013Y0127389D01*
X0238872Y0127256D01*
X0238733Y0127119D01*
X0238598Y0126979D01*
X0238467Y0126835D01*
X0238339Y0126688D01*
X0238214Y0126539D01*
X0238093Y0126386D01*
X0237976Y0126231D01*
X0237863Y0126072D01*
X0237754Y0125911D01*
X0237649Y0125747D01*
X0237547Y0125581D01*
X0237450Y0125412D01*
X0237357Y0125242D01*
X0237268Y0125068D01*
X0237183Y0124893D01*
X0237103Y0124716D01*
X0237027Y0124537D01*
X0236955Y0124356D01*
X0236888Y0124173D01*
X0236825Y0123989D01*
X0236767Y0123803D01*
X0236713Y0123616D01*
X0236664Y0123428D01*
X0236619Y0123238D01*
X0236579Y0123048D01*
X0236544Y0122856D01*
X0236513Y0122664D01*
X0236487Y0122471D01*
X0236466Y0122277D01*
X0236449Y0122083D01*
X0236437Y0121889D01*
X0236430Y0121695D01*
X0236428Y0121500D01*
X0278397Y0114554D02*
X0278566Y0114653D01*
X0278732Y0114757D01*
X0278896Y0114864D01*
X0279057Y0114975D01*
X0279215Y0115090D01*
X0279370Y0115209D01*
X0279523Y0115332D01*
X0279672Y0115458D01*
X0279818Y0115588D01*
X0279961Y0115722D01*
X0280101Y0115859D01*
X0280237Y0115999D01*
X0280370Y0116143D01*
X0280499Y0116290D01*
X0280625Y0116440D01*
X0280746Y0116593D01*
X0280865Y0116749D01*
X0280979Y0116908D01*
X0281089Y0117069D01*
X0281195Y0117234D01*
X0281298Y0117400D01*
X0281396Y0117570D01*
X0281490Y0117741D01*
X0281580Y0117915D01*
X0281665Y0118091D01*
X0281747Y0118269D01*
X0281823Y0118449D01*
X0281896Y0118631D01*
X0281964Y0118814D01*
X0282027Y0118999D01*
X0282086Y0119186D01*
X0282140Y0119374D01*
X0282190Y0119563D01*
X0282235Y0119753D01*
X0282275Y0119945D01*
X0282311Y0120137D01*
X0282342Y0120330D01*
X0282368Y0120524D01*
X0282390Y0120719D01*
X0282406Y0120914D01*
X0282418Y0121109D01*
X0282426Y0121305D01*
X0282428Y0121500D01*
X0270663Y0114441D02*
X0270495Y0114534D01*
X0270329Y0114630D01*
X0270165Y0114730D01*
X0270004Y0114835D01*
X0269845Y0114943D01*
X0269689Y0115055D01*
X0269535Y0115171D01*
X0269385Y0115290D01*
X0269237Y0115413D01*
X0269092Y0115539D01*
X0268951Y0115669D01*
X0268812Y0115802D01*
X0268677Y0115939D01*
X0268545Y0116079D01*
X0268417Y0116221D01*
X0268292Y0116367D01*
X0268170Y0116516D01*
X0268052Y0116668D01*
X0267938Y0116822D01*
X0267828Y0116980D01*
X0267721Y0117139D01*
X0267618Y0117302D01*
X0267519Y0117467D01*
X0267424Y0117634D01*
X0267334Y0117803D01*
X0267247Y0117974D01*
X0267164Y0118148D01*
X0267086Y0118323D01*
X0267012Y0118501D01*
X0266942Y0118680D01*
X0266876Y0118860D01*
X0266815Y0119042D01*
X0266758Y0119226D01*
X0266706Y0119411D01*
X0266658Y0119597D01*
X0266614Y0119784D01*
X0266575Y0119972D01*
X0266541Y0120161D01*
X0266511Y0120351D01*
X0266486Y0120541D01*
X0266465Y0120732D01*
X0266449Y0120924D01*
X0266437Y0121116D01*
X0266430Y0121308D01*
X0266428Y0121500D01*
X0279596Y0127607D02*
X0279742Y0127480D01*
X0279884Y0127351D01*
X0280024Y0127217D01*
X0280160Y0127081D01*
X0280293Y0126941D01*
X0280423Y0126798D01*
X0280549Y0126651D01*
X0280671Y0126502D01*
X0280790Y0126350D01*
X0280905Y0126195D01*
X0281017Y0126038D01*
X0281124Y0125878D01*
X0281228Y0125715D01*
X0281327Y0125549D01*
X0281423Y0125382D01*
X0281515Y0125212D01*
X0281602Y0125040D01*
X0281686Y0124866D01*
X0281765Y0124690D01*
X0281839Y0124512D01*
X0281910Y0124332D01*
X0281976Y0124151D01*
X0282038Y0123968D01*
X0282095Y0123784D01*
X0282148Y0123598D01*
X0282196Y0123411D01*
X0282240Y0123223D01*
X0282279Y0123034D01*
X0282314Y0122844D01*
X0282344Y0122654D01*
X0282370Y0122463D01*
X0282391Y0122271D01*
X0282407Y0122078D01*
X0282419Y0121886D01*
X0282426Y0121693D01*
X0282428Y0121500D01*
X0269306Y0127646D02*
X0269158Y0127519D01*
X0269013Y0127389D01*
X0268872Y0127256D01*
X0268733Y0127119D01*
X0268598Y0126979D01*
X0268467Y0126835D01*
X0268339Y0126688D01*
X0268214Y0126539D01*
X0268093Y0126386D01*
X0267976Y0126231D01*
X0267863Y0126072D01*
X0267754Y0125911D01*
X0267649Y0125747D01*
X0267547Y0125581D01*
X0267450Y0125412D01*
X0267357Y0125242D01*
X0267268Y0125068D01*
X0267183Y0124893D01*
X0267103Y0124716D01*
X0267027Y0124537D01*
X0266955Y0124356D01*
X0266888Y0124173D01*
X0266825Y0123989D01*
X0266767Y0123803D01*
X0266713Y0123616D01*
X0266664Y0123428D01*
X0266619Y0123238D01*
X0266579Y0123048D01*
X0266544Y0122856D01*
X0266513Y0122664D01*
X0266487Y0122471D01*
X0266466Y0122277D01*
X0266449Y0122083D01*
X0266437Y0121889D01*
X0266430Y0121695D01*
X0266428Y0121500D01*
X0278397Y0134554D02*
X0278566Y0134653D01*
X0278732Y0134757D01*
X0278896Y0134864D01*
X0279057Y0134975D01*
X0279215Y0135090D01*
X0279370Y0135209D01*
X0279523Y0135332D01*
X0279672Y0135458D01*
X0279818Y0135588D01*
X0279961Y0135722D01*
X0280101Y0135859D01*
X0280237Y0135999D01*
X0280370Y0136143D01*
X0280499Y0136290D01*
X0280625Y0136440D01*
X0280746Y0136593D01*
X0280865Y0136749D01*
X0280979Y0136908D01*
X0281089Y0137069D01*
X0281195Y0137234D01*
X0281298Y0137400D01*
X0281396Y0137570D01*
X0281490Y0137741D01*
X0281580Y0137915D01*
X0281665Y0138091D01*
X0281747Y0138269D01*
X0281823Y0138449D01*
X0281896Y0138631D01*
X0281964Y0138814D01*
X0282027Y0138999D01*
X0282086Y0139186D01*
X0282140Y0139374D01*
X0282190Y0139563D01*
X0282235Y0139753D01*
X0282275Y0139945D01*
X0282311Y0140137D01*
X0282342Y0140330D01*
X0282368Y0140524D01*
X0282390Y0140719D01*
X0282406Y0140914D01*
X0282418Y0141109D01*
X0282426Y0141305D01*
X0282428Y0141500D01*
X0270663Y0134441D02*
X0270495Y0134534D01*
X0270329Y0134630D01*
X0270165Y0134730D01*
X0270004Y0134835D01*
X0269845Y0134943D01*
X0269689Y0135055D01*
X0269535Y0135171D01*
X0269385Y0135290D01*
X0269237Y0135413D01*
X0269092Y0135539D01*
X0268951Y0135669D01*
X0268812Y0135802D01*
X0268677Y0135939D01*
X0268545Y0136079D01*
X0268417Y0136221D01*
X0268292Y0136367D01*
X0268170Y0136516D01*
X0268052Y0136668D01*
X0267938Y0136822D01*
X0267828Y0136980D01*
X0267721Y0137139D01*
X0267618Y0137302D01*
X0267519Y0137467D01*
X0267424Y0137634D01*
X0267334Y0137803D01*
X0267247Y0137974D01*
X0267164Y0138148D01*
X0267086Y0138323D01*
X0267012Y0138501D01*
X0266942Y0138680D01*
X0266876Y0138860D01*
X0266815Y0139042D01*
X0266758Y0139226D01*
X0266706Y0139411D01*
X0266658Y0139597D01*
X0266614Y0139784D01*
X0266575Y0139972D01*
X0266541Y0140161D01*
X0266511Y0140351D01*
X0266486Y0140541D01*
X0266465Y0140732D01*
X0266449Y0140924D01*
X0266437Y0141116D01*
X0266430Y0141308D01*
X0266428Y0141500D01*
X0279596Y0147607D02*
X0279742Y0147480D01*
X0279884Y0147351D01*
X0280024Y0147217D01*
X0280160Y0147081D01*
X0280293Y0146941D01*
X0280423Y0146798D01*
X0280549Y0146651D01*
X0280671Y0146502D01*
X0280790Y0146350D01*
X0280905Y0146195D01*
X0281017Y0146038D01*
X0281124Y0145878D01*
X0281228Y0145715D01*
X0281327Y0145549D01*
X0281423Y0145382D01*
X0281515Y0145212D01*
X0281602Y0145040D01*
X0281686Y0144866D01*
X0281765Y0144690D01*
X0281839Y0144512D01*
X0281910Y0144332D01*
X0281976Y0144151D01*
X0282038Y0143968D01*
X0282095Y0143784D01*
X0282148Y0143598D01*
X0282196Y0143411D01*
X0282240Y0143223D01*
X0282279Y0143034D01*
X0282314Y0142844D01*
X0282344Y0142654D01*
X0282370Y0142463D01*
X0282391Y0142271D01*
X0282407Y0142078D01*
X0282419Y0141886D01*
X0282426Y0141693D01*
X0282428Y0141500D01*
X0269306Y0147646D02*
X0269158Y0147519D01*
X0269013Y0147389D01*
X0268872Y0147256D01*
X0268733Y0147119D01*
X0268598Y0146979D01*
X0268467Y0146835D01*
X0268339Y0146688D01*
X0268214Y0146539D01*
X0268093Y0146386D01*
X0267976Y0146231D01*
X0267863Y0146072D01*
X0267754Y0145911D01*
X0267649Y0145747D01*
X0267547Y0145581D01*
X0267450Y0145412D01*
X0267357Y0145242D01*
X0267268Y0145068D01*
X0267183Y0144893D01*
X0267103Y0144716D01*
X0267027Y0144537D01*
X0266955Y0144356D01*
X0266888Y0144173D01*
X0266825Y0143989D01*
X0266767Y0143803D01*
X0266713Y0143616D01*
X0266664Y0143428D01*
X0266619Y0143238D01*
X0266579Y0143048D01*
X0266544Y0142856D01*
X0266513Y0142664D01*
X0266487Y0142471D01*
X0266466Y0142277D01*
X0266449Y0142083D01*
X0266437Y0141889D01*
X0266430Y0141695D01*
X0266428Y0141500D01*
X0308397Y0134554D02*
X0308566Y0134653D01*
X0308732Y0134757D01*
X0308896Y0134864D01*
X0309057Y0134975D01*
X0309215Y0135090D01*
X0309370Y0135209D01*
X0309523Y0135332D01*
X0309672Y0135458D01*
X0309818Y0135588D01*
X0309961Y0135722D01*
X0310101Y0135859D01*
X0310237Y0135999D01*
X0310370Y0136143D01*
X0310499Y0136290D01*
X0310625Y0136440D01*
X0310746Y0136593D01*
X0310865Y0136749D01*
X0310979Y0136908D01*
X0311089Y0137069D01*
X0311195Y0137234D01*
X0311298Y0137400D01*
X0311396Y0137570D01*
X0311490Y0137741D01*
X0311580Y0137915D01*
X0311665Y0138091D01*
X0311747Y0138269D01*
X0311823Y0138449D01*
X0311896Y0138631D01*
X0311964Y0138814D01*
X0312027Y0138999D01*
X0312086Y0139186D01*
X0312140Y0139374D01*
X0312190Y0139563D01*
X0312235Y0139753D01*
X0312275Y0139945D01*
X0312311Y0140137D01*
X0312342Y0140330D01*
X0312368Y0140524D01*
X0312390Y0140719D01*
X0312406Y0140914D01*
X0312418Y0141109D01*
X0312426Y0141305D01*
X0312428Y0141500D01*
X0300663Y0134441D02*
X0300495Y0134534D01*
X0300329Y0134630D01*
X0300165Y0134730D01*
X0300004Y0134835D01*
X0299845Y0134943D01*
X0299689Y0135055D01*
X0299535Y0135171D01*
X0299385Y0135290D01*
X0299237Y0135413D01*
X0299092Y0135539D01*
X0298951Y0135669D01*
X0298812Y0135802D01*
X0298677Y0135939D01*
X0298545Y0136079D01*
X0298417Y0136221D01*
X0298292Y0136367D01*
X0298170Y0136516D01*
X0298052Y0136668D01*
X0297938Y0136822D01*
X0297828Y0136980D01*
X0297721Y0137139D01*
X0297618Y0137302D01*
X0297519Y0137467D01*
X0297424Y0137634D01*
X0297334Y0137803D01*
X0297247Y0137974D01*
X0297164Y0138148D01*
X0297086Y0138323D01*
X0297012Y0138501D01*
X0296942Y0138680D01*
X0296876Y0138860D01*
X0296815Y0139042D01*
X0296758Y0139226D01*
X0296706Y0139411D01*
X0296658Y0139597D01*
X0296614Y0139784D01*
X0296575Y0139972D01*
X0296541Y0140161D01*
X0296511Y0140351D01*
X0296486Y0140541D01*
X0296465Y0140732D01*
X0296449Y0140924D01*
X0296437Y0141116D01*
X0296430Y0141308D01*
X0296428Y0141500D01*
X0309596Y0147607D02*
X0309742Y0147480D01*
X0309884Y0147351D01*
X0310024Y0147217D01*
X0310160Y0147081D01*
X0310293Y0146941D01*
X0310423Y0146798D01*
X0310549Y0146651D01*
X0310671Y0146502D01*
X0310790Y0146350D01*
X0310905Y0146195D01*
X0311017Y0146038D01*
X0311124Y0145878D01*
X0311228Y0145715D01*
X0311327Y0145549D01*
X0311423Y0145382D01*
X0311515Y0145212D01*
X0311602Y0145040D01*
X0311686Y0144866D01*
X0311765Y0144690D01*
X0311839Y0144512D01*
X0311910Y0144332D01*
X0311976Y0144151D01*
X0312038Y0143968D01*
X0312095Y0143784D01*
X0312148Y0143598D01*
X0312196Y0143411D01*
X0312240Y0143223D01*
X0312279Y0143034D01*
X0312314Y0142844D01*
X0312344Y0142654D01*
X0312370Y0142463D01*
X0312391Y0142271D01*
X0312407Y0142078D01*
X0312419Y0141886D01*
X0312426Y0141693D01*
X0312428Y0141500D01*
X0299306Y0147646D02*
X0299158Y0147519D01*
X0299013Y0147389D01*
X0298872Y0147256D01*
X0298733Y0147119D01*
X0298598Y0146979D01*
X0298467Y0146835D01*
X0298339Y0146688D01*
X0298214Y0146539D01*
X0298093Y0146386D01*
X0297976Y0146231D01*
X0297863Y0146072D01*
X0297754Y0145911D01*
X0297649Y0145747D01*
X0297547Y0145581D01*
X0297450Y0145412D01*
X0297357Y0145242D01*
X0297268Y0145068D01*
X0297183Y0144893D01*
X0297103Y0144716D01*
X0297027Y0144537D01*
X0296955Y0144356D01*
X0296888Y0144173D01*
X0296825Y0143989D01*
X0296767Y0143803D01*
X0296713Y0143616D01*
X0296664Y0143428D01*
X0296619Y0143238D01*
X0296579Y0143048D01*
X0296544Y0142856D01*
X0296513Y0142664D01*
X0296487Y0142471D01*
X0296466Y0142277D01*
X0296449Y0142083D01*
X0296437Y0141889D01*
X0296430Y0141695D01*
X0296428Y0141500D01*
X0296428Y0121500D02*
X0296430Y0121308D01*
X0296437Y0121116D01*
X0296449Y0120924D01*
X0296465Y0120732D01*
X0296486Y0120541D01*
X0296511Y0120351D01*
X0296541Y0120161D01*
X0296575Y0119972D01*
X0296614Y0119784D01*
X0296658Y0119597D01*
X0296706Y0119411D01*
X0296758Y0119226D01*
X0296815Y0119042D01*
X0296876Y0118860D01*
X0296942Y0118680D01*
X0297012Y0118501D01*
X0297086Y0118323D01*
X0297164Y0118148D01*
X0297247Y0117974D01*
X0297334Y0117803D01*
X0297424Y0117634D01*
X0297519Y0117467D01*
X0297618Y0117302D01*
X0297721Y0117139D01*
X0297828Y0116980D01*
X0297938Y0116822D01*
X0298052Y0116668D01*
X0298170Y0116516D01*
X0298292Y0116367D01*
X0298417Y0116221D01*
X0298545Y0116079D01*
X0298677Y0115939D01*
X0298812Y0115802D01*
X0298951Y0115669D01*
X0299092Y0115539D01*
X0299237Y0115413D01*
X0299385Y0115290D01*
X0299535Y0115171D01*
X0299689Y0115055D01*
X0299845Y0114943D01*
X0300004Y0114835D01*
X0300165Y0114730D01*
X0300329Y0114630D01*
X0300495Y0114534D01*
X0300663Y0114441D01*
X0308397Y0114554D02*
X0308566Y0114653D01*
X0308732Y0114757D01*
X0308896Y0114864D01*
X0309057Y0114975D01*
X0309215Y0115090D01*
X0309370Y0115209D01*
X0309523Y0115332D01*
X0309672Y0115458D01*
X0309818Y0115588D01*
X0309961Y0115722D01*
X0310101Y0115859D01*
X0310237Y0115999D01*
X0310370Y0116143D01*
X0310499Y0116290D01*
X0310625Y0116440D01*
X0310746Y0116593D01*
X0310865Y0116749D01*
X0310979Y0116908D01*
X0311089Y0117069D01*
X0311195Y0117234D01*
X0311298Y0117400D01*
X0311396Y0117570D01*
X0311490Y0117741D01*
X0311580Y0117915D01*
X0311665Y0118091D01*
X0311747Y0118269D01*
X0311823Y0118449D01*
X0311896Y0118631D01*
X0311964Y0118814D01*
X0312027Y0118999D01*
X0312086Y0119186D01*
X0312140Y0119374D01*
X0312190Y0119563D01*
X0312235Y0119753D01*
X0312275Y0119945D01*
X0312311Y0120137D01*
X0312342Y0120330D01*
X0312368Y0120524D01*
X0312390Y0120719D01*
X0312406Y0120914D01*
X0312418Y0121109D01*
X0312426Y0121305D01*
X0312428Y0121500D01*
X0312426Y0121693D01*
X0312419Y0121886D01*
X0312407Y0122078D01*
X0312391Y0122271D01*
X0312370Y0122463D01*
X0312344Y0122654D01*
X0312314Y0122844D01*
X0312279Y0123034D01*
X0312240Y0123223D01*
X0312196Y0123411D01*
X0312148Y0123598D01*
X0312095Y0123784D01*
X0312038Y0123968D01*
X0311976Y0124151D01*
X0311910Y0124332D01*
X0311839Y0124512D01*
X0311765Y0124690D01*
X0311686Y0124866D01*
X0311602Y0125040D01*
X0311515Y0125212D01*
X0311423Y0125382D01*
X0311327Y0125549D01*
X0311228Y0125715D01*
X0311124Y0125878D01*
X0311017Y0126038D01*
X0310905Y0126195D01*
X0310790Y0126350D01*
X0310671Y0126502D01*
X0310549Y0126651D01*
X0310423Y0126798D01*
X0310293Y0126941D01*
X0310160Y0127081D01*
X0310024Y0127217D01*
X0309884Y0127351D01*
X0309742Y0127480D01*
X0309596Y0127607D01*
X0299306Y0127646D02*
X0299158Y0127519D01*
X0299013Y0127389D01*
X0298872Y0127256D01*
X0298733Y0127119D01*
X0298598Y0126979D01*
X0298467Y0126835D01*
X0298339Y0126688D01*
X0298214Y0126539D01*
X0298093Y0126386D01*
X0297976Y0126231D01*
X0297863Y0126072D01*
X0297754Y0125911D01*
X0297649Y0125747D01*
X0297547Y0125581D01*
X0297450Y0125412D01*
X0297357Y0125242D01*
X0297268Y0125068D01*
X0297183Y0124893D01*
X0297103Y0124716D01*
X0297027Y0124537D01*
X0296955Y0124356D01*
X0296888Y0124173D01*
X0296825Y0123989D01*
X0296767Y0123803D01*
X0296713Y0123616D01*
X0296664Y0123428D01*
X0296619Y0123238D01*
X0296579Y0123048D01*
X0296544Y0122856D01*
X0296513Y0122664D01*
X0296487Y0122471D01*
X0296466Y0122277D01*
X0296449Y0122083D01*
X0296437Y0121889D01*
X0296430Y0121695D01*
X0296428Y0121500D01*
X0186375Y0200469D02*
X0186276Y0200638D01*
X0186172Y0200804D01*
X0186065Y0200968D01*
X0185954Y0201129D01*
X0185839Y0201287D01*
X0185720Y0201442D01*
X0185597Y0201595D01*
X0185471Y0201744D01*
X0185341Y0201890D01*
X0185207Y0202033D01*
X0185070Y0202173D01*
X0184930Y0202309D01*
X0184786Y0202442D01*
X0184639Y0202571D01*
X0184489Y0202697D01*
X0184336Y0202818D01*
X0184180Y0202937D01*
X0184021Y0203051D01*
X0183860Y0203161D01*
X0183695Y0203267D01*
X0183529Y0203370D01*
X0183359Y0203468D01*
X0183188Y0203562D01*
X0183014Y0203652D01*
X0182838Y0203737D01*
X0182660Y0203819D01*
X0182480Y0203895D01*
X0182298Y0203968D01*
X0182115Y0204036D01*
X0181930Y0204099D01*
X0181743Y0204158D01*
X0181555Y0204212D01*
X0181366Y0204262D01*
X0181176Y0204307D01*
X0180984Y0204347D01*
X0180792Y0204383D01*
X0180599Y0204414D01*
X0180405Y0204440D01*
X0180210Y0204462D01*
X0180015Y0204478D01*
X0179820Y0204490D01*
X0179624Y0204498D01*
X0179429Y0204500D01*
X0186487Y0192735D02*
X0186394Y0192567D01*
X0186298Y0192401D01*
X0186198Y0192237D01*
X0186093Y0192076D01*
X0185985Y0191917D01*
X0185873Y0191761D01*
X0185757Y0191607D01*
X0185638Y0191457D01*
X0185515Y0191309D01*
X0185389Y0191164D01*
X0185259Y0191023D01*
X0185126Y0190884D01*
X0184989Y0190749D01*
X0184849Y0190617D01*
X0184707Y0190489D01*
X0184561Y0190364D01*
X0184412Y0190242D01*
X0184260Y0190124D01*
X0184106Y0190010D01*
X0183948Y0189900D01*
X0183789Y0189793D01*
X0183626Y0189690D01*
X0183461Y0189591D01*
X0183294Y0189496D01*
X0183125Y0189406D01*
X0182954Y0189319D01*
X0182780Y0189236D01*
X0182605Y0189158D01*
X0182427Y0189084D01*
X0182248Y0189014D01*
X0182068Y0188948D01*
X0181886Y0188887D01*
X0181702Y0188830D01*
X0181517Y0188778D01*
X0181331Y0188730D01*
X0181144Y0188686D01*
X0180956Y0188647D01*
X0180767Y0188613D01*
X0180577Y0188583D01*
X0180387Y0188558D01*
X0180196Y0188537D01*
X0180004Y0188521D01*
X0179812Y0188509D01*
X0179620Y0188502D01*
X0179428Y0188500D01*
X0173321Y0201668D02*
X0173448Y0201814D01*
X0173577Y0201956D01*
X0173711Y0202096D01*
X0173847Y0202232D01*
X0173987Y0202365D01*
X0174130Y0202495D01*
X0174277Y0202621D01*
X0174426Y0202743D01*
X0174578Y0202862D01*
X0174733Y0202977D01*
X0174890Y0203089D01*
X0175050Y0203196D01*
X0175213Y0203300D01*
X0175379Y0203399D01*
X0175546Y0203495D01*
X0175716Y0203587D01*
X0175888Y0203674D01*
X0176062Y0203758D01*
X0176238Y0203837D01*
X0176416Y0203911D01*
X0176596Y0203982D01*
X0176777Y0204048D01*
X0176960Y0204110D01*
X0177144Y0204167D01*
X0177330Y0204220D01*
X0177517Y0204268D01*
X0177705Y0204312D01*
X0177894Y0204351D01*
X0178084Y0204386D01*
X0178274Y0204416D01*
X0178465Y0204442D01*
X0178657Y0204463D01*
X0178850Y0204479D01*
X0179042Y0204491D01*
X0179235Y0204498D01*
X0179428Y0204500D01*
X0173282Y0191378D02*
X0173409Y0191230D01*
X0173539Y0191085D01*
X0173672Y0190944D01*
X0173809Y0190805D01*
X0173949Y0190670D01*
X0174093Y0190539D01*
X0174240Y0190411D01*
X0174389Y0190286D01*
X0174542Y0190165D01*
X0174697Y0190048D01*
X0174856Y0189935D01*
X0175017Y0189826D01*
X0175181Y0189721D01*
X0175347Y0189619D01*
X0175516Y0189522D01*
X0175686Y0189429D01*
X0175860Y0189340D01*
X0176035Y0189255D01*
X0176212Y0189175D01*
X0176391Y0189099D01*
X0176572Y0189027D01*
X0176755Y0188960D01*
X0176939Y0188897D01*
X0177125Y0188839D01*
X0177312Y0188785D01*
X0177500Y0188736D01*
X0177690Y0188691D01*
X0177880Y0188651D01*
X0178072Y0188616D01*
X0178264Y0188585D01*
X0178457Y0188559D01*
X0178651Y0188538D01*
X0178845Y0188521D01*
X0179039Y0188509D01*
X0179233Y0188502D01*
X0179428Y0188500D01*
X0155428Y0203500D02*
X0155428Y0206500D01*
X0155428Y0209500D01*
X0153428Y0209500D02*
X0153428Y0206500D01*
X0153428Y0203500D01*
X0082428Y0087500D02*
X0079428Y0087500D01*
X0076428Y0087500D01*
X0076428Y0085500D02*
X0079428Y0085500D01*
X0082428Y0085500D01*
X0057428Y0082500D02*
X0054428Y0082500D01*
X0051428Y0082500D01*
X0051428Y0080500D02*
X0054428Y0080500D01*
X0057428Y0080500D01*
X0106428Y0052500D02*
X0109428Y0052500D01*
X0112428Y0052500D01*
X0112428Y0050500D02*
X0109428Y0050500D01*
X0106428Y0050500D01*
X0123428Y0036500D02*
X0129428Y0036500D01*
X0129428Y0041500D01*
X0139428Y0036500D01*
X0139428Y0041500D01*
X0144428Y0041500D01*
X0145428Y0036500D02*
X0139428Y0036500D01*
X0139428Y0031500D01*
X0134428Y0031500D01*
X0129428Y0031500D02*
X0129428Y0036500D01*
X0129428Y0031500D02*
X0139428Y0036500D01*
D13*
X0253196Y0057843D02*
X0253281Y0058054D01*
X0253361Y0058267D01*
X0253436Y0058482D01*
X0253505Y0058698D01*
X0253570Y0058916D01*
X0253629Y0059136D01*
X0253683Y0059357D01*
X0253732Y0059579D01*
X0253775Y0059803D01*
X0253813Y0060027D01*
X0253846Y0060252D01*
X0253873Y0060478D01*
X0253895Y0060705D01*
X0253911Y0060932D01*
X0253922Y0061159D01*
X0253927Y0061386D01*
X0253927Y0061614D01*
X0253922Y0061841D01*
X0253911Y0062068D01*
X0253895Y0062295D01*
X0253873Y0062522D01*
X0253846Y0062748D01*
X0253813Y0062973D01*
X0253775Y0063197D01*
X0253732Y0063421D01*
X0253683Y0063643D01*
X0253629Y0063864D01*
X0253570Y0064084D01*
X0253505Y0064302D01*
X0253436Y0064518D01*
X0253361Y0064733D01*
X0253281Y0064946D01*
X0253196Y0065157D01*
X0248086Y0070268D02*
X0247872Y0070354D01*
X0247655Y0070435D01*
X0247437Y0070511D01*
X0247216Y0070582D01*
X0246994Y0070647D01*
X0246771Y0070707D01*
X0246546Y0070761D01*
X0246320Y0070810D01*
X0246093Y0070853D01*
X0245865Y0070891D01*
X0245636Y0070923D01*
X0245406Y0070950D01*
X0245176Y0070971D01*
X0244945Y0070986D01*
X0244714Y0070996D01*
X0244483Y0071000D01*
X0244252Y0070998D01*
X0244021Y0070991D01*
X0243790Y0070978D01*
X0243559Y0070960D01*
X0243329Y0070936D01*
X0243100Y0070907D01*
X0242871Y0070871D01*
X0242644Y0070831D01*
X0242417Y0070785D01*
X0242192Y0070733D01*
X0241968Y0070676D01*
X0241745Y0070613D01*
X0241524Y0070545D01*
X0241305Y0070472D01*
X0241087Y0070393D01*
X0240872Y0070309D01*
X0240659Y0070220D01*
X0240448Y0070125D01*
X0240239Y0070026D01*
X0240033Y0069921D01*
X0239829Y0069812D01*
X0239628Y0069698D01*
X0239430Y0069578D01*
X0239235Y0069454D01*
X0239043Y0069325D01*
X0238854Y0069192D01*
X0238668Y0069054D01*
X0238486Y0068912D01*
X0238307Y0068765D01*
X0238132Y0068614D01*
X0237961Y0068458D01*
X0237794Y0068299D01*
X0237630Y0068135D01*
X0237471Y0067968D01*
X0237315Y0067797D01*
X0237164Y0067622D01*
X0237017Y0067443D01*
X0236875Y0067261D01*
X0236737Y0067075D01*
X0236604Y0066886D01*
X0236475Y0066694D01*
X0236351Y0066499D01*
X0236231Y0066301D01*
X0236117Y0066100D01*
X0236008Y0065896D01*
X0235903Y0065690D01*
X0235804Y0065481D01*
X0235709Y0065270D01*
X0235620Y0065057D01*
X0235536Y0064842D01*
X0235457Y0064624D01*
X0235384Y0064405D01*
X0235316Y0064184D01*
X0235253Y0063961D01*
X0235196Y0063737D01*
X0235144Y0063512D01*
X0235098Y0063285D01*
X0235058Y0063058D01*
X0235022Y0062829D01*
X0234993Y0062600D01*
X0234969Y0062370D01*
X0234951Y0062139D01*
X0234938Y0061908D01*
X0234931Y0061677D01*
X0234929Y0061446D01*
X0234933Y0061215D01*
X0234943Y0060984D01*
X0234958Y0060753D01*
X0234979Y0060523D01*
X0235006Y0060293D01*
X0235038Y0060064D01*
X0235076Y0059836D01*
X0235119Y0059609D01*
X0235168Y0059383D01*
X0235222Y0059158D01*
X0235282Y0058935D01*
X0235347Y0058713D01*
X0235418Y0058492D01*
X0235494Y0058274D01*
X0235575Y0058057D01*
X0235661Y0057843D01*
X0240771Y0052732D02*
X0240982Y0052647D01*
X0241195Y0052567D01*
X0241410Y0052492D01*
X0241626Y0052423D01*
X0241844Y0052358D01*
X0242064Y0052299D01*
X0242285Y0052245D01*
X0242507Y0052196D01*
X0242731Y0052153D01*
X0242955Y0052115D01*
X0243180Y0052082D01*
X0243406Y0052055D01*
X0243633Y0052033D01*
X0243860Y0052017D01*
X0244087Y0052006D01*
X0244314Y0052001D01*
X0244542Y0052001D01*
X0244769Y0052006D01*
X0244996Y0052017D01*
X0245223Y0052033D01*
X0245450Y0052055D01*
X0245676Y0052082D01*
X0245901Y0052115D01*
X0246125Y0052153D01*
X0246349Y0052196D01*
X0246571Y0052245D01*
X0246792Y0052299D01*
X0247012Y0052358D01*
X0247230Y0052423D01*
X0247446Y0052492D01*
X0247661Y0052567D01*
X0247874Y0052647D01*
X0248085Y0052732D01*
X0283196Y0057843D02*
X0283281Y0058054D01*
X0283361Y0058267D01*
X0283436Y0058482D01*
X0283505Y0058698D01*
X0283570Y0058916D01*
X0283629Y0059136D01*
X0283683Y0059357D01*
X0283732Y0059579D01*
X0283775Y0059803D01*
X0283813Y0060027D01*
X0283846Y0060252D01*
X0283873Y0060478D01*
X0283895Y0060705D01*
X0283911Y0060932D01*
X0283922Y0061159D01*
X0283927Y0061386D01*
X0283927Y0061614D01*
X0283922Y0061841D01*
X0283911Y0062068D01*
X0283895Y0062295D01*
X0283873Y0062522D01*
X0283846Y0062748D01*
X0283813Y0062973D01*
X0283775Y0063197D01*
X0283732Y0063421D01*
X0283683Y0063643D01*
X0283629Y0063864D01*
X0283570Y0064084D01*
X0283505Y0064302D01*
X0283436Y0064518D01*
X0283361Y0064733D01*
X0283281Y0064946D01*
X0283196Y0065157D01*
X0278086Y0070268D02*
X0277872Y0070354D01*
X0277655Y0070435D01*
X0277437Y0070511D01*
X0277216Y0070582D01*
X0276994Y0070647D01*
X0276771Y0070707D01*
X0276546Y0070761D01*
X0276320Y0070810D01*
X0276093Y0070853D01*
X0275865Y0070891D01*
X0275636Y0070923D01*
X0275406Y0070950D01*
X0275176Y0070971D01*
X0274945Y0070986D01*
X0274714Y0070996D01*
X0274483Y0071000D01*
X0274252Y0070998D01*
X0274021Y0070991D01*
X0273790Y0070978D01*
X0273559Y0070960D01*
X0273329Y0070936D01*
X0273100Y0070907D01*
X0272871Y0070871D01*
X0272644Y0070831D01*
X0272417Y0070785D01*
X0272192Y0070733D01*
X0271968Y0070676D01*
X0271745Y0070613D01*
X0271524Y0070545D01*
X0271305Y0070472D01*
X0271087Y0070393D01*
X0270872Y0070309D01*
X0270659Y0070220D01*
X0270448Y0070125D01*
X0270239Y0070026D01*
X0270033Y0069921D01*
X0269829Y0069812D01*
X0269628Y0069698D01*
X0269430Y0069578D01*
X0269235Y0069454D01*
X0269043Y0069325D01*
X0268854Y0069192D01*
X0268668Y0069054D01*
X0268486Y0068912D01*
X0268307Y0068765D01*
X0268132Y0068614D01*
X0267961Y0068458D01*
X0267794Y0068299D01*
X0267630Y0068135D01*
X0267471Y0067968D01*
X0267315Y0067797D01*
X0267164Y0067622D01*
X0267017Y0067443D01*
X0266875Y0067261D01*
X0266737Y0067075D01*
X0266604Y0066886D01*
X0266475Y0066694D01*
X0266351Y0066499D01*
X0266231Y0066301D01*
X0266117Y0066100D01*
X0266008Y0065896D01*
X0265903Y0065690D01*
X0265804Y0065481D01*
X0265709Y0065270D01*
X0265620Y0065057D01*
X0265536Y0064842D01*
X0265457Y0064624D01*
X0265384Y0064405D01*
X0265316Y0064184D01*
X0265253Y0063961D01*
X0265196Y0063737D01*
X0265144Y0063512D01*
X0265098Y0063285D01*
X0265058Y0063058D01*
X0265022Y0062829D01*
X0264993Y0062600D01*
X0264969Y0062370D01*
X0264951Y0062139D01*
X0264938Y0061908D01*
X0264931Y0061677D01*
X0264929Y0061446D01*
X0264933Y0061215D01*
X0264943Y0060984D01*
X0264958Y0060753D01*
X0264979Y0060523D01*
X0265006Y0060293D01*
X0265038Y0060064D01*
X0265076Y0059836D01*
X0265119Y0059609D01*
X0265168Y0059383D01*
X0265222Y0059158D01*
X0265282Y0058935D01*
X0265347Y0058713D01*
X0265418Y0058492D01*
X0265494Y0058274D01*
X0265575Y0058057D01*
X0265661Y0057843D01*
X0270771Y0052732D02*
X0270982Y0052647D01*
X0271195Y0052567D01*
X0271410Y0052492D01*
X0271626Y0052423D01*
X0271844Y0052358D01*
X0272064Y0052299D01*
X0272285Y0052245D01*
X0272507Y0052196D01*
X0272731Y0052153D01*
X0272955Y0052115D01*
X0273180Y0052082D01*
X0273406Y0052055D01*
X0273633Y0052033D01*
X0273860Y0052017D01*
X0274087Y0052006D01*
X0274314Y0052001D01*
X0274542Y0052001D01*
X0274769Y0052006D01*
X0274996Y0052017D01*
X0275223Y0052033D01*
X0275450Y0052055D01*
X0275676Y0052082D01*
X0275901Y0052115D01*
X0276125Y0052153D01*
X0276349Y0052196D01*
X0276571Y0052245D01*
X0276792Y0052299D01*
X0277012Y0052358D01*
X0277230Y0052423D01*
X0277446Y0052492D01*
X0277661Y0052567D01*
X0277874Y0052647D01*
X0278085Y0052732D01*
X0313196Y0057843D02*
X0313281Y0058054D01*
X0313361Y0058267D01*
X0313436Y0058482D01*
X0313505Y0058698D01*
X0313570Y0058916D01*
X0313629Y0059136D01*
X0313683Y0059357D01*
X0313732Y0059579D01*
X0313775Y0059803D01*
X0313813Y0060027D01*
X0313846Y0060252D01*
X0313873Y0060478D01*
X0313895Y0060705D01*
X0313911Y0060932D01*
X0313922Y0061159D01*
X0313927Y0061386D01*
X0313927Y0061614D01*
X0313922Y0061841D01*
X0313911Y0062068D01*
X0313895Y0062295D01*
X0313873Y0062522D01*
X0313846Y0062748D01*
X0313813Y0062973D01*
X0313775Y0063197D01*
X0313732Y0063421D01*
X0313683Y0063643D01*
X0313629Y0063864D01*
X0313570Y0064084D01*
X0313505Y0064302D01*
X0313436Y0064518D01*
X0313361Y0064733D01*
X0313281Y0064946D01*
X0313196Y0065157D01*
X0308086Y0070268D02*
X0307872Y0070354D01*
X0307655Y0070435D01*
X0307437Y0070511D01*
X0307216Y0070582D01*
X0306994Y0070647D01*
X0306771Y0070707D01*
X0306546Y0070761D01*
X0306320Y0070810D01*
X0306093Y0070853D01*
X0305865Y0070891D01*
X0305636Y0070923D01*
X0305406Y0070950D01*
X0305176Y0070971D01*
X0304945Y0070986D01*
X0304714Y0070996D01*
X0304483Y0071000D01*
X0304252Y0070998D01*
X0304021Y0070991D01*
X0303790Y0070978D01*
X0303559Y0070960D01*
X0303329Y0070936D01*
X0303100Y0070907D01*
X0302871Y0070871D01*
X0302644Y0070831D01*
X0302417Y0070785D01*
X0302192Y0070733D01*
X0301968Y0070676D01*
X0301745Y0070613D01*
X0301524Y0070545D01*
X0301305Y0070472D01*
X0301087Y0070393D01*
X0300872Y0070309D01*
X0300659Y0070220D01*
X0300448Y0070125D01*
X0300239Y0070026D01*
X0300033Y0069921D01*
X0299829Y0069812D01*
X0299628Y0069698D01*
X0299430Y0069578D01*
X0299235Y0069454D01*
X0299043Y0069325D01*
X0298854Y0069192D01*
X0298668Y0069054D01*
X0298486Y0068912D01*
X0298307Y0068765D01*
X0298132Y0068614D01*
X0297961Y0068458D01*
X0297794Y0068299D01*
X0297630Y0068135D01*
X0297471Y0067968D01*
X0297315Y0067797D01*
X0297164Y0067622D01*
X0297017Y0067443D01*
X0296875Y0067261D01*
X0296737Y0067075D01*
X0296604Y0066886D01*
X0296475Y0066694D01*
X0296351Y0066499D01*
X0296231Y0066301D01*
X0296117Y0066100D01*
X0296008Y0065896D01*
X0295903Y0065690D01*
X0295804Y0065481D01*
X0295709Y0065270D01*
X0295620Y0065057D01*
X0295536Y0064842D01*
X0295457Y0064624D01*
X0295384Y0064405D01*
X0295316Y0064184D01*
X0295253Y0063961D01*
X0295196Y0063737D01*
X0295144Y0063512D01*
X0295098Y0063285D01*
X0295058Y0063058D01*
X0295022Y0062829D01*
X0294993Y0062600D01*
X0294969Y0062370D01*
X0294951Y0062139D01*
X0294938Y0061908D01*
X0294931Y0061677D01*
X0294929Y0061446D01*
X0294933Y0061215D01*
X0294943Y0060984D01*
X0294958Y0060753D01*
X0294979Y0060523D01*
X0295006Y0060293D01*
X0295038Y0060064D01*
X0295076Y0059836D01*
X0295119Y0059609D01*
X0295168Y0059383D01*
X0295222Y0059158D01*
X0295282Y0058935D01*
X0295347Y0058713D01*
X0295418Y0058492D01*
X0295494Y0058274D01*
X0295575Y0058057D01*
X0295661Y0057843D01*
X0300771Y0052732D02*
X0300982Y0052647D01*
X0301195Y0052567D01*
X0301410Y0052492D01*
X0301626Y0052423D01*
X0301844Y0052358D01*
X0302064Y0052299D01*
X0302285Y0052245D01*
X0302507Y0052196D01*
X0302731Y0052153D01*
X0302955Y0052115D01*
X0303180Y0052082D01*
X0303406Y0052055D01*
X0303633Y0052033D01*
X0303860Y0052017D01*
X0304087Y0052006D01*
X0304314Y0052001D01*
X0304542Y0052001D01*
X0304769Y0052006D01*
X0304996Y0052017D01*
X0305223Y0052033D01*
X0305450Y0052055D01*
X0305676Y0052082D01*
X0305901Y0052115D01*
X0306125Y0052153D01*
X0306349Y0052196D01*
X0306571Y0052245D01*
X0306792Y0052299D01*
X0307012Y0052358D01*
X0307230Y0052423D01*
X0307446Y0052492D01*
X0307661Y0052567D01*
X0307874Y0052647D01*
X0308085Y0052732D01*
X0111928Y0188500D02*
X0079428Y0188500D01*
X0079428Y0224500D01*
X0111928Y0224500D01*
X0111928Y0188500D01*
X0082428Y0151500D02*
X0046428Y0151500D01*
X0046428Y0119000D01*
X0082428Y0119000D01*
X0082428Y0151500D01*
D14*
X0074428Y0104250D03*
X0064428Y0104250D03*
X0054428Y0104250D03*
D15*
X0054428Y0111000D03*
X0064428Y0111000D03*
X0074428Y0111000D03*
D16*
X0057499Y0061854D02*
X0057499Y0005555D01*
X0091358Y0005555D01*
X0091358Y0036854D01*
X0091358Y0055555D02*
X0091358Y0061854D01*
X0085058Y0061854D01*
X0063799Y0061854D02*
X0057499Y0061854D01*
D17*
X0228928Y0063500D02*
X0228928Y0059500D01*
X0233104Y0059500D01*
X0233104Y0063500D02*
X0228928Y0063500D01*
X0232928Y0061500D02*
X0232931Y0061782D01*
X0232942Y0062064D01*
X0232959Y0062346D01*
X0232983Y0062627D01*
X0233014Y0062908D01*
X0233052Y0063187D01*
X0233097Y0063466D01*
X0233149Y0063744D01*
X0233207Y0064020D01*
X0233273Y0064294D01*
X0233345Y0064567D01*
X0233423Y0064838D01*
X0233508Y0065107D01*
X0233600Y0065374D01*
X0233699Y0065639D01*
X0233803Y0065901D01*
X0233915Y0066160D01*
X0234032Y0066417D01*
X0234156Y0066671D01*
X0234286Y0066921D01*
X0234422Y0067168D01*
X0234564Y0067412D01*
X0234712Y0067652D01*
X0234866Y0067889D01*
X0235026Y0068122D01*
X0235191Y0068351D01*
X0235362Y0068575D01*
X0235538Y0068796D01*
X0235720Y0069011D01*
X0235907Y0069223D01*
X0236099Y0069430D01*
X0236296Y0069632D01*
X0236498Y0069829D01*
X0236705Y0070021D01*
X0236917Y0070208D01*
X0237132Y0070390D01*
X0237353Y0070566D01*
X0237577Y0070737D01*
X0237806Y0070902D01*
X0238039Y0071062D01*
X0238276Y0071216D01*
X0238516Y0071364D01*
X0238760Y0071506D01*
X0239007Y0071642D01*
X0239257Y0071772D01*
X0239511Y0071896D01*
X0239768Y0072013D01*
X0240027Y0072125D01*
X0240289Y0072229D01*
X0240554Y0072328D01*
X0240821Y0072420D01*
X0241090Y0072505D01*
X0241361Y0072583D01*
X0241634Y0072655D01*
X0241908Y0072721D01*
X0242184Y0072779D01*
X0242462Y0072831D01*
X0242741Y0072876D01*
X0243020Y0072914D01*
X0243301Y0072945D01*
X0243582Y0072969D01*
X0243864Y0072986D01*
X0244146Y0072997D01*
X0244428Y0073000D01*
X0244710Y0072997D01*
X0244992Y0072986D01*
X0245274Y0072969D01*
X0245555Y0072945D01*
X0245836Y0072914D01*
X0246115Y0072876D01*
X0246394Y0072831D01*
X0246672Y0072779D01*
X0246948Y0072721D01*
X0247222Y0072655D01*
X0247495Y0072583D01*
X0247766Y0072505D01*
X0248035Y0072420D01*
X0248302Y0072328D01*
X0248567Y0072229D01*
X0248829Y0072125D01*
X0249088Y0072013D01*
X0249345Y0071896D01*
X0249599Y0071772D01*
X0249849Y0071642D01*
X0250096Y0071506D01*
X0250340Y0071364D01*
X0250580Y0071216D01*
X0250817Y0071062D01*
X0251050Y0070902D01*
X0251279Y0070737D01*
X0251503Y0070566D01*
X0251724Y0070390D01*
X0251939Y0070208D01*
X0252151Y0070021D01*
X0252358Y0069829D01*
X0252560Y0069632D01*
X0252757Y0069430D01*
X0252949Y0069223D01*
X0253136Y0069011D01*
X0253318Y0068796D01*
X0253494Y0068575D01*
X0253665Y0068351D01*
X0253830Y0068122D01*
X0253990Y0067889D01*
X0254144Y0067652D01*
X0254292Y0067412D01*
X0254434Y0067168D01*
X0254570Y0066921D01*
X0254700Y0066671D01*
X0254824Y0066417D01*
X0254941Y0066160D01*
X0255053Y0065901D01*
X0255157Y0065639D01*
X0255256Y0065374D01*
X0255348Y0065107D01*
X0255433Y0064838D01*
X0255511Y0064567D01*
X0255583Y0064294D01*
X0255649Y0064020D01*
X0255707Y0063744D01*
X0255759Y0063466D01*
X0255804Y0063187D01*
X0255842Y0062908D01*
X0255873Y0062627D01*
X0255897Y0062346D01*
X0255914Y0062064D01*
X0255925Y0061782D01*
X0255928Y0061500D01*
X0255925Y0061218D01*
X0255914Y0060936D01*
X0255897Y0060654D01*
X0255873Y0060373D01*
X0255842Y0060092D01*
X0255804Y0059813D01*
X0255759Y0059534D01*
X0255707Y0059256D01*
X0255649Y0058980D01*
X0255583Y0058706D01*
X0255511Y0058433D01*
X0255433Y0058162D01*
X0255348Y0057893D01*
X0255256Y0057626D01*
X0255157Y0057361D01*
X0255053Y0057099D01*
X0254941Y0056840D01*
X0254824Y0056583D01*
X0254700Y0056329D01*
X0254570Y0056079D01*
X0254434Y0055832D01*
X0254292Y0055588D01*
X0254144Y0055348D01*
X0253990Y0055111D01*
X0253830Y0054878D01*
X0253665Y0054649D01*
X0253494Y0054425D01*
X0253318Y0054204D01*
X0253136Y0053989D01*
X0252949Y0053777D01*
X0252757Y0053570D01*
X0252560Y0053368D01*
X0252358Y0053171D01*
X0252151Y0052979D01*
X0251939Y0052792D01*
X0251724Y0052610D01*
X0251503Y0052434D01*
X0251279Y0052263D01*
X0251050Y0052098D01*
X0250817Y0051938D01*
X0250580Y0051784D01*
X0250340Y0051636D01*
X0250096Y0051494D01*
X0249849Y0051358D01*
X0249599Y0051228D01*
X0249345Y0051104D01*
X0249088Y0050987D01*
X0248829Y0050875D01*
X0248567Y0050771D01*
X0248302Y0050672D01*
X0248035Y0050580D01*
X0247766Y0050495D01*
X0247495Y0050417D01*
X0247222Y0050345D01*
X0246948Y0050279D01*
X0246672Y0050221D01*
X0246394Y0050169D01*
X0246115Y0050124D01*
X0245836Y0050086D01*
X0245555Y0050055D01*
X0245274Y0050031D01*
X0244992Y0050014D01*
X0244710Y0050003D01*
X0244428Y0050000D01*
X0244146Y0050003D01*
X0243864Y0050014D01*
X0243582Y0050031D01*
X0243301Y0050055D01*
X0243020Y0050086D01*
X0242741Y0050124D01*
X0242462Y0050169D01*
X0242184Y0050221D01*
X0241908Y0050279D01*
X0241634Y0050345D01*
X0241361Y0050417D01*
X0241090Y0050495D01*
X0240821Y0050580D01*
X0240554Y0050672D01*
X0240289Y0050771D01*
X0240027Y0050875D01*
X0239768Y0050987D01*
X0239511Y0051104D01*
X0239257Y0051228D01*
X0239007Y0051358D01*
X0238760Y0051494D01*
X0238516Y0051636D01*
X0238276Y0051784D01*
X0238039Y0051938D01*
X0237806Y0052098D01*
X0237577Y0052263D01*
X0237353Y0052434D01*
X0237132Y0052610D01*
X0236917Y0052792D01*
X0236705Y0052979D01*
X0236498Y0053171D01*
X0236296Y0053368D01*
X0236099Y0053570D01*
X0235907Y0053777D01*
X0235720Y0053989D01*
X0235538Y0054204D01*
X0235362Y0054425D01*
X0235191Y0054649D01*
X0235026Y0054878D01*
X0234866Y0055111D01*
X0234712Y0055348D01*
X0234564Y0055588D01*
X0234422Y0055832D01*
X0234286Y0056079D01*
X0234156Y0056329D01*
X0234032Y0056583D01*
X0233915Y0056840D01*
X0233803Y0057099D01*
X0233699Y0057361D01*
X0233600Y0057626D01*
X0233508Y0057893D01*
X0233423Y0058162D01*
X0233345Y0058433D01*
X0233273Y0058706D01*
X0233207Y0058980D01*
X0233149Y0059256D01*
X0233097Y0059534D01*
X0233052Y0059813D01*
X0233014Y0060092D01*
X0232983Y0060373D01*
X0232959Y0060654D01*
X0232942Y0060936D01*
X0232931Y0061218D01*
X0232928Y0061500D01*
X0258928Y0059500D02*
X0263104Y0059500D01*
X0263104Y0063500D02*
X0258928Y0063500D01*
X0258928Y0059500D01*
X0262928Y0061500D02*
X0262931Y0061782D01*
X0262942Y0062064D01*
X0262959Y0062346D01*
X0262983Y0062627D01*
X0263014Y0062908D01*
X0263052Y0063187D01*
X0263097Y0063466D01*
X0263149Y0063744D01*
X0263207Y0064020D01*
X0263273Y0064294D01*
X0263345Y0064567D01*
X0263423Y0064838D01*
X0263508Y0065107D01*
X0263600Y0065374D01*
X0263699Y0065639D01*
X0263803Y0065901D01*
X0263915Y0066160D01*
X0264032Y0066417D01*
X0264156Y0066671D01*
X0264286Y0066921D01*
X0264422Y0067168D01*
X0264564Y0067412D01*
X0264712Y0067652D01*
X0264866Y0067889D01*
X0265026Y0068122D01*
X0265191Y0068351D01*
X0265362Y0068575D01*
X0265538Y0068796D01*
X0265720Y0069011D01*
X0265907Y0069223D01*
X0266099Y0069430D01*
X0266296Y0069632D01*
X0266498Y0069829D01*
X0266705Y0070021D01*
X0266917Y0070208D01*
X0267132Y0070390D01*
X0267353Y0070566D01*
X0267577Y0070737D01*
X0267806Y0070902D01*
X0268039Y0071062D01*
X0268276Y0071216D01*
X0268516Y0071364D01*
X0268760Y0071506D01*
X0269007Y0071642D01*
X0269257Y0071772D01*
X0269511Y0071896D01*
X0269768Y0072013D01*
X0270027Y0072125D01*
X0270289Y0072229D01*
X0270554Y0072328D01*
X0270821Y0072420D01*
X0271090Y0072505D01*
X0271361Y0072583D01*
X0271634Y0072655D01*
X0271908Y0072721D01*
X0272184Y0072779D01*
X0272462Y0072831D01*
X0272741Y0072876D01*
X0273020Y0072914D01*
X0273301Y0072945D01*
X0273582Y0072969D01*
X0273864Y0072986D01*
X0274146Y0072997D01*
X0274428Y0073000D01*
X0274710Y0072997D01*
X0274992Y0072986D01*
X0275274Y0072969D01*
X0275555Y0072945D01*
X0275836Y0072914D01*
X0276115Y0072876D01*
X0276394Y0072831D01*
X0276672Y0072779D01*
X0276948Y0072721D01*
X0277222Y0072655D01*
X0277495Y0072583D01*
X0277766Y0072505D01*
X0278035Y0072420D01*
X0278302Y0072328D01*
X0278567Y0072229D01*
X0278829Y0072125D01*
X0279088Y0072013D01*
X0279345Y0071896D01*
X0279599Y0071772D01*
X0279849Y0071642D01*
X0280096Y0071506D01*
X0280340Y0071364D01*
X0280580Y0071216D01*
X0280817Y0071062D01*
X0281050Y0070902D01*
X0281279Y0070737D01*
X0281503Y0070566D01*
X0281724Y0070390D01*
X0281939Y0070208D01*
X0282151Y0070021D01*
X0282358Y0069829D01*
X0282560Y0069632D01*
X0282757Y0069430D01*
X0282949Y0069223D01*
X0283136Y0069011D01*
X0283318Y0068796D01*
X0283494Y0068575D01*
X0283665Y0068351D01*
X0283830Y0068122D01*
X0283990Y0067889D01*
X0284144Y0067652D01*
X0284292Y0067412D01*
X0284434Y0067168D01*
X0284570Y0066921D01*
X0284700Y0066671D01*
X0284824Y0066417D01*
X0284941Y0066160D01*
X0285053Y0065901D01*
X0285157Y0065639D01*
X0285256Y0065374D01*
X0285348Y0065107D01*
X0285433Y0064838D01*
X0285511Y0064567D01*
X0285583Y0064294D01*
X0285649Y0064020D01*
X0285707Y0063744D01*
X0285759Y0063466D01*
X0285804Y0063187D01*
X0285842Y0062908D01*
X0285873Y0062627D01*
X0285897Y0062346D01*
X0285914Y0062064D01*
X0285925Y0061782D01*
X0285928Y0061500D01*
X0285925Y0061218D01*
X0285914Y0060936D01*
X0285897Y0060654D01*
X0285873Y0060373D01*
X0285842Y0060092D01*
X0285804Y0059813D01*
X0285759Y0059534D01*
X0285707Y0059256D01*
X0285649Y0058980D01*
X0285583Y0058706D01*
X0285511Y0058433D01*
X0285433Y0058162D01*
X0285348Y0057893D01*
X0285256Y0057626D01*
X0285157Y0057361D01*
X0285053Y0057099D01*
X0284941Y0056840D01*
X0284824Y0056583D01*
X0284700Y0056329D01*
X0284570Y0056079D01*
X0284434Y0055832D01*
X0284292Y0055588D01*
X0284144Y0055348D01*
X0283990Y0055111D01*
X0283830Y0054878D01*
X0283665Y0054649D01*
X0283494Y0054425D01*
X0283318Y0054204D01*
X0283136Y0053989D01*
X0282949Y0053777D01*
X0282757Y0053570D01*
X0282560Y0053368D01*
X0282358Y0053171D01*
X0282151Y0052979D01*
X0281939Y0052792D01*
X0281724Y0052610D01*
X0281503Y0052434D01*
X0281279Y0052263D01*
X0281050Y0052098D01*
X0280817Y0051938D01*
X0280580Y0051784D01*
X0280340Y0051636D01*
X0280096Y0051494D01*
X0279849Y0051358D01*
X0279599Y0051228D01*
X0279345Y0051104D01*
X0279088Y0050987D01*
X0278829Y0050875D01*
X0278567Y0050771D01*
X0278302Y0050672D01*
X0278035Y0050580D01*
X0277766Y0050495D01*
X0277495Y0050417D01*
X0277222Y0050345D01*
X0276948Y0050279D01*
X0276672Y0050221D01*
X0276394Y0050169D01*
X0276115Y0050124D01*
X0275836Y0050086D01*
X0275555Y0050055D01*
X0275274Y0050031D01*
X0274992Y0050014D01*
X0274710Y0050003D01*
X0274428Y0050000D01*
X0274146Y0050003D01*
X0273864Y0050014D01*
X0273582Y0050031D01*
X0273301Y0050055D01*
X0273020Y0050086D01*
X0272741Y0050124D01*
X0272462Y0050169D01*
X0272184Y0050221D01*
X0271908Y0050279D01*
X0271634Y0050345D01*
X0271361Y0050417D01*
X0271090Y0050495D01*
X0270821Y0050580D01*
X0270554Y0050672D01*
X0270289Y0050771D01*
X0270027Y0050875D01*
X0269768Y0050987D01*
X0269511Y0051104D01*
X0269257Y0051228D01*
X0269007Y0051358D01*
X0268760Y0051494D01*
X0268516Y0051636D01*
X0268276Y0051784D01*
X0268039Y0051938D01*
X0267806Y0052098D01*
X0267577Y0052263D01*
X0267353Y0052434D01*
X0267132Y0052610D01*
X0266917Y0052792D01*
X0266705Y0052979D01*
X0266498Y0053171D01*
X0266296Y0053368D01*
X0266099Y0053570D01*
X0265907Y0053777D01*
X0265720Y0053989D01*
X0265538Y0054204D01*
X0265362Y0054425D01*
X0265191Y0054649D01*
X0265026Y0054878D01*
X0264866Y0055111D01*
X0264712Y0055348D01*
X0264564Y0055588D01*
X0264422Y0055832D01*
X0264286Y0056079D01*
X0264156Y0056329D01*
X0264032Y0056583D01*
X0263915Y0056840D01*
X0263803Y0057099D01*
X0263699Y0057361D01*
X0263600Y0057626D01*
X0263508Y0057893D01*
X0263423Y0058162D01*
X0263345Y0058433D01*
X0263273Y0058706D01*
X0263207Y0058980D01*
X0263149Y0059256D01*
X0263097Y0059534D01*
X0263052Y0059813D01*
X0263014Y0060092D01*
X0262983Y0060373D01*
X0262959Y0060654D01*
X0262942Y0060936D01*
X0262931Y0061218D01*
X0262928Y0061500D01*
X0288928Y0059500D02*
X0293104Y0059500D01*
X0293104Y0063500D02*
X0288928Y0063500D01*
X0288928Y0059500D01*
X0292928Y0061500D02*
X0292931Y0061782D01*
X0292942Y0062064D01*
X0292959Y0062346D01*
X0292983Y0062627D01*
X0293014Y0062908D01*
X0293052Y0063187D01*
X0293097Y0063466D01*
X0293149Y0063744D01*
X0293207Y0064020D01*
X0293273Y0064294D01*
X0293345Y0064567D01*
X0293423Y0064838D01*
X0293508Y0065107D01*
X0293600Y0065374D01*
X0293699Y0065639D01*
X0293803Y0065901D01*
X0293915Y0066160D01*
X0294032Y0066417D01*
X0294156Y0066671D01*
X0294286Y0066921D01*
X0294422Y0067168D01*
X0294564Y0067412D01*
X0294712Y0067652D01*
X0294866Y0067889D01*
X0295026Y0068122D01*
X0295191Y0068351D01*
X0295362Y0068575D01*
X0295538Y0068796D01*
X0295720Y0069011D01*
X0295907Y0069223D01*
X0296099Y0069430D01*
X0296296Y0069632D01*
X0296498Y0069829D01*
X0296705Y0070021D01*
X0296917Y0070208D01*
X0297132Y0070390D01*
X0297353Y0070566D01*
X0297577Y0070737D01*
X0297806Y0070902D01*
X0298039Y0071062D01*
X0298276Y0071216D01*
X0298516Y0071364D01*
X0298760Y0071506D01*
X0299007Y0071642D01*
X0299257Y0071772D01*
X0299511Y0071896D01*
X0299768Y0072013D01*
X0300027Y0072125D01*
X0300289Y0072229D01*
X0300554Y0072328D01*
X0300821Y0072420D01*
X0301090Y0072505D01*
X0301361Y0072583D01*
X0301634Y0072655D01*
X0301908Y0072721D01*
X0302184Y0072779D01*
X0302462Y0072831D01*
X0302741Y0072876D01*
X0303020Y0072914D01*
X0303301Y0072945D01*
X0303582Y0072969D01*
X0303864Y0072986D01*
X0304146Y0072997D01*
X0304428Y0073000D01*
X0304710Y0072997D01*
X0304992Y0072986D01*
X0305274Y0072969D01*
X0305555Y0072945D01*
X0305836Y0072914D01*
X0306115Y0072876D01*
X0306394Y0072831D01*
X0306672Y0072779D01*
X0306948Y0072721D01*
X0307222Y0072655D01*
X0307495Y0072583D01*
X0307766Y0072505D01*
X0308035Y0072420D01*
X0308302Y0072328D01*
X0308567Y0072229D01*
X0308829Y0072125D01*
X0309088Y0072013D01*
X0309345Y0071896D01*
X0309599Y0071772D01*
X0309849Y0071642D01*
X0310096Y0071506D01*
X0310340Y0071364D01*
X0310580Y0071216D01*
X0310817Y0071062D01*
X0311050Y0070902D01*
X0311279Y0070737D01*
X0311503Y0070566D01*
X0311724Y0070390D01*
X0311939Y0070208D01*
X0312151Y0070021D01*
X0312358Y0069829D01*
X0312560Y0069632D01*
X0312757Y0069430D01*
X0312949Y0069223D01*
X0313136Y0069011D01*
X0313318Y0068796D01*
X0313494Y0068575D01*
X0313665Y0068351D01*
X0313830Y0068122D01*
X0313990Y0067889D01*
X0314144Y0067652D01*
X0314292Y0067412D01*
X0314434Y0067168D01*
X0314570Y0066921D01*
X0314700Y0066671D01*
X0314824Y0066417D01*
X0314941Y0066160D01*
X0315053Y0065901D01*
X0315157Y0065639D01*
X0315256Y0065374D01*
X0315348Y0065107D01*
X0315433Y0064838D01*
X0315511Y0064567D01*
X0315583Y0064294D01*
X0315649Y0064020D01*
X0315707Y0063744D01*
X0315759Y0063466D01*
X0315804Y0063187D01*
X0315842Y0062908D01*
X0315873Y0062627D01*
X0315897Y0062346D01*
X0315914Y0062064D01*
X0315925Y0061782D01*
X0315928Y0061500D01*
X0315925Y0061218D01*
X0315914Y0060936D01*
X0315897Y0060654D01*
X0315873Y0060373D01*
X0315842Y0060092D01*
X0315804Y0059813D01*
X0315759Y0059534D01*
X0315707Y0059256D01*
X0315649Y0058980D01*
X0315583Y0058706D01*
X0315511Y0058433D01*
X0315433Y0058162D01*
X0315348Y0057893D01*
X0315256Y0057626D01*
X0315157Y0057361D01*
X0315053Y0057099D01*
X0314941Y0056840D01*
X0314824Y0056583D01*
X0314700Y0056329D01*
X0314570Y0056079D01*
X0314434Y0055832D01*
X0314292Y0055588D01*
X0314144Y0055348D01*
X0313990Y0055111D01*
X0313830Y0054878D01*
X0313665Y0054649D01*
X0313494Y0054425D01*
X0313318Y0054204D01*
X0313136Y0053989D01*
X0312949Y0053777D01*
X0312757Y0053570D01*
X0312560Y0053368D01*
X0312358Y0053171D01*
X0312151Y0052979D01*
X0311939Y0052792D01*
X0311724Y0052610D01*
X0311503Y0052434D01*
X0311279Y0052263D01*
X0311050Y0052098D01*
X0310817Y0051938D01*
X0310580Y0051784D01*
X0310340Y0051636D01*
X0310096Y0051494D01*
X0309849Y0051358D01*
X0309599Y0051228D01*
X0309345Y0051104D01*
X0309088Y0050987D01*
X0308829Y0050875D01*
X0308567Y0050771D01*
X0308302Y0050672D01*
X0308035Y0050580D01*
X0307766Y0050495D01*
X0307495Y0050417D01*
X0307222Y0050345D01*
X0306948Y0050279D01*
X0306672Y0050221D01*
X0306394Y0050169D01*
X0306115Y0050124D01*
X0305836Y0050086D01*
X0305555Y0050055D01*
X0305274Y0050031D01*
X0304992Y0050014D01*
X0304710Y0050003D01*
X0304428Y0050000D01*
X0304146Y0050003D01*
X0303864Y0050014D01*
X0303582Y0050031D01*
X0303301Y0050055D01*
X0303020Y0050086D01*
X0302741Y0050124D01*
X0302462Y0050169D01*
X0302184Y0050221D01*
X0301908Y0050279D01*
X0301634Y0050345D01*
X0301361Y0050417D01*
X0301090Y0050495D01*
X0300821Y0050580D01*
X0300554Y0050672D01*
X0300289Y0050771D01*
X0300027Y0050875D01*
X0299768Y0050987D01*
X0299511Y0051104D01*
X0299257Y0051228D01*
X0299007Y0051358D01*
X0298760Y0051494D01*
X0298516Y0051636D01*
X0298276Y0051784D01*
X0298039Y0051938D01*
X0297806Y0052098D01*
X0297577Y0052263D01*
X0297353Y0052434D01*
X0297132Y0052610D01*
X0296917Y0052792D01*
X0296705Y0052979D01*
X0296498Y0053171D01*
X0296296Y0053368D01*
X0296099Y0053570D01*
X0295907Y0053777D01*
X0295720Y0053989D01*
X0295538Y0054204D01*
X0295362Y0054425D01*
X0295191Y0054649D01*
X0295026Y0054878D01*
X0294866Y0055111D01*
X0294712Y0055348D01*
X0294564Y0055588D01*
X0294422Y0055832D01*
X0294286Y0056079D01*
X0294156Y0056329D01*
X0294032Y0056583D01*
X0293915Y0056840D01*
X0293803Y0057099D01*
X0293699Y0057361D01*
X0293600Y0057626D01*
X0293508Y0057893D01*
X0293423Y0058162D01*
X0293345Y0058433D01*
X0293273Y0058706D01*
X0293207Y0058980D01*
X0293149Y0059256D01*
X0293097Y0059534D01*
X0293052Y0059813D01*
X0293014Y0060092D01*
X0292983Y0060373D01*
X0292959Y0060654D01*
X0292942Y0060936D01*
X0292931Y0061218D01*
X0292928Y0061500D01*
X0114428Y0186000D02*
X0065428Y0186000D01*
X0065428Y0189500D01*
X0059428Y0189500D01*
X0059428Y0186000D01*
X0051928Y0186000D01*
X0051928Y0227000D01*
X0059428Y0227000D01*
X0059428Y0223500D01*
X0065428Y0223500D01*
X0065428Y0227000D01*
X0114428Y0227000D01*
X0114428Y0186000D01*
X0079313Y0200023D02*
X0078178Y0201158D01*
X0078178Y0200590D01*
X0077611Y0200590D01*
X0077611Y0201158D01*
X0078178Y0201158D01*
X0077611Y0202417D02*
X0078178Y0202984D01*
X0078178Y0204119D01*
X0077611Y0204686D01*
X0076477Y0204686D01*
X0075910Y0204119D01*
X0075910Y0203552D01*
X0076477Y0202417D01*
X0074776Y0202417D01*
X0074776Y0204686D01*
X0075910Y0206008D02*
X0075910Y0206575D01*
X0076477Y0207143D01*
X0075910Y0207710D01*
X0076477Y0208277D01*
X0078178Y0208277D01*
X0078178Y0207143D02*
X0076477Y0207143D01*
X0075910Y0206008D02*
X0078178Y0206008D01*
X0078178Y0209599D02*
X0075910Y0209599D01*
X0075910Y0210167D01*
X0076477Y0210734D01*
X0075910Y0211301D01*
X0076477Y0211868D01*
X0078178Y0211868D01*
X0078178Y0210734D02*
X0076477Y0210734D01*
X0058328Y0206500D02*
X0058330Y0206674D01*
X0058337Y0206848D01*
X0058347Y0207022D01*
X0058362Y0207196D01*
X0058381Y0207369D01*
X0058405Y0207542D01*
X0058433Y0207714D01*
X0058464Y0207885D01*
X0058501Y0208056D01*
X0058541Y0208225D01*
X0058585Y0208394D01*
X0058634Y0208561D01*
X0058686Y0208727D01*
X0058743Y0208892D01*
X0058804Y0209055D01*
X0058868Y0209217D01*
X0058937Y0209377D01*
X0059010Y0209536D01*
X0059086Y0209692D01*
X0059166Y0209847D01*
X0059250Y0210000D01*
X0059338Y0210150D01*
X0059430Y0210298D01*
X0059525Y0210445D01*
X0059623Y0210588D01*
X0059725Y0210729D01*
X0059831Y0210868D01*
X0059940Y0211004D01*
X0060052Y0211138D01*
X0060167Y0211268D01*
X0060286Y0211396D01*
X0060408Y0211520D01*
X0060532Y0211642D01*
X0060660Y0211761D01*
X0060790Y0211876D01*
X0060924Y0211988D01*
X0061060Y0212097D01*
X0061199Y0212203D01*
X0061340Y0212305D01*
X0061483Y0212403D01*
X0061630Y0212498D01*
X0061778Y0212590D01*
X0061928Y0212678D01*
X0062081Y0212762D01*
X0062236Y0212842D01*
X0062392Y0212918D01*
X0062551Y0212991D01*
X0062711Y0213060D01*
X0062873Y0213124D01*
X0063036Y0213185D01*
X0063201Y0213242D01*
X0063367Y0213294D01*
X0063534Y0213343D01*
X0063703Y0213387D01*
X0063872Y0213427D01*
X0064043Y0213464D01*
X0064214Y0213495D01*
X0064386Y0213523D01*
X0064559Y0213547D01*
X0064732Y0213566D01*
X0064906Y0213581D01*
X0065080Y0213591D01*
X0065254Y0213598D01*
X0065428Y0213600D01*
X0065602Y0213598D01*
X0065776Y0213591D01*
X0065950Y0213581D01*
X0066124Y0213566D01*
X0066297Y0213547D01*
X0066470Y0213523D01*
X0066642Y0213495D01*
X0066813Y0213464D01*
X0066984Y0213427D01*
X0067153Y0213387D01*
X0067322Y0213343D01*
X0067489Y0213294D01*
X0067655Y0213242D01*
X0067820Y0213185D01*
X0067983Y0213124D01*
X0068145Y0213060D01*
X0068305Y0212991D01*
X0068464Y0212918D01*
X0068620Y0212842D01*
X0068775Y0212762D01*
X0068928Y0212678D01*
X0069078Y0212590D01*
X0069226Y0212498D01*
X0069373Y0212403D01*
X0069516Y0212305D01*
X0069657Y0212203D01*
X0069796Y0212097D01*
X0069932Y0211988D01*
X0070066Y0211876D01*
X0070196Y0211761D01*
X0070324Y0211642D01*
X0070448Y0211520D01*
X0070570Y0211396D01*
X0070689Y0211268D01*
X0070804Y0211138D01*
X0070916Y0211004D01*
X0071025Y0210868D01*
X0071131Y0210729D01*
X0071233Y0210588D01*
X0071331Y0210445D01*
X0071426Y0210298D01*
X0071518Y0210150D01*
X0071606Y0210000D01*
X0071690Y0209847D01*
X0071770Y0209692D01*
X0071846Y0209536D01*
X0071919Y0209377D01*
X0071988Y0209217D01*
X0072052Y0209055D01*
X0072113Y0208892D01*
X0072170Y0208727D01*
X0072222Y0208561D01*
X0072271Y0208394D01*
X0072315Y0208225D01*
X0072355Y0208056D01*
X0072392Y0207885D01*
X0072423Y0207714D01*
X0072451Y0207542D01*
X0072475Y0207369D01*
X0072494Y0207196D01*
X0072509Y0207022D01*
X0072519Y0206848D01*
X0072526Y0206674D01*
X0072528Y0206500D01*
X0072526Y0206326D01*
X0072519Y0206152D01*
X0072509Y0205978D01*
X0072494Y0205804D01*
X0072475Y0205631D01*
X0072451Y0205458D01*
X0072423Y0205286D01*
X0072392Y0205115D01*
X0072355Y0204944D01*
X0072315Y0204775D01*
X0072271Y0204606D01*
X0072222Y0204439D01*
X0072170Y0204273D01*
X0072113Y0204108D01*
X0072052Y0203945D01*
X0071988Y0203783D01*
X0071919Y0203623D01*
X0071846Y0203464D01*
X0071770Y0203308D01*
X0071690Y0203153D01*
X0071606Y0203000D01*
X0071518Y0202850D01*
X0071426Y0202702D01*
X0071331Y0202555D01*
X0071233Y0202412D01*
X0071131Y0202271D01*
X0071025Y0202132D01*
X0070916Y0201996D01*
X0070804Y0201862D01*
X0070689Y0201732D01*
X0070570Y0201604D01*
X0070448Y0201480D01*
X0070324Y0201358D01*
X0070196Y0201239D01*
X0070066Y0201124D01*
X0069932Y0201012D01*
X0069796Y0200903D01*
X0069657Y0200797D01*
X0069516Y0200695D01*
X0069373Y0200597D01*
X0069226Y0200502D01*
X0069078Y0200410D01*
X0068928Y0200322D01*
X0068775Y0200238D01*
X0068620Y0200158D01*
X0068464Y0200082D01*
X0068305Y0200009D01*
X0068145Y0199940D01*
X0067983Y0199876D01*
X0067820Y0199815D01*
X0067655Y0199758D01*
X0067489Y0199706D01*
X0067322Y0199657D01*
X0067153Y0199613D01*
X0066984Y0199573D01*
X0066813Y0199536D01*
X0066642Y0199505D01*
X0066470Y0199477D01*
X0066297Y0199453D01*
X0066124Y0199434D01*
X0065950Y0199419D01*
X0065776Y0199409D01*
X0065602Y0199402D01*
X0065428Y0199400D01*
X0065254Y0199402D01*
X0065080Y0199409D01*
X0064906Y0199419D01*
X0064732Y0199434D01*
X0064559Y0199453D01*
X0064386Y0199477D01*
X0064214Y0199505D01*
X0064043Y0199536D01*
X0063872Y0199573D01*
X0063703Y0199613D01*
X0063534Y0199657D01*
X0063367Y0199706D01*
X0063201Y0199758D01*
X0063036Y0199815D01*
X0062873Y0199876D01*
X0062711Y0199940D01*
X0062551Y0200009D01*
X0062392Y0200082D01*
X0062236Y0200158D01*
X0062081Y0200238D01*
X0061928Y0200322D01*
X0061778Y0200410D01*
X0061630Y0200502D01*
X0061483Y0200597D01*
X0061340Y0200695D01*
X0061199Y0200797D01*
X0061060Y0200903D01*
X0060924Y0201012D01*
X0060790Y0201124D01*
X0060660Y0201239D01*
X0060532Y0201358D01*
X0060408Y0201480D01*
X0060286Y0201604D01*
X0060167Y0201732D01*
X0060052Y0201862D01*
X0059940Y0201996D01*
X0059831Y0202132D01*
X0059725Y0202271D01*
X0059623Y0202412D01*
X0059525Y0202555D01*
X0059430Y0202702D01*
X0059338Y0202850D01*
X0059250Y0203000D01*
X0059166Y0203153D01*
X0059086Y0203308D01*
X0059010Y0203464D01*
X0058937Y0203623D01*
X0058868Y0203783D01*
X0058804Y0203945D01*
X0058743Y0204108D01*
X0058686Y0204273D01*
X0058634Y0204439D01*
X0058585Y0204606D01*
X0058541Y0204775D01*
X0058501Y0204944D01*
X0058464Y0205115D01*
X0058433Y0205286D01*
X0058405Y0205458D01*
X0058381Y0205631D01*
X0058362Y0205804D01*
X0058347Y0205978D01*
X0058337Y0206152D01*
X0058330Y0206326D01*
X0058328Y0206500D01*
X0074776Y0198701D02*
X0074776Y0196432D01*
X0074776Y0198701D02*
X0075343Y0198701D01*
X0077611Y0196432D01*
X0078178Y0196432D01*
X0078178Y0195110D02*
X0078178Y0192841D01*
X0078178Y0193975D02*
X0074776Y0193975D01*
X0075910Y0192841D01*
X0075910Y0191519D02*
X0078178Y0191519D01*
X0076477Y0191519D02*
X0076477Y0189250D01*
X0075910Y0189250D02*
X0074776Y0190384D01*
X0075910Y0191519D01*
X0075910Y0189250D02*
X0078178Y0189250D01*
D18*
X0126678Y0196500D03*
X0126678Y0206500D03*
X0126678Y0216500D03*
D19*
X0119928Y0216500D03*
X0119928Y0206500D03*
X0119928Y0196500D03*
M02*
