G75*
%MOIN*%
%OFA0B0*%
%FSLAX25Y25*%
%IPPOS*%
%LPD*%
%AMOC8*
5,1,8,0,0,1.08239X$1,22.5*
%
%ADD10C,0.00000*%
%ADD11R,0.04724X0.04724*%
%ADD12R,0.05906X0.05118*%
%ADD13R,0.05512X0.07087*%
%ADD14R,0.02362X0.08661*%
%ADD15R,0.21260X0.24409*%
%ADD16R,0.03937X0.06299*%
%ADD17C,0.07874*%
%ADD18OC8,0.05600*%
%ADD19R,0.05512X0.03937*%
%ADD20R,0.05118X0.06299*%
%ADD21R,0.06299X0.05118*%
%ADD22C,0.00600*%
%ADD23R,0.02978X0.02978*%
%ADD24C,0.02978*%
D10*
X0020588Y0053221D02*
X0211173Y0053221D01*
X0211288Y0053223D01*
X0211404Y0053229D01*
X0211519Y0053238D01*
X0211633Y0053252D01*
X0211748Y0053269D01*
X0211861Y0053290D01*
X0211974Y0053315D01*
X0212086Y0053344D01*
X0212196Y0053376D01*
X0212306Y0053412D01*
X0212414Y0053452D01*
X0212521Y0053495D01*
X0212627Y0053542D01*
X0212731Y0053592D01*
X0212833Y0053646D01*
X0212933Y0053703D01*
X0213032Y0053764D01*
X0213128Y0053827D01*
X0213222Y0053894D01*
X0213314Y0053964D01*
X0213403Y0054037D01*
X0213490Y0054113D01*
X0213574Y0054192D01*
X0213656Y0054274D01*
X0213735Y0054358D01*
X0213811Y0054445D01*
X0213884Y0054534D01*
X0213954Y0054626D01*
X0214021Y0054720D01*
X0214084Y0054816D01*
X0214145Y0054915D01*
X0214202Y0055015D01*
X0214256Y0055117D01*
X0214306Y0055221D01*
X0214353Y0055327D01*
X0214396Y0055434D01*
X0214436Y0055542D01*
X0214472Y0055652D01*
X0214504Y0055762D01*
X0214533Y0055874D01*
X0214558Y0055987D01*
X0214579Y0056100D01*
X0214596Y0056215D01*
X0214610Y0056329D01*
X0214619Y0056444D01*
X0214625Y0056560D01*
X0214627Y0056675D01*
X0214627Y0198300D01*
X0214625Y0198425D01*
X0214619Y0198550D01*
X0214610Y0198675D01*
X0214596Y0198799D01*
X0214579Y0198923D01*
X0214558Y0199046D01*
X0214533Y0199168D01*
X0214504Y0199290D01*
X0214472Y0199411D01*
X0214436Y0199530D01*
X0214396Y0199649D01*
X0214353Y0199766D01*
X0214306Y0199882D01*
X0214255Y0199997D01*
X0214201Y0200109D01*
X0214144Y0200220D01*
X0214083Y0200330D01*
X0214019Y0200437D01*
X0213952Y0200542D01*
X0213881Y0200645D01*
X0213807Y0200746D01*
X0213730Y0200845D01*
X0213650Y0200941D01*
X0213568Y0201035D01*
X0213482Y0201126D01*
X0213394Y0201214D01*
X0213303Y0201300D01*
X0213209Y0201382D01*
X0213113Y0201462D01*
X0213014Y0201539D01*
X0212913Y0201613D01*
X0212810Y0201684D01*
X0212705Y0201751D01*
X0212598Y0201815D01*
X0212488Y0201876D01*
X0212377Y0201933D01*
X0212265Y0201987D01*
X0212150Y0202038D01*
X0212034Y0202085D01*
X0211917Y0202128D01*
X0211798Y0202168D01*
X0211679Y0202204D01*
X0211558Y0202236D01*
X0211436Y0202265D01*
X0211314Y0202290D01*
X0211191Y0202311D01*
X0211067Y0202328D01*
X0210943Y0202342D01*
X0210818Y0202351D01*
X0210693Y0202357D01*
X0210568Y0202359D01*
X0016534Y0202359D01*
X0016398Y0202357D01*
X0016262Y0202351D01*
X0016127Y0202341D01*
X0015991Y0202327D01*
X0015857Y0202310D01*
X0015723Y0202288D01*
X0015589Y0202262D01*
X0015456Y0202233D01*
X0015325Y0202200D01*
X0015194Y0202163D01*
X0015064Y0202122D01*
X0014936Y0202077D01*
X0014809Y0202029D01*
X0014683Y0201977D01*
X0014559Y0201921D01*
X0014437Y0201862D01*
X0014316Y0201799D01*
X0014198Y0201733D01*
X0014081Y0201663D01*
X0013966Y0201590D01*
X0013854Y0201514D01*
X0013743Y0201434D01*
X0013636Y0201352D01*
X0013530Y0201266D01*
X0013427Y0201177D01*
X0013327Y0201085D01*
X0013230Y0200990D01*
X0013135Y0200893D01*
X0013043Y0200793D01*
X0012954Y0200690D01*
X0012868Y0200584D01*
X0012786Y0200477D01*
X0012706Y0200366D01*
X0012630Y0200254D01*
X0012557Y0200139D01*
X0012487Y0200023D01*
X0012421Y0199904D01*
X0012358Y0199783D01*
X0012299Y0199661D01*
X0012243Y0199537D01*
X0012191Y0199411D01*
X0012143Y0199284D01*
X0012098Y0199156D01*
X0012057Y0199026D01*
X0012020Y0198895D01*
X0011987Y0198764D01*
X0011958Y0198631D01*
X0011932Y0198497D01*
X0011910Y0198363D01*
X0011893Y0198229D01*
X0011879Y0198093D01*
X0011869Y0197958D01*
X0011863Y0197822D01*
X0011861Y0197686D01*
X0011860Y0197686D02*
X0011860Y0062764D01*
X0011853Y0062541D01*
X0011851Y0062319D01*
X0011854Y0062096D01*
X0011863Y0061874D01*
X0011877Y0061652D01*
X0011897Y0061431D01*
X0011922Y0061210D01*
X0011952Y0060989D01*
X0011987Y0060770D01*
X0012028Y0060551D01*
X0012074Y0060333D01*
X0012125Y0060117D01*
X0012182Y0059902D01*
X0012243Y0059688D01*
X0012310Y0059476D01*
X0012382Y0059265D01*
X0012459Y0059057D01*
X0012541Y0058850D01*
X0012628Y0058645D01*
X0012720Y0058443D01*
X0012817Y0058242D01*
X0012918Y0058044D01*
X0013025Y0057849D01*
X0013136Y0057656D01*
X0013252Y0057466D01*
X0013372Y0057279D01*
X0013496Y0057095D01*
X0013626Y0056914D01*
X0013759Y0056736D01*
X0013897Y0056561D01*
X0014039Y0056390D01*
X0014185Y0056222D01*
X0014335Y0056058D01*
X0014489Y0055897D01*
X0014646Y0055740D01*
X0014808Y0055587D01*
X0014973Y0055438D01*
X0015142Y0055293D01*
X0015314Y0055153D01*
X0015489Y0055016D01*
X0015668Y0054884D01*
X0015850Y0054755D01*
X0016035Y0054632D01*
X0016223Y0054513D01*
X0016414Y0054398D01*
X0016607Y0054288D01*
X0016803Y0054183D01*
X0017002Y0054083D01*
X0017203Y0053987D01*
X0017406Y0053897D01*
X0017611Y0053811D01*
X0017818Y0053730D01*
X0018027Y0053655D01*
X0018238Y0053584D01*
X0018451Y0053518D01*
X0018665Y0053458D01*
X0018880Y0053403D01*
X0019097Y0053353D01*
X0019315Y0053308D01*
X0019534Y0053269D01*
X0019754Y0053235D01*
X0019974Y0053206D01*
X0020196Y0053182D01*
X0020417Y0053164D01*
X0020639Y0053151D01*
D11*
X0160236Y0077081D03*
X0168504Y0077081D03*
X0179370Y0102947D03*
X0179370Y0111215D03*
X0189370Y0111215D03*
X0189370Y0102947D03*
X0189370Y0122947D03*
X0189370Y0131215D03*
X0179370Y0131215D03*
X0179370Y0122947D03*
X0179370Y0142947D03*
X0179370Y0151215D03*
X0189370Y0151215D03*
X0189370Y0142947D03*
D12*
X0089216Y0153303D03*
X0089216Y0160784D03*
X0079370Y0160821D03*
X0079370Y0153341D03*
X0039370Y0145821D03*
X0039370Y0138341D03*
X0029370Y0138341D03*
X0029370Y0145821D03*
D13*
X0072677Y0122081D03*
X0086063Y0122081D03*
D14*
X0099370Y0116845D03*
X0104370Y0116845D03*
X0109370Y0116845D03*
X0114370Y0116845D03*
X0119370Y0116845D03*
X0124370Y0116845D03*
X0129370Y0116845D03*
X0129370Y0137317D03*
X0124370Y0137317D03*
X0119370Y0137317D03*
X0114370Y0137317D03*
X0109370Y0137317D03*
X0104370Y0137317D03*
X0099370Y0137317D03*
D15*
X0059370Y0166924D03*
D16*
X0050394Y0138183D03*
X0068346Y0138183D03*
D17*
X0048307Y0114286D02*
X0040433Y0114286D01*
X0063268Y0106018D02*
X0063268Y0098144D01*
X0048307Y0090270D02*
X0040433Y0090270D01*
D18*
X0124348Y0174535D03*
X0124348Y0184535D03*
X0134348Y0184535D03*
X0144348Y0184535D03*
X0144348Y0174535D03*
X0134348Y0174535D03*
D19*
X0148701Y0140821D03*
X0148701Y0133341D03*
X0148701Y0125821D03*
X0148701Y0118341D03*
X0148701Y0110821D03*
X0148701Y0103341D03*
X0140039Y0107081D03*
X0139370Y0092081D03*
X0139370Y0084601D03*
X0148032Y0088341D03*
X0140039Y0122081D03*
X0140039Y0137081D03*
D20*
X0083110Y0132081D03*
X0075630Y0132081D03*
X0075630Y0112081D03*
X0083110Y0112081D03*
X0083110Y0102081D03*
X0075630Y0102081D03*
X0140630Y0077081D03*
X0148110Y0077081D03*
X0148110Y0067081D03*
X0140630Y0067081D03*
D21*
X0159370Y0103341D03*
X0159370Y0110821D03*
X0169370Y0110821D03*
X0169370Y0103341D03*
X0169370Y0123341D03*
X0169370Y0130821D03*
X0159370Y0130821D03*
X0159370Y0123341D03*
X0159370Y0143341D03*
X0159370Y0150821D03*
X0169370Y0150821D03*
X0169370Y0143341D03*
X0170379Y0176950D03*
X0170379Y0184431D03*
X0155666Y0184581D03*
X0155666Y0177101D03*
X0129370Y0160821D03*
X0129370Y0153341D03*
X0119370Y0153341D03*
X0119370Y0160821D03*
X0109370Y0160821D03*
X0109370Y0153341D03*
X0099370Y0153341D03*
X0099370Y0160821D03*
X0107815Y0175769D03*
X0107815Y0183249D03*
D22*
X0109101Y0184535D01*
X0124348Y0184535D01*
X0121539Y0186958D02*
X0019377Y0186958D01*
X0019377Y0186360D02*
X0103944Y0186360D01*
X0103766Y0186181D02*
X0103766Y0180318D01*
X0104293Y0179790D01*
X0111338Y0179790D01*
X0111865Y0180318D01*
X0111865Y0183335D01*
X0120648Y0183335D01*
X0120648Y0183002D01*
X0122816Y0180835D01*
X0125881Y0180835D01*
X0128048Y0183002D01*
X0128048Y0186068D01*
X0125881Y0188235D01*
X0122816Y0188235D01*
X0120648Y0186068D01*
X0120648Y0185735D01*
X0111865Y0185735D01*
X0111865Y0186181D01*
X0111338Y0186708D01*
X0104293Y0186708D01*
X0103766Y0186181D01*
X0103766Y0185761D02*
X0019378Y0185761D01*
X0019378Y0185163D02*
X0103766Y0185163D01*
X0103766Y0184564D02*
X0019378Y0184564D01*
X0019379Y0183966D02*
X0103766Y0183966D01*
X0103766Y0183367D02*
X0019379Y0183367D01*
X0019380Y0182768D02*
X0103766Y0182768D01*
X0103766Y0182170D02*
X0019380Y0182170D01*
X0019380Y0181571D02*
X0103766Y0181571D01*
X0103766Y0180973D02*
X0019381Y0180973D01*
X0019381Y0180374D02*
X0048368Y0180374D01*
X0048238Y0180340D02*
X0047942Y0180169D01*
X0047700Y0179927D01*
X0047529Y0179630D01*
X0047440Y0179299D01*
X0047440Y0167224D01*
X0059070Y0167224D01*
X0059070Y0180428D01*
X0048569Y0180428D01*
X0048238Y0180340D01*
X0047613Y0179776D02*
X0019382Y0179776D01*
X0019382Y0179177D02*
X0047440Y0179177D01*
X0047440Y0178579D02*
X0019382Y0178579D01*
X0019383Y0177980D02*
X0047440Y0177980D01*
X0047440Y0177382D02*
X0019383Y0177382D01*
X0019384Y0176783D02*
X0047440Y0176783D01*
X0047440Y0176185D02*
X0019384Y0176185D01*
X0019384Y0175586D02*
X0047440Y0175586D01*
X0047440Y0174988D02*
X0019385Y0174988D01*
X0019385Y0174389D02*
X0047440Y0174389D01*
X0047440Y0173791D02*
X0019386Y0173791D01*
X0019386Y0173192D02*
X0047440Y0173192D01*
X0047440Y0172594D02*
X0019386Y0172594D01*
X0019387Y0171995D02*
X0047440Y0171995D01*
X0047440Y0171397D02*
X0019387Y0171397D01*
X0019388Y0170798D02*
X0047440Y0170798D01*
X0047440Y0170200D02*
X0019388Y0170200D01*
X0019388Y0169601D02*
X0047440Y0169601D01*
X0047440Y0169003D02*
X0019389Y0169003D01*
X0019389Y0168404D02*
X0047440Y0168404D01*
X0047440Y0167806D02*
X0019390Y0167806D01*
X0019390Y0167207D02*
X0059070Y0167207D01*
X0059070Y0167224D02*
X0059070Y0166624D01*
X0047440Y0166624D01*
X0047440Y0154548D01*
X0047529Y0154217D01*
X0047700Y0153921D01*
X0047942Y0153679D01*
X0048238Y0153507D01*
X0048569Y0153419D01*
X0059070Y0153419D01*
X0059070Y0166624D01*
X0059670Y0166624D01*
X0059670Y0167224D01*
X0059070Y0167224D01*
X0059070Y0167806D02*
X0059670Y0167806D01*
X0059670Y0167224D02*
X0059670Y0180428D01*
X0070171Y0180428D01*
X0070502Y0180340D01*
X0070798Y0180169D01*
X0071040Y0179927D01*
X0071211Y0179630D01*
X0071300Y0179299D01*
X0071300Y0167224D01*
X0059670Y0167224D01*
X0059670Y0167207D02*
X0096981Y0167207D01*
X0096981Y0166609D02*
X0071300Y0166609D01*
X0071300Y0166624D02*
X0059670Y0166624D01*
X0059670Y0153419D01*
X0070171Y0153419D01*
X0070502Y0153507D01*
X0070798Y0153679D01*
X0071040Y0153921D01*
X0071211Y0154217D01*
X0071300Y0154548D01*
X0071300Y0166624D01*
X0071300Y0166010D02*
X0097063Y0166010D01*
X0096981Y0166092D02*
X0098170Y0164903D01*
X0098170Y0164280D01*
X0095848Y0164280D01*
X0095320Y0163753D01*
X0095320Y0162021D01*
X0094312Y0162021D01*
X0093989Y0161698D01*
X0093469Y0161178D01*
X0093469Y0163514D01*
X0093380Y0163844D01*
X0093209Y0164141D01*
X0092967Y0164383D01*
X0092671Y0164554D01*
X0092340Y0164643D01*
X0089516Y0164643D01*
X0089516Y0161084D01*
X0088916Y0161084D01*
X0088916Y0164643D01*
X0086092Y0164643D01*
X0085762Y0164554D01*
X0085465Y0164383D01*
X0085223Y0164141D01*
X0085052Y0163844D01*
X0084963Y0163514D01*
X0084963Y0161084D01*
X0088916Y0161084D01*
X0088916Y0160484D01*
X0084963Y0160484D01*
X0084963Y0158053D01*
X0085052Y0157723D01*
X0085223Y0157426D01*
X0085465Y0157184D01*
X0085762Y0157013D01*
X0086092Y0156924D01*
X0088916Y0156924D01*
X0088916Y0160484D01*
X0089516Y0160484D01*
X0089516Y0156924D01*
X0092340Y0156924D01*
X0092671Y0157013D01*
X0092967Y0157184D01*
X0093209Y0157426D01*
X0093286Y0157559D01*
X0093286Y0154360D01*
X0093069Y0154360D01*
X0093069Y0156235D01*
X0092542Y0156762D01*
X0085890Y0156762D01*
X0085363Y0156235D01*
X0085363Y0154503D01*
X0083223Y0154503D01*
X0083223Y0156273D01*
X0082696Y0156800D01*
X0076045Y0156800D01*
X0075517Y0156273D01*
X0075517Y0150409D01*
X0076045Y0149882D01*
X0082696Y0149882D01*
X0083223Y0150409D01*
X0083223Y0152103D01*
X0085363Y0152103D01*
X0085363Y0150371D01*
X0085890Y0149844D01*
X0088016Y0149844D01*
X0088016Y0147364D01*
X0087435Y0146784D01*
X0085754Y0146784D01*
X0084354Y0145384D01*
X0084354Y0143703D01*
X0080035Y0139383D01*
X0071215Y0139383D01*
X0071215Y0141706D01*
X0070688Y0142233D01*
X0066005Y0142233D01*
X0065478Y0141706D01*
X0065478Y0134661D01*
X0066005Y0134134D01*
X0067172Y0134134D01*
X0066981Y0133943D01*
X0066981Y0130219D01*
X0067508Y0129692D01*
X0071232Y0129692D01*
X0071759Y0130219D01*
X0071759Y0130881D01*
X0072171Y0130881D01*
X0072171Y0128559D01*
X0072698Y0128031D01*
X0078562Y0128031D01*
X0079089Y0128559D01*
X0079089Y0135603D01*
X0078562Y0136131D01*
X0072698Y0136131D01*
X0072171Y0135603D01*
X0072171Y0133281D01*
X0071759Y0133281D01*
X0071759Y0133943D01*
X0071232Y0134470D01*
X0071024Y0134470D01*
X0071215Y0134661D01*
X0071215Y0136983D01*
X0081029Y0136983D01*
X0086051Y0142006D01*
X0087733Y0142006D01*
X0089132Y0143405D01*
X0089132Y0145087D01*
X0089713Y0145667D01*
X0090416Y0146370D01*
X0090416Y0149844D01*
X0092542Y0149844D01*
X0093069Y0150371D01*
X0093069Y0151960D01*
X0094983Y0151960D01*
X0095320Y0152298D01*
X0095320Y0150409D01*
X0095848Y0149882D01*
X0102892Y0149882D01*
X0103420Y0150409D01*
X0103420Y0150881D01*
X0104867Y0150881D01*
X0105320Y0151334D01*
X0105320Y0150409D01*
X0105848Y0149882D01*
X0108170Y0149882D01*
X0108170Y0142548D01*
X0107816Y0142548D01*
X0107289Y0142021D01*
X0107289Y0132614D01*
X0107816Y0132087D01*
X0110924Y0132087D01*
X0111451Y0132614D01*
X0111451Y0142021D01*
X0110924Y0142548D01*
X0110570Y0142548D01*
X0110570Y0149882D01*
X0112892Y0149882D01*
X0113420Y0150409D01*
X0113420Y0150881D01*
X0114867Y0150881D01*
X0115320Y0151334D01*
X0115320Y0150409D01*
X0115848Y0149882D01*
X0118170Y0149882D01*
X0118170Y0142548D01*
X0117816Y0142548D01*
X0117289Y0142021D01*
X0117289Y0132614D01*
X0117816Y0132087D01*
X0120924Y0132087D01*
X0121451Y0132614D01*
X0121451Y0142021D01*
X0120924Y0142548D01*
X0120570Y0142548D01*
X0120570Y0149882D01*
X0122892Y0149882D01*
X0123420Y0150409D01*
X0123420Y0150881D01*
X0124867Y0150881D01*
X0124920Y0150934D01*
X0124920Y0150611D01*
X0125009Y0150280D01*
X0125180Y0149984D01*
X0125422Y0149742D01*
X0125719Y0149570D01*
X0126049Y0149482D01*
X0129070Y0149482D01*
X0129070Y0153041D01*
X0129670Y0153041D01*
X0129670Y0149482D01*
X0132691Y0149482D01*
X0133021Y0149570D01*
X0133318Y0149742D01*
X0133560Y0149984D01*
X0133731Y0150280D01*
X0133820Y0150611D01*
X0133820Y0153041D01*
X0129670Y0153041D01*
X0129670Y0153641D01*
X0129070Y0153641D01*
X0129070Y0157200D01*
X0126186Y0157200D01*
X0126348Y0157362D01*
X0132892Y0157362D01*
X0133420Y0157889D01*
X0133420Y0163753D01*
X0132892Y0164280D01*
X0125848Y0164280D01*
X0125320Y0163753D01*
X0125320Y0159729D01*
X0123873Y0158281D01*
X0123170Y0157578D01*
X0123170Y0156522D01*
X0122892Y0156800D01*
X0115848Y0156800D01*
X0115570Y0156522D01*
X0115570Y0156584D01*
X0116348Y0157362D01*
X0122892Y0157362D01*
X0123420Y0157889D01*
X0123420Y0163753D01*
X0122892Y0164280D01*
X0115848Y0164280D01*
X0115320Y0163753D01*
X0115320Y0159729D01*
X0113873Y0158281D01*
X0113170Y0157578D01*
X0113170Y0156522D01*
X0112892Y0156800D01*
X0105848Y0156800D01*
X0105570Y0156522D01*
X0105570Y0156584D01*
X0106348Y0157362D01*
X0112892Y0157362D01*
X0113420Y0157889D01*
X0113420Y0163753D01*
X0112892Y0164280D01*
X0105848Y0164280D01*
X0105320Y0163753D01*
X0105320Y0159729D01*
X0103873Y0158281D01*
X0103170Y0157578D01*
X0103170Y0156522D01*
X0102892Y0156800D01*
X0095848Y0156800D01*
X0095686Y0156638D01*
X0095686Y0157524D01*
X0095848Y0157362D01*
X0102892Y0157362D01*
X0103420Y0157889D01*
X0103420Y0163753D01*
X0102892Y0164280D01*
X0100570Y0164280D01*
X0100570Y0164903D01*
X0101759Y0166092D01*
X0101759Y0168071D01*
X0100360Y0169470D01*
X0098381Y0169470D01*
X0096981Y0168071D01*
X0096981Y0166092D01*
X0097661Y0165412D02*
X0071300Y0165412D01*
X0071300Y0164813D02*
X0098170Y0164813D01*
X0100570Y0164813D02*
X0143148Y0164813D01*
X0143148Y0164215D02*
X0132958Y0164215D01*
X0133420Y0163616D02*
X0143148Y0163616D01*
X0143148Y0163018D02*
X0133420Y0163018D01*
X0133420Y0162419D02*
X0143148Y0162419D01*
X0143148Y0161821D02*
X0133420Y0161821D01*
X0133420Y0161222D02*
X0143148Y0161222D01*
X0143148Y0160624D02*
X0133420Y0160624D01*
X0133420Y0160025D02*
X0143148Y0160025D01*
X0143148Y0159427D02*
X0133420Y0159427D01*
X0133420Y0158828D02*
X0143148Y0158828D01*
X0143148Y0158230D02*
X0133420Y0158230D01*
X0133161Y0157631D02*
X0143148Y0157631D01*
X0143148Y0157032D02*
X0133158Y0157032D01*
X0133021Y0157111D02*
X0132691Y0157200D01*
X0129670Y0157200D01*
X0129670Y0153641D01*
X0133820Y0153641D01*
X0133820Y0156071D01*
X0133731Y0156402D01*
X0133560Y0156698D01*
X0133318Y0156940D01*
X0133021Y0157111D01*
X0133713Y0156434D02*
X0143148Y0156434D01*
X0143148Y0155835D02*
X0133820Y0155835D01*
X0133820Y0155237D02*
X0143148Y0155237D01*
X0143148Y0154638D02*
X0133820Y0154638D01*
X0133820Y0154040D02*
X0143148Y0154040D01*
X0143148Y0153441D02*
X0129670Y0153441D01*
X0129670Y0152843D02*
X0129070Y0152843D01*
X0129070Y0152244D02*
X0129670Y0152244D01*
X0129670Y0151646D02*
X0129070Y0151646D01*
X0129070Y0151047D02*
X0129670Y0151047D01*
X0129670Y0150449D02*
X0129070Y0150449D01*
X0129070Y0149850D02*
X0129670Y0149850D01*
X0133427Y0149850D02*
X0143148Y0149850D01*
X0143148Y0149252D02*
X0120570Y0149252D01*
X0120570Y0149850D02*
X0125314Y0149850D01*
X0124964Y0150449D02*
X0123420Y0150449D01*
X0124370Y0152081D02*
X0120630Y0152081D01*
X0119370Y0153341D01*
X0119370Y0137317D01*
X0117289Y0137282D02*
X0114661Y0137282D01*
X0114661Y0137027D02*
X0114661Y0137608D01*
X0116851Y0137608D01*
X0116851Y0141819D01*
X0116763Y0142150D01*
X0116591Y0142446D01*
X0116349Y0142688D01*
X0116053Y0142859D01*
X0115722Y0142948D01*
X0114661Y0142948D01*
X0114661Y0137608D01*
X0114080Y0137608D01*
X0114080Y0142948D01*
X0113018Y0142948D01*
X0112687Y0142859D01*
X0112391Y0142688D01*
X0112149Y0142446D01*
X0111978Y0142150D01*
X0111889Y0141819D01*
X0111889Y0137608D01*
X0114079Y0137608D01*
X0114079Y0137027D01*
X0111889Y0137027D01*
X0111889Y0132815D01*
X0111978Y0132485D01*
X0112149Y0132188D01*
X0112391Y0131946D01*
X0112687Y0131775D01*
X0113018Y0131687D01*
X0114080Y0131687D01*
X0114080Y0137027D01*
X0114661Y0137027D01*
X0116851Y0137027D01*
X0116851Y0132815D01*
X0116763Y0132485D01*
X0116591Y0132188D01*
X0116349Y0131946D01*
X0116053Y0131775D01*
X0115722Y0131687D01*
X0114661Y0131687D01*
X0114661Y0137027D01*
X0114661Y0136683D02*
X0114080Y0136683D01*
X0114080Y0136085D02*
X0114661Y0136085D01*
X0114661Y0135486D02*
X0114080Y0135486D01*
X0114080Y0134888D02*
X0114661Y0134888D01*
X0114661Y0134289D02*
X0114080Y0134289D01*
X0114080Y0133691D02*
X0114661Y0133691D01*
X0114661Y0133092D02*
X0114080Y0133092D01*
X0114080Y0132494D02*
X0114661Y0132494D01*
X0114661Y0131895D02*
X0114080Y0131895D01*
X0112480Y0131895D02*
X0105570Y0131895D01*
X0105570Y0132087D02*
X0105924Y0132087D01*
X0106451Y0132614D01*
X0106451Y0142021D01*
X0105924Y0142548D01*
X0102816Y0142548D01*
X0102289Y0142021D01*
X0102289Y0132614D01*
X0102816Y0132087D01*
X0103170Y0132087D01*
X0103170Y0122076D01*
X0102816Y0122076D01*
X0102289Y0121548D01*
X0102289Y0112141D01*
X0102816Y0111614D01*
X0105924Y0111614D01*
X0106451Y0112141D01*
X0106451Y0121548D01*
X0105924Y0122076D01*
X0105570Y0122076D01*
X0105570Y0125881D01*
X0124867Y0125881D01*
X0125570Y0126584D01*
X0125570Y0132087D01*
X0125924Y0132087D01*
X0126339Y0132502D01*
X0126405Y0132523D01*
X0126864Y0133405D01*
X0126451Y0134712D01*
X0126451Y0142021D01*
X0125924Y0142548D01*
X0125570Y0142548D01*
X0125570Y0145881D01*
X0144867Y0145881D01*
X0145570Y0146584D01*
X0145570Y0147578D01*
X0145548Y0147600D01*
X0145548Y0170835D01*
X0145881Y0170835D01*
X0148048Y0173002D01*
X0148048Y0176068D01*
X0145881Y0178235D01*
X0142816Y0178235D01*
X0140648Y0176068D01*
X0140648Y0173002D01*
X0142816Y0170835D01*
X0143148Y0170835D01*
X0143148Y0148281D01*
X0124867Y0148281D01*
X0123873Y0148281D01*
X0123170Y0147578D01*
X0123170Y0142548D01*
X0122816Y0142548D01*
X0122289Y0142021D01*
X0122289Y0132614D01*
X0122816Y0132087D01*
X0123170Y0132087D01*
X0123170Y0128281D01*
X0105570Y0128281D01*
X0105570Y0132087D01*
X0105570Y0131297D02*
X0123170Y0131297D01*
X0123170Y0131895D02*
X0116260Y0131895D01*
X0116765Y0132494D02*
X0117409Y0132494D01*
X0117289Y0133092D02*
X0116851Y0133092D01*
X0116851Y0133691D02*
X0117289Y0133691D01*
X0117289Y0134289D02*
X0116851Y0134289D01*
X0116851Y0134888D02*
X0117289Y0134888D01*
X0117289Y0135486D02*
X0116851Y0135486D01*
X0116851Y0136085D02*
X0117289Y0136085D01*
X0117289Y0136683D02*
X0116851Y0136683D01*
X0116851Y0137880D02*
X0117289Y0137880D01*
X0117289Y0138479D02*
X0116851Y0138479D01*
X0116851Y0139077D02*
X0117289Y0139077D01*
X0117289Y0139676D02*
X0116851Y0139676D01*
X0116851Y0140274D02*
X0117289Y0140274D01*
X0117289Y0140873D02*
X0116851Y0140873D01*
X0116851Y0141471D02*
X0117289Y0141471D01*
X0117338Y0142070D02*
X0116784Y0142070D01*
X0116369Y0142668D02*
X0118170Y0142668D01*
X0118170Y0143267D02*
X0110570Y0143267D01*
X0110570Y0143865D02*
X0118170Y0143865D01*
X0118170Y0144464D02*
X0110570Y0144464D01*
X0110570Y0145062D02*
X0118170Y0145062D01*
X0118170Y0145661D02*
X0110570Y0145661D01*
X0110570Y0146259D02*
X0118170Y0146259D01*
X0118170Y0146858D02*
X0110570Y0146858D01*
X0110570Y0147456D02*
X0118170Y0147456D01*
X0118170Y0148055D02*
X0110570Y0148055D01*
X0110570Y0148653D02*
X0118170Y0148653D01*
X0118170Y0149252D02*
X0110570Y0149252D01*
X0110570Y0149850D02*
X0118170Y0149850D01*
X0120570Y0148653D02*
X0143148Y0148653D01*
X0143148Y0150449D02*
X0133776Y0150449D01*
X0133820Y0151047D02*
X0143148Y0151047D01*
X0143148Y0151646D02*
X0133820Y0151646D01*
X0133820Y0152244D02*
X0143148Y0152244D01*
X0143148Y0152843D02*
X0133820Y0152843D01*
X0129670Y0154040D02*
X0129070Y0154040D01*
X0129070Y0154638D02*
X0129670Y0154638D01*
X0129670Y0155237D02*
X0129070Y0155237D01*
X0129070Y0155835D02*
X0129670Y0155835D01*
X0129670Y0156434D02*
X0129070Y0156434D01*
X0129070Y0157032D02*
X0129670Y0157032D01*
X0129370Y0160821D02*
X0128110Y0160821D01*
X0124370Y0157081D01*
X0124370Y0152081D01*
X0123647Y0148055D02*
X0120570Y0148055D01*
X0120570Y0147456D02*
X0123170Y0147456D01*
X0123170Y0146858D02*
X0120570Y0146858D01*
X0120570Y0146259D02*
X0123170Y0146259D01*
X0123170Y0145661D02*
X0120570Y0145661D01*
X0120570Y0145062D02*
X0123170Y0145062D01*
X0123170Y0144464D02*
X0120570Y0144464D01*
X0120570Y0143865D02*
X0123170Y0143865D01*
X0123170Y0143267D02*
X0120570Y0143267D01*
X0120570Y0142668D02*
X0123170Y0142668D01*
X0122338Y0142070D02*
X0121402Y0142070D01*
X0121451Y0141471D02*
X0122289Y0141471D01*
X0122289Y0140873D02*
X0121451Y0140873D01*
X0121451Y0140274D02*
X0122289Y0140274D01*
X0122289Y0139676D02*
X0121451Y0139676D01*
X0121451Y0139077D02*
X0122289Y0139077D01*
X0122289Y0138479D02*
X0121451Y0138479D01*
X0121451Y0137880D02*
X0122289Y0137880D01*
X0122289Y0137282D02*
X0121451Y0137282D01*
X0121451Y0136683D02*
X0122289Y0136683D01*
X0122289Y0136085D02*
X0121451Y0136085D01*
X0121451Y0135486D02*
X0122289Y0135486D01*
X0122289Y0134888D02*
X0121451Y0134888D01*
X0121451Y0134289D02*
X0122289Y0134289D01*
X0122289Y0133691D02*
X0121451Y0133691D01*
X0121451Y0133092D02*
X0122289Y0133092D01*
X0122409Y0132494D02*
X0121331Y0132494D01*
X0123170Y0130698D02*
X0105570Y0130698D01*
X0105570Y0130099D02*
X0123170Y0130099D01*
X0123170Y0129501D02*
X0105570Y0129501D01*
X0105570Y0128902D02*
X0123170Y0128902D01*
X0123170Y0128304D02*
X0105570Y0128304D01*
X0104370Y0127081D02*
X0124370Y0127081D01*
X0124370Y0137317D01*
X0124370Y0147081D01*
X0144370Y0147081D01*
X0144348Y0147103D01*
X0144348Y0174535D01*
X0141655Y0171995D02*
X0137041Y0171995D01*
X0136443Y0171397D02*
X0142254Y0171397D01*
X0143148Y0170798D02*
X0126410Y0170798D01*
X0126047Y0170435D02*
X0128448Y0172837D01*
X0128448Y0174235D01*
X0124648Y0174235D01*
X0124648Y0170435D01*
X0126047Y0170435D01*
X0127009Y0171397D02*
X0132254Y0171397D01*
X0132816Y0170835D02*
X0135881Y0170835D01*
X0138048Y0173002D01*
X0138048Y0176068D01*
X0135881Y0178235D01*
X0132816Y0178235D01*
X0130648Y0176068D01*
X0130648Y0173002D01*
X0132816Y0170835D01*
X0131655Y0171995D02*
X0127607Y0171995D01*
X0128206Y0172594D02*
X0131057Y0172594D01*
X0130648Y0173192D02*
X0128448Y0173192D01*
X0128448Y0173791D02*
X0130648Y0173791D01*
X0130648Y0174389D02*
X0124648Y0174389D01*
X0124648Y0174235D02*
X0124648Y0174835D01*
X0124048Y0174835D01*
X0124048Y0174235D01*
X0120248Y0174235D01*
X0120248Y0172837D01*
X0122650Y0170435D01*
X0124048Y0170435D01*
X0124048Y0174235D01*
X0124648Y0174235D01*
X0124648Y0173791D02*
X0124048Y0173791D01*
X0124048Y0174389D02*
X0112265Y0174389D01*
X0112265Y0173791D02*
X0120248Y0173791D01*
X0120248Y0173192D02*
X0112265Y0173192D01*
X0112265Y0173039D02*
X0112265Y0175469D01*
X0108115Y0175469D01*
X0108115Y0171910D01*
X0111136Y0171910D01*
X0111467Y0171999D01*
X0111763Y0172170D01*
X0112005Y0172412D01*
X0112176Y0172708D01*
X0112265Y0173039D01*
X0112110Y0172594D02*
X0120491Y0172594D01*
X0121090Y0171995D02*
X0111454Y0171995D01*
X0108115Y0171995D02*
X0107515Y0171995D01*
X0107515Y0171910D02*
X0107515Y0175469D01*
X0103366Y0175469D01*
X0103366Y0173039D01*
X0103454Y0172708D01*
X0103625Y0172412D01*
X0103867Y0172170D01*
X0104164Y0171999D01*
X0104494Y0171910D01*
X0107515Y0171910D01*
X0107515Y0172594D02*
X0108115Y0172594D01*
X0108115Y0173192D02*
X0107515Y0173192D01*
X0107515Y0173791D02*
X0108115Y0173791D01*
X0108115Y0174389D02*
X0107515Y0174389D01*
X0107515Y0174988D02*
X0108115Y0174988D01*
X0108115Y0175469D02*
X0107515Y0175469D01*
X0107515Y0176069D01*
X0103366Y0176069D01*
X0103366Y0178499D01*
X0103454Y0178830D01*
X0103625Y0179126D01*
X0103867Y0179368D01*
X0104164Y0179540D01*
X0104494Y0179628D01*
X0107515Y0179628D01*
X0107515Y0176069D01*
X0108115Y0176069D01*
X0108115Y0179628D01*
X0111136Y0179628D01*
X0111467Y0179540D01*
X0111763Y0179368D01*
X0112005Y0179126D01*
X0112176Y0178830D01*
X0112265Y0178499D01*
X0112265Y0176069D01*
X0108115Y0176069D01*
X0108115Y0175469D01*
X0108115Y0175586D02*
X0120248Y0175586D01*
X0120248Y0174988D02*
X0112265Y0174988D01*
X0112265Y0176185D02*
X0120248Y0176185D01*
X0120248Y0176233D02*
X0120248Y0174835D01*
X0124048Y0174835D01*
X0124048Y0178635D01*
X0122650Y0178635D01*
X0120248Y0176233D01*
X0120799Y0176783D02*
X0112265Y0176783D01*
X0112265Y0177382D02*
X0121397Y0177382D01*
X0121996Y0177980D02*
X0112265Y0177980D01*
X0112243Y0178579D02*
X0122594Y0178579D01*
X0124048Y0178579D02*
X0124648Y0178579D01*
X0124648Y0178635D02*
X0126047Y0178635D01*
X0128448Y0176233D01*
X0128448Y0174835D01*
X0124648Y0174835D01*
X0124648Y0178635D01*
X0124648Y0177980D02*
X0124048Y0177980D01*
X0124048Y0177382D02*
X0124648Y0177382D01*
X0124648Y0176783D02*
X0124048Y0176783D01*
X0124048Y0176185D02*
X0124648Y0176185D01*
X0124648Y0175586D02*
X0124048Y0175586D01*
X0124048Y0174988D02*
X0124648Y0174988D01*
X0124648Y0173192D02*
X0124048Y0173192D01*
X0124048Y0172594D02*
X0124648Y0172594D01*
X0124648Y0171995D02*
X0124048Y0171995D01*
X0124048Y0171397D02*
X0124648Y0171397D01*
X0124648Y0170798D02*
X0124048Y0170798D01*
X0122287Y0170798D02*
X0071300Y0170798D01*
X0071300Y0170200D02*
X0143148Y0170200D01*
X0143148Y0169601D02*
X0071300Y0169601D01*
X0071300Y0169003D02*
X0097913Y0169003D01*
X0097315Y0168404D02*
X0071300Y0168404D01*
X0071300Y0167806D02*
X0096981Y0167806D01*
X0099370Y0167081D02*
X0099370Y0160821D01*
X0094809Y0160821D01*
X0094486Y0160498D01*
X0094486Y0153160D01*
X0089359Y0153160D01*
X0089216Y0153303D01*
X0079408Y0153303D01*
X0079370Y0153341D01*
X0075517Y0153441D02*
X0070255Y0153441D01*
X0071109Y0154040D02*
X0075517Y0154040D01*
X0075517Y0154638D02*
X0071300Y0154638D01*
X0071300Y0155237D02*
X0075517Y0155237D01*
X0075517Y0155835D02*
X0071300Y0155835D01*
X0071300Y0156434D02*
X0075679Y0156434D01*
X0075916Y0157051D02*
X0076246Y0156962D01*
X0079070Y0156962D01*
X0079070Y0160521D01*
X0079670Y0160521D01*
X0079670Y0156962D01*
X0082494Y0156962D01*
X0082825Y0157051D01*
X0083121Y0157222D01*
X0083363Y0157464D01*
X0083534Y0157760D01*
X0083623Y0158091D01*
X0083623Y0160521D01*
X0079670Y0160521D01*
X0079670Y0161121D01*
X0083623Y0161121D01*
X0083623Y0163551D01*
X0083534Y0163882D01*
X0083363Y0164179D01*
X0083121Y0164421D01*
X0082825Y0164592D01*
X0082494Y0164680D01*
X0079670Y0164680D01*
X0079670Y0161121D01*
X0079070Y0161121D01*
X0079070Y0160521D01*
X0075117Y0160521D01*
X0075117Y0158091D01*
X0075206Y0157760D01*
X0075377Y0157464D01*
X0075619Y0157222D01*
X0075916Y0157051D01*
X0075984Y0157032D02*
X0071300Y0157032D01*
X0071300Y0157631D02*
X0075281Y0157631D01*
X0075117Y0158230D02*
X0071300Y0158230D01*
X0071300Y0158828D02*
X0075117Y0158828D01*
X0075117Y0159427D02*
X0071300Y0159427D01*
X0071300Y0160025D02*
X0075117Y0160025D01*
X0075117Y0161121D02*
X0075117Y0163551D01*
X0075206Y0163882D01*
X0075377Y0164179D01*
X0075619Y0164421D01*
X0075916Y0164592D01*
X0076246Y0164680D01*
X0079070Y0164680D01*
X0079070Y0161121D01*
X0075117Y0161121D01*
X0075117Y0161222D02*
X0071300Y0161222D01*
X0071300Y0160624D02*
X0079070Y0160624D01*
X0079070Y0161222D02*
X0079670Y0161222D01*
X0079670Y0160624D02*
X0088916Y0160624D01*
X0088916Y0161222D02*
X0089516Y0161222D01*
X0089516Y0161821D02*
X0088916Y0161821D01*
X0088916Y0162419D02*
X0089516Y0162419D01*
X0089516Y0163018D02*
X0088916Y0163018D01*
X0088916Y0163616D02*
X0089516Y0163616D01*
X0089516Y0164215D02*
X0088916Y0164215D01*
X0085297Y0164215D02*
X0083327Y0164215D01*
X0083606Y0163616D02*
X0084991Y0163616D01*
X0084963Y0163018D02*
X0083623Y0163018D01*
X0083623Y0162419D02*
X0084963Y0162419D01*
X0084963Y0161821D02*
X0083623Y0161821D01*
X0083623Y0161222D02*
X0084963Y0161222D01*
X0084963Y0160025D02*
X0083623Y0160025D01*
X0083623Y0159427D02*
X0084963Y0159427D01*
X0084963Y0158828D02*
X0083623Y0158828D01*
X0083623Y0158230D02*
X0084963Y0158230D01*
X0085105Y0157631D02*
X0083460Y0157631D01*
X0082756Y0157032D02*
X0085728Y0157032D01*
X0085562Y0156434D02*
X0083062Y0156434D01*
X0083223Y0155835D02*
X0085363Y0155835D01*
X0085363Y0155237D02*
X0083223Y0155237D01*
X0083223Y0154638D02*
X0085363Y0154638D01*
X0085363Y0151646D02*
X0083223Y0151646D01*
X0083223Y0151047D02*
X0085363Y0151047D01*
X0085363Y0150449D02*
X0083223Y0150449D01*
X0085884Y0149850D02*
X0019401Y0149850D01*
X0019402Y0149252D02*
X0025450Y0149252D01*
X0025377Y0149179D02*
X0025206Y0148882D01*
X0025117Y0148551D01*
X0025117Y0146121D01*
X0029070Y0146121D01*
X0029070Y0145521D01*
X0029670Y0145521D01*
X0029670Y0141962D01*
X0032494Y0141962D01*
X0032825Y0142051D01*
X0033121Y0142222D01*
X0033363Y0142464D01*
X0033534Y0142760D01*
X0033623Y0143091D01*
X0033623Y0145521D01*
X0029670Y0145521D01*
X0029670Y0146121D01*
X0033623Y0146121D01*
X0033623Y0148551D01*
X0033534Y0148882D01*
X0033363Y0149179D01*
X0033121Y0149421D01*
X0032825Y0149592D01*
X0032494Y0149680D01*
X0029670Y0149680D01*
X0029670Y0146121D01*
X0029070Y0146121D01*
X0029070Y0149680D01*
X0026246Y0149680D01*
X0025916Y0149592D01*
X0025619Y0149421D01*
X0025377Y0149179D01*
X0025145Y0148653D02*
X0019402Y0148653D01*
X0019403Y0148055D02*
X0025117Y0148055D01*
X0025117Y0147456D02*
X0019403Y0147456D01*
X0019403Y0146858D02*
X0025117Y0146858D01*
X0025117Y0146259D02*
X0019404Y0146259D01*
X0019404Y0145661D02*
X0029070Y0145661D01*
X0029070Y0145521D02*
X0025117Y0145521D01*
X0025117Y0143091D01*
X0025206Y0142760D01*
X0025377Y0142464D01*
X0025619Y0142222D01*
X0025916Y0142051D01*
X0026246Y0141962D01*
X0029070Y0141962D01*
X0029070Y0145521D01*
X0029070Y0145062D02*
X0029670Y0145062D01*
X0029670Y0144464D02*
X0029070Y0144464D01*
X0029070Y0143865D02*
X0029670Y0143865D01*
X0029670Y0143267D02*
X0029070Y0143267D01*
X0029070Y0142668D02*
X0029670Y0142668D01*
X0029670Y0142070D02*
X0029070Y0142070D01*
X0026045Y0141800D02*
X0025517Y0141273D01*
X0025517Y0135409D01*
X0026045Y0134882D01*
X0028170Y0134882D01*
X0028170Y0134470D01*
X0027508Y0134470D01*
X0026981Y0133943D01*
X0026981Y0130219D01*
X0027508Y0129692D01*
X0031232Y0129692D01*
X0031759Y0130219D01*
X0031759Y0133943D01*
X0031232Y0134470D01*
X0030570Y0134470D01*
X0030570Y0134882D01*
X0032696Y0134882D01*
X0033223Y0135409D01*
X0033223Y0141273D01*
X0032696Y0141800D01*
X0026045Y0141800D01*
X0025883Y0142070D02*
X0019407Y0142070D01*
X0019406Y0142668D02*
X0025259Y0142668D01*
X0025117Y0143267D02*
X0019406Y0143267D01*
X0019405Y0143865D02*
X0025117Y0143865D01*
X0025117Y0144464D02*
X0019405Y0144464D01*
X0019405Y0145062D02*
X0025117Y0145062D01*
X0025716Y0141471D02*
X0019407Y0141471D01*
X0019407Y0140873D02*
X0025517Y0140873D01*
X0025517Y0140274D02*
X0019408Y0140274D01*
X0019408Y0139676D02*
X0025517Y0139676D01*
X0025517Y0139077D02*
X0019409Y0139077D01*
X0019409Y0138479D02*
X0025517Y0138479D01*
X0025517Y0137880D02*
X0019409Y0137880D01*
X0019410Y0137282D02*
X0025517Y0137282D01*
X0025517Y0136683D02*
X0019410Y0136683D01*
X0019411Y0136085D02*
X0025517Y0136085D01*
X0025517Y0135486D02*
X0019411Y0135486D01*
X0019411Y0134888D02*
X0026039Y0134888D01*
X0027327Y0134289D02*
X0019412Y0134289D01*
X0019412Y0133691D02*
X0026981Y0133691D01*
X0026981Y0133092D02*
X0019413Y0133092D01*
X0019413Y0132494D02*
X0026981Y0132494D01*
X0026981Y0131895D02*
X0019413Y0131895D01*
X0019414Y0131297D02*
X0026981Y0131297D01*
X0026981Y0130698D02*
X0019414Y0130698D01*
X0019415Y0130099D02*
X0027101Y0130099D01*
X0029370Y0132081D02*
X0029370Y0138341D01*
X0033223Y0138479D02*
X0035517Y0138479D01*
X0035517Y0139077D02*
X0033223Y0139077D01*
X0033223Y0139676D02*
X0035517Y0139676D01*
X0035517Y0140274D02*
X0033223Y0140274D01*
X0033223Y0140873D02*
X0035517Y0140873D01*
X0035517Y0141273D02*
X0035517Y0135409D01*
X0036045Y0134882D01*
X0038170Y0134882D01*
X0038170Y0134470D01*
X0037508Y0134470D01*
X0036981Y0133943D01*
X0036981Y0130219D01*
X0037508Y0129692D01*
X0041232Y0129692D01*
X0041759Y0130219D01*
X0041759Y0133943D01*
X0041232Y0134470D01*
X0040570Y0134470D01*
X0040570Y0134882D01*
X0042696Y0134882D01*
X0043223Y0135409D01*
X0043223Y0137141D01*
X0047525Y0137141D01*
X0047525Y0134661D01*
X0048052Y0134134D01*
X0052735Y0134134D01*
X0053262Y0134661D01*
X0053262Y0141706D01*
X0052735Y0142233D01*
X0048052Y0142233D01*
X0047525Y0141706D01*
X0047525Y0139541D01*
X0043223Y0139541D01*
X0043223Y0141273D01*
X0042696Y0141800D01*
X0036045Y0141800D01*
X0035517Y0141273D01*
X0035716Y0141471D02*
X0033024Y0141471D01*
X0032857Y0142070D02*
X0035883Y0142070D01*
X0035916Y0142051D02*
X0036246Y0141962D01*
X0039070Y0141962D01*
X0039070Y0145521D01*
X0039670Y0145521D01*
X0039670Y0141962D01*
X0042494Y0141962D01*
X0042825Y0142051D01*
X0043121Y0142222D01*
X0043363Y0142464D01*
X0043534Y0142760D01*
X0043623Y0143091D01*
X0043623Y0145521D01*
X0039670Y0145521D01*
X0039670Y0146121D01*
X0043623Y0146121D01*
X0043623Y0148551D01*
X0043534Y0148882D01*
X0043363Y0149179D01*
X0043121Y0149421D01*
X0042825Y0149592D01*
X0042494Y0149680D01*
X0039670Y0149680D01*
X0039670Y0146121D01*
X0039070Y0146121D01*
X0039070Y0145521D01*
X0035117Y0145521D01*
X0035117Y0143091D01*
X0035206Y0142760D01*
X0035377Y0142464D01*
X0035619Y0142222D01*
X0035916Y0142051D01*
X0035259Y0142668D02*
X0033481Y0142668D01*
X0033623Y0143267D02*
X0035117Y0143267D01*
X0035117Y0143865D02*
X0033623Y0143865D01*
X0033623Y0144464D02*
X0035117Y0144464D01*
X0035117Y0145062D02*
X0033623Y0145062D01*
X0033623Y0146259D02*
X0035117Y0146259D01*
X0035117Y0146121D02*
X0035117Y0148551D01*
X0035206Y0148882D01*
X0035377Y0149179D01*
X0035619Y0149421D01*
X0035916Y0149592D01*
X0036246Y0149680D01*
X0039070Y0149680D01*
X0039070Y0146121D01*
X0035117Y0146121D01*
X0035117Y0146858D02*
X0033623Y0146858D01*
X0033623Y0147456D02*
X0035117Y0147456D01*
X0035117Y0148055D02*
X0033623Y0148055D01*
X0033596Y0148653D02*
X0035145Y0148653D01*
X0035450Y0149252D02*
X0033290Y0149252D01*
X0029670Y0149252D02*
X0029070Y0149252D01*
X0029070Y0148653D02*
X0029670Y0148653D01*
X0029670Y0148055D02*
X0029070Y0148055D01*
X0029070Y0147456D02*
X0029670Y0147456D01*
X0029670Y0146858D02*
X0029070Y0146858D01*
X0029070Y0146259D02*
X0029670Y0146259D01*
X0029670Y0145661D02*
X0039070Y0145661D01*
X0039070Y0146259D02*
X0039670Y0146259D01*
X0039670Y0145661D02*
X0084631Y0145661D01*
X0084354Y0145062D02*
X0043623Y0145062D01*
X0043623Y0144464D02*
X0084354Y0144464D01*
X0084354Y0143865D02*
X0043623Y0143865D01*
X0043623Y0143267D02*
X0083918Y0143267D01*
X0083320Y0142668D02*
X0043481Y0142668D01*
X0042857Y0142070D02*
X0047889Y0142070D01*
X0047525Y0141471D02*
X0043024Y0141471D01*
X0043223Y0140873D02*
X0047525Y0140873D01*
X0047525Y0140274D02*
X0043223Y0140274D01*
X0043223Y0139676D02*
X0047525Y0139676D01*
X0047525Y0136683D02*
X0043223Y0136683D01*
X0043223Y0136085D02*
X0047525Y0136085D01*
X0047525Y0135486D02*
X0043223Y0135486D01*
X0042701Y0134888D02*
X0047525Y0134888D01*
X0047897Y0134289D02*
X0041413Y0134289D01*
X0041759Y0133691D02*
X0066981Y0133691D01*
X0066981Y0133092D02*
X0041759Y0133092D01*
X0041759Y0132494D02*
X0066981Y0132494D01*
X0066981Y0131895D02*
X0041759Y0131895D01*
X0041759Y0131297D02*
X0066981Y0131297D01*
X0066981Y0130698D02*
X0041759Y0130698D01*
X0041639Y0130099D02*
X0067101Y0130099D01*
X0069370Y0132081D02*
X0075630Y0132081D01*
X0079089Y0131895D02*
X0079651Y0131895D01*
X0079651Y0131297D02*
X0079089Y0131297D01*
X0079089Y0130698D02*
X0079651Y0130698D01*
X0079651Y0130099D02*
X0079089Y0130099D01*
X0079089Y0129501D02*
X0079651Y0129501D01*
X0079651Y0128902D02*
X0079089Y0128902D01*
X0078834Y0128304D02*
X0079906Y0128304D01*
X0079651Y0128559D02*
X0080178Y0128031D01*
X0081910Y0128031D01*
X0081910Y0127844D01*
X0083170Y0126584D01*
X0083170Y0126524D01*
X0082934Y0126524D01*
X0082407Y0125997D01*
X0082407Y0118165D01*
X0082934Y0117638D01*
X0087116Y0117638D01*
X0091970Y0112784D01*
X0091970Y0102784D01*
X0093170Y0101584D01*
X0093273Y0101481D01*
X0093170Y0101378D01*
X0093170Y0093281D01*
X0079867Y0093281D01*
X0076830Y0096318D01*
X0076830Y0098031D01*
X0078562Y0098031D01*
X0079089Y0098559D01*
X0079089Y0105603D01*
X0078811Y0105881D01*
X0079426Y0105881D01*
X0079340Y0105732D01*
X0079251Y0105402D01*
X0079251Y0102381D01*
X0082810Y0102381D01*
X0082810Y0101781D01*
X0079251Y0101781D01*
X0079251Y0098760D01*
X0079340Y0098430D01*
X0079511Y0098133D01*
X0079753Y0097891D01*
X0080049Y0097720D01*
X0080380Y0097631D01*
X0082810Y0097631D01*
X0082810Y0101781D01*
X0083410Y0101781D01*
X0083410Y0097631D01*
X0085840Y0097631D01*
X0086171Y0097720D01*
X0086468Y0097891D01*
X0086710Y0098133D01*
X0086881Y0098430D01*
X0086969Y0098760D01*
X0086969Y0101781D01*
X0083410Y0101781D01*
X0083410Y0102381D01*
X0082810Y0102381D01*
X0082810Y0106531D01*
X0080517Y0106531D01*
X0080570Y0106584D01*
X0082018Y0108031D01*
X0086042Y0108031D01*
X0086569Y0108559D01*
X0086569Y0115603D01*
X0086042Y0116131D01*
X0080178Y0116131D01*
X0079651Y0115603D01*
X0079651Y0109059D01*
X0078873Y0108281D01*
X0078811Y0108281D01*
X0079089Y0108559D01*
X0079089Y0115603D01*
X0078562Y0116131D01*
X0072698Y0116131D01*
X0072171Y0115603D01*
X0072171Y0113281D01*
X0071759Y0113281D01*
X0071759Y0113943D01*
X0071232Y0114470D01*
X0067508Y0114470D01*
X0066981Y0113943D01*
X0066981Y0110219D01*
X0067508Y0109692D01*
X0071232Y0109692D01*
X0071759Y0110219D01*
X0071759Y0110881D01*
X0072171Y0110881D01*
X0072171Y0108559D01*
X0072698Y0108031D01*
X0073623Y0108031D01*
X0073170Y0107578D01*
X0073170Y0106131D01*
X0072698Y0106131D01*
X0072171Y0105603D01*
X0072171Y0098559D01*
X0072698Y0098031D01*
X0074430Y0098031D01*
X0074430Y0095324D01*
X0078170Y0091584D01*
X0078873Y0090881D01*
X0094867Y0090881D01*
X0095570Y0091584D01*
X0095570Y0099681D01*
X0123667Y0099681D01*
X0124867Y0100881D01*
X0125570Y0101584D01*
X0125570Y0111614D01*
X0125924Y0111614D01*
X0126451Y0112141D01*
X0126451Y0121548D01*
X0125924Y0122076D01*
X0122816Y0122076D01*
X0122289Y0121548D01*
X0122289Y0112141D01*
X0122816Y0111614D01*
X0123170Y0111614D01*
X0123170Y0102578D01*
X0122673Y0102081D01*
X0120570Y0102081D01*
X0120570Y0111614D01*
X0120924Y0111614D01*
X0121451Y0112141D01*
X0121451Y0121548D01*
X0120924Y0122076D01*
X0117816Y0122076D01*
X0117289Y0121548D01*
X0117289Y0112141D01*
X0117816Y0111614D01*
X0118170Y0111614D01*
X0118170Y0103281D01*
X0094867Y0103281D01*
X0094370Y0103778D01*
X0094370Y0113778D01*
X0093667Y0114481D01*
X0089719Y0118429D01*
X0089719Y0125997D01*
X0089192Y0126524D01*
X0085570Y0126524D01*
X0085570Y0127578D01*
X0085117Y0128031D01*
X0086042Y0128031D01*
X0086569Y0128559D01*
X0086569Y0135603D01*
X0086042Y0136131D01*
X0080178Y0136131D01*
X0079651Y0135603D01*
X0079651Y0128559D01*
X0076473Y0126423D02*
X0076231Y0126665D01*
X0075935Y0126836D01*
X0075604Y0126924D01*
X0072977Y0126924D01*
X0072977Y0122381D01*
X0072377Y0122381D01*
X0072377Y0121781D01*
X0068621Y0121781D01*
X0068621Y0118367D01*
X0068710Y0118036D01*
X0068881Y0117740D01*
X0069123Y0117498D01*
X0069420Y0117326D01*
X0069750Y0117238D01*
X0072377Y0117238D01*
X0072377Y0121781D01*
X0072977Y0121781D01*
X0072977Y0117238D01*
X0075604Y0117238D01*
X0075935Y0117326D01*
X0076231Y0117498D01*
X0076473Y0117740D01*
X0076644Y0118036D01*
X0076733Y0118367D01*
X0076733Y0121781D01*
X0072977Y0121781D01*
X0072977Y0122381D01*
X0076733Y0122381D01*
X0076733Y0125796D01*
X0076644Y0126126D01*
X0076473Y0126423D01*
X0076388Y0126508D02*
X0082918Y0126508D01*
X0082647Y0127107D02*
X0019417Y0127107D01*
X0019416Y0127705D02*
X0082049Y0127705D01*
X0083110Y0128341D02*
X0084370Y0127081D01*
X0084370Y0123774D01*
X0086063Y0122081D01*
X0086063Y0120388D01*
X0093170Y0113281D01*
X0093170Y0103281D01*
X0094370Y0102081D01*
X0119370Y0102081D01*
X0119370Y0116845D01*
X0117289Y0116932D02*
X0116451Y0116932D01*
X0116451Y0116334D02*
X0117289Y0116334D01*
X0117289Y0115735D02*
X0116451Y0115735D01*
X0116451Y0115137D02*
X0117289Y0115137D01*
X0117289Y0114538D02*
X0116451Y0114538D01*
X0116451Y0113940D02*
X0117289Y0113940D01*
X0117289Y0113341D02*
X0116451Y0113341D01*
X0116451Y0112743D02*
X0117289Y0112743D01*
X0117289Y0112144D02*
X0116451Y0112144D01*
X0116451Y0112141D02*
X0116451Y0121548D01*
X0115924Y0122076D01*
X0112816Y0122076D01*
X0112289Y0121548D01*
X0112289Y0118045D01*
X0111451Y0118045D01*
X0111451Y0121548D01*
X0110924Y0122076D01*
X0107816Y0122076D01*
X0107289Y0121548D01*
X0107289Y0112141D01*
X0107816Y0111614D01*
X0110924Y0111614D01*
X0111451Y0112141D01*
X0111451Y0115645D01*
X0112289Y0115645D01*
X0112289Y0112141D01*
X0112816Y0111614D01*
X0113170Y0111614D01*
X0113170Y0109260D01*
X0111981Y0108071D01*
X0111981Y0106092D01*
X0113381Y0104692D01*
X0115360Y0104692D01*
X0116759Y0106092D01*
X0116759Y0108071D01*
X0115570Y0109260D01*
X0115570Y0111614D01*
X0115924Y0111614D01*
X0116451Y0112141D01*
X0115570Y0111546D02*
X0118170Y0111546D01*
X0118170Y0110947D02*
X0115570Y0110947D01*
X0115570Y0110349D02*
X0118170Y0110349D01*
X0118170Y0109750D02*
X0115570Y0109750D01*
X0115678Y0109152D02*
X0118170Y0109152D01*
X0118170Y0108553D02*
X0116277Y0108553D01*
X0116759Y0107955D02*
X0118170Y0107955D01*
X0118170Y0107356D02*
X0116759Y0107356D01*
X0116759Y0106758D02*
X0118170Y0106758D01*
X0118170Y0106159D02*
X0116759Y0106159D01*
X0116228Y0105561D02*
X0118170Y0105561D01*
X0118170Y0104962D02*
X0115630Y0104962D01*
X0114370Y0107081D02*
X0114370Y0116845D01*
X0109370Y0116845D01*
X0107289Y0116932D02*
X0106451Y0116932D01*
X0106451Y0116334D02*
X0107289Y0116334D01*
X0107289Y0115735D02*
X0106451Y0115735D01*
X0106451Y0115137D02*
X0107289Y0115137D01*
X0107289Y0114538D02*
X0106451Y0114538D01*
X0106451Y0113940D02*
X0107289Y0113940D01*
X0107289Y0113341D02*
X0106451Y0113341D01*
X0106451Y0112743D02*
X0107289Y0112743D01*
X0107289Y0112144D02*
X0106451Y0112144D01*
X0102289Y0112144D02*
X0101451Y0112144D01*
X0101451Y0112141D02*
X0100924Y0111614D01*
X0100570Y0111614D01*
X0100570Y0109260D01*
X0101759Y0108071D01*
X0101759Y0106092D01*
X0100360Y0104692D01*
X0098381Y0104692D01*
X0096981Y0106092D01*
X0096981Y0108071D01*
X0098170Y0109260D01*
X0098170Y0111614D01*
X0097816Y0111614D01*
X0097289Y0112141D01*
X0097289Y0121548D01*
X0097816Y0122076D01*
X0100924Y0122076D01*
X0101451Y0121548D01*
X0101451Y0112141D01*
X0101451Y0112743D02*
X0102289Y0112743D01*
X0102289Y0113341D02*
X0101451Y0113341D01*
X0101451Y0113940D02*
X0102289Y0113940D01*
X0102289Y0114538D02*
X0101451Y0114538D01*
X0101451Y0115137D02*
X0102289Y0115137D01*
X0102289Y0115735D02*
X0101451Y0115735D01*
X0101451Y0116334D02*
X0102289Y0116334D01*
X0102289Y0116932D02*
X0101451Y0116932D01*
X0101451Y0117531D02*
X0102289Y0117531D01*
X0102289Y0118129D02*
X0101451Y0118129D01*
X0101451Y0118728D02*
X0102289Y0118728D01*
X0102289Y0119326D02*
X0101451Y0119326D01*
X0101451Y0119925D02*
X0102289Y0119925D01*
X0102289Y0120523D02*
X0101451Y0120523D01*
X0101451Y0121122D02*
X0102289Y0121122D01*
X0102461Y0121720D02*
X0101279Y0121720D01*
X0103170Y0122319D02*
X0089719Y0122319D01*
X0089719Y0122917D02*
X0103170Y0122917D01*
X0103170Y0123516D02*
X0089719Y0123516D01*
X0089719Y0124114D02*
X0103170Y0124114D01*
X0103170Y0124713D02*
X0100380Y0124713D01*
X0100360Y0124692D02*
X0101759Y0126092D01*
X0101759Y0128071D01*
X0100570Y0129260D01*
X0100570Y0132087D01*
X0100924Y0132087D01*
X0101451Y0132614D01*
X0101451Y0142021D01*
X0100924Y0142548D01*
X0097816Y0142548D01*
X0097289Y0142021D01*
X0097289Y0132614D01*
X0097816Y0132087D01*
X0098170Y0132087D01*
X0098170Y0129260D01*
X0096981Y0128071D01*
X0096981Y0126092D01*
X0098381Y0124692D01*
X0100360Y0124692D01*
X0100979Y0125311D02*
X0103170Y0125311D01*
X0103170Y0125910D02*
X0101577Y0125910D01*
X0101759Y0126508D02*
X0103170Y0126508D01*
X0103170Y0127107D02*
X0101759Y0127107D01*
X0101759Y0127705D02*
X0103170Y0127705D01*
X0103170Y0128304D02*
X0101526Y0128304D01*
X0100927Y0128902D02*
X0103170Y0128902D01*
X0103170Y0129501D02*
X0100570Y0129501D01*
X0100570Y0130099D02*
X0103170Y0130099D01*
X0103170Y0130698D02*
X0100570Y0130698D01*
X0100570Y0131297D02*
X0103170Y0131297D01*
X0103170Y0131895D02*
X0100570Y0131895D01*
X0101331Y0132494D02*
X0102409Y0132494D01*
X0102289Y0133092D02*
X0101451Y0133092D01*
X0101451Y0133691D02*
X0102289Y0133691D01*
X0102289Y0134289D02*
X0101451Y0134289D01*
X0101451Y0134888D02*
X0102289Y0134888D01*
X0102289Y0135486D02*
X0101451Y0135486D01*
X0101451Y0136085D02*
X0102289Y0136085D01*
X0102289Y0136683D02*
X0101451Y0136683D01*
X0101451Y0137282D02*
X0102289Y0137282D01*
X0102289Y0137880D02*
X0101451Y0137880D01*
X0101451Y0138479D02*
X0102289Y0138479D01*
X0102289Y0139077D02*
X0101451Y0139077D01*
X0101451Y0139676D02*
X0102289Y0139676D01*
X0102289Y0140274D02*
X0101451Y0140274D01*
X0101451Y0140873D02*
X0102289Y0140873D01*
X0102289Y0141471D02*
X0101451Y0141471D01*
X0101402Y0142070D02*
X0102338Y0142070D01*
X0106402Y0142070D02*
X0107338Y0142070D01*
X0107289Y0141471D02*
X0106451Y0141471D01*
X0106451Y0140873D02*
X0107289Y0140873D01*
X0107289Y0140274D02*
X0106451Y0140274D01*
X0106451Y0139676D02*
X0107289Y0139676D01*
X0107289Y0139077D02*
X0106451Y0139077D01*
X0106451Y0138479D02*
X0107289Y0138479D01*
X0107289Y0137880D02*
X0106451Y0137880D01*
X0106451Y0137282D02*
X0107289Y0137282D01*
X0107289Y0136683D02*
X0106451Y0136683D01*
X0106451Y0136085D02*
X0107289Y0136085D01*
X0107289Y0135486D02*
X0106451Y0135486D01*
X0106451Y0134888D02*
X0107289Y0134888D01*
X0107289Y0134289D02*
X0106451Y0134289D01*
X0106451Y0133691D02*
X0107289Y0133691D01*
X0107289Y0133092D02*
X0106451Y0133092D01*
X0106331Y0132494D02*
X0107409Y0132494D01*
X0111331Y0132494D02*
X0111975Y0132494D01*
X0111889Y0133092D02*
X0111451Y0133092D01*
X0111451Y0133691D02*
X0111889Y0133691D01*
X0111889Y0134289D02*
X0111451Y0134289D01*
X0111451Y0134888D02*
X0111889Y0134888D01*
X0111889Y0135486D02*
X0111451Y0135486D01*
X0111451Y0136085D02*
X0111889Y0136085D01*
X0111889Y0136683D02*
X0111451Y0136683D01*
X0111451Y0137282D02*
X0114079Y0137282D01*
X0114080Y0137880D02*
X0114661Y0137880D01*
X0114661Y0138479D02*
X0114080Y0138479D01*
X0114080Y0139077D02*
X0114661Y0139077D01*
X0114661Y0139676D02*
X0114080Y0139676D01*
X0114080Y0140274D02*
X0114661Y0140274D01*
X0114661Y0140873D02*
X0114080Y0140873D01*
X0114080Y0141471D02*
X0114661Y0141471D01*
X0114661Y0142070D02*
X0114080Y0142070D01*
X0114080Y0142668D02*
X0114661Y0142668D01*
X0112371Y0142668D02*
X0110570Y0142668D01*
X0111402Y0142070D02*
X0111956Y0142070D01*
X0111889Y0141471D02*
X0111451Y0141471D01*
X0111451Y0140873D02*
X0111889Y0140873D01*
X0111889Y0140274D02*
X0111451Y0140274D01*
X0111451Y0139676D02*
X0111889Y0139676D01*
X0111889Y0139077D02*
X0111451Y0139077D01*
X0111451Y0138479D02*
X0111889Y0138479D01*
X0111889Y0137880D02*
X0111451Y0137880D01*
X0109370Y0137317D02*
X0109370Y0152911D01*
X0110200Y0152081D01*
X0114370Y0152081D01*
X0114370Y0157081D01*
X0118110Y0160821D01*
X0119370Y0160821D01*
X0115320Y0160624D02*
X0113420Y0160624D01*
X0113420Y0161222D02*
X0115320Y0161222D01*
X0115320Y0161821D02*
X0113420Y0161821D01*
X0113420Y0162419D02*
X0115320Y0162419D01*
X0115320Y0163018D02*
X0113420Y0163018D01*
X0113420Y0163616D02*
X0115320Y0163616D01*
X0115782Y0164215D02*
X0112958Y0164215D01*
X0113420Y0160025D02*
X0115320Y0160025D01*
X0115018Y0159427D02*
X0113420Y0159427D01*
X0113420Y0158828D02*
X0114420Y0158828D01*
X0113821Y0158230D02*
X0113420Y0158230D01*
X0113223Y0157631D02*
X0113161Y0157631D01*
X0113170Y0157032D02*
X0106019Y0157032D01*
X0104370Y0157081D02*
X0104370Y0152081D01*
X0100630Y0152081D01*
X0099370Y0153341D01*
X0099370Y0152081D01*
X0103420Y0150449D02*
X0105320Y0150449D01*
X0105320Y0151047D02*
X0105033Y0151047D01*
X0108170Y0149850D02*
X0092548Y0149850D01*
X0093069Y0150449D02*
X0095320Y0150449D01*
X0095320Y0151047D02*
X0093069Y0151047D01*
X0093069Y0151646D02*
X0095320Y0151646D01*
X0095320Y0152244D02*
X0095267Y0152244D01*
X0093286Y0154638D02*
X0093069Y0154638D01*
X0093069Y0155237D02*
X0093286Y0155237D01*
X0093286Y0155835D02*
X0093069Y0155835D01*
X0092870Y0156434D02*
X0093286Y0156434D01*
X0093286Y0157032D02*
X0092704Y0157032D01*
X0089516Y0157032D02*
X0088916Y0157032D01*
X0088916Y0157631D02*
X0089516Y0157631D01*
X0089516Y0158230D02*
X0088916Y0158230D01*
X0088916Y0158828D02*
X0089516Y0158828D01*
X0089516Y0159427D02*
X0088916Y0159427D01*
X0088916Y0160025D02*
X0089516Y0160025D01*
X0093469Y0161222D02*
X0093512Y0161222D01*
X0093469Y0161821D02*
X0094111Y0161821D01*
X0093469Y0162419D02*
X0095320Y0162419D01*
X0095320Y0163018D02*
X0093469Y0163018D01*
X0093441Y0163616D02*
X0095320Y0163616D01*
X0095782Y0164215D02*
X0093135Y0164215D01*
X0095686Y0157032D02*
X0103170Y0157032D01*
X0103161Y0157631D02*
X0103223Y0157631D01*
X0103420Y0158230D02*
X0103821Y0158230D01*
X0103420Y0158828D02*
X0104420Y0158828D01*
X0105019Y0159427D02*
X0103420Y0159427D01*
X0103420Y0160025D02*
X0105320Y0160025D01*
X0105320Y0160624D02*
X0103420Y0160624D01*
X0103420Y0161222D02*
X0105320Y0161222D01*
X0105320Y0161821D02*
X0103420Y0161821D01*
X0103420Y0162419D02*
X0105320Y0162419D01*
X0105320Y0163018D02*
X0103420Y0163018D01*
X0103420Y0163616D02*
X0105320Y0163616D01*
X0105782Y0164215D02*
X0102958Y0164215D01*
X0101678Y0166010D02*
X0143148Y0166010D01*
X0143148Y0165412D02*
X0101079Y0165412D01*
X0101759Y0166609D02*
X0143148Y0166609D01*
X0143148Y0167207D02*
X0101759Y0167207D01*
X0101759Y0167806D02*
X0143148Y0167806D01*
X0143148Y0168404D02*
X0101426Y0168404D01*
X0100827Y0169003D02*
X0143148Y0169003D01*
X0145548Y0169003D02*
X0209850Y0169003D01*
X0209850Y0169601D02*
X0145548Y0169601D01*
X0145548Y0170200D02*
X0209850Y0170200D01*
X0209850Y0170798D02*
X0145548Y0170798D01*
X0146443Y0171397D02*
X0209850Y0171397D01*
X0209850Y0171995D02*
X0147041Y0171995D01*
X0147640Y0172594D02*
X0209850Y0172594D01*
X0209850Y0173192D02*
X0174052Y0173192D01*
X0174031Y0173180D02*
X0174327Y0173351D01*
X0174569Y0173593D01*
X0174740Y0173889D01*
X0174829Y0174220D01*
X0174829Y0176650D01*
X0170679Y0176650D01*
X0170679Y0173091D01*
X0173700Y0173091D01*
X0174031Y0173180D01*
X0174683Y0173791D02*
X0209850Y0173791D01*
X0209850Y0174389D02*
X0174829Y0174389D01*
X0174829Y0174988D02*
X0209850Y0174988D01*
X0209850Y0175586D02*
X0174829Y0175586D01*
X0174829Y0176185D02*
X0209850Y0176185D01*
X0209850Y0176783D02*
X0170679Y0176783D01*
X0170679Y0176650D02*
X0170679Y0177250D01*
X0174829Y0177250D01*
X0174829Y0179681D01*
X0174740Y0180011D01*
X0174569Y0180308D01*
X0174327Y0180550D01*
X0174031Y0180721D01*
X0173700Y0180809D01*
X0170679Y0180809D01*
X0170679Y0177250D01*
X0170079Y0177250D01*
X0170079Y0176650D01*
X0170679Y0176650D01*
X0170679Y0176185D02*
X0170079Y0176185D01*
X0170079Y0176650D02*
X0170079Y0173091D01*
X0167058Y0173091D01*
X0166728Y0173180D01*
X0166431Y0173351D01*
X0166189Y0173593D01*
X0166018Y0173889D01*
X0165930Y0174220D01*
X0165930Y0176650D01*
X0170079Y0176650D01*
X0170079Y0176783D02*
X0160116Y0176783D01*
X0160116Y0176801D02*
X0155966Y0176801D01*
X0155966Y0177401D01*
X0155366Y0177401D01*
X0155366Y0180960D01*
X0152346Y0180960D01*
X0152015Y0180871D01*
X0151718Y0180700D01*
X0151476Y0180458D01*
X0151305Y0180161D01*
X0151217Y0179831D01*
X0151217Y0177401D01*
X0155366Y0177401D01*
X0155366Y0176801D01*
X0151217Y0176801D01*
X0151217Y0174370D01*
X0151305Y0174040D01*
X0151476Y0173743D01*
X0151718Y0173501D01*
X0152015Y0173330D01*
X0152346Y0173242D01*
X0155366Y0173242D01*
X0155366Y0176801D01*
X0155966Y0176801D01*
X0155966Y0173242D01*
X0158987Y0173242D01*
X0159318Y0173330D01*
X0159614Y0173501D01*
X0159856Y0173743D01*
X0160027Y0174040D01*
X0160116Y0174370D01*
X0160116Y0176801D01*
X0160116Y0177401D02*
X0160116Y0179831D01*
X0160027Y0180161D01*
X0159856Y0180458D01*
X0159614Y0180700D01*
X0159318Y0180871D01*
X0158987Y0180960D01*
X0155966Y0180960D01*
X0155966Y0177401D01*
X0160116Y0177401D01*
X0160116Y0177980D02*
X0165930Y0177980D01*
X0165930Y0177382D02*
X0155966Y0177382D01*
X0155966Y0177980D02*
X0155366Y0177980D01*
X0155366Y0177382D02*
X0146734Y0177382D01*
X0146136Y0177980D02*
X0151217Y0177980D01*
X0151217Y0178579D02*
X0126103Y0178579D01*
X0126701Y0177980D02*
X0132561Y0177980D01*
X0131963Y0177382D02*
X0127300Y0177382D01*
X0127898Y0176783D02*
X0131364Y0176783D01*
X0130766Y0176185D02*
X0128448Y0176185D01*
X0128448Y0175586D02*
X0130648Y0175586D01*
X0130648Y0174988D02*
X0128448Y0174988D01*
X0126019Y0180973D02*
X0132678Y0180973D01*
X0132816Y0180835D02*
X0135881Y0180835D01*
X0138048Y0183002D01*
X0138048Y0186068D01*
X0135881Y0188235D01*
X0135548Y0188235D01*
X0135548Y0190881D01*
X0168170Y0190881D01*
X0168170Y0187890D01*
X0166857Y0187890D01*
X0166330Y0187362D01*
X0166330Y0181499D01*
X0166857Y0180972D01*
X0173902Y0180972D01*
X0174429Y0181499D01*
X0174429Y0187362D01*
X0173902Y0187890D01*
X0170570Y0187890D01*
X0170570Y0192578D01*
X0169867Y0193281D01*
X0133873Y0193281D01*
X0133851Y0193259D01*
X0133148Y0192556D01*
X0133148Y0188235D01*
X0132816Y0188235D01*
X0130648Y0186068D01*
X0130648Y0183002D01*
X0132816Y0180835D01*
X0132079Y0181571D02*
X0126618Y0181571D01*
X0127216Y0182170D02*
X0131481Y0182170D01*
X0130882Y0182768D02*
X0127815Y0182768D01*
X0128048Y0183367D02*
X0130648Y0183367D01*
X0130648Y0183966D02*
X0128048Y0183966D01*
X0128048Y0184564D02*
X0130648Y0184564D01*
X0130648Y0185163D02*
X0128048Y0185163D01*
X0128048Y0185761D02*
X0130648Y0185761D01*
X0130940Y0186360D02*
X0127756Y0186360D01*
X0127158Y0186958D02*
X0131539Y0186958D01*
X0132137Y0187557D02*
X0126559Y0187557D01*
X0125961Y0188155D02*
X0132736Y0188155D01*
X0133148Y0188754D02*
X0019376Y0188754D01*
X0019376Y0188859D02*
X0019476Y0190144D01*
X0019776Y0191398D01*
X0020268Y0192589D01*
X0020941Y0193689D01*
X0021777Y0194670D01*
X0022757Y0195508D01*
X0023856Y0196183D01*
X0025047Y0196677D01*
X0026300Y0196979D01*
X0027585Y0197081D01*
X0199630Y0197081D01*
X0201085Y0196977D01*
X0202509Y0196667D01*
X0203876Y0196158D01*
X0205156Y0195459D01*
X0206323Y0194585D01*
X0207354Y0193554D01*
X0208228Y0192386D01*
X0208927Y0191106D01*
X0209436Y0189740D01*
X0209746Y0188315D01*
X0209850Y0186861D01*
X0209850Y0069124D01*
X0209728Y0067410D01*
X0209363Y0065730D01*
X0208763Y0064120D01*
X0207939Y0062612D01*
X0206910Y0061236D01*
X0205695Y0060020D01*
X0204319Y0058990D01*
X0202811Y0058166D01*
X0201201Y0057566D01*
X0200994Y0057521D01*
X0025598Y0057521D01*
X0024414Y0058010D01*
X0023200Y0058754D01*
X0022117Y0059679D01*
X0021192Y0060761D01*
X0020447Y0061975D01*
X0019902Y0063290D01*
X0019569Y0064675D01*
X0019457Y0066094D01*
X0019376Y0188859D01*
X0019414Y0189352D02*
X0133148Y0189352D01*
X0133148Y0189951D02*
X0019461Y0189951D01*
X0019573Y0190549D02*
X0133148Y0190549D01*
X0133148Y0191148D02*
X0019716Y0191148D01*
X0019920Y0191746D02*
X0133148Y0191746D01*
X0133148Y0192345D02*
X0020167Y0192345D01*
X0020485Y0192943D02*
X0133535Y0192943D01*
X0134370Y0192081D02*
X0134348Y0192059D01*
X0134348Y0184535D01*
X0137158Y0186958D02*
X0141539Y0186958D01*
X0140940Y0186360D02*
X0137756Y0186360D01*
X0138048Y0185761D02*
X0140648Y0185761D01*
X0140648Y0186068D02*
X0140648Y0183002D01*
X0142816Y0180835D01*
X0145881Y0180835D01*
X0148048Y0183002D01*
X0148048Y0183335D01*
X0151617Y0183335D01*
X0151617Y0181649D01*
X0152144Y0181122D01*
X0159189Y0181122D01*
X0159716Y0181649D01*
X0159716Y0187513D01*
X0159189Y0188040D01*
X0152144Y0188040D01*
X0151617Y0187513D01*
X0151617Y0185735D01*
X0148048Y0185735D01*
X0148048Y0186068D01*
X0145881Y0188235D01*
X0142816Y0188235D01*
X0140648Y0186068D01*
X0140648Y0185163D02*
X0138048Y0185163D01*
X0138048Y0184564D02*
X0140648Y0184564D01*
X0140648Y0183966D02*
X0138048Y0183966D01*
X0138048Y0183367D02*
X0140648Y0183367D01*
X0140882Y0182768D02*
X0137815Y0182768D01*
X0137216Y0182170D02*
X0141481Y0182170D01*
X0142079Y0181571D02*
X0136618Y0181571D01*
X0136019Y0180973D02*
X0142678Y0180973D01*
X0142561Y0177980D02*
X0136136Y0177980D01*
X0136734Y0177382D02*
X0141963Y0177382D01*
X0141364Y0176783D02*
X0137333Y0176783D01*
X0137931Y0176185D02*
X0140766Y0176185D01*
X0140648Y0175586D02*
X0138048Y0175586D01*
X0138048Y0174988D02*
X0140648Y0174988D01*
X0140648Y0174389D02*
X0138048Y0174389D01*
X0138048Y0173791D02*
X0140648Y0173791D01*
X0140648Y0173192D02*
X0138048Y0173192D01*
X0137640Y0172594D02*
X0141057Y0172594D01*
X0145548Y0168404D02*
X0209850Y0168404D01*
X0209850Y0167806D02*
X0145548Y0167806D01*
X0145548Y0167207D02*
X0209850Y0167207D01*
X0209850Y0166609D02*
X0145548Y0166609D01*
X0145548Y0166010D02*
X0209850Y0166010D01*
X0209850Y0165412D02*
X0145548Y0165412D01*
X0145548Y0164813D02*
X0209850Y0164813D01*
X0209850Y0164215D02*
X0145548Y0164215D01*
X0145548Y0163616D02*
X0209850Y0163616D01*
X0209850Y0163018D02*
X0145548Y0163018D01*
X0145548Y0162419D02*
X0209850Y0162419D01*
X0209850Y0161821D02*
X0145548Y0161821D01*
X0145548Y0161222D02*
X0209850Y0161222D01*
X0209850Y0160624D02*
X0145548Y0160624D01*
X0145548Y0160025D02*
X0209850Y0160025D01*
X0209850Y0159427D02*
X0150403Y0159427D01*
X0150360Y0159470D02*
X0148381Y0159470D01*
X0146981Y0158071D01*
X0146981Y0156092D01*
X0148170Y0154903D01*
X0148170Y0152578D01*
X0147501Y0151909D01*
X0147501Y0143690D01*
X0145572Y0143690D01*
X0145045Y0143163D01*
X0145045Y0138480D01*
X0145572Y0137953D01*
X0151830Y0137953D01*
X0152357Y0138480D01*
X0152357Y0143163D01*
X0151830Y0143690D01*
X0149901Y0143690D01*
X0149901Y0150881D01*
X0155320Y0150881D01*
X0155320Y0147889D01*
X0155848Y0147362D01*
X0162892Y0147362D01*
X0163420Y0147889D01*
X0163420Y0149621D01*
X0165320Y0149621D01*
X0165320Y0147889D01*
X0165848Y0147362D01*
X0172892Y0147362D01*
X0173420Y0147889D01*
X0173420Y0153753D01*
X0172892Y0154280D01*
X0165848Y0154280D01*
X0165320Y0153753D01*
X0165320Y0152021D01*
X0163420Y0152021D01*
X0163420Y0153753D01*
X0162892Y0154280D01*
X0155848Y0154280D01*
X0155320Y0153753D01*
X0155320Y0153281D01*
X0150570Y0153281D01*
X0150570Y0154903D01*
X0151759Y0156092D01*
X0151759Y0158071D01*
X0150360Y0159470D01*
X0151002Y0158828D02*
X0209850Y0158828D01*
X0209850Y0158230D02*
X0151600Y0158230D01*
X0151759Y0157631D02*
X0209850Y0157631D01*
X0209850Y0157032D02*
X0151759Y0157032D01*
X0151759Y0156434D02*
X0209850Y0156434D01*
X0209850Y0155835D02*
X0151503Y0155835D01*
X0150904Y0155237D02*
X0209850Y0155237D01*
X0209850Y0154638D02*
X0192494Y0154638D01*
X0192531Y0154617D02*
X0192234Y0154789D01*
X0191903Y0154877D01*
X0189670Y0154877D01*
X0189670Y0151515D01*
X0189070Y0151515D01*
X0189070Y0150915D01*
X0185708Y0150915D01*
X0185708Y0148682D01*
X0185796Y0148351D01*
X0185968Y0148055D01*
X0185967Y0148055D02*
X0182773Y0148055D01*
X0182944Y0148351D01*
X0183032Y0148682D01*
X0183032Y0150915D01*
X0179670Y0150915D01*
X0179670Y0147553D01*
X0181903Y0147553D01*
X0182234Y0147641D01*
X0182531Y0147813D01*
X0182773Y0148055D01*
X0183025Y0148653D02*
X0185715Y0148653D01*
X0185708Y0149252D02*
X0183032Y0149252D01*
X0183032Y0149850D02*
X0185708Y0149850D01*
X0185708Y0150449D02*
X0183032Y0150449D01*
X0183032Y0151515D02*
X0179670Y0151515D01*
X0179070Y0151515D01*
X0179070Y0150915D01*
X0175708Y0150915D01*
X0175708Y0148682D01*
X0175796Y0148351D01*
X0175968Y0148055D01*
X0175967Y0148055D02*
X0173420Y0148055D01*
X0173420Y0148653D02*
X0175715Y0148653D01*
X0175708Y0149252D02*
X0173420Y0149252D01*
X0173420Y0149850D02*
X0175708Y0149850D01*
X0175708Y0150449D02*
X0173420Y0150449D01*
X0173420Y0151047D02*
X0179070Y0151047D01*
X0179070Y0150915D02*
X0179670Y0150915D01*
X0179670Y0151515D01*
X0179670Y0154877D01*
X0181903Y0154877D01*
X0182234Y0154789D01*
X0182531Y0154617D01*
X0182773Y0154375D01*
X0182944Y0154079D01*
X0183032Y0153748D01*
X0183032Y0151515D01*
X0183032Y0151646D02*
X0185708Y0151646D01*
X0185708Y0151515D02*
X0189070Y0151515D01*
X0189070Y0154877D01*
X0186837Y0154877D01*
X0186506Y0154789D01*
X0186210Y0154617D01*
X0185968Y0154375D01*
X0185796Y0154079D01*
X0185708Y0153748D01*
X0185708Y0151515D01*
X0185708Y0152244D02*
X0183032Y0152244D01*
X0183032Y0152843D02*
X0185708Y0152843D01*
X0185708Y0153441D02*
X0183032Y0153441D01*
X0182954Y0154040D02*
X0185786Y0154040D01*
X0186246Y0154638D02*
X0182494Y0154638D01*
X0179670Y0154638D02*
X0179070Y0154638D01*
X0179070Y0154877D02*
X0176837Y0154877D01*
X0176506Y0154789D01*
X0176210Y0154617D01*
X0175968Y0154375D01*
X0175796Y0154079D01*
X0175708Y0153748D01*
X0175708Y0151515D01*
X0179070Y0151515D01*
X0179070Y0154877D01*
X0179070Y0154040D02*
X0179670Y0154040D01*
X0179670Y0153441D02*
X0179070Y0153441D01*
X0179070Y0152843D02*
X0179670Y0152843D01*
X0179670Y0152244D02*
X0179070Y0152244D01*
X0179070Y0151646D02*
X0179670Y0151646D01*
X0179670Y0151047D02*
X0189070Y0151047D01*
X0189070Y0150915D02*
X0189670Y0150915D01*
X0189670Y0147553D01*
X0191903Y0147553D01*
X0192234Y0147641D01*
X0192531Y0147813D01*
X0192773Y0148055D01*
X0209850Y0148055D01*
X0209850Y0148653D02*
X0193025Y0148653D01*
X0193032Y0148682D02*
X0193032Y0150915D01*
X0189670Y0150915D01*
X0189670Y0151515D01*
X0193032Y0151515D01*
X0193032Y0153748D01*
X0192944Y0154079D01*
X0192773Y0154375D01*
X0192531Y0154617D01*
X0192954Y0154040D02*
X0209850Y0154040D01*
X0209850Y0153441D02*
X0193032Y0153441D01*
X0193032Y0152843D02*
X0209850Y0152843D01*
X0209850Y0152244D02*
X0193032Y0152244D01*
X0193032Y0151646D02*
X0209850Y0151646D01*
X0209850Y0151047D02*
X0189670Y0151047D01*
X0189670Y0150449D02*
X0189070Y0150449D01*
X0189070Y0150915D02*
X0189070Y0147553D01*
X0186837Y0147553D01*
X0186506Y0147641D01*
X0186210Y0147813D01*
X0185968Y0148055D01*
X0186635Y0146209D02*
X0186108Y0145682D01*
X0186108Y0140212D01*
X0186635Y0139685D01*
X0188170Y0139685D01*
X0188170Y0138281D01*
X0180570Y0138281D01*
X0180570Y0139685D01*
X0182105Y0139685D01*
X0182632Y0140212D01*
X0182632Y0145682D01*
X0182105Y0146209D01*
X0176635Y0146209D01*
X0176108Y0145682D01*
X0176108Y0140212D01*
X0176635Y0139685D01*
X0178170Y0139685D01*
X0178170Y0138281D01*
X0170570Y0138281D01*
X0170570Y0139882D01*
X0172892Y0139882D01*
X0173420Y0140409D01*
X0173420Y0146273D01*
X0172892Y0146800D01*
X0165848Y0146800D01*
X0165320Y0146273D01*
X0165320Y0140409D01*
X0165848Y0139882D01*
X0168170Y0139882D01*
X0168170Y0138281D01*
X0168170Y0138281D01*
X0160570Y0138281D01*
X0160570Y0139882D01*
X0162892Y0139882D01*
X0163420Y0140409D01*
X0163420Y0146273D01*
X0162892Y0146800D01*
X0155848Y0146800D01*
X0155320Y0146273D01*
X0155320Y0140409D01*
X0155848Y0139882D01*
X0158170Y0139882D01*
X0158170Y0136584D01*
X0158873Y0135881D01*
X0167176Y0135881D01*
X0168376Y0134681D01*
X0176320Y0134681D01*
X0176210Y0134617D01*
X0175968Y0134375D01*
X0175796Y0134079D01*
X0175708Y0133748D01*
X0175708Y0131515D01*
X0179070Y0131515D01*
X0179070Y0130915D01*
X0175708Y0130915D01*
X0175708Y0128682D01*
X0175796Y0128351D01*
X0175968Y0128055D01*
X0176210Y0127812D01*
X0176506Y0127641D01*
X0176837Y0127553D01*
X0179070Y0127553D01*
X0179070Y0130915D01*
X0179670Y0130915D01*
X0179670Y0127553D01*
X0181903Y0127553D01*
X0182234Y0127641D01*
X0182531Y0127812D01*
X0182773Y0128055D01*
X0182944Y0128351D01*
X0183032Y0128682D01*
X0183032Y0130915D01*
X0179670Y0130915D01*
X0179670Y0131515D01*
X0183032Y0131515D01*
X0183032Y0133748D01*
X0182944Y0134079D01*
X0182773Y0134375D01*
X0182531Y0134617D01*
X0182234Y0134789D01*
X0181903Y0134877D01*
X0180560Y0134877D01*
X0181564Y0135881D01*
X0189867Y0135881D01*
X0190570Y0136584D01*
X0190570Y0139685D01*
X0192105Y0139685D01*
X0192632Y0140212D01*
X0192632Y0145682D01*
X0192105Y0146209D01*
X0186635Y0146209D01*
X0186108Y0145661D02*
X0182632Y0145661D01*
X0182632Y0145062D02*
X0186108Y0145062D01*
X0186108Y0144464D02*
X0182632Y0144464D01*
X0182632Y0143865D02*
X0186108Y0143865D01*
X0186108Y0143267D02*
X0182632Y0143267D01*
X0182632Y0142668D02*
X0186108Y0142668D01*
X0186108Y0142070D02*
X0182632Y0142070D01*
X0182632Y0141471D02*
X0186108Y0141471D01*
X0186108Y0140873D02*
X0182632Y0140873D01*
X0182632Y0140274D02*
X0186108Y0140274D01*
X0188170Y0139676D02*
X0180570Y0139676D01*
X0180570Y0139077D02*
X0188170Y0139077D01*
X0188170Y0138479D02*
X0180570Y0138479D01*
X0180570Y0138281D02*
X0180570Y0138281D01*
X0181067Y0137081D02*
X0179867Y0135881D01*
X0168873Y0135881D01*
X0167673Y0137081D01*
X0159370Y0137081D01*
X0159370Y0143341D01*
X0155320Y0143267D02*
X0152253Y0143267D01*
X0152357Y0142668D02*
X0155320Y0142668D01*
X0155320Y0142070D02*
X0152357Y0142070D01*
X0152357Y0141471D02*
X0155320Y0141471D01*
X0155320Y0140873D02*
X0152357Y0140873D01*
X0152357Y0140274D02*
X0155455Y0140274D01*
X0155360Y0139470D02*
X0153381Y0139470D01*
X0151981Y0138071D01*
X0151981Y0136092D01*
X0153170Y0134903D01*
X0153170Y0132578D01*
X0152357Y0131765D01*
X0152357Y0135682D01*
X0151830Y0136209D01*
X0145572Y0136209D01*
X0145045Y0135682D01*
X0145045Y0133281D01*
X0131451Y0133281D01*
X0131451Y0142021D01*
X0130924Y0142548D01*
X0127816Y0142548D01*
X0127289Y0142021D01*
X0127289Y0132614D01*
X0127816Y0132087D01*
X0128170Y0132087D01*
X0128170Y0131584D01*
X0128873Y0130881D01*
X0145163Y0130881D01*
X0145572Y0130472D01*
X0151064Y0130472D01*
X0149282Y0128690D01*
X0145572Y0128690D01*
X0145045Y0128163D01*
X0145045Y0123480D01*
X0145572Y0122953D01*
X0151830Y0122953D01*
X0152357Y0123480D01*
X0152357Y0128163D01*
X0152253Y0128267D01*
X0154867Y0130881D01*
X0155320Y0130881D01*
X0155320Y0127889D01*
X0155848Y0127362D01*
X0162892Y0127362D01*
X0163420Y0127889D01*
X0163420Y0129621D01*
X0165320Y0129621D01*
X0165320Y0127889D01*
X0165848Y0127362D01*
X0172892Y0127362D01*
X0173420Y0127889D01*
X0173420Y0133753D01*
X0172892Y0134280D01*
X0165848Y0134280D01*
X0165320Y0133753D01*
X0165320Y0132021D01*
X0163420Y0132021D01*
X0163420Y0133753D01*
X0162892Y0134280D01*
X0155848Y0134280D01*
X0155570Y0134003D01*
X0155570Y0134903D01*
X0156759Y0136092D01*
X0156759Y0138071D01*
X0155360Y0139470D01*
X0155753Y0139077D02*
X0158170Y0139077D01*
X0158170Y0138479D02*
X0156351Y0138479D01*
X0156759Y0137880D02*
X0158170Y0137880D01*
X0158170Y0137282D02*
X0156759Y0137282D01*
X0156759Y0136683D02*
X0158170Y0136683D01*
X0158670Y0136085D02*
X0156752Y0136085D01*
X0156154Y0135486D02*
X0167571Y0135486D01*
X0168170Y0134888D02*
X0155570Y0134888D01*
X0155570Y0134289D02*
X0175918Y0134289D01*
X0175708Y0133691D02*
X0173420Y0133691D01*
X0173420Y0133092D02*
X0175708Y0133092D01*
X0175708Y0132494D02*
X0173420Y0132494D01*
X0173420Y0131895D02*
X0175708Y0131895D01*
X0175708Y0130698D02*
X0173420Y0130698D01*
X0173420Y0131297D02*
X0179070Y0131297D01*
X0179070Y0130698D02*
X0179670Y0130698D01*
X0179670Y0131297D02*
X0189070Y0131297D01*
X0189070Y0131515D02*
X0189070Y0130915D01*
X0185708Y0130915D01*
X0185708Y0128682D01*
X0185796Y0128351D01*
X0185968Y0128055D01*
X0186210Y0127812D01*
X0186506Y0127641D01*
X0186837Y0127553D01*
X0189070Y0127553D01*
X0189070Y0130915D01*
X0189670Y0130915D01*
X0189670Y0127553D01*
X0191903Y0127553D01*
X0192234Y0127641D01*
X0192531Y0127812D01*
X0192773Y0128055D01*
X0192944Y0128351D01*
X0193032Y0128682D01*
X0193032Y0130915D01*
X0189670Y0130915D01*
X0189670Y0131515D01*
X0189070Y0131515D01*
X0185708Y0131515D01*
X0185708Y0133748D01*
X0185796Y0134079D01*
X0185968Y0134375D01*
X0186210Y0134617D01*
X0186506Y0134789D01*
X0186837Y0134877D01*
X0189070Y0134877D01*
X0189070Y0131515D01*
X0189070Y0131895D02*
X0189670Y0131895D01*
X0189670Y0131515D02*
X0189670Y0134877D01*
X0191903Y0134877D01*
X0192234Y0134789D01*
X0192531Y0134617D01*
X0192773Y0134375D01*
X0192944Y0134079D01*
X0193032Y0133748D01*
X0193032Y0131515D01*
X0189670Y0131515D01*
X0189670Y0131297D02*
X0209850Y0131297D01*
X0209850Y0131895D02*
X0193032Y0131895D01*
X0193032Y0132494D02*
X0209850Y0132494D01*
X0209850Y0133092D02*
X0193032Y0133092D01*
X0193032Y0133691D02*
X0209850Y0133691D01*
X0209850Y0134289D02*
X0192822Y0134289D01*
X0190071Y0136085D02*
X0209850Y0136085D01*
X0209850Y0136683D02*
X0190570Y0136683D01*
X0190570Y0137282D02*
X0209850Y0137282D01*
X0209850Y0137880D02*
X0190570Y0137880D01*
X0190570Y0138479D02*
X0209850Y0138479D01*
X0209850Y0139077D02*
X0190570Y0139077D01*
X0190570Y0139676D02*
X0209850Y0139676D01*
X0209850Y0140274D02*
X0192632Y0140274D01*
X0192632Y0140873D02*
X0209850Y0140873D01*
X0209850Y0141471D02*
X0192632Y0141471D01*
X0192632Y0142070D02*
X0209850Y0142070D01*
X0209850Y0142668D02*
X0192632Y0142668D01*
X0192632Y0143267D02*
X0209850Y0143267D01*
X0209850Y0143865D02*
X0192632Y0143865D01*
X0192632Y0144464D02*
X0209850Y0144464D01*
X0209850Y0145062D02*
X0192632Y0145062D01*
X0192632Y0145661D02*
X0209850Y0145661D01*
X0209850Y0146259D02*
X0173420Y0146259D01*
X0173420Y0145661D02*
X0176108Y0145661D01*
X0176108Y0145062D02*
X0173420Y0145062D01*
X0173420Y0144464D02*
X0176108Y0144464D01*
X0176108Y0143865D02*
X0173420Y0143865D01*
X0173420Y0143267D02*
X0176108Y0143267D01*
X0176108Y0142668D02*
X0173420Y0142668D01*
X0173420Y0142070D02*
X0176108Y0142070D01*
X0176108Y0141471D02*
X0173420Y0141471D01*
X0173420Y0140873D02*
X0176108Y0140873D01*
X0176108Y0140274D02*
X0173285Y0140274D01*
X0170570Y0139676D02*
X0178170Y0139676D01*
X0178170Y0139077D02*
X0170570Y0139077D01*
X0170570Y0138479D02*
X0178170Y0138479D01*
X0179370Y0137081D02*
X0179370Y0142947D01*
X0179070Y0147553D02*
X0176837Y0147553D01*
X0176506Y0147641D01*
X0176210Y0147813D01*
X0175968Y0148055D01*
X0172987Y0147456D02*
X0209850Y0147456D01*
X0209850Y0146858D02*
X0149901Y0146858D01*
X0149901Y0147456D02*
X0155754Y0147456D01*
X0155320Y0148055D02*
X0149901Y0148055D01*
X0149901Y0148653D02*
X0155320Y0148653D01*
X0155320Y0149252D02*
X0149901Y0149252D01*
X0149901Y0149850D02*
X0155320Y0149850D01*
X0155320Y0150449D02*
X0149901Y0150449D01*
X0148701Y0151412D02*
X0149370Y0152081D01*
X0149370Y0157081D01*
X0146981Y0157032D02*
X0145548Y0157032D01*
X0145548Y0156434D02*
X0146981Y0156434D01*
X0147237Y0155835D02*
X0145548Y0155835D01*
X0145548Y0155237D02*
X0147836Y0155237D01*
X0148170Y0154638D02*
X0145548Y0154638D01*
X0145548Y0154040D02*
X0148170Y0154040D01*
X0148170Y0153441D02*
X0145548Y0153441D01*
X0145548Y0152843D02*
X0148170Y0152843D01*
X0147836Y0152244D02*
X0145548Y0152244D01*
X0145548Y0151646D02*
X0147501Y0151646D01*
X0147501Y0151047D02*
X0145548Y0151047D01*
X0145548Y0150449D02*
X0147501Y0150449D01*
X0147501Y0149850D02*
X0145548Y0149850D01*
X0145548Y0149252D02*
X0147501Y0149252D01*
X0147501Y0148653D02*
X0145548Y0148653D01*
X0145548Y0148055D02*
X0147501Y0148055D01*
X0147501Y0147456D02*
X0145570Y0147456D01*
X0145570Y0146858D02*
X0147501Y0146858D01*
X0147501Y0146259D02*
X0145245Y0146259D01*
X0147501Y0145661D02*
X0125570Y0145661D01*
X0125570Y0145062D02*
X0147501Y0145062D01*
X0147501Y0144464D02*
X0125570Y0144464D01*
X0125570Y0143865D02*
X0147501Y0143865D01*
X0149901Y0143865D02*
X0155320Y0143865D01*
X0155320Y0144464D02*
X0149901Y0144464D01*
X0149901Y0145062D02*
X0155320Y0145062D01*
X0155320Y0145661D02*
X0149901Y0145661D01*
X0149901Y0146259D02*
X0155320Y0146259D01*
X0159370Y0150821D02*
X0158110Y0152081D01*
X0149370Y0152081D01*
X0148701Y0151412D02*
X0148701Y0140821D01*
X0145045Y0140873D02*
X0131451Y0140873D01*
X0131451Y0141471D02*
X0145045Y0141471D01*
X0145045Y0142070D02*
X0131402Y0142070D01*
X0131451Y0140274D02*
X0145045Y0140274D01*
X0145045Y0139676D02*
X0143442Y0139676D01*
X0143695Y0139422D02*
X0143168Y0139950D01*
X0136911Y0139950D01*
X0136383Y0139422D01*
X0136383Y0138446D01*
X0135360Y0139470D01*
X0133381Y0139470D01*
X0131981Y0138071D01*
X0131981Y0136092D01*
X0133381Y0134692D01*
X0135360Y0134692D01*
X0136383Y0135716D01*
X0136383Y0134740D01*
X0136911Y0134213D01*
X0143168Y0134213D01*
X0143695Y0134740D01*
X0143695Y0139422D01*
X0143695Y0139077D02*
X0145045Y0139077D01*
X0145046Y0138479D02*
X0143695Y0138479D01*
X0143695Y0137880D02*
X0151981Y0137880D01*
X0151981Y0137282D02*
X0143695Y0137282D01*
X0143695Y0136683D02*
X0151981Y0136683D01*
X0151954Y0136085D02*
X0151988Y0136085D01*
X0152357Y0135486D02*
X0152587Y0135486D01*
X0152357Y0134888D02*
X0153170Y0134888D01*
X0153170Y0134289D02*
X0152357Y0134289D01*
X0152357Y0133691D02*
X0153170Y0133691D01*
X0153170Y0133092D02*
X0152357Y0133092D01*
X0152357Y0132494D02*
X0153085Y0132494D01*
X0152487Y0131895D02*
X0152357Y0131895D01*
X0154370Y0132081D02*
X0154370Y0137081D01*
X0152389Y0138479D02*
X0152355Y0138479D01*
X0152357Y0139077D02*
X0152988Y0139077D01*
X0152357Y0139676D02*
X0158170Y0139676D01*
X0160570Y0139676D02*
X0168170Y0139676D01*
X0168170Y0139077D02*
X0160570Y0139077D01*
X0160570Y0138479D02*
X0168170Y0138479D01*
X0169370Y0137081D02*
X0179370Y0137081D01*
X0181067Y0137081D02*
X0189370Y0137081D01*
X0189370Y0142947D01*
X0189070Y0148055D02*
X0189670Y0148055D01*
X0189670Y0148653D02*
X0189070Y0148653D01*
X0189070Y0149252D02*
X0189670Y0149252D01*
X0189670Y0149850D02*
X0189070Y0149850D01*
X0189070Y0151646D02*
X0189670Y0151646D01*
X0189670Y0152244D02*
X0189070Y0152244D01*
X0189070Y0152843D02*
X0189670Y0152843D01*
X0189670Y0153441D02*
X0189070Y0153441D01*
X0189070Y0154040D02*
X0189670Y0154040D01*
X0189670Y0154638D02*
X0189070Y0154638D01*
X0193032Y0150449D02*
X0209850Y0150449D01*
X0209850Y0149850D02*
X0193032Y0149850D01*
X0193032Y0149252D02*
X0209850Y0149252D01*
X0209850Y0135486D02*
X0181169Y0135486D01*
X0180571Y0134888D02*
X0209850Y0134888D01*
X0209850Y0130698D02*
X0193032Y0130698D01*
X0193032Y0130099D02*
X0209850Y0130099D01*
X0209850Y0129501D02*
X0193032Y0129501D01*
X0193032Y0128902D02*
X0209850Y0128902D01*
X0209850Y0128304D02*
X0192917Y0128304D01*
X0192345Y0127705D02*
X0209850Y0127705D01*
X0209850Y0127107D02*
X0152357Y0127107D01*
X0152357Y0127705D02*
X0155504Y0127705D01*
X0155320Y0128304D02*
X0152290Y0128304D01*
X0152889Y0128902D02*
X0155320Y0128902D01*
X0155320Y0129501D02*
X0153487Y0129501D01*
X0154086Y0130099D02*
X0155320Y0130099D01*
X0155320Y0130698D02*
X0154684Y0130698D01*
X0154370Y0132081D02*
X0158110Y0132081D01*
X0159370Y0130821D01*
X0169370Y0130821D01*
X0173420Y0130099D02*
X0175708Y0130099D01*
X0175708Y0129501D02*
X0173420Y0129501D01*
X0173420Y0128902D02*
X0175708Y0128902D01*
X0175824Y0128304D02*
X0173420Y0128304D01*
X0173236Y0127705D02*
X0176395Y0127705D01*
X0176635Y0126209D02*
X0176108Y0125682D01*
X0176108Y0120212D01*
X0176635Y0119685D01*
X0178170Y0119685D01*
X0178170Y0118281D01*
X0170570Y0118281D01*
X0170570Y0119882D01*
X0172892Y0119882D01*
X0173420Y0120409D01*
X0173420Y0126273D01*
X0172892Y0126800D01*
X0165848Y0126800D01*
X0165320Y0126273D01*
X0165320Y0120409D01*
X0165848Y0119882D01*
X0168170Y0119882D01*
X0168170Y0118281D01*
X0168170Y0118281D01*
X0160570Y0118281D01*
X0160570Y0119882D01*
X0162892Y0119882D01*
X0163420Y0120409D01*
X0163420Y0126273D01*
X0162892Y0126800D01*
X0155848Y0126800D01*
X0155320Y0126273D01*
X0155320Y0120409D01*
X0155848Y0119882D01*
X0158170Y0119882D01*
X0158170Y0116584D01*
X0158873Y0115881D01*
X0167176Y0115881D01*
X0168376Y0114681D01*
X0176320Y0114681D01*
X0176210Y0114617D01*
X0175968Y0114375D01*
X0175796Y0114079D01*
X0175708Y0113748D01*
X0175708Y0111515D01*
X0179070Y0111515D01*
X0179070Y0110915D01*
X0175708Y0110915D01*
X0175708Y0108682D01*
X0175796Y0108351D01*
X0175968Y0108055D01*
X0176210Y0107812D01*
X0176506Y0107641D01*
X0176837Y0107553D01*
X0179070Y0107553D01*
X0179070Y0110915D01*
X0179670Y0110915D01*
X0179670Y0107553D01*
X0181903Y0107553D01*
X0182234Y0107641D01*
X0182531Y0107812D01*
X0182773Y0108055D01*
X0182944Y0108351D01*
X0183032Y0108682D01*
X0183032Y0110915D01*
X0179670Y0110915D01*
X0179670Y0111515D01*
X0183032Y0111515D01*
X0183032Y0113748D01*
X0182944Y0114079D01*
X0182773Y0114375D01*
X0182531Y0114617D01*
X0182234Y0114789D01*
X0181903Y0114877D01*
X0180560Y0114877D01*
X0181564Y0115881D01*
X0189867Y0115881D01*
X0190570Y0116584D01*
X0190570Y0119685D01*
X0192105Y0119685D01*
X0192632Y0120212D01*
X0192632Y0125682D01*
X0192105Y0126209D01*
X0186635Y0126209D01*
X0186108Y0125682D01*
X0186108Y0120212D01*
X0186635Y0119685D01*
X0188170Y0119685D01*
X0188170Y0118281D01*
X0180570Y0118281D01*
X0180570Y0119685D01*
X0182105Y0119685D01*
X0182632Y0120212D01*
X0182632Y0125682D01*
X0182105Y0126209D01*
X0176635Y0126209D01*
X0176336Y0125910D02*
X0173420Y0125910D01*
X0173420Y0125311D02*
X0176108Y0125311D01*
X0176108Y0124713D02*
X0173420Y0124713D01*
X0173420Y0124114D02*
X0176108Y0124114D01*
X0176108Y0123516D02*
X0173420Y0123516D01*
X0173420Y0122917D02*
X0176108Y0122917D01*
X0176108Y0122319D02*
X0173420Y0122319D01*
X0173420Y0121720D02*
X0176108Y0121720D01*
X0176108Y0121122D02*
X0173420Y0121122D01*
X0173420Y0120523D02*
X0176108Y0120523D01*
X0176395Y0119925D02*
X0172935Y0119925D01*
X0170570Y0119326D02*
X0178170Y0119326D01*
X0178170Y0118728D02*
X0170570Y0118728D01*
X0169370Y0117081D02*
X0179370Y0117081D01*
X0179370Y0122947D01*
X0182632Y0122917D02*
X0186108Y0122917D01*
X0186108Y0122319D02*
X0182632Y0122319D01*
X0182632Y0121720D02*
X0186108Y0121720D01*
X0186108Y0121122D02*
X0182632Y0121122D01*
X0182632Y0120523D02*
X0186108Y0120523D01*
X0186395Y0119925D02*
X0182345Y0119925D01*
X0180570Y0119326D02*
X0188170Y0119326D01*
X0188170Y0118728D02*
X0180570Y0118728D01*
X0180570Y0118281D02*
X0180570Y0118281D01*
X0181067Y0117081D02*
X0179867Y0115881D01*
X0168873Y0115881D01*
X0167673Y0117081D01*
X0159370Y0117081D01*
X0159370Y0123341D01*
X0155320Y0123516D02*
X0152357Y0123516D01*
X0152357Y0124114D02*
X0155320Y0124114D01*
X0155320Y0124713D02*
X0152357Y0124713D01*
X0152357Y0125311D02*
X0155320Y0125311D01*
X0155320Y0125910D02*
X0152357Y0125910D01*
X0152357Y0126508D02*
X0155556Y0126508D01*
X0155320Y0122917D02*
X0143695Y0122917D01*
X0143695Y0122319D02*
X0155320Y0122319D01*
X0155320Y0121720D02*
X0143695Y0121720D01*
X0143695Y0121122D02*
X0145484Y0121122D01*
X0145572Y0121209D02*
X0145045Y0120682D01*
X0145045Y0118281D01*
X0136549Y0118281D01*
X0135360Y0119470D01*
X0133381Y0119470D01*
X0131981Y0118071D01*
X0131981Y0116092D01*
X0133381Y0114692D01*
X0135360Y0114692D01*
X0136549Y0115881D01*
X0145163Y0115881D01*
X0145572Y0115472D01*
X0151830Y0115472D01*
X0152215Y0115858D01*
X0153170Y0114903D01*
X0153170Y0112021D01*
X0152357Y0112021D01*
X0152357Y0113163D01*
X0151830Y0113690D01*
X0145572Y0113690D01*
X0145045Y0113163D01*
X0145045Y0108480D01*
X0145572Y0107953D01*
X0151830Y0107953D01*
X0152357Y0108480D01*
X0152357Y0109621D01*
X0155320Y0109621D01*
X0155320Y0107889D01*
X0155848Y0107362D01*
X0162892Y0107362D01*
X0163420Y0107889D01*
X0163420Y0109621D01*
X0165320Y0109621D01*
X0165320Y0107889D01*
X0165848Y0107362D01*
X0172892Y0107362D01*
X0173420Y0107889D01*
X0173420Y0113753D01*
X0172892Y0114280D01*
X0165848Y0114280D01*
X0165320Y0113753D01*
X0165320Y0112021D01*
X0163420Y0112021D01*
X0163420Y0113753D01*
X0162892Y0114280D01*
X0155848Y0114280D01*
X0155570Y0114003D01*
X0155570Y0114903D01*
X0156759Y0116092D01*
X0156759Y0118071D01*
X0155360Y0119470D01*
X0153381Y0119470D01*
X0152357Y0118446D01*
X0152357Y0120682D01*
X0151830Y0121209D01*
X0145572Y0121209D01*
X0145045Y0120523D02*
X0143695Y0120523D01*
X0143695Y0119925D02*
X0145045Y0119925D01*
X0145045Y0119326D02*
X0143282Y0119326D01*
X0143168Y0119213D02*
X0143695Y0119740D01*
X0143695Y0124422D01*
X0143168Y0124950D01*
X0136911Y0124950D01*
X0136383Y0124422D01*
X0136383Y0123446D01*
X0135360Y0124470D01*
X0133381Y0124470D01*
X0131981Y0123071D01*
X0131981Y0121092D01*
X0133381Y0119692D01*
X0135360Y0119692D01*
X0136383Y0120716D01*
X0136383Y0119740D01*
X0136911Y0119213D01*
X0143168Y0119213D01*
X0145045Y0118728D02*
X0136102Y0118728D01*
X0135503Y0119326D02*
X0136797Y0119326D01*
X0136383Y0119925D02*
X0135592Y0119925D01*
X0136191Y0120523D02*
X0136383Y0120523D01*
X0134370Y0122081D02*
X0140039Y0122081D01*
X0136383Y0123516D02*
X0136314Y0123516D01*
X0136383Y0124114D02*
X0135715Y0124114D01*
X0136674Y0124713D02*
X0105570Y0124713D01*
X0105570Y0125311D02*
X0145045Y0125311D01*
X0145045Y0124713D02*
X0143405Y0124713D01*
X0143695Y0124114D02*
X0145045Y0124114D01*
X0145045Y0123516D02*
X0143695Y0123516D01*
X0145045Y0125910D02*
X0124896Y0125910D01*
X0125494Y0126508D02*
X0145045Y0126508D01*
X0145045Y0127107D02*
X0125570Y0127107D01*
X0125570Y0127705D02*
X0145045Y0127705D01*
X0145186Y0128304D02*
X0125570Y0128304D01*
X0125570Y0128902D02*
X0149494Y0128902D01*
X0150093Y0129501D02*
X0125570Y0129501D01*
X0125570Y0130099D02*
X0150691Y0130099D01*
X0148701Y0133341D02*
X0147441Y0132081D01*
X0129370Y0132081D01*
X0129370Y0137317D01*
X0127289Y0137282D02*
X0126451Y0137282D01*
X0126451Y0137880D02*
X0127289Y0137880D01*
X0127289Y0138479D02*
X0126451Y0138479D01*
X0126451Y0139077D02*
X0127289Y0139077D01*
X0127289Y0139676D02*
X0126451Y0139676D01*
X0126451Y0140274D02*
X0127289Y0140274D01*
X0127289Y0140873D02*
X0126451Y0140873D01*
X0126451Y0141471D02*
X0127289Y0141471D01*
X0127338Y0142070D02*
X0126402Y0142070D01*
X0125570Y0142668D02*
X0145045Y0142668D01*
X0145149Y0143267D02*
X0125570Y0143267D01*
X0131451Y0139676D02*
X0136637Y0139676D01*
X0136383Y0139077D02*
X0135753Y0139077D01*
X0136351Y0138479D02*
X0136383Y0138479D01*
X0134370Y0137081D02*
X0140039Y0137081D01*
X0136383Y0135486D02*
X0136154Y0135486D01*
X0136383Y0134888D02*
X0135555Y0134888D01*
X0136834Y0134289D02*
X0131451Y0134289D01*
X0131451Y0133691D02*
X0145045Y0133691D01*
X0145045Y0134289D02*
X0143245Y0134289D01*
X0143695Y0134888D02*
X0145045Y0134888D01*
X0145045Y0135486D02*
X0143695Y0135486D01*
X0143695Y0136085D02*
X0145447Y0136085D01*
X0145347Y0130698D02*
X0125570Y0130698D01*
X0125570Y0131297D02*
X0128458Y0131297D01*
X0128170Y0131895D02*
X0125570Y0131895D01*
X0126331Y0132494D02*
X0127409Y0132494D01*
X0127289Y0133092D02*
X0126701Y0133092D01*
X0126774Y0133691D02*
X0127289Y0133691D01*
X0127289Y0134289D02*
X0126585Y0134289D01*
X0126451Y0134888D02*
X0127289Y0134888D01*
X0127289Y0135486D02*
X0126451Y0135486D01*
X0126451Y0136085D02*
X0127289Y0136085D01*
X0127289Y0136683D02*
X0126451Y0136683D01*
X0124370Y0137317D02*
X0125570Y0133517D01*
X0131451Y0134888D02*
X0133185Y0134888D01*
X0132587Y0135486D02*
X0131451Y0135486D01*
X0131451Y0136085D02*
X0131988Y0136085D01*
X0131981Y0136683D02*
X0131451Y0136683D01*
X0131451Y0137282D02*
X0131981Y0137282D01*
X0131981Y0137880D02*
X0131451Y0137880D01*
X0131451Y0138479D02*
X0132389Y0138479D01*
X0132988Y0139077D02*
X0131451Y0139077D01*
X0133025Y0124114D02*
X0105570Y0124114D01*
X0105570Y0123516D02*
X0132426Y0123516D01*
X0131981Y0122917D02*
X0105570Y0122917D01*
X0105570Y0122319D02*
X0131981Y0122319D01*
X0131981Y0121720D02*
X0131279Y0121720D01*
X0131451Y0121548D02*
X0130924Y0122076D01*
X0127816Y0122076D01*
X0127289Y0121548D01*
X0127289Y0112141D01*
X0127816Y0111614D01*
X0128170Y0111614D01*
X0128170Y0104260D01*
X0126981Y0103071D01*
X0126981Y0101092D01*
X0128381Y0099692D01*
X0130360Y0099692D01*
X0131759Y0101092D01*
X0131759Y0103071D01*
X0130570Y0104260D01*
X0130570Y0111614D01*
X0130924Y0111614D01*
X0131451Y0112141D01*
X0131451Y0121548D01*
X0131451Y0121122D02*
X0131981Y0121122D01*
X0131451Y0120523D02*
X0132549Y0120523D01*
X0133148Y0119925D02*
X0131451Y0119925D01*
X0131451Y0119326D02*
X0133237Y0119326D01*
X0132638Y0118728D02*
X0131451Y0118728D01*
X0131451Y0118129D02*
X0132040Y0118129D01*
X0131981Y0117531D02*
X0131451Y0117531D01*
X0131451Y0116932D02*
X0131981Y0116932D01*
X0131981Y0116334D02*
X0131451Y0116334D01*
X0131451Y0115735D02*
X0132337Y0115735D01*
X0132936Y0115137D02*
X0131451Y0115137D01*
X0131451Y0114538D02*
X0153170Y0114538D01*
X0153170Y0113940D02*
X0131451Y0113940D01*
X0131451Y0113341D02*
X0145224Y0113341D01*
X0145045Y0112743D02*
X0131451Y0112743D01*
X0131451Y0112144D02*
X0145045Y0112144D01*
X0145045Y0111546D02*
X0130570Y0111546D01*
X0130570Y0110947D02*
X0145045Y0110947D01*
X0145045Y0110349D02*
X0130570Y0110349D01*
X0130570Y0109750D02*
X0136711Y0109750D01*
X0136911Y0109950D02*
X0136383Y0109422D01*
X0136383Y0108446D01*
X0135360Y0109470D01*
X0133381Y0109470D01*
X0131981Y0108071D01*
X0131981Y0106092D01*
X0133381Y0104692D01*
X0135360Y0104692D01*
X0136383Y0105716D01*
X0136383Y0104740D01*
X0136911Y0104213D01*
X0143168Y0104213D01*
X0143695Y0104740D01*
X0143695Y0109422D01*
X0143168Y0109950D01*
X0136911Y0109950D01*
X0136383Y0109152D02*
X0135678Y0109152D01*
X0136277Y0108553D02*
X0136383Y0108553D01*
X0134370Y0107081D02*
X0140039Y0107081D01*
X0136383Y0105561D02*
X0136228Y0105561D01*
X0136383Y0104962D02*
X0135630Y0104962D01*
X0136760Y0104363D02*
X0130570Y0104363D01*
X0130570Y0104962D02*
X0133111Y0104962D01*
X0132512Y0105561D02*
X0130570Y0105561D01*
X0130570Y0106159D02*
X0131981Y0106159D01*
X0131981Y0106758D02*
X0130570Y0106758D01*
X0130570Y0107356D02*
X0131981Y0107356D01*
X0131981Y0107955D02*
X0130570Y0107955D01*
X0130570Y0108553D02*
X0132464Y0108553D01*
X0133062Y0109152D02*
X0130570Y0109152D01*
X0128170Y0109152D02*
X0125570Y0109152D01*
X0125570Y0109750D02*
X0128170Y0109750D01*
X0128170Y0110349D02*
X0125570Y0110349D01*
X0125570Y0110947D02*
X0128170Y0110947D01*
X0128170Y0111546D02*
X0125570Y0111546D01*
X0126451Y0112144D02*
X0127289Y0112144D01*
X0127289Y0112743D02*
X0126451Y0112743D01*
X0126451Y0113341D02*
X0127289Y0113341D01*
X0127289Y0113940D02*
X0126451Y0113940D01*
X0126451Y0114538D02*
X0127289Y0114538D01*
X0127289Y0115137D02*
X0126451Y0115137D01*
X0126451Y0115735D02*
X0127289Y0115735D01*
X0127289Y0116334D02*
X0126451Y0116334D01*
X0126451Y0116932D02*
X0127289Y0116932D01*
X0127289Y0117531D02*
X0126451Y0117531D01*
X0126451Y0118129D02*
X0127289Y0118129D01*
X0127289Y0118728D02*
X0126451Y0118728D01*
X0126451Y0119326D02*
X0127289Y0119326D01*
X0127289Y0119925D02*
X0126451Y0119925D01*
X0126451Y0120523D02*
X0127289Y0120523D01*
X0127289Y0121122D02*
X0126451Y0121122D01*
X0126279Y0121720D02*
X0127461Y0121720D01*
X0129370Y0116845D02*
X0129370Y0102081D01*
X0127675Y0103765D02*
X0125570Y0103765D01*
X0125570Y0104363D02*
X0128170Y0104363D01*
X0128170Y0104962D02*
X0125570Y0104962D01*
X0125570Y0105561D02*
X0128170Y0105561D01*
X0128170Y0106159D02*
X0125570Y0106159D01*
X0125570Y0106758D02*
X0128170Y0106758D01*
X0128170Y0107356D02*
X0125570Y0107356D01*
X0125570Y0107955D02*
X0128170Y0107955D01*
X0128170Y0108553D02*
X0125570Y0108553D01*
X0123170Y0108553D02*
X0120570Y0108553D01*
X0120570Y0107955D02*
X0123170Y0107955D01*
X0123170Y0107356D02*
X0120570Y0107356D01*
X0120570Y0106758D02*
X0123170Y0106758D01*
X0123170Y0106159D02*
X0120570Y0106159D01*
X0120570Y0105561D02*
X0123170Y0105561D01*
X0123170Y0104962D02*
X0120570Y0104962D01*
X0120570Y0104363D02*
X0123170Y0104363D01*
X0123170Y0103765D02*
X0120570Y0103765D01*
X0120570Y0103166D02*
X0123170Y0103166D01*
X0123160Y0102568D02*
X0120570Y0102568D01*
X0118170Y0103765D02*
X0094383Y0103765D01*
X0094370Y0104363D02*
X0118170Y0104363D01*
X0113111Y0104962D02*
X0100630Y0104962D01*
X0101228Y0105561D02*
X0112512Y0105561D01*
X0111981Y0106159D02*
X0101759Y0106159D01*
X0101759Y0106758D02*
X0111981Y0106758D01*
X0111981Y0107356D02*
X0101759Y0107356D01*
X0101759Y0107955D02*
X0111981Y0107955D01*
X0112464Y0108553D02*
X0101277Y0108553D01*
X0100678Y0109152D02*
X0113062Y0109152D01*
X0113170Y0109750D02*
X0100570Y0109750D01*
X0100570Y0110349D02*
X0113170Y0110349D01*
X0113170Y0110947D02*
X0100570Y0110947D01*
X0100570Y0111546D02*
X0113170Y0111546D01*
X0112289Y0112144D02*
X0111451Y0112144D01*
X0111451Y0112743D02*
X0112289Y0112743D01*
X0112289Y0113341D02*
X0111451Y0113341D01*
X0111451Y0113940D02*
X0112289Y0113940D01*
X0112289Y0114538D02*
X0111451Y0114538D01*
X0111451Y0115137D02*
X0112289Y0115137D01*
X0112289Y0118129D02*
X0111451Y0118129D01*
X0111451Y0118728D02*
X0112289Y0118728D01*
X0112289Y0119326D02*
X0111451Y0119326D01*
X0111451Y0119925D02*
X0112289Y0119925D01*
X0112289Y0120523D02*
X0111451Y0120523D01*
X0111451Y0121122D02*
X0112289Y0121122D01*
X0112461Y0121720D02*
X0111279Y0121720D01*
X0107461Y0121720D02*
X0106279Y0121720D01*
X0106451Y0121122D02*
X0107289Y0121122D01*
X0107289Y0120523D02*
X0106451Y0120523D01*
X0106451Y0119925D02*
X0107289Y0119925D01*
X0107289Y0119326D02*
X0106451Y0119326D01*
X0106451Y0118728D02*
X0107289Y0118728D01*
X0107289Y0118129D02*
X0106451Y0118129D01*
X0106451Y0117531D02*
X0107289Y0117531D01*
X0104370Y0116845D02*
X0104370Y0127081D01*
X0104370Y0137317D01*
X0099370Y0137317D02*
X0099370Y0127081D01*
X0097761Y0125311D02*
X0089719Y0125311D01*
X0089719Y0124713D02*
X0098360Y0124713D01*
X0097163Y0125910D02*
X0089719Y0125910D01*
X0089208Y0126508D02*
X0096981Y0126508D01*
X0096981Y0127107D02*
X0085570Y0127107D01*
X0085443Y0127705D02*
X0096981Y0127705D01*
X0097214Y0128304D02*
X0086315Y0128304D01*
X0086569Y0128902D02*
X0097813Y0128902D01*
X0098170Y0129501D02*
X0086569Y0129501D01*
X0086569Y0130099D02*
X0098170Y0130099D01*
X0098170Y0130698D02*
X0086569Y0130698D01*
X0086569Y0131297D02*
X0098170Y0131297D01*
X0098170Y0131895D02*
X0086569Y0131895D01*
X0086569Y0132494D02*
X0097409Y0132494D01*
X0097289Y0133092D02*
X0086569Y0133092D01*
X0086569Y0133691D02*
X0097289Y0133691D01*
X0097289Y0134289D02*
X0086569Y0134289D01*
X0086569Y0134888D02*
X0097289Y0134888D01*
X0097289Y0135486D02*
X0086569Y0135486D01*
X0086088Y0136085D02*
X0097289Y0136085D01*
X0097289Y0136683D02*
X0071215Y0136683D01*
X0071215Y0136085D02*
X0072652Y0136085D01*
X0072171Y0135486D02*
X0071215Y0135486D01*
X0071215Y0134888D02*
X0072171Y0134888D01*
X0072171Y0134289D02*
X0071413Y0134289D01*
X0071759Y0133691D02*
X0072171Y0133691D01*
X0072171Y0130698D02*
X0071759Y0130698D01*
X0071639Y0130099D02*
X0072171Y0130099D01*
X0072171Y0129501D02*
X0019415Y0129501D01*
X0019415Y0128902D02*
X0072171Y0128902D01*
X0072426Y0128304D02*
X0019416Y0128304D01*
X0019417Y0126508D02*
X0068967Y0126508D01*
X0068881Y0126423D02*
X0068710Y0126126D01*
X0068621Y0125796D01*
X0068621Y0122381D01*
X0072377Y0122381D01*
X0072377Y0126924D01*
X0069750Y0126924D01*
X0069420Y0126836D01*
X0069123Y0126665D01*
X0068881Y0126423D01*
X0068652Y0125910D02*
X0019417Y0125910D01*
X0019418Y0125311D02*
X0068621Y0125311D01*
X0068621Y0124713D02*
X0019418Y0124713D01*
X0019419Y0124114D02*
X0068621Y0124114D01*
X0068621Y0123516D02*
X0019419Y0123516D01*
X0019419Y0122917D02*
X0068621Y0122917D01*
X0068621Y0121720D02*
X0019420Y0121720D01*
X0019421Y0121122D02*
X0068621Y0121122D01*
X0068621Y0120523D02*
X0019421Y0120523D01*
X0019421Y0119925D02*
X0068621Y0119925D01*
X0068621Y0119326D02*
X0019422Y0119326D01*
X0019422Y0118728D02*
X0038517Y0118728D01*
X0037693Y0118386D02*
X0036332Y0117026D01*
X0035596Y0115248D01*
X0035596Y0113324D01*
X0036332Y0111546D01*
X0037693Y0110185D01*
X0039471Y0109449D01*
X0049269Y0109449D01*
X0051047Y0110185D01*
X0052408Y0111546D01*
X0053144Y0113324D01*
X0053144Y0115248D01*
X0052408Y0117026D01*
X0051047Y0118386D01*
X0049269Y0119123D01*
X0039471Y0119123D01*
X0037693Y0118386D01*
X0037436Y0118129D02*
X0019423Y0118129D01*
X0019423Y0117531D02*
X0036837Y0117531D01*
X0036294Y0116932D02*
X0019423Y0116932D01*
X0019424Y0116334D02*
X0036046Y0116334D01*
X0035798Y0115735D02*
X0019424Y0115735D01*
X0019425Y0115137D02*
X0035596Y0115137D01*
X0035596Y0114538D02*
X0019425Y0114538D01*
X0019425Y0113940D02*
X0035596Y0113940D01*
X0035596Y0113341D02*
X0019426Y0113341D01*
X0019426Y0112743D02*
X0035837Y0112743D01*
X0036085Y0112144D02*
X0019427Y0112144D01*
X0019427Y0111546D02*
X0036333Y0111546D01*
X0036931Y0110947D02*
X0019427Y0110947D01*
X0019428Y0110349D02*
X0037530Y0110349D01*
X0038744Y0109750D02*
X0019428Y0109750D01*
X0019429Y0109152D02*
X0059071Y0109152D01*
X0059273Y0109430D02*
X0058789Y0108763D01*
X0058414Y0108028D01*
X0058160Y0107244D01*
X0058031Y0106430D01*
X0058031Y0102381D01*
X0062968Y0102381D01*
X0062968Y0111255D01*
X0062856Y0111255D01*
X0062041Y0111126D01*
X0061257Y0110871D01*
X0060523Y0110497D01*
X0059856Y0110013D01*
X0059273Y0109430D01*
X0059593Y0109750D02*
X0049997Y0109750D01*
X0051210Y0110349D02*
X0060318Y0110349D01*
X0061490Y0110947D02*
X0051809Y0110947D01*
X0052407Y0111546D02*
X0066981Y0111546D01*
X0066981Y0112144D02*
X0052656Y0112144D01*
X0052903Y0112743D02*
X0066981Y0112743D01*
X0066981Y0113341D02*
X0053144Y0113341D01*
X0053144Y0113940D02*
X0066981Y0113940D01*
X0069370Y0112081D02*
X0075630Y0112081D01*
X0079089Y0112144D02*
X0079651Y0112144D01*
X0079651Y0111546D02*
X0079089Y0111546D01*
X0079089Y0110947D02*
X0079651Y0110947D01*
X0079651Y0110349D02*
X0079089Y0110349D01*
X0079089Y0109750D02*
X0079651Y0109750D01*
X0079651Y0109152D02*
X0079089Y0109152D01*
X0079083Y0108553D02*
X0079145Y0108553D01*
X0079370Y0107081D02*
X0074370Y0107081D01*
X0074370Y0103341D01*
X0075630Y0102081D01*
X0075630Y0095821D01*
X0079370Y0092081D01*
X0094370Y0092081D01*
X0094370Y0100881D01*
X0123170Y0100881D01*
X0124370Y0102081D01*
X0124370Y0116845D01*
X0122289Y0116932D02*
X0121451Y0116932D01*
X0121451Y0116334D02*
X0122289Y0116334D01*
X0122289Y0115735D02*
X0121451Y0115735D01*
X0121451Y0115137D02*
X0122289Y0115137D01*
X0122289Y0114538D02*
X0121451Y0114538D01*
X0121451Y0113940D02*
X0122289Y0113940D01*
X0122289Y0113341D02*
X0121451Y0113341D01*
X0121451Y0112743D02*
X0122289Y0112743D01*
X0122289Y0112144D02*
X0121451Y0112144D01*
X0120570Y0111546D02*
X0123170Y0111546D01*
X0123170Y0110947D02*
X0120570Y0110947D01*
X0120570Y0110349D02*
X0123170Y0110349D01*
X0123170Y0109750D02*
X0120570Y0109750D01*
X0120570Y0109152D02*
X0123170Y0109152D01*
X0125570Y0103166D02*
X0127077Y0103166D01*
X0126981Y0102568D02*
X0125570Y0102568D01*
X0125570Y0101969D02*
X0126981Y0101969D01*
X0126981Y0101371D02*
X0125357Y0101371D01*
X0124758Y0100772D02*
X0127300Y0100772D01*
X0127899Y0100174D02*
X0124160Y0100174D01*
X0130841Y0100174D02*
X0143837Y0100174D01*
X0144435Y0100772D02*
X0131440Y0100772D01*
X0131759Y0101371D02*
X0145034Y0101371D01*
X0145045Y0101382D02*
X0141944Y0098281D01*
X0101549Y0098281D01*
X0100360Y0099470D01*
X0098381Y0099470D01*
X0096981Y0098071D01*
X0096981Y0096092D01*
X0098381Y0094692D01*
X0100360Y0094692D01*
X0101549Y0095881D01*
X0142938Y0095881D01*
X0147529Y0100472D01*
X0151830Y0100472D01*
X0152357Y0101000D01*
X0152357Y0105682D01*
X0151830Y0106209D01*
X0145572Y0106209D01*
X0145045Y0105682D01*
X0145045Y0101382D01*
X0145045Y0101969D02*
X0131759Y0101969D01*
X0131759Y0102568D02*
X0145045Y0102568D01*
X0145045Y0103166D02*
X0131663Y0103166D01*
X0131065Y0103765D02*
X0145045Y0103765D01*
X0145045Y0104363D02*
X0143319Y0104363D01*
X0143695Y0104962D02*
X0145045Y0104962D01*
X0145045Y0105561D02*
X0143695Y0105561D01*
X0143695Y0106159D02*
X0145522Y0106159D01*
X0145570Y0107955D02*
X0143695Y0107955D01*
X0143695Y0108553D02*
X0145045Y0108553D01*
X0145045Y0109152D02*
X0143695Y0109152D01*
X0143368Y0109750D02*
X0145045Y0109750D01*
X0143695Y0107356D02*
X0209850Y0107356D01*
X0209850Y0106758D02*
X0172935Y0106758D01*
X0172892Y0106800D02*
X0165848Y0106800D01*
X0165320Y0106273D01*
X0165320Y0100409D01*
X0165848Y0099882D01*
X0168170Y0099882D01*
X0168170Y0098281D01*
X0168170Y0098281D01*
X0160570Y0098281D01*
X0160570Y0099882D01*
X0162892Y0099882D01*
X0163420Y0100409D01*
X0163420Y0106273D01*
X0162892Y0106800D01*
X0155848Y0106800D01*
X0155320Y0106273D01*
X0155320Y0100409D01*
X0155848Y0099882D01*
X0158170Y0099882D01*
X0158170Y0096584D01*
X0158873Y0095881D01*
X0167176Y0095881D01*
X0168376Y0094681D01*
X0180364Y0094681D01*
X0181564Y0095881D01*
X0189867Y0095881D01*
X0190570Y0096584D01*
X0190570Y0099685D01*
X0192105Y0099685D01*
X0192632Y0100212D01*
X0192632Y0105682D01*
X0192105Y0106209D01*
X0186635Y0106209D01*
X0186108Y0105682D01*
X0186108Y0100212D01*
X0186635Y0099685D01*
X0188170Y0099685D01*
X0188170Y0098281D01*
X0180570Y0098281D01*
X0180570Y0099685D01*
X0182105Y0099685D01*
X0182632Y0100212D01*
X0182632Y0105682D01*
X0182105Y0106209D01*
X0176635Y0106209D01*
X0176108Y0105682D01*
X0176108Y0100212D01*
X0176635Y0099685D01*
X0178170Y0099685D01*
X0178170Y0098281D01*
X0170570Y0098281D01*
X0170570Y0099882D01*
X0172892Y0099882D01*
X0173420Y0100409D01*
X0173420Y0106273D01*
X0172892Y0106800D01*
X0173420Y0106159D02*
X0176585Y0106159D01*
X0176108Y0105561D02*
X0173420Y0105561D01*
X0173420Y0104962D02*
X0176108Y0104962D01*
X0176108Y0104363D02*
X0173420Y0104363D01*
X0173420Y0103765D02*
X0176108Y0103765D01*
X0176108Y0103166D02*
X0173420Y0103166D01*
X0173420Y0102568D02*
X0176108Y0102568D01*
X0176108Y0101969D02*
X0173420Y0101969D01*
X0173420Y0101371D02*
X0176108Y0101371D01*
X0176108Y0100772D02*
X0173420Y0100772D01*
X0173185Y0100174D02*
X0176146Y0100174D01*
X0178170Y0099575D02*
X0170570Y0099575D01*
X0170570Y0098977D02*
X0178170Y0098977D01*
X0178170Y0098378D02*
X0170570Y0098378D01*
X0169370Y0097081D02*
X0179370Y0097081D01*
X0179370Y0102947D01*
X0182632Y0103166D02*
X0186108Y0103166D01*
X0186108Y0102568D02*
X0182632Y0102568D01*
X0182632Y0101969D02*
X0186108Y0101969D01*
X0186108Y0101371D02*
X0182632Y0101371D01*
X0182632Y0100772D02*
X0186108Y0100772D01*
X0186146Y0100174D02*
X0182594Y0100174D01*
X0180570Y0099575D02*
X0188170Y0099575D01*
X0188170Y0098977D02*
X0180570Y0098977D01*
X0180570Y0098378D02*
X0188170Y0098378D01*
X0189370Y0097081D02*
X0189370Y0102947D01*
X0186108Y0103765D02*
X0182632Y0103765D01*
X0182632Y0104363D02*
X0186108Y0104363D01*
X0186108Y0104962D02*
X0182632Y0104962D01*
X0182632Y0105561D02*
X0186108Y0105561D01*
X0186585Y0106159D02*
X0182155Y0106159D01*
X0182673Y0107955D02*
X0186068Y0107955D01*
X0185968Y0108055D02*
X0186210Y0107812D01*
X0186506Y0107641D01*
X0186837Y0107553D01*
X0189070Y0107553D01*
X0189070Y0110915D01*
X0185708Y0110915D01*
X0185708Y0108682D01*
X0185796Y0108351D01*
X0185968Y0108055D01*
X0185742Y0108553D02*
X0182998Y0108553D01*
X0183032Y0109152D02*
X0185708Y0109152D01*
X0185708Y0109750D02*
X0183032Y0109750D01*
X0183032Y0110349D02*
X0185708Y0110349D01*
X0185708Y0111515D02*
X0189070Y0111515D01*
X0189070Y0110915D01*
X0189670Y0110915D01*
X0189670Y0107553D01*
X0191903Y0107553D01*
X0192234Y0107641D01*
X0192531Y0107812D01*
X0192773Y0108055D01*
X0192944Y0108351D01*
X0193032Y0108682D01*
X0193032Y0110915D01*
X0189670Y0110915D01*
X0189670Y0111515D01*
X0189070Y0111515D01*
X0189070Y0114877D01*
X0186837Y0114877D01*
X0186506Y0114789D01*
X0186210Y0114617D01*
X0185968Y0114375D01*
X0185796Y0114079D01*
X0185708Y0113748D01*
X0185708Y0111515D01*
X0185708Y0111546D02*
X0183032Y0111546D01*
X0183032Y0112144D02*
X0185708Y0112144D01*
X0185708Y0112743D02*
X0183032Y0112743D01*
X0183032Y0113341D02*
X0185708Y0113341D01*
X0185759Y0113940D02*
X0182981Y0113940D01*
X0182610Y0114538D02*
X0186130Y0114538D01*
X0189070Y0114538D02*
X0189670Y0114538D01*
X0189670Y0114877D02*
X0189670Y0111515D01*
X0193032Y0111515D01*
X0193032Y0113748D01*
X0192944Y0114079D01*
X0192773Y0114375D01*
X0192531Y0114617D01*
X0192234Y0114789D01*
X0191903Y0114877D01*
X0189670Y0114877D01*
X0189670Y0113940D02*
X0189070Y0113940D01*
X0189070Y0113341D02*
X0189670Y0113341D01*
X0189670Y0112743D02*
X0189070Y0112743D01*
X0189070Y0112144D02*
X0189670Y0112144D01*
X0189670Y0111546D02*
X0189070Y0111546D01*
X0189070Y0110947D02*
X0179670Y0110947D01*
X0179670Y0110349D02*
X0179070Y0110349D01*
X0179070Y0110947D02*
X0173420Y0110947D01*
X0173420Y0110349D02*
X0175708Y0110349D01*
X0175708Y0109750D02*
X0173420Y0109750D01*
X0173420Y0109152D02*
X0175708Y0109152D01*
X0175742Y0108553D02*
X0173420Y0108553D01*
X0173420Y0107955D02*
X0176068Y0107955D01*
X0175708Y0111546D02*
X0173420Y0111546D01*
X0173420Y0112144D02*
X0175708Y0112144D01*
X0175708Y0112743D02*
X0173420Y0112743D01*
X0173420Y0113341D02*
X0175708Y0113341D01*
X0175759Y0113940D02*
X0173233Y0113940D01*
X0176130Y0114538D02*
X0155570Y0114538D01*
X0155804Y0115137D02*
X0167920Y0115137D01*
X0167322Y0115735D02*
X0156403Y0115735D01*
X0156759Y0116334D02*
X0158420Y0116334D01*
X0158170Y0116932D02*
X0156759Y0116932D01*
X0156759Y0117531D02*
X0158170Y0117531D01*
X0158170Y0118129D02*
X0156700Y0118129D01*
X0156102Y0118728D02*
X0158170Y0118728D01*
X0158170Y0119326D02*
X0155503Y0119326D01*
X0155805Y0119925D02*
X0152357Y0119925D01*
X0152357Y0120523D02*
X0155320Y0120523D01*
X0155320Y0121122D02*
X0151917Y0121122D01*
X0152357Y0119326D02*
X0153237Y0119326D01*
X0152638Y0118728D02*
X0152357Y0118728D01*
X0154370Y0117081D02*
X0154370Y0110821D01*
X0159370Y0110821D01*
X0169370Y0110821D01*
X0165320Y0112144D02*
X0163420Y0112144D01*
X0163420Y0112743D02*
X0165320Y0112743D01*
X0165320Y0113341D02*
X0163420Y0113341D01*
X0163233Y0113940D02*
X0165507Y0113940D01*
X0169370Y0117081D02*
X0169370Y0123341D01*
X0165320Y0123516D02*
X0163420Y0123516D01*
X0163420Y0124114D02*
X0165320Y0124114D01*
X0165320Y0124713D02*
X0163420Y0124713D01*
X0163420Y0125311D02*
X0165320Y0125311D01*
X0165320Y0125910D02*
X0163420Y0125910D01*
X0163184Y0126508D02*
X0165556Y0126508D01*
X0165504Y0127705D02*
X0163236Y0127705D01*
X0163420Y0128304D02*
X0165320Y0128304D01*
X0165320Y0128902D02*
X0163420Y0128902D01*
X0163420Y0129501D02*
X0165320Y0129501D01*
X0165320Y0132494D02*
X0163420Y0132494D01*
X0163420Y0133092D02*
X0165320Y0133092D01*
X0165320Y0133691D02*
X0163420Y0133691D01*
X0163285Y0140274D02*
X0165455Y0140274D01*
X0165320Y0140873D02*
X0163420Y0140873D01*
X0163420Y0141471D02*
X0165320Y0141471D01*
X0165320Y0142070D02*
X0163420Y0142070D01*
X0163420Y0142668D02*
X0165320Y0142668D01*
X0165320Y0143267D02*
X0163420Y0143267D01*
X0163420Y0143865D02*
X0165320Y0143865D01*
X0165320Y0144464D02*
X0163420Y0144464D01*
X0163420Y0145062D02*
X0165320Y0145062D01*
X0165320Y0145661D02*
X0163420Y0145661D01*
X0163420Y0146259D02*
X0165320Y0146259D01*
X0165754Y0147456D02*
X0162987Y0147456D01*
X0163420Y0148055D02*
X0165320Y0148055D01*
X0165320Y0148653D02*
X0163420Y0148653D01*
X0163420Y0149252D02*
X0165320Y0149252D01*
X0165320Y0152244D02*
X0163420Y0152244D01*
X0163420Y0152843D02*
X0165320Y0152843D01*
X0165320Y0153441D02*
X0163420Y0153441D01*
X0163133Y0154040D02*
X0165607Y0154040D01*
X0169370Y0150821D02*
X0159370Y0150821D01*
X0155320Y0153441D02*
X0150570Y0153441D01*
X0150570Y0154040D02*
X0155607Y0154040D01*
X0150570Y0154638D02*
X0176246Y0154638D01*
X0175786Y0154040D02*
X0173133Y0154040D01*
X0173420Y0153441D02*
X0175708Y0153441D01*
X0175708Y0152843D02*
X0173420Y0152843D01*
X0173420Y0152244D02*
X0175708Y0152244D01*
X0175708Y0151646D02*
X0173420Y0151646D01*
X0179070Y0150915D02*
X0179070Y0147553D01*
X0179070Y0148055D02*
X0179670Y0148055D01*
X0179670Y0148653D02*
X0179070Y0148653D01*
X0179070Y0149252D02*
X0179670Y0149252D01*
X0179670Y0149850D02*
X0179070Y0149850D01*
X0179070Y0150449D02*
X0179670Y0150449D01*
X0169370Y0143341D02*
X0169370Y0137081D01*
X0173184Y0126508D02*
X0209850Y0126508D01*
X0209850Y0125910D02*
X0192405Y0125910D01*
X0192632Y0125311D02*
X0209850Y0125311D01*
X0209850Y0124713D02*
X0192632Y0124713D01*
X0192632Y0124114D02*
X0209850Y0124114D01*
X0209850Y0123516D02*
X0192632Y0123516D01*
X0192632Y0122917D02*
X0209850Y0122917D01*
X0209850Y0122319D02*
X0192632Y0122319D01*
X0192632Y0121720D02*
X0209850Y0121720D01*
X0209850Y0121122D02*
X0192632Y0121122D01*
X0192632Y0120523D02*
X0209850Y0120523D01*
X0209850Y0119925D02*
X0192345Y0119925D01*
X0190570Y0119326D02*
X0209850Y0119326D01*
X0209850Y0118728D02*
X0190570Y0118728D01*
X0190570Y0118129D02*
X0209850Y0118129D01*
X0209850Y0117531D02*
X0190570Y0117531D01*
X0190570Y0116932D02*
X0209850Y0116932D01*
X0209850Y0116334D02*
X0190320Y0116334D01*
X0189370Y0117081D02*
X0189370Y0122947D01*
X0186108Y0123516D02*
X0182632Y0123516D01*
X0182632Y0124114D02*
X0186108Y0124114D01*
X0186108Y0124713D02*
X0182632Y0124713D01*
X0182632Y0125311D02*
X0186108Y0125311D01*
X0186336Y0125910D02*
X0182405Y0125910D01*
X0182345Y0127705D02*
X0186395Y0127705D01*
X0185824Y0128304D02*
X0182917Y0128304D01*
X0183032Y0128902D02*
X0185708Y0128902D01*
X0185708Y0129501D02*
X0183032Y0129501D01*
X0183032Y0130099D02*
X0185708Y0130099D01*
X0185708Y0130698D02*
X0183032Y0130698D01*
X0183032Y0131895D02*
X0185708Y0131895D01*
X0185708Y0132494D02*
X0183032Y0132494D01*
X0183032Y0133092D02*
X0185708Y0133092D01*
X0185708Y0133691D02*
X0183032Y0133691D01*
X0182822Y0134289D02*
X0185918Y0134289D01*
X0189070Y0134289D02*
X0189670Y0134289D01*
X0189670Y0133691D02*
X0189070Y0133691D01*
X0189070Y0133092D02*
X0189670Y0133092D01*
X0189670Y0132494D02*
X0189070Y0132494D01*
X0189070Y0130698D02*
X0189670Y0130698D01*
X0189670Y0130099D02*
X0189070Y0130099D01*
X0189070Y0129501D02*
X0189670Y0129501D01*
X0189670Y0128902D02*
X0189070Y0128902D01*
X0189070Y0128304D02*
X0189670Y0128304D01*
X0189670Y0127705D02*
X0189070Y0127705D01*
X0179670Y0127705D02*
X0179070Y0127705D01*
X0179070Y0128304D02*
X0179670Y0128304D01*
X0179670Y0128902D02*
X0179070Y0128902D01*
X0179070Y0129501D02*
X0179670Y0129501D01*
X0179670Y0130099D02*
X0179070Y0130099D01*
X0181067Y0117081D02*
X0189370Y0117081D01*
X0192610Y0114538D02*
X0209850Y0114538D01*
X0209850Y0113940D02*
X0192981Y0113940D01*
X0193032Y0113341D02*
X0209850Y0113341D01*
X0209850Y0112743D02*
X0193032Y0112743D01*
X0193032Y0112144D02*
X0209850Y0112144D01*
X0209850Y0111546D02*
X0193032Y0111546D01*
X0193032Y0110349D02*
X0209850Y0110349D01*
X0209850Y0110947D02*
X0189670Y0110947D01*
X0189670Y0110349D02*
X0189070Y0110349D01*
X0189070Y0109750D02*
X0189670Y0109750D01*
X0189670Y0109152D02*
X0189070Y0109152D01*
X0189070Y0108553D02*
X0189670Y0108553D01*
X0189670Y0107955D02*
X0189070Y0107955D01*
X0192155Y0106159D02*
X0209850Y0106159D01*
X0209850Y0105561D02*
X0192632Y0105561D01*
X0192632Y0104962D02*
X0209850Y0104962D01*
X0209850Y0104363D02*
X0192632Y0104363D01*
X0192632Y0103765D02*
X0209850Y0103765D01*
X0209850Y0103166D02*
X0192632Y0103166D01*
X0192632Y0102568D02*
X0209850Y0102568D01*
X0209850Y0101969D02*
X0192632Y0101969D01*
X0192632Y0101371D02*
X0209850Y0101371D01*
X0209850Y0100772D02*
X0192632Y0100772D01*
X0192594Y0100174D02*
X0209850Y0100174D01*
X0209850Y0099575D02*
X0190570Y0099575D01*
X0190570Y0098977D02*
X0209850Y0098977D01*
X0209850Y0098378D02*
X0190570Y0098378D01*
X0190570Y0097780D02*
X0209850Y0097780D01*
X0209850Y0097181D02*
X0190570Y0097181D01*
X0190569Y0096583D02*
X0209850Y0096583D01*
X0209850Y0095984D02*
X0189970Y0095984D01*
X0189370Y0097081D02*
X0181067Y0097081D01*
X0179867Y0095881D01*
X0168873Y0095881D01*
X0167673Y0097081D01*
X0159370Y0097081D01*
X0159370Y0103341D01*
X0155320Y0103166D02*
X0152357Y0103166D01*
X0152357Y0102568D02*
X0155320Y0102568D01*
X0155320Y0101969D02*
X0152357Y0101969D01*
X0152357Y0101371D02*
X0155320Y0101371D01*
X0155320Y0100772D02*
X0152129Y0100772D01*
X0152357Y0103765D02*
X0155320Y0103765D01*
X0155320Y0104363D02*
X0152357Y0104363D01*
X0152357Y0104962D02*
X0155320Y0104962D01*
X0155320Y0105561D02*
X0152357Y0105561D01*
X0151880Y0106159D02*
X0155320Y0106159D01*
X0155805Y0106758D02*
X0143695Y0106758D01*
X0148701Y0103341D02*
X0142441Y0097081D01*
X0099370Y0097081D01*
X0097687Y0095386D02*
X0095570Y0095386D01*
X0095570Y0095984D02*
X0097088Y0095984D01*
X0096981Y0096583D02*
X0095570Y0096583D01*
X0095570Y0097181D02*
X0096981Y0097181D01*
X0096981Y0097780D02*
X0095570Y0097780D01*
X0095570Y0098378D02*
X0097289Y0098378D01*
X0097887Y0098977D02*
X0095570Y0098977D01*
X0095570Y0099575D02*
X0143238Y0099575D01*
X0142640Y0098977D02*
X0100853Y0098977D01*
X0101451Y0098378D02*
X0142041Y0098378D01*
X0143640Y0096583D02*
X0158171Y0096583D01*
X0158170Y0097181D02*
X0144238Y0097181D01*
X0144837Y0097780D02*
X0158170Y0097780D01*
X0158170Y0098378D02*
X0145435Y0098378D01*
X0146034Y0098977D02*
X0158170Y0098977D01*
X0158170Y0099575D02*
X0146632Y0099575D01*
X0147231Y0100174D02*
X0155556Y0100174D01*
X0160570Y0099575D02*
X0168170Y0099575D01*
X0168170Y0098977D02*
X0160570Y0098977D01*
X0160570Y0098378D02*
X0168170Y0098378D01*
X0169370Y0097081D02*
X0169370Y0103341D01*
X0165320Y0103166D02*
X0163420Y0103166D01*
X0163420Y0102568D02*
X0165320Y0102568D01*
X0165320Y0101969D02*
X0163420Y0101969D01*
X0163420Y0101371D02*
X0165320Y0101371D01*
X0165320Y0100772D02*
X0163420Y0100772D01*
X0163185Y0100174D02*
X0165556Y0100174D01*
X0165320Y0103765D02*
X0163420Y0103765D01*
X0163420Y0104363D02*
X0165320Y0104363D01*
X0165320Y0104962D02*
X0163420Y0104962D01*
X0163420Y0105561D02*
X0165320Y0105561D01*
X0165320Y0106159D02*
X0163420Y0106159D01*
X0162935Y0106758D02*
X0165805Y0106758D01*
X0165320Y0107955D02*
X0163420Y0107955D01*
X0163420Y0108553D02*
X0165320Y0108553D01*
X0165320Y0109152D02*
X0163420Y0109152D01*
X0155320Y0109152D02*
X0152357Y0109152D01*
X0152357Y0108553D02*
X0155320Y0108553D01*
X0155320Y0107955D02*
X0151831Y0107955D01*
X0154370Y0110821D02*
X0148701Y0110821D01*
X0152357Y0112144D02*
X0153170Y0112144D01*
X0153170Y0112743D02*
X0152357Y0112743D01*
X0152178Y0113341D02*
X0153170Y0113341D01*
X0152936Y0115137D02*
X0135804Y0115137D01*
X0136403Y0115735D02*
X0145309Y0115735D01*
X0147441Y0117081D02*
X0148701Y0118341D01*
X0147441Y0117081D02*
X0134370Y0117081D01*
X0122289Y0117531D02*
X0121451Y0117531D01*
X0121451Y0118129D02*
X0122289Y0118129D01*
X0122289Y0118728D02*
X0121451Y0118728D01*
X0121451Y0119326D02*
X0122289Y0119326D01*
X0122289Y0119925D02*
X0121451Y0119925D01*
X0121451Y0120523D02*
X0122289Y0120523D01*
X0122289Y0121122D02*
X0121451Y0121122D01*
X0121279Y0121720D02*
X0122461Y0121720D01*
X0117461Y0121720D02*
X0116279Y0121720D01*
X0116451Y0121122D02*
X0117289Y0121122D01*
X0117289Y0120523D02*
X0116451Y0120523D01*
X0116451Y0119925D02*
X0117289Y0119925D01*
X0117289Y0119326D02*
X0116451Y0119326D01*
X0116451Y0118728D02*
X0117289Y0118728D01*
X0117289Y0118129D02*
X0116451Y0118129D01*
X0116451Y0117531D02*
X0117289Y0117531D01*
X0099370Y0116845D02*
X0099370Y0107081D01*
X0097512Y0105561D02*
X0094370Y0105561D01*
X0094370Y0106159D02*
X0096981Y0106159D01*
X0096981Y0106758D02*
X0094370Y0106758D01*
X0094370Y0107356D02*
X0096981Y0107356D01*
X0096981Y0107955D02*
X0094370Y0107955D01*
X0094370Y0108553D02*
X0097464Y0108553D01*
X0098062Y0109152D02*
X0094370Y0109152D01*
X0094370Y0109750D02*
X0098170Y0109750D01*
X0098170Y0110349D02*
X0094370Y0110349D01*
X0094370Y0110947D02*
X0098170Y0110947D01*
X0098170Y0111546D02*
X0094370Y0111546D01*
X0094370Y0112144D02*
X0097289Y0112144D01*
X0097289Y0112743D02*
X0094370Y0112743D01*
X0094370Y0113341D02*
X0097289Y0113341D01*
X0097289Y0113940D02*
X0094209Y0113940D01*
X0093610Y0114538D02*
X0097289Y0114538D01*
X0097289Y0115137D02*
X0093012Y0115137D01*
X0092413Y0115735D02*
X0097289Y0115735D01*
X0097289Y0116334D02*
X0091815Y0116334D01*
X0091216Y0116932D02*
X0097289Y0116932D01*
X0097289Y0117531D02*
X0090617Y0117531D01*
X0090019Y0118129D02*
X0097289Y0118129D01*
X0097289Y0118728D02*
X0089719Y0118728D01*
X0089719Y0119326D02*
X0097289Y0119326D01*
X0097289Y0119925D02*
X0089719Y0119925D01*
X0089719Y0120523D02*
X0097289Y0120523D01*
X0097289Y0121122D02*
X0089719Y0121122D01*
X0089719Y0121720D02*
X0097461Y0121720D01*
X0090814Y0113940D02*
X0086569Y0113940D01*
X0086569Y0114538D02*
X0090216Y0114538D01*
X0089617Y0115137D02*
X0086569Y0115137D01*
X0086438Y0115735D02*
X0089019Y0115735D01*
X0088420Y0116334D02*
X0052694Y0116334D01*
X0052446Y0116932D02*
X0087822Y0116932D01*
X0087223Y0117531D02*
X0076265Y0117531D01*
X0076669Y0118129D02*
X0082443Y0118129D01*
X0082407Y0118728D02*
X0076733Y0118728D01*
X0076733Y0119326D02*
X0082407Y0119326D01*
X0082407Y0119925D02*
X0076733Y0119925D01*
X0076733Y0120523D02*
X0082407Y0120523D01*
X0082407Y0121122D02*
X0076733Y0121122D01*
X0076733Y0121720D02*
X0082407Y0121720D01*
X0082407Y0122319D02*
X0072977Y0122319D01*
X0072977Y0122917D02*
X0072377Y0122917D01*
X0072377Y0122319D02*
X0019420Y0122319D01*
X0031639Y0130099D02*
X0037101Y0130099D01*
X0036981Y0130698D02*
X0031759Y0130698D01*
X0031759Y0131297D02*
X0036981Y0131297D01*
X0036981Y0131895D02*
X0031759Y0131895D01*
X0031759Y0132494D02*
X0036981Y0132494D01*
X0036981Y0133092D02*
X0031759Y0133092D01*
X0031759Y0133691D02*
X0036981Y0133691D01*
X0037327Y0134289D02*
X0031413Y0134289D01*
X0032701Y0134888D02*
X0036039Y0134888D01*
X0035517Y0135486D02*
X0033223Y0135486D01*
X0033223Y0136085D02*
X0035517Y0136085D01*
X0035517Y0136683D02*
X0033223Y0136683D01*
X0033223Y0137282D02*
X0035517Y0137282D01*
X0035517Y0137880D02*
X0033223Y0137880D01*
X0039370Y0138341D02*
X0039370Y0132081D01*
X0039370Y0138341D02*
X0050236Y0138341D01*
X0050394Y0138183D01*
X0053262Y0138479D02*
X0065478Y0138479D01*
X0065478Y0139077D02*
X0053262Y0139077D01*
X0053262Y0139676D02*
X0065478Y0139676D01*
X0065478Y0140274D02*
X0053262Y0140274D01*
X0053262Y0140873D02*
X0065478Y0140873D01*
X0065478Y0141471D02*
X0053262Y0141471D01*
X0052898Y0142070D02*
X0065842Y0142070D01*
X0065478Y0137880D02*
X0053262Y0137880D01*
X0053262Y0137282D02*
X0065478Y0137282D01*
X0065478Y0136683D02*
X0053262Y0136683D01*
X0053262Y0136085D02*
X0065478Y0136085D01*
X0065478Y0135486D02*
X0053262Y0135486D01*
X0053262Y0134888D02*
X0065478Y0134888D01*
X0065850Y0134289D02*
X0052890Y0134289D01*
X0043623Y0146259D02*
X0085229Y0146259D01*
X0087509Y0146858D02*
X0043623Y0146858D01*
X0043623Y0147456D02*
X0088016Y0147456D01*
X0088016Y0148055D02*
X0043623Y0148055D01*
X0043596Y0148653D02*
X0088016Y0148653D01*
X0088016Y0149252D02*
X0043290Y0149252D01*
X0039670Y0149252D02*
X0039070Y0149252D01*
X0039070Y0148653D02*
X0039670Y0148653D01*
X0039670Y0148055D02*
X0039070Y0148055D01*
X0039070Y0147456D02*
X0039670Y0147456D01*
X0039670Y0146858D02*
X0039070Y0146858D01*
X0039070Y0145062D02*
X0039670Y0145062D01*
X0039670Y0144464D02*
X0039070Y0144464D01*
X0039070Y0143865D02*
X0039670Y0143865D01*
X0039670Y0143267D02*
X0039070Y0143267D01*
X0039070Y0142668D02*
X0039670Y0142668D01*
X0039670Y0142070D02*
X0039070Y0142070D01*
X0047631Y0154040D02*
X0019399Y0154040D01*
X0019398Y0154638D02*
X0047440Y0154638D01*
X0047440Y0155237D02*
X0019398Y0155237D01*
X0019398Y0155835D02*
X0047440Y0155835D01*
X0047440Y0156434D02*
X0019397Y0156434D01*
X0019397Y0157032D02*
X0047440Y0157032D01*
X0047440Y0157631D02*
X0019396Y0157631D01*
X0019396Y0158230D02*
X0047440Y0158230D01*
X0047440Y0158828D02*
X0019396Y0158828D01*
X0019395Y0159427D02*
X0047440Y0159427D01*
X0047440Y0160025D02*
X0019395Y0160025D01*
X0019394Y0160624D02*
X0047440Y0160624D01*
X0047440Y0161222D02*
X0019394Y0161222D01*
X0019394Y0161821D02*
X0047440Y0161821D01*
X0047440Y0162419D02*
X0019393Y0162419D01*
X0019393Y0163018D02*
X0047440Y0163018D01*
X0047440Y0163616D02*
X0019392Y0163616D01*
X0019392Y0164215D02*
X0047440Y0164215D01*
X0047440Y0164813D02*
X0019392Y0164813D01*
X0019391Y0165412D02*
X0047440Y0165412D01*
X0047440Y0166010D02*
X0019391Y0166010D01*
X0019390Y0166609D02*
X0047440Y0166609D01*
X0059070Y0166609D02*
X0059670Y0166609D01*
X0059670Y0166010D02*
X0059070Y0166010D01*
X0059070Y0165412D02*
X0059670Y0165412D01*
X0059670Y0164813D02*
X0059070Y0164813D01*
X0059070Y0164215D02*
X0059670Y0164215D01*
X0059670Y0163616D02*
X0059070Y0163616D01*
X0059070Y0163018D02*
X0059670Y0163018D01*
X0059670Y0162419D02*
X0059070Y0162419D01*
X0059070Y0161821D02*
X0059670Y0161821D01*
X0059670Y0161222D02*
X0059070Y0161222D01*
X0059070Y0160624D02*
X0059670Y0160624D01*
X0059670Y0160025D02*
X0059070Y0160025D01*
X0059070Y0159427D02*
X0059670Y0159427D01*
X0059670Y0158828D02*
X0059070Y0158828D01*
X0059070Y0158230D02*
X0059670Y0158230D01*
X0059670Y0157631D02*
X0059070Y0157631D01*
X0059070Y0157032D02*
X0059670Y0157032D01*
X0059670Y0156434D02*
X0059070Y0156434D01*
X0059070Y0155835D02*
X0059670Y0155835D01*
X0059670Y0155237D02*
X0059070Y0155237D01*
X0059070Y0154638D02*
X0059670Y0154638D01*
X0059670Y0154040D02*
X0059070Y0154040D01*
X0059070Y0153441D02*
X0059670Y0153441D01*
X0048485Y0153441D02*
X0019399Y0153441D01*
X0019399Y0152843D02*
X0075517Y0152843D01*
X0075517Y0152244D02*
X0019400Y0152244D01*
X0019400Y0151646D02*
X0075517Y0151646D01*
X0075517Y0151047D02*
X0019401Y0151047D01*
X0019401Y0150449D02*
X0075517Y0150449D01*
X0079070Y0157032D02*
X0079670Y0157032D01*
X0079670Y0157631D02*
X0079070Y0157631D01*
X0079070Y0158230D02*
X0079670Y0158230D01*
X0079670Y0158828D02*
X0079070Y0158828D01*
X0079070Y0159427D02*
X0079670Y0159427D01*
X0079670Y0160025D02*
X0079070Y0160025D01*
X0079070Y0161821D02*
X0079670Y0161821D01*
X0079670Y0162419D02*
X0079070Y0162419D01*
X0079070Y0163018D02*
X0079670Y0163018D01*
X0079670Y0163616D02*
X0079070Y0163616D01*
X0079070Y0164215D02*
X0079670Y0164215D01*
X0075413Y0164215D02*
X0071300Y0164215D01*
X0071300Y0163616D02*
X0075135Y0163616D01*
X0075117Y0163018D02*
X0071300Y0163018D01*
X0071300Y0162419D02*
X0075117Y0162419D01*
X0075117Y0161821D02*
X0071300Y0161821D01*
X0071300Y0171397D02*
X0121688Y0171397D01*
X0122958Y0164215D02*
X0125782Y0164215D01*
X0125320Y0163616D02*
X0123420Y0163616D01*
X0123420Y0163018D02*
X0125320Y0163018D01*
X0125320Y0162419D02*
X0123420Y0162419D01*
X0123420Y0161821D02*
X0125320Y0161821D01*
X0125320Y0161222D02*
X0123420Y0161222D01*
X0123420Y0160624D02*
X0125320Y0160624D01*
X0125320Y0160025D02*
X0123420Y0160025D01*
X0123420Y0159427D02*
X0125018Y0159427D01*
X0124420Y0158828D02*
X0123420Y0158828D01*
X0123420Y0158230D02*
X0123821Y0158230D01*
X0123223Y0157631D02*
X0123161Y0157631D01*
X0123170Y0157032D02*
X0116019Y0157032D01*
X0115320Y0151047D02*
X0115033Y0151047D01*
X0115320Y0150449D02*
X0113420Y0150449D01*
X0109370Y0152911D02*
X0109370Y0153341D01*
X0108170Y0149252D02*
X0090416Y0149252D01*
X0090416Y0148653D02*
X0108170Y0148653D01*
X0108170Y0148055D02*
X0090416Y0148055D01*
X0090416Y0147456D02*
X0108170Y0147456D01*
X0108170Y0146858D02*
X0090416Y0146858D01*
X0090305Y0146259D02*
X0108170Y0146259D01*
X0108170Y0145661D02*
X0089707Y0145661D01*
X0089132Y0145062D02*
X0108170Y0145062D01*
X0108170Y0144464D02*
X0089132Y0144464D01*
X0089132Y0143865D02*
X0108170Y0143865D01*
X0108170Y0143267D02*
X0088994Y0143267D01*
X0088395Y0142668D02*
X0108170Y0142668D01*
X0097338Y0142070D02*
X0087797Y0142070D01*
X0085517Y0141471D02*
X0097289Y0141471D01*
X0097289Y0140873D02*
X0084918Y0140873D01*
X0084320Y0140274D02*
X0097289Y0140274D01*
X0097289Y0139676D02*
X0083721Y0139676D01*
X0083123Y0139077D02*
X0097289Y0139077D01*
X0097289Y0138479D02*
X0082524Y0138479D01*
X0081926Y0137880D02*
X0097289Y0137880D01*
X0097289Y0137282D02*
X0081327Y0137282D01*
X0080532Y0138183D02*
X0086743Y0144395D01*
X0089216Y0146867D01*
X0089216Y0153303D01*
X0082721Y0142070D02*
X0070851Y0142070D01*
X0071215Y0141471D02*
X0082123Y0141471D01*
X0081524Y0140873D02*
X0071215Y0140873D01*
X0071215Y0140274D02*
X0080926Y0140274D01*
X0080327Y0139676D02*
X0071215Y0139676D01*
X0068346Y0138183D02*
X0080532Y0138183D01*
X0080132Y0136085D02*
X0078608Y0136085D01*
X0079089Y0135486D02*
X0079651Y0135486D01*
X0079651Y0134888D02*
X0079089Y0134888D01*
X0079089Y0134289D02*
X0079651Y0134289D01*
X0079651Y0133691D02*
X0079089Y0133691D01*
X0079089Y0133092D02*
X0079651Y0133092D01*
X0079651Y0132494D02*
X0079089Y0132494D01*
X0083110Y0132081D02*
X0083110Y0128341D01*
X0082407Y0125910D02*
X0076702Y0125910D01*
X0076733Y0125311D02*
X0082407Y0125311D01*
X0082407Y0124713D02*
X0076733Y0124713D01*
X0076733Y0124114D02*
X0082407Y0124114D01*
X0082407Y0123516D02*
X0076733Y0123516D01*
X0076733Y0122917D02*
X0082407Y0122917D01*
X0079783Y0115735D02*
X0078957Y0115735D01*
X0079089Y0115137D02*
X0079651Y0115137D01*
X0079651Y0114538D02*
X0079089Y0114538D01*
X0079089Y0113940D02*
X0079651Y0113940D01*
X0079651Y0113341D02*
X0079089Y0113341D01*
X0079089Y0112743D02*
X0079651Y0112743D01*
X0083110Y0112081D02*
X0083110Y0110821D01*
X0079370Y0107081D01*
X0080744Y0106758D02*
X0091970Y0106758D01*
X0091970Y0107356D02*
X0081342Y0107356D01*
X0081941Y0107955D02*
X0091970Y0107955D01*
X0091970Y0108553D02*
X0086564Y0108553D01*
X0086569Y0109152D02*
X0091970Y0109152D01*
X0091970Y0109750D02*
X0086569Y0109750D01*
X0086569Y0110349D02*
X0091970Y0110349D01*
X0091970Y0110947D02*
X0086569Y0110947D01*
X0086569Y0111546D02*
X0091970Y0111546D01*
X0091970Y0112144D02*
X0086569Y0112144D01*
X0086569Y0112743D02*
X0091970Y0112743D01*
X0091413Y0113341D02*
X0086569Y0113341D01*
X0085840Y0106531D02*
X0083410Y0106531D01*
X0083410Y0102381D01*
X0086969Y0102381D01*
X0086969Y0105402D01*
X0086881Y0105732D01*
X0086710Y0106029D01*
X0086468Y0106271D01*
X0086171Y0106442D01*
X0085840Y0106531D01*
X0086579Y0106159D02*
X0091970Y0106159D01*
X0091970Y0105561D02*
X0086927Y0105561D01*
X0086969Y0104962D02*
X0091970Y0104962D01*
X0091970Y0104363D02*
X0086969Y0104363D01*
X0086969Y0103765D02*
X0091970Y0103765D01*
X0091970Y0103166D02*
X0086969Y0103166D01*
X0086969Y0102568D02*
X0092186Y0102568D01*
X0092785Y0101969D02*
X0083410Y0101969D01*
X0083410Y0101371D02*
X0082810Y0101371D01*
X0082810Y0101969D02*
X0079089Y0101969D01*
X0079089Y0101371D02*
X0079251Y0101371D01*
X0079251Y0100772D02*
X0079089Y0100772D01*
X0079089Y0100174D02*
X0079251Y0100174D01*
X0079251Y0099575D02*
X0079089Y0099575D01*
X0079089Y0098977D02*
X0079251Y0098977D01*
X0079369Y0098378D02*
X0078909Y0098378D01*
X0079946Y0097780D02*
X0076830Y0097780D01*
X0076830Y0097181D02*
X0093170Y0097181D01*
X0093170Y0096583D02*
X0076830Y0096583D01*
X0077164Y0095984D02*
X0093170Y0095984D01*
X0093170Y0095386D02*
X0077762Y0095386D01*
X0078361Y0094787D02*
X0093170Y0094787D01*
X0093170Y0094189D02*
X0078959Y0094189D01*
X0079558Y0093590D02*
X0093170Y0093590D01*
X0095570Y0093590D02*
X0127501Y0093590D01*
X0126981Y0093071D02*
X0128381Y0094470D01*
X0130360Y0094470D01*
X0131549Y0093281D01*
X0135714Y0093281D01*
X0135714Y0094422D01*
X0136241Y0094950D01*
X0142499Y0094950D01*
X0143026Y0094422D01*
X0143026Y0089740D01*
X0142499Y0089213D01*
X0136241Y0089213D01*
X0135714Y0089740D01*
X0135714Y0090881D01*
X0135570Y0090881D01*
X0135570Y0068281D01*
X0137171Y0068281D01*
X0137171Y0070603D01*
X0137698Y0071131D01*
X0143562Y0071131D01*
X0144089Y0070603D01*
X0144089Y0063559D01*
X0143562Y0063031D01*
X0137698Y0063031D01*
X0137171Y0063559D01*
X0137171Y0065881D01*
X0133873Y0065881D01*
X0133170Y0066584D01*
X0133170Y0090881D01*
X0131549Y0090881D01*
X0130360Y0089692D01*
X0128381Y0089692D01*
X0126981Y0091092D01*
X0126981Y0093071D01*
X0126981Y0092992D02*
X0095570Y0092992D01*
X0095570Y0092393D02*
X0126981Y0092393D01*
X0126981Y0091795D02*
X0095570Y0091795D01*
X0095182Y0091196D02*
X0126981Y0091196D01*
X0127475Y0090598D02*
X0053544Y0090598D01*
X0053544Y0090570D02*
X0053544Y0090682D01*
X0053415Y0091496D01*
X0053160Y0092280D01*
X0052786Y0093015D01*
X0052302Y0093682D01*
X0051719Y0094265D01*
X0051052Y0094749D01*
X0050317Y0095123D01*
X0049533Y0095378D01*
X0048719Y0095507D01*
X0044670Y0095507D01*
X0044670Y0090570D01*
X0044070Y0090570D01*
X0044070Y0089970D01*
X0035196Y0089970D01*
X0035196Y0089858D01*
X0035325Y0089044D01*
X0035580Y0088260D01*
X0035954Y0087525D01*
X0036439Y0086858D01*
X0037021Y0086276D01*
X0037688Y0085791D01*
X0038423Y0085417D01*
X0039207Y0085162D01*
X0040021Y0085033D01*
X0044070Y0085033D01*
X0044070Y0089970D01*
X0044670Y0089970D01*
X0044670Y0085033D01*
X0048719Y0085033D01*
X0049533Y0085162D01*
X0050317Y0085417D01*
X0051052Y0085791D01*
X0051719Y0086276D01*
X0052302Y0086858D01*
X0052786Y0087525D01*
X0053160Y0088260D01*
X0053415Y0089044D01*
X0053544Y0089858D01*
X0053544Y0089970D01*
X0044670Y0089970D01*
X0044670Y0090570D01*
X0053544Y0090570D01*
X0053463Y0091196D02*
X0078558Y0091196D01*
X0077959Y0091795D02*
X0053318Y0091795D01*
X0053103Y0092393D02*
X0077361Y0092393D01*
X0076762Y0092992D02*
X0064215Y0092992D01*
X0064494Y0093036D02*
X0065278Y0093291D01*
X0066013Y0093665D01*
X0066679Y0094150D01*
X0067262Y0094732D01*
X0067747Y0095399D01*
X0068121Y0096134D01*
X0068376Y0096918D01*
X0068505Y0097732D01*
X0068505Y0101781D01*
X0063568Y0101781D01*
X0063568Y0102381D01*
X0068505Y0102381D01*
X0068505Y0106430D01*
X0068376Y0107244D01*
X0068121Y0108028D01*
X0067747Y0108763D01*
X0067262Y0109430D01*
X0066679Y0110013D01*
X0066013Y0110497D01*
X0065278Y0110871D01*
X0064494Y0111126D01*
X0063680Y0111255D01*
X0063568Y0111255D01*
X0063568Y0102381D01*
X0062968Y0102381D01*
X0062968Y0101781D01*
X0063568Y0101781D01*
X0063568Y0092907D01*
X0063680Y0092907D01*
X0064494Y0093036D01*
X0063568Y0092992D02*
X0062968Y0092992D01*
X0062968Y0092907D02*
X0062968Y0101781D01*
X0058031Y0101781D01*
X0058031Y0097732D01*
X0058160Y0096918D01*
X0058414Y0096134D01*
X0058789Y0095399D01*
X0059273Y0094732D01*
X0059856Y0094150D01*
X0060523Y0093665D01*
X0061257Y0093291D01*
X0062041Y0093036D01*
X0062856Y0092907D01*
X0062968Y0092907D01*
X0062321Y0092992D02*
X0052798Y0092992D01*
X0052368Y0093590D02*
X0060670Y0093590D01*
X0059817Y0094189D02*
X0051795Y0094189D01*
X0050977Y0094787D02*
X0059233Y0094787D01*
X0058798Y0095386D02*
X0049485Y0095386D01*
X0044670Y0095386D02*
X0044070Y0095386D01*
X0044070Y0095507D02*
X0040021Y0095507D01*
X0039207Y0095378D01*
X0038423Y0095123D01*
X0037688Y0094749D01*
X0037021Y0094265D01*
X0036439Y0093682D01*
X0035954Y0093015D01*
X0035580Y0092280D01*
X0035325Y0091496D01*
X0035196Y0090682D01*
X0035196Y0090570D01*
X0044070Y0090570D01*
X0044070Y0095507D01*
X0044070Y0094787D02*
X0044670Y0094787D01*
X0044670Y0094189D02*
X0044070Y0094189D01*
X0044070Y0093590D02*
X0044670Y0093590D01*
X0044670Y0092992D02*
X0044070Y0092992D01*
X0044070Y0092393D02*
X0044670Y0092393D01*
X0044670Y0091795D02*
X0044070Y0091795D01*
X0044070Y0091196D02*
X0044670Y0091196D01*
X0044670Y0090598D02*
X0044070Y0090598D01*
X0044070Y0089999D02*
X0019441Y0089999D01*
X0019442Y0089401D02*
X0035268Y0089401D01*
X0035404Y0088802D02*
X0019442Y0088802D01*
X0019442Y0088204D02*
X0035608Y0088204D01*
X0035913Y0087605D02*
X0019443Y0087605D01*
X0019443Y0087007D02*
X0036331Y0087007D01*
X0036889Y0086408D02*
X0019444Y0086408D01*
X0019444Y0085810D02*
X0037663Y0085810D01*
X0039056Y0085211D02*
X0019444Y0085211D01*
X0019445Y0084613D02*
X0133170Y0084613D01*
X0133170Y0085211D02*
X0049685Y0085211D01*
X0051078Y0085810D02*
X0133170Y0085810D01*
X0133170Y0086408D02*
X0051851Y0086408D01*
X0052409Y0087007D02*
X0133170Y0087007D01*
X0133170Y0087605D02*
X0052827Y0087605D01*
X0053132Y0088204D02*
X0133170Y0088204D01*
X0133170Y0088802D02*
X0053337Y0088802D01*
X0053472Y0089401D02*
X0133170Y0089401D01*
X0133170Y0089999D02*
X0130667Y0089999D01*
X0131265Y0090598D02*
X0133170Y0090598D01*
X0134370Y0092081D02*
X0134370Y0067081D01*
X0140630Y0067081D01*
X0144089Y0067256D02*
X0147810Y0067256D01*
X0147810Y0067381D02*
X0147810Y0066781D01*
X0144251Y0066781D01*
X0144251Y0063760D01*
X0144340Y0063430D01*
X0144511Y0063133D01*
X0144753Y0062891D01*
X0145049Y0062720D01*
X0145380Y0062631D01*
X0147810Y0062631D01*
X0147810Y0066781D01*
X0148410Y0066781D01*
X0148410Y0062631D01*
X0150840Y0062631D01*
X0151171Y0062720D01*
X0151468Y0062891D01*
X0151710Y0063133D01*
X0151881Y0063430D01*
X0151969Y0063760D01*
X0151969Y0066781D01*
X0148410Y0066781D01*
X0148410Y0067381D01*
X0147810Y0067381D01*
X0144251Y0067381D01*
X0144251Y0070402D01*
X0144340Y0070732D01*
X0144511Y0071029D01*
X0144753Y0071271D01*
X0145049Y0071442D01*
X0145380Y0071531D01*
X0147810Y0071531D01*
X0147810Y0067381D01*
X0147810Y0067854D02*
X0148410Y0067854D01*
X0148410Y0067381D02*
X0148410Y0071531D01*
X0150840Y0071531D01*
X0151171Y0071442D01*
X0151468Y0071271D01*
X0151710Y0071029D01*
X0151881Y0070732D01*
X0151969Y0070402D01*
X0151969Y0067381D01*
X0148410Y0067381D01*
X0148410Y0067256D02*
X0209695Y0067256D01*
X0209760Y0067854D02*
X0151969Y0067854D01*
X0151969Y0068453D02*
X0209803Y0068453D01*
X0209845Y0069051D02*
X0151969Y0069051D01*
X0151969Y0069650D02*
X0209850Y0069650D01*
X0209850Y0070248D02*
X0151969Y0070248D01*
X0151815Y0070847D02*
X0209850Y0070847D01*
X0209850Y0071445D02*
X0151159Y0071445D01*
X0151042Y0073031D02*
X0151569Y0073559D01*
X0151569Y0075881D01*
X0156974Y0075881D01*
X0156974Y0074346D01*
X0157501Y0073819D01*
X0162971Y0073819D01*
X0163498Y0074346D01*
X0163498Y0079816D01*
X0162971Y0080343D01*
X0157501Y0080343D01*
X0156974Y0079816D01*
X0156974Y0078281D01*
X0151569Y0078281D01*
X0151569Y0080603D01*
X0151042Y0081131D01*
X0145178Y0081131D01*
X0144651Y0080603D01*
X0144651Y0073559D01*
X0145178Y0073031D01*
X0151042Y0073031D01*
X0151252Y0073241D02*
X0209850Y0073241D01*
X0209850Y0073839D02*
X0171825Y0073839D01*
X0171906Y0073921D02*
X0172078Y0074217D01*
X0172166Y0074548D01*
X0172166Y0076781D01*
X0168804Y0076781D01*
X0168804Y0073419D01*
X0171037Y0073419D01*
X0171368Y0073507D01*
X0171664Y0073679D01*
X0171906Y0073921D01*
X0172137Y0074438D02*
X0209850Y0074438D01*
X0209850Y0075036D02*
X0172166Y0075036D01*
X0172166Y0075635D02*
X0209850Y0075635D01*
X0209850Y0076233D02*
X0172166Y0076233D01*
X0172166Y0077381D02*
X0168804Y0077381D01*
X0168804Y0076781D01*
X0168204Y0076781D01*
X0168204Y0073419D01*
X0165971Y0073419D01*
X0165640Y0073507D01*
X0165344Y0073679D01*
X0165102Y0073921D01*
X0164930Y0074217D01*
X0164842Y0074548D01*
X0164842Y0076781D01*
X0168204Y0076781D01*
X0168204Y0077381D01*
X0164842Y0077381D01*
X0164842Y0079614D01*
X0164930Y0079945D01*
X0165102Y0080242D01*
X0165344Y0080484D01*
X0165640Y0080655D01*
X0165971Y0080743D01*
X0168204Y0080743D01*
X0168204Y0077381D01*
X0168804Y0077381D01*
X0168804Y0080743D01*
X0171037Y0080743D01*
X0171368Y0080655D01*
X0171664Y0080484D01*
X0171906Y0080242D01*
X0172078Y0079945D01*
X0172166Y0079614D01*
X0172166Y0077381D01*
X0172166Y0077430D02*
X0209850Y0077430D01*
X0209850Y0076832D02*
X0168804Y0076832D01*
X0168804Y0077430D02*
X0168204Y0077430D01*
X0168204Y0076832D02*
X0163498Y0076832D01*
X0163498Y0077430D02*
X0164842Y0077430D01*
X0164842Y0078029D02*
X0163498Y0078029D01*
X0163498Y0078628D02*
X0164842Y0078628D01*
X0164842Y0079226D02*
X0163498Y0079226D01*
X0163490Y0079825D02*
X0164898Y0079825D01*
X0165283Y0080423D02*
X0151569Y0080423D01*
X0151569Y0079825D02*
X0156982Y0079825D01*
X0156974Y0079226D02*
X0151569Y0079226D01*
X0151569Y0078628D02*
X0156974Y0078628D01*
X0156974Y0075635D02*
X0151569Y0075635D01*
X0151569Y0075036D02*
X0156974Y0075036D01*
X0156974Y0074438D02*
X0151569Y0074438D01*
X0151569Y0073839D02*
X0157481Y0073839D01*
X0160236Y0077081D02*
X0148110Y0077081D01*
X0144651Y0076832D02*
X0144089Y0076832D01*
X0144089Y0077430D02*
X0144651Y0077430D01*
X0144651Y0078029D02*
X0144089Y0078029D01*
X0144089Y0078628D02*
X0144651Y0078628D01*
X0144651Y0079226D02*
X0144089Y0079226D01*
X0144089Y0079825D02*
X0144651Y0079825D01*
X0144651Y0080423D02*
X0144089Y0080423D01*
X0144089Y0080603D02*
X0143562Y0081131D01*
X0140570Y0081131D01*
X0140570Y0081732D01*
X0142499Y0081732D01*
X0143026Y0082259D01*
X0143026Y0086942D01*
X0142499Y0087469D01*
X0136241Y0087469D01*
X0135714Y0086942D01*
X0135714Y0082259D01*
X0136241Y0081732D01*
X0138170Y0081732D01*
X0138170Y0081131D01*
X0137698Y0081131D01*
X0137171Y0080603D01*
X0137171Y0073559D01*
X0137698Y0073031D01*
X0143562Y0073031D01*
X0144089Y0073559D01*
X0144089Y0080603D01*
X0143671Y0081022D02*
X0145069Y0081022D01*
X0142985Y0082219D02*
X0209850Y0082219D01*
X0209850Y0082817D02*
X0143026Y0082817D01*
X0143026Y0083416D02*
X0209850Y0083416D01*
X0209850Y0084014D02*
X0143026Y0084014D01*
X0143026Y0084613D02*
X0209850Y0084613D01*
X0209850Y0085211D02*
X0155879Y0085211D01*
X0155360Y0084692D02*
X0156759Y0086092D01*
X0156759Y0088071D01*
X0155360Y0089470D01*
X0153678Y0089470D01*
X0153607Y0089541D01*
X0151687Y0089541D01*
X0151687Y0090682D01*
X0151160Y0091209D01*
X0144903Y0091209D01*
X0144376Y0090682D01*
X0144376Y0086000D01*
X0144903Y0085472D01*
X0151160Y0085472D01*
X0151687Y0086000D01*
X0151687Y0087141D01*
X0151981Y0087141D01*
X0151981Y0086092D01*
X0153381Y0084692D01*
X0155360Y0084692D01*
X0156477Y0085810D02*
X0209850Y0085810D01*
X0209850Y0086408D02*
X0156759Y0086408D01*
X0156759Y0087007D02*
X0209850Y0087007D01*
X0209850Y0087605D02*
X0156759Y0087605D01*
X0156626Y0088204D02*
X0209850Y0088204D01*
X0209850Y0088802D02*
X0156028Y0088802D01*
X0155429Y0089401D02*
X0209850Y0089401D01*
X0209850Y0089999D02*
X0151687Y0089999D01*
X0151687Y0090598D02*
X0209850Y0090598D01*
X0209850Y0091196D02*
X0151173Y0091196D01*
X0153110Y0088341D02*
X0154370Y0087081D01*
X0153110Y0088341D02*
X0148032Y0088341D01*
X0144890Y0091196D02*
X0143026Y0091196D01*
X0143026Y0090598D02*
X0144376Y0090598D01*
X0144376Y0089999D02*
X0143026Y0089999D01*
X0142687Y0089401D02*
X0144376Y0089401D01*
X0144376Y0088802D02*
X0135570Y0088802D01*
X0135570Y0088204D02*
X0144376Y0088204D01*
X0144376Y0087605D02*
X0135570Y0087605D01*
X0135570Y0087007D02*
X0135779Y0087007D01*
X0135714Y0086408D02*
X0135570Y0086408D01*
X0135570Y0085810D02*
X0135714Y0085810D01*
X0135714Y0085211D02*
X0135570Y0085211D01*
X0135570Y0084613D02*
X0135714Y0084613D01*
X0135714Y0084014D02*
X0135570Y0084014D01*
X0135570Y0083416D02*
X0135714Y0083416D01*
X0135714Y0082817D02*
X0135570Y0082817D01*
X0135570Y0082219D02*
X0135755Y0082219D01*
X0135570Y0081620D02*
X0138170Y0081620D01*
X0137589Y0081022D02*
X0135570Y0081022D01*
X0135570Y0080423D02*
X0137171Y0080423D01*
X0137171Y0079825D02*
X0135570Y0079825D01*
X0135570Y0079226D02*
X0137171Y0079226D01*
X0137171Y0078628D02*
X0135570Y0078628D01*
X0135570Y0078029D02*
X0137171Y0078029D01*
X0137171Y0077430D02*
X0135570Y0077430D01*
X0135570Y0076832D02*
X0137171Y0076832D01*
X0137171Y0076233D02*
X0135570Y0076233D01*
X0135570Y0075635D02*
X0137171Y0075635D01*
X0137171Y0075036D02*
X0135570Y0075036D01*
X0135570Y0074438D02*
X0137171Y0074438D01*
X0137171Y0073839D02*
X0135570Y0073839D01*
X0135570Y0073241D02*
X0137489Y0073241D01*
X0135570Y0072642D02*
X0209850Y0072642D01*
X0209850Y0072044D02*
X0135570Y0072044D01*
X0135570Y0071445D02*
X0145062Y0071445D01*
X0144406Y0070847D02*
X0143846Y0070847D01*
X0144089Y0070248D02*
X0144251Y0070248D01*
X0144251Y0069650D02*
X0144089Y0069650D01*
X0144089Y0069051D02*
X0144251Y0069051D01*
X0144251Y0068453D02*
X0144089Y0068453D01*
X0144089Y0067854D02*
X0144251Y0067854D01*
X0144251Y0066657D02*
X0144089Y0066657D01*
X0144089Y0066059D02*
X0144251Y0066059D01*
X0144251Y0065460D02*
X0144089Y0065460D01*
X0144089Y0064862D02*
X0144251Y0064862D01*
X0144251Y0064263D02*
X0144089Y0064263D01*
X0144089Y0063665D02*
X0144277Y0063665D01*
X0144578Y0063066D02*
X0143597Y0063066D01*
X0147810Y0063066D02*
X0148410Y0063066D01*
X0148410Y0063665D02*
X0147810Y0063665D01*
X0147810Y0064263D02*
X0148410Y0064263D01*
X0148410Y0064862D02*
X0147810Y0064862D01*
X0147810Y0065460D02*
X0148410Y0065460D01*
X0148410Y0066059D02*
X0147810Y0066059D01*
X0147810Y0066657D02*
X0148410Y0066657D01*
X0148410Y0068453D02*
X0147810Y0068453D01*
X0147810Y0069051D02*
X0148410Y0069051D01*
X0148410Y0069650D02*
X0147810Y0069650D01*
X0147810Y0070248D02*
X0148410Y0070248D01*
X0148410Y0070847D02*
X0147810Y0070847D01*
X0147810Y0071445D02*
X0148410Y0071445D01*
X0144969Y0073241D02*
X0143771Y0073241D01*
X0144089Y0073839D02*
X0144651Y0073839D01*
X0144651Y0074438D02*
X0144089Y0074438D01*
X0144089Y0075036D02*
X0144651Y0075036D01*
X0144651Y0075635D02*
X0144089Y0075635D01*
X0144089Y0076233D02*
X0144651Y0076233D01*
X0140630Y0077081D02*
X0139370Y0078341D01*
X0139370Y0084601D01*
X0140570Y0081620D02*
X0209850Y0081620D01*
X0209850Y0081022D02*
X0151151Y0081022D01*
X0152862Y0085211D02*
X0143026Y0085211D01*
X0143026Y0085810D02*
X0144566Y0085810D01*
X0144376Y0086408D02*
X0143026Y0086408D01*
X0142961Y0087007D02*
X0144376Y0087007D01*
X0143026Y0091795D02*
X0209850Y0091795D01*
X0209850Y0092393D02*
X0143026Y0092393D01*
X0143026Y0092992D02*
X0209850Y0092992D01*
X0209850Y0093590D02*
X0143026Y0093590D01*
X0143026Y0094189D02*
X0209850Y0094189D01*
X0209850Y0094787D02*
X0180470Y0094787D01*
X0181069Y0095386D02*
X0209850Y0095386D01*
X0209850Y0107955D02*
X0192673Y0107955D01*
X0192998Y0108553D02*
X0209850Y0108553D01*
X0209850Y0109152D02*
X0193032Y0109152D01*
X0193032Y0109750D02*
X0209850Y0109750D01*
X0209850Y0115137D02*
X0180820Y0115137D01*
X0181418Y0115735D02*
X0209850Y0115735D01*
X0179670Y0109750D02*
X0179070Y0109750D01*
X0179070Y0109152D02*
X0179670Y0109152D01*
X0179670Y0108553D02*
X0179070Y0108553D01*
X0179070Y0107955D02*
X0179670Y0107955D01*
X0180570Y0098281D02*
X0180570Y0098281D01*
X0168270Y0094787D02*
X0142661Y0094787D01*
X0143041Y0095984D02*
X0158770Y0095984D01*
X0167671Y0095386D02*
X0101053Y0095386D01*
X0100455Y0094787D02*
X0136079Y0094787D01*
X0135714Y0094189D02*
X0130641Y0094189D01*
X0131239Y0093590D02*
X0135714Y0093590D01*
X0134370Y0092081D02*
X0139370Y0092081D01*
X0135714Y0090598D02*
X0135570Y0090598D01*
X0135570Y0089999D02*
X0135714Y0089999D01*
X0135570Y0089401D02*
X0136053Y0089401D01*
X0134370Y0092081D02*
X0129370Y0092081D01*
X0128073Y0089999D02*
X0044670Y0089999D01*
X0044670Y0089401D02*
X0044070Y0089401D01*
X0044070Y0088802D02*
X0044670Y0088802D01*
X0044670Y0088204D02*
X0044070Y0088204D01*
X0044070Y0087605D02*
X0044670Y0087605D01*
X0044670Y0087007D02*
X0044070Y0087007D01*
X0044070Y0086408D02*
X0044670Y0086408D01*
X0044670Y0085810D02*
X0044070Y0085810D01*
X0044070Y0085211D02*
X0044670Y0085211D01*
X0035196Y0090598D02*
X0019441Y0090598D01*
X0019440Y0091196D02*
X0035277Y0091196D01*
X0035422Y0091795D02*
X0019440Y0091795D01*
X0019440Y0092393D02*
X0035637Y0092393D01*
X0035942Y0092992D02*
X0019439Y0092992D01*
X0019439Y0093590D02*
X0036372Y0093590D01*
X0036946Y0094189D02*
X0019438Y0094189D01*
X0019438Y0094787D02*
X0037763Y0094787D01*
X0039255Y0095386D02*
X0019438Y0095386D01*
X0019437Y0095984D02*
X0058491Y0095984D01*
X0058268Y0096583D02*
X0019437Y0096583D01*
X0019436Y0097181D02*
X0058118Y0097181D01*
X0058031Y0097780D02*
X0019436Y0097780D01*
X0019436Y0098378D02*
X0058031Y0098378D01*
X0058031Y0098977D02*
X0019435Y0098977D01*
X0019435Y0099575D02*
X0058031Y0099575D01*
X0058031Y0100174D02*
X0019434Y0100174D01*
X0019434Y0100772D02*
X0058031Y0100772D01*
X0058031Y0101371D02*
X0019434Y0101371D01*
X0019433Y0101969D02*
X0062968Y0101969D01*
X0062968Y0101371D02*
X0063568Y0101371D01*
X0063568Y0101969D02*
X0072171Y0101969D01*
X0072171Y0101371D02*
X0068505Y0101371D01*
X0068505Y0100772D02*
X0072171Y0100772D01*
X0072171Y0100174D02*
X0068505Y0100174D01*
X0068505Y0099575D02*
X0072171Y0099575D01*
X0072171Y0098977D02*
X0068505Y0098977D01*
X0068505Y0098378D02*
X0072351Y0098378D01*
X0074430Y0097780D02*
X0068505Y0097780D01*
X0068418Y0097181D02*
X0074430Y0097181D01*
X0074430Y0096583D02*
X0068267Y0096583D01*
X0068045Y0095984D02*
X0074430Y0095984D01*
X0074430Y0095386D02*
X0067737Y0095386D01*
X0067302Y0094787D02*
X0074967Y0094787D01*
X0075565Y0094189D02*
X0066719Y0094189D01*
X0065866Y0093590D02*
X0076164Y0093590D01*
X0082810Y0097780D02*
X0083410Y0097780D01*
X0083410Y0098378D02*
X0082810Y0098378D01*
X0082810Y0098977D02*
X0083410Y0098977D01*
X0083410Y0099575D02*
X0082810Y0099575D01*
X0082810Y0100174D02*
X0083410Y0100174D01*
X0083410Y0100772D02*
X0082810Y0100772D01*
X0082810Y0102568D02*
X0083410Y0102568D01*
X0083410Y0103166D02*
X0082810Y0103166D01*
X0082810Y0103765D02*
X0083410Y0103765D01*
X0083410Y0104363D02*
X0082810Y0104363D01*
X0082810Y0104962D02*
X0083410Y0104962D01*
X0083410Y0105561D02*
X0082810Y0105561D01*
X0082810Y0106159D02*
X0083410Y0106159D01*
X0079294Y0105561D02*
X0079089Y0105561D01*
X0079089Y0104962D02*
X0079251Y0104962D01*
X0079251Y0104363D02*
X0079089Y0104363D01*
X0079089Y0103765D02*
X0079251Y0103765D01*
X0079251Y0103166D02*
X0079089Y0103166D01*
X0079089Y0102568D02*
X0079251Y0102568D01*
X0073170Y0106159D02*
X0068505Y0106159D01*
X0068505Y0105561D02*
X0072171Y0105561D01*
X0072171Y0104962D02*
X0068505Y0104962D01*
X0068505Y0104363D02*
X0072171Y0104363D01*
X0072171Y0103765D02*
X0068505Y0103765D01*
X0068505Y0103166D02*
X0072171Y0103166D01*
X0072171Y0102568D02*
X0068505Y0102568D01*
X0068453Y0106758D02*
X0073170Y0106758D01*
X0073170Y0107356D02*
X0068340Y0107356D01*
X0068145Y0107955D02*
X0073547Y0107955D01*
X0072177Y0108553D02*
X0067854Y0108553D01*
X0067464Y0109152D02*
X0072171Y0109152D01*
X0072171Y0109750D02*
X0071290Y0109750D01*
X0071759Y0110349D02*
X0072171Y0110349D01*
X0072171Y0113341D02*
X0071759Y0113341D01*
X0071759Y0113940D02*
X0072171Y0113940D01*
X0072171Y0114538D02*
X0053144Y0114538D01*
X0053144Y0115137D02*
X0072171Y0115137D01*
X0072303Y0115735D02*
X0052942Y0115735D01*
X0051903Y0117531D02*
X0069090Y0117531D01*
X0068685Y0118129D02*
X0051304Y0118129D01*
X0050223Y0118728D02*
X0068621Y0118728D01*
X0072377Y0118728D02*
X0072977Y0118728D01*
X0072977Y0119326D02*
X0072377Y0119326D01*
X0072377Y0119925D02*
X0072977Y0119925D01*
X0072977Y0120523D02*
X0072377Y0120523D01*
X0072377Y0121122D02*
X0072977Y0121122D01*
X0072977Y0121720D02*
X0072377Y0121720D01*
X0072377Y0123516D02*
X0072977Y0123516D01*
X0072977Y0124114D02*
X0072377Y0124114D01*
X0072377Y0124713D02*
X0072977Y0124713D01*
X0072977Y0125311D02*
X0072377Y0125311D01*
X0072377Y0125910D02*
X0072977Y0125910D01*
X0072977Y0126508D02*
X0072377Y0126508D01*
X0072377Y0118129D02*
X0072977Y0118129D01*
X0072977Y0117531D02*
X0072377Y0117531D01*
X0066981Y0110947D02*
X0065045Y0110947D01*
X0066217Y0110349D02*
X0066981Y0110349D01*
X0066942Y0109750D02*
X0067450Y0109750D01*
X0063568Y0109750D02*
X0062968Y0109750D01*
X0062968Y0109152D02*
X0063568Y0109152D01*
X0063568Y0108553D02*
X0062968Y0108553D01*
X0062968Y0107955D02*
X0063568Y0107955D01*
X0063568Y0107356D02*
X0062968Y0107356D01*
X0062968Y0106758D02*
X0063568Y0106758D01*
X0063568Y0106159D02*
X0062968Y0106159D01*
X0062968Y0105561D02*
X0063568Y0105561D01*
X0063568Y0104962D02*
X0062968Y0104962D01*
X0062968Y0104363D02*
X0063568Y0104363D01*
X0063568Y0103765D02*
X0062968Y0103765D01*
X0062968Y0103166D02*
X0063568Y0103166D01*
X0063568Y0102568D02*
X0062968Y0102568D01*
X0062968Y0100772D02*
X0063568Y0100772D01*
X0063568Y0100174D02*
X0062968Y0100174D01*
X0062968Y0099575D02*
X0063568Y0099575D01*
X0063568Y0098977D02*
X0062968Y0098977D01*
X0062968Y0098378D02*
X0063568Y0098378D01*
X0063568Y0097780D02*
X0062968Y0097780D01*
X0062968Y0097181D02*
X0063568Y0097181D01*
X0063568Y0096583D02*
X0062968Y0096583D01*
X0062968Y0095984D02*
X0063568Y0095984D01*
X0063568Y0095386D02*
X0062968Y0095386D01*
X0062968Y0094787D02*
X0063568Y0094787D01*
X0063568Y0094189D02*
X0062968Y0094189D01*
X0062968Y0093590D02*
X0063568Y0093590D01*
X0058031Y0102568D02*
X0019433Y0102568D01*
X0019433Y0103166D02*
X0058031Y0103166D01*
X0058031Y0103765D02*
X0019432Y0103765D01*
X0019432Y0104363D02*
X0058031Y0104363D01*
X0058031Y0104962D02*
X0019431Y0104962D01*
X0019431Y0105561D02*
X0058031Y0105561D01*
X0058031Y0106159D02*
X0019431Y0106159D01*
X0019430Y0106758D02*
X0058083Y0106758D01*
X0058196Y0107356D02*
X0019430Y0107356D01*
X0019429Y0107955D02*
X0058390Y0107955D01*
X0058682Y0108553D02*
X0019429Y0108553D01*
X0019445Y0084014D02*
X0133170Y0084014D01*
X0133170Y0083416D02*
X0019446Y0083416D01*
X0019446Y0082817D02*
X0133170Y0082817D01*
X0133170Y0082219D02*
X0019446Y0082219D01*
X0019447Y0081620D02*
X0133170Y0081620D01*
X0133170Y0081022D02*
X0019447Y0081022D01*
X0019448Y0080423D02*
X0133170Y0080423D01*
X0133170Y0079825D02*
X0019448Y0079825D01*
X0019448Y0079226D02*
X0133170Y0079226D01*
X0133170Y0078628D02*
X0019449Y0078628D01*
X0019449Y0078029D02*
X0133170Y0078029D01*
X0133170Y0077430D02*
X0019450Y0077430D01*
X0019450Y0076832D02*
X0133170Y0076832D01*
X0133170Y0076233D02*
X0019450Y0076233D01*
X0019451Y0075635D02*
X0133170Y0075635D01*
X0133170Y0075036D02*
X0019451Y0075036D01*
X0019452Y0074438D02*
X0133170Y0074438D01*
X0133170Y0073839D02*
X0019452Y0073839D01*
X0019452Y0073241D02*
X0133170Y0073241D01*
X0133170Y0072642D02*
X0019453Y0072642D01*
X0019453Y0072044D02*
X0133170Y0072044D01*
X0133170Y0071445D02*
X0019454Y0071445D01*
X0019454Y0070847D02*
X0133170Y0070847D01*
X0133170Y0070248D02*
X0019454Y0070248D01*
X0019455Y0069650D02*
X0133170Y0069650D01*
X0133170Y0069051D02*
X0019455Y0069051D01*
X0019456Y0068453D02*
X0133170Y0068453D01*
X0133170Y0067854D02*
X0019456Y0067854D01*
X0019456Y0067256D02*
X0133170Y0067256D01*
X0133170Y0066657D02*
X0019457Y0066657D01*
X0019460Y0066059D02*
X0133695Y0066059D01*
X0135570Y0068453D02*
X0137171Y0068453D01*
X0137171Y0069051D02*
X0135570Y0069051D01*
X0135570Y0069650D02*
X0137171Y0069650D01*
X0137171Y0070248D02*
X0135570Y0070248D01*
X0135570Y0070847D02*
X0137414Y0070847D01*
X0137171Y0065460D02*
X0019507Y0065460D01*
X0019555Y0064862D02*
X0137171Y0064862D01*
X0137171Y0064263D02*
X0019668Y0064263D01*
X0019812Y0063665D02*
X0137171Y0063665D01*
X0137663Y0063066D02*
X0019995Y0063066D01*
X0020243Y0062468D02*
X0207832Y0062468D01*
X0208188Y0063066D02*
X0151643Y0063066D01*
X0151944Y0063665D02*
X0208514Y0063665D01*
X0208816Y0064263D02*
X0151969Y0064263D01*
X0151969Y0064862D02*
X0209039Y0064862D01*
X0209262Y0065460D02*
X0151969Y0065460D01*
X0151969Y0066059D02*
X0209434Y0066059D01*
X0209565Y0066657D02*
X0151969Y0066657D01*
X0162992Y0073839D02*
X0165183Y0073839D01*
X0164871Y0074438D02*
X0163498Y0074438D01*
X0163498Y0075036D02*
X0164842Y0075036D01*
X0164842Y0075635D02*
X0163498Y0075635D01*
X0163498Y0076233D02*
X0164842Y0076233D01*
X0168204Y0076233D02*
X0168804Y0076233D01*
X0168804Y0075635D02*
X0168204Y0075635D01*
X0168204Y0075036D02*
X0168804Y0075036D01*
X0168804Y0074438D02*
X0168204Y0074438D01*
X0168204Y0073839D02*
X0168804Y0073839D01*
X0168804Y0078029D02*
X0168204Y0078029D01*
X0168204Y0078628D02*
X0168804Y0078628D01*
X0168804Y0079226D02*
X0168204Y0079226D01*
X0168204Y0079825D02*
X0168804Y0079825D01*
X0168804Y0080423D02*
X0168204Y0080423D01*
X0171725Y0080423D02*
X0209850Y0080423D01*
X0209850Y0079825D02*
X0172110Y0079825D01*
X0172166Y0079226D02*
X0209850Y0079226D01*
X0209850Y0078628D02*
X0172166Y0078628D01*
X0172166Y0078029D02*
X0209850Y0078029D01*
X0207384Y0061869D02*
X0020512Y0061869D01*
X0020879Y0061271D02*
X0206936Y0061271D01*
X0206346Y0060672D02*
X0021268Y0060672D01*
X0021779Y0060074D02*
X0205748Y0060074D01*
X0204967Y0059475D02*
X0022355Y0059475D01*
X0023057Y0058877D02*
X0204111Y0058877D01*
X0203015Y0058278D02*
X0023977Y0058278D01*
X0025214Y0057680D02*
X0201506Y0057680D01*
X0152263Y0085810D02*
X0151497Y0085810D01*
X0151687Y0086408D02*
X0151981Y0086408D01*
X0151981Y0087007D02*
X0151687Y0087007D01*
X0128099Y0094189D02*
X0095570Y0094189D01*
X0095570Y0094787D02*
X0098285Y0094787D01*
X0093170Y0097780D02*
X0086275Y0097780D01*
X0086851Y0098378D02*
X0093170Y0098378D01*
X0093170Y0098977D02*
X0086969Y0098977D01*
X0086969Y0099575D02*
X0093170Y0099575D01*
X0093170Y0100174D02*
X0086969Y0100174D01*
X0086969Y0100772D02*
X0093170Y0100772D01*
X0093170Y0101371D02*
X0086969Y0101371D01*
X0094370Y0104962D02*
X0098111Y0104962D01*
X0063568Y0110349D02*
X0062968Y0110349D01*
X0062968Y0110947D02*
X0063568Y0110947D01*
X0104370Y0157081D02*
X0108110Y0160821D01*
X0109370Y0160821D01*
X0104176Y0171995D02*
X0071300Y0171995D01*
X0071300Y0172594D02*
X0103520Y0172594D01*
X0103366Y0173192D02*
X0071300Y0173192D01*
X0071300Y0173791D02*
X0103366Y0173791D01*
X0103366Y0174389D02*
X0071300Y0174389D01*
X0071300Y0174988D02*
X0103366Y0174988D01*
X0103366Y0176185D02*
X0071300Y0176185D01*
X0071300Y0176783D02*
X0103366Y0176783D01*
X0103366Y0177382D02*
X0071300Y0177382D01*
X0071300Y0177980D02*
X0103366Y0177980D01*
X0103387Y0178579D02*
X0071300Y0178579D01*
X0071300Y0179177D02*
X0103676Y0179177D01*
X0103766Y0180374D02*
X0070372Y0180374D01*
X0071127Y0179776D02*
X0151217Y0179776D01*
X0151217Y0179177D02*
X0111954Y0179177D01*
X0111865Y0180374D02*
X0151428Y0180374D01*
X0151694Y0181571D02*
X0146618Y0181571D01*
X0147216Y0182170D02*
X0151617Y0182170D01*
X0151617Y0182768D02*
X0147815Y0182768D01*
X0146019Y0180973D02*
X0166855Y0180973D01*
X0167058Y0180809D02*
X0166728Y0180721D01*
X0166431Y0180550D01*
X0166189Y0180308D01*
X0166018Y0180011D01*
X0165930Y0179681D01*
X0165930Y0177250D01*
X0170079Y0177250D01*
X0170079Y0180809D01*
X0167058Y0180809D01*
X0166256Y0180374D02*
X0159904Y0180374D01*
X0160116Y0179776D02*
X0165955Y0179776D01*
X0165930Y0179177D02*
X0160116Y0179177D01*
X0160116Y0178579D02*
X0165930Y0178579D01*
X0165930Y0176185D02*
X0160116Y0176185D01*
X0160116Y0175586D02*
X0165930Y0175586D01*
X0165930Y0174988D02*
X0160116Y0174988D01*
X0160116Y0174389D02*
X0165930Y0174389D01*
X0166075Y0173791D02*
X0159884Y0173791D01*
X0155966Y0173791D02*
X0155366Y0173791D01*
X0155366Y0174389D02*
X0155966Y0174389D01*
X0155966Y0174988D02*
X0155366Y0174988D01*
X0155366Y0175586D02*
X0155966Y0175586D01*
X0155966Y0176185D02*
X0155366Y0176185D01*
X0155366Y0176783D02*
X0155966Y0176783D01*
X0155966Y0178579D02*
X0155366Y0178579D01*
X0155366Y0179177D02*
X0155966Y0179177D01*
X0155966Y0179776D02*
X0155366Y0179776D01*
X0155366Y0180374D02*
X0155966Y0180374D01*
X0159638Y0181571D02*
X0166330Y0181571D01*
X0166330Y0182170D02*
X0159716Y0182170D01*
X0159716Y0182768D02*
X0166330Y0182768D01*
X0166330Y0183367D02*
X0159716Y0183367D01*
X0159716Y0183966D02*
X0166330Y0183966D01*
X0166330Y0184564D02*
X0159716Y0184564D01*
X0159716Y0185163D02*
X0166330Y0185163D01*
X0166330Y0185761D02*
X0159716Y0185761D01*
X0159716Y0186360D02*
X0166330Y0186360D01*
X0166330Y0186958D02*
X0159716Y0186958D01*
X0159672Y0187557D02*
X0166524Y0187557D01*
X0168170Y0188155D02*
X0145961Y0188155D01*
X0146559Y0187557D02*
X0151660Y0187557D01*
X0151617Y0186958D02*
X0147158Y0186958D01*
X0147756Y0186360D02*
X0151617Y0186360D01*
X0151617Y0185761D02*
X0148048Y0185761D01*
X0144348Y0184535D02*
X0155620Y0184535D01*
X0155666Y0184581D01*
X0151217Y0176783D02*
X0147333Y0176783D01*
X0147931Y0176185D02*
X0151217Y0176185D01*
X0151217Y0175586D02*
X0148048Y0175586D01*
X0148048Y0174988D02*
X0151217Y0174988D01*
X0151217Y0174389D02*
X0148048Y0174389D01*
X0148048Y0173791D02*
X0151449Y0173791D01*
X0148048Y0173192D02*
X0166706Y0173192D01*
X0170079Y0173192D02*
X0170679Y0173192D01*
X0170679Y0173791D02*
X0170079Y0173791D01*
X0170079Y0174389D02*
X0170679Y0174389D01*
X0170679Y0174988D02*
X0170079Y0174988D01*
X0170079Y0175586D02*
X0170679Y0175586D01*
X0170679Y0177382D02*
X0170079Y0177382D01*
X0170079Y0177980D02*
X0170679Y0177980D01*
X0170679Y0178579D02*
X0170079Y0178579D01*
X0170079Y0179177D02*
X0170679Y0179177D01*
X0170679Y0179776D02*
X0170079Y0179776D01*
X0170079Y0180374D02*
X0170679Y0180374D01*
X0173903Y0180973D02*
X0209850Y0180973D01*
X0209850Y0181571D02*
X0174429Y0181571D01*
X0174429Y0182170D02*
X0209850Y0182170D01*
X0209850Y0182768D02*
X0174429Y0182768D01*
X0174429Y0183367D02*
X0209850Y0183367D01*
X0209850Y0183966D02*
X0174429Y0183966D01*
X0174429Y0184564D02*
X0209850Y0184564D01*
X0209850Y0185163D02*
X0174429Y0185163D01*
X0174429Y0185761D02*
X0209850Y0185761D01*
X0209850Y0186360D02*
X0174429Y0186360D01*
X0174429Y0186958D02*
X0209843Y0186958D01*
X0209801Y0187557D02*
X0174235Y0187557D01*
X0170570Y0188155D02*
X0209758Y0188155D01*
X0209651Y0188754D02*
X0170570Y0188754D01*
X0170570Y0189352D02*
X0209521Y0189352D01*
X0209358Y0189951D02*
X0170570Y0189951D01*
X0170570Y0190549D02*
X0209135Y0190549D01*
X0208904Y0191148D02*
X0170570Y0191148D01*
X0170570Y0191746D02*
X0208578Y0191746D01*
X0208251Y0192345D02*
X0170570Y0192345D01*
X0170205Y0192943D02*
X0207811Y0192943D01*
X0207363Y0193542D02*
X0020851Y0193542D01*
X0021326Y0194140D02*
X0206768Y0194140D01*
X0206117Y0194739D02*
X0021858Y0194739D01*
X0022557Y0195337D02*
X0205318Y0195337D01*
X0204282Y0195936D02*
X0023454Y0195936D01*
X0024703Y0196534D02*
X0202866Y0196534D01*
X0209850Y0180374D02*
X0174502Y0180374D01*
X0174803Y0179776D02*
X0209850Y0179776D01*
X0209850Y0179177D02*
X0174829Y0179177D01*
X0174829Y0178579D02*
X0209850Y0178579D01*
X0209850Y0177980D02*
X0174829Y0177980D01*
X0174829Y0177382D02*
X0209850Y0177382D01*
X0193032Y0148682D02*
X0192944Y0148351D01*
X0192773Y0148055D01*
X0165320Y0122917D02*
X0163420Y0122917D01*
X0163420Y0122319D02*
X0165320Y0122319D01*
X0165320Y0121720D02*
X0163420Y0121720D01*
X0163420Y0121122D02*
X0165320Y0121122D01*
X0165320Y0120523D02*
X0163420Y0120523D01*
X0162935Y0119925D02*
X0165805Y0119925D01*
X0168170Y0119326D02*
X0160570Y0119326D01*
X0160570Y0118728D02*
X0168170Y0118728D01*
X0154370Y0132081D02*
X0148701Y0126412D01*
X0148701Y0125821D01*
X0152092Y0115735D02*
X0152337Y0115735D01*
X0146981Y0157631D02*
X0145548Y0157631D01*
X0145548Y0158230D02*
X0147140Y0158230D01*
X0147739Y0158828D02*
X0145548Y0158828D01*
X0145548Y0159427D02*
X0148337Y0159427D01*
X0170379Y0184431D02*
X0169370Y0185440D01*
X0169370Y0192081D01*
X0134370Y0192081D01*
X0135548Y0190549D02*
X0168170Y0190549D01*
X0168170Y0189951D02*
X0135548Y0189951D01*
X0135548Y0189352D02*
X0168170Y0189352D01*
X0168170Y0188754D02*
X0135548Y0188754D01*
X0135961Y0188155D02*
X0142736Y0188155D01*
X0142137Y0187557D02*
X0136559Y0187557D01*
X0122736Y0188155D02*
X0019376Y0188155D01*
X0019376Y0187557D02*
X0122137Y0187557D01*
X0120940Y0186360D02*
X0111686Y0186360D01*
X0111865Y0185761D02*
X0120648Y0185761D01*
X0120882Y0182768D02*
X0111865Y0182768D01*
X0111865Y0182170D02*
X0121481Y0182170D01*
X0122079Y0181571D02*
X0111865Y0181571D01*
X0111865Y0180973D02*
X0122678Y0180973D01*
X0108115Y0179177D02*
X0107515Y0179177D01*
X0107515Y0178579D02*
X0108115Y0178579D01*
X0108115Y0177980D02*
X0107515Y0177980D01*
X0107515Y0177382D02*
X0108115Y0177382D01*
X0108115Y0176783D02*
X0107515Y0176783D01*
X0107515Y0176185D02*
X0108115Y0176185D01*
X0107515Y0175586D02*
X0071300Y0175586D01*
X0059670Y0175586D02*
X0059070Y0175586D01*
X0059070Y0174988D02*
X0059670Y0174988D01*
X0059670Y0174389D02*
X0059070Y0174389D01*
X0059070Y0173791D02*
X0059670Y0173791D01*
X0059670Y0173192D02*
X0059070Y0173192D01*
X0059070Y0172594D02*
X0059670Y0172594D01*
X0059670Y0171995D02*
X0059070Y0171995D01*
X0059070Y0171397D02*
X0059670Y0171397D01*
X0059670Y0170798D02*
X0059070Y0170798D01*
X0059070Y0170200D02*
X0059670Y0170200D01*
X0059670Y0169601D02*
X0059070Y0169601D01*
X0059070Y0169003D02*
X0059670Y0169003D01*
X0059670Y0168404D02*
X0059070Y0168404D01*
X0059070Y0176185D02*
X0059670Y0176185D01*
X0059670Y0176783D02*
X0059070Y0176783D01*
X0059070Y0177382D02*
X0059670Y0177382D01*
X0059670Y0177980D02*
X0059070Y0177980D01*
X0059070Y0178579D02*
X0059670Y0178579D01*
X0059670Y0179177D02*
X0059070Y0179177D01*
X0059070Y0179776D02*
X0059670Y0179776D01*
X0059670Y0180374D02*
X0059070Y0180374D01*
D23*
X0069370Y0132081D03*
X0069370Y0112081D03*
X0039370Y0132081D03*
X0029370Y0132081D03*
D24*
X0086743Y0144395D03*
X0099370Y0127081D03*
X0099370Y0107081D03*
X0099370Y0097081D03*
X0114370Y0107081D03*
X0129370Y0102081D03*
X0134370Y0107081D03*
X0134370Y0117081D03*
X0134370Y0122081D03*
X0134370Y0137081D03*
X0154370Y0137081D03*
X0154370Y0117081D03*
X0129370Y0092081D03*
X0154370Y0087081D03*
X0149370Y0157081D03*
X0099370Y0167081D03*
M02*
