G75*
%MOIN*%
%OFA0B0*%
%FSLAX25Y25*%
%IPPOS*%
%LPD*%
%AMOC8*
5,1,8,0,0,1.08239X$1,22.5*
%
%ADD10C,0.00000*%
%ADD11C,0.00512*%
%ADD12C,0.00400*%
%ADD13OC8,0.05200*%
%ADD14C,0.05200*%
%ADD15C,0.06600*%
%ADD16C,0.07874*%
%ADD17C,0.06000*%
%ADD18OC8,0.06000*%
%ADD19C,0.01000*%
%ADD20C,0.02978*%
D10*
X0029428Y0001500D02*
X0029428Y0236461D01*
X0363129Y0236461D01*
X0363129Y0001500D01*
X0029428Y0001500D01*
X0057928Y0165500D02*
X0057930Y0165661D01*
X0057936Y0165821D01*
X0057946Y0165982D01*
X0057960Y0166142D01*
X0057978Y0166302D01*
X0057999Y0166461D01*
X0058025Y0166620D01*
X0058055Y0166778D01*
X0058088Y0166935D01*
X0058126Y0167092D01*
X0058167Y0167247D01*
X0058212Y0167401D01*
X0058261Y0167554D01*
X0058314Y0167706D01*
X0058370Y0167857D01*
X0058431Y0168006D01*
X0058494Y0168154D01*
X0058562Y0168300D01*
X0058633Y0168444D01*
X0058707Y0168586D01*
X0058785Y0168727D01*
X0058867Y0168865D01*
X0058952Y0169002D01*
X0059040Y0169136D01*
X0059132Y0169268D01*
X0059227Y0169398D01*
X0059325Y0169526D01*
X0059426Y0169651D01*
X0059530Y0169773D01*
X0059637Y0169893D01*
X0059747Y0170010D01*
X0059860Y0170125D01*
X0059976Y0170236D01*
X0060095Y0170345D01*
X0060216Y0170450D01*
X0060340Y0170553D01*
X0060466Y0170653D01*
X0060594Y0170749D01*
X0060725Y0170842D01*
X0060859Y0170932D01*
X0060994Y0171019D01*
X0061132Y0171102D01*
X0061271Y0171182D01*
X0061413Y0171258D01*
X0061556Y0171331D01*
X0061701Y0171400D01*
X0061848Y0171466D01*
X0061996Y0171528D01*
X0062146Y0171586D01*
X0062297Y0171641D01*
X0062450Y0171692D01*
X0062604Y0171739D01*
X0062759Y0171782D01*
X0062915Y0171821D01*
X0063071Y0171857D01*
X0063229Y0171888D01*
X0063387Y0171916D01*
X0063546Y0171940D01*
X0063706Y0171960D01*
X0063866Y0171976D01*
X0064026Y0171988D01*
X0064187Y0171996D01*
X0064348Y0172000D01*
X0064508Y0172000D01*
X0064669Y0171996D01*
X0064830Y0171988D01*
X0064990Y0171976D01*
X0065150Y0171960D01*
X0065310Y0171940D01*
X0065469Y0171916D01*
X0065627Y0171888D01*
X0065785Y0171857D01*
X0065941Y0171821D01*
X0066097Y0171782D01*
X0066252Y0171739D01*
X0066406Y0171692D01*
X0066559Y0171641D01*
X0066710Y0171586D01*
X0066860Y0171528D01*
X0067008Y0171466D01*
X0067155Y0171400D01*
X0067300Y0171331D01*
X0067443Y0171258D01*
X0067585Y0171182D01*
X0067724Y0171102D01*
X0067862Y0171019D01*
X0067997Y0170932D01*
X0068131Y0170842D01*
X0068262Y0170749D01*
X0068390Y0170653D01*
X0068516Y0170553D01*
X0068640Y0170450D01*
X0068761Y0170345D01*
X0068880Y0170236D01*
X0068996Y0170125D01*
X0069109Y0170010D01*
X0069219Y0169893D01*
X0069326Y0169773D01*
X0069430Y0169651D01*
X0069531Y0169526D01*
X0069629Y0169398D01*
X0069724Y0169268D01*
X0069816Y0169136D01*
X0069904Y0169002D01*
X0069989Y0168865D01*
X0070071Y0168727D01*
X0070149Y0168586D01*
X0070223Y0168444D01*
X0070294Y0168300D01*
X0070362Y0168154D01*
X0070425Y0168006D01*
X0070486Y0167857D01*
X0070542Y0167706D01*
X0070595Y0167554D01*
X0070644Y0167401D01*
X0070689Y0167247D01*
X0070730Y0167092D01*
X0070768Y0166935D01*
X0070801Y0166778D01*
X0070831Y0166620D01*
X0070857Y0166461D01*
X0070878Y0166302D01*
X0070896Y0166142D01*
X0070910Y0165982D01*
X0070920Y0165821D01*
X0070926Y0165661D01*
X0070928Y0165500D01*
X0070926Y0165339D01*
X0070920Y0165179D01*
X0070910Y0165018D01*
X0070896Y0164858D01*
X0070878Y0164698D01*
X0070857Y0164539D01*
X0070831Y0164380D01*
X0070801Y0164222D01*
X0070768Y0164065D01*
X0070730Y0163908D01*
X0070689Y0163753D01*
X0070644Y0163599D01*
X0070595Y0163446D01*
X0070542Y0163294D01*
X0070486Y0163143D01*
X0070425Y0162994D01*
X0070362Y0162846D01*
X0070294Y0162700D01*
X0070223Y0162556D01*
X0070149Y0162414D01*
X0070071Y0162273D01*
X0069989Y0162135D01*
X0069904Y0161998D01*
X0069816Y0161864D01*
X0069724Y0161732D01*
X0069629Y0161602D01*
X0069531Y0161474D01*
X0069430Y0161349D01*
X0069326Y0161227D01*
X0069219Y0161107D01*
X0069109Y0160990D01*
X0068996Y0160875D01*
X0068880Y0160764D01*
X0068761Y0160655D01*
X0068640Y0160550D01*
X0068516Y0160447D01*
X0068390Y0160347D01*
X0068262Y0160251D01*
X0068131Y0160158D01*
X0067997Y0160068D01*
X0067862Y0159981D01*
X0067724Y0159898D01*
X0067585Y0159818D01*
X0067443Y0159742D01*
X0067300Y0159669D01*
X0067155Y0159600D01*
X0067008Y0159534D01*
X0066860Y0159472D01*
X0066710Y0159414D01*
X0066559Y0159359D01*
X0066406Y0159308D01*
X0066252Y0159261D01*
X0066097Y0159218D01*
X0065941Y0159179D01*
X0065785Y0159143D01*
X0065627Y0159112D01*
X0065469Y0159084D01*
X0065310Y0159060D01*
X0065150Y0159040D01*
X0064990Y0159024D01*
X0064830Y0159012D01*
X0064669Y0159004D01*
X0064508Y0159000D01*
X0064348Y0159000D01*
X0064187Y0159004D01*
X0064026Y0159012D01*
X0063866Y0159024D01*
X0063706Y0159040D01*
X0063546Y0159060D01*
X0063387Y0159084D01*
X0063229Y0159112D01*
X0063071Y0159143D01*
X0062915Y0159179D01*
X0062759Y0159218D01*
X0062604Y0159261D01*
X0062450Y0159308D01*
X0062297Y0159359D01*
X0062146Y0159414D01*
X0061996Y0159472D01*
X0061848Y0159534D01*
X0061701Y0159600D01*
X0061556Y0159669D01*
X0061413Y0159742D01*
X0061271Y0159818D01*
X0061132Y0159898D01*
X0060994Y0159981D01*
X0060859Y0160068D01*
X0060725Y0160158D01*
X0060594Y0160251D01*
X0060466Y0160347D01*
X0060340Y0160447D01*
X0060216Y0160550D01*
X0060095Y0160655D01*
X0059976Y0160764D01*
X0059860Y0160875D01*
X0059747Y0160990D01*
X0059637Y0161107D01*
X0059530Y0161227D01*
X0059426Y0161349D01*
X0059325Y0161474D01*
X0059227Y0161602D01*
X0059132Y0161732D01*
X0059040Y0161864D01*
X0058952Y0161998D01*
X0058867Y0162135D01*
X0058785Y0162273D01*
X0058707Y0162414D01*
X0058633Y0162556D01*
X0058562Y0162700D01*
X0058494Y0162846D01*
X0058431Y0162994D01*
X0058370Y0163143D01*
X0058314Y0163294D01*
X0058261Y0163446D01*
X0058212Y0163599D01*
X0058167Y0163753D01*
X0058126Y0163908D01*
X0058088Y0164065D01*
X0058055Y0164222D01*
X0058025Y0164380D01*
X0057999Y0164539D01*
X0057978Y0164698D01*
X0057960Y0164858D01*
X0057946Y0165018D01*
X0057936Y0165179D01*
X0057930Y0165339D01*
X0057928Y0165500D01*
X0058928Y0206500D02*
X0058930Y0206661D01*
X0058936Y0206821D01*
X0058946Y0206982D01*
X0058960Y0207142D01*
X0058978Y0207302D01*
X0058999Y0207461D01*
X0059025Y0207620D01*
X0059055Y0207778D01*
X0059088Y0207935D01*
X0059126Y0208092D01*
X0059167Y0208247D01*
X0059212Y0208401D01*
X0059261Y0208554D01*
X0059314Y0208706D01*
X0059370Y0208857D01*
X0059431Y0209006D01*
X0059494Y0209154D01*
X0059562Y0209300D01*
X0059633Y0209444D01*
X0059707Y0209586D01*
X0059785Y0209727D01*
X0059867Y0209865D01*
X0059952Y0210002D01*
X0060040Y0210136D01*
X0060132Y0210268D01*
X0060227Y0210398D01*
X0060325Y0210526D01*
X0060426Y0210651D01*
X0060530Y0210773D01*
X0060637Y0210893D01*
X0060747Y0211010D01*
X0060860Y0211125D01*
X0060976Y0211236D01*
X0061095Y0211345D01*
X0061216Y0211450D01*
X0061340Y0211553D01*
X0061466Y0211653D01*
X0061594Y0211749D01*
X0061725Y0211842D01*
X0061859Y0211932D01*
X0061994Y0212019D01*
X0062132Y0212102D01*
X0062271Y0212182D01*
X0062413Y0212258D01*
X0062556Y0212331D01*
X0062701Y0212400D01*
X0062848Y0212466D01*
X0062996Y0212528D01*
X0063146Y0212586D01*
X0063297Y0212641D01*
X0063450Y0212692D01*
X0063604Y0212739D01*
X0063759Y0212782D01*
X0063915Y0212821D01*
X0064071Y0212857D01*
X0064229Y0212888D01*
X0064387Y0212916D01*
X0064546Y0212940D01*
X0064706Y0212960D01*
X0064866Y0212976D01*
X0065026Y0212988D01*
X0065187Y0212996D01*
X0065348Y0213000D01*
X0065508Y0213000D01*
X0065669Y0212996D01*
X0065830Y0212988D01*
X0065990Y0212976D01*
X0066150Y0212960D01*
X0066310Y0212940D01*
X0066469Y0212916D01*
X0066627Y0212888D01*
X0066785Y0212857D01*
X0066941Y0212821D01*
X0067097Y0212782D01*
X0067252Y0212739D01*
X0067406Y0212692D01*
X0067559Y0212641D01*
X0067710Y0212586D01*
X0067860Y0212528D01*
X0068008Y0212466D01*
X0068155Y0212400D01*
X0068300Y0212331D01*
X0068443Y0212258D01*
X0068585Y0212182D01*
X0068724Y0212102D01*
X0068862Y0212019D01*
X0068997Y0211932D01*
X0069131Y0211842D01*
X0069262Y0211749D01*
X0069390Y0211653D01*
X0069516Y0211553D01*
X0069640Y0211450D01*
X0069761Y0211345D01*
X0069880Y0211236D01*
X0069996Y0211125D01*
X0070109Y0211010D01*
X0070219Y0210893D01*
X0070326Y0210773D01*
X0070430Y0210651D01*
X0070531Y0210526D01*
X0070629Y0210398D01*
X0070724Y0210268D01*
X0070816Y0210136D01*
X0070904Y0210002D01*
X0070989Y0209865D01*
X0071071Y0209727D01*
X0071149Y0209586D01*
X0071223Y0209444D01*
X0071294Y0209300D01*
X0071362Y0209154D01*
X0071425Y0209006D01*
X0071486Y0208857D01*
X0071542Y0208706D01*
X0071595Y0208554D01*
X0071644Y0208401D01*
X0071689Y0208247D01*
X0071730Y0208092D01*
X0071768Y0207935D01*
X0071801Y0207778D01*
X0071831Y0207620D01*
X0071857Y0207461D01*
X0071878Y0207302D01*
X0071896Y0207142D01*
X0071910Y0206982D01*
X0071920Y0206821D01*
X0071926Y0206661D01*
X0071928Y0206500D01*
X0071926Y0206339D01*
X0071920Y0206179D01*
X0071910Y0206018D01*
X0071896Y0205858D01*
X0071878Y0205698D01*
X0071857Y0205539D01*
X0071831Y0205380D01*
X0071801Y0205222D01*
X0071768Y0205065D01*
X0071730Y0204908D01*
X0071689Y0204753D01*
X0071644Y0204599D01*
X0071595Y0204446D01*
X0071542Y0204294D01*
X0071486Y0204143D01*
X0071425Y0203994D01*
X0071362Y0203846D01*
X0071294Y0203700D01*
X0071223Y0203556D01*
X0071149Y0203414D01*
X0071071Y0203273D01*
X0070989Y0203135D01*
X0070904Y0202998D01*
X0070816Y0202864D01*
X0070724Y0202732D01*
X0070629Y0202602D01*
X0070531Y0202474D01*
X0070430Y0202349D01*
X0070326Y0202227D01*
X0070219Y0202107D01*
X0070109Y0201990D01*
X0069996Y0201875D01*
X0069880Y0201764D01*
X0069761Y0201655D01*
X0069640Y0201550D01*
X0069516Y0201447D01*
X0069390Y0201347D01*
X0069262Y0201251D01*
X0069131Y0201158D01*
X0068997Y0201068D01*
X0068862Y0200981D01*
X0068724Y0200898D01*
X0068585Y0200818D01*
X0068443Y0200742D01*
X0068300Y0200669D01*
X0068155Y0200600D01*
X0068008Y0200534D01*
X0067860Y0200472D01*
X0067710Y0200414D01*
X0067559Y0200359D01*
X0067406Y0200308D01*
X0067252Y0200261D01*
X0067097Y0200218D01*
X0066941Y0200179D01*
X0066785Y0200143D01*
X0066627Y0200112D01*
X0066469Y0200084D01*
X0066310Y0200060D01*
X0066150Y0200040D01*
X0065990Y0200024D01*
X0065830Y0200012D01*
X0065669Y0200004D01*
X0065508Y0200000D01*
X0065348Y0200000D01*
X0065187Y0200004D01*
X0065026Y0200012D01*
X0064866Y0200024D01*
X0064706Y0200040D01*
X0064546Y0200060D01*
X0064387Y0200084D01*
X0064229Y0200112D01*
X0064071Y0200143D01*
X0063915Y0200179D01*
X0063759Y0200218D01*
X0063604Y0200261D01*
X0063450Y0200308D01*
X0063297Y0200359D01*
X0063146Y0200414D01*
X0062996Y0200472D01*
X0062848Y0200534D01*
X0062701Y0200600D01*
X0062556Y0200669D01*
X0062413Y0200742D01*
X0062271Y0200818D01*
X0062132Y0200898D01*
X0061994Y0200981D01*
X0061859Y0201068D01*
X0061725Y0201158D01*
X0061594Y0201251D01*
X0061466Y0201347D01*
X0061340Y0201447D01*
X0061216Y0201550D01*
X0061095Y0201655D01*
X0060976Y0201764D01*
X0060860Y0201875D01*
X0060747Y0201990D01*
X0060637Y0202107D01*
X0060530Y0202227D01*
X0060426Y0202349D01*
X0060325Y0202474D01*
X0060227Y0202602D01*
X0060132Y0202732D01*
X0060040Y0202864D01*
X0059952Y0202998D01*
X0059867Y0203135D01*
X0059785Y0203273D01*
X0059707Y0203414D01*
X0059633Y0203556D01*
X0059562Y0203700D01*
X0059494Y0203846D01*
X0059431Y0203994D01*
X0059370Y0204143D01*
X0059314Y0204294D01*
X0059261Y0204446D01*
X0059212Y0204599D01*
X0059167Y0204753D01*
X0059126Y0204908D01*
X0059088Y0205065D01*
X0059055Y0205222D01*
X0059025Y0205380D01*
X0058999Y0205539D01*
X0058978Y0205698D01*
X0058960Y0205858D01*
X0058946Y0206018D01*
X0058936Y0206179D01*
X0058930Y0206339D01*
X0058928Y0206500D01*
D11*
X0024428Y0001500D02*
X0001751Y0001500D01*
X0009428Y0001756D02*
X0010452Y0011736D01*
X0010685Y0011736D02*
X0009428Y0001756D01*
X0008405Y0011736D01*
X0008172Y0011736D02*
X0010685Y0011736D01*
X0009940Y0011736D02*
X0009428Y0001756D01*
X0008917Y0011736D01*
X0008172Y0011736D02*
X0009428Y0001756D01*
X0009428Y0236244D01*
X0010452Y0226264D01*
X0010685Y0226264D02*
X0009428Y0236244D01*
X0008405Y0226264D01*
X0008172Y0226264D02*
X0010685Y0226264D01*
X0009940Y0226264D02*
X0009428Y0236244D01*
X0008917Y0226264D01*
X0008172Y0226264D02*
X0009428Y0236244D01*
X0001751Y0236500D02*
X0024428Y0236500D01*
X0029428Y0238823D02*
X0029428Y0256500D01*
X0029684Y0246500D02*
X0039665Y0247757D01*
X0039665Y0245243D01*
X0029684Y0246500D01*
X0039665Y0245476D01*
X0039665Y0245988D02*
X0029684Y0246500D01*
X0039665Y0247524D01*
X0039665Y0247012D02*
X0029684Y0246500D01*
X0364173Y0246500D01*
X0354192Y0245476D01*
X0354192Y0245243D02*
X0364173Y0246500D01*
X0354192Y0247524D01*
X0354192Y0247757D02*
X0354192Y0245243D01*
X0354192Y0245988D02*
X0364173Y0246500D01*
X0354192Y0247012D01*
X0354192Y0247757D02*
X0364173Y0246500D01*
X0364428Y0238823D02*
X0364428Y0256500D01*
D12*
X0210830Y0250764D02*
X0210830Y0248462D01*
X0209296Y0248462D02*
X0209296Y0250764D01*
X0210063Y0251531D01*
X0210830Y0250764D01*
X0209296Y0250764D02*
X0208528Y0251531D01*
X0207761Y0251531D01*
X0207761Y0248462D01*
X0206226Y0248462D02*
X0206226Y0250764D01*
X0205459Y0251531D01*
X0204692Y0250764D01*
X0204692Y0248462D01*
X0203157Y0248462D02*
X0203157Y0251531D01*
X0203924Y0251531D01*
X0204692Y0250764D01*
X0201622Y0250764D02*
X0199320Y0250764D01*
X0198553Y0251531D01*
X0198553Y0252298D01*
X0199320Y0253066D01*
X0200855Y0253066D01*
X0201622Y0252298D01*
X0201622Y0249229D01*
X0200855Y0248462D01*
X0199320Y0248462D01*
X0198553Y0249229D01*
X0197019Y0249229D02*
X0196251Y0248462D01*
X0194717Y0248462D01*
X0193949Y0249229D01*
X0197019Y0252298D01*
X0197019Y0249229D01*
X0197019Y0252298D02*
X0196251Y0253066D01*
X0194717Y0253066D01*
X0193949Y0252298D01*
X0193949Y0249229D01*
X0192415Y0249229D02*
X0192415Y0248462D01*
X0191647Y0248462D01*
X0191647Y0249229D01*
X0192415Y0249229D01*
X0190113Y0249229D02*
X0189345Y0248462D01*
X0187811Y0248462D01*
X0187043Y0249229D01*
X0185509Y0249229D02*
X0184741Y0248462D01*
X0183207Y0248462D01*
X0182439Y0249229D01*
X0182439Y0249996D01*
X0183207Y0250764D01*
X0184741Y0250764D01*
X0185509Y0249996D01*
X0185509Y0249229D01*
X0184741Y0250764D02*
X0185509Y0251531D01*
X0185509Y0252298D01*
X0184741Y0253066D01*
X0183207Y0253066D01*
X0182439Y0252298D01*
X0182439Y0251531D01*
X0183207Y0250764D01*
X0187043Y0250764D02*
X0187043Y0253066D01*
X0190113Y0253066D01*
X0189345Y0251531D02*
X0188578Y0251531D01*
X0187043Y0250764D01*
X0189345Y0251531D02*
X0190113Y0250764D01*
X0190113Y0249229D01*
X0007467Y0132902D02*
X0005165Y0132902D01*
X0004397Y0132134D01*
X0005165Y0131367D01*
X0007467Y0131367D01*
X0007467Y0129833D02*
X0004397Y0129833D01*
X0004397Y0130600D01*
X0005165Y0131367D01*
X0005165Y0128298D02*
X0007467Y0128298D01*
X0007467Y0126763D02*
X0005165Y0126763D01*
X0004397Y0127531D01*
X0005165Y0128298D01*
X0005165Y0126763D02*
X0004397Y0125996D01*
X0004397Y0125229D01*
X0007467Y0125229D01*
X0006699Y0123694D02*
X0003630Y0123694D01*
X0002863Y0122927D01*
X0002863Y0121392D01*
X0003630Y0120625D01*
X0004397Y0120625D01*
X0005165Y0121392D01*
X0005165Y0123694D01*
X0006699Y0123694D02*
X0007467Y0122927D01*
X0007467Y0121392D01*
X0006699Y0120625D01*
X0006699Y0119090D02*
X0005932Y0119090D01*
X0005165Y0118323D01*
X0005165Y0116021D01*
X0006699Y0116021D01*
X0007467Y0116788D01*
X0007467Y0118323D01*
X0006699Y0119090D01*
X0003630Y0117555D02*
X0005165Y0116021D01*
X0006699Y0114486D02*
X0007467Y0114486D01*
X0007467Y0113719D01*
X0006699Y0113719D01*
X0006699Y0114486D01*
X0006699Y0112184D02*
X0003630Y0112184D01*
X0002863Y0111417D01*
X0002863Y0109882D01*
X0003630Y0109115D01*
X0004397Y0109115D01*
X0005165Y0109882D01*
X0005165Y0112184D01*
X0006699Y0112184D02*
X0007467Y0111417D01*
X0007467Y0109882D01*
X0006699Y0109115D01*
X0006699Y0107580D02*
X0007467Y0106813D01*
X0007467Y0105278D01*
X0006699Y0104511D01*
X0005165Y0104511D02*
X0004397Y0106046D01*
X0004397Y0106813D01*
X0005165Y0107580D01*
X0006699Y0107580D01*
X0005165Y0104511D02*
X0002863Y0104511D01*
X0002863Y0107580D01*
X0003630Y0117555D02*
X0002863Y0119090D01*
D13*
X0054428Y0086500D03*
X0054428Y0076500D03*
X0079428Y0081500D03*
X0079428Y0091500D03*
X0109428Y0096500D03*
X0109428Y0106500D03*
X0129428Y0106500D03*
X0129428Y0096500D03*
X0129428Y0076500D03*
X0109428Y0076500D03*
X0109428Y0056500D03*
X0109428Y0046500D03*
X0119428Y0036500D03*
X0129428Y0056500D03*
X0149428Y0056500D03*
X0149428Y0036500D03*
X0234428Y0081500D03*
X0254428Y0081500D03*
X0264428Y0081500D03*
X0284428Y0081500D03*
X0294428Y0081500D03*
X0314428Y0081500D03*
X0309428Y0066500D03*
X0309428Y0056500D03*
X0299428Y0056500D03*
X0279428Y0056500D03*
X0269428Y0056500D03*
X0279428Y0066500D03*
X0249428Y0066500D03*
X0249428Y0056500D03*
X0239428Y0056500D03*
X0209428Y0096500D03*
X0189428Y0096500D03*
X0189428Y0116500D03*
X0209428Y0116500D03*
X0234428Y0101500D03*
X0254428Y0101500D03*
X0264428Y0101500D03*
X0284428Y0101500D03*
X0294428Y0101500D03*
X0314428Y0101500D03*
X0304428Y0116500D03*
X0304428Y0126500D03*
X0304428Y0136500D03*
X0304428Y0146500D03*
X0274428Y0146500D03*
X0274428Y0136500D03*
X0274428Y0126500D03*
X0274428Y0116500D03*
X0244428Y0116500D03*
X0244428Y0126500D03*
X0244428Y0136500D03*
X0244428Y0146500D03*
X0184428Y0196500D03*
X0174428Y0196500D03*
X0159428Y0206500D03*
X0149428Y0206500D03*
X0164428Y0216500D03*
X0184428Y0216500D03*
X0129428Y0126500D03*
X0109428Y0126500D03*
X0339428Y0136500D03*
X0339428Y0156500D03*
D14*
X0177028Y0136500D02*
X0171828Y0136500D01*
X0171828Y0126500D02*
X0177028Y0126500D01*
X0177028Y0116500D02*
X0171828Y0116500D01*
X0171828Y0106500D02*
X0177028Y0106500D01*
X0177028Y0096500D02*
X0171828Y0096500D01*
X0171828Y0086500D02*
X0177028Y0086500D01*
X0177028Y0076500D02*
X0171828Y0076500D01*
X0147028Y0076500D02*
X0141828Y0076500D01*
X0141828Y0086500D02*
X0147028Y0086500D01*
X0147028Y0096500D02*
X0141828Y0096500D01*
X0141828Y0106500D02*
X0147028Y0106500D01*
X0147028Y0116500D02*
X0141828Y0116500D01*
X0141828Y0126500D02*
X0147028Y0126500D01*
X0147028Y0136500D02*
X0141828Y0136500D01*
D15*
X0074428Y0109800D02*
X0074428Y0103200D01*
X0064428Y0103200D02*
X0064428Y0109800D01*
X0054428Y0109800D02*
X0054428Y0103200D01*
X0131128Y0196500D02*
X0137728Y0196500D01*
X0137728Y0206500D02*
X0131128Y0206500D01*
X0131128Y0216500D02*
X0137728Y0216500D01*
D16*
X0078365Y0058705D02*
X0070491Y0058705D01*
X0093326Y0050437D02*
X0093326Y0042563D01*
X0078365Y0034689D02*
X0070491Y0034689D01*
D17*
X0169428Y0163500D02*
X0169428Y0169500D01*
X0179428Y0169500D02*
X0179428Y0163500D01*
X0189428Y0163500D02*
X0189428Y0169500D01*
D18*
X0329428Y0156500D03*
D19*
X0329428Y0076500D01*
X0299428Y0076500D01*
X0294428Y0081500D01*
X0294428Y0101500D01*
X0297365Y0098356D02*
X0311492Y0098356D01*
X0310493Y0099354D02*
X0298364Y0099354D01*
X0298728Y0099719D02*
X0298728Y0103281D01*
X0296210Y0105800D01*
X0292647Y0105800D01*
X0291628Y0104781D01*
X0291628Y0137411D01*
X0290340Y0138700D01*
X0278310Y0138700D01*
X0276210Y0140800D01*
X0272647Y0140800D01*
X0270128Y0138281D01*
X0270128Y0134719D01*
X0272647Y0132200D01*
X0276210Y0132200D01*
X0278310Y0134300D01*
X0287228Y0134300D01*
X0287228Y0104781D01*
X0286628Y0105381D01*
X0286628Y0117411D01*
X0285340Y0118700D01*
X0278310Y0118700D01*
X0276210Y0120800D01*
X0272647Y0120800D01*
X0270128Y0118281D01*
X0270128Y0114719D01*
X0272647Y0112200D01*
X0276210Y0112200D01*
X0278310Y0114300D01*
X0282228Y0114300D01*
X0282228Y0105381D01*
X0280128Y0103281D01*
X0280128Y0099719D01*
X0282647Y0097200D01*
X0286210Y0097200D01*
X0287228Y0098219D01*
X0287228Y0084781D01*
X0286210Y0085800D01*
X0282647Y0085800D01*
X0280128Y0083281D01*
X0280128Y0079719D01*
X0282647Y0077200D01*
X0286210Y0077200D01*
X0288310Y0079300D01*
X0290340Y0079300D01*
X0290444Y0079404D01*
X0292647Y0077200D01*
X0295617Y0077200D01*
X0297228Y0075589D01*
X0297228Y0060381D01*
X0295128Y0058281D01*
X0295128Y0054719D01*
X0297647Y0052200D01*
X0301210Y0052200D01*
X0303728Y0054719D01*
X0303728Y0058281D01*
X0301628Y0060381D01*
X0301628Y0074300D01*
X0330340Y0074300D01*
X0331628Y0075589D01*
X0331628Y0152053D01*
X0333875Y0154300D01*
X0335547Y0154300D01*
X0337647Y0152200D01*
X0341210Y0152200D01*
X0343728Y0154719D01*
X0343728Y0158281D01*
X0341210Y0160800D01*
X0337647Y0160800D01*
X0335547Y0158700D01*
X0333875Y0158700D01*
X0331375Y0161200D01*
X0327482Y0161200D01*
X0324728Y0158447D01*
X0324728Y0154553D01*
X0327228Y0152053D01*
X0327228Y0078700D01*
X0317710Y0078700D01*
X0318310Y0079300D01*
X0320340Y0079300D01*
X0321628Y0080589D01*
X0321628Y0137411D01*
X0320340Y0138700D01*
X0308310Y0138700D01*
X0306210Y0140800D01*
X0302647Y0140800D01*
X0300128Y0138281D01*
X0300128Y0134719D01*
X0302647Y0132200D01*
X0306210Y0132200D01*
X0308310Y0134300D01*
X0317228Y0134300D01*
X0317228Y0104781D01*
X0316628Y0105381D01*
X0316628Y0117411D01*
X0315340Y0118700D01*
X0308310Y0118700D01*
X0306210Y0120800D01*
X0302647Y0120800D01*
X0300128Y0118281D01*
X0300128Y0114719D01*
X0302647Y0112200D01*
X0306210Y0112200D01*
X0308310Y0114300D01*
X0312228Y0114300D01*
X0312228Y0105381D01*
X0310128Y0103281D01*
X0310128Y0099719D01*
X0312647Y0097200D01*
X0316210Y0097200D01*
X0317228Y0098219D01*
X0317228Y0084781D01*
X0316210Y0085800D01*
X0312647Y0085800D01*
X0310128Y0083281D01*
X0310128Y0079719D01*
X0311147Y0078700D01*
X0300340Y0078700D01*
X0298728Y0080311D01*
X0298728Y0083281D01*
X0296628Y0085381D01*
X0296628Y0097619D01*
X0298728Y0099719D01*
X0298728Y0100353D02*
X0310128Y0100353D01*
X0310128Y0101351D02*
X0298728Y0101351D01*
X0298728Y0102350D02*
X0310128Y0102350D01*
X0310196Y0103348D02*
X0298661Y0103348D01*
X0297663Y0104347D02*
X0311194Y0104347D01*
X0312193Y0105345D02*
X0296664Y0105345D01*
X0292193Y0105345D02*
X0291628Y0105345D01*
X0291628Y0106344D02*
X0312228Y0106344D01*
X0312228Y0107342D02*
X0291628Y0107342D01*
X0291628Y0108341D02*
X0312228Y0108341D01*
X0312228Y0109339D02*
X0291628Y0109339D01*
X0291628Y0110338D02*
X0312228Y0110338D01*
X0312228Y0111336D02*
X0291628Y0111336D01*
X0291628Y0112335D02*
X0302513Y0112335D01*
X0301514Y0113333D02*
X0291628Y0113333D01*
X0291628Y0114332D02*
X0300516Y0114332D01*
X0300128Y0115330D02*
X0291628Y0115330D01*
X0291628Y0116329D02*
X0300128Y0116329D01*
X0300128Y0117327D02*
X0291628Y0117327D01*
X0291628Y0118326D02*
X0300173Y0118326D01*
X0301172Y0119324D02*
X0291628Y0119324D01*
X0291628Y0120323D02*
X0302170Y0120323D01*
X0302730Y0122400D02*
X0300328Y0124802D01*
X0300328Y0126200D01*
X0304128Y0126200D01*
X0304128Y0126800D01*
X0300328Y0126800D01*
X0300328Y0128198D01*
X0302730Y0130600D01*
X0304128Y0130600D01*
X0304128Y0126800D01*
X0304728Y0126800D01*
X0304728Y0130600D01*
X0306127Y0130600D01*
X0308528Y0128198D01*
X0308528Y0126800D01*
X0304729Y0126800D01*
X0304729Y0126200D01*
X0308528Y0126200D01*
X0308528Y0124802D01*
X0306127Y0122400D01*
X0304728Y0122400D01*
X0304728Y0126200D01*
X0304128Y0126200D01*
X0304128Y0122400D01*
X0302730Y0122400D01*
X0301812Y0123318D02*
X0291628Y0123318D01*
X0291628Y0122320D02*
X0317228Y0122320D01*
X0317228Y0123318D02*
X0307045Y0123318D01*
X0308044Y0124317D02*
X0317228Y0124317D01*
X0317228Y0125315D02*
X0308528Y0125315D01*
X0308528Y0127312D02*
X0317228Y0127312D01*
X0317228Y0126314D02*
X0304729Y0126314D01*
X0304128Y0126314D02*
X0291628Y0126314D01*
X0291628Y0127312D02*
X0300328Y0127312D01*
X0300441Y0128311D02*
X0291628Y0128311D01*
X0291628Y0129309D02*
X0301440Y0129309D01*
X0302438Y0130308D02*
X0291628Y0130308D01*
X0291628Y0131306D02*
X0317228Y0131306D01*
X0317228Y0130308D02*
X0306419Y0130308D01*
X0307417Y0129309D02*
X0317228Y0129309D01*
X0317228Y0128311D02*
X0308416Y0128311D01*
X0304728Y0128311D02*
X0304128Y0128311D01*
X0304128Y0129309D02*
X0304728Y0129309D01*
X0304728Y0130308D02*
X0304128Y0130308D01*
X0302542Y0132305D02*
X0291628Y0132305D01*
X0291628Y0133303D02*
X0301544Y0133303D01*
X0300545Y0134302D02*
X0291628Y0134302D01*
X0291628Y0135301D02*
X0300128Y0135301D01*
X0300128Y0136299D02*
X0291628Y0136299D01*
X0291628Y0137298D02*
X0300128Y0137298D01*
X0300143Y0138296D02*
X0290744Y0138296D01*
X0289428Y0136500D02*
X0274428Y0136500D01*
X0270128Y0136299D02*
X0261628Y0136299D01*
X0261628Y0135301D02*
X0270128Y0135301D01*
X0270545Y0134302D02*
X0261628Y0134302D01*
X0261628Y0133303D02*
X0271544Y0133303D01*
X0272542Y0132305D02*
X0261628Y0132305D01*
X0261628Y0131306D02*
X0287228Y0131306D01*
X0287228Y0130308D02*
X0276419Y0130308D01*
X0276127Y0130600D02*
X0274728Y0130600D01*
X0274728Y0126800D01*
X0274128Y0126800D01*
X0274128Y0126200D01*
X0270328Y0126200D01*
X0270328Y0124802D01*
X0272730Y0122400D01*
X0274128Y0122400D01*
X0274128Y0126200D01*
X0274728Y0126200D01*
X0274728Y0122400D01*
X0276127Y0122400D01*
X0278528Y0124802D01*
X0278528Y0126200D01*
X0274729Y0126200D01*
X0274729Y0126800D01*
X0278528Y0126800D01*
X0278528Y0128198D01*
X0276127Y0130600D01*
X0274728Y0130308D02*
X0274128Y0130308D01*
X0274128Y0130600D02*
X0272730Y0130600D01*
X0270328Y0128198D01*
X0270328Y0126800D01*
X0274128Y0126800D01*
X0274128Y0130600D01*
X0274128Y0129309D02*
X0274728Y0129309D01*
X0274728Y0128311D02*
X0274128Y0128311D01*
X0274128Y0127312D02*
X0274728Y0127312D01*
X0274729Y0126314D02*
X0287228Y0126314D01*
X0287228Y0127312D02*
X0278528Y0127312D01*
X0278416Y0128311D02*
X0287228Y0128311D01*
X0287228Y0129309D02*
X0277417Y0129309D01*
X0276315Y0132305D02*
X0287228Y0132305D01*
X0287228Y0133303D02*
X0277313Y0133303D01*
X0272438Y0130308D02*
X0261628Y0130308D01*
X0261628Y0129309D02*
X0271440Y0129309D01*
X0270441Y0128311D02*
X0261628Y0128311D01*
X0261628Y0127312D02*
X0270328Y0127312D01*
X0270328Y0125315D02*
X0261628Y0125315D01*
X0261628Y0124317D02*
X0270813Y0124317D01*
X0271812Y0123318D02*
X0261628Y0123318D01*
X0261628Y0122320D02*
X0287228Y0122320D01*
X0287228Y0123318D02*
X0277045Y0123318D01*
X0278044Y0124317D02*
X0287228Y0124317D01*
X0287228Y0125315D02*
X0278528Y0125315D01*
X0274728Y0125315D02*
X0274128Y0125315D01*
X0274128Y0124317D02*
X0274728Y0124317D01*
X0274728Y0123318D02*
X0274128Y0123318D01*
X0274128Y0126314D02*
X0261628Y0126314D01*
X0257228Y0126314D02*
X0244729Y0126314D01*
X0244729Y0126200D02*
X0244729Y0126800D01*
X0248528Y0126800D01*
X0248528Y0128198D01*
X0246127Y0130600D01*
X0244728Y0130600D01*
X0244728Y0126800D01*
X0244128Y0126800D01*
X0244128Y0126200D01*
X0240328Y0126200D01*
X0240328Y0124802D01*
X0242730Y0122400D01*
X0244128Y0122400D01*
X0244128Y0126200D01*
X0244728Y0126200D01*
X0244728Y0122400D01*
X0246127Y0122400D01*
X0248528Y0124802D01*
X0248528Y0126200D01*
X0244729Y0126200D01*
X0244128Y0126314D02*
X0226628Y0126314D01*
X0226628Y0127312D02*
X0240328Y0127312D01*
X0240328Y0126800D02*
X0244128Y0126800D01*
X0244128Y0130600D01*
X0242730Y0130600D01*
X0240328Y0128198D01*
X0240328Y0126800D01*
X0240328Y0125315D02*
X0226628Y0125315D01*
X0226628Y0124317D02*
X0240813Y0124317D01*
X0241812Y0123318D02*
X0226628Y0123318D01*
X0226628Y0122320D02*
X0257228Y0122320D01*
X0257228Y0123318D02*
X0247045Y0123318D01*
X0248044Y0124317D02*
X0257228Y0124317D01*
X0257228Y0125315D02*
X0248528Y0125315D01*
X0248528Y0127312D02*
X0257228Y0127312D01*
X0257228Y0128311D02*
X0248416Y0128311D01*
X0247417Y0129309D02*
X0257228Y0129309D01*
X0257228Y0130308D02*
X0246419Y0130308D01*
X0244728Y0130308D02*
X0244128Y0130308D01*
X0244128Y0129309D02*
X0244728Y0129309D01*
X0244728Y0128311D02*
X0244128Y0128311D01*
X0244128Y0127312D02*
X0244728Y0127312D01*
X0244728Y0125315D02*
X0244128Y0125315D01*
X0244128Y0124317D02*
X0244728Y0124317D01*
X0244728Y0123318D02*
X0244128Y0123318D01*
X0242647Y0120800D02*
X0240128Y0118281D01*
X0240128Y0114719D01*
X0242647Y0112200D01*
X0246210Y0112200D01*
X0248310Y0114300D01*
X0252228Y0114300D01*
X0252228Y0105381D01*
X0250128Y0103281D01*
X0250128Y0099719D01*
X0252647Y0097200D01*
X0256210Y0097200D01*
X0257228Y0098219D01*
X0257228Y0084781D01*
X0256210Y0085800D01*
X0252647Y0085800D01*
X0250128Y0083281D01*
X0250128Y0079719D01*
X0252647Y0077200D01*
X0256210Y0077200D01*
X0258310Y0079300D01*
X0260340Y0079300D01*
X0260444Y0079404D01*
X0262647Y0077200D01*
X0265617Y0077200D01*
X0267228Y0075589D01*
X0267228Y0060381D01*
X0265128Y0058281D01*
X0265128Y0054719D01*
X0267647Y0052200D01*
X0271210Y0052200D01*
X0273728Y0054719D01*
X0273728Y0058281D01*
X0271628Y0060381D01*
X0271628Y0077411D01*
X0268728Y0080311D01*
X0268728Y0083281D01*
X0266628Y0085381D01*
X0266628Y0097619D01*
X0268728Y0099719D01*
X0268728Y0103281D01*
X0266210Y0105800D01*
X0262647Y0105800D01*
X0261628Y0104781D01*
X0261628Y0137411D01*
X0260340Y0138700D01*
X0248310Y0138700D01*
X0246210Y0140800D01*
X0242647Y0140800D01*
X0240128Y0138281D01*
X0240128Y0134719D01*
X0242647Y0132200D01*
X0246210Y0132200D01*
X0248310Y0134300D01*
X0257228Y0134300D01*
X0257228Y0104781D01*
X0256628Y0105381D01*
X0256628Y0117411D01*
X0255340Y0118700D01*
X0248310Y0118700D01*
X0246210Y0120800D01*
X0242647Y0120800D01*
X0242170Y0120323D02*
X0226628Y0120323D01*
X0226628Y0121321D02*
X0257228Y0121321D01*
X0257228Y0120323D02*
X0246687Y0120323D01*
X0247685Y0119324D02*
X0257228Y0119324D01*
X0257228Y0118326D02*
X0255714Y0118326D01*
X0256628Y0117327D02*
X0257228Y0117327D01*
X0257228Y0116329D02*
X0256628Y0116329D01*
X0256628Y0115330D02*
X0257228Y0115330D01*
X0257228Y0114332D02*
X0256628Y0114332D01*
X0256628Y0113333D02*
X0257228Y0113333D01*
X0257228Y0112335D02*
X0256628Y0112335D01*
X0256628Y0111336D02*
X0257228Y0111336D01*
X0257228Y0110338D02*
X0256628Y0110338D01*
X0256628Y0109339D02*
X0257228Y0109339D01*
X0257228Y0108341D02*
X0256628Y0108341D01*
X0256628Y0107342D02*
X0257228Y0107342D01*
X0257228Y0106344D02*
X0256628Y0106344D01*
X0256664Y0105345D02*
X0257228Y0105345D01*
X0261628Y0105345D02*
X0262193Y0105345D01*
X0261628Y0106344D02*
X0282228Y0106344D01*
X0282228Y0107342D02*
X0261628Y0107342D01*
X0261628Y0108341D02*
X0282228Y0108341D01*
X0282228Y0109339D02*
X0261628Y0109339D01*
X0261628Y0110338D02*
X0282228Y0110338D01*
X0282228Y0111336D02*
X0261628Y0111336D01*
X0261628Y0112335D02*
X0272513Y0112335D01*
X0271514Y0113333D02*
X0261628Y0113333D01*
X0261628Y0114332D02*
X0270516Y0114332D01*
X0270128Y0115330D02*
X0261628Y0115330D01*
X0261628Y0116329D02*
X0270128Y0116329D01*
X0270128Y0117327D02*
X0261628Y0117327D01*
X0261628Y0118326D02*
X0270173Y0118326D01*
X0271172Y0119324D02*
X0261628Y0119324D01*
X0261628Y0120323D02*
X0272170Y0120323D01*
X0274428Y0116500D02*
X0284428Y0116500D01*
X0284428Y0101500D01*
X0280128Y0101351D02*
X0268728Y0101351D01*
X0268728Y0100353D02*
X0280128Y0100353D01*
X0280493Y0099354D02*
X0268364Y0099354D01*
X0267365Y0098356D02*
X0281492Y0098356D01*
X0282490Y0097357D02*
X0266628Y0097357D01*
X0266628Y0096359D02*
X0287228Y0096359D01*
X0287228Y0097357D02*
X0286367Y0097357D01*
X0287228Y0095360D02*
X0266628Y0095360D01*
X0266628Y0094362D02*
X0287228Y0094362D01*
X0287228Y0093363D02*
X0266628Y0093363D01*
X0266628Y0092365D02*
X0287228Y0092365D01*
X0287228Y0091366D02*
X0266628Y0091366D01*
X0266628Y0090368D02*
X0287228Y0090368D01*
X0287228Y0089369D02*
X0266628Y0089369D01*
X0266628Y0088370D02*
X0287228Y0088370D01*
X0287228Y0087372D02*
X0266628Y0087372D01*
X0266628Y0086373D02*
X0287228Y0086373D01*
X0287228Y0085375D02*
X0286635Y0085375D01*
X0282222Y0085375D02*
X0266635Y0085375D01*
X0267633Y0084376D02*
X0281224Y0084376D01*
X0280225Y0083378D02*
X0268632Y0083378D01*
X0268728Y0082379D02*
X0280128Y0082379D01*
X0280128Y0081381D02*
X0268728Y0081381D01*
X0268728Y0080382D02*
X0280128Y0080382D01*
X0280463Y0079384D02*
X0269656Y0079384D01*
X0270654Y0078385D02*
X0281462Y0078385D01*
X0282460Y0077387D02*
X0271628Y0077387D01*
X0271628Y0076388D02*
X0296429Y0076388D01*
X0297228Y0075390D02*
X0271628Y0075390D01*
X0271628Y0074391D02*
X0297228Y0074391D01*
X0297228Y0073393D02*
X0271628Y0073393D01*
X0271628Y0072394D02*
X0297228Y0072394D01*
X0297228Y0071396D02*
X0271628Y0071396D01*
X0271628Y0070397D02*
X0277245Y0070397D01*
X0277647Y0070800D02*
X0275128Y0068281D01*
X0275128Y0064719D01*
X0277647Y0062200D01*
X0281210Y0062200D01*
X0283728Y0064719D01*
X0283728Y0068281D01*
X0281210Y0070800D01*
X0277647Y0070800D01*
X0276246Y0069399D02*
X0271628Y0069399D01*
X0271628Y0068400D02*
X0275248Y0068400D01*
X0275128Y0067402D02*
X0271628Y0067402D01*
X0271628Y0066403D02*
X0275128Y0066403D01*
X0275128Y0065405D02*
X0271628Y0065405D01*
X0271628Y0064406D02*
X0275441Y0064406D01*
X0276440Y0063408D02*
X0271628Y0063408D01*
X0271628Y0062409D02*
X0277438Y0062409D01*
X0277647Y0060800D02*
X0275128Y0058281D01*
X0275128Y0054719D01*
X0277228Y0052619D01*
X0277228Y0043700D01*
X0221628Y0043700D01*
X0221628Y0137411D01*
X0220340Y0138700D01*
X0180771Y0138700D01*
X0180674Y0138936D01*
X0179464Y0140145D01*
X0177884Y0140800D01*
X0170973Y0140800D01*
X0169393Y0140145D01*
X0168183Y0138936D01*
X0167528Y0137355D01*
X0167528Y0135645D01*
X0168183Y0134064D01*
X0169393Y0132855D01*
X0170973Y0132200D01*
X0177884Y0132200D01*
X0179464Y0132855D01*
X0180674Y0134064D01*
X0180771Y0134300D01*
X0217228Y0134300D01*
X0217228Y0040589D01*
X0218517Y0039300D01*
X0280340Y0039300D01*
X0281628Y0040589D01*
X0281628Y0052619D01*
X0283728Y0054719D01*
X0283728Y0058281D01*
X0281210Y0060800D01*
X0277647Y0060800D01*
X0277260Y0060412D02*
X0271628Y0060412D01*
X0271628Y0061411D02*
X0297228Y0061411D01*
X0297228Y0062409D02*
X0281419Y0062409D01*
X0282417Y0063408D02*
X0297228Y0063408D01*
X0297228Y0064406D02*
X0283416Y0064406D01*
X0283728Y0065405D02*
X0297228Y0065405D01*
X0297228Y0066403D02*
X0283728Y0066403D01*
X0283728Y0067402D02*
X0297228Y0067402D01*
X0297228Y0068400D02*
X0283609Y0068400D01*
X0282611Y0069399D02*
X0297228Y0069399D01*
X0297228Y0070397D02*
X0281612Y0070397D01*
X0286396Y0077387D02*
X0292460Y0077387D01*
X0291462Y0078385D02*
X0287395Y0078385D01*
X0290424Y0079384D02*
X0290463Y0079384D01*
X0289428Y0081500D02*
X0284428Y0081500D01*
X0289428Y0081500D02*
X0289428Y0136500D01*
X0277715Y0139295D02*
X0301142Y0139295D01*
X0302140Y0140293D02*
X0276716Y0140293D01*
X0276127Y0142400D02*
X0274728Y0142400D01*
X0274728Y0146200D01*
X0274128Y0146200D01*
X0270328Y0146200D01*
X0270328Y0144802D01*
X0272730Y0142400D01*
X0274128Y0142400D01*
X0274128Y0146200D01*
X0274128Y0146800D01*
X0270328Y0146800D01*
X0270328Y0148198D01*
X0272730Y0150600D01*
X0274128Y0150600D01*
X0274128Y0146800D01*
X0274728Y0146800D01*
X0274728Y0150600D01*
X0276127Y0150600D01*
X0278528Y0148198D01*
X0278528Y0146800D01*
X0274729Y0146800D01*
X0274729Y0146200D01*
X0278528Y0146200D01*
X0278528Y0144802D01*
X0276127Y0142400D01*
X0277015Y0143289D02*
X0301842Y0143289D01*
X0302730Y0142400D02*
X0300328Y0144802D01*
X0300328Y0146200D01*
X0304128Y0146200D01*
X0304128Y0146800D01*
X0300328Y0146800D01*
X0300328Y0148198D01*
X0302730Y0150600D01*
X0304128Y0150600D01*
X0304128Y0146800D01*
X0304728Y0146800D01*
X0304728Y0150600D01*
X0306127Y0150600D01*
X0308528Y0148198D01*
X0308528Y0146800D01*
X0304729Y0146800D01*
X0304729Y0146200D01*
X0308528Y0146200D01*
X0308528Y0144802D01*
X0306127Y0142400D01*
X0304728Y0142400D01*
X0304728Y0146200D01*
X0304128Y0146200D01*
X0304128Y0142400D01*
X0302730Y0142400D01*
X0304128Y0143289D02*
X0304728Y0143289D01*
X0304728Y0144287D02*
X0304128Y0144287D01*
X0304128Y0145286D02*
X0304728Y0145286D01*
X0304729Y0146284D02*
X0327228Y0146284D01*
X0327228Y0145286D02*
X0308528Y0145286D01*
X0308014Y0144287D02*
X0327228Y0144287D01*
X0327228Y0143289D02*
X0307015Y0143289D01*
X0306716Y0140293D02*
X0327228Y0140293D01*
X0327228Y0139295D02*
X0307715Y0139295D01*
X0304428Y0136500D02*
X0319428Y0136500D01*
X0319428Y0081500D01*
X0314428Y0081500D01*
X0310128Y0081381D02*
X0298728Y0081381D01*
X0298728Y0082379D02*
X0310128Y0082379D01*
X0310225Y0083378D02*
X0298632Y0083378D01*
X0297633Y0084376D02*
X0311224Y0084376D01*
X0312222Y0085375D02*
X0296635Y0085375D01*
X0296628Y0086373D02*
X0317228Y0086373D01*
X0317228Y0085375D02*
X0316635Y0085375D01*
X0317228Y0087372D02*
X0296628Y0087372D01*
X0296628Y0088370D02*
X0317228Y0088370D01*
X0317228Y0089369D02*
X0296628Y0089369D01*
X0296628Y0090368D02*
X0317228Y0090368D01*
X0317228Y0091366D02*
X0296628Y0091366D01*
X0296628Y0092365D02*
X0317228Y0092365D01*
X0317228Y0093363D02*
X0296628Y0093363D01*
X0296628Y0094362D02*
X0317228Y0094362D01*
X0317228Y0095360D02*
X0296628Y0095360D01*
X0296628Y0096359D02*
X0317228Y0096359D01*
X0317228Y0097357D02*
X0316367Y0097357D01*
X0312490Y0097357D02*
X0296628Y0097357D01*
X0287228Y0105345D02*
X0286664Y0105345D01*
X0286628Y0106344D02*
X0287228Y0106344D01*
X0287228Y0107342D02*
X0286628Y0107342D01*
X0286628Y0108341D02*
X0287228Y0108341D01*
X0287228Y0109339D02*
X0286628Y0109339D01*
X0286628Y0110338D02*
X0287228Y0110338D01*
X0287228Y0111336D02*
X0286628Y0111336D01*
X0286628Y0112335D02*
X0287228Y0112335D01*
X0287228Y0113333D02*
X0286628Y0113333D01*
X0286628Y0114332D02*
X0287228Y0114332D01*
X0287228Y0115330D02*
X0286628Y0115330D01*
X0286628Y0116329D02*
X0287228Y0116329D01*
X0287228Y0117327D02*
X0286628Y0117327D01*
X0287228Y0118326D02*
X0285714Y0118326D01*
X0287228Y0119324D02*
X0277685Y0119324D01*
X0276687Y0120323D02*
X0287228Y0120323D01*
X0287228Y0121321D02*
X0261628Y0121321D01*
X0254428Y0116500D02*
X0244428Y0116500D01*
X0240128Y0116329D02*
X0226628Y0116329D01*
X0226628Y0117327D02*
X0240128Y0117327D01*
X0240173Y0118326D02*
X0226628Y0118326D01*
X0226628Y0119324D02*
X0241172Y0119324D01*
X0240128Y0115330D02*
X0226628Y0115330D01*
X0226628Y0114332D02*
X0240516Y0114332D01*
X0241514Y0113333D02*
X0226628Y0113333D01*
X0226628Y0112335D02*
X0242513Y0112335D01*
X0246344Y0112335D02*
X0252228Y0112335D01*
X0252228Y0113333D02*
X0247343Y0113333D01*
X0252228Y0111336D02*
X0226628Y0111336D01*
X0226628Y0110338D02*
X0252228Y0110338D01*
X0252228Y0109339D02*
X0226628Y0109339D01*
X0226628Y0108341D02*
X0252228Y0108341D01*
X0252228Y0107342D02*
X0226628Y0107342D01*
X0226628Y0106344D02*
X0252228Y0106344D01*
X0252193Y0105345D02*
X0236664Y0105345D01*
X0236210Y0105800D02*
X0238728Y0103281D01*
X0238728Y0099719D01*
X0236628Y0097619D01*
X0236628Y0085381D01*
X0238728Y0083281D01*
X0238728Y0080311D01*
X0241628Y0077411D01*
X0241628Y0060381D01*
X0243728Y0058281D01*
X0243728Y0054719D01*
X0241210Y0052200D01*
X0237647Y0052200D01*
X0235128Y0054719D01*
X0235128Y0058281D01*
X0237228Y0060381D01*
X0237228Y0075589D01*
X0235617Y0077200D01*
X0232647Y0077200D01*
X0230128Y0079719D01*
X0230128Y0083281D01*
X0232228Y0085381D01*
X0232228Y0097619D01*
X0230128Y0099719D01*
X0230128Y0103281D01*
X0232647Y0105800D01*
X0236210Y0105800D01*
X0237663Y0104347D02*
X0251194Y0104347D01*
X0250196Y0103348D02*
X0238661Y0103348D01*
X0238728Y0102350D02*
X0250128Y0102350D01*
X0250128Y0101351D02*
X0238728Y0101351D01*
X0238728Y0100353D02*
X0250128Y0100353D01*
X0250493Y0099354D02*
X0238364Y0099354D01*
X0237365Y0098356D02*
X0251492Y0098356D01*
X0252490Y0097357D02*
X0236628Y0097357D01*
X0236628Y0096359D02*
X0257228Y0096359D01*
X0257228Y0097357D02*
X0256367Y0097357D01*
X0257228Y0095360D02*
X0236628Y0095360D01*
X0236628Y0094362D02*
X0257228Y0094362D01*
X0257228Y0093363D02*
X0236628Y0093363D01*
X0236628Y0092365D02*
X0257228Y0092365D01*
X0257228Y0091366D02*
X0236628Y0091366D01*
X0236628Y0090368D02*
X0257228Y0090368D01*
X0257228Y0089369D02*
X0236628Y0089369D01*
X0236628Y0088370D02*
X0257228Y0088370D01*
X0257228Y0087372D02*
X0236628Y0087372D01*
X0236628Y0086373D02*
X0257228Y0086373D01*
X0257228Y0085375D02*
X0256635Y0085375D01*
X0252222Y0085375D02*
X0236635Y0085375D01*
X0237633Y0084376D02*
X0251224Y0084376D01*
X0250225Y0083378D02*
X0238632Y0083378D01*
X0238728Y0082379D02*
X0250128Y0082379D01*
X0250128Y0081381D02*
X0238728Y0081381D01*
X0238728Y0080382D02*
X0250128Y0080382D01*
X0250463Y0079384D02*
X0239656Y0079384D01*
X0240654Y0078385D02*
X0251462Y0078385D01*
X0252460Y0077387D02*
X0241628Y0077387D01*
X0241628Y0076388D02*
X0266429Y0076388D01*
X0267228Y0075390D02*
X0241628Y0075390D01*
X0241628Y0074391D02*
X0267228Y0074391D01*
X0267228Y0073393D02*
X0241628Y0073393D01*
X0241628Y0072394D02*
X0267228Y0072394D01*
X0267228Y0071396D02*
X0241628Y0071396D01*
X0241628Y0070397D02*
X0247245Y0070397D01*
X0247647Y0070800D02*
X0245128Y0068281D01*
X0245128Y0064719D01*
X0247647Y0062200D01*
X0251210Y0062200D01*
X0253728Y0064719D01*
X0253728Y0068281D01*
X0251210Y0070800D01*
X0247647Y0070800D01*
X0246246Y0069399D02*
X0241628Y0069399D01*
X0241628Y0068400D02*
X0245248Y0068400D01*
X0245128Y0067402D02*
X0241628Y0067402D01*
X0241628Y0066403D02*
X0245128Y0066403D01*
X0245128Y0065405D02*
X0241628Y0065405D01*
X0241628Y0064406D02*
X0245441Y0064406D01*
X0246440Y0063408D02*
X0241628Y0063408D01*
X0241628Y0062409D02*
X0247438Y0062409D01*
X0247647Y0060800D02*
X0245128Y0058281D01*
X0245128Y0054719D01*
X0247228Y0052619D01*
X0247228Y0048700D01*
X0226628Y0048700D01*
X0226628Y0147411D01*
X0225340Y0148700D01*
X0143517Y0148700D01*
X0142228Y0147411D01*
X0142228Y0140800D01*
X0140973Y0140800D01*
X0139393Y0140145D01*
X0138183Y0138936D01*
X0137528Y0137355D01*
X0137528Y0135645D01*
X0138183Y0134064D01*
X0139393Y0132855D01*
X0140973Y0132200D01*
X0147884Y0132200D01*
X0149464Y0132855D01*
X0150674Y0134064D01*
X0151328Y0135645D01*
X0151328Y0137355D01*
X0150674Y0138936D01*
X0149464Y0140145D01*
X0147884Y0140800D01*
X0146628Y0140800D01*
X0146628Y0144300D01*
X0222228Y0144300D01*
X0222228Y0045589D01*
X0223517Y0044300D01*
X0250340Y0044300D01*
X0251628Y0045589D01*
X0251628Y0052619D01*
X0253728Y0054719D01*
X0253728Y0058281D01*
X0251210Y0060800D01*
X0247647Y0060800D01*
X0247260Y0060412D02*
X0241628Y0060412D01*
X0241628Y0061411D02*
X0267228Y0061411D01*
X0267228Y0062409D02*
X0251419Y0062409D01*
X0252417Y0063408D02*
X0267228Y0063408D01*
X0267228Y0064406D02*
X0253416Y0064406D01*
X0253728Y0065405D02*
X0267228Y0065405D01*
X0267228Y0066403D02*
X0253728Y0066403D01*
X0253728Y0067402D02*
X0267228Y0067402D01*
X0267228Y0068400D02*
X0253609Y0068400D01*
X0252611Y0069399D02*
X0267228Y0069399D01*
X0267228Y0070397D02*
X0251612Y0070397D01*
X0256396Y0077387D02*
X0262460Y0077387D01*
X0261462Y0078385D02*
X0257395Y0078385D01*
X0260424Y0079384D02*
X0260463Y0079384D01*
X0259428Y0081500D02*
X0259428Y0136500D01*
X0244428Y0136500D01*
X0240128Y0136299D02*
X0226628Y0136299D01*
X0226628Y0135301D02*
X0240128Y0135301D01*
X0240545Y0134302D02*
X0226628Y0134302D01*
X0226628Y0133303D02*
X0241544Y0133303D01*
X0242542Y0132305D02*
X0226628Y0132305D01*
X0226628Y0131306D02*
X0257228Y0131306D01*
X0257228Y0132305D02*
X0246315Y0132305D01*
X0247313Y0133303D02*
X0257228Y0133303D01*
X0261628Y0137298D02*
X0270128Y0137298D01*
X0270143Y0138296D02*
X0260744Y0138296D01*
X0271142Y0139295D02*
X0247715Y0139295D01*
X0246716Y0140293D02*
X0272140Y0140293D01*
X0271842Y0143289D02*
X0247015Y0143289D01*
X0246127Y0142400D02*
X0248528Y0144802D01*
X0248528Y0146200D01*
X0244729Y0146200D01*
X0244729Y0146800D01*
X0248528Y0146800D01*
X0248528Y0148198D01*
X0246127Y0150600D01*
X0244728Y0150600D01*
X0244728Y0146800D01*
X0244128Y0146800D01*
X0244128Y0146200D01*
X0240328Y0146200D01*
X0240328Y0144802D01*
X0242730Y0142400D01*
X0244128Y0142400D01*
X0244128Y0146200D01*
X0244728Y0146200D01*
X0244728Y0142400D01*
X0246127Y0142400D01*
X0244728Y0143289D02*
X0244128Y0143289D01*
X0244128Y0144287D02*
X0244728Y0144287D01*
X0244728Y0145286D02*
X0244128Y0145286D01*
X0244128Y0146284D02*
X0226628Y0146284D01*
X0226628Y0145286D02*
X0240328Y0145286D01*
X0240843Y0144287D02*
X0226628Y0144287D01*
X0226628Y0143289D02*
X0241842Y0143289D01*
X0242140Y0140293D02*
X0226628Y0140293D01*
X0226628Y0139295D02*
X0241142Y0139295D01*
X0240143Y0138296D02*
X0226628Y0138296D01*
X0226628Y0137298D02*
X0240128Y0137298D01*
X0248014Y0144287D02*
X0270843Y0144287D01*
X0270328Y0145286D02*
X0248528Y0145286D01*
X0248528Y0147283D02*
X0270328Y0147283D01*
X0270411Y0148281D02*
X0248446Y0148281D01*
X0247447Y0149280D02*
X0271410Y0149280D01*
X0272408Y0150278D02*
X0246449Y0150278D01*
X0244728Y0150278D02*
X0244128Y0150278D01*
X0244128Y0150600D02*
X0242730Y0150600D01*
X0240328Y0148198D01*
X0240328Y0146800D01*
X0244128Y0146800D01*
X0244128Y0150600D01*
X0244128Y0149280D02*
X0244728Y0149280D01*
X0244728Y0148281D02*
X0244128Y0148281D01*
X0244128Y0147283D02*
X0244728Y0147283D01*
X0244729Y0146284D02*
X0274128Y0146284D01*
X0274729Y0146284D02*
X0304128Y0146284D01*
X0304128Y0147283D02*
X0304728Y0147283D01*
X0304728Y0148281D02*
X0304128Y0148281D01*
X0304128Y0149280D02*
X0304728Y0149280D01*
X0304728Y0150278D02*
X0304128Y0150278D01*
X0302408Y0150278D02*
X0276449Y0150278D01*
X0277447Y0149280D02*
X0301410Y0149280D01*
X0300411Y0148281D02*
X0278446Y0148281D01*
X0278528Y0147283D02*
X0300328Y0147283D01*
X0300328Y0145286D02*
X0278528Y0145286D01*
X0278014Y0144287D02*
X0300843Y0144287D01*
X0308528Y0147283D02*
X0327228Y0147283D01*
X0327228Y0148281D02*
X0308446Y0148281D01*
X0307447Y0149280D02*
X0327228Y0149280D01*
X0327228Y0150278D02*
X0306449Y0150278D01*
X0320744Y0138296D02*
X0327228Y0138296D01*
X0327228Y0137298D02*
X0321628Y0137298D01*
X0321628Y0136299D02*
X0327228Y0136299D01*
X0327228Y0135301D02*
X0321628Y0135301D01*
X0321628Y0134302D02*
X0327228Y0134302D01*
X0327228Y0133303D02*
X0321628Y0133303D01*
X0321628Y0132305D02*
X0327228Y0132305D01*
X0327228Y0131306D02*
X0321628Y0131306D01*
X0321628Y0130308D02*
X0327228Y0130308D01*
X0327228Y0129309D02*
X0321628Y0129309D01*
X0321628Y0128311D02*
X0327228Y0128311D01*
X0327228Y0127312D02*
X0321628Y0127312D01*
X0321628Y0126314D02*
X0327228Y0126314D01*
X0327228Y0125315D02*
X0321628Y0125315D01*
X0321628Y0124317D02*
X0327228Y0124317D01*
X0327228Y0123318D02*
X0321628Y0123318D01*
X0321628Y0122320D02*
X0327228Y0122320D01*
X0327228Y0121321D02*
X0321628Y0121321D01*
X0321628Y0120323D02*
X0327228Y0120323D01*
X0327228Y0119324D02*
X0321628Y0119324D01*
X0321628Y0118326D02*
X0327228Y0118326D01*
X0327228Y0117327D02*
X0321628Y0117327D01*
X0321628Y0116329D02*
X0327228Y0116329D01*
X0327228Y0115330D02*
X0321628Y0115330D01*
X0321628Y0114332D02*
X0327228Y0114332D01*
X0327228Y0113333D02*
X0321628Y0113333D01*
X0321628Y0112335D02*
X0327228Y0112335D01*
X0327228Y0111336D02*
X0321628Y0111336D01*
X0321628Y0110338D02*
X0327228Y0110338D01*
X0327228Y0109339D02*
X0321628Y0109339D01*
X0321628Y0108341D02*
X0327228Y0108341D01*
X0327228Y0107342D02*
X0321628Y0107342D01*
X0321628Y0106344D02*
X0327228Y0106344D01*
X0327228Y0105345D02*
X0321628Y0105345D01*
X0321628Y0104347D02*
X0327228Y0104347D01*
X0327228Y0103348D02*
X0321628Y0103348D01*
X0321628Y0102350D02*
X0327228Y0102350D01*
X0327228Y0101351D02*
X0321628Y0101351D01*
X0321628Y0100353D02*
X0327228Y0100353D01*
X0327228Y0099354D02*
X0321628Y0099354D01*
X0321628Y0098356D02*
X0327228Y0098356D01*
X0327228Y0097357D02*
X0321628Y0097357D01*
X0321628Y0096359D02*
X0327228Y0096359D01*
X0327228Y0095360D02*
X0321628Y0095360D01*
X0321628Y0094362D02*
X0327228Y0094362D01*
X0327228Y0093363D02*
X0321628Y0093363D01*
X0321628Y0092365D02*
X0327228Y0092365D01*
X0327228Y0091366D02*
X0321628Y0091366D01*
X0321628Y0090368D02*
X0327228Y0090368D01*
X0327228Y0089369D02*
X0321628Y0089369D01*
X0321628Y0088370D02*
X0327228Y0088370D01*
X0327228Y0087372D02*
X0321628Y0087372D01*
X0321628Y0086373D02*
X0327228Y0086373D01*
X0327228Y0085375D02*
X0321628Y0085375D01*
X0321628Y0084376D02*
X0327228Y0084376D01*
X0327228Y0083378D02*
X0321628Y0083378D01*
X0321628Y0082379D02*
X0327228Y0082379D01*
X0327228Y0081381D02*
X0321628Y0081381D01*
X0321422Y0080382D02*
X0327228Y0080382D01*
X0327228Y0079384D02*
X0320424Y0079384D01*
X0310463Y0079384D02*
X0299656Y0079384D01*
X0298728Y0080382D02*
X0310128Y0080382D01*
X0299428Y0076500D02*
X0299428Y0056500D01*
X0296425Y0053423D02*
X0282432Y0053423D01*
X0281628Y0052424D02*
X0297423Y0052424D01*
X0295426Y0054421D02*
X0283431Y0054421D01*
X0283728Y0055420D02*
X0295128Y0055420D01*
X0295128Y0056418D02*
X0283728Y0056418D01*
X0283728Y0057417D02*
X0295128Y0057417D01*
X0295263Y0058415D02*
X0283594Y0058415D01*
X0282596Y0059414D02*
X0296261Y0059414D01*
X0297228Y0060412D02*
X0281597Y0060412D01*
X0276261Y0059414D02*
X0272596Y0059414D01*
X0273594Y0058415D02*
X0275263Y0058415D01*
X0275128Y0057417D02*
X0273728Y0057417D01*
X0273728Y0056418D02*
X0275128Y0056418D01*
X0275128Y0055420D02*
X0273728Y0055420D01*
X0273431Y0054421D02*
X0275426Y0054421D01*
X0276425Y0053423D02*
X0272432Y0053423D01*
X0271434Y0052424D02*
X0277228Y0052424D01*
X0277228Y0051426D02*
X0251628Y0051426D01*
X0251628Y0052424D02*
X0267423Y0052424D01*
X0266425Y0053423D02*
X0252432Y0053423D01*
X0253431Y0054421D02*
X0265426Y0054421D01*
X0265128Y0055420D02*
X0253728Y0055420D01*
X0253728Y0056418D02*
X0265128Y0056418D01*
X0265128Y0057417D02*
X0253728Y0057417D01*
X0253594Y0058415D02*
X0265263Y0058415D01*
X0266261Y0059414D02*
X0252596Y0059414D01*
X0251597Y0060412D02*
X0267228Y0060412D01*
X0269428Y0056500D02*
X0269428Y0076500D01*
X0264428Y0081500D01*
X0264428Y0101500D01*
X0267663Y0104347D02*
X0281194Y0104347D01*
X0282193Y0105345D02*
X0266664Y0105345D01*
X0268661Y0103348D02*
X0280196Y0103348D01*
X0280128Y0102350D02*
X0268728Y0102350D01*
X0276344Y0112335D02*
X0282228Y0112335D01*
X0282228Y0113333D02*
X0277343Y0113333D01*
X0291628Y0121321D02*
X0317228Y0121321D01*
X0317228Y0120323D02*
X0306687Y0120323D01*
X0307685Y0119324D02*
X0317228Y0119324D01*
X0317228Y0118326D02*
X0315714Y0118326D01*
X0316628Y0117327D02*
X0317228Y0117327D01*
X0317228Y0116329D02*
X0316628Y0116329D01*
X0316628Y0115330D02*
X0317228Y0115330D01*
X0317228Y0114332D02*
X0316628Y0114332D01*
X0316628Y0113333D02*
X0317228Y0113333D01*
X0317228Y0112335D02*
X0316628Y0112335D01*
X0316628Y0111336D02*
X0317228Y0111336D01*
X0317228Y0110338D02*
X0316628Y0110338D01*
X0316628Y0109339D02*
X0317228Y0109339D01*
X0317228Y0108341D02*
X0316628Y0108341D01*
X0316628Y0107342D02*
X0317228Y0107342D01*
X0317228Y0106344D02*
X0316628Y0106344D01*
X0316664Y0105345D02*
X0317228Y0105345D01*
X0314428Y0101500D02*
X0314428Y0116500D01*
X0304428Y0116500D01*
X0307343Y0113333D02*
X0312228Y0113333D01*
X0312228Y0112335D02*
X0306344Y0112335D01*
X0304728Y0123318D02*
X0304128Y0123318D01*
X0304128Y0124317D02*
X0304728Y0124317D01*
X0304728Y0125315D02*
X0304128Y0125315D01*
X0304128Y0127312D02*
X0304728Y0127312D01*
X0300328Y0125315D02*
X0291628Y0125315D01*
X0291628Y0124317D02*
X0300813Y0124317D01*
X0306315Y0132305D02*
X0317228Y0132305D01*
X0317228Y0133303D02*
X0307313Y0133303D01*
X0327228Y0141292D02*
X0226628Y0141292D01*
X0226628Y0142290D02*
X0327228Y0142290D01*
X0331628Y0142290D02*
X0358629Y0142290D01*
X0358629Y0141292D02*
X0331628Y0141292D01*
X0331628Y0140293D02*
X0337423Y0140293D01*
X0337730Y0140600D02*
X0335328Y0138198D01*
X0335328Y0136800D01*
X0339128Y0136800D01*
X0339128Y0136200D01*
X0335328Y0136200D01*
X0335328Y0134802D01*
X0337730Y0132400D01*
X0339128Y0132400D01*
X0339128Y0136200D01*
X0339728Y0136200D01*
X0339728Y0132400D01*
X0341127Y0132400D01*
X0343528Y0134802D01*
X0343528Y0136200D01*
X0339729Y0136200D01*
X0339729Y0136800D01*
X0343528Y0136800D01*
X0343528Y0138198D01*
X0341127Y0140600D01*
X0339728Y0140600D01*
X0339728Y0136800D01*
X0339128Y0136800D01*
X0339128Y0140600D01*
X0337730Y0140600D01*
X0339128Y0140293D02*
X0339728Y0140293D01*
X0339728Y0139295D02*
X0339128Y0139295D01*
X0339128Y0138296D02*
X0339728Y0138296D01*
X0339728Y0137298D02*
X0339128Y0137298D01*
X0339128Y0136299D02*
X0331628Y0136299D01*
X0331628Y0135301D02*
X0335328Y0135301D01*
X0335828Y0134302D02*
X0331628Y0134302D01*
X0331628Y0133303D02*
X0336827Y0133303D01*
X0339128Y0133303D02*
X0339728Y0133303D01*
X0339728Y0134302D02*
X0339128Y0134302D01*
X0339128Y0135301D02*
X0339728Y0135301D01*
X0339729Y0136299D02*
X0358629Y0136299D01*
X0358629Y0135301D02*
X0343528Y0135301D01*
X0343029Y0134302D02*
X0358629Y0134302D01*
X0358629Y0133303D02*
X0342030Y0133303D01*
X0343528Y0137298D02*
X0358629Y0137298D01*
X0358629Y0138296D02*
X0343431Y0138296D01*
X0342432Y0139295D02*
X0358629Y0139295D01*
X0358629Y0140293D02*
X0341434Y0140293D01*
X0336425Y0139295D02*
X0331628Y0139295D01*
X0331628Y0138296D02*
X0335426Y0138296D01*
X0335328Y0137298D02*
X0331628Y0137298D01*
X0331628Y0132305D02*
X0358629Y0132305D01*
X0358629Y0131306D02*
X0331628Y0131306D01*
X0331628Y0130308D02*
X0358629Y0130308D01*
X0358629Y0129309D02*
X0331628Y0129309D01*
X0331628Y0128311D02*
X0358629Y0128311D01*
X0358629Y0127312D02*
X0331628Y0127312D01*
X0331628Y0126314D02*
X0358629Y0126314D01*
X0358629Y0125315D02*
X0331628Y0125315D01*
X0331628Y0124317D02*
X0358629Y0124317D01*
X0358629Y0123318D02*
X0331628Y0123318D01*
X0331628Y0122320D02*
X0358629Y0122320D01*
X0358629Y0121321D02*
X0331628Y0121321D01*
X0331628Y0120323D02*
X0358629Y0120323D01*
X0358629Y0119324D02*
X0331628Y0119324D01*
X0331628Y0118326D02*
X0358629Y0118326D01*
X0358629Y0117327D02*
X0331628Y0117327D01*
X0331628Y0116329D02*
X0358629Y0116329D01*
X0358629Y0115330D02*
X0331628Y0115330D01*
X0331628Y0114332D02*
X0358629Y0114332D01*
X0358629Y0113333D02*
X0331628Y0113333D01*
X0331628Y0112335D02*
X0358629Y0112335D01*
X0358629Y0111336D02*
X0331628Y0111336D01*
X0331628Y0110338D02*
X0358629Y0110338D01*
X0358629Y0109339D02*
X0331628Y0109339D01*
X0331628Y0108341D02*
X0358629Y0108341D01*
X0358629Y0107342D02*
X0331628Y0107342D01*
X0331628Y0106344D02*
X0358629Y0106344D01*
X0358629Y0105345D02*
X0331628Y0105345D01*
X0331628Y0104347D02*
X0358629Y0104347D01*
X0358629Y0103348D02*
X0331628Y0103348D01*
X0331628Y0102350D02*
X0358629Y0102350D01*
X0358629Y0101351D02*
X0331628Y0101351D01*
X0331628Y0100353D02*
X0358629Y0100353D01*
X0358629Y0099354D02*
X0331628Y0099354D01*
X0331628Y0098356D02*
X0358629Y0098356D01*
X0358629Y0097357D02*
X0331628Y0097357D01*
X0331628Y0096359D02*
X0358629Y0096359D01*
X0358629Y0095360D02*
X0331628Y0095360D01*
X0331628Y0094362D02*
X0358629Y0094362D01*
X0358629Y0093363D02*
X0331628Y0093363D01*
X0331628Y0092365D02*
X0358629Y0092365D01*
X0358629Y0091366D02*
X0331628Y0091366D01*
X0331628Y0090368D02*
X0358629Y0090368D01*
X0358629Y0089369D02*
X0331628Y0089369D01*
X0331628Y0088370D02*
X0358629Y0088370D01*
X0358629Y0087372D02*
X0331628Y0087372D01*
X0331628Y0086373D02*
X0358629Y0086373D01*
X0358629Y0085375D02*
X0331628Y0085375D01*
X0331628Y0084376D02*
X0358629Y0084376D01*
X0358629Y0083378D02*
X0331628Y0083378D01*
X0331628Y0082379D02*
X0358629Y0082379D01*
X0358629Y0081381D02*
X0331628Y0081381D01*
X0331628Y0080382D02*
X0358629Y0080382D01*
X0358629Y0079384D02*
X0331628Y0079384D01*
X0331628Y0078385D02*
X0358629Y0078385D01*
X0358629Y0077387D02*
X0331628Y0077387D01*
X0331628Y0076388D02*
X0358629Y0076388D01*
X0358629Y0075390D02*
X0331430Y0075390D01*
X0330431Y0074391D02*
X0358629Y0074391D01*
X0358629Y0073393D02*
X0301628Y0073393D01*
X0301628Y0072394D02*
X0358629Y0072394D01*
X0358629Y0071396D02*
X0301628Y0071396D01*
X0301628Y0070397D02*
X0307245Y0070397D01*
X0307647Y0070800D02*
X0305128Y0068281D01*
X0305128Y0064719D01*
X0307647Y0062200D01*
X0311210Y0062200D01*
X0313728Y0064719D01*
X0313728Y0068281D01*
X0311210Y0070800D01*
X0307647Y0070800D01*
X0306246Y0069399D02*
X0301628Y0069399D01*
X0301628Y0068400D02*
X0305248Y0068400D01*
X0305128Y0067402D02*
X0301628Y0067402D01*
X0301628Y0066403D02*
X0305128Y0066403D01*
X0305128Y0065405D02*
X0301628Y0065405D01*
X0301628Y0064406D02*
X0305441Y0064406D01*
X0306440Y0063408D02*
X0301628Y0063408D01*
X0301628Y0062409D02*
X0307438Y0062409D01*
X0307647Y0060800D02*
X0305128Y0058281D01*
X0305128Y0054719D01*
X0307228Y0052619D01*
X0307228Y0038700D01*
X0216628Y0038700D01*
X0216628Y0077411D01*
X0215340Y0078700D01*
X0180771Y0078700D01*
X0180674Y0078936D01*
X0179464Y0080145D01*
X0177884Y0080800D01*
X0170973Y0080800D01*
X0169393Y0080145D01*
X0168183Y0078936D01*
X0167528Y0077355D01*
X0167528Y0075645D01*
X0168183Y0074064D01*
X0169393Y0072855D01*
X0170973Y0072200D01*
X0177884Y0072200D01*
X0179464Y0072855D01*
X0180674Y0074064D01*
X0180771Y0074300D01*
X0212228Y0074300D01*
X0212228Y0035589D01*
X0213517Y0034300D01*
X0310340Y0034300D01*
X0311628Y0035589D01*
X0311628Y0052619D01*
X0313728Y0054719D01*
X0313728Y0058281D01*
X0311210Y0060800D01*
X0307647Y0060800D01*
X0307260Y0060412D02*
X0301628Y0060412D01*
X0301628Y0061411D02*
X0358629Y0061411D01*
X0358629Y0062409D02*
X0311419Y0062409D01*
X0312417Y0063408D02*
X0358629Y0063408D01*
X0358629Y0064406D02*
X0313416Y0064406D01*
X0313728Y0065405D02*
X0358629Y0065405D01*
X0358629Y0066403D02*
X0313728Y0066403D01*
X0313728Y0067402D02*
X0358629Y0067402D01*
X0358629Y0068400D02*
X0313609Y0068400D01*
X0312611Y0069399D02*
X0358629Y0069399D01*
X0358629Y0070397D02*
X0311612Y0070397D01*
X0311597Y0060412D02*
X0358629Y0060412D01*
X0358629Y0059414D02*
X0312596Y0059414D01*
X0313594Y0058415D02*
X0358629Y0058415D01*
X0358629Y0057417D02*
X0313728Y0057417D01*
X0313728Y0056418D02*
X0358629Y0056418D01*
X0358629Y0055420D02*
X0313728Y0055420D01*
X0313431Y0054421D02*
X0358629Y0054421D01*
X0358629Y0053423D02*
X0312432Y0053423D01*
X0311628Y0052424D02*
X0358629Y0052424D01*
X0358629Y0051426D02*
X0311628Y0051426D01*
X0311628Y0050427D02*
X0358629Y0050427D01*
X0358629Y0049429D02*
X0311628Y0049429D01*
X0311628Y0048430D02*
X0358629Y0048430D01*
X0358629Y0047432D02*
X0311628Y0047432D01*
X0311628Y0046433D02*
X0358629Y0046433D01*
X0358629Y0045434D02*
X0311628Y0045434D01*
X0311628Y0044436D02*
X0358629Y0044436D01*
X0358629Y0043437D02*
X0311628Y0043437D01*
X0311628Y0042439D02*
X0358629Y0042439D01*
X0358629Y0041440D02*
X0311628Y0041440D01*
X0311628Y0040442D02*
X0358629Y0040442D01*
X0358629Y0039443D02*
X0311628Y0039443D01*
X0311628Y0038445D02*
X0358629Y0038445D01*
X0358629Y0037446D02*
X0311628Y0037446D01*
X0311628Y0036448D02*
X0358629Y0036448D01*
X0358629Y0035449D02*
X0311489Y0035449D01*
X0310491Y0034451D02*
X0358629Y0034451D01*
X0358629Y0033452D02*
X0152462Y0033452D01*
X0151463Y0032454D02*
X0358629Y0032454D01*
X0358629Y0031455D02*
X0082737Y0031455D01*
X0082513Y0031147D02*
X0083016Y0031839D01*
X0083404Y0032602D01*
X0083669Y0033416D01*
X0083794Y0034205D01*
X0074913Y0034205D01*
X0074913Y0035173D01*
X0083794Y0035173D01*
X0083669Y0035962D01*
X0083404Y0036776D01*
X0083016Y0037539D01*
X0082513Y0038231D01*
X0081907Y0038836D01*
X0081215Y0039339D01*
X0080453Y0039728D01*
X0079639Y0039992D01*
X0078793Y0040126D01*
X0074913Y0040126D01*
X0074913Y0035173D01*
X0073944Y0035173D01*
X0073944Y0034205D01*
X0065063Y0034205D01*
X0065188Y0033416D01*
X0065453Y0032602D01*
X0065841Y0031839D01*
X0066344Y0031147D01*
X0066949Y0030542D01*
X0067642Y0030039D01*
X0068404Y0029650D01*
X0069218Y0029386D01*
X0070064Y0029252D01*
X0073944Y0029252D01*
X0073944Y0034205D01*
X0074913Y0034205D01*
X0074913Y0029252D01*
X0078793Y0029252D01*
X0079639Y0029386D01*
X0080453Y0029650D01*
X0081215Y0030039D01*
X0081907Y0030542D01*
X0082513Y0031147D01*
X0081790Y0030457D02*
X0358629Y0030457D01*
X0358629Y0029458D02*
X0079862Y0029458D01*
X0083329Y0032454D02*
X0117676Y0032454D01*
X0117730Y0032400D02*
X0119128Y0032400D01*
X0119128Y0036200D01*
X0115328Y0036200D01*
X0115328Y0034802D01*
X0117730Y0032400D01*
X0119128Y0032454D02*
X0119728Y0032454D01*
X0119728Y0032400D02*
X0121127Y0032400D01*
X0123528Y0034802D01*
X0123528Y0036200D01*
X0119729Y0036200D01*
X0119729Y0036800D01*
X0123528Y0036800D01*
X0123528Y0038198D01*
X0121127Y0040600D01*
X0119728Y0040600D01*
X0119728Y0036800D01*
X0119128Y0036800D01*
X0119128Y0036200D01*
X0119728Y0036200D01*
X0119728Y0032400D01*
X0119728Y0033452D02*
X0119128Y0033452D01*
X0119128Y0034451D02*
X0119728Y0034451D01*
X0119728Y0035449D02*
X0119128Y0035449D01*
X0119128Y0036448D02*
X0083511Y0036448D01*
X0083750Y0035449D02*
X0115328Y0035449D01*
X0115679Y0034451D02*
X0074913Y0034451D01*
X0073944Y0034451D02*
X0033928Y0034451D01*
X0033928Y0035449D02*
X0065107Y0035449D01*
X0065063Y0035173D02*
X0073944Y0035173D01*
X0073944Y0040126D01*
X0070064Y0040126D01*
X0069218Y0039992D01*
X0068404Y0039728D01*
X0067642Y0039339D01*
X0066949Y0038836D01*
X0066344Y0038231D01*
X0065841Y0037539D01*
X0065453Y0036776D01*
X0065188Y0035962D01*
X0065063Y0035173D01*
X0065346Y0036448D02*
X0033928Y0036448D01*
X0033928Y0037446D02*
X0065794Y0037446D01*
X0066558Y0038445D02*
X0033928Y0038445D01*
X0033928Y0039443D02*
X0067847Y0039443D01*
X0073944Y0039443D02*
X0074913Y0039443D01*
X0074913Y0038445D02*
X0073944Y0038445D01*
X0073944Y0037446D02*
X0074913Y0037446D01*
X0074913Y0036448D02*
X0073944Y0036448D01*
X0073944Y0035449D02*
X0074913Y0035449D01*
X0074913Y0033452D02*
X0073944Y0033452D01*
X0073944Y0032454D02*
X0074913Y0032454D01*
X0074913Y0031455D02*
X0073944Y0031455D01*
X0073944Y0030457D02*
X0074913Y0030457D01*
X0074913Y0029458D02*
X0073944Y0029458D01*
X0068995Y0029458D02*
X0033928Y0029458D01*
X0033928Y0028460D02*
X0358629Y0028460D01*
X0358629Y0027461D02*
X0033928Y0027461D01*
X0033928Y0026463D02*
X0358629Y0026463D01*
X0358629Y0025464D02*
X0033928Y0025464D01*
X0033928Y0024466D02*
X0358629Y0024466D01*
X0358629Y0023467D02*
X0033928Y0023467D01*
X0033928Y0022469D02*
X0358629Y0022469D01*
X0358629Y0021470D02*
X0033928Y0021470D01*
X0033928Y0020472D02*
X0358629Y0020472D01*
X0358629Y0019473D02*
X0033928Y0019473D01*
X0033928Y0018475D02*
X0358629Y0018475D01*
X0358629Y0017476D02*
X0033928Y0017476D01*
X0033928Y0016478D02*
X0358629Y0016478D01*
X0358629Y0015479D02*
X0033928Y0015479D01*
X0033928Y0014481D02*
X0358629Y0014481D01*
X0358629Y0013482D02*
X0033928Y0013482D01*
X0033928Y0012484D02*
X0358629Y0012484D01*
X0358629Y0011485D02*
X0033928Y0011485D01*
X0033928Y0010487D02*
X0358629Y0010487D01*
X0358629Y0009488D02*
X0033928Y0009488D01*
X0033928Y0008490D02*
X0358629Y0008490D01*
X0358629Y0007491D02*
X0033928Y0007491D01*
X0033928Y0006493D02*
X0358629Y0006493D01*
X0358629Y0006000D02*
X0358629Y0231961D01*
X0033928Y0231961D01*
X0033928Y0006000D01*
X0358629Y0006000D01*
X0309428Y0036500D02*
X0214428Y0036500D01*
X0214428Y0076500D01*
X0174428Y0076500D01*
X0170504Y0072394D02*
X0156628Y0072394D01*
X0156628Y0071396D02*
X0212228Y0071396D01*
X0212228Y0072394D02*
X0178353Y0072394D01*
X0180002Y0073393D02*
X0212228Y0073393D01*
X0212228Y0070397D02*
X0156628Y0070397D01*
X0156628Y0069399D02*
X0212228Y0069399D01*
X0212228Y0068400D02*
X0156628Y0068400D01*
X0156628Y0067402D02*
X0212228Y0067402D01*
X0212228Y0066403D02*
X0156628Y0066403D01*
X0156628Y0065405D02*
X0212228Y0065405D01*
X0212228Y0064406D02*
X0156628Y0064406D01*
X0156628Y0063408D02*
X0212228Y0063408D01*
X0212228Y0062409D02*
X0156628Y0062409D01*
X0156628Y0061411D02*
X0212228Y0061411D01*
X0212228Y0060412D02*
X0156628Y0060412D01*
X0156628Y0059414D02*
X0212228Y0059414D01*
X0212228Y0058415D02*
X0156628Y0058415D01*
X0156628Y0057417D02*
X0212228Y0057417D01*
X0212228Y0056418D02*
X0156628Y0056418D01*
X0156628Y0055589D02*
X0156628Y0097411D01*
X0155340Y0098700D01*
X0150771Y0098700D01*
X0150674Y0098936D01*
X0149464Y0100145D01*
X0147884Y0100800D01*
X0140973Y0100800D01*
X0139393Y0100145D01*
X0138183Y0098936D01*
X0137528Y0097355D01*
X0137528Y0095645D01*
X0138183Y0094064D01*
X0139393Y0092855D01*
X0140973Y0092200D01*
X0147884Y0092200D01*
X0149464Y0092855D01*
X0150674Y0094064D01*
X0150771Y0094300D01*
X0152228Y0094300D01*
X0152228Y0059781D01*
X0151210Y0060800D01*
X0147647Y0060800D01*
X0145128Y0058281D01*
X0145128Y0054719D01*
X0147228Y0052619D01*
X0147228Y0040381D01*
X0145128Y0038281D01*
X0145128Y0034719D01*
X0147647Y0032200D01*
X0151210Y0032200D01*
X0153728Y0034719D01*
X0153728Y0038281D01*
X0151628Y0040381D01*
X0151628Y0052619D01*
X0153310Y0054300D01*
X0155340Y0054300D01*
X0156628Y0055589D01*
X0156459Y0055420D02*
X0212228Y0055420D01*
X0212228Y0054421D02*
X0155461Y0054421D01*
X0154428Y0056500D02*
X0154428Y0096500D01*
X0144428Y0096500D01*
X0139893Y0100353D02*
X0131657Y0100353D01*
X0131210Y0100800D02*
X0127647Y0100800D01*
X0125547Y0098700D01*
X0113310Y0098700D01*
X0111210Y0100800D01*
X0107647Y0100800D01*
X0105128Y0098281D01*
X0105128Y0094719D01*
X0107647Y0092200D01*
X0111210Y0092200D01*
X0113310Y0094300D01*
X0125547Y0094300D01*
X0127228Y0092619D01*
X0127228Y0085589D01*
X0128517Y0084300D01*
X0138085Y0084300D01*
X0138183Y0084064D01*
X0139393Y0082855D01*
X0140973Y0082200D01*
X0147884Y0082200D01*
X0149464Y0082855D01*
X0150674Y0084064D01*
X0151328Y0085645D01*
X0151328Y0087355D01*
X0150674Y0088936D01*
X0149464Y0090145D01*
X0147884Y0090800D01*
X0140973Y0090800D01*
X0139393Y0090145D01*
X0138183Y0088936D01*
X0138085Y0088700D01*
X0131628Y0088700D01*
X0131628Y0092619D01*
X0133728Y0094719D01*
X0133728Y0098281D01*
X0131210Y0100800D01*
X0131210Y0102200D02*
X0133728Y0104719D01*
X0133728Y0108281D01*
X0131628Y0110381D01*
X0131628Y0114300D01*
X0138085Y0114300D01*
X0138183Y0114064D01*
X0139393Y0112855D01*
X0140973Y0112200D01*
X0147884Y0112200D01*
X0149464Y0112855D01*
X0150674Y0114064D01*
X0151328Y0115645D01*
X0151328Y0117355D01*
X0150674Y0118936D01*
X0150310Y0119300D01*
X0157228Y0119300D01*
X0157228Y0103810D01*
X0156725Y0103306D01*
X0156239Y0102134D01*
X0156239Y0100866D01*
X0156725Y0099694D01*
X0157622Y0098797D01*
X0158794Y0098311D01*
X0160063Y0098311D01*
X0161235Y0098797D01*
X0162132Y0099694D01*
X0162228Y0099927D01*
X0162228Y0085589D01*
X0163517Y0084300D01*
X0168085Y0084300D01*
X0168183Y0084064D01*
X0169393Y0082855D01*
X0170973Y0082200D01*
X0177884Y0082200D01*
X0179464Y0082855D01*
X0180674Y0084064D01*
X0181328Y0085645D01*
X0181328Y0087355D01*
X0180674Y0088936D01*
X0180310Y0089300D01*
X0210340Y0089300D01*
X0211628Y0090589D01*
X0211628Y0092619D01*
X0213728Y0094719D01*
X0213728Y0098281D01*
X0211210Y0100800D01*
X0207647Y0100800D01*
X0205547Y0098700D01*
X0201628Y0098700D01*
X0201628Y0117411D01*
X0200340Y0118700D01*
X0193310Y0118700D01*
X0191210Y0120800D01*
X0187647Y0120800D01*
X0185444Y0118596D01*
X0185340Y0118700D01*
X0180771Y0118700D01*
X0180674Y0118936D01*
X0179464Y0120145D01*
X0177884Y0120800D01*
X0170973Y0120800D01*
X0169393Y0120145D01*
X0168183Y0118936D01*
X0167528Y0117355D01*
X0167528Y0115645D01*
X0168183Y0114064D01*
X0169393Y0112855D01*
X0170973Y0112200D01*
X0177884Y0112200D01*
X0179464Y0112855D01*
X0180674Y0114064D01*
X0180771Y0114300D01*
X0182228Y0114300D01*
X0182228Y0103700D01*
X0180027Y0103700D01*
X0180156Y0103829D01*
X0180535Y0104351D01*
X0180828Y0104926D01*
X0181027Y0105540D01*
X0181128Y0106177D01*
X0181128Y0106200D01*
X0174729Y0106200D01*
X0174729Y0106800D01*
X0181128Y0106800D01*
X0181128Y0106823D01*
X0181027Y0107460D01*
X0180828Y0108074D01*
X0180535Y0108649D01*
X0180156Y0109171D01*
X0179699Y0109627D01*
X0179177Y0110007D01*
X0178602Y0110300D01*
X0177989Y0110499D01*
X0177351Y0110600D01*
X0174728Y0110600D01*
X0174728Y0106800D01*
X0174128Y0106800D01*
X0174128Y0106200D01*
X0167728Y0106200D01*
X0167728Y0106177D01*
X0167829Y0105540D01*
X0168029Y0104926D01*
X0168262Y0104469D01*
X0167622Y0104203D01*
X0166725Y0103306D01*
X0166628Y0103073D01*
X0166628Y0124300D01*
X0168085Y0124300D01*
X0168183Y0124064D01*
X0169393Y0122855D01*
X0170973Y0122200D01*
X0177884Y0122200D01*
X0179464Y0122855D01*
X0180674Y0124064D01*
X0181328Y0125645D01*
X0181328Y0127355D01*
X0180674Y0128936D01*
X0179464Y0130145D01*
X0177884Y0130800D01*
X0170973Y0130800D01*
X0169393Y0130145D01*
X0168183Y0128936D01*
X0168085Y0128700D01*
X0150771Y0128700D01*
X0150674Y0128936D01*
X0149464Y0130145D01*
X0147884Y0130800D01*
X0140973Y0130800D01*
X0139393Y0130145D01*
X0138183Y0128936D01*
X0138085Y0128700D01*
X0136628Y0128700D01*
X0136628Y0164300D01*
X0164728Y0164300D01*
X0164728Y0162565D01*
X0165444Y0160838D01*
X0166766Y0159516D01*
X0168494Y0158800D01*
X0170363Y0158800D01*
X0172091Y0159516D01*
X0173413Y0160838D01*
X0174128Y0162565D01*
X0174128Y0170435D01*
X0173413Y0172162D01*
X0172091Y0173484D01*
X0170363Y0174200D01*
X0168494Y0174200D01*
X0166766Y0173484D01*
X0165444Y0172162D01*
X0164728Y0170435D01*
X0164728Y0168700D01*
X0133517Y0168700D01*
X0132228Y0167411D01*
X0132228Y0129781D01*
X0131210Y0130800D01*
X0127647Y0130800D01*
X0125128Y0128281D01*
X0125128Y0124719D01*
X0127228Y0122619D01*
X0127228Y0120589D01*
X0128517Y0119300D01*
X0138547Y0119300D01*
X0138183Y0118936D01*
X0138085Y0118700D01*
X0128517Y0118700D01*
X0127228Y0117411D01*
X0127228Y0110381D01*
X0125547Y0108700D01*
X0113310Y0108700D01*
X0111210Y0110800D01*
X0107647Y0110800D01*
X0105128Y0108281D01*
X0105128Y0104719D01*
X0107647Y0102200D01*
X0111210Y0102200D01*
X0113310Y0104300D01*
X0125547Y0104300D01*
X0127647Y0102200D01*
X0131210Y0102200D01*
X0131359Y0102350D02*
X0140612Y0102350D01*
X0140973Y0102200D02*
X0147884Y0102200D01*
X0149464Y0102855D01*
X0150674Y0104064D01*
X0151328Y0105645D01*
X0151328Y0107355D01*
X0150674Y0108936D01*
X0149464Y0110145D01*
X0147884Y0110800D01*
X0140973Y0110800D01*
X0139393Y0110145D01*
X0138183Y0108936D01*
X0137528Y0107355D01*
X0137528Y0105645D01*
X0138183Y0104064D01*
X0139393Y0102855D01*
X0140973Y0102200D01*
X0138899Y0103348D02*
X0132358Y0103348D01*
X0133356Y0104347D02*
X0138066Y0104347D01*
X0137653Y0105345D02*
X0133728Y0105345D01*
X0133728Y0106344D02*
X0137528Y0106344D01*
X0137528Y0107342D02*
X0133728Y0107342D01*
X0133669Y0108341D02*
X0137937Y0108341D01*
X0138587Y0109339D02*
X0132670Y0109339D01*
X0131672Y0110338D02*
X0139857Y0110338D01*
X0140648Y0112335D02*
X0131628Y0112335D01*
X0131628Y0113333D02*
X0138914Y0113333D01*
X0144428Y0116500D02*
X0129428Y0116500D01*
X0129428Y0106500D01*
X0109428Y0106500D01*
X0105128Y0106344D02*
X0079428Y0106344D01*
X0079428Y0107342D02*
X0105128Y0107342D01*
X0105188Y0108341D02*
X0079428Y0108341D01*
X0079428Y0109339D02*
X0106187Y0109339D01*
X0107185Y0110338D02*
X0079428Y0110338D01*
X0079428Y0110795D02*
X0078667Y0112632D01*
X0077261Y0114039D01*
X0075423Y0114800D01*
X0073434Y0114800D01*
X0071596Y0114039D01*
X0070190Y0112632D01*
X0069428Y0110795D01*
X0069428Y0102205D01*
X0070190Y0100368D01*
X0071596Y0098961D01*
X0073434Y0098200D01*
X0075423Y0098200D01*
X0077261Y0098961D01*
X0078667Y0100368D01*
X0079428Y0102205D01*
X0079428Y0110795D01*
X0079204Y0111336D02*
X0127228Y0111336D01*
X0127228Y0112335D02*
X0078790Y0112335D01*
X0077966Y0113333D02*
X0127228Y0113333D01*
X0127228Y0114332D02*
X0076553Y0114332D01*
X0072304Y0114332D02*
X0066014Y0114332D01*
X0066271Y0114248D02*
X0065552Y0114482D01*
X0064928Y0114581D01*
X0064928Y0107000D01*
X0063928Y0107000D01*
X0063928Y0106000D01*
X0059628Y0106000D01*
X0059628Y0102822D01*
X0059747Y0102076D01*
X0059980Y0101357D01*
X0060323Y0100684D01*
X0060767Y0100073D01*
X0061301Y0099539D01*
X0061913Y0099095D01*
X0062586Y0098752D01*
X0063304Y0098518D01*
X0063928Y0098419D01*
X0063928Y0106000D01*
X0064928Y0106000D01*
X0064928Y0098419D01*
X0065552Y0098518D01*
X0066271Y0098752D01*
X0066944Y0099095D01*
X0067555Y0099539D01*
X0068090Y0100073D01*
X0068534Y0100684D01*
X0068877Y0101357D01*
X0069110Y0102076D01*
X0069228Y0102822D01*
X0069228Y0106000D01*
X0064929Y0106000D01*
X0064929Y0107000D01*
X0069228Y0107000D01*
X0069228Y0110178D01*
X0069110Y0110924D01*
X0068877Y0111643D01*
X0068534Y0112316D01*
X0068090Y0112927D01*
X0067555Y0113461D01*
X0066944Y0113905D01*
X0066271Y0114248D01*
X0064928Y0114332D02*
X0063928Y0114332D01*
X0063928Y0114581D02*
X0063304Y0114482D01*
X0062586Y0114248D01*
X0061913Y0113905D01*
X0061301Y0113461D01*
X0060767Y0112927D01*
X0060323Y0112316D01*
X0059980Y0111643D01*
X0059747Y0110924D01*
X0059628Y0110178D01*
X0059628Y0107000D01*
X0063928Y0107000D01*
X0063928Y0114581D01*
X0062843Y0114332D02*
X0056553Y0114332D01*
X0057261Y0114039D02*
X0055423Y0114800D01*
X0053434Y0114800D01*
X0051596Y0114039D01*
X0050190Y0112632D01*
X0049428Y0110795D01*
X0049428Y0102205D01*
X0050190Y0100368D01*
X0051596Y0098961D01*
X0052228Y0098699D01*
X0052228Y0090381D01*
X0050128Y0088281D01*
X0050128Y0084719D01*
X0052647Y0082200D01*
X0056210Y0082200D01*
X0058310Y0084300D01*
X0062228Y0084300D01*
X0062228Y0058389D01*
X0063517Y0057100D01*
X0065055Y0057100D01*
X0065713Y0055512D01*
X0067298Y0053926D01*
X0069370Y0053068D01*
X0079487Y0053068D01*
X0081559Y0053926D01*
X0083144Y0055512D01*
X0083556Y0056505D01*
X0105128Y0056505D01*
X0105128Y0054719D01*
X0107647Y0052200D01*
X0111210Y0052200D01*
X0113310Y0054300D01*
X0125547Y0054300D01*
X0127647Y0052200D01*
X0131210Y0052200D01*
X0133728Y0054719D01*
X0133728Y0058281D01*
X0131210Y0060800D01*
X0127647Y0060800D01*
X0125547Y0058700D01*
X0113310Y0058700D01*
X0111628Y0060381D01*
X0111628Y0072619D01*
X0113728Y0074719D01*
X0113728Y0078281D01*
X0111210Y0080800D01*
X0107647Y0080800D01*
X0105128Y0078281D01*
X0105128Y0074719D01*
X0107228Y0072619D01*
X0107228Y0060905D01*
X0083556Y0060905D01*
X0083144Y0061898D01*
X0081559Y0063484D01*
X0079487Y0064342D01*
X0069370Y0064342D01*
X0067298Y0063484D01*
X0066628Y0062814D01*
X0066628Y0087411D01*
X0065340Y0088700D01*
X0058310Y0088700D01*
X0056628Y0090381D01*
X0056628Y0098699D01*
X0057261Y0098961D01*
X0058667Y0100368D01*
X0059428Y0102205D01*
X0059428Y0110795D01*
X0058667Y0112632D01*
X0057261Y0114039D01*
X0057966Y0113333D02*
X0061174Y0113333D01*
X0060337Y0112335D02*
X0058790Y0112335D01*
X0059204Y0111336D02*
X0059881Y0111336D01*
X0059654Y0110338D02*
X0059428Y0110338D01*
X0059428Y0109339D02*
X0059628Y0109339D01*
X0059628Y0108341D02*
X0059428Y0108341D01*
X0059428Y0107342D02*
X0059628Y0107342D01*
X0059428Y0106344D02*
X0063928Y0106344D01*
X0063928Y0107342D02*
X0064928Y0107342D01*
X0064929Y0106344D02*
X0069428Y0106344D01*
X0069428Y0107342D02*
X0069228Y0107342D01*
X0069228Y0108341D02*
X0069428Y0108341D01*
X0069428Y0109339D02*
X0069228Y0109339D01*
X0069203Y0110338D02*
X0069428Y0110338D01*
X0069653Y0111336D02*
X0068976Y0111336D01*
X0068520Y0112335D02*
X0070066Y0112335D01*
X0070891Y0113333D02*
X0067683Y0113333D01*
X0064928Y0113333D02*
X0063928Y0113333D01*
X0063928Y0112335D02*
X0064928Y0112335D01*
X0064928Y0111336D02*
X0063928Y0111336D01*
X0063928Y0110338D02*
X0064928Y0110338D01*
X0064928Y0109339D02*
X0063928Y0109339D01*
X0063928Y0108341D02*
X0064928Y0108341D01*
X0064928Y0105345D02*
X0063928Y0105345D01*
X0063928Y0104347D02*
X0064928Y0104347D01*
X0064928Y0103348D02*
X0063928Y0103348D01*
X0063928Y0102350D02*
X0064928Y0102350D01*
X0064928Y0101351D02*
X0063928Y0101351D01*
X0063928Y0100353D02*
X0064928Y0100353D01*
X0064928Y0099354D02*
X0063928Y0099354D01*
X0061556Y0099354D02*
X0057654Y0099354D01*
X0058652Y0100353D02*
X0060564Y0100353D01*
X0059983Y0101351D02*
X0059075Y0101351D01*
X0059428Y0102350D02*
X0059703Y0102350D01*
X0059628Y0103348D02*
X0059428Y0103348D01*
X0059428Y0104347D02*
X0059628Y0104347D01*
X0059628Y0105345D02*
X0059428Y0105345D01*
X0054428Y0106500D02*
X0054428Y0086500D01*
X0064428Y0086500D01*
X0064428Y0059300D01*
X0073833Y0059300D01*
X0074428Y0058705D01*
X0107224Y0058705D01*
X0109428Y0056500D01*
X0109428Y0076500D01*
X0106455Y0073393D02*
X0066628Y0073393D01*
X0066628Y0074391D02*
X0105456Y0074391D01*
X0105128Y0075390D02*
X0066628Y0075390D01*
X0066628Y0076388D02*
X0105128Y0076388D01*
X0105128Y0077387D02*
X0066628Y0077387D01*
X0066628Y0078385D02*
X0076745Y0078385D01*
X0077730Y0077400D02*
X0075328Y0079802D01*
X0075328Y0081200D01*
X0079128Y0081200D01*
X0079128Y0081800D01*
X0075328Y0081800D01*
X0075328Y0083198D01*
X0077730Y0085600D01*
X0079128Y0085600D01*
X0079128Y0081800D01*
X0079728Y0081800D01*
X0079728Y0085600D01*
X0081127Y0085600D01*
X0083528Y0083198D01*
X0083528Y0081800D01*
X0079729Y0081800D01*
X0079729Y0081200D01*
X0083528Y0081200D01*
X0083528Y0079802D01*
X0081127Y0077400D01*
X0079728Y0077400D01*
X0079728Y0081200D01*
X0079128Y0081200D01*
X0079128Y0077400D01*
X0077730Y0077400D01*
X0079128Y0078385D02*
X0079728Y0078385D01*
X0079728Y0079384D02*
X0079128Y0079384D01*
X0079128Y0080382D02*
X0079728Y0080382D01*
X0079729Y0081381D02*
X0152228Y0081381D01*
X0152228Y0082379D02*
X0148317Y0082379D01*
X0147884Y0080800D02*
X0149464Y0080145D01*
X0150674Y0078936D01*
X0151328Y0077355D01*
X0151328Y0075645D01*
X0150674Y0074064D01*
X0149464Y0072855D01*
X0147884Y0072200D01*
X0140973Y0072200D01*
X0139393Y0072855D01*
X0138183Y0074064D01*
X0137528Y0075645D01*
X0137528Y0077355D01*
X0138183Y0078936D01*
X0139393Y0080145D01*
X0140973Y0080800D01*
X0147884Y0080800D01*
X0148892Y0080382D02*
X0152228Y0080382D01*
X0152228Y0079384D02*
X0150226Y0079384D01*
X0150902Y0078385D02*
X0152228Y0078385D01*
X0152228Y0077387D02*
X0151315Y0077387D01*
X0151328Y0076388D02*
X0152228Y0076388D01*
X0152228Y0075390D02*
X0151223Y0075390D01*
X0150809Y0074391D02*
X0152228Y0074391D01*
X0152228Y0073393D02*
X0150002Y0073393D01*
X0148353Y0072394D02*
X0152228Y0072394D01*
X0152228Y0071396D02*
X0111628Y0071396D01*
X0111628Y0072394D02*
X0140504Y0072394D01*
X0138855Y0073393D02*
X0132120Y0073393D01*
X0131127Y0072400D02*
X0133528Y0074802D01*
X0133528Y0076200D01*
X0129729Y0076200D01*
X0129729Y0076800D01*
X0133528Y0076800D01*
X0133528Y0078198D01*
X0131127Y0080600D01*
X0129728Y0080600D01*
X0129728Y0076800D01*
X0129128Y0076800D01*
X0129128Y0076200D01*
X0125328Y0076200D01*
X0125328Y0074802D01*
X0127730Y0072400D01*
X0129128Y0072400D01*
X0129128Y0076200D01*
X0129728Y0076200D01*
X0129728Y0072400D01*
X0131127Y0072400D01*
X0129728Y0073393D02*
X0129128Y0073393D01*
X0129128Y0074391D02*
X0129728Y0074391D01*
X0129728Y0075390D02*
X0129128Y0075390D01*
X0129128Y0076388D02*
X0113728Y0076388D01*
X0113728Y0075390D02*
X0125328Y0075390D01*
X0125739Y0074391D02*
X0113401Y0074391D01*
X0112402Y0073393D02*
X0126737Y0073393D01*
X0125328Y0076800D02*
X0129128Y0076800D01*
X0129128Y0080600D01*
X0127730Y0080600D01*
X0125328Y0078198D01*
X0125328Y0076800D01*
X0125328Y0077387D02*
X0113728Y0077387D01*
X0113624Y0078385D02*
X0125516Y0078385D01*
X0126514Y0079384D02*
X0112626Y0079384D01*
X0111627Y0080382D02*
X0127513Y0080382D01*
X0129128Y0080382D02*
X0129728Y0080382D01*
X0129728Y0079384D02*
X0129128Y0079384D01*
X0129128Y0078385D02*
X0129728Y0078385D01*
X0129728Y0077387D02*
X0129128Y0077387D01*
X0129729Y0076388D02*
X0137528Y0076388D01*
X0137542Y0077387D02*
X0133528Y0077387D01*
X0133341Y0078385D02*
X0137955Y0078385D01*
X0138631Y0079384D02*
X0132343Y0079384D01*
X0131344Y0080382D02*
X0139965Y0080382D01*
X0140540Y0082379D02*
X0083528Y0082379D01*
X0083349Y0083378D02*
X0138869Y0083378D01*
X0144428Y0086500D02*
X0129428Y0086500D01*
X0129428Y0096500D01*
X0109428Y0096500D01*
X0106484Y0093363D02*
X0083647Y0093363D01*
X0083728Y0093281D02*
X0081210Y0095800D01*
X0077647Y0095800D01*
X0075128Y0093281D01*
X0075128Y0089719D01*
X0077647Y0087200D01*
X0081210Y0087200D01*
X0083728Y0089719D01*
X0083728Y0093281D01*
X0083728Y0092365D02*
X0107483Y0092365D01*
X0105486Y0094362D02*
X0082648Y0094362D01*
X0081649Y0095360D02*
X0105128Y0095360D01*
X0105128Y0096359D02*
X0056628Y0096359D01*
X0056628Y0097357D02*
X0105128Y0097357D01*
X0105203Y0098356D02*
X0075799Y0098356D01*
X0077654Y0099354D02*
X0106201Y0099354D01*
X0107200Y0100353D02*
X0078652Y0100353D01*
X0079075Y0101351D02*
X0156239Y0101351D01*
X0156329Y0102350D02*
X0148245Y0102350D01*
X0149958Y0103348D02*
X0156767Y0103348D01*
X0157228Y0104347D02*
X0150791Y0104347D01*
X0151204Y0105345D02*
X0157228Y0105345D01*
X0157228Y0106344D02*
X0151328Y0106344D01*
X0151328Y0107342D02*
X0157228Y0107342D01*
X0157228Y0108341D02*
X0150920Y0108341D01*
X0150270Y0109339D02*
X0157228Y0109339D01*
X0157228Y0110338D02*
X0149000Y0110338D01*
X0148209Y0112335D02*
X0157228Y0112335D01*
X0157228Y0113333D02*
X0149943Y0113333D01*
X0150785Y0114332D02*
X0157228Y0114332D01*
X0157228Y0115330D02*
X0151198Y0115330D01*
X0151328Y0116329D02*
X0157228Y0116329D01*
X0157228Y0117327D02*
X0151328Y0117327D01*
X0150926Y0118326D02*
X0157228Y0118326D01*
X0159428Y0121500D02*
X0129428Y0121500D01*
X0129428Y0126500D01*
X0125128Y0126314D02*
X0113728Y0126314D01*
X0113728Y0127312D02*
X0125128Y0127312D01*
X0125158Y0128311D02*
X0113699Y0128311D01*
X0113728Y0128281D02*
X0111210Y0130800D01*
X0107647Y0130800D01*
X0105128Y0128281D01*
X0105128Y0124719D01*
X0107647Y0122200D01*
X0111210Y0122200D01*
X0113728Y0124719D01*
X0113728Y0128281D01*
X0112700Y0129309D02*
X0126157Y0129309D01*
X0127155Y0130308D02*
X0111702Y0130308D01*
X0107155Y0130308D02*
X0033928Y0130308D01*
X0033928Y0131306D02*
X0132228Y0131306D01*
X0132228Y0130308D02*
X0131702Y0130308D01*
X0132228Y0132305D02*
X0033928Y0132305D01*
X0033928Y0133303D02*
X0132228Y0133303D01*
X0132228Y0134302D02*
X0033928Y0134302D01*
X0033928Y0135301D02*
X0132228Y0135301D01*
X0132228Y0136299D02*
X0033928Y0136299D01*
X0033928Y0137298D02*
X0132228Y0137298D01*
X0132228Y0138296D02*
X0033928Y0138296D01*
X0033928Y0139295D02*
X0132228Y0139295D01*
X0132228Y0140293D02*
X0033928Y0140293D01*
X0033928Y0141292D02*
X0132228Y0141292D01*
X0132228Y0142290D02*
X0033928Y0142290D01*
X0033928Y0143289D02*
X0132228Y0143289D01*
X0132228Y0144287D02*
X0033928Y0144287D01*
X0033928Y0145286D02*
X0132228Y0145286D01*
X0132228Y0146284D02*
X0033928Y0146284D01*
X0033928Y0147283D02*
X0132228Y0147283D01*
X0132228Y0148281D02*
X0033928Y0148281D01*
X0033928Y0149280D02*
X0132228Y0149280D01*
X0132228Y0150278D02*
X0033928Y0150278D01*
X0033928Y0151277D02*
X0132228Y0151277D01*
X0132228Y0152275D02*
X0033928Y0152275D01*
X0033928Y0153274D02*
X0132228Y0153274D01*
X0132228Y0154272D02*
X0033928Y0154272D01*
X0033928Y0155271D02*
X0060146Y0155271D01*
X0060183Y0155250D02*
X0062980Y0154500D01*
X0065877Y0154500D01*
X0068674Y0155250D01*
X0071183Y0156698D01*
X0073231Y0158746D01*
X0074679Y0161254D01*
X0075428Y0164052D01*
X0075428Y0166948D01*
X0074679Y0169746D01*
X0073231Y0172254D01*
X0071183Y0174302D01*
X0068674Y0175750D01*
X0065877Y0176500D01*
X0062980Y0176500D01*
X0060183Y0175750D01*
X0057674Y0174302D01*
X0055626Y0172254D01*
X0054178Y0169746D01*
X0053428Y0166948D01*
X0053428Y0164052D01*
X0054178Y0161254D01*
X0055626Y0158746D01*
X0057674Y0156698D01*
X0060183Y0155250D01*
X0058417Y0156269D02*
X0033928Y0156269D01*
X0033928Y0157268D02*
X0057104Y0157268D01*
X0056106Y0158266D02*
X0033928Y0158266D01*
X0033928Y0159265D02*
X0055327Y0159265D01*
X0054750Y0160263D02*
X0033928Y0160263D01*
X0033928Y0161262D02*
X0054176Y0161262D01*
X0053908Y0162260D02*
X0033928Y0162260D01*
X0033928Y0163259D02*
X0053641Y0163259D01*
X0053428Y0164257D02*
X0033928Y0164257D01*
X0033928Y0165256D02*
X0053428Y0165256D01*
X0053428Y0166254D02*
X0033928Y0166254D01*
X0033928Y0167253D02*
X0053510Y0167253D01*
X0053778Y0168251D02*
X0033928Y0168251D01*
X0033928Y0169250D02*
X0054045Y0169250D01*
X0054468Y0170248D02*
X0033928Y0170248D01*
X0033928Y0171247D02*
X0055045Y0171247D01*
X0055621Y0172245D02*
X0033928Y0172245D01*
X0033928Y0173244D02*
X0056616Y0173244D01*
X0057615Y0174242D02*
X0033928Y0174242D01*
X0033928Y0175241D02*
X0059300Y0175241D01*
X0062008Y0176239D02*
X0033928Y0176239D01*
X0033928Y0177238D02*
X0358629Y0177238D01*
X0358629Y0178237D02*
X0033928Y0178237D01*
X0033928Y0179235D02*
X0358629Y0179235D01*
X0358629Y0180234D02*
X0033928Y0180234D01*
X0033928Y0181232D02*
X0358629Y0181232D01*
X0358629Y0182231D02*
X0033928Y0182231D01*
X0033928Y0183229D02*
X0358629Y0183229D01*
X0358629Y0184228D02*
X0033928Y0184228D01*
X0033928Y0185226D02*
X0358629Y0185226D01*
X0358629Y0186225D02*
X0033928Y0186225D01*
X0033928Y0187223D02*
X0358629Y0187223D01*
X0358629Y0188222D02*
X0033928Y0188222D01*
X0033928Y0189220D02*
X0358629Y0189220D01*
X0358629Y0190219D02*
X0033928Y0190219D01*
X0033928Y0191217D02*
X0358629Y0191217D01*
X0358629Y0192216D02*
X0186225Y0192216D01*
X0186210Y0192200D02*
X0188728Y0194719D01*
X0188728Y0198281D01*
X0186628Y0200381D01*
X0186628Y0212619D01*
X0188728Y0214719D01*
X0188728Y0218281D01*
X0186210Y0220800D01*
X0182647Y0220800D01*
X0180128Y0218281D01*
X0180128Y0214719D01*
X0182228Y0212619D01*
X0182228Y0200381D01*
X0180128Y0198281D01*
X0180128Y0194719D01*
X0182647Y0192200D01*
X0186210Y0192200D01*
X0187224Y0193214D02*
X0358629Y0193214D01*
X0358629Y0194213D02*
X0188222Y0194213D01*
X0188728Y0195211D02*
X0358629Y0195211D01*
X0358629Y0196210D02*
X0188728Y0196210D01*
X0188728Y0197208D02*
X0358629Y0197208D01*
X0358629Y0198207D02*
X0188728Y0198207D01*
X0187804Y0199205D02*
X0358629Y0199205D01*
X0358629Y0200204D02*
X0186806Y0200204D01*
X0186628Y0201202D02*
X0358629Y0201202D01*
X0358629Y0202201D02*
X0186628Y0202201D01*
X0186628Y0203199D02*
X0358629Y0203199D01*
X0358629Y0204198D02*
X0186628Y0204198D01*
X0186628Y0205196D02*
X0358629Y0205196D01*
X0358629Y0206195D02*
X0186628Y0206195D01*
X0186628Y0207193D02*
X0358629Y0207193D01*
X0358629Y0208192D02*
X0186628Y0208192D01*
X0186628Y0209190D02*
X0358629Y0209190D01*
X0358629Y0210189D02*
X0186628Y0210189D01*
X0186628Y0211187D02*
X0358629Y0211187D01*
X0358629Y0212186D02*
X0186628Y0212186D01*
X0187194Y0213184D02*
X0358629Y0213184D01*
X0358629Y0214183D02*
X0188192Y0214183D01*
X0188728Y0215181D02*
X0358629Y0215181D01*
X0358629Y0216180D02*
X0188728Y0216180D01*
X0188728Y0217178D02*
X0358629Y0217178D01*
X0358629Y0218177D02*
X0188728Y0218177D01*
X0187834Y0219175D02*
X0358629Y0219175D01*
X0358629Y0220174D02*
X0186836Y0220174D01*
X0182021Y0220174D02*
X0166836Y0220174D01*
X0166210Y0220800D02*
X0162647Y0220800D01*
X0160547Y0218700D01*
X0142229Y0218700D01*
X0141967Y0219332D01*
X0140561Y0220739D01*
X0138723Y0221500D01*
X0130134Y0221500D01*
X0128296Y0220739D01*
X0126890Y0219332D01*
X0126128Y0217495D01*
X0126128Y0215505D01*
X0126890Y0213668D01*
X0128296Y0212261D01*
X0130134Y0211500D01*
X0128296Y0210739D01*
X0126890Y0209332D01*
X0126128Y0207495D01*
X0126128Y0205505D01*
X0126890Y0203668D01*
X0128296Y0202261D01*
X0130134Y0201500D01*
X0128296Y0200739D01*
X0126890Y0199332D01*
X0126128Y0197495D01*
X0126128Y0195505D01*
X0126890Y0193668D01*
X0128296Y0192261D01*
X0130134Y0191500D01*
X0138723Y0191500D01*
X0140561Y0192261D01*
X0141967Y0193668D01*
X0142728Y0195505D01*
X0142728Y0197495D01*
X0141967Y0199332D01*
X0140561Y0200739D01*
X0138723Y0201500D01*
X0130134Y0201500D01*
X0138723Y0201500D01*
X0140561Y0202261D01*
X0141967Y0203668D01*
X0142728Y0205505D01*
X0142728Y0207495D01*
X0141967Y0209332D01*
X0140561Y0210739D01*
X0138723Y0211500D01*
X0130134Y0211500D01*
X0138723Y0211500D01*
X0140561Y0212261D01*
X0141967Y0213668D01*
X0142229Y0214300D01*
X0160547Y0214300D01*
X0162647Y0212200D01*
X0166210Y0212200D01*
X0168728Y0214719D01*
X0168728Y0218281D01*
X0166210Y0220800D01*
X0167834Y0219175D02*
X0181023Y0219175D01*
X0180128Y0218177D02*
X0168728Y0218177D01*
X0168728Y0217178D02*
X0180128Y0217178D01*
X0180128Y0216180D02*
X0168728Y0216180D01*
X0168728Y0215181D02*
X0180128Y0215181D01*
X0180664Y0214183D02*
X0168192Y0214183D01*
X0167194Y0213184D02*
X0181663Y0213184D01*
X0182228Y0212186D02*
X0140379Y0212186D01*
X0139478Y0211187D02*
X0182228Y0211187D01*
X0182228Y0210189D02*
X0161538Y0210189D01*
X0161127Y0210600D02*
X0163528Y0208198D01*
X0163528Y0206800D01*
X0159729Y0206800D01*
X0159729Y0206200D01*
X0163528Y0206200D01*
X0163528Y0204802D01*
X0161127Y0202400D01*
X0159728Y0202400D01*
X0159728Y0206200D01*
X0159128Y0206200D01*
X0155328Y0206200D01*
X0155328Y0204802D01*
X0157730Y0202400D01*
X0159128Y0202400D01*
X0159128Y0206200D01*
X0159128Y0206800D01*
X0155328Y0206800D01*
X0155328Y0208198D01*
X0157730Y0210600D01*
X0159128Y0210600D01*
X0159128Y0206800D01*
X0159728Y0206800D01*
X0159728Y0210600D01*
X0161127Y0210600D01*
X0159728Y0210189D02*
X0159128Y0210189D01*
X0159128Y0209190D02*
X0159728Y0209190D01*
X0159728Y0208192D02*
X0159128Y0208192D01*
X0159128Y0207193D02*
X0159728Y0207193D01*
X0159728Y0206195D02*
X0159128Y0206195D01*
X0159128Y0205196D02*
X0159728Y0205196D01*
X0159728Y0204198D02*
X0159128Y0204198D01*
X0159128Y0203199D02*
X0159728Y0203199D01*
X0161926Y0203199D02*
X0182228Y0203199D01*
X0182228Y0202201D02*
X0151210Y0202201D01*
X0151210Y0202200D02*
X0153728Y0204719D01*
X0153728Y0208281D01*
X0151210Y0210800D01*
X0147647Y0210800D01*
X0145128Y0208281D01*
X0145128Y0204719D01*
X0147647Y0202200D01*
X0151210Y0202200D01*
X0152209Y0203199D02*
X0156931Y0203199D01*
X0155932Y0204198D02*
X0153207Y0204198D01*
X0153728Y0205196D02*
X0155328Y0205196D01*
X0155328Y0206195D02*
X0153728Y0206195D01*
X0153728Y0207193D02*
X0155328Y0207193D01*
X0155328Y0208192D02*
X0153728Y0208192D01*
X0152819Y0209190D02*
X0156321Y0209190D01*
X0157319Y0210189D02*
X0151821Y0210189D01*
X0147036Y0210189D02*
X0141111Y0210189D01*
X0142026Y0209190D02*
X0146038Y0209190D01*
X0145128Y0208192D02*
X0142440Y0208192D01*
X0142728Y0207193D02*
X0145128Y0207193D01*
X0145128Y0206195D02*
X0142728Y0206195D01*
X0142600Y0205196D02*
X0145128Y0205196D01*
X0145650Y0204198D02*
X0142187Y0204198D01*
X0141499Y0203199D02*
X0146648Y0203199D01*
X0147647Y0202201D02*
X0140415Y0202201D01*
X0139442Y0201202D02*
X0182228Y0201202D01*
X0182051Y0200204D02*
X0176523Y0200204D01*
X0176127Y0200600D02*
X0174728Y0200600D01*
X0174728Y0196800D01*
X0174128Y0196800D01*
X0174128Y0196200D01*
X0170328Y0196200D01*
X0170328Y0194802D01*
X0172730Y0192400D01*
X0174128Y0192400D01*
X0174128Y0196200D01*
X0174728Y0196200D01*
X0174728Y0192400D01*
X0176127Y0192400D01*
X0178528Y0194802D01*
X0178528Y0196200D01*
X0174729Y0196200D01*
X0174729Y0196800D01*
X0178528Y0196800D01*
X0178528Y0198198D01*
X0176127Y0200600D01*
X0174728Y0200204D02*
X0174128Y0200204D01*
X0174128Y0200600D02*
X0172730Y0200600D01*
X0170328Y0198198D01*
X0170328Y0196800D01*
X0174128Y0196800D01*
X0174128Y0200600D01*
X0174128Y0199205D02*
X0174728Y0199205D01*
X0174728Y0198207D02*
X0174128Y0198207D01*
X0174128Y0197208D02*
X0174728Y0197208D01*
X0174729Y0196210D02*
X0180128Y0196210D01*
X0180128Y0197208D02*
X0178528Y0197208D01*
X0178520Y0198207D02*
X0180128Y0198207D01*
X0181053Y0199205D02*
X0177521Y0199205D01*
X0174128Y0196210D02*
X0142728Y0196210D01*
X0142728Y0197208D02*
X0170328Y0197208D01*
X0170337Y0198207D02*
X0142433Y0198207D01*
X0142020Y0199205D02*
X0171335Y0199205D01*
X0172334Y0200204D02*
X0141096Y0200204D01*
X0142607Y0195211D02*
X0170328Y0195211D01*
X0170918Y0194213D02*
X0142193Y0194213D01*
X0141514Y0193214D02*
X0171916Y0193214D01*
X0174128Y0193214D02*
X0174728Y0193214D01*
X0174728Y0194213D02*
X0174128Y0194213D01*
X0174128Y0195211D02*
X0174728Y0195211D01*
X0176941Y0193214D02*
X0181633Y0193214D01*
X0180635Y0194213D02*
X0177939Y0194213D01*
X0178528Y0195211D02*
X0180128Y0195211D01*
X0182632Y0192216D02*
X0140451Y0192216D01*
X0128406Y0192216D02*
X0033928Y0192216D01*
X0033928Y0193214D02*
X0127343Y0193214D01*
X0126664Y0194213D02*
X0033928Y0194213D01*
X0033928Y0195211D02*
X0126250Y0195211D01*
X0126128Y0196210D02*
X0069525Y0196210D01*
X0069674Y0196250D02*
X0072183Y0197698D01*
X0074231Y0199746D01*
X0075679Y0202254D01*
X0076428Y0205052D01*
X0076428Y0207948D01*
X0075679Y0210746D01*
X0074231Y0213254D01*
X0072183Y0215302D01*
X0069674Y0216750D01*
X0066877Y0217500D01*
X0063980Y0217500D01*
X0061183Y0216750D01*
X0058674Y0215302D01*
X0056626Y0213254D01*
X0055178Y0210746D01*
X0054428Y0207948D01*
X0054428Y0205052D01*
X0055178Y0202254D01*
X0056626Y0199746D01*
X0058674Y0197698D01*
X0061183Y0196250D01*
X0063980Y0195500D01*
X0066877Y0195500D01*
X0069674Y0196250D01*
X0071335Y0197208D02*
X0126128Y0197208D01*
X0126423Y0198207D02*
X0072692Y0198207D01*
X0073690Y0199205D02*
X0126837Y0199205D01*
X0127761Y0200204D02*
X0074495Y0200204D01*
X0075072Y0201202D02*
X0129415Y0201202D01*
X0128442Y0202201D02*
X0075648Y0202201D01*
X0075932Y0203199D02*
X0127358Y0203199D01*
X0126670Y0204198D02*
X0076200Y0204198D01*
X0076428Y0205196D02*
X0126257Y0205196D01*
X0126128Y0206195D02*
X0076428Y0206195D01*
X0076428Y0207193D02*
X0126128Y0207193D01*
X0126417Y0208192D02*
X0076363Y0208192D01*
X0076096Y0209190D02*
X0126831Y0209190D01*
X0127746Y0210189D02*
X0075828Y0210189D01*
X0075424Y0211187D02*
X0129379Y0211187D01*
X0128478Y0212186D02*
X0074847Y0212186D01*
X0074271Y0213184D02*
X0127373Y0213184D01*
X0126676Y0214183D02*
X0073302Y0214183D01*
X0072303Y0215181D02*
X0126263Y0215181D01*
X0126128Y0216180D02*
X0070662Y0216180D01*
X0068077Y0217178D02*
X0126128Y0217178D01*
X0126411Y0218177D02*
X0033928Y0218177D01*
X0033928Y0219175D02*
X0126825Y0219175D01*
X0127731Y0220174D02*
X0033928Y0220174D01*
X0033928Y0221172D02*
X0129343Y0221172D01*
X0134428Y0216500D02*
X0164428Y0216500D01*
X0161663Y0213184D02*
X0141484Y0213184D01*
X0142181Y0214183D02*
X0160664Y0214183D01*
X0161023Y0219175D02*
X0142032Y0219175D01*
X0141126Y0220174D02*
X0162021Y0220174D01*
X0162536Y0209190D02*
X0182228Y0209190D01*
X0182228Y0208192D02*
X0163528Y0208192D01*
X0163528Y0207193D02*
X0182228Y0207193D01*
X0182228Y0206195D02*
X0163528Y0206195D01*
X0163528Y0205196D02*
X0182228Y0205196D01*
X0182228Y0204198D02*
X0162925Y0204198D01*
X0184428Y0196500D02*
X0184428Y0216500D01*
X0139514Y0221172D02*
X0358629Y0221172D01*
X0358629Y0222171D02*
X0033928Y0222171D01*
X0033928Y0223170D02*
X0358629Y0223170D01*
X0358629Y0224168D02*
X0033928Y0224168D01*
X0033928Y0225167D02*
X0358629Y0225167D01*
X0358629Y0226165D02*
X0033928Y0226165D01*
X0033928Y0227164D02*
X0358629Y0227164D01*
X0358629Y0228162D02*
X0033928Y0228162D01*
X0033928Y0229161D02*
X0358629Y0229161D01*
X0358629Y0230159D02*
X0033928Y0230159D01*
X0033928Y0231158D02*
X0358629Y0231158D01*
X0358629Y0176239D02*
X0066849Y0176239D01*
X0069557Y0175241D02*
X0358629Y0175241D01*
X0358629Y0174242D02*
X0071242Y0174242D01*
X0072241Y0173244D02*
X0166526Y0173244D01*
X0165527Y0172245D02*
X0073236Y0172245D01*
X0073812Y0171247D02*
X0165065Y0171247D01*
X0164728Y0170248D02*
X0074389Y0170248D01*
X0074812Y0169250D02*
X0164728Y0169250D01*
X0164728Y0164257D02*
X0136628Y0164257D01*
X0136628Y0163259D02*
X0164728Y0163259D01*
X0164855Y0162260D02*
X0136628Y0162260D01*
X0136628Y0161262D02*
X0165268Y0161262D01*
X0166018Y0160263D02*
X0136628Y0160263D01*
X0136628Y0159265D02*
X0167371Y0159265D01*
X0171485Y0159265D02*
X0177901Y0159265D01*
X0177701Y0159330D02*
X0178375Y0159111D01*
X0178928Y0159023D01*
X0178928Y0166000D01*
X0174928Y0166000D01*
X0174928Y0163146D01*
X0175039Y0162446D01*
X0175258Y0161773D01*
X0175580Y0161141D01*
X0175996Y0160568D01*
X0176497Y0160068D01*
X0177070Y0159651D01*
X0177701Y0159330D01*
X0178928Y0159265D02*
X0179928Y0159265D01*
X0179928Y0159023D02*
X0180482Y0159111D01*
X0181156Y0159330D01*
X0181787Y0159651D01*
X0182360Y0160068D01*
X0182861Y0160568D01*
X0183277Y0161141D01*
X0183599Y0161773D01*
X0183818Y0162446D01*
X0183928Y0163146D01*
X0183928Y0166000D01*
X0179929Y0166000D01*
X0179929Y0167000D01*
X0183928Y0167000D01*
X0183928Y0169854D01*
X0183818Y0170554D01*
X0183599Y0171227D01*
X0183277Y0171859D01*
X0182861Y0172432D01*
X0182360Y0172932D01*
X0181787Y0173349D01*
X0181156Y0173670D01*
X0180482Y0173889D01*
X0179928Y0173977D01*
X0179928Y0167000D01*
X0178928Y0167000D01*
X0178928Y0166000D01*
X0179928Y0166000D01*
X0179928Y0159023D01*
X0180956Y0159265D02*
X0187371Y0159265D01*
X0186766Y0159516D02*
X0188494Y0158800D01*
X0190363Y0158800D01*
X0192091Y0159516D01*
X0193413Y0160838D01*
X0194128Y0162565D01*
X0194128Y0170435D01*
X0193413Y0172162D01*
X0192091Y0173484D01*
X0190363Y0174200D01*
X0188494Y0174200D01*
X0186766Y0173484D01*
X0185444Y0172162D01*
X0184728Y0170435D01*
X0184728Y0162565D01*
X0185444Y0160838D01*
X0186766Y0159516D01*
X0186018Y0160263D02*
X0182556Y0160263D01*
X0183339Y0161262D02*
X0185268Y0161262D01*
X0184855Y0162260D02*
X0183757Y0162260D01*
X0183928Y0163259D02*
X0184728Y0163259D01*
X0184728Y0164257D02*
X0183928Y0164257D01*
X0183928Y0165256D02*
X0184728Y0165256D01*
X0184728Y0166254D02*
X0179929Y0166254D01*
X0179928Y0165256D02*
X0178928Y0165256D01*
X0178928Y0166254D02*
X0174128Y0166254D01*
X0174128Y0165256D02*
X0174928Y0165256D01*
X0174928Y0164257D02*
X0174128Y0164257D01*
X0174128Y0163259D02*
X0174928Y0163259D01*
X0175100Y0162260D02*
X0174002Y0162260D01*
X0173589Y0161262D02*
X0175518Y0161262D01*
X0176301Y0160263D02*
X0172839Y0160263D01*
X0178928Y0160263D02*
X0179928Y0160263D01*
X0179928Y0161262D02*
X0178928Y0161262D01*
X0178928Y0162260D02*
X0179928Y0162260D01*
X0179928Y0163259D02*
X0178928Y0163259D01*
X0178928Y0164257D02*
X0179928Y0164257D01*
X0178928Y0167000D02*
X0174928Y0167000D01*
X0174928Y0169854D01*
X0175039Y0170554D01*
X0175258Y0171227D01*
X0175580Y0171859D01*
X0175996Y0172432D01*
X0176497Y0172932D01*
X0177070Y0173349D01*
X0177701Y0173670D01*
X0178375Y0173889D01*
X0178928Y0173977D01*
X0178928Y0167000D01*
X0178928Y0167253D02*
X0179928Y0167253D01*
X0179928Y0168251D02*
X0178928Y0168251D01*
X0178928Y0169250D02*
X0179928Y0169250D01*
X0179928Y0170248D02*
X0178928Y0170248D01*
X0178928Y0171247D02*
X0179928Y0171247D01*
X0179928Y0172245D02*
X0178928Y0172245D01*
X0178928Y0173244D02*
X0179928Y0173244D01*
X0181931Y0173244D02*
X0186526Y0173244D01*
X0185527Y0172245D02*
X0182996Y0172245D01*
X0183589Y0171247D02*
X0185065Y0171247D01*
X0184728Y0170248D02*
X0183866Y0170248D01*
X0183928Y0169250D02*
X0184728Y0169250D01*
X0184728Y0168251D02*
X0183928Y0168251D01*
X0183928Y0167253D02*
X0184728Y0167253D01*
X0174928Y0167253D02*
X0174128Y0167253D01*
X0174128Y0168251D02*
X0174928Y0168251D01*
X0174928Y0169250D02*
X0174128Y0169250D01*
X0174128Y0170248D02*
X0174991Y0170248D01*
X0175268Y0171247D02*
X0173792Y0171247D01*
X0173330Y0172245D02*
X0175861Y0172245D01*
X0176926Y0173244D02*
X0172331Y0173244D01*
X0169428Y0166500D02*
X0134428Y0166500D01*
X0134428Y0126500D01*
X0144428Y0126500D01*
X0164428Y0126500D01*
X0164428Y0086500D01*
X0174428Y0086500D01*
X0179988Y0083378D02*
X0217228Y0083378D01*
X0217228Y0084376D02*
X0180803Y0084376D01*
X0181217Y0085375D02*
X0217228Y0085375D01*
X0217228Y0086373D02*
X0181328Y0086373D01*
X0181322Y0087372D02*
X0217228Y0087372D01*
X0217228Y0088370D02*
X0180908Y0088370D01*
X0174428Y0091500D02*
X0174428Y0096500D01*
X0174428Y0091500D02*
X0209428Y0091500D01*
X0209428Y0096500D01*
X0199428Y0096500D01*
X0199428Y0116500D01*
X0189428Y0116500D01*
X0186172Y0119324D02*
X0180285Y0119324D01*
X0179036Y0120323D02*
X0187170Y0120323D01*
X0191687Y0120323D02*
X0207453Y0120323D01*
X0207730Y0120600D02*
X0205328Y0118198D01*
X0205328Y0116800D01*
X0209128Y0116800D01*
X0209128Y0116200D01*
X0205328Y0116200D01*
X0205328Y0114802D01*
X0207730Y0112400D01*
X0209128Y0112400D01*
X0209128Y0116200D01*
X0209728Y0116200D01*
X0209728Y0112400D01*
X0211127Y0112400D01*
X0213528Y0114802D01*
X0213528Y0116200D01*
X0209729Y0116200D01*
X0209729Y0116800D01*
X0213528Y0116800D01*
X0213528Y0118198D01*
X0211127Y0120600D01*
X0209728Y0120600D01*
X0209728Y0116800D01*
X0209128Y0116800D01*
X0209128Y0120600D01*
X0207730Y0120600D01*
X0209128Y0120323D02*
X0209728Y0120323D01*
X0209728Y0119324D02*
X0209128Y0119324D01*
X0209128Y0118326D02*
X0209728Y0118326D01*
X0209728Y0117327D02*
X0209128Y0117327D01*
X0209128Y0116329D02*
X0201628Y0116329D01*
X0201628Y0117327D02*
X0205328Y0117327D01*
X0205456Y0118326D02*
X0200714Y0118326D01*
X0201628Y0115330D02*
X0205328Y0115330D01*
X0205798Y0114332D02*
X0201628Y0114332D01*
X0201628Y0113333D02*
X0206797Y0113333D01*
X0209128Y0113333D02*
X0209728Y0113333D01*
X0209728Y0114332D02*
X0209128Y0114332D01*
X0209128Y0115330D02*
X0209728Y0115330D01*
X0209729Y0116329D02*
X0217228Y0116329D01*
X0217228Y0117327D02*
X0213528Y0117327D01*
X0213401Y0118326D02*
X0217228Y0118326D01*
X0217228Y0119324D02*
X0212402Y0119324D01*
X0211404Y0120323D02*
X0217228Y0120323D01*
X0217228Y0121321D02*
X0166628Y0121321D01*
X0166628Y0120323D02*
X0169821Y0120323D01*
X0168572Y0119324D02*
X0166628Y0119324D01*
X0166628Y0118326D02*
X0167930Y0118326D01*
X0167528Y0117327D02*
X0166628Y0117327D01*
X0166628Y0116329D02*
X0167528Y0116329D01*
X0167659Y0115330D02*
X0166628Y0115330D01*
X0166628Y0114332D02*
X0168072Y0114332D01*
X0168914Y0113333D02*
X0166628Y0113333D01*
X0166628Y0112335D02*
X0170648Y0112335D01*
X0170868Y0110499D02*
X0170255Y0110300D01*
X0169680Y0110007D01*
X0169157Y0109627D01*
X0168701Y0109171D01*
X0168322Y0108649D01*
X0168029Y0108074D01*
X0167829Y0107460D01*
X0167728Y0106823D01*
X0167728Y0106800D01*
X0174128Y0106800D01*
X0174128Y0110600D01*
X0171506Y0110600D01*
X0170868Y0110499D01*
X0170372Y0110338D02*
X0166628Y0110338D01*
X0166628Y0111336D02*
X0182228Y0111336D01*
X0182228Y0110338D02*
X0178485Y0110338D01*
X0179988Y0109339D02*
X0182228Y0109339D01*
X0182228Y0108341D02*
X0180692Y0108341D01*
X0181046Y0107342D02*
X0182228Y0107342D01*
X0182228Y0106344D02*
X0174729Y0106344D01*
X0174128Y0106344D02*
X0166628Y0106344D01*
X0166628Y0107342D02*
X0167811Y0107342D01*
X0168165Y0108341D02*
X0166628Y0108341D01*
X0166628Y0109339D02*
X0168869Y0109339D01*
X0167893Y0105345D02*
X0166628Y0105345D01*
X0166628Y0104347D02*
X0167968Y0104347D01*
X0166767Y0103348D02*
X0166628Y0103348D01*
X0169428Y0101500D02*
X0184428Y0101500D01*
X0184428Y0116500D01*
X0174428Y0116500D01*
X0178209Y0112335D02*
X0182228Y0112335D01*
X0182228Y0113333D02*
X0179943Y0113333D01*
X0174728Y0110338D02*
X0174128Y0110338D01*
X0174128Y0109339D02*
X0174728Y0109339D01*
X0174728Y0108341D02*
X0174128Y0108341D01*
X0174128Y0107342D02*
X0174728Y0107342D01*
X0180532Y0104347D02*
X0182228Y0104347D01*
X0182228Y0105345D02*
X0180964Y0105345D01*
X0184428Y0101500D02*
X0184428Y0096500D01*
X0189428Y0096500D01*
X0201628Y0099354D02*
X0206201Y0099354D01*
X0207200Y0100353D02*
X0201628Y0100353D01*
X0201628Y0101351D02*
X0217228Y0101351D01*
X0217228Y0100353D02*
X0211657Y0100353D01*
X0212655Y0099354D02*
X0217228Y0099354D01*
X0217228Y0098356D02*
X0213654Y0098356D01*
X0213728Y0097357D02*
X0217228Y0097357D01*
X0217228Y0096359D02*
X0213728Y0096359D01*
X0213728Y0095360D02*
X0217228Y0095360D01*
X0217228Y0094362D02*
X0213371Y0094362D01*
X0212373Y0093363D02*
X0217228Y0093363D01*
X0217228Y0092365D02*
X0211628Y0092365D01*
X0211628Y0091366D02*
X0217228Y0091366D01*
X0217228Y0090368D02*
X0211407Y0090368D01*
X0210409Y0089369D02*
X0217228Y0089369D01*
X0221628Y0089369D02*
X0222228Y0089369D01*
X0222228Y0088370D02*
X0221628Y0088370D01*
X0221628Y0087372D02*
X0222228Y0087372D01*
X0222228Y0086373D02*
X0221628Y0086373D01*
X0221628Y0085375D02*
X0222228Y0085375D01*
X0222228Y0084376D02*
X0221628Y0084376D01*
X0221628Y0083378D02*
X0222228Y0083378D01*
X0222228Y0082379D02*
X0221628Y0082379D01*
X0221628Y0081381D02*
X0222228Y0081381D01*
X0222228Y0080382D02*
X0221628Y0080382D01*
X0221628Y0079384D02*
X0222228Y0079384D01*
X0222228Y0078385D02*
X0221628Y0078385D01*
X0221628Y0077387D02*
X0222228Y0077387D01*
X0222228Y0076388D02*
X0221628Y0076388D01*
X0221628Y0075390D02*
X0222228Y0075390D01*
X0222228Y0074391D02*
X0221628Y0074391D01*
X0221628Y0073393D02*
X0222228Y0073393D01*
X0222228Y0072394D02*
X0221628Y0072394D01*
X0221628Y0071396D02*
X0222228Y0071396D01*
X0222228Y0070397D02*
X0221628Y0070397D01*
X0221628Y0069399D02*
X0222228Y0069399D01*
X0222228Y0068400D02*
X0221628Y0068400D01*
X0221628Y0067402D02*
X0222228Y0067402D01*
X0222228Y0066403D02*
X0221628Y0066403D01*
X0221628Y0065405D02*
X0222228Y0065405D01*
X0222228Y0064406D02*
X0221628Y0064406D01*
X0221628Y0063408D02*
X0222228Y0063408D01*
X0222228Y0062409D02*
X0221628Y0062409D01*
X0221628Y0061411D02*
X0222228Y0061411D01*
X0222228Y0060412D02*
X0221628Y0060412D01*
X0221628Y0059414D02*
X0222228Y0059414D01*
X0222228Y0058415D02*
X0221628Y0058415D01*
X0221628Y0057417D02*
X0222228Y0057417D01*
X0222228Y0056418D02*
X0221628Y0056418D01*
X0221628Y0055420D02*
X0222228Y0055420D01*
X0222228Y0054421D02*
X0221628Y0054421D01*
X0221628Y0053423D02*
X0222228Y0053423D01*
X0222228Y0052424D02*
X0221628Y0052424D01*
X0221628Y0051426D02*
X0222228Y0051426D01*
X0222228Y0050427D02*
X0221628Y0050427D01*
X0221628Y0049429D02*
X0222228Y0049429D01*
X0222228Y0048430D02*
X0221628Y0048430D01*
X0221628Y0047432D02*
X0222228Y0047432D01*
X0222228Y0046433D02*
X0221628Y0046433D01*
X0221628Y0045434D02*
X0222383Y0045434D01*
X0221628Y0044436D02*
X0223381Y0044436D01*
X0224428Y0046500D02*
X0224428Y0146500D01*
X0144428Y0146500D01*
X0144428Y0136500D01*
X0140720Y0132305D02*
X0136628Y0132305D01*
X0136628Y0133303D02*
X0138944Y0133303D01*
X0138085Y0134302D02*
X0136628Y0134302D01*
X0136628Y0135301D02*
X0137671Y0135301D01*
X0137528Y0136299D02*
X0136628Y0136299D01*
X0136628Y0137298D02*
X0137528Y0137298D01*
X0137918Y0138296D02*
X0136628Y0138296D01*
X0136628Y0139295D02*
X0138542Y0139295D01*
X0139749Y0140293D02*
X0136628Y0140293D01*
X0136628Y0141292D02*
X0142228Y0141292D01*
X0142228Y0142290D02*
X0136628Y0142290D01*
X0136628Y0143289D02*
X0142228Y0143289D01*
X0142228Y0144287D02*
X0136628Y0144287D01*
X0136628Y0145286D02*
X0142228Y0145286D01*
X0142228Y0146284D02*
X0136628Y0146284D01*
X0136628Y0147283D02*
X0142228Y0147283D01*
X0143098Y0148281D02*
X0136628Y0148281D01*
X0136628Y0149280D02*
X0241410Y0149280D01*
X0242408Y0150278D02*
X0136628Y0150278D01*
X0136628Y0151277D02*
X0327228Y0151277D01*
X0327006Y0152275D02*
X0136628Y0152275D01*
X0136628Y0153274D02*
X0326008Y0153274D01*
X0325009Y0154272D02*
X0136628Y0154272D01*
X0136628Y0155271D02*
X0324728Y0155271D01*
X0324728Y0156269D02*
X0136628Y0156269D01*
X0136628Y0157268D02*
X0324728Y0157268D01*
X0324728Y0158266D02*
X0136628Y0158266D01*
X0132228Y0158266D02*
X0072751Y0158266D01*
X0073530Y0159265D02*
X0132228Y0159265D01*
X0132228Y0160263D02*
X0074107Y0160263D01*
X0074681Y0161262D02*
X0132228Y0161262D01*
X0132228Y0162260D02*
X0074948Y0162260D01*
X0075216Y0163259D02*
X0132228Y0163259D01*
X0132228Y0164257D02*
X0075428Y0164257D01*
X0075428Y0165256D02*
X0132228Y0165256D01*
X0132228Y0166254D02*
X0075428Y0166254D01*
X0075347Y0167253D02*
X0132228Y0167253D01*
X0133069Y0168251D02*
X0075079Y0168251D01*
X0071753Y0157268D02*
X0132228Y0157268D01*
X0132228Y0156269D02*
X0070440Y0156269D01*
X0068711Y0155271D02*
X0132228Y0155271D01*
X0146628Y0144287D02*
X0222228Y0144287D01*
X0222228Y0143289D02*
X0146628Y0143289D01*
X0146628Y0142290D02*
X0222228Y0142290D01*
X0222228Y0141292D02*
X0146628Y0141292D01*
X0149108Y0140293D02*
X0169749Y0140293D01*
X0168542Y0139295D02*
X0150315Y0139295D01*
X0150939Y0138296D02*
X0167918Y0138296D01*
X0167528Y0137298D02*
X0151328Y0137298D01*
X0151328Y0136299D02*
X0167528Y0136299D01*
X0167671Y0135301D02*
X0151186Y0135301D01*
X0150772Y0134302D02*
X0168085Y0134302D01*
X0168944Y0133303D02*
X0149913Y0133303D01*
X0148137Y0132305D02*
X0170720Y0132305D01*
X0169785Y0130308D02*
X0149072Y0130308D01*
X0150300Y0129309D02*
X0168557Y0129309D01*
X0164428Y0126500D02*
X0174428Y0126500D01*
X0179072Y0130308D02*
X0217228Y0130308D01*
X0217228Y0131306D02*
X0136628Y0131306D01*
X0136628Y0130308D02*
X0139785Y0130308D01*
X0138557Y0129309D02*
X0136628Y0129309D01*
X0144428Y0126500D02*
X0149428Y0126500D01*
X0159428Y0121500D02*
X0159428Y0101500D01*
X0156452Y0100353D02*
X0148964Y0100353D01*
X0150255Y0099354D02*
X0157064Y0099354D01*
X0155684Y0098356D02*
X0158687Y0098356D01*
X0160170Y0098356D02*
X0162228Y0098356D01*
X0162228Y0099354D02*
X0161792Y0099354D01*
X0162228Y0097357D02*
X0156628Y0097357D01*
X0156628Y0096359D02*
X0162228Y0096359D01*
X0162228Y0095360D02*
X0156628Y0095360D01*
X0156628Y0094362D02*
X0162228Y0094362D01*
X0162228Y0093363D02*
X0156628Y0093363D01*
X0156628Y0092365D02*
X0162228Y0092365D01*
X0162228Y0091366D02*
X0156628Y0091366D01*
X0156628Y0090368D02*
X0162228Y0090368D01*
X0162228Y0089369D02*
X0156628Y0089369D01*
X0156628Y0088370D02*
X0162228Y0088370D01*
X0162228Y0087372D02*
X0156628Y0087372D01*
X0156628Y0086373D02*
X0162228Y0086373D01*
X0162442Y0085375D02*
X0156628Y0085375D01*
X0156628Y0084376D02*
X0163441Y0084376D01*
X0168869Y0083378D02*
X0156628Y0083378D01*
X0156628Y0082379D02*
X0170540Y0082379D01*
X0169965Y0080382D02*
X0156628Y0080382D01*
X0156628Y0079384D02*
X0168631Y0079384D01*
X0167955Y0078385D02*
X0156628Y0078385D01*
X0156628Y0077387D02*
X0167542Y0077387D01*
X0167528Y0076388D02*
X0156628Y0076388D01*
X0156628Y0075390D02*
X0167634Y0075390D01*
X0168048Y0074391D02*
X0156628Y0074391D01*
X0156628Y0073393D02*
X0168855Y0073393D01*
X0178892Y0080382D02*
X0217228Y0080382D01*
X0217228Y0079384D02*
X0180226Y0079384D01*
X0178317Y0082379D02*
X0217228Y0082379D01*
X0217228Y0081381D02*
X0156628Y0081381D01*
X0152228Y0083378D02*
X0149988Y0083378D01*
X0150803Y0084376D02*
X0152228Y0084376D01*
X0152228Y0085375D02*
X0151217Y0085375D01*
X0151328Y0086373D02*
X0152228Y0086373D01*
X0152228Y0087372D02*
X0151322Y0087372D01*
X0150908Y0088370D02*
X0152228Y0088370D01*
X0152228Y0089369D02*
X0150241Y0089369D01*
X0148928Y0090368D02*
X0152228Y0090368D01*
X0152228Y0091366D02*
X0131628Y0091366D01*
X0131628Y0090368D02*
X0139929Y0090368D01*
X0138616Y0089369D02*
X0131628Y0089369D01*
X0131628Y0092365D02*
X0140576Y0092365D01*
X0138884Y0093363D02*
X0132373Y0093363D01*
X0133371Y0094362D02*
X0138060Y0094362D01*
X0137646Y0095360D02*
X0133728Y0095360D01*
X0133728Y0096359D02*
X0137528Y0096359D01*
X0137529Y0097357D02*
X0133728Y0097357D01*
X0133654Y0098356D02*
X0137943Y0098356D01*
X0138601Y0099354D02*
X0132655Y0099354D01*
X0127200Y0100353D02*
X0111657Y0100353D01*
X0112655Y0099354D02*
X0126201Y0099354D01*
X0127498Y0102350D02*
X0111359Y0102350D01*
X0112358Y0103348D02*
X0126499Y0103348D01*
X0126187Y0109339D02*
X0112670Y0109339D01*
X0111672Y0110338D02*
X0127185Y0110338D01*
X0131628Y0111336D02*
X0157228Y0111336D01*
X0166628Y0122320D02*
X0170684Y0122320D01*
X0168929Y0123318D02*
X0166628Y0123318D01*
X0178173Y0122320D02*
X0217228Y0122320D01*
X0217228Y0123318D02*
X0179928Y0123318D01*
X0180778Y0124317D02*
X0217228Y0124317D01*
X0217228Y0125315D02*
X0181192Y0125315D01*
X0181328Y0126314D02*
X0217228Y0126314D01*
X0217228Y0127312D02*
X0181328Y0127312D01*
X0180933Y0128311D02*
X0217228Y0128311D01*
X0217228Y0129309D02*
X0180300Y0129309D01*
X0178137Y0132305D02*
X0217228Y0132305D01*
X0217228Y0133303D02*
X0179913Y0133303D01*
X0174428Y0136500D02*
X0219428Y0136500D01*
X0219428Y0041500D01*
X0279428Y0041500D01*
X0279428Y0056500D01*
X0281628Y0051426D02*
X0307228Y0051426D01*
X0307228Y0052424D02*
X0301434Y0052424D01*
X0302432Y0053423D02*
X0306425Y0053423D01*
X0305426Y0054421D02*
X0303431Y0054421D01*
X0303728Y0055420D02*
X0305128Y0055420D01*
X0305128Y0056418D02*
X0303728Y0056418D01*
X0303728Y0057417D02*
X0305128Y0057417D01*
X0305263Y0058415D02*
X0303594Y0058415D01*
X0302596Y0059414D02*
X0306261Y0059414D01*
X0309428Y0056500D02*
X0309428Y0036500D01*
X0307228Y0039443D02*
X0280483Y0039443D01*
X0281482Y0040442D02*
X0307228Y0040442D01*
X0307228Y0041440D02*
X0281628Y0041440D01*
X0281628Y0042439D02*
X0307228Y0042439D01*
X0307228Y0043437D02*
X0281628Y0043437D01*
X0281628Y0044436D02*
X0307228Y0044436D01*
X0307228Y0045434D02*
X0281628Y0045434D01*
X0281628Y0046433D02*
X0307228Y0046433D01*
X0307228Y0047432D02*
X0281628Y0047432D01*
X0281628Y0048430D02*
X0307228Y0048430D01*
X0307228Y0049429D02*
X0281628Y0049429D01*
X0281628Y0050427D02*
X0307228Y0050427D01*
X0277228Y0050427D02*
X0251628Y0050427D01*
X0251628Y0049429D02*
X0277228Y0049429D01*
X0277228Y0048430D02*
X0251628Y0048430D01*
X0251628Y0047432D02*
X0277228Y0047432D01*
X0277228Y0046433D02*
X0251628Y0046433D01*
X0251474Y0045434D02*
X0277228Y0045434D01*
X0277228Y0044436D02*
X0250476Y0044436D01*
X0249428Y0046500D02*
X0224428Y0046500D01*
X0226628Y0049429D02*
X0247228Y0049429D01*
X0247228Y0050427D02*
X0226628Y0050427D01*
X0226628Y0051426D02*
X0247228Y0051426D01*
X0247228Y0052424D02*
X0241434Y0052424D01*
X0242432Y0053423D02*
X0246425Y0053423D01*
X0245426Y0054421D02*
X0243431Y0054421D01*
X0243728Y0055420D02*
X0245128Y0055420D01*
X0245128Y0056418D02*
X0243728Y0056418D01*
X0243728Y0057417D02*
X0245128Y0057417D01*
X0245263Y0058415D02*
X0243594Y0058415D01*
X0242596Y0059414D02*
X0246261Y0059414D01*
X0249428Y0056500D02*
X0249428Y0046500D01*
X0237423Y0052424D02*
X0226628Y0052424D01*
X0226628Y0053423D02*
X0236425Y0053423D01*
X0235426Y0054421D02*
X0226628Y0054421D01*
X0226628Y0055420D02*
X0235128Y0055420D01*
X0235128Y0056418D02*
X0226628Y0056418D01*
X0226628Y0057417D02*
X0235128Y0057417D01*
X0235263Y0058415D02*
X0226628Y0058415D01*
X0226628Y0059414D02*
X0236261Y0059414D01*
X0237228Y0060412D02*
X0226628Y0060412D01*
X0226628Y0061411D02*
X0237228Y0061411D01*
X0237228Y0062409D02*
X0226628Y0062409D01*
X0226628Y0063408D02*
X0237228Y0063408D01*
X0237228Y0064406D02*
X0226628Y0064406D01*
X0226628Y0065405D02*
X0237228Y0065405D01*
X0237228Y0066403D02*
X0226628Y0066403D01*
X0226628Y0067402D02*
X0237228Y0067402D01*
X0237228Y0068400D02*
X0226628Y0068400D01*
X0226628Y0069399D02*
X0237228Y0069399D01*
X0237228Y0070397D02*
X0226628Y0070397D01*
X0226628Y0071396D02*
X0237228Y0071396D01*
X0237228Y0072394D02*
X0226628Y0072394D01*
X0226628Y0073393D02*
X0237228Y0073393D01*
X0237228Y0074391D02*
X0226628Y0074391D01*
X0226628Y0075390D02*
X0237228Y0075390D01*
X0236429Y0076388D02*
X0226628Y0076388D01*
X0226628Y0077387D02*
X0232460Y0077387D01*
X0231462Y0078385D02*
X0226628Y0078385D01*
X0226628Y0079384D02*
X0230463Y0079384D01*
X0230128Y0080382D02*
X0226628Y0080382D01*
X0226628Y0081381D02*
X0230128Y0081381D01*
X0230128Y0082379D02*
X0226628Y0082379D01*
X0226628Y0083378D02*
X0230225Y0083378D01*
X0231224Y0084376D02*
X0226628Y0084376D01*
X0226628Y0085375D02*
X0232222Y0085375D01*
X0232228Y0086373D02*
X0226628Y0086373D01*
X0226628Y0087372D02*
X0232228Y0087372D01*
X0232228Y0088370D02*
X0226628Y0088370D01*
X0226628Y0089369D02*
X0232228Y0089369D01*
X0232228Y0090368D02*
X0226628Y0090368D01*
X0226628Y0091366D02*
X0232228Y0091366D01*
X0232228Y0092365D02*
X0226628Y0092365D01*
X0226628Y0093363D02*
X0232228Y0093363D01*
X0232228Y0094362D02*
X0226628Y0094362D01*
X0226628Y0095360D02*
X0232228Y0095360D01*
X0232228Y0096359D02*
X0226628Y0096359D01*
X0226628Y0097357D02*
X0232228Y0097357D01*
X0231492Y0098356D02*
X0226628Y0098356D01*
X0226628Y0099354D02*
X0230493Y0099354D01*
X0230128Y0100353D02*
X0226628Y0100353D01*
X0226628Y0101351D02*
X0230128Y0101351D01*
X0230128Y0102350D02*
X0226628Y0102350D01*
X0226628Y0103348D02*
X0230196Y0103348D01*
X0231194Y0104347D02*
X0226628Y0104347D01*
X0226628Y0105345D02*
X0232193Y0105345D01*
X0234428Y0101500D02*
X0234428Y0081500D01*
X0239428Y0076500D01*
X0239428Y0056500D01*
X0217228Y0056418D02*
X0216628Y0056418D01*
X0216628Y0055420D02*
X0217228Y0055420D01*
X0217228Y0054421D02*
X0216628Y0054421D01*
X0216628Y0053423D02*
X0217228Y0053423D01*
X0217228Y0052424D02*
X0216628Y0052424D01*
X0216628Y0051426D02*
X0217228Y0051426D01*
X0217228Y0050427D02*
X0216628Y0050427D01*
X0216628Y0049429D02*
X0217228Y0049429D01*
X0217228Y0048430D02*
X0216628Y0048430D01*
X0216628Y0047432D02*
X0217228Y0047432D01*
X0217228Y0046433D02*
X0216628Y0046433D01*
X0216628Y0045434D02*
X0217228Y0045434D01*
X0217228Y0044436D02*
X0216628Y0044436D01*
X0216628Y0043437D02*
X0217228Y0043437D01*
X0217228Y0042439D02*
X0216628Y0042439D01*
X0216628Y0041440D02*
X0217228Y0041440D01*
X0217375Y0040442D02*
X0216628Y0040442D01*
X0216628Y0039443D02*
X0218374Y0039443D01*
X0212228Y0039443D02*
X0152566Y0039443D01*
X0151628Y0040442D02*
X0212228Y0040442D01*
X0212228Y0041440D02*
X0151628Y0041440D01*
X0151628Y0042439D02*
X0212228Y0042439D01*
X0212228Y0043437D02*
X0151628Y0043437D01*
X0151628Y0044436D02*
X0212228Y0044436D01*
X0212228Y0045434D02*
X0151628Y0045434D01*
X0151628Y0046433D02*
X0212228Y0046433D01*
X0212228Y0047432D02*
X0151628Y0047432D01*
X0151628Y0048430D02*
X0212228Y0048430D01*
X0212228Y0049429D02*
X0151628Y0049429D01*
X0151628Y0050427D02*
X0212228Y0050427D01*
X0212228Y0051426D02*
X0151628Y0051426D01*
X0151628Y0052424D02*
X0212228Y0052424D01*
X0212228Y0053423D02*
X0152432Y0053423D01*
X0154428Y0056500D02*
X0149428Y0056500D01*
X0149428Y0036500D01*
X0145128Y0036448D02*
X0119729Y0036448D01*
X0119128Y0036800D02*
X0119128Y0040600D01*
X0117730Y0040600D01*
X0115328Y0038198D01*
X0115328Y0036800D01*
X0119128Y0036800D01*
X0119128Y0037446D02*
X0119728Y0037446D01*
X0119728Y0038445D02*
X0119128Y0038445D01*
X0119128Y0039443D02*
X0119728Y0039443D01*
X0119728Y0040442D02*
X0119128Y0040442D01*
X0117572Y0040442D02*
X0098347Y0040442D01*
X0098365Y0040476D02*
X0098629Y0041290D01*
X0098763Y0042135D01*
X0098763Y0046016D01*
X0093810Y0046016D01*
X0093810Y0037135D01*
X0094599Y0037260D01*
X0095413Y0037524D01*
X0096176Y0037913D01*
X0096868Y0038416D01*
X0097473Y0039021D01*
X0097976Y0039713D01*
X0098365Y0040476D01*
X0098653Y0041440D02*
X0147228Y0041440D01*
X0147228Y0040442D02*
X0121285Y0040442D01*
X0122283Y0039443D02*
X0146291Y0039443D01*
X0145292Y0038445D02*
X0123282Y0038445D01*
X0123528Y0037446D02*
X0145128Y0037446D01*
X0145128Y0035449D02*
X0123528Y0035449D01*
X0123178Y0034451D02*
X0145396Y0034451D01*
X0146395Y0033452D02*
X0122179Y0033452D01*
X0121181Y0032454D02*
X0147394Y0032454D01*
X0153460Y0034451D02*
X0213366Y0034451D01*
X0212368Y0035449D02*
X0153728Y0035449D01*
X0153728Y0036448D02*
X0212228Y0036448D01*
X0212228Y0037446D02*
X0153728Y0037446D01*
X0153565Y0038445D02*
X0212228Y0038445D01*
X0216628Y0057417D02*
X0217228Y0057417D01*
X0217228Y0058415D02*
X0216628Y0058415D01*
X0216628Y0059414D02*
X0217228Y0059414D01*
X0217228Y0060412D02*
X0216628Y0060412D01*
X0216628Y0061411D02*
X0217228Y0061411D01*
X0217228Y0062409D02*
X0216628Y0062409D01*
X0216628Y0063408D02*
X0217228Y0063408D01*
X0217228Y0064406D02*
X0216628Y0064406D01*
X0216628Y0065405D02*
X0217228Y0065405D01*
X0217228Y0066403D02*
X0216628Y0066403D01*
X0216628Y0067402D02*
X0217228Y0067402D01*
X0217228Y0068400D02*
X0216628Y0068400D01*
X0216628Y0069399D02*
X0217228Y0069399D01*
X0217228Y0070397D02*
X0216628Y0070397D01*
X0216628Y0071396D02*
X0217228Y0071396D01*
X0217228Y0072394D02*
X0216628Y0072394D01*
X0216628Y0073393D02*
X0217228Y0073393D01*
X0217228Y0074391D02*
X0216628Y0074391D01*
X0216628Y0075390D02*
X0217228Y0075390D01*
X0217228Y0076388D02*
X0216628Y0076388D01*
X0216628Y0077387D02*
X0217228Y0077387D01*
X0217228Y0078385D02*
X0215654Y0078385D01*
X0221628Y0090368D02*
X0222228Y0090368D01*
X0222228Y0091366D02*
X0221628Y0091366D01*
X0221628Y0092365D02*
X0222228Y0092365D01*
X0222228Y0093363D02*
X0221628Y0093363D01*
X0221628Y0094362D02*
X0222228Y0094362D01*
X0222228Y0095360D02*
X0221628Y0095360D01*
X0221628Y0096359D02*
X0222228Y0096359D01*
X0222228Y0097357D02*
X0221628Y0097357D01*
X0221628Y0098356D02*
X0222228Y0098356D01*
X0222228Y0099354D02*
X0221628Y0099354D01*
X0221628Y0100353D02*
X0222228Y0100353D01*
X0222228Y0101351D02*
X0221628Y0101351D01*
X0221628Y0102350D02*
X0222228Y0102350D01*
X0222228Y0103348D02*
X0221628Y0103348D01*
X0221628Y0104347D02*
X0222228Y0104347D01*
X0222228Y0105345D02*
X0221628Y0105345D01*
X0221628Y0106344D02*
X0222228Y0106344D01*
X0222228Y0107342D02*
X0221628Y0107342D01*
X0221628Y0108341D02*
X0222228Y0108341D01*
X0222228Y0109339D02*
X0221628Y0109339D01*
X0221628Y0110338D02*
X0222228Y0110338D01*
X0222228Y0111336D02*
X0221628Y0111336D01*
X0221628Y0112335D02*
X0222228Y0112335D01*
X0222228Y0113333D02*
X0221628Y0113333D01*
X0221628Y0114332D02*
X0222228Y0114332D01*
X0222228Y0115330D02*
X0221628Y0115330D01*
X0221628Y0116329D02*
X0222228Y0116329D01*
X0222228Y0117327D02*
X0221628Y0117327D01*
X0221628Y0118326D02*
X0222228Y0118326D01*
X0222228Y0119324D02*
X0221628Y0119324D01*
X0221628Y0120323D02*
X0222228Y0120323D01*
X0222228Y0121321D02*
X0221628Y0121321D01*
X0221628Y0122320D02*
X0222228Y0122320D01*
X0222228Y0123318D02*
X0221628Y0123318D01*
X0221628Y0124317D02*
X0222228Y0124317D01*
X0222228Y0125315D02*
X0221628Y0125315D01*
X0221628Y0126314D02*
X0222228Y0126314D01*
X0222228Y0127312D02*
X0221628Y0127312D01*
X0221628Y0128311D02*
X0222228Y0128311D01*
X0222228Y0129309D02*
X0221628Y0129309D01*
X0221628Y0130308D02*
X0222228Y0130308D01*
X0222228Y0131306D02*
X0221628Y0131306D01*
X0221628Y0132305D02*
X0222228Y0132305D01*
X0222228Y0133303D02*
X0221628Y0133303D01*
X0221628Y0134302D02*
X0222228Y0134302D01*
X0222228Y0135301D02*
X0221628Y0135301D01*
X0221628Y0136299D02*
X0222228Y0136299D01*
X0222228Y0137298D02*
X0221628Y0137298D01*
X0222228Y0138296D02*
X0220744Y0138296D01*
X0222228Y0139295D02*
X0180315Y0139295D01*
X0179108Y0140293D02*
X0222228Y0140293D01*
X0226628Y0147283D02*
X0240328Y0147283D01*
X0240411Y0148281D02*
X0225759Y0148281D01*
X0226628Y0130308D02*
X0242438Y0130308D01*
X0241440Y0129309D02*
X0226628Y0129309D01*
X0226628Y0128311D02*
X0240441Y0128311D01*
X0254428Y0116500D02*
X0254428Y0101500D01*
X0254428Y0081500D02*
X0259428Y0081500D01*
X0217228Y0102350D02*
X0201628Y0102350D01*
X0201628Y0103348D02*
X0217228Y0103348D01*
X0217228Y0104347D02*
X0201628Y0104347D01*
X0201628Y0105345D02*
X0217228Y0105345D01*
X0217228Y0106344D02*
X0201628Y0106344D01*
X0201628Y0107342D02*
X0217228Y0107342D01*
X0217228Y0108341D02*
X0201628Y0108341D01*
X0201628Y0109339D02*
X0217228Y0109339D01*
X0217228Y0110338D02*
X0201628Y0110338D01*
X0201628Y0111336D02*
X0217228Y0111336D01*
X0217228Y0112335D02*
X0201628Y0112335D01*
X0212060Y0113333D02*
X0217228Y0113333D01*
X0217228Y0114332D02*
X0213059Y0114332D01*
X0213528Y0115330D02*
X0217228Y0115330D01*
X0206455Y0119324D02*
X0192685Y0119324D01*
X0152228Y0093363D02*
X0149973Y0093363D01*
X0148281Y0092365D02*
X0152228Y0092365D01*
X0137634Y0075390D02*
X0133528Y0075390D01*
X0133118Y0074391D02*
X0138048Y0074391D01*
X0152228Y0070397D02*
X0111628Y0070397D01*
X0111628Y0069399D02*
X0152228Y0069399D01*
X0152228Y0068400D02*
X0111628Y0068400D01*
X0111628Y0067402D02*
X0152228Y0067402D01*
X0152228Y0066403D02*
X0111628Y0066403D01*
X0111628Y0065405D02*
X0152228Y0065405D01*
X0152228Y0064406D02*
X0111628Y0064406D01*
X0111628Y0063408D02*
X0152228Y0063408D01*
X0152228Y0062409D02*
X0111628Y0062409D01*
X0111628Y0061411D02*
X0152228Y0061411D01*
X0152228Y0060412D02*
X0151597Y0060412D01*
X0147260Y0060412D02*
X0131597Y0060412D01*
X0132596Y0059414D02*
X0146261Y0059414D01*
X0145263Y0058415D02*
X0133594Y0058415D01*
X0133728Y0057417D02*
X0145128Y0057417D01*
X0145128Y0056418D02*
X0133728Y0056418D01*
X0133728Y0055420D02*
X0145128Y0055420D01*
X0145426Y0054421D02*
X0133431Y0054421D01*
X0132432Y0053423D02*
X0146425Y0053423D01*
X0147228Y0052424D02*
X0131434Y0052424D01*
X0127423Y0052424D02*
X0111434Y0052424D01*
X0112432Y0053423D02*
X0126425Y0053423D01*
X0129428Y0056500D02*
X0109428Y0056500D01*
X0106425Y0053423D02*
X0097877Y0053423D01*
X0097976Y0053287D02*
X0097473Y0053979D01*
X0096868Y0054584D01*
X0096176Y0055087D01*
X0095413Y0055476D01*
X0094599Y0055740D01*
X0093810Y0055865D01*
X0093810Y0046984D01*
X0092842Y0046984D01*
X0092842Y0046016D01*
X0087889Y0046016D01*
X0087889Y0042135D01*
X0088023Y0041290D01*
X0088287Y0040476D01*
X0088676Y0039713D01*
X0089179Y0039021D01*
X0089784Y0038416D01*
X0090476Y0037913D01*
X0091239Y0037524D01*
X0092053Y0037260D01*
X0092842Y0037135D01*
X0092842Y0046016D01*
X0093810Y0046016D01*
X0093810Y0046984D01*
X0098763Y0046984D01*
X0098763Y0050865D01*
X0098629Y0051710D01*
X0098365Y0052524D01*
X0097976Y0053287D01*
X0098397Y0052424D02*
X0107423Y0052424D01*
X0107730Y0050600D02*
X0105328Y0048198D01*
X0105328Y0046800D01*
X0109128Y0046800D01*
X0109128Y0046200D01*
X0105328Y0046200D01*
X0105328Y0044802D01*
X0107730Y0042400D01*
X0109128Y0042400D01*
X0109128Y0046200D01*
X0109728Y0046200D01*
X0109728Y0042400D01*
X0111127Y0042400D01*
X0113528Y0044802D01*
X0113528Y0046200D01*
X0109729Y0046200D01*
X0109729Y0046800D01*
X0113528Y0046800D01*
X0113528Y0048198D01*
X0111127Y0050600D01*
X0109728Y0050600D01*
X0109728Y0046800D01*
X0109128Y0046800D01*
X0109128Y0050600D01*
X0107730Y0050600D01*
X0107557Y0050427D02*
X0098763Y0050427D01*
X0098763Y0049429D02*
X0106559Y0049429D01*
X0105560Y0048430D02*
X0098763Y0048430D01*
X0098763Y0047432D02*
X0105328Y0047432D01*
X0105328Y0045434D02*
X0098763Y0045434D01*
X0098763Y0044436D02*
X0105694Y0044436D01*
X0106693Y0043437D02*
X0098763Y0043437D01*
X0098763Y0042439D02*
X0107691Y0042439D01*
X0109128Y0042439D02*
X0109728Y0042439D01*
X0109728Y0043437D02*
X0109128Y0043437D01*
X0109128Y0044436D02*
X0109728Y0044436D01*
X0109728Y0045434D02*
X0109128Y0045434D01*
X0109128Y0046433D02*
X0093810Y0046433D01*
X0092842Y0046433D02*
X0033928Y0046433D01*
X0033928Y0045434D02*
X0087889Y0045434D01*
X0087889Y0044436D02*
X0033928Y0044436D01*
X0033928Y0043437D02*
X0087889Y0043437D01*
X0087889Y0042439D02*
X0033928Y0042439D01*
X0033928Y0041440D02*
X0087999Y0041440D01*
X0088305Y0040442D02*
X0033928Y0040442D01*
X0033928Y0047432D02*
X0087889Y0047432D01*
X0087889Y0046984D02*
X0092842Y0046984D01*
X0092842Y0055865D01*
X0092053Y0055740D01*
X0091239Y0055476D01*
X0090476Y0055087D01*
X0089784Y0054584D01*
X0089179Y0053979D01*
X0088676Y0053287D01*
X0088287Y0052524D01*
X0088023Y0051710D01*
X0087889Y0050865D01*
X0087889Y0046984D01*
X0087889Y0048430D02*
X0033928Y0048430D01*
X0033928Y0049429D02*
X0087889Y0049429D01*
X0087889Y0050427D02*
X0033928Y0050427D01*
X0033928Y0051426D02*
X0087978Y0051426D01*
X0088255Y0052424D02*
X0033928Y0052424D01*
X0033928Y0053423D02*
X0068513Y0053423D01*
X0066803Y0054421D02*
X0033928Y0054421D01*
X0033928Y0055420D02*
X0065805Y0055420D01*
X0065337Y0056418D02*
X0033928Y0056418D01*
X0033928Y0057417D02*
X0063201Y0057417D01*
X0062228Y0058415D02*
X0033928Y0058415D01*
X0033928Y0059414D02*
X0062228Y0059414D01*
X0062228Y0060412D02*
X0033928Y0060412D01*
X0033928Y0061411D02*
X0062228Y0061411D01*
X0062228Y0062409D02*
X0033928Y0062409D01*
X0033928Y0063408D02*
X0062228Y0063408D01*
X0062228Y0064406D02*
X0033928Y0064406D01*
X0033928Y0065405D02*
X0062228Y0065405D01*
X0062228Y0066403D02*
X0033928Y0066403D01*
X0033928Y0067402D02*
X0062228Y0067402D01*
X0062228Y0068400D02*
X0033928Y0068400D01*
X0033928Y0069399D02*
X0062228Y0069399D01*
X0062228Y0070397D02*
X0033928Y0070397D01*
X0033928Y0071396D02*
X0062228Y0071396D01*
X0062228Y0072394D02*
X0033928Y0072394D01*
X0033928Y0073393D02*
X0051737Y0073393D01*
X0052730Y0072400D02*
X0050328Y0074802D01*
X0050328Y0076200D01*
X0054128Y0076200D01*
X0054128Y0076800D01*
X0050328Y0076800D01*
X0050328Y0078198D01*
X0052730Y0080600D01*
X0054128Y0080600D01*
X0054128Y0076800D01*
X0054728Y0076800D01*
X0054728Y0080600D01*
X0056127Y0080600D01*
X0058528Y0078198D01*
X0058528Y0076800D01*
X0054729Y0076800D01*
X0054729Y0076200D01*
X0058528Y0076200D01*
X0058528Y0074802D01*
X0056127Y0072400D01*
X0054728Y0072400D01*
X0054728Y0076200D01*
X0054128Y0076200D01*
X0054128Y0072400D01*
X0052730Y0072400D01*
X0054128Y0073393D02*
X0054728Y0073393D01*
X0054728Y0074391D02*
X0054128Y0074391D01*
X0054128Y0075390D02*
X0054728Y0075390D01*
X0054729Y0076388D02*
X0062228Y0076388D01*
X0062228Y0075390D02*
X0058528Y0075390D01*
X0058118Y0074391D02*
X0062228Y0074391D01*
X0062228Y0073393D02*
X0057120Y0073393D01*
X0054128Y0076388D02*
X0033928Y0076388D01*
X0033928Y0075390D02*
X0050328Y0075390D01*
X0050739Y0074391D02*
X0033928Y0074391D01*
X0033928Y0077387D02*
X0050328Y0077387D01*
X0050516Y0078385D02*
X0033928Y0078385D01*
X0033928Y0079384D02*
X0051514Y0079384D01*
X0052513Y0080382D02*
X0033928Y0080382D01*
X0033928Y0081381D02*
X0062228Y0081381D01*
X0062228Y0082379D02*
X0056389Y0082379D01*
X0057387Y0083378D02*
X0062228Y0083378D01*
X0062228Y0080382D02*
X0056344Y0080382D01*
X0057343Y0079384D02*
X0062228Y0079384D01*
X0062228Y0078385D02*
X0058341Y0078385D01*
X0058528Y0077387D02*
X0062228Y0077387D01*
X0066628Y0079384D02*
X0075746Y0079384D01*
X0075328Y0080382D02*
X0066628Y0080382D01*
X0066628Y0081381D02*
X0079128Y0081381D01*
X0079128Y0082379D02*
X0079728Y0082379D01*
X0079728Y0083378D02*
X0079128Y0083378D01*
X0079128Y0084376D02*
X0079728Y0084376D01*
X0079728Y0085375D02*
X0079128Y0085375D01*
X0077505Y0085375D02*
X0066628Y0085375D01*
X0066628Y0086373D02*
X0127228Y0086373D01*
X0127228Y0087372D02*
X0081382Y0087372D01*
X0082380Y0088370D02*
X0127228Y0088370D01*
X0127228Y0089369D02*
X0083379Y0089369D01*
X0083728Y0090368D02*
X0127228Y0090368D01*
X0127228Y0091366D02*
X0083728Y0091366D01*
X0081352Y0085375D02*
X0127442Y0085375D01*
X0128441Y0084376D02*
X0082350Y0084376D01*
X0083528Y0080382D02*
X0107230Y0080382D01*
X0106231Y0079384D02*
X0083111Y0079384D01*
X0082112Y0078385D02*
X0105233Y0078385D01*
X0107228Y0072394D02*
X0066628Y0072394D01*
X0066628Y0071396D02*
X0107228Y0071396D01*
X0107228Y0070397D02*
X0066628Y0070397D01*
X0066628Y0069399D02*
X0107228Y0069399D01*
X0107228Y0068400D02*
X0066628Y0068400D01*
X0066628Y0067402D02*
X0107228Y0067402D01*
X0107228Y0066403D02*
X0066628Y0066403D01*
X0066628Y0065405D02*
X0107228Y0065405D01*
X0107228Y0064406D02*
X0066628Y0064406D01*
X0066628Y0063408D02*
X0067223Y0063408D01*
X0081634Y0063408D02*
X0107228Y0063408D01*
X0107228Y0062409D02*
X0082633Y0062409D01*
X0083346Y0061411D02*
X0107228Y0061411D01*
X0111628Y0060412D02*
X0127260Y0060412D01*
X0126261Y0059414D02*
X0112596Y0059414D01*
X0105128Y0056418D02*
X0083520Y0056418D01*
X0083052Y0055420D02*
X0091129Y0055420D01*
X0092842Y0055420D02*
X0093810Y0055420D01*
X0093810Y0054421D02*
X0092842Y0054421D01*
X0092842Y0053423D02*
X0093810Y0053423D01*
X0093810Y0052424D02*
X0092842Y0052424D01*
X0092842Y0051426D02*
X0093810Y0051426D01*
X0093810Y0050427D02*
X0092842Y0050427D01*
X0092842Y0049429D02*
X0093810Y0049429D01*
X0093810Y0048430D02*
X0092842Y0048430D01*
X0092842Y0047432D02*
X0093810Y0047432D01*
X0093810Y0045434D02*
X0092842Y0045434D01*
X0092842Y0044436D02*
X0093810Y0044436D01*
X0093810Y0043437D02*
X0092842Y0043437D01*
X0092842Y0042439D02*
X0093810Y0042439D01*
X0093810Y0041440D02*
X0092842Y0041440D01*
X0092842Y0040442D02*
X0093810Y0040442D01*
X0093810Y0039443D02*
X0092842Y0039443D01*
X0092842Y0038445D02*
X0093810Y0038445D01*
X0093810Y0037446D02*
X0092842Y0037446D01*
X0091479Y0037446D02*
X0083063Y0037446D01*
X0082299Y0038445D02*
X0089755Y0038445D01*
X0088872Y0039443D02*
X0081010Y0039443D01*
X0083674Y0033452D02*
X0116678Y0033452D01*
X0115328Y0037446D02*
X0095173Y0037446D01*
X0096897Y0038445D02*
X0115575Y0038445D01*
X0116574Y0039443D02*
X0097780Y0039443D01*
X0109729Y0046433D02*
X0147228Y0046433D01*
X0147228Y0045434D02*
X0113528Y0045434D01*
X0113163Y0044436D02*
X0147228Y0044436D01*
X0147228Y0043437D02*
X0112164Y0043437D01*
X0111166Y0042439D02*
X0147228Y0042439D01*
X0147228Y0047432D02*
X0113528Y0047432D01*
X0113297Y0048430D02*
X0147228Y0048430D01*
X0147228Y0049429D02*
X0112298Y0049429D01*
X0111300Y0050427D02*
X0147228Y0050427D01*
X0147228Y0051426D02*
X0098674Y0051426D01*
X0097031Y0054421D02*
X0105426Y0054421D01*
X0105128Y0055420D02*
X0095523Y0055420D01*
X0089621Y0054421D02*
X0082054Y0054421D01*
X0080343Y0053423D02*
X0088775Y0053423D01*
X0109128Y0050427D02*
X0109728Y0050427D01*
X0109728Y0049429D02*
X0109128Y0049429D01*
X0109128Y0048430D02*
X0109728Y0048430D01*
X0109728Y0047432D02*
X0109128Y0047432D01*
X0067067Y0030457D02*
X0033928Y0030457D01*
X0033928Y0031455D02*
X0066120Y0031455D01*
X0065528Y0032454D02*
X0033928Y0032454D01*
X0033928Y0033452D02*
X0065183Y0033452D01*
X0054728Y0077387D02*
X0054128Y0077387D01*
X0054128Y0078385D02*
X0054728Y0078385D01*
X0054728Y0079384D02*
X0054128Y0079384D01*
X0054128Y0080382D02*
X0054728Y0080382D01*
X0052468Y0082379D02*
X0033928Y0082379D01*
X0033928Y0083378D02*
X0051469Y0083378D01*
X0050471Y0084376D02*
X0033928Y0084376D01*
X0033928Y0085375D02*
X0050128Y0085375D01*
X0050128Y0086373D02*
X0033928Y0086373D01*
X0033928Y0087372D02*
X0050128Y0087372D01*
X0050218Y0088370D02*
X0033928Y0088370D01*
X0033928Y0089369D02*
X0051216Y0089369D01*
X0052215Y0090368D02*
X0033928Y0090368D01*
X0033928Y0091366D02*
X0052228Y0091366D01*
X0052228Y0092365D02*
X0033928Y0092365D01*
X0033928Y0093363D02*
X0052228Y0093363D01*
X0052228Y0094362D02*
X0033928Y0094362D01*
X0033928Y0095360D02*
X0052228Y0095360D01*
X0052228Y0096359D02*
X0033928Y0096359D01*
X0033928Y0097357D02*
X0052228Y0097357D01*
X0052228Y0098356D02*
X0033928Y0098356D01*
X0033928Y0099354D02*
X0051203Y0099354D01*
X0050205Y0100353D02*
X0033928Y0100353D01*
X0033928Y0101351D02*
X0049782Y0101351D01*
X0049428Y0102350D02*
X0033928Y0102350D01*
X0033928Y0103348D02*
X0049428Y0103348D01*
X0049428Y0104347D02*
X0033928Y0104347D01*
X0033928Y0105345D02*
X0049428Y0105345D01*
X0049428Y0106344D02*
X0033928Y0106344D01*
X0033928Y0107342D02*
X0049428Y0107342D01*
X0049428Y0108341D02*
X0033928Y0108341D01*
X0033928Y0109339D02*
X0049428Y0109339D01*
X0049428Y0110338D02*
X0033928Y0110338D01*
X0033928Y0111336D02*
X0049653Y0111336D01*
X0050066Y0112335D02*
X0033928Y0112335D01*
X0033928Y0113333D02*
X0050891Y0113333D01*
X0052304Y0114332D02*
X0033928Y0114332D01*
X0033928Y0115330D02*
X0127228Y0115330D01*
X0127228Y0116329D02*
X0033928Y0116329D01*
X0033928Y0117327D02*
X0127228Y0117327D01*
X0128143Y0118326D02*
X0033928Y0118326D01*
X0033928Y0119324D02*
X0128493Y0119324D01*
X0127494Y0120323D02*
X0033928Y0120323D01*
X0033928Y0121321D02*
X0127228Y0121321D01*
X0127228Y0122320D02*
X0111329Y0122320D01*
X0112328Y0123318D02*
X0126529Y0123318D01*
X0125530Y0124317D02*
X0113326Y0124317D01*
X0113728Y0125315D02*
X0125128Y0125315D01*
X0107527Y0122320D02*
X0033928Y0122320D01*
X0033928Y0123318D02*
X0106529Y0123318D01*
X0105530Y0124317D02*
X0033928Y0124317D01*
X0033928Y0125315D02*
X0105128Y0125315D01*
X0105128Y0126314D02*
X0033928Y0126314D01*
X0033928Y0127312D02*
X0105128Y0127312D01*
X0105158Y0128311D02*
X0033928Y0128311D01*
X0033928Y0129309D02*
X0106157Y0129309D01*
X0105128Y0105345D02*
X0079428Y0105345D01*
X0079428Y0104347D02*
X0105501Y0104347D01*
X0106499Y0103348D02*
X0079428Y0103348D01*
X0079428Y0102350D02*
X0107498Y0102350D01*
X0112373Y0093363D02*
X0126484Y0093363D01*
X0127228Y0092365D02*
X0111374Y0092365D01*
X0077475Y0087372D02*
X0066628Y0087372D01*
X0065669Y0088370D02*
X0076477Y0088370D01*
X0075478Y0089369D02*
X0057641Y0089369D01*
X0056642Y0090368D02*
X0075128Y0090368D01*
X0075128Y0091366D02*
X0056628Y0091366D01*
X0056628Y0092365D02*
X0075128Y0092365D01*
X0075210Y0093363D02*
X0056628Y0093363D01*
X0056628Y0094362D02*
X0076209Y0094362D01*
X0077207Y0095360D02*
X0056628Y0095360D01*
X0056628Y0098356D02*
X0073058Y0098356D01*
X0071203Y0099354D02*
X0067301Y0099354D01*
X0068293Y0100353D02*
X0070205Y0100353D01*
X0069782Y0101351D02*
X0068874Y0101351D01*
X0069154Y0102350D02*
X0069428Y0102350D01*
X0069428Y0103348D02*
X0069228Y0103348D01*
X0069228Y0104347D02*
X0069428Y0104347D01*
X0069428Y0105345D02*
X0069228Y0105345D01*
X0066628Y0084376D02*
X0076507Y0084376D01*
X0075508Y0083378D02*
X0066628Y0083378D01*
X0066628Y0082379D02*
X0075328Y0082379D01*
X0191485Y0159265D02*
X0325546Y0159265D01*
X0326545Y0160263D02*
X0192839Y0160263D01*
X0193589Y0161262D02*
X0358629Y0161262D01*
X0358629Y0162260D02*
X0194002Y0162260D01*
X0194128Y0163259D02*
X0358629Y0163259D01*
X0358629Y0164257D02*
X0194128Y0164257D01*
X0194128Y0165256D02*
X0358629Y0165256D01*
X0358629Y0166254D02*
X0194128Y0166254D01*
X0194128Y0167253D02*
X0358629Y0167253D01*
X0358629Y0168251D02*
X0194128Y0168251D01*
X0194128Y0169250D02*
X0358629Y0169250D01*
X0358629Y0170248D02*
X0194128Y0170248D01*
X0193792Y0171247D02*
X0358629Y0171247D01*
X0358629Y0172245D02*
X0193330Y0172245D01*
X0192331Y0173244D02*
X0358629Y0173244D01*
X0358629Y0160263D02*
X0341746Y0160263D01*
X0342745Y0159265D02*
X0358629Y0159265D01*
X0358629Y0158266D02*
X0343728Y0158266D01*
X0343728Y0157268D02*
X0358629Y0157268D01*
X0358629Y0156269D02*
X0343728Y0156269D01*
X0343728Y0155271D02*
X0358629Y0155271D01*
X0358629Y0154272D02*
X0343282Y0154272D01*
X0342283Y0153274D02*
X0358629Y0153274D01*
X0358629Y0152275D02*
X0341285Y0152275D01*
X0337572Y0152275D02*
X0331850Y0152275D01*
X0331628Y0151277D02*
X0358629Y0151277D01*
X0358629Y0150278D02*
X0331628Y0150278D01*
X0331628Y0149280D02*
X0358629Y0149280D01*
X0358629Y0148281D02*
X0331628Y0148281D01*
X0331628Y0147283D02*
X0358629Y0147283D01*
X0358629Y0146284D02*
X0331628Y0146284D01*
X0331628Y0145286D02*
X0358629Y0145286D01*
X0358629Y0144287D02*
X0331628Y0144287D01*
X0331628Y0143289D02*
X0358629Y0143289D01*
X0339428Y0156500D02*
X0329428Y0156500D01*
X0332849Y0153274D02*
X0336574Y0153274D01*
X0335575Y0154272D02*
X0333847Y0154272D01*
X0333310Y0159265D02*
X0336112Y0159265D01*
X0337111Y0160263D02*
X0332312Y0160263D01*
X0274728Y0150278D02*
X0274128Y0150278D01*
X0274128Y0149280D02*
X0274728Y0149280D01*
X0274728Y0148281D02*
X0274128Y0148281D01*
X0274128Y0147283D02*
X0274728Y0147283D01*
X0274728Y0145286D02*
X0274128Y0145286D01*
X0274128Y0144287D02*
X0274728Y0144287D01*
X0274728Y0143289D02*
X0274128Y0143289D01*
X0061332Y0196210D02*
X0033928Y0196210D01*
X0033928Y0197208D02*
X0059522Y0197208D01*
X0058165Y0198207D02*
X0033928Y0198207D01*
X0033928Y0199205D02*
X0057167Y0199205D01*
X0056362Y0200204D02*
X0033928Y0200204D01*
X0033928Y0201202D02*
X0055785Y0201202D01*
X0055209Y0202201D02*
X0033928Y0202201D01*
X0033928Y0203199D02*
X0054925Y0203199D01*
X0054657Y0204198D02*
X0033928Y0204198D01*
X0033928Y0205196D02*
X0054428Y0205196D01*
X0054428Y0206195D02*
X0033928Y0206195D01*
X0033928Y0207193D02*
X0054428Y0207193D01*
X0054494Y0208192D02*
X0033928Y0208192D01*
X0033928Y0209190D02*
X0054761Y0209190D01*
X0055029Y0210189D02*
X0033928Y0210189D01*
X0033928Y0211187D02*
X0055433Y0211187D01*
X0056010Y0212186D02*
X0033928Y0212186D01*
X0033928Y0213184D02*
X0056586Y0213184D01*
X0057555Y0214183D02*
X0033928Y0214183D01*
X0033928Y0215181D02*
X0058554Y0215181D01*
X0060195Y0216180D02*
X0033928Y0216180D01*
X0033928Y0217178D02*
X0062780Y0217178D01*
D20*
X0159428Y0101500D03*
X0169428Y0101500D03*
M02*
