G75*
%MOIN*%
%OFA0B0*%
%FSLAX25Y25*%
%IPPOS*%
%LPD*%
%AMOC8*
5,1,8,0,0,1.08239X$1,22.5*
%
%ADD10C,0.00000*%
%ADD11OC8,0.05200*%
%ADD12C,0.05200*%
%ADD13C,0.06600*%
%ADD14C,0.07874*%
%ADD15C,0.06000*%
%ADD16OC8,0.06000*%
%ADD17C,0.01000*%
%ADD18R,0.02978X0.02978*%
D10*
X0001500Y0001500D02*
X0001500Y0216461D01*
X0335201Y0216461D01*
X0335201Y0001500D01*
X0001500Y0001500D01*
X0030000Y0165500D02*
X0030002Y0165661D01*
X0030008Y0165821D01*
X0030018Y0165982D01*
X0030032Y0166142D01*
X0030050Y0166302D01*
X0030071Y0166461D01*
X0030097Y0166620D01*
X0030127Y0166778D01*
X0030160Y0166935D01*
X0030198Y0167092D01*
X0030239Y0167247D01*
X0030284Y0167401D01*
X0030333Y0167554D01*
X0030386Y0167706D01*
X0030442Y0167857D01*
X0030503Y0168006D01*
X0030566Y0168154D01*
X0030634Y0168300D01*
X0030705Y0168444D01*
X0030779Y0168586D01*
X0030857Y0168727D01*
X0030939Y0168865D01*
X0031024Y0169002D01*
X0031112Y0169136D01*
X0031204Y0169268D01*
X0031299Y0169398D01*
X0031397Y0169526D01*
X0031498Y0169651D01*
X0031602Y0169773D01*
X0031709Y0169893D01*
X0031819Y0170010D01*
X0031932Y0170125D01*
X0032048Y0170236D01*
X0032167Y0170345D01*
X0032288Y0170450D01*
X0032412Y0170553D01*
X0032538Y0170653D01*
X0032666Y0170749D01*
X0032797Y0170842D01*
X0032931Y0170932D01*
X0033066Y0171019D01*
X0033204Y0171102D01*
X0033343Y0171182D01*
X0033485Y0171258D01*
X0033628Y0171331D01*
X0033773Y0171400D01*
X0033920Y0171466D01*
X0034068Y0171528D01*
X0034218Y0171586D01*
X0034369Y0171641D01*
X0034522Y0171692D01*
X0034676Y0171739D01*
X0034831Y0171782D01*
X0034987Y0171821D01*
X0035143Y0171857D01*
X0035301Y0171888D01*
X0035459Y0171916D01*
X0035618Y0171940D01*
X0035778Y0171960D01*
X0035938Y0171976D01*
X0036098Y0171988D01*
X0036259Y0171996D01*
X0036420Y0172000D01*
X0036580Y0172000D01*
X0036741Y0171996D01*
X0036902Y0171988D01*
X0037062Y0171976D01*
X0037222Y0171960D01*
X0037382Y0171940D01*
X0037541Y0171916D01*
X0037699Y0171888D01*
X0037857Y0171857D01*
X0038013Y0171821D01*
X0038169Y0171782D01*
X0038324Y0171739D01*
X0038478Y0171692D01*
X0038631Y0171641D01*
X0038782Y0171586D01*
X0038932Y0171528D01*
X0039080Y0171466D01*
X0039227Y0171400D01*
X0039372Y0171331D01*
X0039515Y0171258D01*
X0039657Y0171182D01*
X0039796Y0171102D01*
X0039934Y0171019D01*
X0040069Y0170932D01*
X0040203Y0170842D01*
X0040334Y0170749D01*
X0040462Y0170653D01*
X0040588Y0170553D01*
X0040712Y0170450D01*
X0040833Y0170345D01*
X0040952Y0170236D01*
X0041068Y0170125D01*
X0041181Y0170010D01*
X0041291Y0169893D01*
X0041398Y0169773D01*
X0041502Y0169651D01*
X0041603Y0169526D01*
X0041701Y0169398D01*
X0041796Y0169268D01*
X0041888Y0169136D01*
X0041976Y0169002D01*
X0042061Y0168865D01*
X0042143Y0168727D01*
X0042221Y0168586D01*
X0042295Y0168444D01*
X0042366Y0168300D01*
X0042434Y0168154D01*
X0042497Y0168006D01*
X0042558Y0167857D01*
X0042614Y0167706D01*
X0042667Y0167554D01*
X0042716Y0167401D01*
X0042761Y0167247D01*
X0042802Y0167092D01*
X0042840Y0166935D01*
X0042873Y0166778D01*
X0042903Y0166620D01*
X0042929Y0166461D01*
X0042950Y0166302D01*
X0042968Y0166142D01*
X0042982Y0165982D01*
X0042992Y0165821D01*
X0042998Y0165661D01*
X0043000Y0165500D01*
X0042998Y0165339D01*
X0042992Y0165179D01*
X0042982Y0165018D01*
X0042968Y0164858D01*
X0042950Y0164698D01*
X0042929Y0164539D01*
X0042903Y0164380D01*
X0042873Y0164222D01*
X0042840Y0164065D01*
X0042802Y0163908D01*
X0042761Y0163753D01*
X0042716Y0163599D01*
X0042667Y0163446D01*
X0042614Y0163294D01*
X0042558Y0163143D01*
X0042497Y0162994D01*
X0042434Y0162846D01*
X0042366Y0162700D01*
X0042295Y0162556D01*
X0042221Y0162414D01*
X0042143Y0162273D01*
X0042061Y0162135D01*
X0041976Y0161998D01*
X0041888Y0161864D01*
X0041796Y0161732D01*
X0041701Y0161602D01*
X0041603Y0161474D01*
X0041502Y0161349D01*
X0041398Y0161227D01*
X0041291Y0161107D01*
X0041181Y0160990D01*
X0041068Y0160875D01*
X0040952Y0160764D01*
X0040833Y0160655D01*
X0040712Y0160550D01*
X0040588Y0160447D01*
X0040462Y0160347D01*
X0040334Y0160251D01*
X0040203Y0160158D01*
X0040069Y0160068D01*
X0039934Y0159981D01*
X0039796Y0159898D01*
X0039657Y0159818D01*
X0039515Y0159742D01*
X0039372Y0159669D01*
X0039227Y0159600D01*
X0039080Y0159534D01*
X0038932Y0159472D01*
X0038782Y0159414D01*
X0038631Y0159359D01*
X0038478Y0159308D01*
X0038324Y0159261D01*
X0038169Y0159218D01*
X0038013Y0159179D01*
X0037857Y0159143D01*
X0037699Y0159112D01*
X0037541Y0159084D01*
X0037382Y0159060D01*
X0037222Y0159040D01*
X0037062Y0159024D01*
X0036902Y0159012D01*
X0036741Y0159004D01*
X0036580Y0159000D01*
X0036420Y0159000D01*
X0036259Y0159004D01*
X0036098Y0159012D01*
X0035938Y0159024D01*
X0035778Y0159040D01*
X0035618Y0159060D01*
X0035459Y0159084D01*
X0035301Y0159112D01*
X0035143Y0159143D01*
X0034987Y0159179D01*
X0034831Y0159218D01*
X0034676Y0159261D01*
X0034522Y0159308D01*
X0034369Y0159359D01*
X0034218Y0159414D01*
X0034068Y0159472D01*
X0033920Y0159534D01*
X0033773Y0159600D01*
X0033628Y0159669D01*
X0033485Y0159742D01*
X0033343Y0159818D01*
X0033204Y0159898D01*
X0033066Y0159981D01*
X0032931Y0160068D01*
X0032797Y0160158D01*
X0032666Y0160251D01*
X0032538Y0160347D01*
X0032412Y0160447D01*
X0032288Y0160550D01*
X0032167Y0160655D01*
X0032048Y0160764D01*
X0031932Y0160875D01*
X0031819Y0160990D01*
X0031709Y0161107D01*
X0031602Y0161227D01*
X0031498Y0161349D01*
X0031397Y0161474D01*
X0031299Y0161602D01*
X0031204Y0161732D01*
X0031112Y0161864D01*
X0031024Y0161998D01*
X0030939Y0162135D01*
X0030857Y0162273D01*
X0030779Y0162414D01*
X0030705Y0162556D01*
X0030634Y0162700D01*
X0030566Y0162846D01*
X0030503Y0162994D01*
X0030442Y0163143D01*
X0030386Y0163294D01*
X0030333Y0163446D01*
X0030284Y0163599D01*
X0030239Y0163753D01*
X0030198Y0163908D01*
X0030160Y0164065D01*
X0030127Y0164222D01*
X0030097Y0164380D01*
X0030071Y0164539D01*
X0030050Y0164698D01*
X0030032Y0164858D01*
X0030018Y0165018D01*
X0030008Y0165179D01*
X0030002Y0165339D01*
X0030000Y0165500D01*
X0066000Y0186500D02*
X0066002Y0186661D01*
X0066008Y0186821D01*
X0066018Y0186982D01*
X0066032Y0187142D01*
X0066050Y0187302D01*
X0066071Y0187461D01*
X0066097Y0187620D01*
X0066127Y0187778D01*
X0066160Y0187935D01*
X0066198Y0188092D01*
X0066239Y0188247D01*
X0066284Y0188401D01*
X0066333Y0188554D01*
X0066386Y0188706D01*
X0066442Y0188857D01*
X0066503Y0189006D01*
X0066566Y0189154D01*
X0066634Y0189300D01*
X0066705Y0189444D01*
X0066779Y0189586D01*
X0066857Y0189727D01*
X0066939Y0189865D01*
X0067024Y0190002D01*
X0067112Y0190136D01*
X0067204Y0190268D01*
X0067299Y0190398D01*
X0067397Y0190526D01*
X0067498Y0190651D01*
X0067602Y0190773D01*
X0067709Y0190893D01*
X0067819Y0191010D01*
X0067932Y0191125D01*
X0068048Y0191236D01*
X0068167Y0191345D01*
X0068288Y0191450D01*
X0068412Y0191553D01*
X0068538Y0191653D01*
X0068666Y0191749D01*
X0068797Y0191842D01*
X0068931Y0191932D01*
X0069066Y0192019D01*
X0069204Y0192102D01*
X0069343Y0192182D01*
X0069485Y0192258D01*
X0069628Y0192331D01*
X0069773Y0192400D01*
X0069920Y0192466D01*
X0070068Y0192528D01*
X0070218Y0192586D01*
X0070369Y0192641D01*
X0070522Y0192692D01*
X0070676Y0192739D01*
X0070831Y0192782D01*
X0070987Y0192821D01*
X0071143Y0192857D01*
X0071301Y0192888D01*
X0071459Y0192916D01*
X0071618Y0192940D01*
X0071778Y0192960D01*
X0071938Y0192976D01*
X0072098Y0192988D01*
X0072259Y0192996D01*
X0072420Y0193000D01*
X0072580Y0193000D01*
X0072741Y0192996D01*
X0072902Y0192988D01*
X0073062Y0192976D01*
X0073222Y0192960D01*
X0073382Y0192940D01*
X0073541Y0192916D01*
X0073699Y0192888D01*
X0073857Y0192857D01*
X0074013Y0192821D01*
X0074169Y0192782D01*
X0074324Y0192739D01*
X0074478Y0192692D01*
X0074631Y0192641D01*
X0074782Y0192586D01*
X0074932Y0192528D01*
X0075080Y0192466D01*
X0075227Y0192400D01*
X0075372Y0192331D01*
X0075515Y0192258D01*
X0075657Y0192182D01*
X0075796Y0192102D01*
X0075934Y0192019D01*
X0076069Y0191932D01*
X0076203Y0191842D01*
X0076334Y0191749D01*
X0076462Y0191653D01*
X0076588Y0191553D01*
X0076712Y0191450D01*
X0076833Y0191345D01*
X0076952Y0191236D01*
X0077068Y0191125D01*
X0077181Y0191010D01*
X0077291Y0190893D01*
X0077398Y0190773D01*
X0077502Y0190651D01*
X0077603Y0190526D01*
X0077701Y0190398D01*
X0077796Y0190268D01*
X0077888Y0190136D01*
X0077976Y0190002D01*
X0078061Y0189865D01*
X0078143Y0189727D01*
X0078221Y0189586D01*
X0078295Y0189444D01*
X0078366Y0189300D01*
X0078434Y0189154D01*
X0078497Y0189006D01*
X0078558Y0188857D01*
X0078614Y0188706D01*
X0078667Y0188554D01*
X0078716Y0188401D01*
X0078761Y0188247D01*
X0078802Y0188092D01*
X0078840Y0187935D01*
X0078873Y0187778D01*
X0078903Y0187620D01*
X0078929Y0187461D01*
X0078950Y0187302D01*
X0078968Y0187142D01*
X0078982Y0186982D01*
X0078992Y0186821D01*
X0078998Y0186661D01*
X0079000Y0186500D01*
X0078998Y0186339D01*
X0078992Y0186179D01*
X0078982Y0186018D01*
X0078968Y0185858D01*
X0078950Y0185698D01*
X0078929Y0185539D01*
X0078903Y0185380D01*
X0078873Y0185222D01*
X0078840Y0185065D01*
X0078802Y0184908D01*
X0078761Y0184753D01*
X0078716Y0184599D01*
X0078667Y0184446D01*
X0078614Y0184294D01*
X0078558Y0184143D01*
X0078497Y0183994D01*
X0078434Y0183846D01*
X0078366Y0183700D01*
X0078295Y0183556D01*
X0078221Y0183414D01*
X0078143Y0183273D01*
X0078061Y0183135D01*
X0077976Y0182998D01*
X0077888Y0182864D01*
X0077796Y0182732D01*
X0077701Y0182602D01*
X0077603Y0182474D01*
X0077502Y0182349D01*
X0077398Y0182227D01*
X0077291Y0182107D01*
X0077181Y0181990D01*
X0077068Y0181875D01*
X0076952Y0181764D01*
X0076833Y0181655D01*
X0076712Y0181550D01*
X0076588Y0181447D01*
X0076462Y0181347D01*
X0076334Y0181251D01*
X0076203Y0181158D01*
X0076069Y0181068D01*
X0075934Y0180981D01*
X0075796Y0180898D01*
X0075657Y0180818D01*
X0075515Y0180742D01*
X0075372Y0180669D01*
X0075227Y0180600D01*
X0075080Y0180534D01*
X0074932Y0180472D01*
X0074782Y0180414D01*
X0074631Y0180359D01*
X0074478Y0180308D01*
X0074324Y0180261D01*
X0074169Y0180218D01*
X0074013Y0180179D01*
X0073857Y0180143D01*
X0073699Y0180112D01*
X0073541Y0180084D01*
X0073382Y0180060D01*
X0073222Y0180040D01*
X0073062Y0180024D01*
X0072902Y0180012D01*
X0072741Y0180004D01*
X0072580Y0180000D01*
X0072420Y0180000D01*
X0072259Y0180004D01*
X0072098Y0180012D01*
X0071938Y0180024D01*
X0071778Y0180040D01*
X0071618Y0180060D01*
X0071459Y0180084D01*
X0071301Y0180112D01*
X0071143Y0180143D01*
X0070987Y0180179D01*
X0070831Y0180218D01*
X0070676Y0180261D01*
X0070522Y0180308D01*
X0070369Y0180359D01*
X0070218Y0180414D01*
X0070068Y0180472D01*
X0069920Y0180534D01*
X0069773Y0180600D01*
X0069628Y0180669D01*
X0069485Y0180742D01*
X0069343Y0180818D01*
X0069204Y0180898D01*
X0069066Y0180981D01*
X0068931Y0181068D01*
X0068797Y0181158D01*
X0068666Y0181251D01*
X0068538Y0181347D01*
X0068412Y0181447D01*
X0068288Y0181550D01*
X0068167Y0181655D01*
X0068048Y0181764D01*
X0067932Y0181875D01*
X0067819Y0181990D01*
X0067709Y0182107D01*
X0067602Y0182227D01*
X0067498Y0182349D01*
X0067397Y0182474D01*
X0067299Y0182602D01*
X0067204Y0182732D01*
X0067112Y0182864D01*
X0067024Y0182998D01*
X0066939Y0183135D01*
X0066857Y0183273D01*
X0066779Y0183414D01*
X0066705Y0183556D01*
X0066634Y0183700D01*
X0066566Y0183846D01*
X0066503Y0183994D01*
X0066442Y0184143D01*
X0066386Y0184294D01*
X0066333Y0184446D01*
X0066284Y0184599D01*
X0066239Y0184753D01*
X0066198Y0184908D01*
X0066160Y0185065D01*
X0066127Y0185222D01*
X0066097Y0185380D01*
X0066071Y0185539D01*
X0066050Y0185698D01*
X0066032Y0185858D01*
X0066018Y0186018D01*
X0066008Y0186179D01*
X0066002Y0186339D01*
X0066000Y0186500D01*
D11*
X0131500Y0156500D03*
X0151500Y0156500D03*
X0181500Y0176500D03*
X0191500Y0176500D03*
X0166500Y0186500D03*
X0156500Y0186500D03*
X0171500Y0196500D03*
X0191500Y0196500D03*
X0216500Y0146500D03*
X0216500Y0136500D03*
X0216500Y0126500D03*
X0216500Y0116500D03*
X0206500Y0101500D03*
X0226500Y0101500D03*
X0236500Y0101500D03*
X0246500Y0116500D03*
X0246500Y0126500D03*
X0246500Y0136500D03*
X0246500Y0146500D03*
X0276500Y0146500D03*
X0276500Y0136500D03*
X0276500Y0126500D03*
X0276500Y0116500D03*
X0266500Y0101500D03*
X0256500Y0101500D03*
X0256500Y0081500D03*
X0266500Y0081500D03*
X0286500Y0081500D03*
X0281500Y0066500D03*
X0281500Y0056500D03*
X0271500Y0056500D03*
X0251500Y0056500D03*
X0241500Y0056500D03*
X0251500Y0066500D03*
X0236500Y0081500D03*
X0226500Y0081500D03*
X0221500Y0066500D03*
X0221500Y0056500D03*
X0211500Y0056500D03*
X0206500Y0081500D03*
X0171500Y0096500D03*
X0161500Y0096500D03*
X0161500Y0116500D03*
X0171500Y0116500D03*
X0101500Y0106500D03*
X0101500Y0096500D03*
X0081500Y0096500D03*
X0081500Y0106500D03*
X0081500Y0126500D03*
X0101500Y0126500D03*
X0046500Y0091500D03*
X0046500Y0081500D03*
X0026500Y0076500D03*
X0026500Y0086500D03*
X0081500Y0076500D03*
X0101500Y0076500D03*
X0101500Y0056500D03*
X0121500Y0056500D03*
X0121500Y0036500D03*
X0091500Y0036500D03*
X0081500Y0046500D03*
X0081500Y0056500D03*
X0286500Y0101500D03*
X0321500Y0076500D03*
X0321500Y0056500D03*
D12*
X0149100Y0076500D02*
X0143900Y0076500D01*
X0143900Y0086500D02*
X0149100Y0086500D01*
X0149100Y0096500D02*
X0143900Y0096500D01*
X0143900Y0106500D02*
X0149100Y0106500D01*
X0149100Y0116500D02*
X0143900Y0116500D01*
X0143900Y0126500D02*
X0149100Y0126500D01*
X0149100Y0136500D02*
X0143900Y0136500D01*
X0119100Y0136500D02*
X0113900Y0136500D01*
X0113900Y0126500D02*
X0119100Y0126500D01*
X0119100Y0116500D02*
X0113900Y0116500D01*
X0113900Y0106500D02*
X0119100Y0106500D01*
X0119100Y0096500D02*
X0113900Y0096500D01*
X0113900Y0086500D02*
X0119100Y0086500D01*
X0119100Y0076500D02*
X0113900Y0076500D01*
D13*
X0046500Y0103200D02*
X0046500Y0109800D01*
X0036500Y0109800D02*
X0036500Y0103200D01*
X0026500Y0103200D02*
X0026500Y0109800D01*
X0138200Y0176500D02*
X0144800Y0176500D01*
X0144800Y0186500D02*
X0138200Y0186500D01*
X0138200Y0196500D02*
X0144800Y0196500D01*
D14*
X0050437Y0058705D02*
X0042563Y0058705D01*
X0065398Y0050437D02*
X0065398Y0042563D01*
X0050437Y0034689D02*
X0042563Y0034689D01*
D15*
X0093500Y0136500D02*
X0099500Y0136500D01*
X0099500Y0146500D02*
X0093500Y0146500D01*
X0093500Y0156500D02*
X0099500Y0156500D01*
D16*
X0311500Y0076500D03*
D17*
X0271500Y0076500D01*
X0266500Y0081500D01*
X0266500Y0101500D01*
X0269437Y0098356D02*
X0283563Y0098356D01*
X0282565Y0099354D02*
X0270435Y0099354D01*
X0270800Y0099719D02*
X0270800Y0103281D01*
X0268281Y0105800D01*
X0264719Y0105800D01*
X0263700Y0104781D01*
X0263700Y0137411D01*
X0262411Y0138700D01*
X0250381Y0138700D01*
X0248281Y0140800D01*
X0244719Y0140800D01*
X0242200Y0138281D01*
X0242200Y0134719D01*
X0244719Y0132200D01*
X0248281Y0132200D01*
X0250381Y0134300D01*
X0259300Y0134300D01*
X0259300Y0104781D01*
X0258700Y0105381D01*
X0258700Y0117411D01*
X0257411Y0118700D01*
X0250381Y0118700D01*
X0248281Y0120800D01*
X0244719Y0120800D01*
X0242200Y0118281D01*
X0242200Y0114719D01*
X0244719Y0112200D01*
X0248281Y0112200D01*
X0250381Y0114300D01*
X0254300Y0114300D01*
X0254300Y0105381D01*
X0252200Y0103281D01*
X0252200Y0099719D01*
X0254719Y0097200D01*
X0258281Y0097200D01*
X0259300Y0098219D01*
X0259300Y0084781D01*
X0258281Y0085800D01*
X0254719Y0085800D01*
X0252200Y0083281D01*
X0252200Y0079719D01*
X0254719Y0077200D01*
X0258281Y0077200D01*
X0260381Y0079300D01*
X0262411Y0079300D01*
X0262515Y0079404D01*
X0264719Y0077200D01*
X0267689Y0077200D01*
X0269300Y0075589D01*
X0269300Y0060381D01*
X0267200Y0058281D01*
X0267200Y0054719D01*
X0269719Y0052200D01*
X0273281Y0052200D01*
X0275800Y0054719D01*
X0275800Y0058281D01*
X0273700Y0060381D01*
X0273700Y0074300D01*
X0307053Y0074300D01*
X0309553Y0071800D01*
X0313447Y0071800D01*
X0315947Y0074300D01*
X0317619Y0074300D01*
X0319719Y0072200D01*
X0323281Y0072200D01*
X0325800Y0074719D01*
X0325800Y0078281D01*
X0323281Y0080800D01*
X0319719Y0080800D01*
X0317619Y0078700D01*
X0315947Y0078700D01*
X0313447Y0081200D01*
X0309553Y0081200D01*
X0307053Y0078700D01*
X0289781Y0078700D01*
X0290381Y0079300D01*
X0292411Y0079300D01*
X0293700Y0080589D01*
X0293700Y0137411D01*
X0292411Y0138700D01*
X0280381Y0138700D01*
X0278281Y0140800D01*
X0274719Y0140800D01*
X0272200Y0138281D01*
X0272200Y0134719D01*
X0274719Y0132200D01*
X0278281Y0132200D01*
X0280381Y0134300D01*
X0289300Y0134300D01*
X0289300Y0104781D01*
X0288700Y0105381D01*
X0288700Y0117411D01*
X0287411Y0118700D01*
X0280381Y0118700D01*
X0278281Y0120800D01*
X0274719Y0120800D01*
X0272200Y0118281D01*
X0272200Y0114719D01*
X0274719Y0112200D01*
X0278281Y0112200D01*
X0280381Y0114300D01*
X0284300Y0114300D01*
X0284300Y0105381D01*
X0282200Y0103281D01*
X0282200Y0099719D01*
X0284719Y0097200D01*
X0288281Y0097200D01*
X0289300Y0098219D01*
X0289300Y0084781D01*
X0288281Y0085800D01*
X0284719Y0085800D01*
X0282200Y0083281D01*
X0282200Y0079719D01*
X0283219Y0078700D01*
X0272411Y0078700D01*
X0270800Y0080311D01*
X0270800Y0083281D01*
X0268700Y0085381D01*
X0268700Y0097619D01*
X0270800Y0099719D01*
X0270800Y0100353D02*
X0282200Y0100353D01*
X0282200Y0101351D02*
X0270800Y0101351D01*
X0270800Y0102350D02*
X0282200Y0102350D01*
X0282267Y0103348D02*
X0270733Y0103348D01*
X0269734Y0104347D02*
X0283266Y0104347D01*
X0284264Y0105345D02*
X0268736Y0105345D01*
X0264264Y0105345D02*
X0263700Y0105345D01*
X0263700Y0106344D02*
X0284300Y0106344D01*
X0284300Y0107342D02*
X0263700Y0107342D01*
X0263700Y0108341D02*
X0284300Y0108341D01*
X0284300Y0109339D02*
X0263700Y0109339D01*
X0263700Y0110338D02*
X0284300Y0110338D01*
X0284300Y0111336D02*
X0263700Y0111336D01*
X0263700Y0112335D02*
X0274584Y0112335D01*
X0273586Y0113333D02*
X0263700Y0113333D01*
X0263700Y0114332D02*
X0272587Y0114332D01*
X0272200Y0115330D02*
X0263700Y0115330D01*
X0263700Y0116329D02*
X0272200Y0116329D01*
X0272200Y0117327D02*
X0263700Y0117327D01*
X0263700Y0118326D02*
X0272245Y0118326D01*
X0273243Y0119324D02*
X0263700Y0119324D01*
X0263700Y0120323D02*
X0274242Y0120323D01*
X0274802Y0122400D02*
X0272400Y0124802D01*
X0272400Y0126200D01*
X0276200Y0126200D01*
X0276200Y0126800D01*
X0276200Y0130600D01*
X0274802Y0130600D01*
X0272400Y0128198D01*
X0272400Y0126800D01*
X0276200Y0126800D01*
X0276800Y0126800D01*
X0276800Y0130600D01*
X0278198Y0130600D01*
X0280600Y0128198D01*
X0280600Y0126800D01*
X0276800Y0126800D01*
X0276800Y0126200D01*
X0280600Y0126200D01*
X0280600Y0124802D01*
X0278198Y0122400D01*
X0276800Y0122400D01*
X0276800Y0126200D01*
X0276200Y0126200D01*
X0276200Y0122400D01*
X0274802Y0122400D01*
X0273883Y0123318D02*
X0263700Y0123318D01*
X0263700Y0122320D02*
X0289300Y0122320D01*
X0289300Y0123318D02*
X0279117Y0123318D01*
X0280115Y0124317D02*
X0289300Y0124317D01*
X0289300Y0125315D02*
X0280600Y0125315D01*
X0280600Y0127312D02*
X0289300Y0127312D01*
X0289300Y0126314D02*
X0276800Y0126314D01*
X0276200Y0126314D02*
X0263700Y0126314D01*
X0263700Y0127312D02*
X0272400Y0127312D01*
X0272513Y0128311D02*
X0263700Y0128311D01*
X0263700Y0129309D02*
X0273511Y0129309D01*
X0274510Y0130308D02*
X0263700Y0130308D01*
X0263700Y0131306D02*
X0289300Y0131306D01*
X0289300Y0130308D02*
X0278490Y0130308D01*
X0279489Y0129309D02*
X0289300Y0129309D01*
X0289300Y0128311D02*
X0280487Y0128311D01*
X0276800Y0128311D02*
X0276200Y0128311D01*
X0276200Y0129309D02*
X0276800Y0129309D01*
X0276800Y0130308D02*
X0276200Y0130308D01*
X0274614Y0132305D02*
X0263700Y0132305D01*
X0263700Y0133303D02*
X0273615Y0133303D01*
X0272617Y0134302D02*
X0263700Y0134302D01*
X0263700Y0135301D02*
X0272200Y0135301D01*
X0272200Y0136299D02*
X0263700Y0136299D01*
X0263700Y0137298D02*
X0272200Y0137298D01*
X0272215Y0138296D02*
X0262815Y0138296D01*
X0261500Y0136500D02*
X0246500Y0136500D01*
X0242200Y0136299D02*
X0233700Y0136299D01*
X0233700Y0135301D02*
X0242200Y0135301D01*
X0242617Y0134302D02*
X0233700Y0134302D01*
X0233700Y0133303D02*
X0243615Y0133303D01*
X0244614Y0132305D02*
X0233700Y0132305D01*
X0233700Y0131306D02*
X0259300Y0131306D01*
X0259300Y0130308D02*
X0248490Y0130308D01*
X0248198Y0130600D02*
X0246800Y0130600D01*
X0246800Y0126800D01*
X0246200Y0126800D01*
X0246200Y0130600D01*
X0244802Y0130600D01*
X0242400Y0128198D01*
X0242400Y0126800D01*
X0246200Y0126800D01*
X0246200Y0126200D01*
X0242400Y0126200D01*
X0242400Y0124802D01*
X0244802Y0122400D01*
X0246200Y0122400D01*
X0246200Y0126200D01*
X0246800Y0126200D01*
X0246800Y0126800D01*
X0250600Y0126800D01*
X0250600Y0128198D01*
X0248198Y0130600D01*
X0246800Y0130308D02*
X0246200Y0130308D01*
X0246200Y0129309D02*
X0246800Y0129309D01*
X0246800Y0128311D02*
X0246200Y0128311D01*
X0246200Y0127312D02*
X0246800Y0127312D01*
X0246800Y0126314D02*
X0259300Y0126314D01*
X0259300Y0127312D02*
X0250600Y0127312D01*
X0250487Y0128311D02*
X0259300Y0128311D01*
X0259300Y0129309D02*
X0249489Y0129309D01*
X0248386Y0132305D02*
X0259300Y0132305D01*
X0259300Y0133303D02*
X0249385Y0133303D01*
X0244510Y0130308D02*
X0233700Y0130308D01*
X0233700Y0129309D02*
X0243511Y0129309D01*
X0242513Y0128311D02*
X0233700Y0128311D01*
X0233700Y0127312D02*
X0242400Y0127312D01*
X0242400Y0125315D02*
X0233700Y0125315D01*
X0233700Y0124317D02*
X0242885Y0124317D01*
X0243883Y0123318D02*
X0233700Y0123318D01*
X0233700Y0122320D02*
X0259300Y0122320D01*
X0259300Y0123318D02*
X0249117Y0123318D01*
X0248198Y0122400D02*
X0250600Y0124802D01*
X0250600Y0126200D01*
X0246800Y0126200D01*
X0246800Y0122400D01*
X0248198Y0122400D01*
X0246800Y0123318D02*
X0246200Y0123318D01*
X0246200Y0124317D02*
X0246800Y0124317D01*
X0246800Y0125315D02*
X0246200Y0125315D01*
X0246200Y0126314D02*
X0233700Y0126314D01*
X0233700Y0121321D02*
X0259300Y0121321D01*
X0259300Y0120323D02*
X0248758Y0120323D01*
X0249757Y0119324D02*
X0259300Y0119324D01*
X0259300Y0118326D02*
X0257785Y0118326D01*
X0258700Y0117327D02*
X0259300Y0117327D01*
X0259300Y0116329D02*
X0258700Y0116329D01*
X0258700Y0115330D02*
X0259300Y0115330D01*
X0259300Y0114332D02*
X0258700Y0114332D01*
X0258700Y0113333D02*
X0259300Y0113333D01*
X0259300Y0112335D02*
X0258700Y0112335D01*
X0258700Y0111336D02*
X0259300Y0111336D01*
X0259300Y0110338D02*
X0258700Y0110338D01*
X0258700Y0109339D02*
X0259300Y0109339D01*
X0259300Y0108341D02*
X0258700Y0108341D01*
X0258700Y0107342D02*
X0259300Y0107342D01*
X0259300Y0106344D02*
X0258700Y0106344D01*
X0258736Y0105345D02*
X0259300Y0105345D01*
X0256500Y0101500D02*
X0256500Y0116500D01*
X0246500Y0116500D01*
X0242200Y0116329D02*
X0233700Y0116329D01*
X0233700Y0117327D02*
X0242200Y0117327D01*
X0242245Y0118326D02*
X0233700Y0118326D01*
X0233700Y0119324D02*
X0243243Y0119324D01*
X0244242Y0120323D02*
X0233700Y0120323D01*
X0229300Y0120323D02*
X0218758Y0120323D01*
X0218281Y0120800D02*
X0214719Y0120800D01*
X0212200Y0118281D01*
X0212200Y0114719D01*
X0214719Y0112200D01*
X0218281Y0112200D01*
X0220381Y0114300D01*
X0224300Y0114300D01*
X0224300Y0105381D01*
X0222200Y0103281D01*
X0222200Y0099719D01*
X0224719Y0097200D01*
X0228281Y0097200D01*
X0229300Y0098219D01*
X0229300Y0084781D01*
X0228281Y0085800D01*
X0224719Y0085800D01*
X0222200Y0083281D01*
X0222200Y0079719D01*
X0224719Y0077200D01*
X0228281Y0077200D01*
X0230381Y0079300D01*
X0232411Y0079300D01*
X0232515Y0079404D01*
X0234719Y0077200D01*
X0237689Y0077200D01*
X0239300Y0075589D01*
X0239300Y0060381D01*
X0237200Y0058281D01*
X0237200Y0054719D01*
X0239719Y0052200D01*
X0243281Y0052200D01*
X0245800Y0054719D01*
X0245800Y0058281D01*
X0243700Y0060381D01*
X0243700Y0077411D01*
X0240800Y0080311D01*
X0240800Y0083281D01*
X0238700Y0085381D01*
X0238700Y0097619D01*
X0240800Y0099719D01*
X0240800Y0103281D01*
X0238281Y0105800D01*
X0234719Y0105800D01*
X0233700Y0104781D01*
X0233700Y0137411D01*
X0232411Y0138700D01*
X0220381Y0138700D01*
X0218281Y0140800D01*
X0214719Y0140800D01*
X0212200Y0138281D01*
X0212200Y0134719D01*
X0214719Y0132200D01*
X0218281Y0132200D01*
X0220381Y0134300D01*
X0229300Y0134300D01*
X0229300Y0104781D01*
X0228700Y0105381D01*
X0228700Y0117411D01*
X0227411Y0118700D01*
X0220381Y0118700D01*
X0218281Y0120800D01*
X0218198Y0122400D02*
X0220600Y0124802D01*
X0220600Y0126200D01*
X0216800Y0126200D01*
X0216800Y0126800D01*
X0216200Y0126800D01*
X0216200Y0130600D01*
X0214802Y0130600D01*
X0212400Y0128198D01*
X0212400Y0126800D01*
X0216200Y0126800D01*
X0216200Y0126200D01*
X0212400Y0126200D01*
X0212400Y0124802D01*
X0214802Y0122400D01*
X0216200Y0122400D01*
X0216200Y0126200D01*
X0216800Y0126200D01*
X0216800Y0122400D01*
X0218198Y0122400D01*
X0219117Y0123318D02*
X0229300Y0123318D01*
X0229300Y0122320D02*
X0198700Y0122320D01*
X0198700Y0123318D02*
X0213883Y0123318D01*
X0212885Y0124317D02*
X0198700Y0124317D01*
X0198700Y0125315D02*
X0212400Y0125315D01*
X0212400Y0127312D02*
X0198700Y0127312D01*
X0198700Y0126314D02*
X0216200Y0126314D01*
X0216800Y0126314D02*
X0229300Y0126314D01*
X0229300Y0127312D02*
X0220600Y0127312D01*
X0220600Y0126800D02*
X0220600Y0128198D01*
X0218198Y0130600D01*
X0216800Y0130600D01*
X0216800Y0126800D01*
X0220600Y0126800D01*
X0220600Y0125315D02*
X0229300Y0125315D01*
X0229300Y0124317D02*
X0220115Y0124317D01*
X0216800Y0124317D02*
X0216200Y0124317D01*
X0216200Y0125315D02*
X0216800Y0125315D01*
X0216800Y0123318D02*
X0216200Y0123318D01*
X0214242Y0120323D02*
X0198700Y0120323D01*
X0198700Y0121321D02*
X0229300Y0121321D01*
X0229300Y0119324D02*
X0219757Y0119324D01*
X0216500Y0116500D02*
X0226500Y0116500D01*
X0226500Y0101500D01*
X0223563Y0098356D02*
X0209437Y0098356D01*
X0208700Y0097619D02*
X0210800Y0099719D01*
X0210800Y0103281D01*
X0208281Y0105800D01*
X0204719Y0105800D01*
X0202200Y0103281D01*
X0202200Y0099719D01*
X0204300Y0097619D01*
X0204300Y0085381D01*
X0202200Y0083281D01*
X0202200Y0079719D01*
X0204719Y0077200D01*
X0207689Y0077200D01*
X0209300Y0075589D01*
X0209300Y0060381D01*
X0207200Y0058281D01*
X0207200Y0054719D01*
X0209719Y0052200D01*
X0213281Y0052200D01*
X0215800Y0054719D01*
X0215800Y0058281D01*
X0213700Y0060381D01*
X0213700Y0077411D01*
X0212411Y0078700D01*
X0210800Y0080311D01*
X0210800Y0083281D01*
X0208700Y0085381D01*
X0208700Y0097619D01*
X0208700Y0097357D02*
X0224562Y0097357D01*
X0222565Y0099354D02*
X0210435Y0099354D01*
X0210800Y0100353D02*
X0222200Y0100353D01*
X0222200Y0101351D02*
X0210800Y0101351D01*
X0210800Y0102350D02*
X0222200Y0102350D01*
X0222267Y0103348D02*
X0210733Y0103348D01*
X0209734Y0104347D02*
X0223266Y0104347D01*
X0224264Y0105345D02*
X0208736Y0105345D01*
X0206500Y0101500D02*
X0206500Y0081500D01*
X0211500Y0076500D01*
X0211500Y0056500D01*
X0214504Y0053423D02*
X0218496Y0053423D01*
X0219300Y0052619D02*
X0219300Y0048700D01*
X0198700Y0048700D01*
X0198700Y0147411D01*
X0197411Y0148700D01*
X0115589Y0148700D01*
X0114300Y0147411D01*
X0114300Y0140800D01*
X0113045Y0140800D01*
X0111464Y0140145D01*
X0110255Y0138936D01*
X0109600Y0137355D01*
X0109600Y0135645D01*
X0110255Y0134064D01*
X0111464Y0132855D01*
X0113045Y0132200D01*
X0119955Y0132200D01*
X0121536Y0132855D01*
X0122745Y0134064D01*
X0123400Y0135645D01*
X0123400Y0137355D01*
X0122745Y0138936D01*
X0121536Y0140145D01*
X0119955Y0140800D01*
X0118700Y0140800D01*
X0118700Y0144300D01*
X0194300Y0144300D01*
X0194300Y0045589D01*
X0195589Y0044300D01*
X0222411Y0044300D01*
X0223700Y0045589D01*
X0223700Y0052619D01*
X0225800Y0054719D01*
X0225800Y0058281D01*
X0223281Y0060800D01*
X0219719Y0060800D01*
X0217200Y0058281D01*
X0217200Y0054719D01*
X0219300Y0052619D01*
X0219300Y0052424D02*
X0213505Y0052424D01*
X0215502Y0054421D02*
X0217498Y0054421D01*
X0217200Y0055420D02*
X0215800Y0055420D01*
X0215800Y0056418D02*
X0217200Y0056418D01*
X0217200Y0057417D02*
X0215800Y0057417D01*
X0215666Y0058415D02*
X0217334Y0058415D01*
X0218333Y0059414D02*
X0214667Y0059414D01*
X0213700Y0060412D02*
X0219331Y0060412D01*
X0219719Y0062200D02*
X0223281Y0062200D01*
X0225800Y0064719D01*
X0225800Y0068281D01*
X0223281Y0070800D01*
X0219719Y0070800D01*
X0217200Y0068281D01*
X0217200Y0064719D01*
X0219719Y0062200D01*
X0219510Y0062409D02*
X0213700Y0062409D01*
X0213700Y0061411D02*
X0239300Y0061411D01*
X0239300Y0062409D02*
X0223490Y0062409D01*
X0224489Y0063408D02*
X0239300Y0063408D01*
X0239300Y0064406D02*
X0225487Y0064406D01*
X0225800Y0065405D02*
X0239300Y0065405D01*
X0239300Y0066403D02*
X0225800Y0066403D01*
X0225800Y0067402D02*
X0239300Y0067402D01*
X0239300Y0068400D02*
X0225681Y0068400D01*
X0224682Y0069399D02*
X0239300Y0069399D01*
X0239300Y0070397D02*
X0223684Y0070397D01*
X0219316Y0070397D02*
X0213700Y0070397D01*
X0213700Y0069399D02*
X0218318Y0069399D01*
X0217319Y0068400D02*
X0213700Y0068400D01*
X0213700Y0067402D02*
X0217200Y0067402D01*
X0217200Y0066403D02*
X0213700Y0066403D01*
X0213700Y0065405D02*
X0217200Y0065405D01*
X0217513Y0064406D02*
X0213700Y0064406D01*
X0213700Y0063408D02*
X0218511Y0063408D01*
X0223669Y0060412D02*
X0239300Y0060412D01*
X0238333Y0059414D02*
X0224667Y0059414D01*
X0225666Y0058415D02*
X0237334Y0058415D01*
X0237200Y0057417D02*
X0225800Y0057417D01*
X0225800Y0056418D02*
X0237200Y0056418D01*
X0237200Y0055420D02*
X0225800Y0055420D01*
X0225502Y0054421D02*
X0237498Y0054421D01*
X0238496Y0053423D02*
X0224504Y0053423D01*
X0223700Y0052424D02*
X0239495Y0052424D01*
X0241500Y0056500D02*
X0241500Y0076500D01*
X0236500Y0081500D01*
X0236500Y0101500D01*
X0239437Y0098356D02*
X0253563Y0098356D01*
X0252565Y0099354D02*
X0240435Y0099354D01*
X0240800Y0100353D02*
X0252200Y0100353D01*
X0252200Y0101351D02*
X0240800Y0101351D01*
X0240800Y0102350D02*
X0252200Y0102350D01*
X0252267Y0103348D02*
X0240733Y0103348D01*
X0239734Y0104347D02*
X0253266Y0104347D01*
X0254264Y0105345D02*
X0238736Y0105345D01*
X0234264Y0105345D02*
X0233700Y0105345D01*
X0233700Y0106344D02*
X0254300Y0106344D01*
X0254300Y0107342D02*
X0233700Y0107342D01*
X0233700Y0108341D02*
X0254300Y0108341D01*
X0254300Y0109339D02*
X0233700Y0109339D01*
X0233700Y0110338D02*
X0254300Y0110338D01*
X0254300Y0111336D02*
X0233700Y0111336D01*
X0233700Y0112335D02*
X0244584Y0112335D01*
X0243586Y0113333D02*
X0233700Y0113333D01*
X0233700Y0114332D02*
X0242587Y0114332D01*
X0242200Y0115330D02*
X0233700Y0115330D01*
X0229300Y0115330D02*
X0228700Y0115330D01*
X0228700Y0114332D02*
X0229300Y0114332D01*
X0229300Y0113333D02*
X0228700Y0113333D01*
X0228700Y0112335D02*
X0229300Y0112335D01*
X0229300Y0111336D02*
X0228700Y0111336D01*
X0228700Y0110338D02*
X0229300Y0110338D01*
X0229300Y0109339D02*
X0228700Y0109339D01*
X0228700Y0108341D02*
X0229300Y0108341D01*
X0229300Y0107342D02*
X0228700Y0107342D01*
X0228700Y0106344D02*
X0229300Y0106344D01*
X0229300Y0105345D02*
X0228736Y0105345D01*
X0224300Y0106344D02*
X0198700Y0106344D01*
X0198700Y0107342D02*
X0224300Y0107342D01*
X0224300Y0108341D02*
X0198700Y0108341D01*
X0198700Y0109339D02*
X0224300Y0109339D01*
X0224300Y0110338D02*
X0198700Y0110338D01*
X0198700Y0111336D02*
X0224300Y0111336D01*
X0224300Y0112335D02*
X0218416Y0112335D01*
X0219414Y0113333D02*
X0224300Y0113333D01*
X0228700Y0116329D02*
X0229300Y0116329D01*
X0229300Y0117327D02*
X0228700Y0117327D01*
X0229300Y0118326D02*
X0227785Y0118326D01*
X0229300Y0128311D02*
X0220487Y0128311D01*
X0219489Y0129309D02*
X0229300Y0129309D01*
X0229300Y0130308D02*
X0218490Y0130308D01*
X0216800Y0130308D02*
X0216200Y0130308D01*
X0216200Y0129309D02*
X0216800Y0129309D01*
X0216800Y0128311D02*
X0216200Y0128311D01*
X0216200Y0127312D02*
X0216800Y0127312D01*
X0214510Y0130308D02*
X0198700Y0130308D01*
X0198700Y0131306D02*
X0229300Y0131306D01*
X0229300Y0132305D02*
X0218386Y0132305D01*
X0219385Y0133303D02*
X0229300Y0133303D01*
X0231500Y0136500D02*
X0216500Y0136500D01*
X0213615Y0133303D02*
X0198700Y0133303D01*
X0198700Y0132305D02*
X0214614Y0132305D01*
X0212617Y0134302D02*
X0198700Y0134302D01*
X0198700Y0135301D02*
X0212200Y0135301D01*
X0212200Y0136299D02*
X0198700Y0136299D01*
X0198700Y0137298D02*
X0212200Y0137298D01*
X0212215Y0138296D02*
X0198700Y0138296D01*
X0198700Y0139295D02*
X0213213Y0139295D01*
X0214212Y0140293D02*
X0198700Y0140293D01*
X0198700Y0141292D02*
X0330701Y0141292D01*
X0330701Y0142290D02*
X0198700Y0142290D01*
X0198700Y0143289D02*
X0213913Y0143289D01*
X0214802Y0142400D02*
X0212400Y0144802D01*
X0212400Y0146200D01*
X0216200Y0146200D01*
X0216200Y0146800D01*
X0216200Y0150600D01*
X0214802Y0150600D01*
X0212400Y0148198D01*
X0212400Y0146800D01*
X0216200Y0146800D01*
X0216800Y0146800D01*
X0216800Y0150600D01*
X0218198Y0150600D01*
X0220600Y0148198D01*
X0220600Y0146800D01*
X0216800Y0146800D01*
X0216800Y0146200D01*
X0220600Y0146200D01*
X0220600Y0144802D01*
X0218198Y0142400D01*
X0216800Y0142400D01*
X0216800Y0146200D01*
X0216200Y0146200D01*
X0216200Y0142400D01*
X0214802Y0142400D01*
X0216200Y0143289D02*
X0216800Y0143289D01*
X0216800Y0144287D02*
X0216200Y0144287D01*
X0216200Y0145286D02*
X0216800Y0145286D01*
X0216800Y0146284D02*
X0246200Y0146284D01*
X0246200Y0146200D02*
X0242400Y0146200D01*
X0242400Y0144802D01*
X0244802Y0142400D01*
X0246200Y0142400D01*
X0246200Y0146200D01*
X0246200Y0146800D01*
X0246200Y0150600D01*
X0244802Y0150600D01*
X0242400Y0148198D01*
X0242400Y0146800D01*
X0246200Y0146800D01*
X0246800Y0146800D01*
X0246800Y0150600D01*
X0248198Y0150600D01*
X0250600Y0148198D01*
X0250600Y0146800D01*
X0246800Y0146800D01*
X0246800Y0146200D01*
X0250600Y0146200D01*
X0250600Y0144802D01*
X0248198Y0142400D01*
X0246800Y0142400D01*
X0246800Y0146200D01*
X0246200Y0146200D01*
X0246800Y0146284D02*
X0276200Y0146284D01*
X0276200Y0146200D02*
X0272400Y0146200D01*
X0272400Y0144802D01*
X0274802Y0142400D01*
X0276200Y0142400D01*
X0276200Y0146200D01*
X0276200Y0146800D01*
X0276200Y0150600D01*
X0274802Y0150600D01*
X0272400Y0148198D01*
X0272400Y0146800D01*
X0276200Y0146800D01*
X0276800Y0146800D01*
X0276800Y0150600D01*
X0278198Y0150600D01*
X0280600Y0148198D01*
X0280600Y0146800D01*
X0276800Y0146800D01*
X0276800Y0146200D01*
X0280600Y0146200D01*
X0280600Y0144802D01*
X0278198Y0142400D01*
X0276800Y0142400D01*
X0276800Y0146200D01*
X0276200Y0146200D01*
X0276800Y0146284D02*
X0330701Y0146284D01*
X0330701Y0145286D02*
X0280600Y0145286D01*
X0280085Y0144287D02*
X0330701Y0144287D01*
X0330701Y0143289D02*
X0279087Y0143289D01*
X0276800Y0143289D02*
X0276200Y0143289D01*
X0276200Y0144287D02*
X0276800Y0144287D01*
X0276800Y0145286D02*
X0276200Y0145286D01*
X0276200Y0147283D02*
X0276800Y0147283D01*
X0276800Y0148281D02*
X0276200Y0148281D01*
X0276200Y0149280D02*
X0276800Y0149280D01*
X0276800Y0150278D02*
X0276200Y0150278D01*
X0274480Y0150278D02*
X0248520Y0150278D01*
X0249519Y0149280D02*
X0273481Y0149280D01*
X0272483Y0148281D02*
X0250517Y0148281D01*
X0250600Y0147283D02*
X0272400Y0147283D01*
X0272400Y0145286D02*
X0250600Y0145286D01*
X0250085Y0144287D02*
X0272915Y0144287D01*
X0273913Y0143289D02*
X0249087Y0143289D01*
X0246800Y0143289D02*
X0246200Y0143289D01*
X0246200Y0144287D02*
X0246800Y0144287D01*
X0246800Y0145286D02*
X0246200Y0145286D01*
X0246200Y0147283D02*
X0246800Y0147283D01*
X0246800Y0148281D02*
X0246200Y0148281D01*
X0246200Y0149280D02*
X0246800Y0149280D01*
X0246800Y0150278D02*
X0246200Y0150278D01*
X0244480Y0150278D02*
X0218520Y0150278D01*
X0219519Y0149280D02*
X0243481Y0149280D01*
X0242483Y0148281D02*
X0220517Y0148281D01*
X0220600Y0147283D02*
X0242400Y0147283D01*
X0242400Y0145286D02*
X0220600Y0145286D01*
X0220085Y0144287D02*
X0242915Y0144287D01*
X0243913Y0143289D02*
X0219087Y0143289D01*
X0218788Y0140293D02*
X0244212Y0140293D01*
X0243213Y0139295D02*
X0219787Y0139295D01*
X0216200Y0146284D02*
X0198700Y0146284D01*
X0198700Y0145286D02*
X0212400Y0145286D01*
X0212915Y0144287D02*
X0198700Y0144287D01*
X0196500Y0146500D02*
X0116500Y0146500D01*
X0116500Y0136500D01*
X0120209Y0132305D02*
X0142791Y0132305D01*
X0143045Y0132200D02*
X0149955Y0132200D01*
X0151536Y0132855D01*
X0152745Y0134064D01*
X0152843Y0134300D01*
X0189300Y0134300D01*
X0189300Y0040589D01*
X0190589Y0039300D01*
X0252411Y0039300D01*
X0253700Y0040589D01*
X0253700Y0052619D01*
X0255800Y0054719D01*
X0255800Y0058281D01*
X0253281Y0060800D01*
X0249719Y0060800D01*
X0247200Y0058281D01*
X0247200Y0054719D01*
X0249300Y0052619D01*
X0249300Y0043700D01*
X0193700Y0043700D01*
X0193700Y0137411D01*
X0192411Y0138700D01*
X0152843Y0138700D01*
X0152745Y0138936D01*
X0151536Y0140145D01*
X0149955Y0140800D01*
X0143045Y0140800D01*
X0141464Y0140145D01*
X0140255Y0138936D01*
X0139600Y0137355D01*
X0139600Y0135645D01*
X0140255Y0134064D01*
X0141464Y0132855D01*
X0143045Y0132200D01*
X0143045Y0130800D02*
X0141464Y0130145D01*
X0140255Y0128936D01*
X0140157Y0128700D01*
X0122843Y0128700D01*
X0122745Y0128936D01*
X0121536Y0130145D01*
X0119955Y0130800D01*
X0113045Y0130800D01*
X0111464Y0130145D01*
X0110255Y0128936D01*
X0110157Y0128700D01*
X0108700Y0128700D01*
X0108700Y0137411D01*
X0107411Y0138700D01*
X0103676Y0138700D01*
X0103484Y0139162D01*
X0102162Y0140484D01*
X0100435Y0141200D01*
X0092565Y0141200D01*
X0090838Y0140484D01*
X0089516Y0139162D01*
X0088800Y0137435D01*
X0088800Y0135565D01*
X0089516Y0133838D01*
X0090838Y0132516D01*
X0092565Y0131800D01*
X0100435Y0131800D01*
X0102162Y0132516D01*
X0103484Y0133838D01*
X0103676Y0134300D01*
X0104300Y0134300D01*
X0104300Y0129781D01*
X0103281Y0130800D01*
X0099719Y0130800D01*
X0097200Y0128281D01*
X0097200Y0124719D01*
X0099300Y0122619D01*
X0099300Y0120589D01*
X0100589Y0119300D01*
X0110619Y0119300D01*
X0110255Y0118936D01*
X0110157Y0118700D01*
X0100589Y0118700D01*
X0099300Y0117411D01*
X0099300Y0110381D01*
X0097619Y0108700D01*
X0085381Y0108700D01*
X0083281Y0110800D01*
X0079719Y0110800D01*
X0077200Y0108281D01*
X0077200Y0104719D01*
X0079719Y0102200D01*
X0083281Y0102200D01*
X0085381Y0104300D01*
X0097619Y0104300D01*
X0099719Y0102200D01*
X0103281Y0102200D01*
X0105800Y0104719D01*
X0105800Y0108281D01*
X0103700Y0110381D01*
X0103700Y0114300D01*
X0110157Y0114300D01*
X0110255Y0114064D01*
X0111464Y0112855D01*
X0113045Y0112200D01*
X0119955Y0112200D01*
X0121536Y0112855D01*
X0122745Y0114064D01*
X0123400Y0115645D01*
X0123400Y0117355D01*
X0122745Y0118936D01*
X0122381Y0119300D01*
X0129300Y0119300D01*
X0129300Y0080589D01*
X0130589Y0079300D01*
X0140619Y0079300D01*
X0140255Y0078936D01*
X0139600Y0077355D01*
X0139600Y0075645D01*
X0140255Y0074064D01*
X0141464Y0072855D01*
X0143045Y0072200D01*
X0149955Y0072200D01*
X0151536Y0072855D01*
X0152745Y0074064D01*
X0152843Y0074300D01*
X0184300Y0074300D01*
X0184300Y0035589D01*
X0185589Y0034300D01*
X0282411Y0034300D01*
X0283700Y0035589D01*
X0283700Y0052619D01*
X0285800Y0054719D01*
X0285800Y0058281D01*
X0283281Y0060800D01*
X0279719Y0060800D01*
X0277200Y0058281D01*
X0277200Y0054719D01*
X0279300Y0052619D01*
X0279300Y0038700D01*
X0188700Y0038700D01*
X0188700Y0077411D01*
X0187411Y0078700D01*
X0152843Y0078700D01*
X0152745Y0078936D01*
X0152381Y0079300D01*
X0177411Y0079300D01*
X0178700Y0080589D01*
X0178700Y0122411D01*
X0177411Y0123700D01*
X0160589Y0123700D01*
X0159300Y0122411D01*
X0159300Y0120381D01*
X0157619Y0118700D01*
X0152843Y0118700D01*
X0152745Y0118936D01*
X0151536Y0120145D01*
X0149955Y0120800D01*
X0143045Y0120800D01*
X0141464Y0120145D01*
X0140255Y0118936D01*
X0139600Y0117355D01*
X0139600Y0115645D01*
X0140255Y0114064D01*
X0141464Y0112855D01*
X0143045Y0112200D01*
X0149955Y0112200D01*
X0151536Y0112855D01*
X0152745Y0114064D01*
X0152843Y0114300D01*
X0157619Y0114300D01*
X0159719Y0112200D01*
X0163281Y0112200D01*
X0165800Y0114719D01*
X0165800Y0118281D01*
X0164781Y0119300D01*
X0168502Y0119300D01*
X0167400Y0118198D01*
X0167400Y0116800D01*
X0171200Y0116800D01*
X0171200Y0116200D01*
X0171800Y0116200D01*
X0171800Y0112400D01*
X0173198Y0112400D01*
X0174300Y0113502D01*
X0174300Y0099781D01*
X0173281Y0100800D01*
X0169719Y0100800D01*
X0167619Y0098700D01*
X0165381Y0098700D01*
X0163281Y0100800D01*
X0159719Y0100800D01*
X0157200Y0098281D01*
X0157200Y0094719D01*
X0158219Y0093700D01*
X0152381Y0093700D01*
X0152745Y0094064D01*
X0153400Y0095645D01*
X0153400Y0097355D01*
X0152745Y0098936D01*
X0151536Y0100145D01*
X0149955Y0100800D01*
X0143045Y0100800D01*
X0141464Y0100145D01*
X0140255Y0098936D01*
X0139600Y0097355D01*
X0139600Y0095645D01*
X0140255Y0094064D01*
X0141464Y0092855D01*
X0143045Y0092200D01*
X0144300Y0092200D01*
X0144300Y0090800D01*
X0143045Y0090800D01*
X0141464Y0090145D01*
X0140255Y0088936D01*
X0140157Y0088700D01*
X0138700Y0088700D01*
X0138700Y0124300D01*
X0140157Y0124300D01*
X0140255Y0124064D01*
X0141464Y0122855D01*
X0143045Y0122200D01*
X0149955Y0122200D01*
X0151536Y0122855D01*
X0152745Y0124064D01*
X0153400Y0125645D01*
X0153400Y0127355D01*
X0152745Y0128936D01*
X0151536Y0130145D01*
X0149955Y0130800D01*
X0143045Y0130800D01*
X0141857Y0130308D02*
X0121143Y0130308D01*
X0122372Y0129309D02*
X0140628Y0129309D01*
X0141015Y0133303D02*
X0121985Y0133303D01*
X0122844Y0134302D02*
X0140156Y0134302D01*
X0139743Y0135301D02*
X0123257Y0135301D01*
X0123400Y0136299D02*
X0139600Y0136299D01*
X0139600Y0137298D02*
X0123400Y0137298D01*
X0123010Y0138296D02*
X0139990Y0138296D01*
X0140613Y0139295D02*
X0122387Y0139295D01*
X0121179Y0140293D02*
X0141821Y0140293D01*
X0146500Y0136500D02*
X0191500Y0136500D01*
X0191500Y0041500D01*
X0251500Y0041500D01*
X0251500Y0056500D01*
X0254504Y0053423D02*
X0268496Y0053423D01*
X0267498Y0054421D02*
X0255502Y0054421D01*
X0255800Y0055420D02*
X0267200Y0055420D01*
X0267200Y0056418D02*
X0255800Y0056418D01*
X0255800Y0057417D02*
X0267200Y0057417D01*
X0267334Y0058415D02*
X0255666Y0058415D01*
X0254667Y0059414D02*
X0268333Y0059414D01*
X0269300Y0060412D02*
X0253669Y0060412D01*
X0253281Y0062200D02*
X0255800Y0064719D01*
X0255800Y0068281D01*
X0253281Y0070800D01*
X0249719Y0070800D01*
X0247200Y0068281D01*
X0247200Y0064719D01*
X0249719Y0062200D01*
X0253281Y0062200D01*
X0253490Y0062409D02*
X0269300Y0062409D01*
X0269300Y0061411D02*
X0243700Y0061411D01*
X0243700Y0062409D02*
X0249510Y0062409D01*
X0248511Y0063408D02*
X0243700Y0063408D01*
X0243700Y0064406D02*
X0247513Y0064406D01*
X0247200Y0065405D02*
X0243700Y0065405D01*
X0243700Y0066403D02*
X0247200Y0066403D01*
X0247200Y0067402D02*
X0243700Y0067402D01*
X0243700Y0068400D02*
X0247319Y0068400D01*
X0248318Y0069399D02*
X0243700Y0069399D01*
X0243700Y0070397D02*
X0249316Y0070397D01*
X0243700Y0071396D02*
X0269300Y0071396D01*
X0269300Y0072394D02*
X0243700Y0072394D01*
X0243700Y0073393D02*
X0269300Y0073393D01*
X0269300Y0074391D02*
X0243700Y0074391D01*
X0243700Y0075390D02*
X0269300Y0075390D01*
X0268500Y0076388D02*
X0243700Y0076388D01*
X0243700Y0077387D02*
X0254532Y0077387D01*
X0253534Y0078385D02*
X0242726Y0078385D01*
X0241727Y0079384D02*
X0252535Y0079384D01*
X0252200Y0080382D02*
X0240800Y0080382D01*
X0240800Y0081381D02*
X0252200Y0081381D01*
X0252200Y0082379D02*
X0240800Y0082379D01*
X0240703Y0083378D02*
X0252297Y0083378D01*
X0253295Y0084376D02*
X0239705Y0084376D01*
X0238706Y0085375D02*
X0254294Y0085375D01*
X0258706Y0085375D02*
X0259300Y0085375D01*
X0259300Y0086373D02*
X0238700Y0086373D01*
X0238700Y0087372D02*
X0259300Y0087372D01*
X0259300Y0088370D02*
X0238700Y0088370D01*
X0238700Y0089369D02*
X0259300Y0089369D01*
X0259300Y0090368D02*
X0238700Y0090368D01*
X0238700Y0091366D02*
X0259300Y0091366D01*
X0259300Y0092365D02*
X0238700Y0092365D01*
X0238700Y0093363D02*
X0259300Y0093363D01*
X0259300Y0094362D02*
X0238700Y0094362D01*
X0238700Y0095360D02*
X0259300Y0095360D01*
X0259300Y0096359D02*
X0238700Y0096359D01*
X0238700Y0097357D02*
X0254562Y0097357D01*
X0258438Y0097357D02*
X0259300Y0097357D01*
X0268700Y0097357D02*
X0284562Y0097357D01*
X0288438Y0097357D02*
X0289300Y0097357D01*
X0289300Y0096359D02*
X0268700Y0096359D01*
X0268700Y0095360D02*
X0289300Y0095360D01*
X0289300Y0094362D02*
X0268700Y0094362D01*
X0268700Y0093363D02*
X0289300Y0093363D01*
X0289300Y0092365D02*
X0268700Y0092365D01*
X0268700Y0091366D02*
X0289300Y0091366D01*
X0289300Y0090368D02*
X0268700Y0090368D01*
X0268700Y0089369D02*
X0289300Y0089369D01*
X0289300Y0088370D02*
X0268700Y0088370D01*
X0268700Y0087372D02*
X0289300Y0087372D01*
X0289300Y0086373D02*
X0268700Y0086373D01*
X0268706Y0085375D02*
X0284294Y0085375D01*
X0283295Y0084376D02*
X0269705Y0084376D01*
X0270703Y0083378D02*
X0282297Y0083378D01*
X0282200Y0082379D02*
X0270800Y0082379D01*
X0270800Y0081381D02*
X0282200Y0081381D01*
X0282200Y0080382D02*
X0270800Y0080382D01*
X0271727Y0079384D02*
X0282535Y0079384D01*
X0286500Y0081500D02*
X0291500Y0081500D01*
X0291500Y0136500D01*
X0276500Y0136500D01*
X0279385Y0133303D02*
X0289300Y0133303D01*
X0289300Y0132305D02*
X0278386Y0132305D01*
X0276800Y0127312D02*
X0276200Y0127312D01*
X0276200Y0125315D02*
X0276800Y0125315D01*
X0276800Y0124317D02*
X0276200Y0124317D01*
X0276200Y0123318D02*
X0276800Y0123318D01*
X0278758Y0120323D02*
X0289300Y0120323D01*
X0289300Y0121321D02*
X0263700Y0121321D01*
X0263700Y0124317D02*
X0272885Y0124317D01*
X0272400Y0125315D02*
X0263700Y0125315D01*
X0259300Y0125315D02*
X0250600Y0125315D01*
X0250115Y0124317D02*
X0259300Y0124317D01*
X0261500Y0136500D02*
X0261500Y0081500D01*
X0256500Y0081500D01*
X0259466Y0078385D02*
X0263534Y0078385D01*
X0264532Y0077387D02*
X0258468Y0077387D01*
X0262495Y0079384D02*
X0262535Y0079384D01*
X0271500Y0076500D02*
X0271500Y0056500D01*
X0274504Y0053423D02*
X0278496Y0053423D01*
X0279300Y0052424D02*
X0273505Y0052424D01*
X0275502Y0054421D02*
X0277498Y0054421D01*
X0277200Y0055420D02*
X0275800Y0055420D01*
X0275800Y0056418D02*
X0277200Y0056418D01*
X0277200Y0057417D02*
X0275800Y0057417D01*
X0275666Y0058415D02*
X0277334Y0058415D01*
X0278333Y0059414D02*
X0274667Y0059414D01*
X0273700Y0060412D02*
X0279331Y0060412D01*
X0279719Y0062200D02*
X0283281Y0062200D01*
X0285800Y0064719D01*
X0285800Y0068281D01*
X0283281Y0070800D01*
X0279719Y0070800D01*
X0277200Y0068281D01*
X0277200Y0064719D01*
X0279719Y0062200D01*
X0279510Y0062409D02*
X0273700Y0062409D01*
X0273700Y0061411D02*
X0330701Y0061411D01*
X0330701Y0062409D02*
X0283490Y0062409D01*
X0284489Y0063408D02*
X0330701Y0063408D01*
X0330701Y0064406D02*
X0285487Y0064406D01*
X0285800Y0065405D02*
X0330701Y0065405D01*
X0330701Y0066403D02*
X0285800Y0066403D01*
X0285800Y0067402D02*
X0330701Y0067402D01*
X0330701Y0068400D02*
X0285681Y0068400D01*
X0284682Y0069399D02*
X0330701Y0069399D01*
X0330701Y0070397D02*
X0283684Y0070397D01*
X0279316Y0070397D02*
X0273700Y0070397D01*
X0273700Y0069399D02*
X0278318Y0069399D01*
X0277319Y0068400D02*
X0273700Y0068400D01*
X0273700Y0067402D02*
X0277200Y0067402D01*
X0277200Y0066403D02*
X0273700Y0066403D01*
X0273700Y0065405D02*
X0277200Y0065405D01*
X0277513Y0064406D02*
X0273700Y0064406D01*
X0273700Y0063408D02*
X0278511Y0063408D01*
X0283669Y0060412D02*
X0319614Y0060412D01*
X0319802Y0060600D02*
X0317400Y0058198D01*
X0317400Y0056800D01*
X0321200Y0056800D01*
X0321200Y0060600D01*
X0319802Y0060600D01*
X0321200Y0060412D02*
X0321800Y0060412D01*
X0321800Y0060600D02*
X0321800Y0056800D01*
X0321200Y0056800D01*
X0321200Y0056200D01*
X0317400Y0056200D01*
X0317400Y0054802D01*
X0319802Y0052400D01*
X0321200Y0052400D01*
X0321200Y0056200D01*
X0321800Y0056200D01*
X0321800Y0056800D01*
X0325600Y0056800D01*
X0325600Y0058198D01*
X0323198Y0060600D01*
X0321800Y0060600D01*
X0321800Y0059414D02*
X0321200Y0059414D01*
X0321200Y0058415D02*
X0321800Y0058415D01*
X0321800Y0057417D02*
X0321200Y0057417D01*
X0321200Y0056418D02*
X0285800Y0056418D01*
X0285800Y0055420D02*
X0317400Y0055420D01*
X0317781Y0054421D02*
X0285502Y0054421D01*
X0284504Y0053423D02*
X0318779Y0053423D01*
X0319778Y0052424D02*
X0283700Y0052424D01*
X0283700Y0051426D02*
X0330701Y0051426D01*
X0330701Y0052424D02*
X0323222Y0052424D01*
X0323198Y0052400D02*
X0325600Y0054802D01*
X0325600Y0056200D01*
X0321800Y0056200D01*
X0321800Y0052400D01*
X0323198Y0052400D01*
X0321800Y0052424D02*
X0321200Y0052424D01*
X0321200Y0053423D02*
X0321800Y0053423D01*
X0321800Y0054421D02*
X0321200Y0054421D01*
X0321200Y0055420D02*
X0321800Y0055420D01*
X0321800Y0056418D02*
X0330701Y0056418D01*
X0330701Y0055420D02*
X0325600Y0055420D01*
X0325219Y0054421D02*
X0330701Y0054421D01*
X0330701Y0053423D02*
X0324221Y0053423D01*
X0325600Y0057417D02*
X0330701Y0057417D01*
X0330701Y0058415D02*
X0325383Y0058415D01*
X0324385Y0059414D02*
X0330701Y0059414D01*
X0330701Y0060412D02*
X0323386Y0060412D01*
X0318615Y0059414D02*
X0284667Y0059414D01*
X0285666Y0058415D02*
X0317617Y0058415D01*
X0317400Y0057417D02*
X0285800Y0057417D01*
X0281500Y0056500D02*
X0281500Y0036500D01*
X0186500Y0036500D01*
X0186500Y0076500D01*
X0146500Y0076500D01*
X0150424Y0072394D02*
X0184300Y0072394D01*
X0184300Y0071396D02*
X0128700Y0071396D01*
X0128700Y0072394D02*
X0142576Y0072394D01*
X0140926Y0073393D02*
X0128700Y0073393D01*
X0128700Y0074391D02*
X0140119Y0074391D01*
X0139706Y0075390D02*
X0128700Y0075390D01*
X0128700Y0076388D02*
X0139600Y0076388D01*
X0139613Y0077387D02*
X0128700Y0077387D01*
X0128700Y0078385D02*
X0140027Y0078385D01*
X0136500Y0086500D02*
X0146500Y0086500D01*
X0146500Y0091500D02*
X0146500Y0096500D01*
X0141965Y0100353D02*
X0138700Y0100353D01*
X0138700Y0101351D02*
X0174300Y0101351D01*
X0174300Y0100353D02*
X0173728Y0100353D01*
X0174300Y0102350D02*
X0138700Y0102350D01*
X0138700Y0103348D02*
X0141263Y0103348D01*
X0141229Y0103373D02*
X0141751Y0102993D01*
X0142326Y0102700D01*
X0142940Y0102501D01*
X0143577Y0102400D01*
X0146200Y0102400D01*
X0146200Y0106200D01*
X0146800Y0106200D01*
X0146800Y0106800D01*
X0146200Y0106800D01*
X0146200Y0110600D01*
X0143577Y0110600D01*
X0142940Y0110499D01*
X0142326Y0110300D01*
X0141751Y0110007D01*
X0141229Y0109627D01*
X0140773Y0109171D01*
X0140393Y0108649D01*
X0140100Y0108074D01*
X0139901Y0107460D01*
X0139800Y0106823D01*
X0139800Y0106800D01*
X0146200Y0106800D01*
X0146200Y0106200D01*
X0139800Y0106200D01*
X0139800Y0106177D01*
X0139901Y0105540D01*
X0140100Y0104926D01*
X0140393Y0104351D01*
X0140773Y0103829D01*
X0141229Y0103373D01*
X0140397Y0104347D02*
X0138700Y0104347D01*
X0138700Y0105345D02*
X0139964Y0105345D01*
X0138700Y0106344D02*
X0146200Y0106344D01*
X0146800Y0106344D02*
X0174300Y0106344D01*
X0174300Y0107342D02*
X0153118Y0107342D01*
X0153099Y0107460D02*
X0152900Y0108074D01*
X0152607Y0108649D01*
X0152227Y0109171D01*
X0151771Y0109627D01*
X0151249Y0110007D01*
X0150674Y0110300D01*
X0150060Y0110499D01*
X0149423Y0110600D01*
X0146800Y0110600D01*
X0146800Y0106800D01*
X0153200Y0106800D01*
X0153200Y0106823D01*
X0153099Y0107460D01*
X0152764Y0108341D02*
X0174300Y0108341D01*
X0174300Y0109339D02*
X0152059Y0109339D01*
X0150557Y0110338D02*
X0174300Y0110338D01*
X0174300Y0111336D02*
X0138700Y0111336D01*
X0138700Y0110338D02*
X0142443Y0110338D01*
X0140941Y0109339D02*
X0138700Y0109339D01*
X0138700Y0108341D02*
X0140236Y0108341D01*
X0139882Y0107342D02*
X0138700Y0107342D01*
X0138700Y0112335D02*
X0142719Y0112335D01*
X0140986Y0113333D02*
X0138700Y0113333D01*
X0138700Y0114332D02*
X0140144Y0114332D01*
X0139730Y0115330D02*
X0138700Y0115330D01*
X0138700Y0116329D02*
X0139600Y0116329D01*
X0139600Y0117327D02*
X0138700Y0117327D01*
X0138700Y0118326D02*
X0140002Y0118326D01*
X0140643Y0119324D02*
X0138700Y0119324D01*
X0138700Y0120323D02*
X0141893Y0120323D01*
X0142755Y0122320D02*
X0138700Y0122320D01*
X0138700Y0123318D02*
X0141000Y0123318D01*
X0138700Y0121321D02*
X0159300Y0121321D01*
X0159300Y0122320D02*
X0150245Y0122320D01*
X0151999Y0123318D02*
X0160207Y0123318D01*
X0161500Y0121500D02*
X0176500Y0121500D01*
X0176500Y0081500D01*
X0131500Y0081500D01*
X0131500Y0121500D01*
X0101500Y0121500D01*
X0101500Y0126500D01*
X0098228Y0129309D02*
X0084772Y0129309D01*
X0085770Y0128311D02*
X0097230Y0128311D01*
X0097200Y0127312D02*
X0085800Y0127312D01*
X0085800Y0128281D02*
X0083281Y0130800D01*
X0079719Y0130800D01*
X0077200Y0128281D01*
X0077200Y0124719D01*
X0079719Y0122200D01*
X0083281Y0122200D01*
X0085800Y0124719D01*
X0085800Y0128281D01*
X0085800Y0126314D02*
X0097200Y0126314D01*
X0097200Y0125315D02*
X0085800Y0125315D01*
X0085398Y0124317D02*
X0097602Y0124317D01*
X0098601Y0123318D02*
X0084399Y0123318D01*
X0083401Y0122320D02*
X0099300Y0122320D01*
X0099300Y0121321D02*
X0006000Y0121321D01*
X0006000Y0120323D02*
X0099566Y0120323D01*
X0100564Y0119324D02*
X0006000Y0119324D01*
X0006000Y0118326D02*
X0100215Y0118326D01*
X0099300Y0117327D02*
X0006000Y0117327D01*
X0006000Y0116329D02*
X0099300Y0116329D01*
X0099300Y0115330D02*
X0006000Y0115330D01*
X0006000Y0114332D02*
X0024375Y0114332D01*
X0023668Y0114039D02*
X0022261Y0112632D01*
X0021500Y0110795D01*
X0021500Y0102205D01*
X0022261Y0100368D01*
X0023668Y0098961D01*
X0024300Y0098699D01*
X0024300Y0090381D01*
X0022200Y0088281D01*
X0022200Y0084719D01*
X0024719Y0082200D01*
X0028281Y0082200D01*
X0030381Y0084300D01*
X0034300Y0084300D01*
X0034300Y0058389D01*
X0035589Y0057100D01*
X0037126Y0057100D01*
X0037784Y0055512D01*
X0039370Y0053926D01*
X0041442Y0053068D01*
X0051558Y0053068D01*
X0053630Y0053926D01*
X0055216Y0055512D01*
X0055627Y0056505D01*
X0077200Y0056505D01*
X0077200Y0054719D01*
X0079719Y0052200D01*
X0083281Y0052200D01*
X0085381Y0054300D01*
X0097619Y0054300D01*
X0099719Y0052200D01*
X0103281Y0052200D01*
X0105800Y0054719D01*
X0105800Y0058281D01*
X0103281Y0060800D01*
X0099719Y0060800D01*
X0097619Y0058700D01*
X0085381Y0058700D01*
X0083700Y0060381D01*
X0083700Y0072619D01*
X0085800Y0074719D01*
X0085800Y0078281D01*
X0083281Y0080800D01*
X0079719Y0080800D01*
X0077200Y0078281D01*
X0077200Y0074719D01*
X0079300Y0072619D01*
X0079300Y0060905D01*
X0055627Y0060905D01*
X0055216Y0061898D01*
X0053630Y0063484D01*
X0051558Y0064342D01*
X0041442Y0064342D01*
X0039370Y0063484D01*
X0038700Y0062814D01*
X0038700Y0087411D01*
X0037411Y0088700D01*
X0030381Y0088700D01*
X0028700Y0090381D01*
X0028700Y0098699D01*
X0029332Y0098961D01*
X0030739Y0100368D01*
X0031500Y0102205D01*
X0031500Y0110795D01*
X0030739Y0112632D01*
X0029332Y0114039D01*
X0027495Y0114800D01*
X0025505Y0114800D01*
X0023668Y0114039D01*
X0022962Y0113333D02*
X0006000Y0113333D01*
X0006000Y0112335D02*
X0022138Y0112335D01*
X0021724Y0111336D02*
X0006000Y0111336D01*
X0006000Y0110338D02*
X0021500Y0110338D01*
X0021500Y0109339D02*
X0006000Y0109339D01*
X0006000Y0108341D02*
X0021500Y0108341D01*
X0021500Y0107342D02*
X0006000Y0107342D01*
X0006000Y0106344D02*
X0021500Y0106344D01*
X0021500Y0105345D02*
X0006000Y0105345D01*
X0006000Y0104347D02*
X0021500Y0104347D01*
X0021500Y0103348D02*
X0006000Y0103348D01*
X0006000Y0102350D02*
X0021500Y0102350D01*
X0021854Y0101351D02*
X0006000Y0101351D01*
X0006000Y0100353D02*
X0022276Y0100353D01*
X0023275Y0099354D02*
X0006000Y0099354D01*
X0006000Y0098356D02*
X0024300Y0098356D01*
X0024300Y0097357D02*
X0006000Y0097357D01*
X0006000Y0096359D02*
X0024300Y0096359D01*
X0024300Y0095360D02*
X0006000Y0095360D01*
X0006000Y0094362D02*
X0024300Y0094362D01*
X0024300Y0093363D02*
X0006000Y0093363D01*
X0006000Y0092365D02*
X0024300Y0092365D01*
X0024300Y0091366D02*
X0006000Y0091366D01*
X0006000Y0090368D02*
X0024286Y0090368D01*
X0023288Y0089369D02*
X0006000Y0089369D01*
X0006000Y0088370D02*
X0022289Y0088370D01*
X0022200Y0087372D02*
X0006000Y0087372D01*
X0006000Y0086373D02*
X0022200Y0086373D01*
X0022200Y0085375D02*
X0006000Y0085375D01*
X0006000Y0084376D02*
X0022542Y0084376D01*
X0023541Y0083378D02*
X0006000Y0083378D01*
X0006000Y0082379D02*
X0024539Y0082379D01*
X0024802Y0080600D02*
X0022400Y0078198D01*
X0022400Y0076800D01*
X0026200Y0076800D01*
X0026200Y0080600D01*
X0024802Y0080600D01*
X0024584Y0080382D02*
X0006000Y0080382D01*
X0006000Y0079384D02*
X0023586Y0079384D01*
X0022587Y0078385D02*
X0006000Y0078385D01*
X0006000Y0077387D02*
X0022400Y0077387D01*
X0022400Y0076200D02*
X0022400Y0074802D01*
X0024802Y0072400D01*
X0026200Y0072400D01*
X0026200Y0076200D01*
X0022400Y0076200D01*
X0022400Y0075390D02*
X0006000Y0075390D01*
X0006000Y0076388D02*
X0026200Y0076388D01*
X0026200Y0076200D02*
X0026200Y0076800D01*
X0026800Y0076800D01*
X0026800Y0080600D01*
X0028198Y0080600D01*
X0030600Y0078198D01*
X0030600Y0076800D01*
X0026800Y0076800D01*
X0026800Y0076200D01*
X0030600Y0076200D01*
X0030600Y0074802D01*
X0028198Y0072400D01*
X0026800Y0072400D01*
X0026800Y0076200D01*
X0026200Y0076200D01*
X0026800Y0076388D02*
X0034300Y0076388D01*
X0034300Y0075390D02*
X0030600Y0075390D01*
X0030190Y0074391D02*
X0034300Y0074391D01*
X0034300Y0073393D02*
X0029191Y0073393D01*
X0026800Y0073393D02*
X0026200Y0073393D01*
X0026200Y0074391D02*
X0026800Y0074391D01*
X0026800Y0075390D02*
X0026200Y0075390D01*
X0026200Y0077387D02*
X0026800Y0077387D01*
X0026800Y0078385D02*
X0026200Y0078385D01*
X0026200Y0079384D02*
X0026800Y0079384D01*
X0026800Y0080382D02*
X0026200Y0080382D01*
X0028416Y0080382D02*
X0034300Y0080382D01*
X0034300Y0079384D02*
X0029414Y0079384D01*
X0030413Y0078385D02*
X0034300Y0078385D01*
X0034300Y0077387D02*
X0030600Y0077387D01*
X0034300Y0072394D02*
X0006000Y0072394D01*
X0006000Y0071396D02*
X0034300Y0071396D01*
X0034300Y0070397D02*
X0006000Y0070397D01*
X0006000Y0069399D02*
X0034300Y0069399D01*
X0034300Y0068400D02*
X0006000Y0068400D01*
X0006000Y0067402D02*
X0034300Y0067402D01*
X0034300Y0066403D02*
X0006000Y0066403D01*
X0006000Y0065405D02*
X0034300Y0065405D01*
X0034300Y0064406D02*
X0006000Y0064406D01*
X0006000Y0063408D02*
X0034300Y0063408D01*
X0034300Y0062409D02*
X0006000Y0062409D01*
X0006000Y0061411D02*
X0034300Y0061411D01*
X0034300Y0060412D02*
X0006000Y0060412D01*
X0006000Y0059414D02*
X0034300Y0059414D01*
X0034300Y0058415D02*
X0006000Y0058415D01*
X0006000Y0057417D02*
X0035272Y0057417D01*
X0036500Y0059300D02*
X0045905Y0059300D01*
X0046500Y0058705D01*
X0079295Y0058705D01*
X0081500Y0056500D01*
X0081500Y0076500D01*
X0078526Y0073393D02*
X0038700Y0073393D01*
X0038700Y0074391D02*
X0077528Y0074391D01*
X0077200Y0075390D02*
X0038700Y0075390D01*
X0038700Y0076388D02*
X0077200Y0076388D01*
X0077200Y0077387D02*
X0038700Y0077387D01*
X0038700Y0078385D02*
X0043816Y0078385D01*
X0044802Y0077400D02*
X0042400Y0079802D01*
X0042400Y0081200D01*
X0046200Y0081200D01*
X0046200Y0081800D01*
X0046200Y0085600D01*
X0044802Y0085600D01*
X0042400Y0083198D01*
X0042400Y0081800D01*
X0046200Y0081800D01*
X0046800Y0081800D01*
X0046800Y0085600D01*
X0048198Y0085600D01*
X0050600Y0083198D01*
X0050600Y0081800D01*
X0046800Y0081800D01*
X0046800Y0081200D01*
X0050600Y0081200D01*
X0050600Y0079802D01*
X0048198Y0077400D01*
X0046800Y0077400D01*
X0046800Y0081200D01*
X0046200Y0081200D01*
X0046200Y0077400D01*
X0044802Y0077400D01*
X0046200Y0078385D02*
X0046800Y0078385D01*
X0046800Y0079384D02*
X0046200Y0079384D01*
X0046200Y0080382D02*
X0046800Y0080382D01*
X0046800Y0081381D02*
X0124300Y0081381D01*
X0124300Y0082379D02*
X0120388Y0082379D01*
X0119955Y0082200D02*
X0121536Y0082855D01*
X0122745Y0084064D01*
X0123400Y0085645D01*
X0123400Y0087355D01*
X0122745Y0088936D01*
X0121536Y0090145D01*
X0119955Y0090800D01*
X0113045Y0090800D01*
X0111464Y0090145D01*
X0110255Y0088936D01*
X0110157Y0088700D01*
X0103700Y0088700D01*
X0103700Y0092619D01*
X0105800Y0094719D01*
X0105800Y0098281D01*
X0103281Y0100800D01*
X0099719Y0100800D01*
X0097619Y0098700D01*
X0085381Y0098700D01*
X0083281Y0100800D01*
X0079719Y0100800D01*
X0077200Y0098281D01*
X0077200Y0094719D01*
X0079719Y0092200D01*
X0083281Y0092200D01*
X0085381Y0094300D01*
X0097619Y0094300D01*
X0099300Y0092619D01*
X0099300Y0085589D01*
X0100589Y0084300D01*
X0110157Y0084300D01*
X0110255Y0084064D01*
X0111464Y0082855D01*
X0113045Y0082200D01*
X0119955Y0082200D01*
X0119955Y0080800D02*
X0121536Y0080145D01*
X0122745Y0078936D01*
X0123400Y0077355D01*
X0123400Y0075645D01*
X0122745Y0074064D01*
X0121536Y0072855D01*
X0119955Y0072200D01*
X0113045Y0072200D01*
X0111464Y0072855D01*
X0110255Y0074064D01*
X0109600Y0075645D01*
X0109600Y0077355D01*
X0110255Y0078936D01*
X0111464Y0080145D01*
X0113045Y0080800D01*
X0119955Y0080800D01*
X0120963Y0080382D02*
X0124300Y0080382D01*
X0124300Y0079384D02*
X0122297Y0079384D01*
X0122973Y0078385D02*
X0124300Y0078385D01*
X0124300Y0077387D02*
X0123387Y0077387D01*
X0123400Y0076388D02*
X0124300Y0076388D01*
X0124300Y0075390D02*
X0123294Y0075390D01*
X0122881Y0074391D02*
X0124300Y0074391D01*
X0124300Y0073393D02*
X0122074Y0073393D01*
X0120424Y0072394D02*
X0124300Y0072394D01*
X0124300Y0071396D02*
X0083700Y0071396D01*
X0083700Y0072394D02*
X0112576Y0072394D01*
X0110926Y0073393D02*
X0104191Y0073393D01*
X0103198Y0072400D02*
X0105600Y0074802D01*
X0105600Y0076200D01*
X0101800Y0076200D01*
X0101800Y0076800D01*
X0101200Y0076800D01*
X0101200Y0080600D01*
X0099802Y0080600D01*
X0097400Y0078198D01*
X0097400Y0076800D01*
X0101200Y0076800D01*
X0101200Y0076200D01*
X0097400Y0076200D01*
X0097400Y0074802D01*
X0099802Y0072400D01*
X0101200Y0072400D01*
X0101200Y0076200D01*
X0101800Y0076200D01*
X0101800Y0072400D01*
X0103198Y0072400D01*
X0101800Y0073393D02*
X0101200Y0073393D01*
X0101200Y0074391D02*
X0101800Y0074391D01*
X0101800Y0075390D02*
X0101200Y0075390D01*
X0101200Y0076388D02*
X0085800Y0076388D01*
X0085800Y0075390D02*
X0097400Y0075390D01*
X0097810Y0074391D02*
X0085472Y0074391D01*
X0084474Y0073393D02*
X0098809Y0073393D01*
X0101800Y0076388D02*
X0109600Y0076388D01*
X0109613Y0077387D02*
X0105600Y0077387D01*
X0105600Y0076800D02*
X0105600Y0078198D01*
X0103198Y0080600D01*
X0101800Y0080600D01*
X0101800Y0076800D01*
X0105600Y0076800D01*
X0105600Y0075390D02*
X0109706Y0075390D01*
X0110119Y0074391D02*
X0105190Y0074391D01*
X0101800Y0077387D02*
X0101200Y0077387D01*
X0101200Y0078385D02*
X0101800Y0078385D01*
X0101800Y0079384D02*
X0101200Y0079384D01*
X0101200Y0080382D02*
X0101800Y0080382D01*
X0103416Y0080382D02*
X0112037Y0080382D01*
X0110703Y0079384D02*
X0104414Y0079384D01*
X0105413Y0078385D02*
X0110027Y0078385D01*
X0112612Y0082379D02*
X0050600Y0082379D01*
X0050420Y0083378D02*
X0110941Y0083378D01*
X0110688Y0089369D02*
X0103700Y0089369D01*
X0103700Y0090368D02*
X0112001Y0090368D01*
X0112647Y0092365D02*
X0103700Y0092365D01*
X0103700Y0091366D02*
X0124300Y0091366D01*
X0124300Y0090368D02*
X0120999Y0090368D01*
X0122312Y0089369D02*
X0124300Y0089369D01*
X0124300Y0088370D02*
X0122980Y0088370D01*
X0123393Y0087372D02*
X0124300Y0087372D01*
X0124300Y0086373D02*
X0123400Y0086373D01*
X0123288Y0085375D02*
X0124300Y0085375D01*
X0124300Y0084376D02*
X0122875Y0084376D01*
X0122059Y0083378D02*
X0124300Y0083378D01*
X0128700Y0083378D02*
X0129300Y0083378D01*
X0129300Y0084376D02*
X0128700Y0084376D01*
X0128700Y0085375D02*
X0129300Y0085375D01*
X0129300Y0086373D02*
X0128700Y0086373D01*
X0128700Y0087372D02*
X0129300Y0087372D01*
X0129300Y0088370D02*
X0128700Y0088370D01*
X0128700Y0089369D02*
X0129300Y0089369D01*
X0129300Y0090368D02*
X0128700Y0090368D01*
X0128700Y0091366D02*
X0129300Y0091366D01*
X0129300Y0092365D02*
X0128700Y0092365D01*
X0128700Y0093363D02*
X0129300Y0093363D01*
X0129300Y0094362D02*
X0128700Y0094362D01*
X0128700Y0095360D02*
X0129300Y0095360D01*
X0129300Y0096359D02*
X0128700Y0096359D01*
X0128700Y0097357D02*
X0129300Y0097357D01*
X0128700Y0097411D02*
X0127411Y0098700D01*
X0122843Y0098700D01*
X0122745Y0098936D01*
X0121536Y0100145D01*
X0119955Y0100800D01*
X0113045Y0100800D01*
X0111464Y0100145D01*
X0110255Y0098936D01*
X0109600Y0097355D01*
X0109600Y0095645D01*
X0110255Y0094064D01*
X0111464Y0092855D01*
X0113045Y0092200D01*
X0119955Y0092200D01*
X0121536Y0092855D01*
X0122745Y0094064D01*
X0122843Y0094300D01*
X0124300Y0094300D01*
X0124300Y0059781D01*
X0123281Y0060800D01*
X0119719Y0060800D01*
X0117200Y0058281D01*
X0117200Y0054719D01*
X0119300Y0052619D01*
X0119300Y0040381D01*
X0117200Y0038281D01*
X0117200Y0034719D01*
X0119719Y0032200D01*
X0123281Y0032200D01*
X0125800Y0034719D01*
X0125800Y0038281D01*
X0123700Y0040381D01*
X0123700Y0052619D01*
X0125381Y0054300D01*
X0127411Y0054300D01*
X0128700Y0055589D01*
X0128700Y0097411D01*
X0129300Y0098356D02*
X0127756Y0098356D01*
X0129300Y0099354D02*
X0122327Y0099354D01*
X0121035Y0100353D02*
X0129300Y0100353D01*
X0129300Y0101351D02*
X0051146Y0101351D01*
X0051500Y0102205D02*
X0051500Y0110795D01*
X0050739Y0112632D01*
X0049332Y0114039D01*
X0047495Y0114800D01*
X0045505Y0114800D01*
X0043668Y0114039D01*
X0042261Y0112632D01*
X0041500Y0110795D01*
X0041500Y0102205D01*
X0042261Y0100368D01*
X0043668Y0098961D01*
X0045505Y0098200D01*
X0047495Y0098200D01*
X0049332Y0098961D01*
X0050739Y0100368D01*
X0051500Y0102205D01*
X0051500Y0102350D02*
X0079569Y0102350D01*
X0078571Y0103348D02*
X0051500Y0103348D01*
X0051500Y0104347D02*
X0077572Y0104347D01*
X0077200Y0105345D02*
X0051500Y0105345D01*
X0051500Y0106344D02*
X0077200Y0106344D01*
X0077200Y0107342D02*
X0051500Y0107342D01*
X0051500Y0108341D02*
X0077260Y0108341D01*
X0078258Y0109339D02*
X0051500Y0109339D01*
X0051500Y0110338D02*
X0079257Y0110338D01*
X0081500Y0106500D02*
X0101500Y0106500D01*
X0101500Y0116500D01*
X0116500Y0116500D01*
X0120281Y0112335D02*
X0129300Y0112335D01*
X0129300Y0113333D02*
X0122014Y0113333D01*
X0122856Y0114332D02*
X0129300Y0114332D01*
X0129300Y0115330D02*
X0123270Y0115330D01*
X0123400Y0116329D02*
X0129300Y0116329D01*
X0129300Y0117327D02*
X0123400Y0117327D01*
X0122998Y0118326D02*
X0129300Y0118326D01*
X0129300Y0111336D02*
X0103700Y0111336D01*
X0103700Y0112335D02*
X0112719Y0112335D01*
X0113045Y0110800D02*
X0111464Y0110145D01*
X0110255Y0108936D01*
X0109600Y0107355D01*
X0109600Y0105645D01*
X0110255Y0104064D01*
X0111464Y0102855D01*
X0113045Y0102200D01*
X0119955Y0102200D01*
X0121536Y0102855D01*
X0122745Y0104064D01*
X0123400Y0105645D01*
X0123400Y0107355D01*
X0122745Y0108936D01*
X0121536Y0110145D01*
X0119955Y0110800D01*
X0113045Y0110800D01*
X0111929Y0110338D02*
X0103743Y0110338D01*
X0104742Y0109339D02*
X0110658Y0109339D01*
X0110008Y0108341D02*
X0105740Y0108341D01*
X0105800Y0107342D02*
X0109600Y0107342D01*
X0109600Y0106344D02*
X0105800Y0106344D01*
X0105800Y0105345D02*
X0109724Y0105345D01*
X0110138Y0104347D02*
X0105428Y0104347D01*
X0104429Y0103348D02*
X0110971Y0103348D01*
X0112683Y0102350D02*
X0103431Y0102350D01*
X0103728Y0100353D02*
X0111965Y0100353D01*
X0110673Y0099354D02*
X0104727Y0099354D01*
X0105725Y0098356D02*
X0110014Y0098356D01*
X0109601Y0097357D02*
X0105800Y0097357D01*
X0105800Y0096359D02*
X0109600Y0096359D01*
X0109718Y0095360D02*
X0105800Y0095360D01*
X0105443Y0094362D02*
X0110131Y0094362D01*
X0110956Y0093363D02*
X0104444Y0093363D01*
X0101500Y0096500D02*
X0101500Y0086500D01*
X0116500Y0086500D01*
X0120353Y0092365D02*
X0124300Y0092365D01*
X0124300Y0093363D02*
X0122044Y0093363D01*
X0126500Y0096500D02*
X0126500Y0056500D01*
X0121500Y0056500D01*
X0121500Y0036500D01*
X0117200Y0036448D02*
X0091800Y0036448D01*
X0091800Y0036200D02*
X0091800Y0036800D01*
X0095600Y0036800D01*
X0095600Y0038198D01*
X0093198Y0040600D01*
X0091800Y0040600D01*
X0091800Y0036800D01*
X0091200Y0036800D01*
X0091200Y0040600D01*
X0089802Y0040600D01*
X0087400Y0038198D01*
X0087400Y0036800D01*
X0091200Y0036800D01*
X0091200Y0036200D01*
X0091800Y0036200D01*
X0095600Y0036200D01*
X0095600Y0034802D01*
X0093198Y0032400D01*
X0091800Y0032400D01*
X0091800Y0036200D01*
X0091200Y0036200D02*
X0091200Y0032400D01*
X0089802Y0032400D01*
X0087400Y0034802D01*
X0087400Y0036200D01*
X0091200Y0036200D01*
X0091200Y0036448D02*
X0055582Y0036448D01*
X0055476Y0036776D02*
X0055087Y0037539D01*
X0054584Y0038231D01*
X0053979Y0038836D01*
X0053287Y0039339D01*
X0052524Y0039728D01*
X0051710Y0039992D01*
X0050865Y0040126D01*
X0046984Y0040126D01*
X0046984Y0035173D01*
X0046016Y0035173D01*
X0046016Y0040126D01*
X0042135Y0040126D01*
X0041290Y0039992D01*
X0040476Y0039728D01*
X0039713Y0039339D01*
X0039021Y0038836D01*
X0038416Y0038231D01*
X0037913Y0037539D01*
X0037524Y0036776D01*
X0037260Y0035962D01*
X0037135Y0035173D01*
X0046016Y0035173D01*
X0046016Y0034205D01*
X0046984Y0034205D01*
X0046984Y0035173D01*
X0055865Y0035173D01*
X0055740Y0035962D01*
X0055476Y0036776D01*
X0055134Y0037446D02*
X0063550Y0037446D01*
X0063311Y0037524D02*
X0064124Y0037260D01*
X0064913Y0037135D01*
X0064913Y0046016D01*
X0059961Y0046016D01*
X0059961Y0042135D01*
X0060095Y0041290D01*
X0060359Y0040476D01*
X0060747Y0039713D01*
X0061251Y0039021D01*
X0061856Y0038416D01*
X0062548Y0037913D01*
X0063311Y0037524D01*
X0064913Y0037446D02*
X0065882Y0037446D01*
X0065882Y0037135D02*
X0066671Y0037260D01*
X0067485Y0037524D01*
X0068247Y0037913D01*
X0068940Y0038416D01*
X0069545Y0039021D01*
X0070048Y0039713D01*
X0070436Y0040476D01*
X0070701Y0041290D01*
X0070835Y0042135D01*
X0070835Y0046016D01*
X0065882Y0046016D01*
X0065882Y0046984D01*
X0070835Y0046984D01*
X0070835Y0050865D01*
X0070701Y0051710D01*
X0070436Y0052524D01*
X0070048Y0053287D01*
X0069545Y0053979D01*
X0068940Y0054584D01*
X0068247Y0055087D01*
X0067485Y0055476D01*
X0066671Y0055740D01*
X0065882Y0055865D01*
X0065882Y0046984D01*
X0064913Y0046984D01*
X0064913Y0046016D01*
X0065882Y0046016D01*
X0065882Y0037135D01*
X0065882Y0038445D02*
X0064913Y0038445D01*
X0064913Y0039443D02*
X0065882Y0039443D01*
X0065882Y0040442D02*
X0064913Y0040442D01*
X0064913Y0041440D02*
X0065882Y0041440D01*
X0065882Y0042439D02*
X0064913Y0042439D01*
X0064913Y0043437D02*
X0065882Y0043437D01*
X0065882Y0044436D02*
X0064913Y0044436D01*
X0064913Y0045434D02*
X0065882Y0045434D01*
X0065882Y0046433D02*
X0081200Y0046433D01*
X0081200Y0046200D02*
X0077400Y0046200D01*
X0077400Y0044802D01*
X0079802Y0042400D01*
X0081200Y0042400D01*
X0081200Y0046200D01*
X0081200Y0046800D01*
X0081200Y0050600D01*
X0079802Y0050600D01*
X0077400Y0048198D01*
X0077400Y0046800D01*
X0081200Y0046800D01*
X0081800Y0046800D01*
X0081800Y0050600D01*
X0083198Y0050600D01*
X0085600Y0048198D01*
X0085600Y0046800D01*
X0081800Y0046800D01*
X0081800Y0046200D01*
X0085600Y0046200D01*
X0085600Y0044802D01*
X0083198Y0042400D01*
X0081800Y0042400D01*
X0081800Y0046200D01*
X0081200Y0046200D01*
X0081800Y0046433D02*
X0119300Y0046433D01*
X0119300Y0045434D02*
X0085600Y0045434D01*
X0085234Y0044436D02*
X0119300Y0044436D01*
X0119300Y0043437D02*
X0084236Y0043437D01*
X0083237Y0042439D02*
X0119300Y0042439D01*
X0119300Y0041440D02*
X0070725Y0041440D01*
X0070835Y0042439D02*
X0079763Y0042439D01*
X0078764Y0043437D02*
X0070835Y0043437D01*
X0070835Y0044436D02*
X0077766Y0044436D01*
X0077400Y0045434D02*
X0070835Y0045434D01*
X0070835Y0047432D02*
X0077400Y0047432D01*
X0077632Y0048430D02*
X0070835Y0048430D01*
X0070835Y0049429D02*
X0078630Y0049429D01*
X0079629Y0050427D02*
X0070835Y0050427D01*
X0070746Y0051426D02*
X0119300Y0051426D01*
X0119300Y0052424D02*
X0103505Y0052424D01*
X0104504Y0053423D02*
X0118496Y0053423D01*
X0117498Y0054421D02*
X0105502Y0054421D01*
X0105800Y0055420D02*
X0117200Y0055420D01*
X0117200Y0056418D02*
X0105800Y0056418D01*
X0105800Y0057417D02*
X0117200Y0057417D01*
X0117334Y0058415D02*
X0105666Y0058415D01*
X0104667Y0059414D02*
X0118333Y0059414D01*
X0119331Y0060412D02*
X0103669Y0060412D01*
X0099331Y0060412D02*
X0083700Y0060412D01*
X0083700Y0061411D02*
X0124300Y0061411D01*
X0124300Y0062409D02*
X0083700Y0062409D01*
X0083700Y0063408D02*
X0124300Y0063408D01*
X0124300Y0064406D02*
X0083700Y0064406D01*
X0083700Y0065405D02*
X0124300Y0065405D01*
X0124300Y0066403D02*
X0083700Y0066403D01*
X0083700Y0067402D02*
X0124300Y0067402D01*
X0124300Y0068400D02*
X0083700Y0068400D01*
X0083700Y0069399D02*
X0124300Y0069399D01*
X0124300Y0070397D02*
X0083700Y0070397D01*
X0079300Y0070397D02*
X0038700Y0070397D01*
X0038700Y0069399D02*
X0079300Y0069399D01*
X0079300Y0068400D02*
X0038700Y0068400D01*
X0038700Y0067402D02*
X0079300Y0067402D01*
X0079300Y0066403D02*
X0038700Y0066403D01*
X0038700Y0065405D02*
X0079300Y0065405D01*
X0079300Y0064406D02*
X0038700Y0064406D01*
X0038700Y0063408D02*
X0039294Y0063408D01*
X0036500Y0059300D02*
X0036500Y0086500D01*
X0026500Y0086500D01*
X0026500Y0106500D01*
X0031500Y0106344D02*
X0036000Y0106344D01*
X0036000Y0106000D02*
X0031700Y0106000D01*
X0031700Y0102822D01*
X0031818Y0102076D01*
X0032052Y0101357D01*
X0032395Y0100684D01*
X0032839Y0100073D01*
X0033373Y0099539D01*
X0033984Y0099095D01*
X0034657Y0098752D01*
X0035376Y0098518D01*
X0036000Y0098419D01*
X0036000Y0106000D01*
X0037000Y0106000D01*
X0037000Y0107000D01*
X0041300Y0107000D01*
X0041300Y0110178D01*
X0041182Y0110924D01*
X0040948Y0111643D01*
X0040605Y0112316D01*
X0040161Y0112927D01*
X0039627Y0113461D01*
X0039016Y0113905D01*
X0038343Y0114248D01*
X0037624Y0114482D01*
X0037000Y0114581D01*
X0037000Y0107000D01*
X0036000Y0107000D01*
X0036000Y0114581D01*
X0035376Y0114482D01*
X0034657Y0114248D01*
X0033984Y0113905D01*
X0033373Y0113461D01*
X0032839Y0112927D01*
X0032395Y0112316D01*
X0032052Y0111643D01*
X0031818Y0110924D01*
X0031700Y0110178D01*
X0031700Y0107000D01*
X0036000Y0107000D01*
X0036000Y0106000D01*
X0036000Y0105345D02*
X0037000Y0105345D01*
X0037000Y0106000D02*
X0037000Y0098419D01*
X0037624Y0098518D01*
X0038343Y0098752D01*
X0039016Y0099095D01*
X0039627Y0099539D01*
X0040161Y0100073D01*
X0040605Y0100684D01*
X0040948Y0101357D01*
X0041182Y0102076D01*
X0041300Y0102822D01*
X0041300Y0106000D01*
X0037000Y0106000D01*
X0037000Y0106344D02*
X0041500Y0106344D01*
X0041500Y0107342D02*
X0041300Y0107342D01*
X0041300Y0108341D02*
X0041500Y0108341D01*
X0041500Y0109339D02*
X0041300Y0109339D01*
X0041275Y0110338D02*
X0041500Y0110338D01*
X0041724Y0111336D02*
X0041048Y0111336D01*
X0040591Y0112335D02*
X0042138Y0112335D01*
X0042962Y0113333D02*
X0039755Y0113333D01*
X0038086Y0114332D02*
X0044375Y0114332D01*
X0048625Y0114332D02*
X0099300Y0114332D01*
X0099300Y0113333D02*
X0050038Y0113333D01*
X0050862Y0112335D02*
X0099300Y0112335D01*
X0099300Y0111336D02*
X0051276Y0111336D01*
X0041500Y0105345D02*
X0041300Y0105345D01*
X0041300Y0104347D02*
X0041500Y0104347D01*
X0041500Y0103348D02*
X0041300Y0103348D01*
X0041225Y0102350D02*
X0041500Y0102350D01*
X0041854Y0101351D02*
X0040945Y0101351D01*
X0040364Y0100353D02*
X0042276Y0100353D01*
X0043275Y0099354D02*
X0039373Y0099354D01*
X0037000Y0099354D02*
X0036000Y0099354D01*
X0036000Y0100353D02*
X0037000Y0100353D01*
X0037000Y0101351D02*
X0036000Y0101351D01*
X0036000Y0102350D02*
X0037000Y0102350D01*
X0037000Y0103348D02*
X0036000Y0103348D01*
X0036000Y0104347D02*
X0037000Y0104347D01*
X0037000Y0107342D02*
X0036000Y0107342D01*
X0036000Y0108341D02*
X0037000Y0108341D01*
X0037000Y0109339D02*
X0036000Y0109339D01*
X0036000Y0110338D02*
X0037000Y0110338D01*
X0037000Y0111336D02*
X0036000Y0111336D01*
X0036000Y0112335D02*
X0037000Y0112335D01*
X0037000Y0113333D02*
X0036000Y0113333D01*
X0036000Y0114332D02*
X0037000Y0114332D01*
X0034914Y0114332D02*
X0028625Y0114332D01*
X0030038Y0113333D02*
X0033245Y0113333D01*
X0032409Y0112335D02*
X0030862Y0112335D01*
X0031276Y0111336D02*
X0031952Y0111336D01*
X0031725Y0110338D02*
X0031500Y0110338D01*
X0031500Y0109339D02*
X0031700Y0109339D01*
X0031700Y0108341D02*
X0031500Y0108341D01*
X0031500Y0107342D02*
X0031700Y0107342D01*
X0031700Y0105345D02*
X0031500Y0105345D01*
X0031500Y0104347D02*
X0031700Y0104347D01*
X0031700Y0103348D02*
X0031500Y0103348D01*
X0031500Y0102350D02*
X0031775Y0102350D01*
X0032055Y0101351D02*
X0031146Y0101351D01*
X0030724Y0100353D02*
X0032636Y0100353D01*
X0033627Y0099354D02*
X0029725Y0099354D01*
X0028700Y0098356D02*
X0045130Y0098356D01*
X0044719Y0095800D02*
X0042200Y0093281D01*
X0042200Y0089719D01*
X0044719Y0087200D01*
X0048281Y0087200D01*
X0050800Y0089719D01*
X0050800Y0093281D01*
X0048281Y0095800D01*
X0044719Y0095800D01*
X0044279Y0095360D02*
X0028700Y0095360D01*
X0028700Y0094362D02*
X0043280Y0094362D01*
X0042282Y0093363D02*
X0028700Y0093363D01*
X0028700Y0092365D02*
X0042200Y0092365D01*
X0042200Y0091366D02*
X0028700Y0091366D01*
X0028714Y0090368D02*
X0042200Y0090368D01*
X0042550Y0089369D02*
X0029712Y0089369D01*
X0029459Y0083378D02*
X0034300Y0083378D01*
X0034300Y0082379D02*
X0028461Y0082379D01*
X0034300Y0081381D02*
X0006000Y0081381D01*
X0006000Y0074391D02*
X0022810Y0074391D01*
X0023809Y0073393D02*
X0006000Y0073393D01*
X0006000Y0056418D02*
X0037409Y0056418D01*
X0037876Y0055420D02*
X0006000Y0055420D01*
X0006000Y0054421D02*
X0038875Y0054421D01*
X0040585Y0053423D02*
X0006000Y0053423D01*
X0006000Y0052424D02*
X0060326Y0052424D01*
X0060359Y0052524D02*
X0060095Y0051710D01*
X0059961Y0050865D01*
X0059961Y0046984D01*
X0064913Y0046984D01*
X0064913Y0055865D01*
X0064124Y0055740D01*
X0063311Y0055476D01*
X0062548Y0055087D01*
X0061856Y0054584D01*
X0061251Y0053979D01*
X0060747Y0053287D01*
X0060359Y0052524D01*
X0060846Y0053423D02*
X0052415Y0053423D01*
X0054125Y0054421D02*
X0061693Y0054421D01*
X0063201Y0055420D02*
X0055124Y0055420D01*
X0055591Y0056418D02*
X0077200Y0056418D01*
X0077200Y0055420D02*
X0067595Y0055420D01*
X0065882Y0055420D02*
X0064913Y0055420D01*
X0064913Y0054421D02*
X0065882Y0054421D01*
X0065882Y0053423D02*
X0064913Y0053423D01*
X0064913Y0052424D02*
X0065882Y0052424D01*
X0065882Y0051426D02*
X0064913Y0051426D01*
X0064913Y0050427D02*
X0065882Y0050427D01*
X0065882Y0049429D02*
X0064913Y0049429D01*
X0064913Y0048430D02*
X0065882Y0048430D01*
X0065882Y0047432D02*
X0064913Y0047432D01*
X0064913Y0046433D02*
X0006000Y0046433D01*
X0006000Y0045434D02*
X0059961Y0045434D01*
X0059961Y0044436D02*
X0006000Y0044436D01*
X0006000Y0043437D02*
X0059961Y0043437D01*
X0059961Y0042439D02*
X0006000Y0042439D01*
X0006000Y0041440D02*
X0060071Y0041440D01*
X0060376Y0040442D02*
X0006000Y0040442D01*
X0006000Y0039443D02*
X0039918Y0039443D01*
X0038630Y0038445D02*
X0006000Y0038445D01*
X0006000Y0037446D02*
X0037866Y0037446D01*
X0037418Y0036448D02*
X0006000Y0036448D01*
X0006000Y0035449D02*
X0037179Y0035449D01*
X0037135Y0034205D02*
X0037260Y0033416D01*
X0037524Y0032602D01*
X0037913Y0031839D01*
X0038416Y0031147D01*
X0039021Y0030542D01*
X0039713Y0030039D01*
X0040476Y0029650D01*
X0041290Y0029386D01*
X0042135Y0029252D01*
X0046016Y0029252D01*
X0046016Y0034205D01*
X0037135Y0034205D01*
X0037254Y0033452D02*
X0006000Y0033452D01*
X0006000Y0032454D02*
X0037600Y0032454D01*
X0038192Y0031455D02*
X0006000Y0031455D01*
X0006000Y0030457D02*
X0039138Y0030457D01*
X0041067Y0029458D02*
X0006000Y0029458D01*
X0006000Y0028460D02*
X0330701Y0028460D01*
X0330701Y0029458D02*
X0051933Y0029458D01*
X0051710Y0029386D02*
X0052524Y0029650D01*
X0053287Y0030039D01*
X0053979Y0030542D01*
X0054584Y0031147D01*
X0055087Y0031839D01*
X0055476Y0032602D01*
X0055740Y0033416D01*
X0055865Y0034205D01*
X0046984Y0034205D01*
X0046984Y0029252D01*
X0050865Y0029252D01*
X0051710Y0029386D01*
X0053862Y0030457D02*
X0330701Y0030457D01*
X0330701Y0031455D02*
X0054808Y0031455D01*
X0055400Y0032454D02*
X0089748Y0032454D01*
X0088749Y0033452D02*
X0055746Y0033452D01*
X0055821Y0035449D02*
X0087400Y0035449D01*
X0087751Y0034451D02*
X0046984Y0034451D01*
X0046016Y0034451D02*
X0006000Y0034451D01*
X0006000Y0027461D02*
X0330701Y0027461D01*
X0330701Y0026463D02*
X0006000Y0026463D01*
X0006000Y0025464D02*
X0330701Y0025464D01*
X0330701Y0024466D02*
X0006000Y0024466D01*
X0006000Y0023467D02*
X0330701Y0023467D01*
X0330701Y0022469D02*
X0006000Y0022469D01*
X0006000Y0021470D02*
X0330701Y0021470D01*
X0330701Y0020472D02*
X0006000Y0020472D01*
X0006000Y0019473D02*
X0330701Y0019473D01*
X0330701Y0018475D02*
X0006000Y0018475D01*
X0006000Y0017476D02*
X0330701Y0017476D01*
X0330701Y0016478D02*
X0006000Y0016478D01*
X0006000Y0015479D02*
X0330701Y0015479D01*
X0330701Y0014481D02*
X0006000Y0014481D01*
X0006000Y0013482D02*
X0330701Y0013482D01*
X0330701Y0012484D02*
X0006000Y0012484D01*
X0006000Y0011485D02*
X0330701Y0011485D01*
X0330701Y0010487D02*
X0006000Y0010487D01*
X0006000Y0009488D02*
X0330701Y0009488D01*
X0330701Y0008490D02*
X0006000Y0008490D01*
X0006000Y0007491D02*
X0330701Y0007491D01*
X0330701Y0006493D02*
X0006000Y0006493D01*
X0006000Y0006000D02*
X0006000Y0211961D01*
X0330701Y0211961D01*
X0330701Y0006000D01*
X0006000Y0006000D01*
X0046016Y0029458D02*
X0046984Y0029458D01*
X0046984Y0030457D02*
X0046016Y0030457D01*
X0046016Y0031455D02*
X0046984Y0031455D01*
X0046984Y0032454D02*
X0046016Y0032454D01*
X0046016Y0033452D02*
X0046984Y0033452D01*
X0046984Y0035449D02*
X0046016Y0035449D01*
X0046016Y0036448D02*
X0046984Y0036448D01*
X0046984Y0037446D02*
X0046016Y0037446D01*
X0046016Y0038445D02*
X0046984Y0038445D01*
X0046984Y0039443D02*
X0046016Y0039443D01*
X0053082Y0039443D02*
X0060944Y0039443D01*
X0061827Y0038445D02*
X0054370Y0038445D01*
X0067245Y0037446D02*
X0087400Y0037446D01*
X0087647Y0038445D02*
X0068969Y0038445D01*
X0069852Y0039443D02*
X0088645Y0039443D01*
X0089644Y0040442D02*
X0070419Y0040442D01*
X0059961Y0047432D02*
X0006000Y0047432D01*
X0006000Y0048430D02*
X0059961Y0048430D01*
X0059961Y0049429D02*
X0006000Y0049429D01*
X0006000Y0050427D02*
X0059961Y0050427D01*
X0060049Y0051426D02*
X0006000Y0051426D01*
X0038700Y0071396D02*
X0079300Y0071396D01*
X0079300Y0072394D02*
X0038700Y0072394D01*
X0038700Y0079384D02*
X0042818Y0079384D01*
X0042400Y0080382D02*
X0038700Y0080382D01*
X0038700Y0081381D02*
X0046200Y0081381D01*
X0046200Y0082379D02*
X0046800Y0082379D01*
X0046800Y0083378D02*
X0046200Y0083378D01*
X0046200Y0084376D02*
X0046800Y0084376D01*
X0046800Y0085375D02*
X0046200Y0085375D01*
X0044577Y0085375D02*
X0038700Y0085375D01*
X0038700Y0086373D02*
X0099300Y0086373D01*
X0099300Y0087372D02*
X0048453Y0087372D01*
X0049452Y0088370D02*
X0099300Y0088370D01*
X0099300Y0089369D02*
X0050450Y0089369D01*
X0050800Y0090368D02*
X0099300Y0090368D01*
X0099300Y0091366D02*
X0050800Y0091366D01*
X0050800Y0092365D02*
X0079554Y0092365D01*
X0078556Y0093363D02*
X0050718Y0093363D01*
X0049720Y0094362D02*
X0077557Y0094362D01*
X0077200Y0095360D02*
X0048721Y0095360D01*
X0047870Y0098356D02*
X0077274Y0098356D01*
X0077200Y0097357D02*
X0028700Y0097357D01*
X0028700Y0096359D02*
X0077200Y0096359D01*
X0078273Y0099354D02*
X0049725Y0099354D01*
X0050724Y0100353D02*
X0079272Y0100353D01*
X0081500Y0096500D02*
X0101500Y0096500D01*
X0098556Y0093363D02*
X0084444Y0093363D01*
X0083446Y0092365D02*
X0099300Y0092365D01*
X0099514Y0085375D02*
X0048423Y0085375D01*
X0049422Y0084376D02*
X0100512Y0084376D01*
X0099584Y0080382D02*
X0083699Y0080382D01*
X0084697Y0079384D02*
X0098586Y0079384D01*
X0097587Y0078385D02*
X0085696Y0078385D01*
X0085800Y0077387D02*
X0097400Y0077387D01*
X0079301Y0080382D02*
X0050600Y0080382D01*
X0050182Y0079384D02*
X0078303Y0079384D01*
X0077304Y0078385D02*
X0049184Y0078385D01*
X0042400Y0082379D02*
X0038700Y0082379D01*
X0038700Y0083378D02*
X0042580Y0083378D01*
X0043578Y0084376D02*
X0038700Y0084376D01*
X0038700Y0087372D02*
X0044547Y0087372D01*
X0043548Y0088370D02*
X0037741Y0088370D01*
X0053706Y0063408D02*
X0079300Y0063408D01*
X0079300Y0062409D02*
X0054704Y0062409D01*
X0055418Y0061411D02*
X0079300Y0061411D01*
X0081500Y0056500D02*
X0101500Y0056500D01*
X0098496Y0053423D02*
X0084504Y0053423D01*
X0083505Y0052424D02*
X0099495Y0052424D01*
X0098333Y0059414D02*
X0084667Y0059414D01*
X0078496Y0053423D02*
X0069949Y0053423D01*
X0070469Y0052424D02*
X0079495Y0052424D01*
X0081200Y0050427D02*
X0081800Y0050427D01*
X0081800Y0049429D02*
X0081200Y0049429D01*
X0081200Y0048430D02*
X0081800Y0048430D01*
X0081800Y0047432D02*
X0081200Y0047432D01*
X0081200Y0045434D02*
X0081800Y0045434D01*
X0081800Y0044436D02*
X0081200Y0044436D01*
X0081200Y0043437D02*
X0081800Y0043437D01*
X0081800Y0042439D02*
X0081200Y0042439D01*
X0085600Y0047432D02*
X0119300Y0047432D01*
X0119300Y0048430D02*
X0085368Y0048430D01*
X0084370Y0049429D02*
X0119300Y0049429D01*
X0119300Y0050427D02*
X0083371Y0050427D01*
X0077498Y0054421D02*
X0069103Y0054421D01*
X0091200Y0040442D02*
X0091800Y0040442D01*
X0091800Y0039443D02*
X0091200Y0039443D01*
X0091200Y0038445D02*
X0091800Y0038445D01*
X0091800Y0037446D02*
X0091200Y0037446D01*
X0091200Y0035449D02*
X0091800Y0035449D01*
X0091800Y0034451D02*
X0091200Y0034451D01*
X0091200Y0033452D02*
X0091800Y0033452D01*
X0091800Y0032454D02*
X0091200Y0032454D01*
X0093252Y0032454D02*
X0119465Y0032454D01*
X0118467Y0033452D02*
X0094251Y0033452D01*
X0095249Y0034451D02*
X0117468Y0034451D01*
X0117200Y0035449D02*
X0095600Y0035449D01*
X0095600Y0037446D02*
X0117200Y0037446D01*
X0117364Y0038445D02*
X0095353Y0038445D01*
X0094355Y0039443D02*
X0118362Y0039443D01*
X0119300Y0040442D02*
X0093356Y0040442D01*
X0123700Y0040442D02*
X0184300Y0040442D01*
X0184300Y0041440D02*
X0123700Y0041440D01*
X0123700Y0042439D02*
X0184300Y0042439D01*
X0184300Y0043437D02*
X0123700Y0043437D01*
X0123700Y0044436D02*
X0184300Y0044436D01*
X0184300Y0045434D02*
X0123700Y0045434D01*
X0123700Y0046433D02*
X0184300Y0046433D01*
X0184300Y0047432D02*
X0123700Y0047432D01*
X0123700Y0048430D02*
X0184300Y0048430D01*
X0184300Y0049429D02*
X0123700Y0049429D01*
X0123700Y0050427D02*
X0184300Y0050427D01*
X0184300Y0051426D02*
X0123700Y0051426D01*
X0123700Y0052424D02*
X0184300Y0052424D01*
X0184300Y0053423D02*
X0124504Y0053423D01*
X0127532Y0054421D02*
X0184300Y0054421D01*
X0184300Y0055420D02*
X0128531Y0055420D01*
X0128700Y0056418D02*
X0184300Y0056418D01*
X0184300Y0057417D02*
X0128700Y0057417D01*
X0128700Y0058415D02*
X0184300Y0058415D01*
X0184300Y0059414D02*
X0128700Y0059414D01*
X0128700Y0060412D02*
X0184300Y0060412D01*
X0184300Y0061411D02*
X0128700Y0061411D01*
X0128700Y0062409D02*
X0184300Y0062409D01*
X0184300Y0063408D02*
X0128700Y0063408D01*
X0128700Y0064406D02*
X0184300Y0064406D01*
X0184300Y0065405D02*
X0128700Y0065405D01*
X0128700Y0066403D02*
X0184300Y0066403D01*
X0184300Y0067402D02*
X0128700Y0067402D01*
X0128700Y0068400D02*
X0184300Y0068400D01*
X0184300Y0069399D02*
X0128700Y0069399D01*
X0128700Y0070397D02*
X0184300Y0070397D01*
X0184300Y0073393D02*
X0152074Y0073393D01*
X0136500Y0086500D02*
X0136500Y0126500D01*
X0146500Y0126500D01*
X0151143Y0130308D02*
X0189300Y0130308D01*
X0189300Y0131306D02*
X0108700Y0131306D01*
X0108700Y0130308D02*
X0111857Y0130308D01*
X0110628Y0129309D02*
X0108700Y0129309D01*
X0108700Y0132305D02*
X0112791Y0132305D01*
X0111015Y0133303D02*
X0108700Y0133303D01*
X0108700Y0134302D02*
X0110156Y0134302D01*
X0109743Y0135301D02*
X0108700Y0135301D01*
X0108700Y0136299D02*
X0109600Y0136299D01*
X0109600Y0137298D02*
X0108700Y0137298D01*
X0107815Y0138296D02*
X0109990Y0138296D01*
X0110613Y0139295D02*
X0103352Y0139295D01*
X0102354Y0140293D02*
X0111821Y0140293D01*
X0114300Y0141292D02*
X0006000Y0141292D01*
X0006000Y0142290D02*
X0091894Y0142290D01*
X0091773Y0142330D02*
X0092446Y0142111D01*
X0093146Y0142000D01*
X0096000Y0142000D01*
X0096000Y0146000D01*
X0097000Y0146000D01*
X0097000Y0147000D01*
X0096000Y0147000D01*
X0096000Y0151000D01*
X0093146Y0151000D01*
X0092446Y0150889D01*
X0091773Y0150670D01*
X0091141Y0150349D01*
X0090568Y0149932D01*
X0090068Y0149432D01*
X0089651Y0148859D01*
X0089330Y0148227D01*
X0089111Y0147554D01*
X0089023Y0147000D01*
X0096000Y0147000D01*
X0096000Y0146000D01*
X0089023Y0146000D01*
X0089111Y0145446D01*
X0089330Y0144773D01*
X0089651Y0144141D01*
X0090068Y0143568D01*
X0090568Y0143068D01*
X0091141Y0142651D01*
X0091773Y0142330D01*
X0090347Y0143289D02*
X0006000Y0143289D01*
X0006000Y0144287D02*
X0089577Y0144287D01*
X0089163Y0145286D02*
X0006000Y0145286D01*
X0006000Y0146284D02*
X0096000Y0146284D01*
X0096000Y0145286D02*
X0097000Y0145286D01*
X0097000Y0146000D02*
X0097000Y0142000D01*
X0099854Y0142000D01*
X0100554Y0142111D01*
X0101227Y0142330D01*
X0101859Y0142651D01*
X0102432Y0143068D01*
X0102932Y0143568D01*
X0103349Y0144141D01*
X0103670Y0144773D01*
X0103889Y0145446D01*
X0103977Y0146000D01*
X0097000Y0146000D01*
X0097000Y0146284D02*
X0114300Y0146284D01*
X0114300Y0145286D02*
X0103837Y0145286D01*
X0103423Y0144287D02*
X0114300Y0144287D01*
X0114300Y0143289D02*
X0102653Y0143289D01*
X0101106Y0142290D02*
X0114300Y0142290D01*
X0118700Y0142290D02*
X0194300Y0142290D01*
X0194300Y0141292D02*
X0118700Y0141292D01*
X0118700Y0143289D02*
X0194300Y0143289D01*
X0194300Y0144287D02*
X0118700Y0144287D01*
X0114300Y0147283D02*
X0103932Y0147283D01*
X0103889Y0147554D02*
X0103670Y0148227D01*
X0103349Y0148859D01*
X0102932Y0149432D01*
X0102432Y0149932D01*
X0101859Y0150349D01*
X0101227Y0150670D01*
X0100554Y0150889D01*
X0099854Y0151000D01*
X0097000Y0151000D01*
X0097000Y0147000D01*
X0103977Y0147000D01*
X0103889Y0147554D01*
X0103643Y0148281D02*
X0115170Y0148281D01*
X0103664Y0154272D02*
X0127647Y0154272D01*
X0127200Y0154719D02*
X0129719Y0152200D01*
X0133281Y0152200D01*
X0135800Y0154719D01*
X0135800Y0158281D01*
X0133281Y0160800D01*
X0129719Y0160800D01*
X0127200Y0158281D01*
X0127200Y0154719D01*
X0127200Y0155271D02*
X0104078Y0155271D01*
X0104200Y0155565D02*
X0104200Y0157435D01*
X0103484Y0159162D01*
X0102162Y0160484D01*
X0100435Y0161200D01*
X0092565Y0161200D01*
X0090838Y0160484D01*
X0089516Y0159162D01*
X0088800Y0157435D01*
X0088800Y0155565D01*
X0089516Y0153838D01*
X0090838Y0152516D01*
X0092565Y0151800D01*
X0100435Y0151800D01*
X0102162Y0152516D01*
X0103484Y0153838D01*
X0104200Y0155565D01*
X0104200Y0156269D02*
X0127200Y0156269D01*
X0127200Y0157268D02*
X0104200Y0157268D01*
X0103856Y0158266D02*
X0127200Y0158266D01*
X0128184Y0159265D02*
X0103382Y0159265D01*
X0102383Y0160263D02*
X0129182Y0160263D01*
X0133818Y0160263D02*
X0149465Y0160263D01*
X0149802Y0160600D02*
X0147400Y0158198D01*
X0147400Y0156800D01*
X0151200Y0156800D01*
X0151200Y0160600D01*
X0149802Y0160600D01*
X0151200Y0160263D02*
X0151800Y0160263D01*
X0151800Y0160600D02*
X0153198Y0160600D01*
X0155600Y0158198D01*
X0155600Y0156800D01*
X0151800Y0156800D01*
X0151800Y0156200D01*
X0155600Y0156200D01*
X0155600Y0154802D01*
X0153198Y0152400D01*
X0151800Y0152400D01*
X0151800Y0156200D01*
X0151200Y0156200D01*
X0151200Y0152400D01*
X0149802Y0152400D01*
X0147400Y0154802D01*
X0147400Y0156200D01*
X0151200Y0156200D01*
X0151200Y0156800D01*
X0151800Y0156800D01*
X0151800Y0160600D01*
X0151800Y0159265D02*
X0151200Y0159265D01*
X0151200Y0158266D02*
X0151800Y0158266D01*
X0151800Y0157268D02*
X0151200Y0157268D01*
X0151200Y0156269D02*
X0135800Y0156269D01*
X0135800Y0155271D02*
X0147400Y0155271D01*
X0147929Y0154272D02*
X0135353Y0154272D01*
X0134355Y0153274D02*
X0148928Y0153274D01*
X0151200Y0153274D02*
X0151800Y0153274D01*
X0151800Y0154272D02*
X0151200Y0154272D01*
X0151200Y0155271D02*
X0151800Y0155271D01*
X0151800Y0156269D02*
X0330701Y0156269D01*
X0330701Y0155271D02*
X0155600Y0155271D01*
X0155070Y0154272D02*
X0330701Y0154272D01*
X0330701Y0153274D02*
X0154072Y0153274D01*
X0155600Y0157268D02*
X0330701Y0157268D01*
X0330701Y0158266D02*
X0155532Y0158266D01*
X0154533Y0159265D02*
X0330701Y0159265D01*
X0330701Y0160263D02*
X0153535Y0160263D01*
X0148467Y0159265D02*
X0134816Y0159265D01*
X0135800Y0158266D02*
X0147468Y0158266D01*
X0147400Y0157268D02*
X0135800Y0157268D01*
X0133356Y0152275D02*
X0330701Y0152275D01*
X0330701Y0151277D02*
X0006000Y0151277D01*
X0006000Y0152275D02*
X0091418Y0152275D01*
X0090079Y0153274D02*
X0006000Y0153274D01*
X0006000Y0154272D02*
X0089336Y0154272D01*
X0088922Y0155271D02*
X0040782Y0155271D01*
X0040746Y0155250D02*
X0043254Y0156698D01*
X0045302Y0158746D01*
X0046750Y0161254D01*
X0047500Y0164052D01*
X0047500Y0166948D01*
X0046750Y0169746D01*
X0045302Y0172254D01*
X0043254Y0174302D01*
X0040746Y0175750D01*
X0037948Y0176500D01*
X0035052Y0176500D01*
X0032254Y0175750D01*
X0029746Y0174302D01*
X0027698Y0172254D01*
X0026250Y0169746D01*
X0025500Y0166948D01*
X0025500Y0164052D01*
X0026250Y0161254D01*
X0027698Y0158746D01*
X0029746Y0156698D01*
X0032254Y0155250D01*
X0035052Y0154500D01*
X0037948Y0154500D01*
X0040746Y0155250D01*
X0042512Y0156269D02*
X0088800Y0156269D01*
X0088800Y0157268D02*
X0043824Y0157268D01*
X0044823Y0158266D02*
X0089144Y0158266D01*
X0089618Y0159265D02*
X0045602Y0159265D01*
X0046178Y0160263D02*
X0090616Y0160263D01*
X0091044Y0150278D02*
X0006000Y0150278D01*
X0006000Y0149280D02*
X0089957Y0149280D01*
X0089357Y0148281D02*
X0006000Y0148281D01*
X0006000Y0147283D02*
X0089068Y0147283D01*
X0096000Y0147283D02*
X0097000Y0147283D01*
X0097000Y0148281D02*
X0096000Y0148281D01*
X0096000Y0149280D02*
X0097000Y0149280D01*
X0097000Y0150278D02*
X0096000Y0150278D01*
X0101582Y0152275D02*
X0129644Y0152275D01*
X0128645Y0153274D02*
X0102921Y0153274D01*
X0101956Y0150278D02*
X0214480Y0150278D01*
X0213481Y0149280D02*
X0103043Y0149280D01*
X0097000Y0144287D02*
X0096000Y0144287D01*
X0096000Y0143289D02*
X0097000Y0143289D01*
X0097000Y0142290D02*
X0096000Y0142290D01*
X0090646Y0140293D02*
X0006000Y0140293D01*
X0006000Y0139295D02*
X0089648Y0139295D01*
X0089157Y0138296D02*
X0006000Y0138296D01*
X0006000Y0137298D02*
X0088800Y0137298D01*
X0088800Y0136299D02*
X0006000Y0136299D01*
X0006000Y0135301D02*
X0088910Y0135301D01*
X0089323Y0134302D02*
X0006000Y0134302D01*
X0006000Y0133303D02*
X0090050Y0133303D01*
X0091346Y0132305D02*
X0006000Y0132305D01*
X0006000Y0131306D02*
X0104300Y0131306D01*
X0104300Y0130308D02*
X0103773Y0130308D01*
X0104300Y0132305D02*
X0101654Y0132305D01*
X0102950Y0133303D02*
X0104300Y0133303D01*
X0106500Y0136500D02*
X0106500Y0126500D01*
X0116500Y0126500D01*
X0136500Y0126500D01*
X0146500Y0116500D02*
X0161500Y0116500D01*
X0161500Y0121500D01*
X0159242Y0120323D02*
X0151107Y0120323D01*
X0152357Y0119324D02*
X0158243Y0119324D01*
X0152850Y0124317D02*
X0189300Y0124317D01*
X0189300Y0125315D02*
X0153264Y0125315D01*
X0153400Y0126314D02*
X0189300Y0126314D01*
X0189300Y0127312D02*
X0153400Y0127312D01*
X0153004Y0128311D02*
X0189300Y0128311D01*
X0189300Y0129309D02*
X0152372Y0129309D01*
X0150209Y0132305D02*
X0189300Y0132305D01*
X0189300Y0133303D02*
X0151985Y0133303D01*
X0152387Y0139295D02*
X0194300Y0139295D01*
X0194300Y0140293D02*
X0151179Y0140293D01*
X0177793Y0123318D02*
X0189300Y0123318D01*
X0189300Y0122320D02*
X0178700Y0122320D01*
X0178700Y0121321D02*
X0189300Y0121321D01*
X0189300Y0120323D02*
X0178700Y0120323D01*
X0178700Y0119324D02*
X0189300Y0119324D01*
X0189300Y0118326D02*
X0178700Y0118326D01*
X0178700Y0117327D02*
X0189300Y0117327D01*
X0189300Y0116329D02*
X0178700Y0116329D01*
X0178700Y0115330D02*
X0189300Y0115330D01*
X0189300Y0114332D02*
X0178700Y0114332D01*
X0178700Y0113333D02*
X0189300Y0113333D01*
X0189300Y0112335D02*
X0178700Y0112335D01*
X0178700Y0111336D02*
X0189300Y0111336D01*
X0189300Y0110338D02*
X0178700Y0110338D01*
X0178700Y0109339D02*
X0189300Y0109339D01*
X0189300Y0108341D02*
X0178700Y0108341D01*
X0178700Y0107342D02*
X0189300Y0107342D01*
X0189300Y0106344D02*
X0178700Y0106344D01*
X0178700Y0105345D02*
X0189300Y0105345D01*
X0189300Y0104347D02*
X0178700Y0104347D01*
X0178700Y0103348D02*
X0189300Y0103348D01*
X0189300Y0102350D02*
X0178700Y0102350D01*
X0178700Y0101351D02*
X0189300Y0101351D01*
X0189300Y0100353D02*
X0178700Y0100353D01*
X0178700Y0099354D02*
X0189300Y0099354D01*
X0189300Y0098356D02*
X0178700Y0098356D01*
X0178700Y0097357D02*
X0189300Y0097357D01*
X0189300Y0096359D02*
X0178700Y0096359D01*
X0178700Y0095360D02*
X0189300Y0095360D01*
X0189300Y0094362D02*
X0178700Y0094362D01*
X0178700Y0093363D02*
X0189300Y0093363D01*
X0189300Y0092365D02*
X0178700Y0092365D01*
X0178700Y0091366D02*
X0189300Y0091366D01*
X0189300Y0090368D02*
X0178700Y0090368D01*
X0178700Y0089369D02*
X0189300Y0089369D01*
X0189300Y0088370D02*
X0178700Y0088370D01*
X0178700Y0087372D02*
X0189300Y0087372D01*
X0189300Y0086373D02*
X0178700Y0086373D01*
X0178700Y0085375D02*
X0189300Y0085375D01*
X0189300Y0084376D02*
X0178700Y0084376D01*
X0178700Y0083378D02*
X0189300Y0083378D01*
X0189300Y0082379D02*
X0178700Y0082379D01*
X0178700Y0081381D02*
X0189300Y0081381D01*
X0189300Y0080382D02*
X0178494Y0080382D01*
X0177495Y0079384D02*
X0189300Y0079384D01*
X0189300Y0078385D02*
X0187726Y0078385D01*
X0188700Y0077387D02*
X0189300Y0077387D01*
X0189300Y0076388D02*
X0188700Y0076388D01*
X0188700Y0075390D02*
X0189300Y0075390D01*
X0189300Y0074391D02*
X0188700Y0074391D01*
X0188700Y0073393D02*
X0189300Y0073393D01*
X0189300Y0072394D02*
X0188700Y0072394D01*
X0188700Y0071396D02*
X0189300Y0071396D01*
X0189300Y0070397D02*
X0188700Y0070397D01*
X0188700Y0069399D02*
X0189300Y0069399D01*
X0189300Y0068400D02*
X0188700Y0068400D01*
X0188700Y0067402D02*
X0189300Y0067402D01*
X0189300Y0066403D02*
X0188700Y0066403D01*
X0188700Y0065405D02*
X0189300Y0065405D01*
X0189300Y0064406D02*
X0188700Y0064406D01*
X0188700Y0063408D02*
X0189300Y0063408D01*
X0189300Y0062409D02*
X0188700Y0062409D01*
X0188700Y0061411D02*
X0189300Y0061411D01*
X0189300Y0060412D02*
X0188700Y0060412D01*
X0188700Y0059414D02*
X0189300Y0059414D01*
X0189300Y0058415D02*
X0188700Y0058415D01*
X0188700Y0057417D02*
X0189300Y0057417D01*
X0189300Y0056418D02*
X0188700Y0056418D01*
X0188700Y0055420D02*
X0189300Y0055420D01*
X0189300Y0054421D02*
X0188700Y0054421D01*
X0188700Y0053423D02*
X0189300Y0053423D01*
X0189300Y0052424D02*
X0188700Y0052424D01*
X0188700Y0051426D02*
X0189300Y0051426D01*
X0189300Y0050427D02*
X0188700Y0050427D01*
X0188700Y0049429D02*
X0189300Y0049429D01*
X0189300Y0048430D02*
X0188700Y0048430D01*
X0188700Y0047432D02*
X0189300Y0047432D01*
X0189300Y0046433D02*
X0188700Y0046433D01*
X0188700Y0045434D02*
X0189300Y0045434D01*
X0189300Y0044436D02*
X0188700Y0044436D01*
X0188700Y0043437D02*
X0189300Y0043437D01*
X0189300Y0042439D02*
X0188700Y0042439D01*
X0188700Y0041440D02*
X0189300Y0041440D01*
X0189447Y0040442D02*
X0188700Y0040442D01*
X0188700Y0039443D02*
X0190445Y0039443D01*
X0193700Y0044436D02*
X0195453Y0044436D01*
X0194454Y0045434D02*
X0193700Y0045434D01*
X0193700Y0046433D02*
X0194300Y0046433D01*
X0194300Y0047432D02*
X0193700Y0047432D01*
X0193700Y0048430D02*
X0194300Y0048430D01*
X0194300Y0049429D02*
X0193700Y0049429D01*
X0193700Y0050427D02*
X0194300Y0050427D01*
X0194300Y0051426D02*
X0193700Y0051426D01*
X0193700Y0052424D02*
X0194300Y0052424D01*
X0194300Y0053423D02*
X0193700Y0053423D01*
X0193700Y0054421D02*
X0194300Y0054421D01*
X0194300Y0055420D02*
X0193700Y0055420D01*
X0193700Y0056418D02*
X0194300Y0056418D01*
X0194300Y0057417D02*
X0193700Y0057417D01*
X0193700Y0058415D02*
X0194300Y0058415D01*
X0194300Y0059414D02*
X0193700Y0059414D01*
X0193700Y0060412D02*
X0194300Y0060412D01*
X0194300Y0061411D02*
X0193700Y0061411D01*
X0193700Y0062409D02*
X0194300Y0062409D01*
X0194300Y0063408D02*
X0193700Y0063408D01*
X0193700Y0064406D02*
X0194300Y0064406D01*
X0194300Y0065405D02*
X0193700Y0065405D01*
X0193700Y0066403D02*
X0194300Y0066403D01*
X0194300Y0067402D02*
X0193700Y0067402D01*
X0193700Y0068400D02*
X0194300Y0068400D01*
X0194300Y0069399D02*
X0193700Y0069399D01*
X0193700Y0070397D02*
X0194300Y0070397D01*
X0194300Y0071396D02*
X0193700Y0071396D01*
X0193700Y0072394D02*
X0194300Y0072394D01*
X0194300Y0073393D02*
X0193700Y0073393D01*
X0193700Y0074391D02*
X0194300Y0074391D01*
X0194300Y0075390D02*
X0193700Y0075390D01*
X0193700Y0076388D02*
X0194300Y0076388D01*
X0194300Y0077387D02*
X0193700Y0077387D01*
X0193700Y0078385D02*
X0194300Y0078385D01*
X0194300Y0079384D02*
X0193700Y0079384D01*
X0193700Y0080382D02*
X0194300Y0080382D01*
X0194300Y0081381D02*
X0193700Y0081381D01*
X0193700Y0082379D02*
X0194300Y0082379D01*
X0194300Y0083378D02*
X0193700Y0083378D01*
X0193700Y0084376D02*
X0194300Y0084376D01*
X0194300Y0085375D02*
X0193700Y0085375D01*
X0193700Y0086373D02*
X0194300Y0086373D01*
X0194300Y0087372D02*
X0193700Y0087372D01*
X0193700Y0088370D02*
X0194300Y0088370D01*
X0194300Y0089369D02*
X0193700Y0089369D01*
X0193700Y0090368D02*
X0194300Y0090368D01*
X0194300Y0091366D02*
X0193700Y0091366D01*
X0193700Y0092365D02*
X0194300Y0092365D01*
X0194300Y0093363D02*
X0193700Y0093363D01*
X0193700Y0094362D02*
X0194300Y0094362D01*
X0194300Y0095360D02*
X0193700Y0095360D01*
X0193700Y0096359D02*
X0194300Y0096359D01*
X0194300Y0097357D02*
X0193700Y0097357D01*
X0193700Y0098356D02*
X0194300Y0098356D01*
X0194300Y0099354D02*
X0193700Y0099354D01*
X0193700Y0100353D02*
X0194300Y0100353D01*
X0194300Y0101351D02*
X0193700Y0101351D01*
X0193700Y0102350D02*
X0194300Y0102350D01*
X0194300Y0103348D02*
X0193700Y0103348D01*
X0193700Y0104347D02*
X0194300Y0104347D01*
X0194300Y0105345D02*
X0193700Y0105345D01*
X0193700Y0106344D02*
X0194300Y0106344D01*
X0194300Y0107342D02*
X0193700Y0107342D01*
X0193700Y0108341D02*
X0194300Y0108341D01*
X0194300Y0109339D02*
X0193700Y0109339D01*
X0193700Y0110338D02*
X0194300Y0110338D01*
X0194300Y0111336D02*
X0193700Y0111336D01*
X0193700Y0112335D02*
X0194300Y0112335D01*
X0194300Y0113333D02*
X0193700Y0113333D01*
X0193700Y0114332D02*
X0194300Y0114332D01*
X0194300Y0115330D02*
X0193700Y0115330D01*
X0193700Y0116329D02*
X0194300Y0116329D01*
X0194300Y0117327D02*
X0193700Y0117327D01*
X0193700Y0118326D02*
X0194300Y0118326D01*
X0194300Y0119324D02*
X0193700Y0119324D01*
X0193700Y0120323D02*
X0194300Y0120323D01*
X0194300Y0121321D02*
X0193700Y0121321D01*
X0193700Y0122320D02*
X0194300Y0122320D01*
X0194300Y0123318D02*
X0193700Y0123318D01*
X0193700Y0124317D02*
X0194300Y0124317D01*
X0194300Y0125315D02*
X0193700Y0125315D01*
X0193700Y0126314D02*
X0194300Y0126314D01*
X0194300Y0127312D02*
X0193700Y0127312D01*
X0193700Y0128311D02*
X0194300Y0128311D01*
X0194300Y0129309D02*
X0193700Y0129309D01*
X0193700Y0130308D02*
X0194300Y0130308D01*
X0194300Y0131306D02*
X0193700Y0131306D01*
X0193700Y0132305D02*
X0194300Y0132305D01*
X0194300Y0133303D02*
X0193700Y0133303D01*
X0193700Y0134302D02*
X0194300Y0134302D01*
X0194300Y0135301D02*
X0193700Y0135301D01*
X0193700Y0136299D02*
X0194300Y0136299D01*
X0194300Y0137298D02*
X0193700Y0137298D01*
X0194300Y0138296D02*
X0192815Y0138296D01*
X0196500Y0146500D02*
X0196500Y0046500D01*
X0221500Y0046500D01*
X0221500Y0056500D01*
X0223700Y0051426D02*
X0249300Y0051426D01*
X0249300Y0052424D02*
X0243505Y0052424D01*
X0244504Y0053423D02*
X0248496Y0053423D01*
X0247498Y0054421D02*
X0245502Y0054421D01*
X0245800Y0055420D02*
X0247200Y0055420D01*
X0247200Y0056418D02*
X0245800Y0056418D01*
X0245800Y0057417D02*
X0247200Y0057417D01*
X0247334Y0058415D02*
X0245666Y0058415D01*
X0244667Y0059414D02*
X0248333Y0059414D01*
X0249331Y0060412D02*
X0243700Y0060412D01*
X0254489Y0063408D02*
X0269300Y0063408D01*
X0269300Y0064406D02*
X0255487Y0064406D01*
X0255800Y0065405D02*
X0269300Y0065405D01*
X0269300Y0066403D02*
X0255800Y0066403D01*
X0255800Y0067402D02*
X0269300Y0067402D01*
X0269300Y0068400D02*
X0255681Y0068400D01*
X0254682Y0069399D02*
X0269300Y0069399D01*
X0269300Y0070397D02*
X0253684Y0070397D01*
X0239300Y0071396D02*
X0213700Y0071396D01*
X0213700Y0072394D02*
X0239300Y0072394D01*
X0239300Y0073393D02*
X0213700Y0073393D01*
X0213700Y0074391D02*
X0239300Y0074391D01*
X0239300Y0075390D02*
X0213700Y0075390D01*
X0213700Y0076388D02*
X0238500Y0076388D01*
X0234532Y0077387D02*
X0228468Y0077387D01*
X0229466Y0078385D02*
X0233534Y0078385D01*
X0232535Y0079384D02*
X0232495Y0079384D01*
X0231500Y0081500D02*
X0226500Y0081500D01*
X0223534Y0078385D02*
X0212726Y0078385D01*
X0212411Y0078700D02*
X0212411Y0078700D01*
X0211727Y0079384D02*
X0222535Y0079384D01*
X0222200Y0080382D02*
X0210800Y0080382D01*
X0210800Y0081381D02*
X0222200Y0081381D01*
X0222200Y0082379D02*
X0210800Y0082379D01*
X0210703Y0083378D02*
X0222297Y0083378D01*
X0223295Y0084376D02*
X0209705Y0084376D01*
X0208706Y0085375D02*
X0224294Y0085375D01*
X0228706Y0085375D02*
X0229300Y0085375D01*
X0229300Y0086373D02*
X0208700Y0086373D01*
X0208700Y0087372D02*
X0229300Y0087372D01*
X0229300Y0088370D02*
X0208700Y0088370D01*
X0208700Y0089369D02*
X0229300Y0089369D01*
X0229300Y0090368D02*
X0208700Y0090368D01*
X0208700Y0091366D02*
X0229300Y0091366D01*
X0229300Y0092365D02*
X0208700Y0092365D01*
X0208700Y0093363D02*
X0229300Y0093363D01*
X0229300Y0094362D02*
X0208700Y0094362D01*
X0208700Y0095360D02*
X0229300Y0095360D01*
X0229300Y0096359D02*
X0208700Y0096359D01*
X0204300Y0096359D02*
X0198700Y0096359D01*
X0198700Y0097357D02*
X0204300Y0097357D01*
X0203563Y0098356D02*
X0198700Y0098356D01*
X0198700Y0099354D02*
X0202565Y0099354D01*
X0202200Y0100353D02*
X0198700Y0100353D01*
X0198700Y0101351D02*
X0202200Y0101351D01*
X0202200Y0102350D02*
X0198700Y0102350D01*
X0198700Y0103348D02*
X0202267Y0103348D01*
X0203266Y0104347D02*
X0198700Y0104347D01*
X0198700Y0105345D02*
X0204264Y0105345D01*
X0198700Y0112335D02*
X0214584Y0112335D01*
X0213586Y0113333D02*
X0198700Y0113333D01*
X0198700Y0114332D02*
X0212587Y0114332D01*
X0212200Y0115330D02*
X0198700Y0115330D01*
X0198700Y0116329D02*
X0212200Y0116329D01*
X0212200Y0117327D02*
X0198700Y0117327D01*
X0198700Y0118326D02*
X0212245Y0118326D01*
X0213243Y0119324D02*
X0198700Y0119324D01*
X0198700Y0128311D02*
X0212513Y0128311D01*
X0213511Y0129309D02*
X0198700Y0129309D01*
X0198700Y0147283D02*
X0212400Y0147283D01*
X0212483Y0148281D02*
X0197830Y0148281D01*
X0216200Y0148281D02*
X0216800Y0148281D01*
X0216800Y0147283D02*
X0216200Y0147283D01*
X0216200Y0149280D02*
X0216800Y0149280D01*
X0216800Y0150278D02*
X0216200Y0150278D01*
X0232815Y0138296D02*
X0242215Y0138296D01*
X0242200Y0137298D02*
X0233700Y0137298D01*
X0231500Y0136500D02*
X0231500Y0081500D01*
X0224532Y0077387D02*
X0213700Y0077387D01*
X0209300Y0075390D02*
X0198700Y0075390D01*
X0198700Y0076388D02*
X0208500Y0076388D01*
X0209300Y0074391D02*
X0198700Y0074391D01*
X0198700Y0073393D02*
X0209300Y0073393D01*
X0209300Y0072394D02*
X0198700Y0072394D01*
X0198700Y0071396D02*
X0209300Y0071396D01*
X0209300Y0070397D02*
X0198700Y0070397D01*
X0198700Y0069399D02*
X0209300Y0069399D01*
X0209300Y0068400D02*
X0198700Y0068400D01*
X0198700Y0067402D02*
X0209300Y0067402D01*
X0209300Y0066403D02*
X0198700Y0066403D01*
X0198700Y0065405D02*
X0209300Y0065405D01*
X0209300Y0064406D02*
X0198700Y0064406D01*
X0198700Y0063408D02*
X0209300Y0063408D01*
X0209300Y0062409D02*
X0198700Y0062409D01*
X0198700Y0061411D02*
X0209300Y0061411D01*
X0209300Y0060412D02*
X0198700Y0060412D01*
X0198700Y0059414D02*
X0208333Y0059414D01*
X0207334Y0058415D02*
X0198700Y0058415D01*
X0198700Y0057417D02*
X0207200Y0057417D01*
X0207200Y0056418D02*
X0198700Y0056418D01*
X0198700Y0055420D02*
X0207200Y0055420D01*
X0207498Y0054421D02*
X0198700Y0054421D01*
X0198700Y0053423D02*
X0208496Y0053423D01*
X0209495Y0052424D02*
X0198700Y0052424D01*
X0198700Y0051426D02*
X0219300Y0051426D01*
X0219300Y0050427D02*
X0198700Y0050427D01*
X0198700Y0049429D02*
X0219300Y0049429D01*
X0223700Y0049429D02*
X0249300Y0049429D01*
X0249300Y0050427D02*
X0223700Y0050427D01*
X0223700Y0048430D02*
X0249300Y0048430D01*
X0249300Y0047432D02*
X0223700Y0047432D01*
X0223700Y0046433D02*
X0249300Y0046433D01*
X0249300Y0045434D02*
X0223546Y0045434D01*
X0222547Y0044436D02*
X0249300Y0044436D01*
X0253700Y0044436D02*
X0279300Y0044436D01*
X0279300Y0045434D02*
X0253700Y0045434D01*
X0253700Y0046433D02*
X0279300Y0046433D01*
X0279300Y0047432D02*
X0253700Y0047432D01*
X0253700Y0048430D02*
X0279300Y0048430D01*
X0279300Y0049429D02*
X0253700Y0049429D01*
X0253700Y0050427D02*
X0279300Y0050427D01*
X0279300Y0051426D02*
X0253700Y0051426D01*
X0253700Y0052424D02*
X0269495Y0052424D01*
X0279300Y0043437D02*
X0253700Y0043437D01*
X0253700Y0042439D02*
X0279300Y0042439D01*
X0279300Y0041440D02*
X0253700Y0041440D01*
X0253553Y0040442D02*
X0279300Y0040442D01*
X0279300Y0039443D02*
X0252555Y0039443D01*
X0282562Y0034451D02*
X0330701Y0034451D01*
X0330701Y0035449D02*
X0283561Y0035449D01*
X0283700Y0036448D02*
X0330701Y0036448D01*
X0330701Y0037446D02*
X0283700Y0037446D01*
X0283700Y0038445D02*
X0330701Y0038445D01*
X0330701Y0039443D02*
X0283700Y0039443D01*
X0283700Y0040442D02*
X0330701Y0040442D01*
X0330701Y0041440D02*
X0283700Y0041440D01*
X0283700Y0042439D02*
X0330701Y0042439D01*
X0330701Y0043437D02*
X0283700Y0043437D01*
X0283700Y0044436D02*
X0330701Y0044436D01*
X0330701Y0045434D02*
X0283700Y0045434D01*
X0283700Y0046433D02*
X0330701Y0046433D01*
X0330701Y0047432D02*
X0283700Y0047432D01*
X0283700Y0048430D02*
X0330701Y0048430D01*
X0330701Y0049429D02*
X0283700Y0049429D01*
X0283700Y0050427D02*
X0330701Y0050427D01*
X0330701Y0033452D02*
X0124533Y0033452D01*
X0123535Y0032454D02*
X0330701Y0032454D01*
X0330701Y0071396D02*
X0273700Y0071396D01*
X0273700Y0072394D02*
X0308959Y0072394D01*
X0307960Y0073393D02*
X0273700Y0073393D01*
X0288706Y0085375D02*
X0289300Y0085375D01*
X0293700Y0085375D02*
X0330701Y0085375D01*
X0330701Y0086373D02*
X0293700Y0086373D01*
X0293700Y0087372D02*
X0330701Y0087372D01*
X0330701Y0088370D02*
X0293700Y0088370D01*
X0293700Y0089369D02*
X0330701Y0089369D01*
X0330701Y0090368D02*
X0293700Y0090368D01*
X0293700Y0091366D02*
X0330701Y0091366D01*
X0330701Y0092365D02*
X0293700Y0092365D01*
X0293700Y0093363D02*
X0330701Y0093363D01*
X0330701Y0094362D02*
X0293700Y0094362D01*
X0293700Y0095360D02*
X0330701Y0095360D01*
X0330701Y0096359D02*
X0293700Y0096359D01*
X0293700Y0097357D02*
X0330701Y0097357D01*
X0330701Y0098356D02*
X0293700Y0098356D01*
X0293700Y0099354D02*
X0330701Y0099354D01*
X0330701Y0100353D02*
X0293700Y0100353D01*
X0293700Y0101351D02*
X0330701Y0101351D01*
X0330701Y0102350D02*
X0293700Y0102350D01*
X0293700Y0103348D02*
X0330701Y0103348D01*
X0330701Y0104347D02*
X0293700Y0104347D01*
X0293700Y0105345D02*
X0330701Y0105345D01*
X0330701Y0106344D02*
X0293700Y0106344D01*
X0293700Y0107342D02*
X0330701Y0107342D01*
X0330701Y0108341D02*
X0293700Y0108341D01*
X0293700Y0109339D02*
X0330701Y0109339D01*
X0330701Y0110338D02*
X0293700Y0110338D01*
X0293700Y0111336D02*
X0330701Y0111336D01*
X0330701Y0112335D02*
X0293700Y0112335D01*
X0293700Y0113333D02*
X0330701Y0113333D01*
X0330701Y0114332D02*
X0293700Y0114332D01*
X0293700Y0115330D02*
X0330701Y0115330D01*
X0330701Y0116329D02*
X0293700Y0116329D01*
X0293700Y0117327D02*
X0330701Y0117327D01*
X0330701Y0118326D02*
X0293700Y0118326D01*
X0293700Y0119324D02*
X0330701Y0119324D01*
X0330701Y0120323D02*
X0293700Y0120323D01*
X0293700Y0121321D02*
X0330701Y0121321D01*
X0330701Y0122320D02*
X0293700Y0122320D01*
X0293700Y0123318D02*
X0330701Y0123318D01*
X0330701Y0124317D02*
X0293700Y0124317D01*
X0293700Y0125315D02*
X0330701Y0125315D01*
X0330701Y0126314D02*
X0293700Y0126314D01*
X0293700Y0127312D02*
X0330701Y0127312D01*
X0330701Y0128311D02*
X0293700Y0128311D01*
X0293700Y0129309D02*
X0330701Y0129309D01*
X0330701Y0130308D02*
X0293700Y0130308D01*
X0293700Y0131306D02*
X0330701Y0131306D01*
X0330701Y0132305D02*
X0293700Y0132305D01*
X0293700Y0133303D02*
X0330701Y0133303D01*
X0330701Y0134302D02*
X0293700Y0134302D01*
X0293700Y0135301D02*
X0330701Y0135301D01*
X0330701Y0136299D02*
X0293700Y0136299D01*
X0293700Y0137298D02*
X0330701Y0137298D01*
X0330701Y0138296D02*
X0292815Y0138296D01*
X0279787Y0139295D02*
X0330701Y0139295D01*
X0330701Y0140293D02*
X0278788Y0140293D01*
X0274212Y0140293D02*
X0248788Y0140293D01*
X0249787Y0139295D02*
X0273213Y0139295D01*
X0280600Y0147283D02*
X0330701Y0147283D01*
X0330701Y0148281D02*
X0280517Y0148281D01*
X0279519Y0149280D02*
X0330701Y0149280D01*
X0330701Y0150278D02*
X0278520Y0150278D01*
X0279757Y0119324D02*
X0289300Y0119324D01*
X0289300Y0118326D02*
X0287785Y0118326D01*
X0288700Y0117327D02*
X0289300Y0117327D01*
X0289300Y0116329D02*
X0288700Y0116329D01*
X0288700Y0115330D02*
X0289300Y0115330D01*
X0289300Y0114332D02*
X0288700Y0114332D01*
X0288700Y0113333D02*
X0289300Y0113333D01*
X0289300Y0112335D02*
X0288700Y0112335D01*
X0288700Y0111336D02*
X0289300Y0111336D01*
X0289300Y0110338D02*
X0288700Y0110338D01*
X0288700Y0109339D02*
X0289300Y0109339D01*
X0289300Y0108341D02*
X0288700Y0108341D01*
X0288700Y0107342D02*
X0289300Y0107342D01*
X0289300Y0106344D02*
X0288700Y0106344D01*
X0288736Y0105345D02*
X0289300Y0105345D01*
X0286500Y0101500D02*
X0286500Y0116500D01*
X0276500Y0116500D01*
X0279414Y0113333D02*
X0284300Y0113333D01*
X0284300Y0112335D02*
X0278416Y0112335D01*
X0254300Y0112335D02*
X0248416Y0112335D01*
X0249414Y0113333D02*
X0254300Y0113333D01*
X0229300Y0097357D02*
X0228438Y0097357D01*
X0204300Y0095360D02*
X0198700Y0095360D01*
X0198700Y0094362D02*
X0204300Y0094362D01*
X0204300Y0093363D02*
X0198700Y0093363D01*
X0198700Y0092365D02*
X0204300Y0092365D01*
X0204300Y0091366D02*
X0198700Y0091366D01*
X0198700Y0090368D02*
X0204300Y0090368D01*
X0204300Y0089369D02*
X0198700Y0089369D01*
X0198700Y0088370D02*
X0204300Y0088370D01*
X0204300Y0087372D02*
X0198700Y0087372D01*
X0198700Y0086373D02*
X0204300Y0086373D01*
X0204294Y0085375D02*
X0198700Y0085375D01*
X0198700Y0084376D02*
X0203295Y0084376D01*
X0202297Y0083378D02*
X0198700Y0083378D01*
X0198700Y0082379D02*
X0202200Y0082379D01*
X0202200Y0081381D02*
X0198700Y0081381D01*
X0198700Y0080382D02*
X0202200Y0080382D01*
X0202535Y0079384D02*
X0198700Y0079384D01*
X0198700Y0078385D02*
X0203534Y0078385D01*
X0204532Y0077387D02*
X0198700Y0077387D01*
X0171500Y0091500D02*
X0171500Y0096500D01*
X0161500Y0096500D01*
X0157200Y0096359D02*
X0153400Y0096359D01*
X0153399Y0097357D02*
X0157200Y0097357D01*
X0157274Y0098356D02*
X0152986Y0098356D01*
X0152327Y0099354D02*
X0158273Y0099354D01*
X0159272Y0100353D02*
X0151035Y0100353D01*
X0150060Y0102501D02*
X0150674Y0102700D01*
X0151249Y0102993D01*
X0151771Y0103373D01*
X0152227Y0103829D01*
X0152607Y0104351D01*
X0152900Y0104926D01*
X0153099Y0105540D01*
X0153200Y0106177D01*
X0153200Y0106200D01*
X0146800Y0106200D01*
X0146800Y0102400D01*
X0149423Y0102400D01*
X0150060Y0102501D01*
X0151737Y0103348D02*
X0174300Y0103348D01*
X0174300Y0104347D02*
X0152603Y0104347D01*
X0153036Y0105345D02*
X0174300Y0105345D01*
X0169272Y0100353D02*
X0163728Y0100353D01*
X0164727Y0099354D02*
X0168273Y0099354D01*
X0171500Y0091500D02*
X0146500Y0091500D01*
X0144300Y0091366D02*
X0138700Y0091366D01*
X0138700Y0090368D02*
X0142001Y0090368D01*
X0140688Y0089369D02*
X0138700Y0089369D01*
X0138700Y0092365D02*
X0142647Y0092365D01*
X0140956Y0093363D02*
X0138700Y0093363D01*
X0138700Y0094362D02*
X0140131Y0094362D01*
X0139718Y0095360D02*
X0138700Y0095360D01*
X0138700Y0096359D02*
X0139600Y0096359D01*
X0139601Y0097357D02*
X0138700Y0097357D01*
X0138700Y0098356D02*
X0140014Y0098356D01*
X0140673Y0099354D02*
X0138700Y0099354D01*
X0146200Y0103348D02*
X0146800Y0103348D01*
X0146800Y0104347D02*
X0146200Y0104347D01*
X0146200Y0105345D02*
X0146800Y0105345D01*
X0146800Y0107342D02*
X0146200Y0107342D01*
X0146200Y0108341D02*
X0146800Y0108341D01*
X0146800Y0109339D02*
X0146200Y0109339D01*
X0146200Y0110338D02*
X0146800Y0110338D01*
X0150281Y0112335D02*
X0159584Y0112335D01*
X0158586Y0113333D02*
X0152014Y0113333D01*
X0163416Y0112335D02*
X0174300Y0112335D01*
X0174300Y0113333D02*
X0174132Y0113333D01*
X0171800Y0113333D02*
X0171200Y0113333D01*
X0171200Y0112400D02*
X0171200Y0116200D01*
X0167400Y0116200D01*
X0167400Y0114802D01*
X0169802Y0112400D01*
X0171200Y0112400D01*
X0171200Y0114332D02*
X0171800Y0114332D01*
X0171800Y0115330D02*
X0171200Y0115330D01*
X0171200Y0116329D02*
X0165800Y0116329D01*
X0165800Y0117327D02*
X0167400Y0117327D01*
X0167528Y0118326D02*
X0165755Y0118326D01*
X0165800Y0115330D02*
X0167400Y0115330D01*
X0167870Y0114332D02*
X0165413Y0114332D01*
X0164414Y0113333D02*
X0168868Y0113333D01*
X0157200Y0095360D02*
X0153282Y0095360D01*
X0152868Y0094362D02*
X0157557Y0094362D01*
X0129300Y0102350D02*
X0120317Y0102350D01*
X0122029Y0103348D02*
X0129300Y0103348D01*
X0129300Y0104347D02*
X0122862Y0104347D01*
X0123276Y0105345D02*
X0129300Y0105345D01*
X0129300Y0106344D02*
X0123400Y0106344D01*
X0123400Y0107342D02*
X0129300Y0107342D01*
X0129300Y0108341D02*
X0122992Y0108341D01*
X0122342Y0109339D02*
X0129300Y0109339D01*
X0129300Y0110338D02*
X0121071Y0110338D01*
X0110986Y0113333D02*
X0103700Y0113333D01*
X0099257Y0110338D02*
X0083743Y0110338D01*
X0084742Y0109339D02*
X0098258Y0109339D01*
X0098571Y0103348D02*
X0084429Y0103348D01*
X0083431Y0102350D02*
X0099569Y0102350D01*
X0099272Y0100353D02*
X0083728Y0100353D01*
X0084727Y0099354D02*
X0098273Y0099354D01*
X0116500Y0096500D02*
X0126500Y0096500D01*
X0128700Y0082379D02*
X0129300Y0082379D01*
X0129300Y0081381D02*
X0128700Y0081381D01*
X0128700Y0080382D02*
X0129506Y0080382D01*
X0128700Y0079384D02*
X0130505Y0079384D01*
X0124300Y0060412D02*
X0123669Y0060412D01*
X0124638Y0039443D02*
X0184300Y0039443D01*
X0184300Y0038445D02*
X0125636Y0038445D01*
X0125800Y0037446D02*
X0184300Y0037446D01*
X0184300Y0036448D02*
X0125800Y0036448D01*
X0125800Y0035449D02*
X0184439Y0035449D01*
X0185438Y0034451D02*
X0125532Y0034451D01*
X0079599Y0122320D02*
X0006000Y0122320D01*
X0006000Y0123318D02*
X0078601Y0123318D01*
X0077602Y0124317D02*
X0006000Y0124317D01*
X0006000Y0125315D02*
X0077200Y0125315D01*
X0077200Y0126314D02*
X0006000Y0126314D01*
X0006000Y0127312D02*
X0077200Y0127312D01*
X0077230Y0128311D02*
X0006000Y0128311D01*
X0006000Y0129309D02*
X0078228Y0129309D01*
X0079227Y0130308D02*
X0006000Y0130308D01*
X0006000Y0155271D02*
X0032218Y0155271D01*
X0030488Y0156269D02*
X0006000Y0156269D01*
X0006000Y0157268D02*
X0029176Y0157268D01*
X0028177Y0158266D02*
X0006000Y0158266D01*
X0006000Y0159265D02*
X0027398Y0159265D01*
X0026822Y0160263D02*
X0006000Y0160263D01*
X0006000Y0161262D02*
X0026248Y0161262D01*
X0025980Y0162260D02*
X0006000Y0162260D01*
X0006000Y0163259D02*
X0025712Y0163259D01*
X0025500Y0164257D02*
X0006000Y0164257D01*
X0006000Y0165256D02*
X0025500Y0165256D01*
X0025500Y0166254D02*
X0006000Y0166254D01*
X0006000Y0167253D02*
X0025582Y0167253D01*
X0025849Y0168251D02*
X0006000Y0168251D01*
X0006000Y0169250D02*
X0026117Y0169250D01*
X0026540Y0170248D02*
X0006000Y0170248D01*
X0006000Y0171247D02*
X0027116Y0171247D01*
X0027693Y0172245D02*
X0006000Y0172245D01*
X0006000Y0173244D02*
X0028688Y0173244D01*
X0029686Y0174242D02*
X0006000Y0174242D01*
X0006000Y0175241D02*
X0031372Y0175241D01*
X0034080Y0176239D02*
X0006000Y0176239D01*
X0006000Y0177238D02*
X0066542Y0177238D01*
X0065746Y0177698D02*
X0068254Y0176250D01*
X0071052Y0175500D01*
X0073948Y0175500D01*
X0076746Y0176250D01*
X0079254Y0177698D01*
X0081302Y0179746D01*
X0082750Y0182254D01*
X0083500Y0185052D01*
X0083500Y0187948D01*
X0082750Y0190746D01*
X0081302Y0193254D01*
X0079254Y0195302D01*
X0076746Y0196750D01*
X0073948Y0197500D01*
X0071052Y0197500D01*
X0068254Y0196750D01*
X0065746Y0195302D01*
X0063698Y0193254D01*
X0062250Y0190746D01*
X0061500Y0187948D01*
X0061500Y0185052D01*
X0062250Y0182254D01*
X0063698Y0179746D01*
X0065746Y0177698D01*
X0065207Y0178237D02*
X0006000Y0178237D01*
X0006000Y0179235D02*
X0064209Y0179235D01*
X0063416Y0180234D02*
X0006000Y0180234D01*
X0006000Y0181232D02*
X0062840Y0181232D01*
X0062263Y0182231D02*
X0006000Y0182231D01*
X0006000Y0183229D02*
X0061988Y0183229D01*
X0061721Y0184228D02*
X0006000Y0184228D01*
X0006000Y0185226D02*
X0061500Y0185226D01*
X0061500Y0186225D02*
X0006000Y0186225D01*
X0006000Y0187223D02*
X0061500Y0187223D01*
X0061573Y0188222D02*
X0006000Y0188222D01*
X0006000Y0189220D02*
X0061841Y0189220D01*
X0062108Y0190219D02*
X0006000Y0190219D01*
X0006000Y0191217D02*
X0062522Y0191217D01*
X0063098Y0192216D02*
X0006000Y0192216D01*
X0006000Y0193214D02*
X0063675Y0193214D01*
X0064656Y0194213D02*
X0006000Y0194213D01*
X0006000Y0195211D02*
X0065655Y0195211D01*
X0067318Y0196210D02*
X0006000Y0196210D01*
X0006000Y0197208D02*
X0069963Y0197208D01*
X0075037Y0197208D02*
X0133200Y0197208D01*
X0133200Y0197495D02*
X0133200Y0195505D01*
X0133961Y0193668D01*
X0135368Y0192261D01*
X0137205Y0191500D01*
X0135368Y0190739D01*
X0133961Y0189332D01*
X0133200Y0187495D01*
X0133200Y0185505D01*
X0133961Y0183668D01*
X0135368Y0182261D01*
X0137205Y0181500D01*
X0135368Y0180739D01*
X0133961Y0179332D01*
X0133200Y0177495D01*
X0133200Y0175505D01*
X0133961Y0173668D01*
X0135368Y0172261D01*
X0137205Y0171500D01*
X0145795Y0171500D01*
X0147632Y0172261D01*
X0149039Y0173668D01*
X0149800Y0175505D01*
X0149800Y0177495D01*
X0149039Y0179332D01*
X0147632Y0180739D01*
X0145795Y0181500D01*
X0137205Y0181500D01*
X0145795Y0181500D01*
X0147632Y0182261D01*
X0149039Y0183668D01*
X0149800Y0185505D01*
X0149800Y0187495D01*
X0149039Y0189332D01*
X0147632Y0190739D01*
X0145795Y0191500D01*
X0137205Y0191500D01*
X0145795Y0191500D01*
X0147632Y0192261D01*
X0149039Y0193668D01*
X0149301Y0194300D01*
X0167619Y0194300D01*
X0169719Y0192200D01*
X0173281Y0192200D01*
X0175800Y0194719D01*
X0175800Y0198281D01*
X0173281Y0200800D01*
X0169719Y0200800D01*
X0167619Y0198700D01*
X0149301Y0198700D01*
X0149039Y0199332D01*
X0147632Y0200739D01*
X0145795Y0201500D01*
X0137205Y0201500D01*
X0135368Y0200739D01*
X0133961Y0199332D01*
X0133200Y0197495D01*
X0133495Y0198207D02*
X0006000Y0198207D01*
X0006000Y0199205D02*
X0133909Y0199205D01*
X0134833Y0200204D02*
X0006000Y0200204D01*
X0006000Y0201202D02*
X0136487Y0201202D01*
X0133200Y0196210D02*
X0077682Y0196210D01*
X0079345Y0195211D02*
X0133322Y0195211D01*
X0133735Y0194213D02*
X0080344Y0194213D01*
X0081325Y0193214D02*
X0134415Y0193214D01*
X0135478Y0192216D02*
X0081902Y0192216D01*
X0082478Y0191217D02*
X0136523Y0191217D01*
X0134848Y0190219D02*
X0082892Y0190219D01*
X0083159Y0189220D02*
X0133915Y0189220D01*
X0133501Y0188222D02*
X0083427Y0188222D01*
X0083500Y0187223D02*
X0133200Y0187223D01*
X0133200Y0186225D02*
X0083500Y0186225D01*
X0083500Y0185226D02*
X0133316Y0185226D01*
X0133729Y0184228D02*
X0083279Y0184228D01*
X0083012Y0183229D02*
X0134400Y0183229D01*
X0135442Y0182231D02*
X0082737Y0182231D01*
X0082160Y0181232D02*
X0136559Y0181232D01*
X0134862Y0180234D02*
X0081584Y0180234D01*
X0080791Y0179235D02*
X0133921Y0179235D01*
X0133507Y0178237D02*
X0079793Y0178237D01*
X0078458Y0177238D02*
X0133200Y0177238D01*
X0133200Y0176239D02*
X0076708Y0176239D01*
X0068292Y0176239D02*
X0038920Y0176239D01*
X0041628Y0175241D02*
X0133310Y0175241D01*
X0133723Y0174242D02*
X0043314Y0174242D01*
X0044312Y0173244D02*
X0134385Y0173244D01*
X0135406Y0172245D02*
X0045307Y0172245D01*
X0045884Y0171247D02*
X0330701Y0171247D01*
X0330701Y0172245D02*
X0193327Y0172245D01*
X0193281Y0172200D02*
X0195800Y0174719D01*
X0195800Y0178281D01*
X0193700Y0180381D01*
X0193700Y0192619D01*
X0195800Y0194719D01*
X0195800Y0198281D01*
X0193281Y0200800D01*
X0189719Y0200800D01*
X0187200Y0198281D01*
X0187200Y0194719D01*
X0189300Y0192619D01*
X0189300Y0180381D01*
X0187200Y0178281D01*
X0187200Y0174719D01*
X0189719Y0172200D01*
X0193281Y0172200D01*
X0194325Y0173244D02*
X0330701Y0173244D01*
X0330701Y0174242D02*
X0195324Y0174242D01*
X0195800Y0175241D02*
X0330701Y0175241D01*
X0330701Y0176239D02*
X0195800Y0176239D01*
X0195800Y0177238D02*
X0330701Y0177238D01*
X0330701Y0178237D02*
X0195800Y0178237D01*
X0194846Y0179235D02*
X0330701Y0179235D01*
X0330701Y0180234D02*
X0193848Y0180234D01*
X0193700Y0181232D02*
X0330701Y0181232D01*
X0330701Y0182231D02*
X0193700Y0182231D01*
X0193700Y0183229D02*
X0330701Y0183229D01*
X0330701Y0184228D02*
X0193700Y0184228D01*
X0193700Y0185226D02*
X0330701Y0185226D01*
X0330701Y0186225D02*
X0193700Y0186225D01*
X0193700Y0187223D02*
X0330701Y0187223D01*
X0330701Y0188222D02*
X0193700Y0188222D01*
X0193700Y0189220D02*
X0330701Y0189220D01*
X0330701Y0190219D02*
X0193700Y0190219D01*
X0193700Y0191217D02*
X0330701Y0191217D01*
X0330701Y0192216D02*
X0193700Y0192216D01*
X0194295Y0193214D02*
X0330701Y0193214D01*
X0330701Y0194213D02*
X0195294Y0194213D01*
X0195800Y0195211D02*
X0330701Y0195211D01*
X0330701Y0196210D02*
X0195800Y0196210D01*
X0195800Y0197208D02*
X0330701Y0197208D01*
X0330701Y0198207D02*
X0195800Y0198207D01*
X0194876Y0199205D02*
X0330701Y0199205D01*
X0330701Y0200204D02*
X0193877Y0200204D01*
X0191500Y0196500D02*
X0191500Y0176500D01*
X0187200Y0176239D02*
X0181800Y0176239D01*
X0181800Y0176200D02*
X0181800Y0176800D01*
X0185600Y0176800D01*
X0185600Y0178198D01*
X0183198Y0180600D01*
X0181800Y0180600D01*
X0181800Y0176800D01*
X0181200Y0176800D01*
X0181200Y0180600D01*
X0179802Y0180600D01*
X0177400Y0178198D01*
X0177400Y0176800D01*
X0181200Y0176800D01*
X0181200Y0176200D01*
X0181800Y0176200D01*
X0185600Y0176200D01*
X0185600Y0174802D01*
X0183198Y0172400D01*
X0181800Y0172400D01*
X0181800Y0176200D01*
X0181200Y0176200D02*
X0181200Y0172400D01*
X0179802Y0172400D01*
X0177400Y0174802D01*
X0177400Y0176200D01*
X0181200Y0176200D01*
X0181200Y0176239D02*
X0149800Y0176239D01*
X0149800Y0177238D02*
X0177400Y0177238D01*
X0177438Y0178237D02*
X0149493Y0178237D01*
X0149079Y0179235D02*
X0178437Y0179235D01*
X0179435Y0180234D02*
X0148138Y0180234D01*
X0146441Y0181232D02*
X0189300Y0181232D01*
X0189300Y0182231D02*
X0158312Y0182231D01*
X0158281Y0182200D02*
X0160800Y0184719D01*
X0160800Y0188281D01*
X0158281Y0190800D01*
X0154719Y0190800D01*
X0152200Y0188281D01*
X0152200Y0184719D01*
X0154719Y0182200D01*
X0158281Y0182200D01*
X0159310Y0183229D02*
X0163973Y0183229D01*
X0164802Y0182400D02*
X0162400Y0184802D01*
X0162400Y0186200D01*
X0166200Y0186200D01*
X0166800Y0186200D01*
X0166800Y0186800D01*
X0170600Y0186800D01*
X0170600Y0188198D01*
X0168198Y0190600D01*
X0166800Y0190600D01*
X0166800Y0186800D01*
X0166200Y0186800D01*
X0166200Y0190600D01*
X0164802Y0190600D01*
X0162400Y0188198D01*
X0162400Y0186800D01*
X0166200Y0186800D01*
X0166200Y0186200D01*
X0166200Y0182400D01*
X0164802Y0182400D01*
X0166200Y0183229D02*
X0166800Y0183229D01*
X0166800Y0182400D02*
X0168198Y0182400D01*
X0170600Y0184802D01*
X0170600Y0186200D01*
X0166800Y0186200D01*
X0166800Y0182400D01*
X0166800Y0184228D02*
X0166200Y0184228D01*
X0166200Y0185226D02*
X0166800Y0185226D01*
X0166800Y0186225D02*
X0189300Y0186225D01*
X0189300Y0187223D02*
X0170600Y0187223D01*
X0170577Y0188222D02*
X0189300Y0188222D01*
X0189300Y0189220D02*
X0169578Y0189220D01*
X0168580Y0190219D02*
X0189300Y0190219D01*
X0189300Y0191217D02*
X0146477Y0191217D01*
X0147522Y0192216D02*
X0169703Y0192216D01*
X0168705Y0193214D02*
X0148585Y0193214D01*
X0149265Y0194213D02*
X0167706Y0194213D01*
X0171500Y0196500D02*
X0141500Y0196500D01*
X0146513Y0201202D02*
X0330701Y0201202D01*
X0330701Y0202201D02*
X0006000Y0202201D01*
X0006000Y0203199D02*
X0330701Y0203199D01*
X0330701Y0204198D02*
X0006000Y0204198D01*
X0006000Y0205196D02*
X0330701Y0205196D01*
X0330701Y0206195D02*
X0006000Y0206195D01*
X0006000Y0207193D02*
X0330701Y0207193D01*
X0330701Y0208192D02*
X0006000Y0208192D01*
X0006000Y0209190D02*
X0330701Y0209190D01*
X0330701Y0210189D02*
X0006000Y0210189D01*
X0006000Y0211187D02*
X0330701Y0211187D01*
X0330701Y0170248D02*
X0046460Y0170248D01*
X0046883Y0169250D02*
X0330701Y0169250D01*
X0330701Y0168251D02*
X0047151Y0168251D01*
X0047418Y0167253D02*
X0330701Y0167253D01*
X0330701Y0166254D02*
X0047500Y0166254D01*
X0047500Y0165256D02*
X0330701Y0165256D01*
X0330701Y0164257D02*
X0047500Y0164257D01*
X0047287Y0163259D02*
X0330701Y0163259D01*
X0330701Y0162260D02*
X0047020Y0162260D01*
X0046752Y0161262D02*
X0330701Y0161262D01*
X0330701Y0084376D02*
X0293700Y0084376D01*
X0293700Y0083378D02*
X0330701Y0083378D01*
X0330701Y0082379D02*
X0293700Y0082379D01*
X0293700Y0081381D02*
X0330701Y0081381D01*
X0330701Y0080382D02*
X0323699Y0080382D01*
X0324697Y0079384D02*
X0330701Y0079384D01*
X0330701Y0078385D02*
X0325696Y0078385D01*
X0325800Y0077387D02*
X0330701Y0077387D01*
X0330701Y0076388D02*
X0325800Y0076388D01*
X0325800Y0075390D02*
X0330701Y0075390D01*
X0330701Y0074391D02*
X0325472Y0074391D01*
X0324474Y0073393D02*
X0330701Y0073393D01*
X0330701Y0072394D02*
X0323475Y0072394D01*
X0319525Y0072394D02*
X0314041Y0072394D01*
X0315040Y0073393D02*
X0318526Y0073393D01*
X0321500Y0076500D02*
X0311500Y0076500D01*
X0315263Y0079384D02*
X0318303Y0079384D01*
X0319301Y0080382D02*
X0314264Y0080382D01*
X0308736Y0080382D02*
X0293494Y0080382D01*
X0292495Y0079384D02*
X0307737Y0079384D01*
X0189673Y0172245D02*
X0147594Y0172245D01*
X0148615Y0173244D02*
X0178958Y0173244D01*
X0177959Y0174242D02*
X0149277Y0174242D01*
X0149690Y0175241D02*
X0177400Y0175241D01*
X0181200Y0175241D02*
X0181800Y0175241D01*
X0181800Y0174242D02*
X0181200Y0174242D01*
X0181200Y0173244D02*
X0181800Y0173244D01*
X0184042Y0173244D02*
X0188675Y0173244D01*
X0187676Y0174242D02*
X0185041Y0174242D01*
X0185600Y0175241D02*
X0187200Y0175241D01*
X0187200Y0177238D02*
X0185600Y0177238D01*
X0185562Y0178237D02*
X0187200Y0178237D01*
X0188154Y0179235D02*
X0184563Y0179235D01*
X0183565Y0180234D02*
X0189152Y0180234D01*
X0189300Y0183229D02*
X0169027Y0183229D01*
X0170026Y0184228D02*
X0189300Y0184228D01*
X0189300Y0185226D02*
X0170600Y0185226D01*
X0166800Y0187223D02*
X0166200Y0187223D01*
X0166200Y0186225D02*
X0160800Y0186225D01*
X0160800Y0187223D02*
X0162400Y0187223D01*
X0162423Y0188222D02*
X0160800Y0188222D01*
X0159861Y0189220D02*
X0163422Y0189220D01*
X0164420Y0190219D02*
X0158862Y0190219D01*
X0154138Y0190219D02*
X0148152Y0190219D01*
X0149085Y0189220D02*
X0153139Y0189220D01*
X0152200Y0188222D02*
X0149499Y0188222D01*
X0149800Y0187223D02*
X0152200Y0187223D01*
X0152200Y0186225D02*
X0149800Y0186225D01*
X0149684Y0185226D02*
X0152200Y0185226D01*
X0152691Y0184228D02*
X0149271Y0184228D01*
X0148600Y0183229D02*
X0153690Y0183229D01*
X0154688Y0182231D02*
X0147558Y0182231D01*
X0160309Y0184228D02*
X0162974Y0184228D01*
X0162400Y0185226D02*
X0160800Y0185226D01*
X0166200Y0188222D02*
X0166800Y0188222D01*
X0166800Y0189220D02*
X0166200Y0189220D01*
X0166200Y0190219D02*
X0166800Y0190219D01*
X0173297Y0192216D02*
X0189300Y0192216D01*
X0188705Y0193214D02*
X0174295Y0193214D01*
X0175294Y0194213D02*
X0187706Y0194213D01*
X0187200Y0195211D02*
X0175800Y0195211D01*
X0175800Y0196210D02*
X0187200Y0196210D01*
X0187200Y0197208D02*
X0175800Y0197208D01*
X0175800Y0198207D02*
X0187200Y0198207D01*
X0188124Y0199205D02*
X0174876Y0199205D01*
X0173877Y0200204D02*
X0189123Y0200204D01*
X0169123Y0200204D02*
X0148167Y0200204D01*
X0149091Y0199205D02*
X0168124Y0199205D01*
X0181200Y0180234D02*
X0181800Y0180234D01*
X0181800Y0179235D02*
X0181200Y0179235D01*
X0181200Y0178237D02*
X0181800Y0178237D01*
X0181800Y0177238D02*
X0181200Y0177238D01*
X0121500Y0126500D02*
X0116500Y0126500D01*
X0106500Y0136500D02*
X0096500Y0136500D01*
X0099227Y0130308D02*
X0083773Y0130308D01*
D18*
X0156500Y0066500D03*
M02*
