G75*
%MOIN*%
%OFA0B0*%
%FSLAX25Y25*%
%IPPOS*%
%LPD*%
%AMOC8*
5,1,8,0,0,1.08239X$1,22.5*
%
%ADD10OC8,0.07100*%
%ADD11C,0.06000*%
%ADD12C,0.08674*%
%ADD13C,0.06800*%
%ADD14OC8,0.06000*%
%ADD15C,0.07400*%
%ADD16C,0.13800*%
%ADD17C,0.03778*%
D10*
X0124428Y0026500D03*
X0124428Y0046500D03*
D11*
X0154428Y0098900D02*
X0154428Y0104100D01*
X0164428Y0104100D02*
X0164428Y0098900D01*
X0174428Y0098900D02*
X0174428Y0104100D01*
X0184428Y0104100D02*
X0184428Y0098900D01*
X0194428Y0098900D02*
X0194428Y0104100D01*
X0204428Y0104100D02*
X0204428Y0098900D01*
X0214428Y0098900D02*
X0214428Y0104100D01*
X0214428Y0128900D02*
X0214428Y0134100D01*
X0204428Y0134100D02*
X0204428Y0128900D01*
X0194428Y0128900D02*
X0194428Y0134100D01*
X0184428Y0134100D02*
X0184428Y0128900D01*
X0174428Y0128900D02*
X0174428Y0134100D01*
X0164428Y0134100D02*
X0164428Y0128900D01*
X0154428Y0128900D02*
X0154428Y0134100D01*
D12*
X0101633Y0045437D02*
X0101633Y0037563D01*
X0093365Y0022602D02*
X0085491Y0022602D01*
X0077617Y0037563D02*
X0077617Y0045437D01*
D13*
X0062428Y0201500D02*
X0056428Y0201500D01*
X0056428Y0211500D02*
X0062428Y0211500D01*
X0062428Y0221500D02*
X0056428Y0221500D01*
D14*
X0054428Y0081500D03*
X0064428Y0081500D03*
X0084428Y0081500D03*
X0094428Y0081500D03*
X0134428Y0076500D03*
X0134428Y0086500D03*
X0144428Y0076500D03*
X0144428Y0056500D03*
X0134428Y0056500D03*
X0144428Y0036500D03*
X0144428Y0021500D03*
X0164428Y0021500D03*
X0164428Y0036500D03*
X0164428Y0056500D03*
X0164428Y0076500D03*
X0134428Y0106500D03*
X0099428Y0161500D03*
X0089428Y0161500D03*
X0099428Y0171500D03*
X0074428Y0176500D03*
X0064428Y0156500D03*
X0054428Y0156500D03*
X0054428Y0176500D03*
X0144428Y0191500D03*
X0149428Y0171500D03*
X0159428Y0171500D03*
X0164428Y0191500D03*
X0179428Y0191500D03*
X0184428Y0171500D03*
X0194428Y0171500D03*
X0199428Y0191500D03*
X0194428Y0211500D03*
X0184428Y0211500D03*
X0179428Y0231500D03*
X0164428Y0231500D03*
X0159428Y0211500D03*
X0149428Y0211500D03*
X0144428Y0231500D03*
X0149428Y0251500D03*
X0159428Y0251500D03*
X0164428Y0271500D03*
X0179428Y0271500D03*
X0199428Y0271500D03*
X0194428Y0251500D03*
X0184428Y0251500D03*
X0199428Y0231500D03*
X0219428Y0221500D03*
X0229428Y0221500D03*
X0229428Y0231500D03*
X0229428Y0261500D03*
X0219428Y0261500D03*
X0229428Y0271500D03*
X0229428Y0191500D03*
X0229428Y0181500D03*
X0219428Y0181500D03*
X0144428Y0271500D03*
D15*
X0122728Y0126500D02*
X0116128Y0126500D01*
X0116128Y0116500D02*
X0122728Y0116500D01*
X0122728Y0106500D02*
X0116128Y0106500D01*
D16*
X0060428Y0116500D03*
D17*
X0134428Y0111500D03*
X0134428Y0121500D03*
X0144428Y0121500D03*
X0154428Y0111500D03*
X0144428Y0101500D03*
X0164428Y0111500D03*
X0179428Y0086500D03*
X0189428Y0111500D03*
X0194428Y0111500D03*
X0184428Y0141500D03*
X0224428Y0116500D03*
M02*
