G75*
%MOIN*%
%OFA0B0*%
%FSLAX25Y25*%
%IPPOS*%
%LPD*%
%AMOC8*
5,1,8,0,0,1.08239X$1,22.5*
%
%ADD10C,0.01000*%
%ADD11OC8,0.06300*%
%ADD12C,0.05200*%
%ADD13C,0.07874*%
%ADD14C,0.06000*%
%ADD15OC8,0.05200*%
%ADD16C,0.06600*%
%ADD17C,0.00000*%
%ADD18C,0.00800*%
%ADD19C,0.02978*%
D10*
X0044428Y0001500D02*
X0264428Y0001500D01*
X0264428Y0286500D01*
X0044428Y0286500D01*
X0044428Y0001500D01*
X0049428Y0006500D02*
X0049428Y0199400D01*
X0052211Y0199400D01*
X0052444Y0198838D01*
X0053766Y0197516D01*
X0055494Y0196800D01*
X0057328Y0196800D01*
X0057328Y0180539D01*
X0080837Y0157030D01*
X0082067Y0155800D01*
X0087159Y0155800D01*
X0093728Y0149230D01*
X0094959Y0148000D01*
X0112758Y0130201D01*
X0111890Y0129332D01*
X0111586Y0128600D01*
X0098559Y0128600D01*
X0055759Y0085800D01*
X0052647Y0085800D01*
X0050128Y0083281D01*
X0050128Y0079719D01*
X0052647Y0077200D01*
X0056210Y0077200D01*
X0058728Y0079719D01*
X0058728Y0082830D01*
X0100298Y0124400D01*
X0111586Y0124400D01*
X0111890Y0123668D01*
X0113296Y0122261D01*
X0115134Y0121500D01*
X0123723Y0121500D01*
X0125561Y0122261D01*
X0126967Y0123668D01*
X0127271Y0124400D01*
X0127328Y0124400D01*
X0127328Y0117876D01*
X0127177Y0118343D01*
X0126834Y0119016D01*
X0126390Y0119627D01*
X0125855Y0120161D01*
X0125244Y0120605D01*
X0124571Y0120948D01*
X0123852Y0121182D01*
X0123106Y0121300D01*
X0119928Y0121300D01*
X0119928Y0117000D01*
X0118928Y0117000D01*
X0118928Y0116000D01*
X0111348Y0116000D01*
X0111447Y0115376D01*
X0111680Y0114657D01*
X0112023Y0113984D01*
X0112467Y0113373D01*
X0113001Y0112839D01*
X0113613Y0112395D01*
X0114286Y0112052D01*
X0115004Y0111818D01*
X0115751Y0111700D01*
X0117328Y0111700D01*
X0117328Y0111500D01*
X0115134Y0111500D01*
X0113296Y0110739D01*
X0111890Y0109332D01*
X0111586Y0108600D01*
X0098559Y0108600D01*
X0097328Y0107370D01*
X0082328Y0092370D01*
X0082328Y0085481D01*
X0080128Y0083281D01*
X0080128Y0079719D01*
X0082647Y0077200D01*
X0086210Y0077200D01*
X0088728Y0079719D01*
X0088728Y0083281D01*
X0086528Y0085481D01*
X0086528Y0090630D01*
X0100298Y0104400D01*
X0111586Y0104400D01*
X0111890Y0103668D01*
X0113296Y0102261D01*
X0115134Y0101500D01*
X0121459Y0101500D01*
X0122328Y0100630D01*
X0122328Y0051259D01*
X0119670Y0048600D01*
X0106424Y0048600D01*
X0106412Y0048630D01*
X0104826Y0050216D01*
X0102754Y0051074D01*
X0100512Y0051074D01*
X0098440Y0050216D01*
X0096854Y0048630D01*
X0095996Y0046558D01*
X0095996Y0036442D01*
X0096854Y0034370D01*
X0098440Y0032784D01*
X0100512Y0031926D01*
X0102754Y0031926D01*
X0104826Y0032784D01*
X0106412Y0034370D01*
X0107270Y0036442D01*
X0107270Y0044167D01*
X0107503Y0044400D01*
X0119670Y0044400D01*
X0122420Y0041650D01*
X0126437Y0041650D01*
X0129278Y0044491D01*
X0129278Y0048509D01*
X0126528Y0051259D01*
X0126528Y0100630D01*
X0130298Y0104400D01*
X0130447Y0104400D01*
X0132647Y0102200D01*
X0136210Y0102200D01*
X0138728Y0104719D01*
X0138728Y0108281D01*
X0137186Y0109824D01*
X0137617Y0110866D01*
X0137617Y0112134D01*
X0137132Y0113306D01*
X0136235Y0114203D01*
X0135760Y0114400D01*
X0153097Y0114400D01*
X0152622Y0114203D01*
X0151725Y0113306D01*
X0151239Y0112134D01*
X0151239Y0110866D01*
X0151725Y0109694D01*
X0152328Y0109090D01*
X0152328Y0107884D01*
X0151993Y0107745D01*
X0150783Y0106536D01*
X0150128Y0104955D01*
X0150128Y0098045D01*
X0150783Y0096464D01*
X0151993Y0095255D01*
X0153573Y0094600D01*
X0155284Y0094600D01*
X0156864Y0095255D01*
X0158074Y0096464D01*
X0158728Y0098045D01*
X0158728Y0104955D01*
X0158074Y0106536D01*
X0156864Y0107745D01*
X0156528Y0107884D01*
X0156528Y0109090D01*
X0157132Y0109694D01*
X0157617Y0110866D01*
X0157617Y0112134D01*
X0157132Y0113306D01*
X0156235Y0114203D01*
X0155760Y0114400D01*
X0163097Y0114400D01*
X0162622Y0114203D01*
X0161725Y0113306D01*
X0161239Y0112134D01*
X0161239Y0110866D01*
X0161725Y0109694D01*
X0162328Y0109090D01*
X0162328Y0107884D01*
X0161993Y0107745D01*
X0160783Y0106536D01*
X0160128Y0104955D01*
X0160128Y0098045D01*
X0160783Y0096464D01*
X0161993Y0095255D01*
X0163573Y0094600D01*
X0165284Y0094600D01*
X0166864Y0095255D01*
X0168074Y0096464D01*
X0168728Y0098045D01*
X0168728Y0104955D01*
X0168074Y0106536D01*
X0166864Y0107745D01*
X0166528Y0107884D01*
X0166528Y0109090D01*
X0167132Y0109694D01*
X0167617Y0110866D01*
X0167617Y0112134D01*
X0167132Y0113306D01*
X0166235Y0114203D01*
X0165760Y0114400D01*
X0182328Y0114400D01*
X0182328Y0107884D01*
X0181993Y0107745D01*
X0180783Y0106536D01*
X0180128Y0104955D01*
X0180128Y0100170D01*
X0178728Y0098770D01*
X0178728Y0104955D01*
X0178074Y0106536D01*
X0176864Y0107745D01*
X0175284Y0108400D01*
X0173573Y0108400D01*
X0171993Y0107745D01*
X0170783Y0106536D01*
X0170128Y0104955D01*
X0170128Y0098045D01*
X0170783Y0096464D01*
X0171103Y0096144D01*
X0153559Y0078600D01*
X0148410Y0078600D01*
X0146210Y0080800D01*
X0142647Y0080800D01*
X0140128Y0078281D01*
X0140128Y0074719D01*
X0142328Y0072519D01*
X0142328Y0060481D01*
X0140128Y0058281D01*
X0140128Y0054719D01*
X0142647Y0052200D01*
X0146210Y0052200D01*
X0148728Y0054719D01*
X0148728Y0058281D01*
X0146528Y0060481D01*
X0146528Y0072519D01*
X0148410Y0074400D01*
X0155298Y0074400D01*
X0162328Y0081430D01*
X0162328Y0080481D01*
X0160128Y0078281D01*
X0160128Y0074719D01*
X0162647Y0072200D01*
X0166210Y0072200D01*
X0168728Y0074719D01*
X0168728Y0078281D01*
X0166528Y0080481D01*
X0166528Y0082610D01*
X0172328Y0088410D01*
X0172328Y0077370D01*
X0162328Y0067370D01*
X0162328Y0060481D01*
X0160447Y0058600D01*
X0153559Y0058600D01*
X0142328Y0047370D01*
X0142328Y0040481D01*
X0140128Y0038281D01*
X0140128Y0034719D01*
X0142647Y0032200D01*
X0146210Y0032200D01*
X0148728Y0034719D01*
X0148728Y0038281D01*
X0146528Y0040481D01*
X0146528Y0045630D01*
X0155298Y0054400D01*
X0160447Y0054400D01*
X0162647Y0052200D01*
X0166210Y0052200D01*
X0167328Y0053319D01*
X0167328Y0052370D01*
X0162328Y0047370D01*
X0162328Y0040481D01*
X0160128Y0038281D01*
X0160128Y0034719D01*
X0162328Y0032519D01*
X0162328Y0025481D01*
X0160128Y0023281D01*
X0160128Y0019719D01*
X0162647Y0017200D01*
X0166210Y0017200D01*
X0168728Y0019719D01*
X0168728Y0023281D01*
X0166528Y0025481D01*
X0166528Y0032519D01*
X0168728Y0034719D01*
X0168728Y0038281D01*
X0166528Y0040481D01*
X0166528Y0045630D01*
X0170298Y0049400D01*
X0171528Y0050630D01*
X0171528Y0065630D01*
X0180298Y0074400D01*
X0181528Y0075630D01*
X0181528Y0084090D01*
X0182132Y0084694D01*
X0182617Y0085866D01*
X0182617Y0087134D01*
X0182132Y0088306D01*
X0181235Y0089203D01*
X0180760Y0089400D01*
X0195298Y0089400D01*
X0196528Y0090630D01*
X0196528Y0095116D01*
X0196864Y0095255D01*
X0198074Y0096464D01*
X0198728Y0098045D01*
X0198728Y0104955D01*
X0198074Y0106536D01*
X0196864Y0107745D01*
X0195284Y0108400D01*
X0195278Y0108400D01*
X0196235Y0108797D01*
X0196838Y0109400D01*
X0202328Y0109400D01*
X0202328Y0107884D01*
X0201993Y0107745D01*
X0200783Y0106536D01*
X0200128Y0104955D01*
X0200128Y0098045D01*
X0200783Y0096464D01*
X0201993Y0095255D01*
X0203573Y0094600D01*
X0205284Y0094600D01*
X0206864Y0095255D01*
X0208074Y0096464D01*
X0208728Y0098045D01*
X0208728Y0104955D01*
X0208074Y0106536D01*
X0206864Y0107745D01*
X0206528Y0107884D01*
X0206528Y0125116D01*
X0206864Y0125255D01*
X0208074Y0126464D01*
X0208728Y0128045D01*
X0208728Y0134955D01*
X0208074Y0136536D01*
X0206864Y0137745D01*
X0205650Y0138248D01*
X0205298Y0138600D01*
X0204098Y0139800D01*
X0154098Y0139800D01*
X0141528Y0152370D01*
X0141528Y0188319D01*
X0142647Y0187200D01*
X0145759Y0187200D01*
X0147328Y0185630D01*
X0147328Y0175481D01*
X0145128Y0173281D01*
X0145128Y0169719D01*
X0147647Y0167200D01*
X0151210Y0167200D01*
X0153728Y0169719D01*
X0153728Y0173281D01*
X0151528Y0175481D01*
X0151528Y0187370D01*
X0148728Y0190170D01*
X0148728Y0193281D01*
X0146210Y0195800D01*
X0142647Y0195800D01*
X0140373Y0193525D01*
X0140298Y0193600D01*
X0110298Y0223600D01*
X0066646Y0223600D01*
X0066413Y0224162D01*
X0065091Y0225484D01*
X0063363Y0226200D01*
X0055494Y0226200D01*
X0053766Y0225484D01*
X0052444Y0224162D01*
X0051728Y0222435D01*
X0051728Y0220565D01*
X0052444Y0218838D01*
X0053766Y0217516D01*
X0055494Y0216800D01*
X0063363Y0216800D01*
X0065091Y0217516D01*
X0066413Y0218838D01*
X0066646Y0219400D01*
X0108559Y0219400D01*
X0137328Y0190630D01*
X0137328Y0150630D01*
X0151103Y0136856D01*
X0150783Y0136536D01*
X0150128Y0134955D01*
X0150128Y0133600D01*
X0120298Y0133600D01*
X0101528Y0152370D01*
X0101528Y0157519D01*
X0103728Y0159719D01*
X0103728Y0163281D01*
X0101408Y0165601D01*
X0101528Y0165721D01*
X0101528Y0167519D01*
X0103728Y0169719D01*
X0103728Y0173281D01*
X0101210Y0175800D01*
X0097647Y0175800D01*
X0095128Y0173281D01*
X0095128Y0169719D01*
X0097328Y0167519D01*
X0097328Y0167461D01*
X0094959Y0165091D01*
X0093728Y0163861D01*
X0093728Y0155170D01*
X0091454Y0157444D01*
X0093728Y0159719D01*
X0093728Y0163281D01*
X0091210Y0165800D01*
X0088098Y0165800D01*
X0078728Y0175170D01*
X0078728Y0178281D01*
X0076210Y0180800D01*
X0072647Y0180800D01*
X0070128Y0178281D01*
X0070128Y0174719D01*
X0072647Y0172200D01*
X0075759Y0172200D01*
X0085128Y0162830D01*
X0085128Y0160000D01*
X0083807Y0160000D01*
X0061528Y0182279D01*
X0061528Y0196800D01*
X0063363Y0196800D01*
X0065091Y0197516D01*
X0066413Y0198838D01*
X0067128Y0200565D01*
X0067128Y0202435D01*
X0066413Y0204162D01*
X0065091Y0205484D01*
X0063363Y0206200D01*
X0055494Y0206200D01*
X0053766Y0205484D01*
X0052444Y0204162D01*
X0052211Y0203600D01*
X0051528Y0203600D01*
X0051528Y0270630D01*
X0056698Y0275800D01*
X0162328Y0275800D01*
X0162328Y0275481D01*
X0160128Y0273281D01*
X0160128Y0269719D01*
X0162647Y0267200D01*
X0166210Y0267200D01*
X0168728Y0269719D01*
X0168728Y0273281D01*
X0167610Y0274400D01*
X0176247Y0274400D01*
X0175128Y0273281D01*
X0175128Y0269719D01*
X0177647Y0267200D01*
X0180759Y0267200D01*
X0182328Y0265630D01*
X0182328Y0255481D01*
X0180128Y0253281D01*
X0180128Y0249719D01*
X0182647Y0247200D01*
X0186210Y0247200D01*
X0188728Y0249719D01*
X0188728Y0253281D01*
X0186528Y0255481D01*
X0186528Y0267370D01*
X0183728Y0270170D01*
X0183728Y0273281D01*
X0182610Y0274400D01*
X0193559Y0274400D01*
X0195128Y0272830D01*
X0195128Y0269719D01*
X0197647Y0267200D01*
X0200759Y0267200D01*
X0208559Y0259400D01*
X0215447Y0259400D01*
X0217647Y0257200D01*
X0221210Y0257200D01*
X0223728Y0259719D01*
X0223728Y0263281D01*
X0221210Y0265800D01*
X0217647Y0265800D01*
X0215447Y0263600D01*
X0210298Y0263600D01*
X0204498Y0269400D01*
X0223559Y0269400D01*
X0223728Y0269230D01*
X0223728Y0242250D01*
X0224959Y0241020D01*
X0227328Y0238650D01*
X0227328Y0235481D01*
X0225128Y0233281D01*
X0225128Y0229719D01*
X0227328Y0227519D01*
X0227328Y0227461D01*
X0224959Y0225091D01*
X0223728Y0223861D01*
X0223728Y0202250D01*
X0224959Y0201020D01*
X0227328Y0198650D01*
X0227328Y0195481D01*
X0225128Y0193281D01*
X0225128Y0189719D01*
X0227647Y0187200D01*
X0231210Y0187200D01*
X0233728Y0189719D01*
X0233728Y0193281D01*
X0231528Y0195481D01*
X0231528Y0196430D01*
X0237328Y0190630D01*
X0237328Y0178600D01*
X0232610Y0178600D01*
X0233728Y0179719D01*
X0233728Y0183281D01*
X0231210Y0185800D01*
X0227647Y0185800D01*
X0225128Y0183281D01*
X0225128Y0179719D01*
X0227328Y0177519D01*
X0227328Y0147370D01*
X0217284Y0137325D01*
X0216864Y0137745D01*
X0215284Y0138400D01*
X0213573Y0138400D01*
X0211993Y0137745D01*
X0210783Y0136536D01*
X0210128Y0134955D01*
X0210128Y0128045D01*
X0210783Y0126464D01*
X0211993Y0125255D01*
X0213573Y0124600D01*
X0215284Y0124600D01*
X0216864Y0125255D01*
X0217328Y0125719D01*
X0217328Y0107281D01*
X0216864Y0107745D01*
X0215284Y0108400D01*
X0213573Y0108400D01*
X0211993Y0107745D01*
X0210783Y0106536D01*
X0210128Y0104955D01*
X0210128Y0098045D01*
X0210783Y0096464D01*
X0211993Y0095255D01*
X0213573Y0094600D01*
X0215284Y0094600D01*
X0216864Y0095255D01*
X0218074Y0096464D01*
X0218728Y0098045D01*
X0218728Y0099400D01*
X0220298Y0099400D01*
X0221528Y0100630D01*
X0221528Y0115168D01*
X0221725Y0114694D01*
X0222622Y0113797D01*
X0223794Y0113311D01*
X0225063Y0113311D01*
X0226235Y0113797D01*
X0227132Y0114694D01*
X0227617Y0115866D01*
X0227617Y0117134D01*
X0227132Y0118306D01*
X0226235Y0119203D01*
X0225063Y0119689D01*
X0224209Y0119689D01*
X0222928Y0120970D01*
X0222928Y0130050D01*
X0235298Y0142420D01*
X0235298Y0142420D01*
X0236528Y0143650D01*
X0236528Y0169400D01*
X0240298Y0169400D01*
X0241528Y0170630D01*
X0241528Y0170630D01*
X0241698Y0170800D01*
X0241698Y0170800D01*
X0242928Y0172030D01*
X0242928Y0192950D01*
X0232928Y0202950D01*
X0232928Y0209400D01*
X0235298Y0209400D01*
X0236528Y0210630D01*
X0241528Y0215630D01*
X0241528Y0232370D01*
X0240298Y0233600D01*
X0231528Y0242370D01*
X0231528Y0257519D01*
X0233728Y0259719D01*
X0233728Y0263281D01*
X0231210Y0265800D01*
X0227928Y0265800D01*
X0227928Y0267200D01*
X0231210Y0267200D01*
X0233728Y0269719D01*
X0233728Y0273281D01*
X0231210Y0275800D01*
X0227647Y0275800D01*
X0225447Y0273600D01*
X0205390Y0273600D01*
X0200220Y0278770D01*
X0198990Y0280000D01*
X0054959Y0280000D01*
X0053728Y0278770D01*
X0049428Y0274470D01*
X0049428Y0281500D01*
X0259428Y0281500D01*
X0259428Y0006500D01*
X0049428Y0006500D01*
X0049428Y0006507D02*
X0259428Y0006507D01*
X0259428Y0007506D02*
X0049428Y0007506D01*
X0049428Y0008504D02*
X0259428Y0008504D01*
X0259428Y0009503D02*
X0049428Y0009503D01*
X0049428Y0010501D02*
X0259428Y0010501D01*
X0259428Y0011500D02*
X0049428Y0011500D01*
X0049428Y0012499D02*
X0259428Y0012499D01*
X0259428Y0013497D02*
X0049428Y0013497D01*
X0049428Y0014496D02*
X0259428Y0014496D01*
X0259428Y0015494D02*
X0049428Y0015494D01*
X0049428Y0016493D02*
X0259428Y0016493D01*
X0259428Y0017491D02*
X0166501Y0017491D01*
X0167499Y0018490D02*
X0259428Y0018490D01*
X0259428Y0019488D02*
X0168498Y0019488D01*
X0168728Y0020487D02*
X0259428Y0020487D01*
X0259428Y0021485D02*
X0168728Y0021485D01*
X0168728Y0022484D02*
X0259428Y0022484D01*
X0259428Y0023482D02*
X0168527Y0023482D01*
X0167529Y0024481D02*
X0259428Y0024481D01*
X0259428Y0025479D02*
X0166530Y0025479D01*
X0166528Y0026478D02*
X0259428Y0026478D01*
X0259428Y0027476D02*
X0166528Y0027476D01*
X0166528Y0028475D02*
X0259428Y0028475D01*
X0259428Y0029473D02*
X0166528Y0029473D01*
X0166528Y0030472D02*
X0259428Y0030472D01*
X0259428Y0031470D02*
X0166528Y0031470D01*
X0166528Y0032469D02*
X0259428Y0032469D01*
X0259428Y0033467D02*
X0167477Y0033467D01*
X0168475Y0034466D02*
X0259428Y0034466D01*
X0259428Y0035464D02*
X0168728Y0035464D01*
X0168728Y0036463D02*
X0259428Y0036463D01*
X0259428Y0037461D02*
X0168728Y0037461D01*
X0168550Y0038460D02*
X0259428Y0038460D01*
X0259428Y0039458D02*
X0167551Y0039458D01*
X0166553Y0040457D02*
X0259428Y0040457D01*
X0259428Y0041455D02*
X0166528Y0041455D01*
X0166528Y0042454D02*
X0259428Y0042454D01*
X0259428Y0043452D02*
X0166528Y0043452D01*
X0166528Y0044451D02*
X0259428Y0044451D01*
X0259428Y0045449D02*
X0166528Y0045449D01*
X0167346Y0046448D02*
X0259428Y0046448D01*
X0259428Y0047446D02*
X0168345Y0047446D01*
X0169343Y0048445D02*
X0259428Y0048445D01*
X0259428Y0049443D02*
X0170342Y0049443D01*
X0171340Y0050442D02*
X0259428Y0050442D01*
X0259428Y0051440D02*
X0171528Y0051440D01*
X0171528Y0052439D02*
X0259428Y0052439D01*
X0259428Y0053437D02*
X0171528Y0053437D01*
X0171528Y0054436D02*
X0259428Y0054436D01*
X0259428Y0055434D02*
X0171528Y0055434D01*
X0171528Y0056433D02*
X0259428Y0056433D01*
X0259428Y0057432D02*
X0171528Y0057432D01*
X0171528Y0058430D02*
X0259428Y0058430D01*
X0259428Y0059429D02*
X0171528Y0059429D01*
X0171528Y0060427D02*
X0259428Y0060427D01*
X0259428Y0061426D02*
X0171528Y0061426D01*
X0171528Y0062424D02*
X0259428Y0062424D01*
X0259428Y0063423D02*
X0171528Y0063423D01*
X0171528Y0064421D02*
X0259428Y0064421D01*
X0259428Y0065420D02*
X0171528Y0065420D01*
X0172316Y0066418D02*
X0259428Y0066418D01*
X0259428Y0067417D02*
X0173315Y0067417D01*
X0174313Y0068415D02*
X0259428Y0068415D01*
X0259428Y0069414D02*
X0175312Y0069414D01*
X0176310Y0070412D02*
X0259428Y0070412D01*
X0259428Y0071411D02*
X0177309Y0071411D01*
X0178308Y0072409D02*
X0259428Y0072409D01*
X0259428Y0073408D02*
X0179306Y0073408D01*
X0180305Y0074406D02*
X0259428Y0074406D01*
X0259428Y0075405D02*
X0181303Y0075405D01*
X0181528Y0076403D02*
X0259428Y0076403D01*
X0259428Y0077402D02*
X0181528Y0077402D01*
X0181528Y0078400D02*
X0259428Y0078400D01*
X0259428Y0079399D02*
X0181528Y0079399D01*
X0181528Y0080397D02*
X0259428Y0080397D01*
X0259428Y0081396D02*
X0181528Y0081396D01*
X0181528Y0082394D02*
X0259428Y0082394D01*
X0259428Y0083393D02*
X0181528Y0083393D01*
X0181830Y0084391D02*
X0259428Y0084391D01*
X0259428Y0085390D02*
X0182420Y0085390D01*
X0182617Y0086388D02*
X0259428Y0086388D01*
X0259428Y0087387D02*
X0182513Y0087387D01*
X0182053Y0088385D02*
X0259428Y0088385D01*
X0259428Y0089384D02*
X0180799Y0089384D01*
X0172328Y0088385D02*
X0172304Y0088385D01*
X0172328Y0087387D02*
X0171305Y0087387D01*
X0170307Y0086388D02*
X0172328Y0086388D01*
X0172328Y0085390D02*
X0169308Y0085390D01*
X0168310Y0084391D02*
X0172328Y0084391D01*
X0172328Y0083393D02*
X0167311Y0083393D01*
X0166528Y0082394D02*
X0172328Y0082394D01*
X0172328Y0081396D02*
X0166528Y0081396D01*
X0166612Y0080397D02*
X0172328Y0080397D01*
X0172328Y0079399D02*
X0167611Y0079399D01*
X0168609Y0078400D02*
X0172328Y0078400D01*
X0172328Y0077402D02*
X0168728Y0077402D01*
X0168728Y0076403D02*
X0171362Y0076403D01*
X0170363Y0075405D02*
X0168728Y0075405D01*
X0168416Y0074406D02*
X0169365Y0074406D01*
X0168366Y0073408D02*
X0167417Y0073408D01*
X0167368Y0072409D02*
X0166419Y0072409D01*
X0166369Y0071411D02*
X0146528Y0071411D01*
X0146528Y0072409D02*
X0162438Y0072409D01*
X0161440Y0073408D02*
X0147417Y0073408D01*
X0146528Y0070412D02*
X0165371Y0070412D01*
X0164372Y0069414D02*
X0146528Y0069414D01*
X0146528Y0068415D02*
X0163374Y0068415D01*
X0162375Y0067417D02*
X0146528Y0067417D01*
X0146528Y0066418D02*
X0162328Y0066418D01*
X0162328Y0065420D02*
X0146528Y0065420D01*
X0146528Y0064421D02*
X0162328Y0064421D01*
X0162328Y0063423D02*
X0146528Y0063423D01*
X0146528Y0062424D02*
X0162328Y0062424D01*
X0162328Y0061426D02*
X0146528Y0061426D01*
X0146583Y0060427D02*
X0162274Y0060427D01*
X0161276Y0059429D02*
X0147581Y0059429D01*
X0148580Y0058430D02*
X0153389Y0058430D01*
X0152390Y0057432D02*
X0148728Y0057432D01*
X0148728Y0056433D02*
X0151392Y0056433D01*
X0150393Y0055434D02*
X0148728Y0055434D01*
X0148446Y0054436D02*
X0149395Y0054436D01*
X0148396Y0053437D02*
X0147447Y0053437D01*
X0147398Y0052439D02*
X0146449Y0052439D01*
X0146399Y0051440D02*
X0126528Y0051440D01*
X0126528Y0052439D02*
X0132691Y0052439D01*
X0132730Y0052400D02*
X0130328Y0054802D01*
X0130328Y0056200D01*
X0134128Y0056200D01*
X0134128Y0056800D01*
X0130328Y0056800D01*
X0130328Y0058198D01*
X0132730Y0060600D01*
X0134128Y0060600D01*
X0134128Y0056800D01*
X0134728Y0056800D01*
X0134728Y0060600D01*
X0136127Y0060600D01*
X0138528Y0058198D01*
X0138528Y0056800D01*
X0134729Y0056800D01*
X0134729Y0056200D01*
X0138528Y0056200D01*
X0138528Y0054802D01*
X0136127Y0052400D01*
X0134728Y0052400D01*
X0134728Y0056200D01*
X0134128Y0056200D01*
X0134128Y0052400D01*
X0132730Y0052400D01*
X0134128Y0052439D02*
X0134728Y0052439D01*
X0134728Y0053437D02*
X0134128Y0053437D01*
X0134128Y0054436D02*
X0134728Y0054436D01*
X0134728Y0055434D02*
X0134128Y0055434D01*
X0134128Y0056433D02*
X0126528Y0056433D01*
X0126528Y0055434D02*
X0130328Y0055434D01*
X0130694Y0054436D02*
X0126528Y0054436D01*
X0126528Y0053437D02*
X0131693Y0053437D01*
X0130328Y0057432D02*
X0126528Y0057432D01*
X0126528Y0058430D02*
X0130560Y0058430D01*
X0131559Y0059429D02*
X0126528Y0059429D01*
X0126528Y0060427D02*
X0132557Y0060427D01*
X0134128Y0060427D02*
X0134728Y0060427D01*
X0134728Y0059429D02*
X0134128Y0059429D01*
X0134128Y0058430D02*
X0134728Y0058430D01*
X0134728Y0057432D02*
X0134128Y0057432D01*
X0134729Y0056433D02*
X0140128Y0056433D01*
X0140128Y0055434D02*
X0138528Y0055434D01*
X0138163Y0054436D02*
X0140411Y0054436D01*
X0141410Y0053437D02*
X0137164Y0053437D01*
X0136166Y0052439D02*
X0142408Y0052439D01*
X0145401Y0050442D02*
X0127345Y0050442D01*
X0128344Y0049443D02*
X0144402Y0049443D01*
X0143404Y0048445D02*
X0129278Y0048445D01*
X0129278Y0047446D02*
X0142405Y0047446D01*
X0142328Y0046448D02*
X0129278Y0046448D01*
X0129278Y0045449D02*
X0142328Y0045449D01*
X0142328Y0044451D02*
X0129238Y0044451D01*
X0128240Y0043452D02*
X0142328Y0043452D01*
X0142328Y0042454D02*
X0127241Y0042454D01*
X0121616Y0042454D02*
X0107270Y0042454D01*
X0107270Y0043452D02*
X0120617Y0043452D01*
X0120513Y0049443D02*
X0105599Y0049443D01*
X0104280Y0050442D02*
X0121512Y0050442D01*
X0122328Y0051440D02*
X0049428Y0051440D01*
X0049428Y0050442D02*
X0075464Y0050442D01*
X0075530Y0050476D02*
X0074768Y0050087D01*
X0074075Y0049584D01*
X0073470Y0048979D01*
X0072967Y0048287D01*
X0072579Y0047524D01*
X0072314Y0046710D01*
X0072180Y0045865D01*
X0072180Y0041984D01*
X0077133Y0041984D01*
X0077133Y0041016D01*
X0072180Y0041016D01*
X0072180Y0037135D01*
X0072314Y0036290D01*
X0072579Y0035476D01*
X0072967Y0034713D01*
X0073470Y0034021D01*
X0074075Y0033416D01*
X0074768Y0032913D01*
X0075530Y0032524D01*
X0076344Y0032260D01*
X0077133Y0032135D01*
X0077133Y0041016D01*
X0078102Y0041016D01*
X0078102Y0041984D01*
X0083054Y0041984D01*
X0083054Y0045865D01*
X0082921Y0046710D01*
X0082656Y0047524D01*
X0082268Y0048287D01*
X0081765Y0048979D01*
X0081159Y0049584D01*
X0080467Y0050087D01*
X0079705Y0050476D01*
X0078891Y0050740D01*
X0078102Y0050865D01*
X0078102Y0041984D01*
X0077133Y0041984D01*
X0077133Y0050865D01*
X0076344Y0050740D01*
X0075530Y0050476D01*
X0077133Y0050442D02*
X0078102Y0050442D01*
X0078102Y0049443D02*
X0077133Y0049443D01*
X0077133Y0048445D02*
X0078102Y0048445D01*
X0078102Y0047446D02*
X0077133Y0047446D01*
X0077133Y0046448D02*
X0078102Y0046448D01*
X0078102Y0045449D02*
X0077133Y0045449D01*
X0077133Y0044451D02*
X0078102Y0044451D01*
X0078102Y0043452D02*
X0077133Y0043452D01*
X0077133Y0042454D02*
X0078102Y0042454D01*
X0078102Y0041455D02*
X0095996Y0041455D01*
X0095996Y0040457D02*
X0083054Y0040457D01*
X0083054Y0041016D02*
X0078102Y0041016D01*
X0078102Y0032135D01*
X0078891Y0032260D01*
X0079705Y0032524D01*
X0080467Y0032913D01*
X0081159Y0033416D01*
X0081765Y0034021D01*
X0082268Y0034713D01*
X0082656Y0035476D01*
X0082921Y0036290D01*
X0083054Y0037135D01*
X0083054Y0041016D01*
X0083054Y0042454D02*
X0095996Y0042454D01*
X0095996Y0043452D02*
X0083054Y0043452D01*
X0083054Y0044451D02*
X0095996Y0044451D01*
X0095996Y0045449D02*
X0083054Y0045449D01*
X0082962Y0046448D02*
X0095996Y0046448D01*
X0096364Y0047446D02*
X0082681Y0047446D01*
X0082153Y0048445D02*
X0096778Y0048445D01*
X0097668Y0049443D02*
X0081300Y0049443D01*
X0079771Y0050442D02*
X0098986Y0050442D01*
X0107270Y0041455D02*
X0142328Y0041455D01*
X0142304Y0040457D02*
X0107270Y0040457D01*
X0107270Y0039458D02*
X0141306Y0039458D01*
X0140307Y0038460D02*
X0107270Y0038460D01*
X0107270Y0037461D02*
X0140128Y0037461D01*
X0140128Y0036463D02*
X0107270Y0036463D01*
X0106865Y0035464D02*
X0140128Y0035464D01*
X0140382Y0034466D02*
X0106452Y0034466D01*
X0105509Y0033467D02*
X0141380Y0033467D01*
X0142379Y0032469D02*
X0104065Y0032469D01*
X0099202Y0032469D02*
X0079533Y0032469D01*
X0078102Y0032469D02*
X0077133Y0032469D01*
X0077133Y0033467D02*
X0078102Y0033467D01*
X0078102Y0034466D02*
X0077133Y0034466D01*
X0077133Y0035464D02*
X0078102Y0035464D01*
X0078102Y0036463D02*
X0077133Y0036463D01*
X0077133Y0037461D02*
X0078102Y0037461D01*
X0078102Y0038460D02*
X0077133Y0038460D01*
X0077133Y0039458D02*
X0078102Y0039458D01*
X0078102Y0040457D02*
X0077133Y0040457D01*
X0077133Y0041455D02*
X0049428Y0041455D01*
X0049428Y0040457D02*
X0072180Y0040457D01*
X0072180Y0039458D02*
X0049428Y0039458D01*
X0049428Y0038460D02*
X0072180Y0038460D01*
X0072180Y0037461D02*
X0049428Y0037461D01*
X0049428Y0036463D02*
X0072287Y0036463D01*
X0072585Y0035464D02*
X0049428Y0035464D01*
X0049428Y0034466D02*
X0073147Y0034466D01*
X0074024Y0033467D02*
X0049428Y0033467D01*
X0049428Y0032469D02*
X0075701Y0032469D01*
X0081211Y0033467D02*
X0097757Y0033467D01*
X0096815Y0034466D02*
X0082088Y0034466D01*
X0082650Y0035464D02*
X0096401Y0035464D01*
X0095996Y0036463D02*
X0082948Y0036463D01*
X0083054Y0037461D02*
X0095996Y0037461D01*
X0095996Y0038460D02*
X0083054Y0038460D01*
X0083054Y0039458D02*
X0095996Y0039458D01*
X0093793Y0028039D02*
X0089913Y0028039D01*
X0089913Y0023087D01*
X0088944Y0023087D01*
X0088944Y0028039D01*
X0085064Y0028039D01*
X0084218Y0027905D01*
X0083404Y0027641D01*
X0082642Y0027252D01*
X0081949Y0026749D01*
X0081344Y0026144D01*
X0080841Y0025452D01*
X0080453Y0024689D01*
X0080188Y0023876D01*
X0080063Y0023087D01*
X0088944Y0023087D01*
X0088944Y0022118D01*
X0080063Y0022118D01*
X0080188Y0021329D01*
X0080453Y0020515D01*
X0080841Y0019753D01*
X0081344Y0019060D01*
X0081949Y0018455D01*
X0082642Y0017952D01*
X0083404Y0017564D01*
X0084218Y0017299D01*
X0085064Y0017165D01*
X0088944Y0017165D01*
X0088944Y0022118D01*
X0089913Y0022118D01*
X0089913Y0023087D01*
X0098794Y0023087D01*
X0098669Y0023876D01*
X0098404Y0024689D01*
X0098016Y0025452D01*
X0097513Y0026144D01*
X0096907Y0026749D01*
X0096215Y0027252D01*
X0095453Y0027641D01*
X0094639Y0027905D01*
X0093793Y0028039D01*
X0095776Y0027476D02*
X0119778Y0027476D01*
X0119778Y0026800D02*
X0124128Y0026800D01*
X0124128Y0026200D01*
X0119778Y0026200D01*
X0119778Y0024574D01*
X0122502Y0021850D01*
X0124128Y0021850D01*
X0124128Y0026200D01*
X0124728Y0026200D01*
X0124728Y0021850D01*
X0126355Y0021850D01*
X0129078Y0024574D01*
X0129078Y0026200D01*
X0124729Y0026200D01*
X0124729Y0026800D01*
X0129078Y0026800D01*
X0129078Y0028426D01*
X0126355Y0031150D01*
X0124728Y0031150D01*
X0124728Y0026800D01*
X0124128Y0026800D01*
X0124128Y0031150D01*
X0122502Y0031150D01*
X0119778Y0028426D01*
X0119778Y0026800D01*
X0119778Y0025479D02*
X0097996Y0025479D01*
X0098472Y0024481D02*
X0119872Y0024481D01*
X0120870Y0023482D02*
X0098731Y0023482D01*
X0098794Y0022118D02*
X0089913Y0022118D01*
X0089913Y0017165D01*
X0093793Y0017165D01*
X0094639Y0017299D01*
X0095453Y0017564D01*
X0096215Y0017952D01*
X0096907Y0018455D01*
X0097513Y0019060D01*
X0098016Y0019753D01*
X0098404Y0020515D01*
X0098669Y0021329D01*
X0098794Y0022118D01*
X0098693Y0021485D02*
X0144128Y0021485D01*
X0144128Y0021200D02*
X0140328Y0021200D01*
X0140328Y0019802D01*
X0142730Y0017400D01*
X0144128Y0017400D01*
X0144128Y0021200D01*
X0144128Y0021800D01*
X0140328Y0021800D01*
X0140328Y0023198D01*
X0142730Y0025600D01*
X0144128Y0025600D01*
X0144128Y0021800D01*
X0144728Y0021800D01*
X0144728Y0025600D01*
X0146127Y0025600D01*
X0148528Y0023198D01*
X0148528Y0021800D01*
X0144729Y0021800D01*
X0144729Y0021200D01*
X0148528Y0021200D01*
X0148528Y0019802D01*
X0146127Y0017400D01*
X0144728Y0017400D01*
X0144728Y0021200D01*
X0144128Y0021200D01*
X0144729Y0021485D02*
X0160128Y0021485D01*
X0160128Y0020487D02*
X0148528Y0020487D01*
X0148215Y0019488D02*
X0160359Y0019488D01*
X0161358Y0018490D02*
X0147216Y0018490D01*
X0146218Y0017491D02*
X0162356Y0017491D01*
X0160128Y0022484D02*
X0148528Y0022484D01*
X0148245Y0023482D02*
X0160330Y0023482D01*
X0161328Y0024481D02*
X0147246Y0024481D01*
X0146248Y0025479D02*
X0162327Y0025479D01*
X0162328Y0026478D02*
X0124729Y0026478D01*
X0124128Y0026478D02*
X0097179Y0026478D01*
X0098390Y0020487D02*
X0140328Y0020487D01*
X0140642Y0019488D02*
X0097823Y0019488D01*
X0096942Y0018490D02*
X0141641Y0018490D01*
X0142639Y0017491D02*
X0095229Y0017491D01*
X0089913Y0017491D02*
X0088944Y0017491D01*
X0088944Y0018490D02*
X0089913Y0018490D01*
X0089913Y0019488D02*
X0088944Y0019488D01*
X0088944Y0020487D02*
X0089913Y0020487D01*
X0089913Y0021485D02*
X0088944Y0021485D01*
X0088944Y0022484D02*
X0049428Y0022484D01*
X0049428Y0023482D02*
X0080126Y0023482D01*
X0080385Y0024481D02*
X0049428Y0024481D01*
X0049428Y0025479D02*
X0080861Y0025479D01*
X0081678Y0026478D02*
X0049428Y0026478D01*
X0049428Y0027476D02*
X0083081Y0027476D01*
X0088944Y0027476D02*
X0089913Y0027476D01*
X0089913Y0026478D02*
X0088944Y0026478D01*
X0088944Y0025479D02*
X0089913Y0025479D01*
X0089913Y0024481D02*
X0088944Y0024481D01*
X0088944Y0023482D02*
X0089913Y0023482D01*
X0089913Y0022484D02*
X0121869Y0022484D01*
X0124128Y0022484D02*
X0124728Y0022484D01*
X0124728Y0023482D02*
X0124128Y0023482D01*
X0124128Y0024481D02*
X0124728Y0024481D01*
X0124728Y0025479D02*
X0124128Y0025479D01*
X0124128Y0027476D02*
X0124728Y0027476D01*
X0124728Y0028475D02*
X0124128Y0028475D01*
X0124128Y0029473D02*
X0124728Y0029473D01*
X0124728Y0030472D02*
X0124128Y0030472D01*
X0121824Y0030472D02*
X0049428Y0030472D01*
X0049428Y0031470D02*
X0162328Y0031470D01*
X0162328Y0030472D02*
X0127033Y0030472D01*
X0128031Y0029473D02*
X0162328Y0029473D01*
X0162328Y0028475D02*
X0129030Y0028475D01*
X0129078Y0027476D02*
X0162328Y0027476D01*
X0162328Y0032469D02*
X0146478Y0032469D01*
X0147477Y0033467D02*
X0161380Y0033467D01*
X0160382Y0034466D02*
X0148475Y0034466D01*
X0148728Y0035464D02*
X0160128Y0035464D01*
X0160128Y0036463D02*
X0148728Y0036463D01*
X0148728Y0037461D02*
X0160128Y0037461D01*
X0160307Y0038460D02*
X0148550Y0038460D01*
X0147551Y0039458D02*
X0161306Y0039458D01*
X0162304Y0040457D02*
X0146553Y0040457D01*
X0146528Y0041455D02*
X0162328Y0041455D01*
X0162328Y0042454D02*
X0146528Y0042454D01*
X0146528Y0043452D02*
X0162328Y0043452D01*
X0162328Y0044451D02*
X0146528Y0044451D01*
X0146528Y0045449D02*
X0162328Y0045449D01*
X0162328Y0046448D02*
X0147346Y0046448D01*
X0148345Y0047446D02*
X0162405Y0047446D01*
X0163404Y0048445D02*
X0149343Y0048445D01*
X0150342Y0049443D02*
X0164402Y0049443D01*
X0165401Y0050442D02*
X0151340Y0050442D01*
X0152339Y0051440D02*
X0166399Y0051440D01*
X0166449Y0052439D02*
X0167328Y0052439D01*
X0162408Y0052439D02*
X0153337Y0052439D01*
X0154336Y0053437D02*
X0161410Y0053437D01*
X0160441Y0074406D02*
X0155305Y0074406D01*
X0156303Y0075405D02*
X0160128Y0075405D01*
X0160128Y0076403D02*
X0157302Y0076403D01*
X0158300Y0077402D02*
X0160128Y0077402D01*
X0160248Y0078400D02*
X0159299Y0078400D01*
X0160297Y0079399D02*
X0161246Y0079399D01*
X0161296Y0080397D02*
X0162245Y0080397D01*
X0162294Y0081396D02*
X0162328Y0081396D01*
X0159350Y0084391D02*
X0138401Y0084391D01*
X0138728Y0084719D02*
X0138728Y0087830D01*
X0145298Y0094400D01*
X0146528Y0095630D01*
X0146528Y0099090D01*
X0147132Y0099694D01*
X0147617Y0100866D01*
X0147617Y0102134D01*
X0147132Y0103306D01*
X0146235Y0104203D01*
X0145063Y0104689D01*
X0143794Y0104689D01*
X0142622Y0104203D01*
X0141725Y0103306D01*
X0141239Y0102134D01*
X0141239Y0100866D01*
X0141725Y0099694D01*
X0142328Y0099090D01*
X0142328Y0097370D01*
X0135759Y0090800D01*
X0132647Y0090800D01*
X0130128Y0088281D01*
X0130128Y0084719D01*
X0132328Y0082519D01*
X0132328Y0080481D01*
X0130128Y0078281D01*
X0130128Y0074719D01*
X0132647Y0072200D01*
X0136210Y0072200D01*
X0138728Y0074719D01*
X0138728Y0078281D01*
X0136528Y0080481D01*
X0136528Y0082519D01*
X0138728Y0084719D01*
X0138728Y0085390D02*
X0160348Y0085390D01*
X0161347Y0086388D02*
X0138728Y0086388D01*
X0138728Y0087387D02*
X0162345Y0087387D01*
X0163344Y0088385D02*
X0139284Y0088385D01*
X0140282Y0089384D02*
X0164343Y0089384D01*
X0165341Y0090382D02*
X0141281Y0090382D01*
X0142279Y0091381D02*
X0166340Y0091381D01*
X0167338Y0092379D02*
X0143278Y0092379D01*
X0144276Y0093378D02*
X0168337Y0093378D01*
X0169335Y0094376D02*
X0145275Y0094376D01*
X0146273Y0095375D02*
X0151872Y0095375D01*
X0150874Y0096373D02*
X0146528Y0096373D01*
X0146528Y0097372D02*
X0150407Y0097372D01*
X0150128Y0098370D02*
X0146528Y0098370D01*
X0146807Y0099369D02*
X0150128Y0099369D01*
X0150128Y0100368D02*
X0147411Y0100368D01*
X0147617Y0101366D02*
X0150128Y0101366D01*
X0150128Y0102365D02*
X0147522Y0102365D01*
X0147075Y0103363D02*
X0150128Y0103363D01*
X0150128Y0104362D02*
X0145853Y0104362D01*
X0143004Y0104362D02*
X0138371Y0104362D01*
X0138728Y0105360D02*
X0150296Y0105360D01*
X0150710Y0106359D02*
X0138728Y0106359D01*
X0138728Y0107357D02*
X0151604Y0107357D01*
X0152328Y0108356D02*
X0138654Y0108356D01*
X0137655Y0109354D02*
X0152064Y0109354D01*
X0151452Y0110353D02*
X0137405Y0110353D01*
X0137617Y0111351D02*
X0151239Y0111351D01*
X0151329Y0112350D02*
X0137528Y0112350D01*
X0137090Y0113348D02*
X0151767Y0113348D01*
X0152968Y0114347D02*
X0135889Y0114347D01*
X0127328Y0118341D02*
X0127177Y0118341D01*
X0127328Y0119339D02*
X0126599Y0119339D01*
X0127328Y0120338D02*
X0125613Y0120338D01*
X0127328Y0121336D02*
X0097235Y0121336D01*
X0098233Y0122335D02*
X0113223Y0122335D01*
X0112224Y0123333D02*
X0099232Y0123333D01*
X0100230Y0124332D02*
X0111615Y0124332D01*
X0113613Y0120605D02*
X0113001Y0120161D01*
X0112467Y0119627D01*
X0112023Y0119016D01*
X0111680Y0118343D01*
X0111447Y0117624D01*
X0111348Y0117000D01*
X0118928Y0117000D01*
X0118928Y0121300D01*
X0115751Y0121300D01*
X0115004Y0121182D01*
X0114286Y0120948D01*
X0113613Y0120605D01*
X0113244Y0120338D02*
X0096236Y0120338D01*
X0095238Y0119339D02*
X0112258Y0119339D01*
X0111680Y0118341D02*
X0094239Y0118341D01*
X0093241Y0117342D02*
X0111402Y0117342D01*
X0111457Y0115345D02*
X0091243Y0115345D01*
X0090245Y0114347D02*
X0111838Y0114347D01*
X0112492Y0113348D02*
X0089246Y0113348D01*
X0088248Y0112350D02*
X0113701Y0112350D01*
X0114775Y0111351D02*
X0087249Y0111351D01*
X0086251Y0110353D02*
X0112910Y0110353D01*
X0111912Y0109354D02*
X0085252Y0109354D01*
X0084254Y0108356D02*
X0098314Y0108356D01*
X0097316Y0107357D02*
X0083255Y0107357D01*
X0082257Y0106359D02*
X0096317Y0106359D01*
X0095319Y0105360D02*
X0081258Y0105360D01*
X0080260Y0104362D02*
X0094320Y0104362D01*
X0093322Y0103363D02*
X0079261Y0103363D01*
X0078263Y0102365D02*
X0092323Y0102365D01*
X0091325Y0101366D02*
X0077264Y0101366D01*
X0076266Y0100368D02*
X0090326Y0100368D01*
X0089328Y0099369D02*
X0075267Y0099369D01*
X0074269Y0098370D02*
X0088329Y0098370D01*
X0087331Y0097372D02*
X0073270Y0097372D01*
X0072272Y0096373D02*
X0086332Y0096373D01*
X0085334Y0095375D02*
X0071273Y0095375D01*
X0070275Y0094376D02*
X0084335Y0094376D01*
X0083337Y0093378D02*
X0069276Y0093378D01*
X0068278Y0092379D02*
X0082338Y0092379D01*
X0082328Y0091381D02*
X0067279Y0091381D01*
X0066281Y0090382D02*
X0082328Y0090382D01*
X0082328Y0089384D02*
X0065282Y0089384D01*
X0064284Y0088385D02*
X0082328Y0088385D01*
X0082328Y0087387D02*
X0063285Y0087387D01*
X0062287Y0086388D02*
X0082328Y0086388D01*
X0082237Y0085390D02*
X0066337Y0085390D01*
X0066127Y0085600D02*
X0064728Y0085600D01*
X0064728Y0081800D01*
X0064128Y0081800D01*
X0064128Y0081200D01*
X0060328Y0081200D01*
X0060328Y0079802D01*
X0062730Y0077400D01*
X0064128Y0077400D01*
X0064128Y0081200D01*
X0064728Y0081200D01*
X0064728Y0077400D01*
X0066127Y0077400D01*
X0068528Y0079802D01*
X0068528Y0081200D01*
X0064729Y0081200D01*
X0064729Y0081800D01*
X0068528Y0081800D01*
X0068528Y0083198D01*
X0066127Y0085600D01*
X0064728Y0085390D02*
X0064128Y0085390D01*
X0064128Y0085600D02*
X0062730Y0085600D01*
X0060328Y0083198D01*
X0060328Y0081800D01*
X0064128Y0081800D01*
X0064128Y0085600D01*
X0064128Y0084391D02*
X0064728Y0084391D01*
X0064728Y0083393D02*
X0064128Y0083393D01*
X0064128Y0082394D02*
X0064728Y0082394D01*
X0064729Y0081396D02*
X0080128Y0081396D01*
X0080128Y0082394D02*
X0068528Y0082394D01*
X0068334Y0083393D02*
X0080240Y0083393D01*
X0081239Y0084391D02*
X0067335Y0084391D01*
X0068528Y0080397D02*
X0080128Y0080397D01*
X0080449Y0079399D02*
X0068126Y0079399D01*
X0067127Y0078400D02*
X0081447Y0078400D01*
X0082446Y0077402D02*
X0066128Y0077402D01*
X0064728Y0077402D02*
X0064128Y0077402D01*
X0064128Y0078400D02*
X0064728Y0078400D01*
X0064728Y0079399D02*
X0064128Y0079399D01*
X0064128Y0080397D02*
X0064728Y0080397D01*
X0064128Y0081396D02*
X0058728Y0081396D01*
X0058728Y0082394D02*
X0060328Y0082394D01*
X0060523Y0083393D02*
X0059291Y0083393D01*
X0060290Y0084391D02*
X0061522Y0084391D01*
X0061288Y0085390D02*
X0062520Y0085390D01*
X0059343Y0089384D02*
X0049428Y0089384D01*
X0049428Y0090382D02*
X0060341Y0090382D01*
X0061340Y0091381D02*
X0049428Y0091381D01*
X0049428Y0092379D02*
X0062338Y0092379D01*
X0063337Y0093378D02*
X0049428Y0093378D01*
X0049428Y0094376D02*
X0064335Y0094376D01*
X0065334Y0095375D02*
X0049428Y0095375D01*
X0049428Y0096373D02*
X0066332Y0096373D01*
X0067331Y0097372D02*
X0049428Y0097372D01*
X0049428Y0098370D02*
X0068329Y0098370D01*
X0069328Y0099369D02*
X0049428Y0099369D01*
X0049428Y0100368D02*
X0070326Y0100368D01*
X0071325Y0101366D02*
X0049428Y0101366D01*
X0049428Y0102365D02*
X0072323Y0102365D01*
X0073322Y0103363D02*
X0049428Y0103363D01*
X0049428Y0104362D02*
X0074320Y0104362D01*
X0075319Y0105360D02*
X0049428Y0105360D01*
X0049428Y0106359D02*
X0055994Y0106359D01*
X0056183Y0106250D02*
X0053674Y0107698D01*
X0051626Y0109746D01*
X0050178Y0112254D01*
X0049428Y0115052D01*
X0049428Y0117948D01*
X0050178Y0120746D01*
X0051626Y0123254D01*
X0053674Y0125302D01*
X0056183Y0126750D01*
X0058980Y0127500D01*
X0061877Y0127500D01*
X0064674Y0126750D01*
X0067183Y0125302D01*
X0069231Y0123254D01*
X0070679Y0120746D01*
X0071428Y0117948D01*
X0071428Y0115052D01*
X0070679Y0112254D01*
X0069231Y0109746D01*
X0067183Y0107698D01*
X0064674Y0106250D01*
X0061877Y0105500D01*
X0058980Y0105500D01*
X0056183Y0106250D01*
X0054264Y0107357D02*
X0049428Y0107357D01*
X0049428Y0108356D02*
X0053017Y0108356D01*
X0052018Y0109354D02*
X0049428Y0109354D01*
X0049428Y0110353D02*
X0051276Y0110353D01*
X0050699Y0111351D02*
X0049428Y0111351D01*
X0049428Y0112350D02*
X0050153Y0112350D01*
X0049885Y0113348D02*
X0049428Y0113348D01*
X0049428Y0114347D02*
X0049617Y0114347D01*
X0049428Y0115345D02*
X0049428Y0115345D01*
X0049428Y0116344D02*
X0049428Y0116344D01*
X0049428Y0117342D02*
X0049428Y0117342D01*
X0049428Y0118341D02*
X0049534Y0118341D01*
X0049428Y0119339D02*
X0049801Y0119339D01*
X0050069Y0120338D02*
X0049428Y0120338D01*
X0049428Y0121336D02*
X0050519Y0121336D01*
X0051095Y0122335D02*
X0049428Y0122335D01*
X0049428Y0123333D02*
X0051705Y0123333D01*
X0052704Y0124332D02*
X0049428Y0124332D01*
X0049428Y0125330D02*
X0053723Y0125330D01*
X0055452Y0126329D02*
X0049428Y0126329D01*
X0049428Y0127327D02*
X0058336Y0127327D01*
X0062521Y0127327D02*
X0097286Y0127327D01*
X0096287Y0126329D02*
X0065404Y0126329D01*
X0067134Y0125330D02*
X0095289Y0125330D01*
X0094290Y0124332D02*
X0068153Y0124332D01*
X0069152Y0123333D02*
X0093292Y0123333D01*
X0092293Y0122335D02*
X0069761Y0122335D01*
X0070338Y0121336D02*
X0091295Y0121336D01*
X0090296Y0120338D02*
X0070788Y0120338D01*
X0071056Y0119339D02*
X0089298Y0119339D01*
X0088299Y0118341D02*
X0071323Y0118341D01*
X0071428Y0117342D02*
X0087301Y0117342D01*
X0086302Y0116344D02*
X0071428Y0116344D01*
X0071428Y0115345D02*
X0085304Y0115345D01*
X0084305Y0114347D02*
X0071240Y0114347D01*
X0070972Y0113348D02*
X0083307Y0113348D01*
X0082308Y0112350D02*
X0070704Y0112350D01*
X0070157Y0111351D02*
X0081310Y0111351D01*
X0080311Y0110353D02*
X0069581Y0110353D01*
X0068839Y0109354D02*
X0079313Y0109354D01*
X0078314Y0108356D02*
X0067840Y0108356D01*
X0066592Y0107357D02*
X0077316Y0107357D01*
X0076317Y0106359D02*
X0064863Y0106359D01*
X0058344Y0088385D02*
X0049428Y0088385D01*
X0049428Y0087387D02*
X0057345Y0087387D01*
X0056347Y0086388D02*
X0049428Y0086388D01*
X0049428Y0085390D02*
X0052237Y0085390D01*
X0051239Y0084391D02*
X0049428Y0084391D01*
X0049428Y0083393D02*
X0050240Y0083393D01*
X0050128Y0082394D02*
X0049428Y0082394D01*
X0049428Y0081396D02*
X0050128Y0081396D01*
X0050128Y0080397D02*
X0049428Y0080397D01*
X0049428Y0079399D02*
X0050449Y0079399D01*
X0051447Y0078400D02*
X0049428Y0078400D01*
X0049428Y0077402D02*
X0052446Y0077402D01*
X0049428Y0076403D02*
X0122328Y0076403D01*
X0122328Y0075405D02*
X0049428Y0075405D01*
X0049428Y0074406D02*
X0122328Y0074406D01*
X0122328Y0073408D02*
X0049428Y0073408D01*
X0049428Y0072409D02*
X0122328Y0072409D01*
X0122328Y0071411D02*
X0049428Y0071411D01*
X0049428Y0070412D02*
X0122328Y0070412D01*
X0122328Y0069414D02*
X0049428Y0069414D01*
X0049428Y0068415D02*
X0122328Y0068415D01*
X0122328Y0067417D02*
X0049428Y0067417D01*
X0049428Y0066418D02*
X0122328Y0066418D01*
X0122328Y0065420D02*
X0049428Y0065420D01*
X0049428Y0064421D02*
X0122328Y0064421D01*
X0122328Y0063423D02*
X0049428Y0063423D01*
X0049428Y0062424D02*
X0122328Y0062424D01*
X0122328Y0061426D02*
X0049428Y0061426D01*
X0049428Y0060427D02*
X0122328Y0060427D01*
X0122328Y0059429D02*
X0049428Y0059429D01*
X0049428Y0058430D02*
X0122328Y0058430D01*
X0122328Y0057432D02*
X0049428Y0057432D01*
X0049428Y0056433D02*
X0122328Y0056433D01*
X0122328Y0055434D02*
X0049428Y0055434D01*
X0049428Y0054436D02*
X0122328Y0054436D01*
X0122328Y0053437D02*
X0049428Y0053437D01*
X0049428Y0052439D02*
X0122328Y0052439D01*
X0126528Y0061426D02*
X0142328Y0061426D01*
X0142328Y0062424D02*
X0126528Y0062424D01*
X0126528Y0063423D02*
X0142328Y0063423D01*
X0142328Y0064421D02*
X0126528Y0064421D01*
X0126528Y0065420D02*
X0142328Y0065420D01*
X0142328Y0066418D02*
X0126528Y0066418D01*
X0126528Y0067417D02*
X0142328Y0067417D01*
X0142328Y0068415D02*
X0126528Y0068415D01*
X0126528Y0069414D02*
X0142328Y0069414D01*
X0142328Y0070412D02*
X0126528Y0070412D01*
X0126528Y0071411D02*
X0142328Y0071411D01*
X0142328Y0072409D02*
X0136419Y0072409D01*
X0137417Y0073408D02*
X0141440Y0073408D01*
X0140441Y0074406D02*
X0138416Y0074406D01*
X0138728Y0075405D02*
X0140128Y0075405D01*
X0140128Y0076403D02*
X0138728Y0076403D01*
X0138728Y0077402D02*
X0140128Y0077402D01*
X0140248Y0078400D02*
X0138609Y0078400D01*
X0137611Y0079399D02*
X0141246Y0079399D01*
X0142245Y0080397D02*
X0136612Y0080397D01*
X0136528Y0081396D02*
X0156354Y0081396D01*
X0155356Y0080397D02*
X0146612Y0080397D01*
X0147611Y0079399D02*
X0154357Y0079399D01*
X0157353Y0082394D02*
X0136528Y0082394D01*
X0137402Y0083393D02*
X0158351Y0083393D01*
X0156985Y0095375D02*
X0161872Y0095375D01*
X0160874Y0096373D02*
X0157983Y0096373D01*
X0158450Y0097372D02*
X0160407Y0097372D01*
X0160128Y0098370D02*
X0158728Y0098370D01*
X0158728Y0099369D02*
X0160128Y0099369D01*
X0160128Y0100368D02*
X0158728Y0100368D01*
X0158728Y0101366D02*
X0160128Y0101366D01*
X0160128Y0102365D02*
X0158728Y0102365D01*
X0158728Y0103363D02*
X0160128Y0103363D01*
X0160128Y0104362D02*
X0158728Y0104362D01*
X0158561Y0105360D02*
X0160296Y0105360D01*
X0160710Y0106359D02*
X0158147Y0106359D01*
X0157252Y0107357D02*
X0161604Y0107357D01*
X0162328Y0108356D02*
X0156528Y0108356D01*
X0156792Y0109354D02*
X0162064Y0109354D01*
X0161452Y0110353D02*
X0157405Y0110353D01*
X0157617Y0111351D02*
X0161239Y0111351D01*
X0161329Y0112350D02*
X0157528Y0112350D01*
X0157090Y0113348D02*
X0161767Y0113348D01*
X0162968Y0114347D02*
X0155889Y0114347D01*
X0165889Y0114347D02*
X0182328Y0114347D01*
X0182328Y0113348D02*
X0167090Y0113348D01*
X0167528Y0112350D02*
X0182328Y0112350D01*
X0182328Y0111351D02*
X0167617Y0111351D01*
X0167405Y0110353D02*
X0182328Y0110353D01*
X0182328Y0109354D02*
X0166792Y0109354D01*
X0166528Y0108356D02*
X0173466Y0108356D01*
X0175391Y0108356D02*
X0182328Y0108356D01*
X0181604Y0107357D02*
X0177252Y0107357D01*
X0178147Y0106359D02*
X0180710Y0106359D01*
X0180296Y0105360D02*
X0178561Y0105360D01*
X0178728Y0104362D02*
X0180128Y0104362D01*
X0180128Y0103363D02*
X0178728Y0103363D01*
X0178728Y0102365D02*
X0180128Y0102365D01*
X0180128Y0101366D02*
X0178728Y0101366D01*
X0178728Y0100368D02*
X0180128Y0100368D01*
X0179328Y0099369D02*
X0178728Y0099369D01*
X0170874Y0096373D02*
X0167983Y0096373D01*
X0168450Y0097372D02*
X0170407Y0097372D01*
X0170128Y0098370D02*
X0168728Y0098370D01*
X0168728Y0099369D02*
X0170128Y0099369D01*
X0170128Y0100368D02*
X0168728Y0100368D01*
X0168728Y0101366D02*
X0170128Y0101366D01*
X0170128Y0102365D02*
X0168728Y0102365D01*
X0168728Y0103363D02*
X0170128Y0103363D01*
X0170128Y0104362D02*
X0168728Y0104362D01*
X0168561Y0105360D02*
X0170296Y0105360D01*
X0170710Y0106359D02*
X0168147Y0106359D01*
X0167252Y0107357D02*
X0171604Y0107357D01*
X0170334Y0095375D02*
X0166985Y0095375D01*
X0186528Y0112832D02*
X0186528Y0117370D01*
X0185298Y0118600D01*
X0145760Y0118600D01*
X0146235Y0118797D01*
X0146838Y0119400D01*
X0175298Y0119400D01*
X0176528Y0120630D01*
X0176528Y0125116D01*
X0176864Y0125255D01*
X0178074Y0126464D01*
X0178728Y0128045D01*
X0178728Y0134955D01*
X0178461Y0135600D01*
X0180605Y0135600D01*
X0180429Y0135060D01*
X0180328Y0134423D01*
X0180328Y0131800D01*
X0184128Y0131800D01*
X0184128Y0131200D01*
X0180328Y0131200D01*
X0180328Y0128577D01*
X0180429Y0127940D01*
X0180629Y0127326D01*
X0180922Y0126751D01*
X0181301Y0126229D01*
X0181757Y0125773D01*
X0182280Y0125393D01*
X0182855Y0125100D01*
X0183468Y0124901D01*
X0184106Y0124800D01*
X0184128Y0124800D01*
X0184128Y0131200D01*
X0184728Y0131200D01*
X0184728Y0124800D01*
X0184751Y0124800D01*
X0185389Y0124901D01*
X0186002Y0125100D01*
X0186577Y0125393D01*
X0187099Y0125773D01*
X0187328Y0126002D01*
X0187328Y0113910D01*
X0186725Y0113306D01*
X0186528Y0112832D01*
X0186528Y0113348D02*
X0186767Y0113348D01*
X0186528Y0114347D02*
X0187328Y0114347D01*
X0187328Y0115345D02*
X0186528Y0115345D01*
X0186528Y0116344D02*
X0187328Y0116344D01*
X0187328Y0117342D02*
X0186528Y0117342D01*
X0187328Y0118341D02*
X0185558Y0118341D01*
X0187328Y0119339D02*
X0146778Y0119339D01*
X0150128Y0134317D02*
X0119581Y0134317D01*
X0118583Y0135315D02*
X0150278Y0135315D01*
X0150691Y0136314D02*
X0117584Y0136314D01*
X0116586Y0137312D02*
X0150646Y0137312D01*
X0149648Y0138311D02*
X0115587Y0138311D01*
X0114589Y0139309D02*
X0148649Y0139309D01*
X0147651Y0140308D02*
X0113590Y0140308D01*
X0112592Y0141306D02*
X0146652Y0141306D01*
X0145654Y0142305D02*
X0111593Y0142305D01*
X0110595Y0143303D02*
X0144655Y0143303D01*
X0143657Y0144302D02*
X0109596Y0144302D01*
X0108598Y0145301D02*
X0142658Y0145301D01*
X0141660Y0146299D02*
X0107599Y0146299D01*
X0106601Y0147298D02*
X0140661Y0147298D01*
X0139663Y0148296D02*
X0105602Y0148296D01*
X0104604Y0149295D02*
X0138664Y0149295D01*
X0137666Y0150293D02*
X0103605Y0150293D01*
X0102607Y0151292D02*
X0137328Y0151292D01*
X0137328Y0152290D02*
X0101608Y0152290D01*
X0101528Y0153289D02*
X0137328Y0153289D01*
X0137328Y0154287D02*
X0101528Y0154287D01*
X0101528Y0155286D02*
X0137328Y0155286D01*
X0137328Y0156284D02*
X0101528Y0156284D01*
X0101528Y0157283D02*
X0137328Y0157283D01*
X0137328Y0158281D02*
X0102291Y0158281D01*
X0103289Y0159280D02*
X0137328Y0159280D01*
X0137328Y0160278D02*
X0103728Y0160278D01*
X0103728Y0161277D02*
X0137328Y0161277D01*
X0137328Y0162275D02*
X0103728Y0162275D01*
X0103728Y0163274D02*
X0137328Y0163274D01*
X0137328Y0164272D02*
X0102737Y0164272D01*
X0101739Y0165271D02*
X0137328Y0165271D01*
X0137328Y0166269D02*
X0101528Y0166269D01*
X0101528Y0167268D02*
X0137328Y0167268D01*
X0137328Y0168266D02*
X0102276Y0168266D01*
X0103274Y0169265D02*
X0137328Y0169265D01*
X0137328Y0170263D02*
X0103728Y0170263D01*
X0103728Y0171262D02*
X0137328Y0171262D01*
X0137328Y0172260D02*
X0103728Y0172260D01*
X0103728Y0173259D02*
X0137328Y0173259D01*
X0137328Y0174257D02*
X0102752Y0174257D01*
X0101754Y0175256D02*
X0137328Y0175256D01*
X0137328Y0176254D02*
X0078728Y0176254D01*
X0078728Y0175256D02*
X0097103Y0175256D01*
X0096105Y0174257D02*
X0079641Y0174257D01*
X0080639Y0173259D02*
X0095128Y0173259D01*
X0095128Y0172260D02*
X0081638Y0172260D01*
X0082636Y0171262D02*
X0095128Y0171262D01*
X0095128Y0170263D02*
X0083635Y0170263D01*
X0084634Y0169265D02*
X0095583Y0169265D01*
X0096581Y0168266D02*
X0085632Y0168266D01*
X0086631Y0167268D02*
X0097135Y0167268D01*
X0096137Y0166269D02*
X0087629Y0166269D01*
X0084685Y0163274D02*
X0080533Y0163274D01*
X0079535Y0164272D02*
X0083686Y0164272D01*
X0082688Y0165271D02*
X0078536Y0165271D01*
X0077538Y0166269D02*
X0081689Y0166269D01*
X0080691Y0167268D02*
X0076539Y0167268D01*
X0075541Y0168266D02*
X0079692Y0168266D01*
X0078694Y0169265D02*
X0074542Y0169265D01*
X0073544Y0170263D02*
X0077695Y0170263D01*
X0076697Y0171262D02*
X0072545Y0171262D01*
X0072587Y0172260D02*
X0071547Y0172260D01*
X0071589Y0173259D02*
X0070548Y0173259D01*
X0070590Y0174257D02*
X0069550Y0174257D01*
X0070128Y0175256D02*
X0068551Y0175256D01*
X0067553Y0176254D02*
X0070128Y0176254D01*
X0070128Y0177253D02*
X0066554Y0177253D01*
X0065556Y0178251D02*
X0070128Y0178251D01*
X0071097Y0179250D02*
X0064557Y0179250D01*
X0063559Y0180248D02*
X0072096Y0180248D01*
X0076761Y0180248D02*
X0137328Y0180248D01*
X0137328Y0179250D02*
X0077760Y0179250D01*
X0078728Y0178251D02*
X0137328Y0178251D01*
X0137328Y0177253D02*
X0078728Y0177253D01*
X0069601Y0168266D02*
X0056528Y0168266D01*
X0056528Y0167268D02*
X0070600Y0167268D01*
X0071598Y0166269D02*
X0056528Y0166269D01*
X0056528Y0165271D02*
X0072597Y0165271D01*
X0073595Y0164272D02*
X0056528Y0164272D01*
X0056528Y0163274D02*
X0074594Y0163274D01*
X0075592Y0162275D02*
X0056528Y0162275D01*
X0056528Y0161277D02*
X0076591Y0161277D01*
X0077589Y0160278D02*
X0066449Y0160278D01*
X0066127Y0160600D02*
X0064728Y0160600D01*
X0064728Y0156800D01*
X0064128Y0156800D01*
X0064128Y0156200D01*
X0060328Y0156200D01*
X0060328Y0154802D01*
X0062730Y0152400D01*
X0064128Y0152400D01*
X0064128Y0156200D01*
X0064728Y0156200D01*
X0064728Y0152400D01*
X0066127Y0152400D01*
X0068528Y0154802D01*
X0068528Y0156200D01*
X0064729Y0156200D01*
X0064729Y0156800D01*
X0068528Y0156800D01*
X0068528Y0158198D01*
X0066127Y0160600D01*
X0064728Y0160278D02*
X0064128Y0160278D01*
X0064128Y0160600D02*
X0062730Y0160600D01*
X0060328Y0158198D01*
X0060328Y0156800D01*
X0064128Y0156800D01*
X0064128Y0160600D01*
X0064128Y0159280D02*
X0064728Y0159280D01*
X0064728Y0158281D02*
X0064128Y0158281D01*
X0064128Y0157283D02*
X0064728Y0157283D01*
X0064729Y0156284D02*
X0081583Y0156284D01*
X0080585Y0157283D02*
X0068528Y0157283D01*
X0068446Y0158281D02*
X0079586Y0158281D01*
X0078588Y0159280D02*
X0067447Y0159280D01*
X0068528Y0155286D02*
X0087673Y0155286D01*
X0088672Y0154287D02*
X0068014Y0154287D01*
X0067015Y0153289D02*
X0089670Y0153289D01*
X0090669Y0152290D02*
X0056300Y0152290D01*
X0056210Y0152200D02*
X0058728Y0154719D01*
X0058728Y0158281D01*
X0060411Y0158281D01*
X0060328Y0157283D02*
X0058728Y0157283D01*
X0058728Y0158281D02*
X0056528Y0160481D01*
X0056528Y0172519D01*
X0058728Y0174719D01*
X0058728Y0178281D01*
X0056210Y0180800D01*
X0052647Y0180800D01*
X0050128Y0178281D01*
X0050128Y0174719D01*
X0052328Y0172519D01*
X0052328Y0160481D01*
X0050128Y0158281D01*
X0050128Y0154719D01*
X0052647Y0152200D01*
X0056210Y0152200D01*
X0057298Y0153289D02*
X0061842Y0153289D01*
X0060843Y0154287D02*
X0058297Y0154287D01*
X0058728Y0155286D02*
X0060328Y0155286D01*
X0058728Y0156284D02*
X0064128Y0156284D01*
X0064128Y0155286D02*
X0064728Y0155286D01*
X0064728Y0154287D02*
X0064128Y0154287D01*
X0064128Y0153289D02*
X0064728Y0153289D01*
X0061410Y0159280D02*
X0057730Y0159280D01*
X0056731Y0160278D02*
X0062408Y0160278D01*
X0056528Y0169265D02*
X0068603Y0169265D01*
X0067604Y0170263D02*
X0056528Y0170263D01*
X0056528Y0171262D02*
X0066606Y0171262D01*
X0065607Y0172260D02*
X0056528Y0172260D01*
X0057268Y0173259D02*
X0064609Y0173259D01*
X0063610Y0174257D02*
X0058267Y0174257D01*
X0058728Y0175256D02*
X0062612Y0175256D01*
X0061613Y0176254D02*
X0058728Y0176254D01*
X0058728Y0177253D02*
X0060615Y0177253D01*
X0059616Y0178251D02*
X0058728Y0178251D01*
X0058618Y0179250D02*
X0057760Y0179250D01*
X0057619Y0180248D02*
X0056761Y0180248D01*
X0057328Y0181247D02*
X0049428Y0181247D01*
X0049428Y0182245D02*
X0057328Y0182245D01*
X0057328Y0183244D02*
X0049428Y0183244D01*
X0049428Y0184242D02*
X0057328Y0184242D01*
X0057328Y0185241D02*
X0049428Y0185241D01*
X0049428Y0186239D02*
X0057328Y0186239D01*
X0057328Y0187238D02*
X0049428Y0187238D01*
X0049428Y0188237D02*
X0057328Y0188237D01*
X0057328Y0189235D02*
X0049428Y0189235D01*
X0049428Y0190234D02*
X0057328Y0190234D01*
X0057328Y0191232D02*
X0049428Y0191232D01*
X0049428Y0192231D02*
X0057328Y0192231D01*
X0057328Y0193229D02*
X0049428Y0193229D01*
X0049428Y0194228D02*
X0057328Y0194228D01*
X0057328Y0195226D02*
X0049428Y0195226D01*
X0049428Y0196225D02*
X0057328Y0196225D01*
X0054472Y0197223D02*
X0049428Y0197223D01*
X0049428Y0198222D02*
X0053060Y0198222D01*
X0052286Y0199220D02*
X0049428Y0199220D01*
X0051528Y0204213D02*
X0052494Y0204213D01*
X0051528Y0205211D02*
X0053493Y0205211D01*
X0051528Y0206210D02*
X0121749Y0206210D01*
X0120750Y0207208D02*
X0063782Y0207208D01*
X0063482Y0207111D02*
X0064156Y0207330D01*
X0064787Y0207651D01*
X0065360Y0208068D01*
X0065861Y0208568D01*
X0066277Y0209141D01*
X0066599Y0209773D01*
X0066818Y0210446D01*
X0066905Y0211000D01*
X0059929Y0211000D01*
X0059929Y0212000D01*
X0066905Y0212000D01*
X0066818Y0212554D01*
X0066599Y0213227D01*
X0066277Y0213859D01*
X0065861Y0214432D01*
X0065360Y0214932D01*
X0064787Y0215349D01*
X0064156Y0215670D01*
X0063482Y0215889D01*
X0062783Y0216000D01*
X0059928Y0216000D01*
X0059928Y0212000D01*
X0058928Y0212000D01*
X0058928Y0211000D01*
X0051952Y0211000D01*
X0052039Y0210446D01*
X0052258Y0209773D01*
X0052580Y0209141D01*
X0052996Y0208568D01*
X0053497Y0208068D01*
X0054070Y0207651D01*
X0054701Y0207330D01*
X0055375Y0207111D01*
X0056074Y0207000D01*
X0058928Y0207000D01*
X0058928Y0211000D01*
X0059928Y0211000D01*
X0059928Y0207000D01*
X0062783Y0207000D01*
X0063482Y0207111D01*
X0065499Y0208207D02*
X0119752Y0208207D01*
X0118753Y0209205D02*
X0066310Y0209205D01*
X0066739Y0210204D02*
X0117755Y0210204D01*
X0116756Y0211202D02*
X0059929Y0211202D01*
X0059928Y0210204D02*
X0058928Y0210204D01*
X0058928Y0211202D02*
X0051528Y0211202D01*
X0051952Y0212000D02*
X0058928Y0212000D01*
X0058928Y0216000D01*
X0056074Y0216000D01*
X0055375Y0215889D01*
X0054701Y0215670D01*
X0054070Y0215349D01*
X0053497Y0214932D01*
X0052996Y0214432D01*
X0052580Y0213859D01*
X0052258Y0213227D01*
X0052039Y0212554D01*
X0051952Y0212000D01*
X0051983Y0212201D02*
X0051528Y0212201D01*
X0051528Y0213199D02*
X0052249Y0213199D01*
X0052826Y0214198D02*
X0051528Y0214198D01*
X0051528Y0215196D02*
X0053860Y0215196D01*
X0054544Y0217193D02*
X0051528Y0217193D01*
X0051528Y0216195D02*
X0111764Y0216195D01*
X0112762Y0215196D02*
X0064997Y0215196D01*
X0066031Y0214198D02*
X0113761Y0214198D01*
X0114759Y0213199D02*
X0066608Y0213199D01*
X0066874Y0212201D02*
X0115758Y0212201D01*
X0118702Y0215196D02*
X0147044Y0215196D01*
X0147328Y0215481D02*
X0145128Y0213281D01*
X0145128Y0209719D01*
X0147647Y0207200D01*
X0151210Y0207200D01*
X0153728Y0209719D01*
X0153728Y0213281D01*
X0151528Y0215481D01*
X0151528Y0227370D01*
X0148728Y0230170D01*
X0148728Y0233281D01*
X0146210Y0235800D01*
X0142647Y0235800D01*
X0140128Y0233281D01*
X0140128Y0229719D01*
X0142647Y0227200D01*
X0145759Y0227200D01*
X0147328Y0225630D01*
X0147328Y0215481D01*
X0147328Y0216195D02*
X0117703Y0216195D01*
X0116705Y0217193D02*
X0147328Y0217193D01*
X0147328Y0218192D02*
X0115706Y0218192D01*
X0114708Y0219190D02*
X0147328Y0219190D01*
X0147328Y0220189D02*
X0113709Y0220189D01*
X0112711Y0221187D02*
X0147328Y0221187D01*
X0147328Y0222186D02*
X0111712Y0222186D01*
X0110714Y0223184D02*
X0147328Y0223184D01*
X0147328Y0224183D02*
X0066392Y0224183D01*
X0065394Y0225181D02*
X0147328Y0225181D01*
X0146779Y0226180D02*
X0063412Y0226180D01*
X0066559Y0219190D02*
X0108768Y0219190D01*
X0109767Y0218192D02*
X0065767Y0218192D01*
X0064313Y0217193D02*
X0110765Y0217193D01*
X0119701Y0214198D02*
X0146045Y0214198D01*
X0145128Y0213199D02*
X0120699Y0213199D01*
X0121698Y0212201D02*
X0145128Y0212201D01*
X0145128Y0211202D02*
X0122696Y0211202D01*
X0123695Y0210204D02*
X0145128Y0210204D01*
X0145642Y0209205D02*
X0124693Y0209205D01*
X0125692Y0208207D02*
X0146641Y0208207D01*
X0147639Y0207208D02*
X0126690Y0207208D01*
X0127689Y0206210D02*
X0223728Y0206210D01*
X0223728Y0207208D02*
X0186218Y0207208D01*
X0186210Y0207200D02*
X0188728Y0209719D01*
X0188728Y0213281D01*
X0186528Y0215481D01*
X0186528Y0227370D01*
X0183728Y0230170D01*
X0183728Y0233281D01*
X0182610Y0234400D01*
X0193559Y0234400D01*
X0195128Y0232830D01*
X0195128Y0229719D01*
X0197647Y0227200D01*
X0200759Y0227200D01*
X0208559Y0219400D01*
X0215447Y0219400D01*
X0217647Y0217200D01*
X0221210Y0217200D01*
X0223728Y0219719D01*
X0223728Y0223281D01*
X0221210Y0225800D01*
X0217647Y0225800D01*
X0215447Y0223600D01*
X0210298Y0223600D01*
X0203728Y0230170D01*
X0203728Y0233281D01*
X0201210Y0235800D01*
X0198098Y0235800D01*
X0196528Y0237370D01*
X0195298Y0238600D01*
X0163559Y0238600D01*
X0162328Y0237370D01*
X0162328Y0235481D01*
X0160128Y0233281D01*
X0160128Y0229719D01*
X0162647Y0227200D01*
X0166210Y0227200D01*
X0168728Y0229719D01*
X0168728Y0233281D01*
X0167610Y0234400D01*
X0176247Y0234400D01*
X0175128Y0233281D01*
X0175128Y0229719D01*
X0177647Y0227200D01*
X0180759Y0227200D01*
X0182328Y0225630D01*
X0182328Y0215481D01*
X0180128Y0213281D01*
X0180128Y0209719D01*
X0182647Y0207200D01*
X0186210Y0207200D01*
X0187216Y0208207D02*
X0191923Y0208207D01*
X0192730Y0207400D02*
X0190328Y0209802D01*
X0190328Y0211200D01*
X0194128Y0211200D01*
X0194128Y0211800D01*
X0190328Y0211800D01*
X0190328Y0213198D01*
X0192730Y0215600D01*
X0194128Y0215600D01*
X0194128Y0211800D01*
X0194728Y0211800D01*
X0194728Y0215600D01*
X0196127Y0215600D01*
X0198528Y0213198D01*
X0198528Y0211800D01*
X0194729Y0211800D01*
X0194729Y0211200D01*
X0198528Y0211200D01*
X0198528Y0209802D01*
X0196127Y0207400D01*
X0194728Y0207400D01*
X0194728Y0211200D01*
X0194128Y0211200D01*
X0194128Y0207400D01*
X0192730Y0207400D01*
X0194128Y0208207D02*
X0194728Y0208207D01*
X0194728Y0209205D02*
X0194128Y0209205D01*
X0194128Y0210204D02*
X0194728Y0210204D01*
X0194729Y0211202D02*
X0223728Y0211202D01*
X0223728Y0210204D02*
X0198528Y0210204D01*
X0197932Y0209205D02*
X0223728Y0209205D01*
X0223728Y0208207D02*
X0196933Y0208207D01*
X0194128Y0211202D02*
X0188728Y0211202D01*
X0188728Y0210204D02*
X0190328Y0210204D01*
X0190925Y0209205D02*
X0188215Y0209205D01*
X0188728Y0212201D02*
X0190328Y0212201D01*
X0190329Y0213199D02*
X0188728Y0213199D01*
X0187812Y0214198D02*
X0191328Y0214198D01*
X0192327Y0215196D02*
X0186813Y0215196D01*
X0186528Y0216195D02*
X0223728Y0216195D01*
X0223728Y0217193D02*
X0186528Y0217193D01*
X0186528Y0218192D02*
X0216656Y0218192D01*
X0215657Y0219190D02*
X0186528Y0219190D01*
X0186528Y0220189D02*
X0207770Y0220189D01*
X0206771Y0221187D02*
X0186528Y0221187D01*
X0186528Y0222186D02*
X0205773Y0222186D01*
X0204774Y0223184D02*
X0186528Y0223184D01*
X0186528Y0224183D02*
X0203776Y0224183D01*
X0202777Y0225181D02*
X0186528Y0225181D01*
X0186528Y0226180D02*
X0201779Y0226180D01*
X0200780Y0227178D02*
X0186528Y0227178D01*
X0185721Y0228177D02*
X0196670Y0228177D01*
X0195672Y0229175D02*
X0184723Y0229175D01*
X0183728Y0230174D02*
X0195128Y0230174D01*
X0195128Y0231172D02*
X0183728Y0231172D01*
X0183728Y0232171D02*
X0195128Y0232171D01*
X0194789Y0233170D02*
X0183728Y0233170D01*
X0182842Y0234168D02*
X0193791Y0234168D01*
X0196735Y0237164D02*
X0227328Y0237164D01*
X0227328Y0238162D02*
X0195736Y0238162D01*
X0197733Y0236165D02*
X0227328Y0236165D01*
X0227014Y0235167D02*
X0201843Y0235167D01*
X0202842Y0234168D02*
X0226015Y0234168D01*
X0225128Y0233170D02*
X0203728Y0233170D01*
X0203728Y0232171D02*
X0225128Y0232171D01*
X0225128Y0231172D02*
X0203728Y0231172D01*
X0203728Y0230174D02*
X0225128Y0230174D01*
X0225672Y0229175D02*
X0204723Y0229175D01*
X0205721Y0228177D02*
X0226670Y0228177D01*
X0227046Y0227178D02*
X0206720Y0227178D01*
X0207718Y0226180D02*
X0226047Y0226180D01*
X0225049Y0225181D02*
X0221828Y0225181D01*
X0222827Y0224183D02*
X0224050Y0224183D01*
X0223728Y0223184D02*
X0223728Y0223184D01*
X0223728Y0222186D02*
X0223728Y0222186D01*
X0223728Y0221187D02*
X0223728Y0221187D01*
X0223728Y0220189D02*
X0223728Y0220189D01*
X0223728Y0219190D02*
X0223200Y0219190D01*
X0223728Y0218192D02*
X0222201Y0218192D01*
X0223728Y0215196D02*
X0196530Y0215196D01*
X0197529Y0214198D02*
X0223728Y0214198D01*
X0223728Y0213199D02*
X0198527Y0213199D01*
X0198528Y0212201D02*
X0223728Y0212201D01*
X0223728Y0205211D02*
X0128687Y0205211D01*
X0129686Y0204213D02*
X0223728Y0204213D01*
X0223728Y0203214D02*
X0130684Y0203214D01*
X0131683Y0202216D02*
X0223763Y0202216D01*
X0224762Y0201217D02*
X0132681Y0201217D01*
X0133680Y0200219D02*
X0225760Y0200219D01*
X0226759Y0199220D02*
X0134678Y0199220D01*
X0135677Y0198222D02*
X0163180Y0198222D01*
X0163559Y0198600D02*
X0162328Y0197370D01*
X0162328Y0195481D01*
X0160128Y0193281D01*
X0160128Y0189719D01*
X0162647Y0187200D01*
X0166210Y0187200D01*
X0168728Y0189719D01*
X0168728Y0193281D01*
X0167610Y0194400D01*
X0176247Y0194400D01*
X0175128Y0193281D01*
X0175128Y0189719D01*
X0177647Y0187200D01*
X0180759Y0187200D01*
X0182328Y0185630D01*
X0182328Y0175481D01*
X0180128Y0173281D01*
X0180128Y0169719D01*
X0182647Y0167200D01*
X0186210Y0167200D01*
X0188728Y0169719D01*
X0188728Y0173281D01*
X0186528Y0175481D01*
X0186528Y0187370D01*
X0183728Y0190170D01*
X0183728Y0193281D01*
X0182610Y0194400D01*
X0193559Y0194400D01*
X0195128Y0192830D01*
X0195128Y0189719D01*
X0197647Y0187200D01*
X0200759Y0187200D01*
X0208559Y0179400D01*
X0215447Y0179400D01*
X0217647Y0177200D01*
X0221210Y0177200D01*
X0223728Y0179719D01*
X0223728Y0183281D01*
X0221210Y0185800D01*
X0217647Y0185800D01*
X0215447Y0183600D01*
X0210298Y0183600D01*
X0203728Y0190170D01*
X0203728Y0193281D01*
X0201210Y0195800D01*
X0198098Y0195800D01*
X0196528Y0197370D01*
X0195298Y0198600D01*
X0163559Y0198600D01*
X0162328Y0197223D02*
X0136675Y0197223D01*
X0137674Y0196225D02*
X0162328Y0196225D01*
X0162073Y0195226D02*
X0146783Y0195226D01*
X0147782Y0194228D02*
X0161075Y0194228D01*
X0160128Y0193229D02*
X0148728Y0193229D01*
X0148728Y0192231D02*
X0160128Y0192231D01*
X0160128Y0191232D02*
X0148728Y0191232D01*
X0148728Y0190234D02*
X0160128Y0190234D01*
X0160612Y0189235D02*
X0149663Y0189235D01*
X0150662Y0188237D02*
X0161611Y0188237D01*
X0162609Y0187238D02*
X0151528Y0187238D01*
X0151528Y0186239D02*
X0181719Y0186239D01*
X0182328Y0185241D02*
X0151528Y0185241D01*
X0151528Y0184242D02*
X0182328Y0184242D01*
X0182328Y0183244D02*
X0151528Y0183244D01*
X0151528Y0182245D02*
X0182328Y0182245D01*
X0182328Y0181247D02*
X0151528Y0181247D01*
X0151528Y0180248D02*
X0182328Y0180248D01*
X0182328Y0179250D02*
X0151528Y0179250D01*
X0151528Y0178251D02*
X0182328Y0178251D01*
X0182328Y0177253D02*
X0151528Y0177253D01*
X0151528Y0176254D02*
X0182328Y0176254D01*
X0182103Y0175256D02*
X0161471Y0175256D01*
X0161127Y0175600D02*
X0159728Y0175600D01*
X0159728Y0171800D01*
X0159128Y0171800D01*
X0159128Y0171200D01*
X0155328Y0171200D01*
X0155328Y0169802D01*
X0157730Y0167400D01*
X0159128Y0167400D01*
X0159128Y0171200D01*
X0159728Y0171200D01*
X0159728Y0167400D01*
X0161127Y0167400D01*
X0163528Y0169802D01*
X0163528Y0171200D01*
X0159729Y0171200D01*
X0159729Y0171800D01*
X0163528Y0171800D01*
X0163528Y0173198D01*
X0161127Y0175600D01*
X0159728Y0175256D02*
X0159128Y0175256D01*
X0159128Y0175600D02*
X0157730Y0175600D01*
X0155328Y0173198D01*
X0155328Y0171800D01*
X0159128Y0171800D01*
X0159128Y0175600D01*
X0159128Y0174257D02*
X0159728Y0174257D01*
X0159728Y0173259D02*
X0159128Y0173259D01*
X0159128Y0172260D02*
X0159728Y0172260D01*
X0159729Y0171262D02*
X0180128Y0171262D01*
X0180128Y0172260D02*
X0163528Y0172260D01*
X0163468Y0173259D02*
X0180128Y0173259D01*
X0181105Y0174257D02*
X0162469Y0174257D01*
X0159128Y0171262D02*
X0153728Y0171262D01*
X0153728Y0172260D02*
X0155328Y0172260D01*
X0155389Y0173259D02*
X0153728Y0173259D01*
X0152752Y0174257D02*
X0156388Y0174257D01*
X0157386Y0175256D02*
X0151754Y0175256D01*
X0147328Y0176254D02*
X0141528Y0176254D01*
X0141528Y0175256D02*
X0147103Y0175256D01*
X0146105Y0174257D02*
X0141528Y0174257D01*
X0141528Y0173259D02*
X0145128Y0173259D01*
X0145128Y0172260D02*
X0141528Y0172260D01*
X0141528Y0171262D02*
X0145128Y0171262D01*
X0145128Y0170263D02*
X0141528Y0170263D01*
X0141528Y0169265D02*
X0145583Y0169265D01*
X0146581Y0168266D02*
X0141528Y0168266D01*
X0141528Y0167268D02*
X0147580Y0167268D01*
X0151277Y0167268D02*
X0182580Y0167268D01*
X0181581Y0168266D02*
X0161993Y0168266D01*
X0162992Y0169265D02*
X0180583Y0169265D01*
X0180128Y0170263D02*
X0163528Y0170263D01*
X0159728Y0170263D02*
X0159128Y0170263D01*
X0159128Y0169265D02*
X0159728Y0169265D01*
X0159728Y0168266D02*
X0159128Y0168266D01*
X0156864Y0168266D02*
X0152276Y0168266D01*
X0153274Y0169265D02*
X0155865Y0169265D01*
X0155328Y0170263D02*
X0153728Y0170263D01*
X0147328Y0177253D02*
X0141528Y0177253D01*
X0141528Y0178251D02*
X0147328Y0178251D01*
X0147328Y0179250D02*
X0141528Y0179250D01*
X0141528Y0180248D02*
X0147328Y0180248D01*
X0147328Y0181247D02*
X0141528Y0181247D01*
X0141528Y0182245D02*
X0147328Y0182245D01*
X0147328Y0183244D02*
X0141528Y0183244D01*
X0141528Y0184242D02*
X0147328Y0184242D01*
X0147328Y0185241D02*
X0141528Y0185241D01*
X0141528Y0186239D02*
X0146719Y0186239D01*
X0142609Y0187238D02*
X0141528Y0187238D01*
X0141528Y0188237D02*
X0141611Y0188237D01*
X0137328Y0188237D02*
X0061528Y0188237D01*
X0061528Y0189235D02*
X0137328Y0189235D01*
X0137328Y0190234D02*
X0061528Y0190234D01*
X0061528Y0191232D02*
X0136727Y0191232D01*
X0135728Y0192231D02*
X0061528Y0192231D01*
X0061528Y0193229D02*
X0134730Y0193229D01*
X0133731Y0194228D02*
X0061528Y0194228D01*
X0061528Y0195226D02*
X0132733Y0195226D01*
X0131734Y0196225D02*
X0061528Y0196225D01*
X0064385Y0197223D02*
X0130736Y0197223D01*
X0129737Y0198222D02*
X0065797Y0198222D01*
X0066571Y0199220D02*
X0128738Y0199220D01*
X0127740Y0200219D02*
X0066985Y0200219D01*
X0067128Y0201217D02*
X0126741Y0201217D01*
X0125743Y0202216D02*
X0067128Y0202216D01*
X0066806Y0203214D02*
X0124744Y0203214D01*
X0123746Y0204213D02*
X0066363Y0204213D01*
X0065364Y0205211D02*
X0122747Y0205211D01*
X0138672Y0195226D02*
X0142073Y0195226D01*
X0141075Y0194228D02*
X0139671Y0194228D01*
X0137328Y0187238D02*
X0061528Y0187238D01*
X0061528Y0186239D02*
X0137328Y0186239D01*
X0137328Y0185241D02*
X0061528Y0185241D01*
X0061528Y0184242D02*
X0137328Y0184242D01*
X0137328Y0183244D02*
X0061528Y0183244D01*
X0061562Y0182245D02*
X0137328Y0182245D01*
X0137328Y0181247D02*
X0062560Y0181247D01*
X0052096Y0180248D02*
X0049428Y0180248D01*
X0049428Y0179250D02*
X0051097Y0179250D01*
X0050128Y0178251D02*
X0049428Y0178251D01*
X0049428Y0177253D02*
X0050128Y0177253D01*
X0050128Y0176254D02*
X0049428Y0176254D01*
X0049428Y0175256D02*
X0050128Y0175256D01*
X0050590Y0174257D02*
X0049428Y0174257D01*
X0049428Y0173259D02*
X0051589Y0173259D01*
X0052328Y0172260D02*
X0049428Y0172260D01*
X0049428Y0171262D02*
X0052328Y0171262D01*
X0052328Y0170263D02*
X0049428Y0170263D01*
X0049428Y0169265D02*
X0052328Y0169265D01*
X0052328Y0168266D02*
X0049428Y0168266D01*
X0049428Y0167268D02*
X0052328Y0167268D01*
X0052328Y0166269D02*
X0049428Y0166269D01*
X0049428Y0165271D02*
X0052328Y0165271D01*
X0052328Y0164272D02*
X0049428Y0164272D01*
X0049428Y0163274D02*
X0052328Y0163274D01*
X0052328Y0162275D02*
X0049428Y0162275D01*
X0049428Y0161277D02*
X0052328Y0161277D01*
X0052126Y0160278D02*
X0049428Y0160278D01*
X0049428Y0159280D02*
X0051127Y0159280D01*
X0050129Y0158281D02*
X0049428Y0158281D01*
X0049428Y0157283D02*
X0050128Y0157283D01*
X0050128Y0156284D02*
X0049428Y0156284D01*
X0049428Y0155286D02*
X0050128Y0155286D01*
X0050560Y0154287D02*
X0049428Y0154287D01*
X0049428Y0153289D02*
X0051559Y0153289D01*
X0052557Y0152290D02*
X0049428Y0152290D01*
X0049428Y0151292D02*
X0091667Y0151292D01*
X0092666Y0150293D02*
X0049428Y0150293D01*
X0049428Y0149295D02*
X0093664Y0149295D01*
X0093728Y0149230D02*
X0093728Y0149230D01*
X0094663Y0148296D02*
X0049428Y0148296D01*
X0049428Y0147298D02*
X0095661Y0147298D01*
X0094959Y0148000D02*
X0094959Y0148000D01*
X0096660Y0146299D02*
X0049428Y0146299D01*
X0049428Y0145301D02*
X0097658Y0145301D01*
X0098657Y0144302D02*
X0049428Y0144302D01*
X0049428Y0143303D02*
X0099655Y0143303D01*
X0100654Y0142305D02*
X0049428Y0142305D01*
X0049428Y0141306D02*
X0101652Y0141306D01*
X0102651Y0140308D02*
X0049428Y0140308D01*
X0049428Y0139309D02*
X0103649Y0139309D01*
X0104648Y0138311D02*
X0049428Y0138311D01*
X0049428Y0137312D02*
X0105646Y0137312D01*
X0106645Y0136314D02*
X0049428Y0136314D01*
X0049428Y0135315D02*
X0107643Y0135315D01*
X0108642Y0134317D02*
X0049428Y0134317D01*
X0049428Y0133318D02*
X0109640Y0133318D01*
X0110639Y0132320D02*
X0049428Y0132320D01*
X0049428Y0131321D02*
X0111637Y0131321D01*
X0112636Y0130323D02*
X0049428Y0130323D01*
X0049428Y0129324D02*
X0111886Y0129324D01*
X0118928Y0120338D02*
X0119928Y0120338D01*
X0119928Y0119339D02*
X0118928Y0119339D01*
X0118928Y0118341D02*
X0119928Y0118341D01*
X0119928Y0117342D02*
X0118928Y0117342D01*
X0118928Y0116344D02*
X0092242Y0116344D01*
X0098284Y0128326D02*
X0049428Y0128326D01*
X0082530Y0161277D02*
X0085128Y0161277D01*
X0085128Y0162275D02*
X0081532Y0162275D01*
X0083529Y0160278D02*
X0085128Y0160278D01*
X0091616Y0157283D02*
X0093728Y0157283D01*
X0093728Y0158281D02*
X0092291Y0158281D01*
X0093289Y0159280D02*
X0093728Y0159280D01*
X0093728Y0160278D02*
X0093728Y0160278D01*
X0093728Y0161277D02*
X0093728Y0161277D01*
X0093728Y0162275D02*
X0093728Y0162275D01*
X0093728Y0163274D02*
X0093728Y0163274D01*
X0094140Y0164272D02*
X0092737Y0164272D01*
X0091739Y0165271D02*
X0095138Y0165271D01*
X0093728Y0156284D02*
X0092614Y0156284D01*
X0093613Y0155286D02*
X0093728Y0155286D01*
X0127242Y0124332D02*
X0127328Y0124332D01*
X0127328Y0123333D02*
X0126633Y0123333D01*
X0127328Y0122335D02*
X0125634Y0122335D01*
X0130260Y0104362D02*
X0130486Y0104362D01*
X0131484Y0103363D02*
X0129261Y0103363D01*
X0128263Y0102365D02*
X0132483Y0102365D01*
X0136374Y0102365D02*
X0141335Y0102365D01*
X0141239Y0101366D02*
X0127264Y0101366D01*
X0126528Y0100368D02*
X0141446Y0100368D01*
X0142050Y0099369D02*
X0126528Y0099369D01*
X0126528Y0098370D02*
X0142328Y0098370D01*
X0142328Y0097372D02*
X0126528Y0097372D01*
X0126528Y0096373D02*
X0141332Y0096373D01*
X0140334Y0095375D02*
X0126528Y0095375D01*
X0126528Y0094376D02*
X0139335Y0094376D01*
X0138337Y0093378D02*
X0126528Y0093378D01*
X0126528Y0092379D02*
X0137338Y0092379D01*
X0136340Y0091381D02*
X0126528Y0091381D01*
X0126528Y0090382D02*
X0132230Y0090382D01*
X0131231Y0089384D02*
X0126528Y0089384D01*
X0126528Y0088385D02*
X0130233Y0088385D01*
X0130128Y0087387D02*
X0126528Y0087387D01*
X0126528Y0086388D02*
X0130128Y0086388D01*
X0130128Y0085390D02*
X0126528Y0085390D01*
X0126528Y0084391D02*
X0130456Y0084391D01*
X0131455Y0083393D02*
X0126528Y0083393D01*
X0126528Y0082394D02*
X0132328Y0082394D01*
X0132328Y0081396D02*
X0126528Y0081396D01*
X0126528Y0080397D02*
X0132245Y0080397D01*
X0131246Y0079399D02*
X0126528Y0079399D01*
X0126528Y0078400D02*
X0130248Y0078400D01*
X0130128Y0077402D02*
X0126528Y0077402D01*
X0126528Y0076403D02*
X0130128Y0076403D01*
X0130128Y0075405D02*
X0126528Y0075405D01*
X0126528Y0074406D02*
X0130441Y0074406D01*
X0131440Y0073408D02*
X0126528Y0073408D01*
X0126528Y0072409D02*
X0132438Y0072409D01*
X0122328Y0077402D02*
X0096128Y0077402D01*
X0096127Y0077400D02*
X0098528Y0079802D01*
X0098528Y0081200D01*
X0094729Y0081200D01*
X0094729Y0081800D01*
X0098528Y0081800D01*
X0098528Y0083198D01*
X0096127Y0085600D01*
X0094728Y0085600D01*
X0094728Y0081800D01*
X0094128Y0081800D01*
X0094128Y0081200D01*
X0090328Y0081200D01*
X0090328Y0079802D01*
X0092730Y0077400D01*
X0094128Y0077400D01*
X0094128Y0081200D01*
X0094728Y0081200D01*
X0094728Y0077400D01*
X0096127Y0077400D01*
X0094728Y0077402D02*
X0094128Y0077402D01*
X0094128Y0078400D02*
X0094728Y0078400D01*
X0094728Y0079399D02*
X0094128Y0079399D01*
X0094128Y0080397D02*
X0094728Y0080397D01*
X0094729Y0081396D02*
X0122328Y0081396D01*
X0122328Y0082394D02*
X0098528Y0082394D01*
X0098334Y0083393D02*
X0122328Y0083393D01*
X0122328Y0084391D02*
X0097335Y0084391D01*
X0096337Y0085390D02*
X0122328Y0085390D01*
X0122328Y0086388D02*
X0086528Y0086388D01*
X0086528Y0087387D02*
X0122328Y0087387D01*
X0122328Y0088385D02*
X0086528Y0088385D01*
X0086528Y0089384D02*
X0122328Y0089384D01*
X0122328Y0090382D02*
X0086528Y0090382D01*
X0087279Y0091381D02*
X0122328Y0091381D01*
X0122328Y0092379D02*
X0088278Y0092379D01*
X0089276Y0093378D02*
X0122328Y0093378D01*
X0122328Y0094376D02*
X0090275Y0094376D01*
X0091273Y0095375D02*
X0122328Y0095375D01*
X0122328Y0096373D02*
X0092272Y0096373D01*
X0093270Y0097372D02*
X0122328Y0097372D01*
X0122328Y0098370D02*
X0094269Y0098370D01*
X0095267Y0099369D02*
X0122328Y0099369D01*
X0122328Y0100368D02*
X0096266Y0100368D01*
X0097264Y0101366D02*
X0121593Y0101366D01*
X0113193Y0102365D02*
X0098263Y0102365D01*
X0099261Y0103363D02*
X0112194Y0103363D01*
X0111602Y0104362D02*
X0100260Y0104362D01*
X0094128Y0085600D02*
X0092730Y0085600D01*
X0090328Y0083198D01*
X0090328Y0081800D01*
X0094128Y0081800D01*
X0094128Y0085600D01*
X0094128Y0085390D02*
X0094728Y0085390D01*
X0094728Y0084391D02*
X0094128Y0084391D01*
X0094128Y0083393D02*
X0094728Y0083393D01*
X0094728Y0082394D02*
X0094128Y0082394D01*
X0094128Y0081396D02*
X0088728Y0081396D01*
X0088728Y0082394D02*
X0090328Y0082394D01*
X0090523Y0083393D02*
X0088617Y0083393D01*
X0087618Y0084391D02*
X0091522Y0084391D01*
X0092520Y0085390D02*
X0086620Y0085390D01*
X0088728Y0080397D02*
X0090328Y0080397D01*
X0090731Y0079399D02*
X0088408Y0079399D01*
X0087410Y0078400D02*
X0091730Y0078400D01*
X0092728Y0077402D02*
X0086411Y0077402D01*
X0097127Y0078400D02*
X0122328Y0078400D01*
X0122328Y0079399D02*
X0098126Y0079399D01*
X0098528Y0080397D02*
X0122328Y0080397D01*
X0136300Y0060427D02*
X0142274Y0060427D01*
X0141276Y0059429D02*
X0137298Y0059429D01*
X0138297Y0058430D02*
X0140277Y0058430D01*
X0140128Y0057432D02*
X0138528Y0057432D01*
X0120826Y0029473D02*
X0049428Y0029473D01*
X0049428Y0028475D02*
X0119827Y0028475D01*
X0126988Y0022484D02*
X0140328Y0022484D01*
X0140612Y0023482D02*
X0127987Y0023482D01*
X0128985Y0024481D02*
X0141611Y0024481D01*
X0142609Y0025479D02*
X0129078Y0025479D01*
X0144128Y0025479D02*
X0144728Y0025479D01*
X0144728Y0024481D02*
X0144128Y0024481D01*
X0144128Y0023482D02*
X0144728Y0023482D01*
X0144728Y0022484D02*
X0144128Y0022484D01*
X0144128Y0020487D02*
X0144728Y0020487D01*
X0144728Y0019488D02*
X0144128Y0019488D01*
X0144128Y0018490D02*
X0144728Y0018490D01*
X0144728Y0017491D02*
X0144128Y0017491D01*
X0083628Y0017491D02*
X0049428Y0017491D01*
X0049428Y0018490D02*
X0081915Y0018490D01*
X0081034Y0019488D02*
X0049428Y0019488D01*
X0049428Y0020487D02*
X0080467Y0020487D01*
X0080164Y0021485D02*
X0049428Y0021485D01*
X0049428Y0042454D02*
X0072180Y0042454D01*
X0072180Y0043452D02*
X0049428Y0043452D01*
X0049428Y0044451D02*
X0072180Y0044451D01*
X0072180Y0045449D02*
X0049428Y0045449D01*
X0049428Y0046448D02*
X0072273Y0046448D01*
X0072554Y0047446D02*
X0049428Y0047446D01*
X0049428Y0048445D02*
X0073082Y0048445D01*
X0073935Y0049443D02*
X0049428Y0049443D01*
X0056411Y0077402D02*
X0062728Y0077402D01*
X0061730Y0078400D02*
X0057410Y0078400D01*
X0058408Y0079399D02*
X0060731Y0079399D01*
X0060328Y0080397D02*
X0058728Y0080397D01*
X0137373Y0103363D02*
X0141782Y0103363D01*
X0176236Y0120338D02*
X0187328Y0120338D01*
X0187328Y0121336D02*
X0176528Y0121336D01*
X0176528Y0122335D02*
X0187328Y0122335D01*
X0187328Y0123333D02*
X0176528Y0123333D01*
X0176528Y0124332D02*
X0187328Y0124332D01*
X0187328Y0125330D02*
X0186454Y0125330D01*
X0184728Y0125330D02*
X0184128Y0125330D01*
X0184128Y0126329D02*
X0184728Y0126329D01*
X0184728Y0127327D02*
X0184128Y0127327D01*
X0184128Y0128326D02*
X0184728Y0128326D01*
X0184728Y0129324D02*
X0184128Y0129324D01*
X0184128Y0130323D02*
X0184728Y0130323D01*
X0184729Y0131200D02*
X0184729Y0131800D01*
X0188528Y0131800D01*
X0188528Y0134423D01*
X0188427Y0135060D01*
X0188252Y0135600D01*
X0190396Y0135600D01*
X0190128Y0134955D01*
X0190128Y0130170D01*
X0188527Y0128568D01*
X0188528Y0128577D01*
X0188528Y0131200D01*
X0184729Y0131200D01*
X0184729Y0131321D02*
X0190128Y0131321D01*
X0190128Y0130323D02*
X0188528Y0130323D01*
X0188528Y0129324D02*
X0189283Y0129324D01*
X0188528Y0132320D02*
X0190128Y0132320D01*
X0190128Y0133318D02*
X0188528Y0133318D01*
X0188528Y0134317D02*
X0190128Y0134317D01*
X0190278Y0135315D02*
X0188345Y0135315D01*
X0184128Y0131321D02*
X0178728Y0131321D01*
X0178728Y0130323D02*
X0180328Y0130323D01*
X0180328Y0129324D02*
X0178728Y0129324D01*
X0178728Y0128326D02*
X0180368Y0128326D01*
X0180628Y0127327D02*
X0178431Y0127327D01*
X0177938Y0126329D02*
X0181229Y0126329D01*
X0182403Y0125330D02*
X0176940Y0125330D01*
X0178728Y0132320D02*
X0180328Y0132320D01*
X0180328Y0133318D02*
X0178728Y0133318D01*
X0178728Y0134317D02*
X0180328Y0134317D01*
X0180512Y0135315D02*
X0178579Y0135315D01*
X0196792Y0109354D02*
X0202328Y0109354D01*
X0202328Y0108356D02*
X0195391Y0108356D01*
X0197252Y0107357D02*
X0201604Y0107357D01*
X0200710Y0106359D02*
X0198147Y0106359D01*
X0198561Y0105360D02*
X0200296Y0105360D01*
X0200128Y0104362D02*
X0198728Y0104362D01*
X0198728Y0103363D02*
X0200128Y0103363D01*
X0200128Y0102365D02*
X0198728Y0102365D01*
X0198728Y0101366D02*
X0200128Y0101366D01*
X0200128Y0100368D02*
X0198728Y0100368D01*
X0198728Y0099369D02*
X0200128Y0099369D01*
X0200128Y0098370D02*
X0198728Y0098370D01*
X0198450Y0097372D02*
X0200407Y0097372D01*
X0200874Y0096373D02*
X0197983Y0096373D01*
X0196985Y0095375D02*
X0201872Y0095375D01*
X0206985Y0095375D02*
X0211872Y0095375D01*
X0210874Y0096373D02*
X0207983Y0096373D01*
X0208450Y0097372D02*
X0210407Y0097372D01*
X0210128Y0098370D02*
X0208728Y0098370D01*
X0208728Y0099369D02*
X0210128Y0099369D01*
X0210128Y0100368D02*
X0208728Y0100368D01*
X0208728Y0101366D02*
X0210128Y0101366D01*
X0210128Y0102365D02*
X0208728Y0102365D01*
X0208728Y0103363D02*
X0210128Y0103363D01*
X0210128Y0104362D02*
X0208728Y0104362D01*
X0208561Y0105360D02*
X0210296Y0105360D01*
X0210710Y0106359D02*
X0208147Y0106359D01*
X0207252Y0107357D02*
X0211604Y0107357D01*
X0213466Y0108356D02*
X0206528Y0108356D01*
X0206528Y0109354D02*
X0217328Y0109354D01*
X0217328Y0108356D02*
X0215391Y0108356D01*
X0217252Y0107357D02*
X0217328Y0107357D01*
X0217328Y0110353D02*
X0206528Y0110353D01*
X0206528Y0111351D02*
X0217328Y0111351D01*
X0217328Y0112350D02*
X0206528Y0112350D01*
X0206528Y0113348D02*
X0217328Y0113348D01*
X0217328Y0114347D02*
X0206528Y0114347D01*
X0206528Y0115345D02*
X0217328Y0115345D01*
X0217328Y0116344D02*
X0206528Y0116344D01*
X0206528Y0117342D02*
X0217328Y0117342D01*
X0217328Y0118341D02*
X0206528Y0118341D01*
X0206528Y0119339D02*
X0217328Y0119339D01*
X0217328Y0120338D02*
X0206528Y0120338D01*
X0206528Y0121336D02*
X0217328Y0121336D01*
X0217328Y0122335D02*
X0206528Y0122335D01*
X0206528Y0123333D02*
X0217328Y0123333D01*
X0217328Y0124332D02*
X0206528Y0124332D01*
X0206940Y0125330D02*
X0211917Y0125330D01*
X0210919Y0126329D02*
X0207938Y0126329D01*
X0208431Y0127327D02*
X0210426Y0127327D01*
X0210128Y0128326D02*
X0208728Y0128326D01*
X0208728Y0129324D02*
X0210128Y0129324D01*
X0210128Y0130323D02*
X0208728Y0130323D01*
X0208728Y0131321D02*
X0210128Y0131321D01*
X0210128Y0132320D02*
X0208728Y0132320D01*
X0208728Y0133318D02*
X0210128Y0133318D01*
X0210128Y0134317D02*
X0208728Y0134317D01*
X0208579Y0135315D02*
X0210278Y0135315D01*
X0210691Y0136314D02*
X0208166Y0136314D01*
X0207297Y0137312D02*
X0211560Y0137312D01*
X0213358Y0138311D02*
X0205587Y0138311D01*
X0204589Y0139309D02*
X0219268Y0139309D01*
X0218270Y0138311D02*
X0215499Y0138311D01*
X0220267Y0140308D02*
X0153590Y0140308D01*
X0152592Y0141306D02*
X0221265Y0141306D01*
X0222264Y0142305D02*
X0151593Y0142305D01*
X0150595Y0143303D02*
X0223262Y0143303D01*
X0224261Y0144302D02*
X0149596Y0144302D01*
X0148598Y0145301D02*
X0225259Y0145301D01*
X0226258Y0146299D02*
X0147599Y0146299D01*
X0146601Y0147298D02*
X0227256Y0147298D01*
X0227328Y0148296D02*
X0145602Y0148296D01*
X0144604Y0149295D02*
X0227328Y0149295D01*
X0227328Y0150293D02*
X0143605Y0150293D01*
X0142607Y0151292D02*
X0227328Y0151292D01*
X0227328Y0152290D02*
X0141608Y0152290D01*
X0141528Y0153289D02*
X0227328Y0153289D01*
X0227328Y0154287D02*
X0141528Y0154287D01*
X0141528Y0155286D02*
X0227328Y0155286D01*
X0227328Y0156284D02*
X0141528Y0156284D01*
X0141528Y0157283D02*
X0227328Y0157283D01*
X0227328Y0158281D02*
X0141528Y0158281D01*
X0141528Y0159280D02*
X0227328Y0159280D01*
X0227328Y0160278D02*
X0141528Y0160278D01*
X0141528Y0161277D02*
X0227328Y0161277D01*
X0227328Y0162275D02*
X0141528Y0162275D01*
X0141528Y0163274D02*
X0227328Y0163274D01*
X0227328Y0164272D02*
X0141528Y0164272D01*
X0141528Y0165271D02*
X0227328Y0165271D01*
X0227328Y0166269D02*
X0141528Y0166269D01*
X0166248Y0187238D02*
X0177609Y0187238D01*
X0176611Y0188237D02*
X0167246Y0188237D01*
X0168245Y0189235D02*
X0175612Y0189235D01*
X0175128Y0190234D02*
X0168728Y0190234D01*
X0168728Y0191232D02*
X0175128Y0191232D01*
X0175128Y0192231D02*
X0168728Y0192231D01*
X0168728Y0193229D02*
X0175128Y0193229D01*
X0176075Y0194228D02*
X0167782Y0194228D01*
X0161127Y0207400D02*
X0159728Y0207400D01*
X0159728Y0211200D01*
X0159128Y0211200D01*
X0155328Y0211200D01*
X0155328Y0209802D01*
X0157730Y0207400D01*
X0159128Y0207400D01*
X0159128Y0211200D01*
X0159128Y0211800D01*
X0155328Y0211800D01*
X0155328Y0213198D01*
X0157730Y0215600D01*
X0159128Y0215600D01*
X0159128Y0211800D01*
X0159728Y0211800D01*
X0159728Y0215600D01*
X0161127Y0215600D01*
X0163528Y0213198D01*
X0163528Y0211800D01*
X0159729Y0211800D01*
X0159729Y0211200D01*
X0163528Y0211200D01*
X0163528Y0209802D01*
X0161127Y0207400D01*
X0161933Y0208207D02*
X0181641Y0208207D01*
X0182639Y0207208D02*
X0151218Y0207208D01*
X0152216Y0208207D02*
X0156923Y0208207D01*
X0155925Y0209205D02*
X0153215Y0209205D01*
X0153728Y0210204D02*
X0155328Y0210204D01*
X0153728Y0211202D02*
X0159128Y0211202D01*
X0159729Y0211202D02*
X0180128Y0211202D01*
X0180128Y0210204D02*
X0163528Y0210204D01*
X0162932Y0209205D02*
X0180642Y0209205D01*
X0180128Y0212201D02*
X0163528Y0212201D01*
X0163527Y0213199D02*
X0180128Y0213199D01*
X0181045Y0214198D02*
X0162529Y0214198D01*
X0161530Y0215196D02*
X0182044Y0215196D01*
X0182328Y0216195D02*
X0151528Y0216195D01*
X0151528Y0217193D02*
X0182328Y0217193D01*
X0182328Y0218192D02*
X0151528Y0218192D01*
X0151528Y0219190D02*
X0182328Y0219190D01*
X0182328Y0220189D02*
X0151528Y0220189D01*
X0151528Y0221187D02*
X0182328Y0221187D01*
X0182328Y0222186D02*
X0151528Y0222186D01*
X0151528Y0223184D02*
X0182328Y0223184D01*
X0182328Y0224183D02*
X0151528Y0224183D01*
X0151528Y0225181D02*
X0182328Y0225181D01*
X0181779Y0226180D02*
X0151528Y0226180D01*
X0151528Y0227178D02*
X0180780Y0227178D01*
X0176670Y0228177D02*
X0167187Y0228177D01*
X0168185Y0229175D02*
X0175672Y0229175D01*
X0175128Y0230174D02*
X0168728Y0230174D01*
X0168728Y0231172D02*
X0175128Y0231172D01*
X0175128Y0232171D02*
X0168728Y0232171D01*
X0168728Y0233170D02*
X0175128Y0233170D01*
X0176015Y0234168D02*
X0167842Y0234168D01*
X0163121Y0238162D02*
X0051528Y0238162D01*
X0051528Y0237164D02*
X0162328Y0237164D01*
X0162328Y0236165D02*
X0051528Y0236165D01*
X0051528Y0235167D02*
X0142014Y0235167D01*
X0141015Y0234168D02*
X0051528Y0234168D01*
X0051528Y0233170D02*
X0140128Y0233170D01*
X0140128Y0232171D02*
X0051528Y0232171D01*
X0051528Y0231172D02*
X0140128Y0231172D01*
X0140128Y0230174D02*
X0051528Y0230174D01*
X0051528Y0229175D02*
X0140672Y0229175D01*
X0141670Y0228177D02*
X0051528Y0228177D01*
X0051528Y0227178D02*
X0145780Y0227178D01*
X0148728Y0230174D02*
X0160128Y0230174D01*
X0160128Y0231172D02*
X0148728Y0231172D01*
X0148728Y0232171D02*
X0160128Y0232171D01*
X0160128Y0233170D02*
X0148728Y0233170D01*
X0147842Y0234168D02*
X0161015Y0234168D01*
X0162014Y0235167D02*
X0146843Y0235167D01*
X0149723Y0229175D02*
X0160672Y0229175D01*
X0161670Y0228177D02*
X0150721Y0228177D01*
X0151813Y0215196D02*
X0157327Y0215196D01*
X0156328Y0214198D02*
X0152812Y0214198D01*
X0153728Y0213199D02*
X0155329Y0213199D01*
X0155328Y0212201D02*
X0153728Y0212201D01*
X0159128Y0212201D02*
X0159728Y0212201D01*
X0159728Y0213199D02*
X0159128Y0213199D01*
X0159128Y0214198D02*
X0159728Y0214198D01*
X0159728Y0215196D02*
X0159128Y0215196D01*
X0159128Y0210204D02*
X0159728Y0210204D01*
X0159728Y0209205D02*
X0159128Y0209205D01*
X0159128Y0208207D02*
X0159728Y0208207D01*
X0182782Y0194228D02*
X0193731Y0194228D01*
X0194730Y0193229D02*
X0183728Y0193229D01*
X0183728Y0192231D02*
X0195128Y0192231D01*
X0195128Y0191232D02*
X0183728Y0191232D01*
X0183728Y0190234D02*
X0195128Y0190234D01*
X0195612Y0189235D02*
X0184663Y0189235D01*
X0185662Y0188237D02*
X0196611Y0188237D01*
X0197609Y0187238D02*
X0186528Y0187238D01*
X0186528Y0186239D02*
X0201719Y0186239D01*
X0202718Y0185241D02*
X0186528Y0185241D01*
X0186528Y0184242D02*
X0203716Y0184242D01*
X0204715Y0183244D02*
X0186528Y0183244D01*
X0186528Y0182245D02*
X0205713Y0182245D01*
X0206712Y0181247D02*
X0186528Y0181247D01*
X0186528Y0180248D02*
X0207710Y0180248D01*
X0209656Y0184242D02*
X0216090Y0184242D01*
X0217088Y0185241D02*
X0208657Y0185241D01*
X0207659Y0186239D02*
X0237328Y0186239D01*
X0237328Y0185241D02*
X0231769Y0185241D01*
X0232767Y0184242D02*
X0237328Y0184242D01*
X0237328Y0183244D02*
X0233728Y0183244D01*
X0233728Y0182245D02*
X0237328Y0182245D01*
X0237328Y0181247D02*
X0233728Y0181247D01*
X0233728Y0180248D02*
X0237328Y0180248D01*
X0237328Y0179250D02*
X0233259Y0179250D01*
X0227328Y0177253D02*
X0221262Y0177253D01*
X0222261Y0178251D02*
X0226596Y0178251D01*
X0225597Y0179250D02*
X0223259Y0179250D01*
X0223728Y0180248D02*
X0225128Y0180248D01*
X0225128Y0181247D02*
X0223728Y0181247D01*
X0223728Y0182245D02*
X0225128Y0182245D01*
X0225128Y0183244D02*
X0223728Y0183244D01*
X0222767Y0184242D02*
X0226090Y0184242D01*
X0227088Y0185241D02*
X0221769Y0185241D01*
X0225612Y0189235D02*
X0204663Y0189235D01*
X0203728Y0190234D02*
X0225128Y0190234D01*
X0225128Y0191232D02*
X0203728Y0191232D01*
X0203728Y0192231D02*
X0225128Y0192231D01*
X0225128Y0193229D02*
X0203728Y0193229D01*
X0202782Y0194228D02*
X0226075Y0194228D01*
X0227073Y0195226D02*
X0201783Y0195226D01*
X0197674Y0196225D02*
X0227328Y0196225D01*
X0227328Y0197223D02*
X0196675Y0197223D01*
X0195677Y0198222D02*
X0227328Y0198222D01*
X0231528Y0196225D02*
X0231734Y0196225D01*
X0231783Y0195226D02*
X0232733Y0195226D01*
X0232782Y0194228D02*
X0233731Y0194228D01*
X0233728Y0193229D02*
X0234730Y0193229D01*
X0235728Y0192231D02*
X0233728Y0192231D01*
X0233728Y0191232D02*
X0236727Y0191232D01*
X0237328Y0190234D02*
X0233728Y0190234D01*
X0233245Y0189235D02*
X0237328Y0189235D01*
X0237328Y0188237D02*
X0232246Y0188237D01*
X0231248Y0187238D02*
X0237328Y0187238D01*
X0242928Y0187238D02*
X0259428Y0187238D01*
X0259428Y0188237D02*
X0242928Y0188237D01*
X0242928Y0189235D02*
X0259428Y0189235D01*
X0259428Y0190234D02*
X0242928Y0190234D01*
X0242928Y0191232D02*
X0259428Y0191232D01*
X0259428Y0192231D02*
X0242928Y0192231D01*
X0242649Y0193229D02*
X0259428Y0193229D01*
X0259428Y0194228D02*
X0241651Y0194228D01*
X0240652Y0195226D02*
X0259428Y0195226D01*
X0259428Y0196225D02*
X0239654Y0196225D01*
X0238655Y0197223D02*
X0259428Y0197223D01*
X0259428Y0198222D02*
X0237657Y0198222D01*
X0236658Y0199220D02*
X0259428Y0199220D01*
X0259428Y0200219D02*
X0235660Y0200219D01*
X0234661Y0201217D02*
X0259428Y0201217D01*
X0259428Y0202216D02*
X0233663Y0202216D01*
X0232928Y0203214D02*
X0259428Y0203214D01*
X0259428Y0204213D02*
X0232928Y0204213D01*
X0232928Y0205211D02*
X0259428Y0205211D01*
X0259428Y0206210D02*
X0232928Y0206210D01*
X0232928Y0207208D02*
X0259428Y0207208D01*
X0259428Y0208207D02*
X0232928Y0208207D01*
X0232928Y0209205D02*
X0259428Y0209205D01*
X0259428Y0210204D02*
X0236102Y0210204D01*
X0237101Y0211202D02*
X0259428Y0211202D01*
X0259428Y0212201D02*
X0238099Y0212201D01*
X0239098Y0213199D02*
X0259428Y0213199D01*
X0259428Y0214198D02*
X0240096Y0214198D01*
X0241095Y0215196D02*
X0259428Y0215196D01*
X0259428Y0216195D02*
X0241528Y0216195D01*
X0241528Y0217193D02*
X0259428Y0217193D01*
X0259428Y0218192D02*
X0241528Y0218192D01*
X0241528Y0219190D02*
X0259428Y0219190D01*
X0259428Y0220189D02*
X0241528Y0220189D01*
X0241528Y0221187D02*
X0259428Y0221187D01*
X0259428Y0222186D02*
X0241528Y0222186D01*
X0241528Y0223184D02*
X0259428Y0223184D01*
X0259428Y0224183D02*
X0241528Y0224183D01*
X0241528Y0225181D02*
X0259428Y0225181D01*
X0259428Y0226180D02*
X0241528Y0226180D01*
X0241528Y0227178D02*
X0259428Y0227178D01*
X0259428Y0228177D02*
X0241528Y0228177D01*
X0241528Y0229175D02*
X0259428Y0229175D01*
X0259428Y0230174D02*
X0241528Y0230174D01*
X0241528Y0231172D02*
X0259428Y0231172D01*
X0259428Y0232171D02*
X0241528Y0232171D01*
X0240729Y0233170D02*
X0259428Y0233170D01*
X0259428Y0234168D02*
X0239730Y0234168D01*
X0238732Y0235167D02*
X0259428Y0235167D01*
X0259428Y0236165D02*
X0237733Y0236165D01*
X0236735Y0237164D02*
X0259428Y0237164D01*
X0259428Y0238162D02*
X0235736Y0238162D01*
X0234738Y0239161D02*
X0259428Y0239161D01*
X0259428Y0240159D02*
X0233739Y0240159D01*
X0232741Y0241158D02*
X0259428Y0241158D01*
X0259428Y0242156D02*
X0231742Y0242156D01*
X0231528Y0243155D02*
X0259428Y0243155D01*
X0259428Y0244153D02*
X0231528Y0244153D01*
X0231528Y0245152D02*
X0259428Y0245152D01*
X0259428Y0246150D02*
X0231528Y0246150D01*
X0231528Y0247149D02*
X0259428Y0247149D01*
X0259428Y0248147D02*
X0231528Y0248147D01*
X0231528Y0249146D02*
X0259428Y0249146D01*
X0259428Y0250144D02*
X0231528Y0250144D01*
X0231528Y0251143D02*
X0259428Y0251143D01*
X0259428Y0252141D02*
X0231528Y0252141D01*
X0231528Y0253140D02*
X0259428Y0253140D01*
X0259428Y0254138D02*
X0231528Y0254138D01*
X0231528Y0255137D02*
X0259428Y0255137D01*
X0259428Y0256135D02*
X0231528Y0256135D01*
X0231528Y0257134D02*
X0259428Y0257134D01*
X0259428Y0258132D02*
X0232142Y0258132D01*
X0233140Y0259131D02*
X0259428Y0259131D01*
X0259428Y0260129D02*
X0233728Y0260129D01*
X0233728Y0261128D02*
X0259428Y0261128D01*
X0259428Y0262126D02*
X0233728Y0262126D01*
X0233728Y0263125D02*
X0259428Y0263125D01*
X0259428Y0264123D02*
X0232886Y0264123D01*
X0231888Y0265122D02*
X0259428Y0265122D01*
X0259428Y0266120D02*
X0227928Y0266120D01*
X0227928Y0267119D02*
X0259428Y0267119D01*
X0259428Y0268117D02*
X0232127Y0268117D01*
X0233125Y0269116D02*
X0259428Y0269116D01*
X0259428Y0270114D02*
X0233728Y0270114D01*
X0233728Y0271113D02*
X0259428Y0271113D01*
X0259428Y0272111D02*
X0233728Y0272111D01*
X0233728Y0273110D02*
X0259428Y0273110D01*
X0259428Y0274108D02*
X0232901Y0274108D01*
X0231903Y0275107D02*
X0259428Y0275107D01*
X0259428Y0276105D02*
X0202884Y0276105D01*
X0203883Y0275107D02*
X0226954Y0275107D01*
X0225956Y0274108D02*
X0204881Y0274108D01*
X0201885Y0277104D02*
X0259428Y0277104D01*
X0259428Y0278103D02*
X0200887Y0278103D01*
X0200220Y0278770D02*
X0200220Y0278770D01*
X0199888Y0279101D02*
X0259428Y0279101D01*
X0259428Y0280100D02*
X0049428Y0280100D01*
X0049428Y0281098D02*
X0259428Y0281098D01*
X0224821Y0241158D02*
X0051528Y0241158D01*
X0051528Y0242156D02*
X0223823Y0242156D01*
X0223728Y0243155D02*
X0051528Y0243155D01*
X0051528Y0244153D02*
X0223728Y0244153D01*
X0223728Y0245152D02*
X0051528Y0245152D01*
X0051528Y0246150D02*
X0223728Y0246150D01*
X0223728Y0247149D02*
X0051528Y0247149D01*
X0051528Y0248147D02*
X0146700Y0248147D01*
X0147647Y0247200D02*
X0145128Y0249719D01*
X0145128Y0253281D01*
X0147328Y0255481D01*
X0147328Y0265630D01*
X0145759Y0267200D01*
X0142647Y0267200D01*
X0140128Y0269719D01*
X0140128Y0273281D01*
X0142647Y0275800D01*
X0146210Y0275800D01*
X0148728Y0273281D01*
X0148728Y0270170D01*
X0151528Y0267370D01*
X0151528Y0255481D01*
X0153728Y0253281D01*
X0153728Y0249719D01*
X0151210Y0247200D01*
X0147647Y0247200D01*
X0145702Y0249146D02*
X0051528Y0249146D01*
X0051528Y0250144D02*
X0145128Y0250144D01*
X0145128Y0251143D02*
X0051528Y0251143D01*
X0051528Y0252141D02*
X0145128Y0252141D01*
X0145128Y0253140D02*
X0051528Y0253140D01*
X0051528Y0254138D02*
X0145986Y0254138D01*
X0146984Y0255137D02*
X0051528Y0255137D01*
X0051528Y0256135D02*
X0147328Y0256135D01*
X0147328Y0257134D02*
X0051528Y0257134D01*
X0051528Y0258132D02*
X0147328Y0258132D01*
X0147328Y0259131D02*
X0051528Y0259131D01*
X0051528Y0260129D02*
X0147328Y0260129D01*
X0147328Y0261128D02*
X0051528Y0261128D01*
X0051528Y0262126D02*
X0147328Y0262126D01*
X0147328Y0263125D02*
X0051528Y0263125D01*
X0051528Y0264123D02*
X0147328Y0264123D01*
X0147328Y0265122D02*
X0051528Y0265122D01*
X0051528Y0266120D02*
X0146838Y0266120D01*
X0145840Y0267119D02*
X0051528Y0267119D01*
X0051528Y0268117D02*
X0141730Y0268117D01*
X0140731Y0269116D02*
X0051528Y0269116D01*
X0051528Y0270114D02*
X0140128Y0270114D01*
X0140128Y0271113D02*
X0052011Y0271113D01*
X0053010Y0272111D02*
X0140128Y0272111D01*
X0140128Y0273110D02*
X0054008Y0273110D01*
X0055007Y0274108D02*
X0140956Y0274108D01*
X0141954Y0275107D02*
X0056005Y0275107D01*
X0053061Y0278103D02*
X0049428Y0278103D01*
X0049428Y0279101D02*
X0054060Y0279101D01*
X0052063Y0277104D02*
X0049428Y0277104D01*
X0049428Y0276105D02*
X0051064Y0276105D01*
X0050066Y0275107D02*
X0049428Y0275107D01*
X0051528Y0240159D02*
X0225820Y0240159D01*
X0226818Y0239161D02*
X0051528Y0239161D01*
X0051528Y0226180D02*
X0055445Y0226180D01*
X0053463Y0225181D02*
X0051528Y0225181D01*
X0051528Y0224183D02*
X0052465Y0224183D01*
X0052039Y0223184D02*
X0051528Y0223184D01*
X0051528Y0222186D02*
X0051728Y0222186D01*
X0051728Y0221187D02*
X0051528Y0221187D01*
X0051528Y0220189D02*
X0051884Y0220189D01*
X0051528Y0219190D02*
X0052298Y0219190D01*
X0051528Y0218192D02*
X0053090Y0218192D01*
X0058928Y0215196D02*
X0059928Y0215196D01*
X0059928Y0214198D02*
X0058928Y0214198D01*
X0058928Y0213199D02*
X0059928Y0213199D01*
X0059928Y0212201D02*
X0058928Y0212201D01*
X0058928Y0209205D02*
X0059928Y0209205D01*
X0059928Y0208207D02*
X0058928Y0208207D01*
X0058928Y0207208D02*
X0059928Y0207208D01*
X0055075Y0207208D02*
X0051528Y0207208D01*
X0051528Y0208207D02*
X0053358Y0208207D01*
X0052547Y0209205D02*
X0051528Y0209205D01*
X0051528Y0210204D02*
X0052118Y0210204D01*
X0146903Y0275107D02*
X0161954Y0275107D01*
X0160956Y0274108D02*
X0147901Y0274108D01*
X0148728Y0273110D02*
X0160128Y0273110D01*
X0160128Y0272111D02*
X0148728Y0272111D01*
X0148728Y0271113D02*
X0160128Y0271113D01*
X0160128Y0270114D02*
X0148784Y0270114D01*
X0149782Y0269116D02*
X0160731Y0269116D01*
X0161730Y0268117D02*
X0150781Y0268117D01*
X0151528Y0267119D02*
X0180840Y0267119D01*
X0181838Y0266120D02*
X0151528Y0266120D01*
X0151528Y0265122D02*
X0182328Y0265122D01*
X0182328Y0264123D02*
X0151528Y0264123D01*
X0151528Y0263125D02*
X0182328Y0263125D01*
X0182328Y0262126D02*
X0151528Y0262126D01*
X0151528Y0261128D02*
X0182328Y0261128D01*
X0182328Y0260129D02*
X0151528Y0260129D01*
X0151528Y0259131D02*
X0182328Y0259131D01*
X0182328Y0258132D02*
X0151528Y0258132D01*
X0151528Y0257134D02*
X0182328Y0257134D01*
X0182328Y0256135D02*
X0151528Y0256135D01*
X0151873Y0255137D02*
X0157267Y0255137D01*
X0157730Y0255600D02*
X0155328Y0253198D01*
X0155328Y0251800D01*
X0159128Y0251800D01*
X0159128Y0251200D01*
X0155328Y0251200D01*
X0155328Y0249802D01*
X0157730Y0247400D01*
X0159128Y0247400D01*
X0159128Y0251200D01*
X0159728Y0251200D01*
X0159728Y0247400D01*
X0161127Y0247400D01*
X0163528Y0249802D01*
X0163528Y0251200D01*
X0159729Y0251200D01*
X0159729Y0251800D01*
X0163528Y0251800D01*
X0163528Y0253198D01*
X0161127Y0255600D01*
X0159728Y0255600D01*
X0159728Y0251800D01*
X0159128Y0251800D01*
X0159128Y0255600D01*
X0157730Y0255600D01*
X0159128Y0255137D02*
X0159728Y0255137D01*
X0159728Y0254138D02*
X0159128Y0254138D01*
X0159128Y0253140D02*
X0159728Y0253140D01*
X0159728Y0252141D02*
X0159128Y0252141D01*
X0159128Y0251143D02*
X0159728Y0251143D01*
X0159728Y0250144D02*
X0159128Y0250144D01*
X0159128Y0249146D02*
X0159728Y0249146D01*
X0159728Y0248147D02*
X0159128Y0248147D01*
X0156983Y0248147D02*
X0152157Y0248147D01*
X0153155Y0249146D02*
X0155984Y0249146D01*
X0155328Y0250144D02*
X0153728Y0250144D01*
X0153728Y0251143D02*
X0155328Y0251143D01*
X0155328Y0252141D02*
X0153728Y0252141D01*
X0153728Y0253140D02*
X0155328Y0253140D01*
X0156268Y0254138D02*
X0152871Y0254138D01*
X0161590Y0255137D02*
X0181984Y0255137D01*
X0180986Y0254138D02*
X0162588Y0254138D01*
X0163528Y0253140D02*
X0180128Y0253140D01*
X0180128Y0252141D02*
X0163528Y0252141D01*
X0163528Y0251143D02*
X0180128Y0251143D01*
X0180128Y0250144D02*
X0163528Y0250144D01*
X0162872Y0249146D02*
X0180702Y0249146D01*
X0181700Y0248147D02*
X0161874Y0248147D01*
X0167127Y0268117D02*
X0176730Y0268117D01*
X0175731Y0269116D02*
X0168125Y0269116D01*
X0168728Y0270114D02*
X0175128Y0270114D01*
X0175128Y0271113D02*
X0168728Y0271113D01*
X0168728Y0272111D02*
X0175128Y0272111D01*
X0175128Y0273110D02*
X0168728Y0273110D01*
X0167901Y0274108D02*
X0175956Y0274108D01*
X0182901Y0274108D02*
X0193850Y0274108D01*
X0194849Y0273110D02*
X0183728Y0273110D01*
X0183728Y0272111D02*
X0195128Y0272111D01*
X0195128Y0271113D02*
X0183728Y0271113D01*
X0183784Y0270114D02*
X0195128Y0270114D01*
X0195731Y0269116D02*
X0184782Y0269116D01*
X0185781Y0268117D02*
X0196730Y0268117D01*
X0200840Y0267119D02*
X0186528Y0267119D01*
X0186528Y0266120D02*
X0201838Y0266120D01*
X0202837Y0265122D02*
X0186528Y0265122D01*
X0186528Y0264123D02*
X0203835Y0264123D01*
X0204834Y0263125D02*
X0186528Y0263125D01*
X0186528Y0262126D02*
X0205832Y0262126D01*
X0206831Y0261128D02*
X0186528Y0261128D01*
X0186528Y0260129D02*
X0207829Y0260129D01*
X0209775Y0264123D02*
X0215971Y0264123D01*
X0216969Y0265122D02*
X0208776Y0265122D01*
X0207778Y0266120D02*
X0223728Y0266120D01*
X0223728Y0265122D02*
X0221888Y0265122D01*
X0222886Y0264123D02*
X0223728Y0264123D01*
X0223728Y0263125D02*
X0223728Y0263125D01*
X0223728Y0262126D02*
X0223728Y0262126D01*
X0223728Y0261128D02*
X0223728Y0261128D01*
X0223728Y0260129D02*
X0223728Y0260129D01*
X0223728Y0259131D02*
X0223140Y0259131D01*
X0223728Y0258132D02*
X0222142Y0258132D01*
X0223728Y0257134D02*
X0186528Y0257134D01*
X0186528Y0258132D02*
X0216715Y0258132D01*
X0215717Y0259131D02*
X0186528Y0259131D01*
X0186528Y0256135D02*
X0223728Y0256135D01*
X0223728Y0255137D02*
X0196590Y0255137D01*
X0196127Y0255600D02*
X0194728Y0255600D01*
X0194728Y0251800D01*
X0194128Y0251800D01*
X0194128Y0251200D01*
X0190328Y0251200D01*
X0190328Y0249802D01*
X0192730Y0247400D01*
X0194128Y0247400D01*
X0194128Y0251200D01*
X0194728Y0251200D01*
X0194728Y0247400D01*
X0196127Y0247400D01*
X0198528Y0249802D01*
X0198528Y0251200D01*
X0194729Y0251200D01*
X0194729Y0251800D01*
X0198528Y0251800D01*
X0198528Y0253198D01*
X0196127Y0255600D01*
X0194728Y0255137D02*
X0194128Y0255137D01*
X0194128Y0255600D02*
X0192730Y0255600D01*
X0190328Y0253198D01*
X0190328Y0251800D01*
X0194128Y0251800D01*
X0194128Y0255600D01*
X0194128Y0254138D02*
X0194728Y0254138D01*
X0194728Y0253140D02*
X0194128Y0253140D01*
X0194128Y0252141D02*
X0194728Y0252141D01*
X0194728Y0251143D02*
X0194128Y0251143D01*
X0194128Y0250144D02*
X0194728Y0250144D01*
X0194728Y0249146D02*
X0194128Y0249146D01*
X0194128Y0248147D02*
X0194728Y0248147D01*
X0196874Y0248147D02*
X0223728Y0248147D01*
X0223728Y0249146D02*
X0197872Y0249146D01*
X0198528Y0250144D02*
X0223728Y0250144D01*
X0223728Y0251143D02*
X0198528Y0251143D01*
X0198528Y0252141D02*
X0223728Y0252141D01*
X0223728Y0253140D02*
X0198528Y0253140D01*
X0197588Y0254138D02*
X0223728Y0254138D01*
X0223728Y0267119D02*
X0206779Y0267119D01*
X0205781Y0268117D02*
X0223728Y0268117D01*
X0223728Y0269116D02*
X0204782Y0269116D01*
X0192267Y0255137D02*
X0186873Y0255137D01*
X0187871Y0254138D02*
X0191268Y0254138D01*
X0190328Y0253140D02*
X0188728Y0253140D01*
X0188728Y0252141D02*
X0190328Y0252141D01*
X0190328Y0251143D02*
X0188728Y0251143D01*
X0188728Y0250144D02*
X0190328Y0250144D01*
X0190984Y0249146D02*
X0188155Y0249146D01*
X0187157Y0248147D02*
X0191983Y0248147D01*
X0208717Y0225181D02*
X0217029Y0225181D01*
X0216030Y0224183D02*
X0209715Y0224183D01*
X0194728Y0215196D02*
X0194128Y0215196D01*
X0194128Y0214198D02*
X0194728Y0214198D01*
X0194728Y0213199D02*
X0194128Y0213199D01*
X0194128Y0212201D02*
X0194728Y0212201D01*
X0205662Y0188237D02*
X0226611Y0188237D01*
X0227609Y0187238D02*
X0206660Y0187238D01*
X0215597Y0179250D02*
X0186528Y0179250D01*
X0186528Y0178251D02*
X0216596Y0178251D01*
X0217594Y0177253D02*
X0186528Y0177253D01*
X0186528Y0176254D02*
X0227328Y0176254D01*
X0227328Y0175256D02*
X0196471Y0175256D01*
X0196127Y0175600D02*
X0194728Y0175600D01*
X0194728Y0171800D01*
X0194128Y0171800D01*
X0194128Y0171200D01*
X0190328Y0171200D01*
X0190328Y0169802D01*
X0192730Y0167400D01*
X0194128Y0167400D01*
X0194128Y0171200D01*
X0194728Y0171200D01*
X0194728Y0167400D01*
X0196127Y0167400D01*
X0198528Y0169802D01*
X0198528Y0171200D01*
X0194729Y0171200D01*
X0194729Y0171800D01*
X0198528Y0171800D01*
X0198528Y0173198D01*
X0196127Y0175600D01*
X0194728Y0175256D02*
X0194128Y0175256D01*
X0194128Y0175600D02*
X0192730Y0175600D01*
X0190328Y0173198D01*
X0190328Y0171800D01*
X0194128Y0171800D01*
X0194128Y0175600D01*
X0194128Y0174257D02*
X0194728Y0174257D01*
X0194728Y0173259D02*
X0194128Y0173259D01*
X0194128Y0172260D02*
X0194728Y0172260D01*
X0194729Y0171262D02*
X0227328Y0171262D01*
X0227328Y0172260D02*
X0198528Y0172260D01*
X0198468Y0173259D02*
X0227328Y0173259D01*
X0227328Y0174257D02*
X0197469Y0174257D01*
X0194128Y0171262D02*
X0188728Y0171262D01*
X0188728Y0172260D02*
X0190328Y0172260D01*
X0190389Y0173259D02*
X0188728Y0173259D01*
X0187752Y0174257D02*
X0191388Y0174257D01*
X0192386Y0175256D02*
X0186754Y0175256D01*
X0188728Y0170263D02*
X0190328Y0170263D01*
X0190865Y0169265D02*
X0188274Y0169265D01*
X0187276Y0168266D02*
X0191864Y0168266D01*
X0194128Y0168266D02*
X0194728Y0168266D01*
X0194728Y0169265D02*
X0194128Y0169265D01*
X0194128Y0170263D02*
X0194728Y0170263D01*
X0196993Y0168266D02*
X0227328Y0168266D01*
X0227328Y0167268D02*
X0186277Y0167268D01*
X0197992Y0169265D02*
X0227328Y0169265D01*
X0227328Y0170263D02*
X0198528Y0170263D01*
X0229192Y0136314D02*
X0259428Y0136314D01*
X0259428Y0137312D02*
X0230191Y0137312D01*
X0231189Y0138311D02*
X0259428Y0138311D01*
X0259428Y0139309D02*
X0232188Y0139309D01*
X0233186Y0140308D02*
X0259428Y0140308D01*
X0259428Y0141306D02*
X0234185Y0141306D01*
X0235183Y0142305D02*
X0259428Y0142305D01*
X0259428Y0143303D02*
X0236182Y0143303D01*
X0236528Y0144302D02*
X0259428Y0144302D01*
X0259428Y0145301D02*
X0236528Y0145301D01*
X0236528Y0146299D02*
X0259428Y0146299D01*
X0259428Y0147298D02*
X0236528Y0147298D01*
X0236528Y0148296D02*
X0259428Y0148296D01*
X0259428Y0149295D02*
X0236528Y0149295D01*
X0236528Y0150293D02*
X0259428Y0150293D01*
X0259428Y0151292D02*
X0236528Y0151292D01*
X0236528Y0152290D02*
X0259428Y0152290D01*
X0259428Y0153289D02*
X0236528Y0153289D01*
X0236528Y0154287D02*
X0259428Y0154287D01*
X0259428Y0155286D02*
X0236528Y0155286D01*
X0236528Y0156284D02*
X0259428Y0156284D01*
X0259428Y0157283D02*
X0236528Y0157283D01*
X0236528Y0158281D02*
X0259428Y0158281D01*
X0259428Y0159280D02*
X0236528Y0159280D01*
X0236528Y0160278D02*
X0259428Y0160278D01*
X0259428Y0161277D02*
X0236528Y0161277D01*
X0236528Y0162275D02*
X0259428Y0162275D01*
X0259428Y0163274D02*
X0236528Y0163274D01*
X0236528Y0164272D02*
X0259428Y0164272D01*
X0259428Y0165271D02*
X0236528Y0165271D01*
X0236528Y0166269D02*
X0259428Y0166269D01*
X0259428Y0167268D02*
X0236528Y0167268D01*
X0236528Y0168266D02*
X0259428Y0168266D01*
X0259428Y0169265D02*
X0236528Y0169265D01*
X0241162Y0170263D02*
X0259428Y0170263D01*
X0259428Y0171262D02*
X0242160Y0171262D01*
X0242928Y0172260D02*
X0259428Y0172260D01*
X0259428Y0173259D02*
X0242928Y0173259D01*
X0242928Y0174257D02*
X0259428Y0174257D01*
X0259428Y0175256D02*
X0242928Y0175256D01*
X0242928Y0176254D02*
X0259428Y0176254D01*
X0259428Y0177253D02*
X0242928Y0177253D01*
X0242928Y0178251D02*
X0259428Y0178251D01*
X0259428Y0179250D02*
X0242928Y0179250D01*
X0242928Y0180248D02*
X0259428Y0180248D01*
X0259428Y0181247D02*
X0242928Y0181247D01*
X0242928Y0182245D02*
X0259428Y0182245D01*
X0259428Y0183244D02*
X0242928Y0183244D01*
X0242928Y0184242D02*
X0259428Y0184242D01*
X0259428Y0185241D02*
X0242928Y0185241D01*
X0242928Y0186239D02*
X0259428Y0186239D01*
X0259428Y0135315D02*
X0228194Y0135315D01*
X0227195Y0134317D02*
X0259428Y0134317D01*
X0259428Y0133318D02*
X0226197Y0133318D01*
X0225198Y0132320D02*
X0259428Y0132320D01*
X0259428Y0131321D02*
X0224200Y0131321D01*
X0223201Y0130323D02*
X0259428Y0130323D01*
X0259428Y0129324D02*
X0222928Y0129324D01*
X0222928Y0128326D02*
X0259428Y0128326D01*
X0259428Y0127327D02*
X0222928Y0127327D01*
X0222928Y0126329D02*
X0259428Y0126329D01*
X0259428Y0125330D02*
X0222928Y0125330D01*
X0222928Y0124332D02*
X0259428Y0124332D01*
X0259428Y0123333D02*
X0222928Y0123333D01*
X0222928Y0122335D02*
X0259428Y0122335D01*
X0259428Y0121336D02*
X0222928Y0121336D01*
X0223561Y0120338D02*
X0259428Y0120338D01*
X0259428Y0119339D02*
X0225907Y0119339D01*
X0227098Y0118341D02*
X0259428Y0118341D01*
X0259428Y0117342D02*
X0227531Y0117342D01*
X0227617Y0116344D02*
X0259428Y0116344D01*
X0259428Y0115345D02*
X0227402Y0115345D01*
X0226785Y0114347D02*
X0259428Y0114347D01*
X0259428Y0113348D02*
X0225152Y0113348D01*
X0223704Y0113348D02*
X0221528Y0113348D01*
X0221528Y0112350D02*
X0259428Y0112350D01*
X0259428Y0111351D02*
X0221528Y0111351D01*
X0221528Y0110353D02*
X0259428Y0110353D01*
X0259428Y0109354D02*
X0221528Y0109354D01*
X0221528Y0108356D02*
X0259428Y0108356D01*
X0259428Y0107357D02*
X0221528Y0107357D01*
X0221528Y0106359D02*
X0259428Y0106359D01*
X0259428Y0105360D02*
X0221528Y0105360D01*
X0221528Y0104362D02*
X0259428Y0104362D01*
X0259428Y0103363D02*
X0221528Y0103363D01*
X0221528Y0102365D02*
X0259428Y0102365D01*
X0259428Y0101366D02*
X0221528Y0101366D01*
X0221266Y0100368D02*
X0259428Y0100368D01*
X0259428Y0099369D02*
X0218728Y0099369D01*
X0218728Y0098370D02*
X0259428Y0098370D01*
X0259428Y0097372D02*
X0218450Y0097372D01*
X0217983Y0096373D02*
X0259428Y0096373D01*
X0259428Y0095375D02*
X0216985Y0095375D01*
X0221528Y0114347D02*
X0222072Y0114347D01*
X0217328Y0125330D02*
X0216940Y0125330D01*
X0196528Y0094376D02*
X0259428Y0094376D01*
X0259428Y0093378D02*
X0196528Y0093378D01*
X0196528Y0092379D02*
X0259428Y0092379D01*
X0259428Y0091381D02*
X0196528Y0091381D01*
X0196281Y0090382D02*
X0259428Y0090382D01*
D11*
X0124428Y0046500D03*
X0124428Y0026500D03*
D12*
X0154428Y0098900D02*
X0154428Y0104100D01*
X0164428Y0104100D02*
X0164428Y0098900D01*
X0174428Y0098900D02*
X0174428Y0104100D01*
X0184428Y0104100D02*
X0184428Y0098900D01*
X0194428Y0098900D02*
X0194428Y0104100D01*
X0204428Y0104100D02*
X0204428Y0098900D01*
X0214428Y0098900D02*
X0214428Y0104100D01*
X0214428Y0128900D02*
X0214428Y0134100D01*
X0204428Y0134100D02*
X0204428Y0128900D01*
X0194428Y0128900D02*
X0194428Y0134100D01*
X0184428Y0134100D02*
X0184428Y0128900D01*
X0174428Y0128900D02*
X0174428Y0134100D01*
X0164428Y0134100D02*
X0164428Y0128900D01*
X0154428Y0128900D02*
X0154428Y0134100D01*
D13*
X0101633Y0045437D02*
X0101633Y0037563D01*
X0093365Y0022602D02*
X0085491Y0022602D01*
X0077617Y0037563D02*
X0077617Y0045437D01*
D14*
X0062428Y0201500D02*
X0056428Y0201500D01*
X0056428Y0211500D02*
X0062428Y0211500D01*
X0062428Y0221500D02*
X0056428Y0221500D01*
D15*
X0054428Y0176500D03*
X0054428Y0156500D03*
X0064428Y0156500D03*
X0074428Y0176500D03*
X0089428Y0161500D03*
X0099428Y0161500D03*
X0099428Y0171500D03*
X0144428Y0191500D03*
X0149428Y0171500D03*
X0159428Y0171500D03*
X0164428Y0191500D03*
X0179428Y0191500D03*
X0184428Y0171500D03*
X0194428Y0171500D03*
X0199428Y0191500D03*
X0194428Y0211500D03*
X0184428Y0211500D03*
X0179428Y0231500D03*
X0164428Y0231500D03*
X0159428Y0211500D03*
X0149428Y0211500D03*
X0144428Y0231500D03*
X0149428Y0251500D03*
X0159428Y0251500D03*
X0164428Y0271500D03*
X0179428Y0271500D03*
X0199428Y0271500D03*
X0194428Y0251500D03*
X0184428Y0251500D03*
X0199428Y0231500D03*
X0219428Y0221500D03*
X0229428Y0221500D03*
X0229428Y0231500D03*
X0229428Y0261500D03*
X0219428Y0261500D03*
X0229428Y0271500D03*
X0229428Y0191500D03*
X0229428Y0181500D03*
X0219428Y0181500D03*
X0144428Y0271500D03*
X0134428Y0106500D03*
X0134428Y0086500D03*
X0134428Y0076500D03*
X0144428Y0076500D03*
X0144428Y0056500D03*
X0134428Y0056500D03*
X0144428Y0036500D03*
X0144428Y0021500D03*
X0164428Y0021500D03*
X0164428Y0036500D03*
X0164428Y0056500D03*
X0164428Y0076500D03*
X0094428Y0081500D03*
X0084428Y0081500D03*
X0064428Y0081500D03*
X0054428Y0081500D03*
D16*
X0116128Y0106500D02*
X0122728Y0106500D01*
X0122728Y0116500D02*
X0116128Y0116500D01*
X0116128Y0126500D02*
X0122728Y0126500D01*
D17*
X0053928Y0116500D02*
X0053930Y0116661D01*
X0053936Y0116821D01*
X0053946Y0116982D01*
X0053960Y0117142D01*
X0053978Y0117302D01*
X0053999Y0117461D01*
X0054025Y0117620D01*
X0054055Y0117778D01*
X0054088Y0117935D01*
X0054126Y0118092D01*
X0054167Y0118247D01*
X0054212Y0118401D01*
X0054261Y0118554D01*
X0054314Y0118706D01*
X0054370Y0118857D01*
X0054431Y0119006D01*
X0054494Y0119154D01*
X0054562Y0119300D01*
X0054633Y0119444D01*
X0054707Y0119586D01*
X0054785Y0119727D01*
X0054867Y0119865D01*
X0054952Y0120002D01*
X0055040Y0120136D01*
X0055132Y0120268D01*
X0055227Y0120398D01*
X0055325Y0120526D01*
X0055426Y0120651D01*
X0055530Y0120773D01*
X0055637Y0120893D01*
X0055747Y0121010D01*
X0055860Y0121125D01*
X0055976Y0121236D01*
X0056095Y0121345D01*
X0056216Y0121450D01*
X0056340Y0121553D01*
X0056466Y0121653D01*
X0056594Y0121749D01*
X0056725Y0121842D01*
X0056859Y0121932D01*
X0056994Y0122019D01*
X0057132Y0122102D01*
X0057271Y0122182D01*
X0057413Y0122258D01*
X0057556Y0122331D01*
X0057701Y0122400D01*
X0057848Y0122466D01*
X0057996Y0122528D01*
X0058146Y0122586D01*
X0058297Y0122641D01*
X0058450Y0122692D01*
X0058604Y0122739D01*
X0058759Y0122782D01*
X0058915Y0122821D01*
X0059071Y0122857D01*
X0059229Y0122888D01*
X0059387Y0122916D01*
X0059546Y0122940D01*
X0059706Y0122960D01*
X0059866Y0122976D01*
X0060026Y0122988D01*
X0060187Y0122996D01*
X0060348Y0123000D01*
X0060508Y0123000D01*
X0060669Y0122996D01*
X0060830Y0122988D01*
X0060990Y0122976D01*
X0061150Y0122960D01*
X0061310Y0122940D01*
X0061469Y0122916D01*
X0061627Y0122888D01*
X0061785Y0122857D01*
X0061941Y0122821D01*
X0062097Y0122782D01*
X0062252Y0122739D01*
X0062406Y0122692D01*
X0062559Y0122641D01*
X0062710Y0122586D01*
X0062860Y0122528D01*
X0063008Y0122466D01*
X0063155Y0122400D01*
X0063300Y0122331D01*
X0063443Y0122258D01*
X0063585Y0122182D01*
X0063724Y0122102D01*
X0063862Y0122019D01*
X0063997Y0121932D01*
X0064131Y0121842D01*
X0064262Y0121749D01*
X0064390Y0121653D01*
X0064516Y0121553D01*
X0064640Y0121450D01*
X0064761Y0121345D01*
X0064880Y0121236D01*
X0064996Y0121125D01*
X0065109Y0121010D01*
X0065219Y0120893D01*
X0065326Y0120773D01*
X0065430Y0120651D01*
X0065531Y0120526D01*
X0065629Y0120398D01*
X0065724Y0120268D01*
X0065816Y0120136D01*
X0065904Y0120002D01*
X0065989Y0119865D01*
X0066071Y0119727D01*
X0066149Y0119586D01*
X0066223Y0119444D01*
X0066294Y0119300D01*
X0066362Y0119154D01*
X0066425Y0119006D01*
X0066486Y0118857D01*
X0066542Y0118706D01*
X0066595Y0118554D01*
X0066644Y0118401D01*
X0066689Y0118247D01*
X0066730Y0118092D01*
X0066768Y0117935D01*
X0066801Y0117778D01*
X0066831Y0117620D01*
X0066857Y0117461D01*
X0066878Y0117302D01*
X0066896Y0117142D01*
X0066910Y0116982D01*
X0066920Y0116821D01*
X0066926Y0116661D01*
X0066928Y0116500D01*
X0066926Y0116339D01*
X0066920Y0116179D01*
X0066910Y0116018D01*
X0066896Y0115858D01*
X0066878Y0115698D01*
X0066857Y0115539D01*
X0066831Y0115380D01*
X0066801Y0115222D01*
X0066768Y0115065D01*
X0066730Y0114908D01*
X0066689Y0114753D01*
X0066644Y0114599D01*
X0066595Y0114446D01*
X0066542Y0114294D01*
X0066486Y0114143D01*
X0066425Y0113994D01*
X0066362Y0113846D01*
X0066294Y0113700D01*
X0066223Y0113556D01*
X0066149Y0113414D01*
X0066071Y0113273D01*
X0065989Y0113135D01*
X0065904Y0112998D01*
X0065816Y0112864D01*
X0065724Y0112732D01*
X0065629Y0112602D01*
X0065531Y0112474D01*
X0065430Y0112349D01*
X0065326Y0112227D01*
X0065219Y0112107D01*
X0065109Y0111990D01*
X0064996Y0111875D01*
X0064880Y0111764D01*
X0064761Y0111655D01*
X0064640Y0111550D01*
X0064516Y0111447D01*
X0064390Y0111347D01*
X0064262Y0111251D01*
X0064131Y0111158D01*
X0063997Y0111068D01*
X0063862Y0110981D01*
X0063724Y0110898D01*
X0063585Y0110818D01*
X0063443Y0110742D01*
X0063300Y0110669D01*
X0063155Y0110600D01*
X0063008Y0110534D01*
X0062860Y0110472D01*
X0062710Y0110414D01*
X0062559Y0110359D01*
X0062406Y0110308D01*
X0062252Y0110261D01*
X0062097Y0110218D01*
X0061941Y0110179D01*
X0061785Y0110143D01*
X0061627Y0110112D01*
X0061469Y0110084D01*
X0061310Y0110060D01*
X0061150Y0110040D01*
X0060990Y0110024D01*
X0060830Y0110012D01*
X0060669Y0110004D01*
X0060508Y0110000D01*
X0060348Y0110000D01*
X0060187Y0110004D01*
X0060026Y0110012D01*
X0059866Y0110024D01*
X0059706Y0110040D01*
X0059546Y0110060D01*
X0059387Y0110084D01*
X0059229Y0110112D01*
X0059071Y0110143D01*
X0058915Y0110179D01*
X0058759Y0110218D01*
X0058604Y0110261D01*
X0058450Y0110308D01*
X0058297Y0110359D01*
X0058146Y0110414D01*
X0057996Y0110472D01*
X0057848Y0110534D01*
X0057701Y0110600D01*
X0057556Y0110669D01*
X0057413Y0110742D01*
X0057271Y0110818D01*
X0057132Y0110898D01*
X0056994Y0110981D01*
X0056859Y0111068D01*
X0056725Y0111158D01*
X0056594Y0111251D01*
X0056466Y0111347D01*
X0056340Y0111447D01*
X0056216Y0111550D01*
X0056095Y0111655D01*
X0055976Y0111764D01*
X0055860Y0111875D01*
X0055747Y0111990D01*
X0055637Y0112107D01*
X0055530Y0112227D01*
X0055426Y0112349D01*
X0055325Y0112474D01*
X0055227Y0112602D01*
X0055132Y0112732D01*
X0055040Y0112864D01*
X0054952Y0112998D01*
X0054867Y0113135D01*
X0054785Y0113273D01*
X0054707Y0113414D01*
X0054633Y0113556D01*
X0054562Y0113700D01*
X0054494Y0113846D01*
X0054431Y0113994D01*
X0054370Y0114143D01*
X0054314Y0114294D01*
X0054261Y0114446D01*
X0054212Y0114599D01*
X0054167Y0114753D01*
X0054126Y0114908D01*
X0054088Y0115065D01*
X0054055Y0115222D01*
X0054025Y0115380D01*
X0053999Y0115539D01*
X0053978Y0115698D01*
X0053960Y0115858D01*
X0053946Y0116018D01*
X0053936Y0116179D01*
X0053930Y0116339D01*
X0053928Y0116500D01*
D18*
X0054428Y0081500D02*
X0099428Y0126500D01*
X0119428Y0126500D01*
X0096928Y0149000D01*
X0095828Y0150100D01*
X0088028Y0157900D01*
X0082937Y0157900D01*
X0059428Y0181409D01*
X0059428Y0201500D01*
X0049428Y0201500D01*
X0049428Y0271500D01*
X0055828Y0277900D01*
X0198120Y0277900D01*
X0204520Y0271500D01*
X0224428Y0271500D01*
X0225828Y0270100D01*
X0225828Y0243120D01*
X0229428Y0239520D01*
X0229428Y0231500D01*
X0229428Y0226591D01*
X0225828Y0222991D01*
X0225828Y0203120D01*
X0229428Y0199520D01*
X0229428Y0191500D01*
X0229428Y0181500D02*
X0229428Y0146500D01*
X0214428Y0131500D01*
X0219428Y0131500D02*
X0219428Y0101500D01*
X0214428Y0101500D01*
X0204428Y0101500D02*
X0204428Y0111500D01*
X0194428Y0111500D01*
X0189428Y0111500D02*
X0189428Y0126500D01*
X0194428Y0131500D01*
X0204428Y0131500D02*
X0204428Y0111500D01*
X0194428Y0101500D02*
X0194428Y0091500D01*
X0174428Y0091500D01*
X0174428Y0076500D01*
X0164428Y0066500D01*
X0164428Y0056500D01*
X0154428Y0056500D01*
X0144428Y0046500D01*
X0144428Y0036500D01*
X0144428Y0056500D02*
X0144428Y0076500D01*
X0154428Y0076500D01*
X0174428Y0096500D01*
X0174428Y0101500D01*
X0173849Y0092900D02*
X0164428Y0083480D01*
X0164428Y0076500D01*
X0169428Y0066500D02*
X0179428Y0076500D01*
X0179428Y0086500D01*
X0175828Y0092900D02*
X0173849Y0092900D01*
X0175828Y0092900D02*
X0184428Y0101500D01*
X0184428Y0116500D01*
X0129428Y0116500D01*
X0129428Y0126500D01*
X0119428Y0126500D01*
X0119428Y0131500D02*
X0154428Y0131500D01*
X0151737Y0126500D02*
X0134428Y0126500D01*
X0134428Y0121500D01*
X0134428Y0111500D02*
X0119428Y0111500D01*
X0119428Y0106500D01*
X0099428Y0106500D01*
X0084428Y0091500D01*
X0084428Y0081500D01*
X0106633Y0046500D02*
X0101633Y0041500D01*
X0106633Y0046500D02*
X0124428Y0046500D01*
X0124428Y0101500D01*
X0129428Y0106500D01*
X0134428Y0106500D01*
X0124428Y0101500D02*
X0119428Y0106500D01*
X0134428Y0086500D02*
X0144428Y0096500D01*
X0144428Y0101500D01*
X0154428Y0101500D02*
X0154428Y0111500D01*
X0164428Y0111500D02*
X0164428Y0101500D01*
X0174428Y0121500D02*
X0144428Y0121500D01*
X0151737Y0126500D02*
X0152937Y0125300D01*
X0155920Y0125300D01*
X0162120Y0131500D01*
X0164428Y0131500D01*
X0174428Y0131500D02*
X0174428Y0121500D01*
X0153228Y0137700D02*
X0203228Y0137700D01*
X0204428Y0136500D01*
X0204428Y0131500D01*
X0219428Y0131500D02*
X0230828Y0142900D01*
X0230828Y0176500D01*
X0239428Y0176500D01*
X0239428Y0191500D01*
X0229428Y0201500D01*
X0229428Y0221500D01*
X0219428Y0221500D02*
X0209428Y0221500D01*
X0199428Y0231500D01*
X0194428Y0236500D01*
X0164428Y0236500D01*
X0164428Y0231500D01*
X0179428Y0231500D02*
X0184428Y0226500D01*
X0184428Y0211500D01*
X0194428Y0196500D02*
X0164428Y0196500D01*
X0164428Y0191500D01*
X0179428Y0191500D02*
X0184428Y0186500D01*
X0184428Y0171500D01*
X0199428Y0191500D02*
X0194428Y0196500D01*
X0199428Y0191500D02*
X0209428Y0181500D01*
X0219428Y0181500D01*
X0234428Y0171500D02*
X0234428Y0144520D01*
X0220828Y0130920D01*
X0220828Y0120100D01*
X0224428Y0116500D01*
X0234428Y0171500D02*
X0239428Y0171500D01*
X0240828Y0172900D01*
X0240828Y0192080D01*
X0230828Y0202080D01*
X0230828Y0211500D01*
X0234428Y0211500D01*
X0239428Y0216500D01*
X0239428Y0231500D01*
X0229428Y0241500D01*
X0229428Y0261500D01*
X0219428Y0261500D02*
X0209428Y0261500D01*
X0199428Y0271500D01*
X0194428Y0276500D01*
X0164428Y0276500D01*
X0164428Y0271500D01*
X0179428Y0271500D02*
X0184428Y0266500D01*
X0184428Y0251500D01*
X0149428Y0251500D02*
X0149428Y0266500D01*
X0144428Y0271500D01*
X0144428Y0231500D02*
X0149428Y0226500D01*
X0149428Y0211500D01*
X0144428Y0191500D02*
X0149428Y0186500D01*
X0149428Y0171500D01*
X0139428Y0191500D02*
X0139428Y0151500D01*
X0153228Y0137700D01*
X0119428Y0131500D02*
X0099428Y0151500D01*
X0099428Y0161500D01*
X0095828Y0162991D02*
X0099428Y0166591D01*
X0099428Y0171500D01*
X0095828Y0162991D02*
X0095828Y0150100D01*
X0089428Y0161500D02*
X0074428Y0176500D01*
X0054428Y0176500D02*
X0054428Y0156500D01*
X0059428Y0221500D02*
X0109428Y0221500D01*
X0139428Y0191500D01*
X0224428Y0271500D02*
X0229428Y0271500D01*
X0134428Y0086500D02*
X0134428Y0076500D01*
X0164428Y0046500D02*
X0169428Y0051500D01*
X0169428Y0066500D01*
X0164428Y0046500D02*
X0164428Y0036500D01*
X0164428Y0021500D01*
D19*
X0179428Y0086500D03*
X0189428Y0111500D03*
X0194428Y0111500D03*
X0184428Y0141500D03*
X0164428Y0111500D03*
X0154428Y0111500D03*
X0144428Y0101500D03*
X0134428Y0111500D03*
X0134428Y0121500D03*
X0144428Y0121500D03*
X0224428Y0116500D03*
M02*
