G75*
%MOIN*%
%OFA0B0*%
%FSLAX25Y25*%
%IPPOS*%
%LPD*%
%AMOC8*
5,1,8,0,0,1.08239X$1,22.5*
%
%ADD10OC8,0.05200*%
%ADD11C,0.05200*%
%ADD12C,0.06600*%
%ADD13C,0.07874*%
%ADD14C,0.06000*%
%ADD15OC8,0.06000*%
%ADD16C,0.02978*%
%ADD17C,0.01000*%
D10*
X0109428Y0046500D03*
X0109428Y0056500D03*
X0129428Y0056500D03*
X0149428Y0056500D03*
X0149428Y0036500D03*
X0119428Y0036500D03*
X0109428Y0076500D03*
X0129428Y0076500D03*
X0129428Y0096500D03*
X0129428Y0106500D03*
X0109428Y0106500D03*
X0109428Y0096500D03*
X0079428Y0091500D03*
X0079428Y0081500D03*
X0054428Y0076500D03*
X0054428Y0086500D03*
X0109428Y0126500D03*
X0129428Y0126500D03*
X0189428Y0116500D03*
X0209428Y0116500D03*
X0234428Y0101500D03*
X0254428Y0101500D03*
X0264428Y0101500D03*
X0284428Y0101500D03*
X0294428Y0101500D03*
X0314428Y0101500D03*
X0304428Y0116500D03*
X0304428Y0126500D03*
X0304428Y0136500D03*
X0304428Y0146500D03*
X0274428Y0146500D03*
X0274428Y0136500D03*
X0274428Y0126500D03*
X0274428Y0116500D03*
X0244428Y0116500D03*
X0244428Y0126500D03*
X0244428Y0136500D03*
X0244428Y0146500D03*
X0209428Y0096500D03*
X0189428Y0096500D03*
X0234428Y0081500D03*
X0254428Y0081500D03*
X0264428Y0081500D03*
X0284428Y0081500D03*
X0294428Y0081500D03*
X0314428Y0081500D03*
X0309428Y0066500D03*
X0309428Y0056500D03*
X0299428Y0056500D03*
X0279428Y0056500D03*
X0269428Y0056500D03*
X0279428Y0066500D03*
X0249428Y0066500D03*
X0249428Y0056500D03*
X0239428Y0056500D03*
X0339428Y0136500D03*
X0339428Y0156500D03*
X0184428Y0196500D03*
X0174428Y0196500D03*
X0159428Y0206500D03*
X0149428Y0206500D03*
X0164428Y0216500D03*
X0184428Y0216500D03*
D11*
X0177028Y0136500D02*
X0171828Y0136500D01*
X0171828Y0126500D02*
X0177028Y0126500D01*
X0177028Y0116500D02*
X0171828Y0116500D01*
X0171828Y0106500D02*
X0177028Y0106500D01*
X0177028Y0096500D02*
X0171828Y0096500D01*
X0171828Y0086500D02*
X0177028Y0086500D01*
X0177028Y0076500D02*
X0171828Y0076500D01*
X0147028Y0076500D02*
X0141828Y0076500D01*
X0141828Y0086500D02*
X0147028Y0086500D01*
X0147028Y0096500D02*
X0141828Y0096500D01*
X0141828Y0106500D02*
X0147028Y0106500D01*
X0147028Y0116500D02*
X0141828Y0116500D01*
X0141828Y0126500D02*
X0147028Y0126500D01*
X0147028Y0136500D02*
X0141828Y0136500D01*
D12*
X0074428Y0109800D02*
X0074428Y0103200D01*
X0064428Y0103200D02*
X0064428Y0109800D01*
X0054428Y0109800D02*
X0054428Y0103200D01*
X0131128Y0196500D02*
X0137728Y0196500D01*
X0137728Y0206500D02*
X0131128Y0206500D01*
X0131128Y0216500D02*
X0137728Y0216500D01*
D13*
X0078365Y0058705D02*
X0070491Y0058705D01*
X0093326Y0050437D02*
X0093326Y0042563D01*
X0078365Y0034689D02*
X0070491Y0034689D01*
D14*
X0169428Y0163500D02*
X0169428Y0169500D01*
X0179428Y0169500D02*
X0179428Y0163500D01*
X0189428Y0163500D02*
X0189428Y0169500D01*
D15*
X0329428Y0156500D03*
D16*
X0169428Y0101500D03*
X0159428Y0101500D03*
D17*
X0033928Y0006000D02*
X0033928Y0231961D01*
X0358629Y0231961D01*
X0358629Y0006000D01*
X0033928Y0006000D01*
X0033928Y0006493D02*
X0358629Y0006493D01*
X0358629Y0007491D02*
X0033928Y0007491D01*
X0033928Y0008490D02*
X0358629Y0008490D01*
X0358629Y0009488D02*
X0033928Y0009488D01*
X0033928Y0010487D02*
X0358629Y0010487D01*
X0358629Y0011485D02*
X0033928Y0011485D01*
X0033928Y0012484D02*
X0358629Y0012484D01*
X0358629Y0013482D02*
X0033928Y0013482D01*
X0033928Y0014481D02*
X0358629Y0014481D01*
X0358629Y0015479D02*
X0033928Y0015479D01*
X0033928Y0016478D02*
X0358629Y0016478D01*
X0358629Y0017476D02*
X0033928Y0017476D01*
X0033928Y0018475D02*
X0358629Y0018475D01*
X0358629Y0019473D02*
X0033928Y0019473D01*
X0033928Y0020472D02*
X0358629Y0020472D01*
X0358629Y0021470D02*
X0033928Y0021470D01*
X0033928Y0022469D02*
X0358629Y0022469D01*
X0358629Y0023467D02*
X0033928Y0023467D01*
X0033928Y0024466D02*
X0358629Y0024466D01*
X0358629Y0025464D02*
X0033928Y0025464D01*
X0033928Y0026463D02*
X0358629Y0026463D01*
X0358629Y0027461D02*
X0033928Y0027461D01*
X0033928Y0028460D02*
X0358629Y0028460D01*
X0358629Y0029458D02*
X0080468Y0029458D01*
X0079487Y0029052D02*
X0081559Y0029910D01*
X0083144Y0031496D01*
X0084002Y0033568D01*
X0084002Y0035810D01*
X0083144Y0037882D01*
X0081559Y0039468D01*
X0079487Y0040326D01*
X0069370Y0040326D01*
X0067298Y0039468D01*
X0065713Y0037882D01*
X0064854Y0035810D01*
X0064854Y0033568D01*
X0065713Y0031496D01*
X0067298Y0029910D01*
X0069370Y0029052D01*
X0079487Y0029052D01*
X0082105Y0030457D02*
X0358629Y0030457D01*
X0358629Y0031455D02*
X0083104Y0031455D01*
X0083541Y0032454D02*
X0117394Y0032454D01*
X0117647Y0032200D02*
X0121210Y0032200D01*
X0123728Y0034719D01*
X0123728Y0038281D01*
X0121210Y0040800D01*
X0117647Y0040800D01*
X0115128Y0038281D01*
X0115128Y0034719D01*
X0117647Y0032200D01*
X0116395Y0033452D02*
X0083955Y0033452D01*
X0084002Y0034451D02*
X0115396Y0034451D01*
X0115128Y0035449D02*
X0084002Y0035449D01*
X0083738Y0036448D02*
X0115128Y0036448D01*
X0115128Y0037446D02*
X0095704Y0037446D01*
X0096519Y0037784D02*
X0098105Y0039370D01*
X0098963Y0041442D01*
X0098963Y0051558D01*
X0098105Y0053630D01*
X0096519Y0055216D01*
X0094447Y0056074D01*
X0092205Y0056074D01*
X0090133Y0055216D01*
X0088547Y0053630D01*
X0087689Y0051558D01*
X0087689Y0041442D01*
X0088547Y0039370D01*
X0090133Y0037784D01*
X0092205Y0036926D01*
X0094447Y0036926D01*
X0096519Y0037784D01*
X0097180Y0038445D02*
X0115292Y0038445D01*
X0116291Y0039443D02*
X0098135Y0039443D01*
X0098549Y0040442D02*
X0117289Y0040442D01*
X0121568Y0040442D02*
X0147289Y0040442D01*
X0147647Y0040800D02*
X0145128Y0038281D01*
X0145128Y0034719D01*
X0147647Y0032200D01*
X0151210Y0032200D01*
X0153728Y0034719D01*
X0153728Y0038281D01*
X0151210Y0040800D01*
X0147647Y0040800D01*
X0146291Y0039443D02*
X0122566Y0039443D01*
X0123565Y0038445D02*
X0145292Y0038445D01*
X0145128Y0037446D02*
X0123728Y0037446D01*
X0123728Y0036448D02*
X0145128Y0036448D01*
X0145128Y0035449D02*
X0123728Y0035449D01*
X0123460Y0034451D02*
X0145396Y0034451D01*
X0146395Y0033452D02*
X0122462Y0033452D01*
X0121463Y0032454D02*
X0147394Y0032454D01*
X0151463Y0032454D02*
X0358629Y0032454D01*
X0358629Y0033452D02*
X0152462Y0033452D01*
X0153460Y0034451D02*
X0358629Y0034451D01*
X0358629Y0035449D02*
X0153728Y0035449D01*
X0153728Y0036448D02*
X0358629Y0036448D01*
X0358629Y0037446D02*
X0153728Y0037446D01*
X0153565Y0038445D02*
X0358629Y0038445D01*
X0358629Y0039443D02*
X0152566Y0039443D01*
X0151568Y0040442D02*
X0358629Y0040442D01*
X0358629Y0041440D02*
X0098963Y0041440D01*
X0098963Y0042439D02*
X0107408Y0042439D01*
X0107647Y0042200D02*
X0111210Y0042200D01*
X0113728Y0044719D01*
X0113728Y0048281D01*
X0111210Y0050800D01*
X0107647Y0050800D01*
X0105128Y0048281D01*
X0105128Y0044719D01*
X0107647Y0042200D01*
X0106410Y0043437D02*
X0098963Y0043437D01*
X0098963Y0044436D02*
X0105411Y0044436D01*
X0105128Y0045434D02*
X0098963Y0045434D01*
X0098963Y0046433D02*
X0105128Y0046433D01*
X0105128Y0047432D02*
X0098963Y0047432D01*
X0098963Y0048430D02*
X0105277Y0048430D01*
X0106276Y0049429D02*
X0098963Y0049429D01*
X0098963Y0050427D02*
X0107274Y0050427D01*
X0107647Y0052200D02*
X0111210Y0052200D01*
X0113728Y0054719D01*
X0113728Y0058281D01*
X0111210Y0060800D01*
X0107647Y0060800D01*
X0105128Y0058281D01*
X0105128Y0054719D01*
X0107647Y0052200D01*
X0107423Y0052424D02*
X0098604Y0052424D01*
X0098963Y0051426D02*
X0358629Y0051426D01*
X0358629Y0052424D02*
X0311434Y0052424D01*
X0311210Y0052200D02*
X0313728Y0054719D01*
X0313728Y0058281D01*
X0311210Y0060800D01*
X0307647Y0060800D01*
X0305128Y0058281D01*
X0305128Y0054719D01*
X0307647Y0052200D01*
X0311210Y0052200D01*
X0312432Y0053423D02*
X0358629Y0053423D01*
X0358629Y0054421D02*
X0313431Y0054421D01*
X0313728Y0055420D02*
X0358629Y0055420D01*
X0358629Y0056418D02*
X0313728Y0056418D01*
X0313728Y0057417D02*
X0358629Y0057417D01*
X0358629Y0058415D02*
X0313594Y0058415D01*
X0312596Y0059414D02*
X0358629Y0059414D01*
X0358629Y0060412D02*
X0311597Y0060412D01*
X0311127Y0062400D02*
X0309728Y0062400D01*
X0309728Y0066200D01*
X0309128Y0066200D01*
X0305328Y0066200D01*
X0305328Y0064802D01*
X0307730Y0062400D01*
X0309128Y0062400D01*
X0309128Y0066200D01*
X0309128Y0066800D01*
X0305328Y0066800D01*
X0305328Y0068198D01*
X0307730Y0070600D01*
X0309128Y0070600D01*
X0309128Y0066800D01*
X0309728Y0066800D01*
X0309728Y0070600D01*
X0311127Y0070600D01*
X0313528Y0068198D01*
X0313528Y0066800D01*
X0309729Y0066800D01*
X0309729Y0066200D01*
X0313528Y0066200D01*
X0313528Y0064802D01*
X0311127Y0062400D01*
X0311136Y0062409D02*
X0358629Y0062409D01*
X0358629Y0061411D02*
X0083346Y0061411D01*
X0083144Y0061898D02*
X0081559Y0063484D01*
X0079487Y0064342D01*
X0069370Y0064342D01*
X0067298Y0063484D01*
X0065713Y0061898D01*
X0064854Y0059826D01*
X0064854Y0057583D01*
X0065713Y0055512D01*
X0067298Y0053926D01*
X0069370Y0053068D01*
X0079487Y0053068D01*
X0081559Y0053926D01*
X0083144Y0055512D01*
X0084002Y0057583D01*
X0084002Y0059826D01*
X0083144Y0061898D01*
X0082633Y0062409D02*
X0247721Y0062409D01*
X0247730Y0062400D02*
X0249128Y0062400D01*
X0249128Y0066200D01*
X0245328Y0066200D01*
X0245328Y0064802D01*
X0247730Y0062400D01*
X0249128Y0062409D02*
X0249728Y0062409D01*
X0249728Y0062400D02*
X0251127Y0062400D01*
X0253528Y0064802D01*
X0253528Y0066200D01*
X0249729Y0066200D01*
X0249729Y0066800D01*
X0253528Y0066800D01*
X0253528Y0068198D01*
X0251127Y0070600D01*
X0249728Y0070600D01*
X0249728Y0066800D01*
X0249128Y0066800D01*
X0249128Y0066200D01*
X0249728Y0066200D01*
X0249728Y0062400D01*
X0249728Y0063408D02*
X0249128Y0063408D01*
X0249128Y0064406D02*
X0249728Y0064406D01*
X0249728Y0065405D02*
X0249128Y0065405D01*
X0249128Y0066403D02*
X0033928Y0066403D01*
X0033928Y0065405D02*
X0245328Y0065405D01*
X0245724Y0064406D02*
X0033928Y0064406D01*
X0033928Y0063408D02*
X0067223Y0063408D01*
X0066224Y0062409D02*
X0033928Y0062409D01*
X0033928Y0061411D02*
X0065511Y0061411D01*
X0065097Y0060412D02*
X0033928Y0060412D01*
X0033928Y0059414D02*
X0064854Y0059414D01*
X0064854Y0058415D02*
X0033928Y0058415D01*
X0033928Y0057417D02*
X0064924Y0057417D01*
X0065337Y0056418D02*
X0033928Y0056418D01*
X0033928Y0055420D02*
X0065805Y0055420D01*
X0066803Y0054421D02*
X0033928Y0054421D01*
X0033928Y0053423D02*
X0068513Y0053423D01*
X0080343Y0053423D02*
X0088461Y0053423D01*
X0088048Y0052424D02*
X0033928Y0052424D01*
X0033928Y0051426D02*
X0087689Y0051426D01*
X0087689Y0050427D02*
X0033928Y0050427D01*
X0033928Y0049429D02*
X0087689Y0049429D01*
X0087689Y0048430D02*
X0033928Y0048430D01*
X0033928Y0047432D02*
X0087689Y0047432D01*
X0087689Y0046433D02*
X0033928Y0046433D01*
X0033928Y0045434D02*
X0087689Y0045434D01*
X0087689Y0044436D02*
X0033928Y0044436D01*
X0033928Y0043437D02*
X0087689Y0043437D01*
X0087689Y0042439D02*
X0033928Y0042439D01*
X0033928Y0041440D02*
X0087690Y0041440D01*
X0088103Y0040442D02*
X0033928Y0040442D01*
X0033928Y0039443D02*
X0067274Y0039443D01*
X0066275Y0038445D02*
X0033928Y0038445D01*
X0033928Y0037446D02*
X0065532Y0037446D01*
X0065119Y0036448D02*
X0033928Y0036448D01*
X0033928Y0035449D02*
X0064854Y0035449D01*
X0064854Y0034451D02*
X0033928Y0034451D01*
X0033928Y0033452D02*
X0064902Y0033452D01*
X0065316Y0032454D02*
X0033928Y0032454D01*
X0033928Y0031455D02*
X0065753Y0031455D01*
X0066752Y0030457D02*
X0033928Y0030457D01*
X0033928Y0029458D02*
X0068389Y0029458D01*
X0081583Y0039443D02*
X0088517Y0039443D01*
X0089472Y0038445D02*
X0082581Y0038445D01*
X0083325Y0037446D02*
X0090948Y0037446D01*
X0111449Y0042439D02*
X0358629Y0042439D01*
X0358629Y0043437D02*
X0112447Y0043437D01*
X0113446Y0044436D02*
X0358629Y0044436D01*
X0358629Y0045434D02*
X0113728Y0045434D01*
X0113728Y0046433D02*
X0358629Y0046433D01*
X0358629Y0047432D02*
X0113728Y0047432D01*
X0113580Y0048430D02*
X0358629Y0048430D01*
X0358629Y0049429D02*
X0112581Y0049429D01*
X0111583Y0050427D02*
X0358629Y0050427D01*
X0358629Y0063408D02*
X0312134Y0063408D01*
X0313133Y0064406D02*
X0358629Y0064406D01*
X0358629Y0065405D02*
X0313528Y0065405D01*
X0313528Y0067402D02*
X0358629Y0067402D01*
X0358629Y0068400D02*
X0313326Y0068400D01*
X0312328Y0069399D02*
X0358629Y0069399D01*
X0358629Y0070397D02*
X0311329Y0070397D01*
X0309728Y0070397D02*
X0309128Y0070397D01*
X0309128Y0069399D02*
X0309728Y0069399D01*
X0309728Y0068400D02*
X0309128Y0068400D01*
X0309128Y0067402D02*
X0309728Y0067402D01*
X0309729Y0066403D02*
X0358629Y0066403D01*
X0358629Y0071396D02*
X0033928Y0071396D01*
X0033928Y0072394D02*
X0052453Y0072394D01*
X0052647Y0072200D02*
X0056210Y0072200D01*
X0058728Y0074719D01*
X0058728Y0078281D01*
X0056210Y0080800D01*
X0052647Y0080800D01*
X0050128Y0078281D01*
X0050128Y0074719D01*
X0052647Y0072200D01*
X0051455Y0073393D02*
X0033928Y0073393D01*
X0033928Y0074391D02*
X0050456Y0074391D01*
X0050128Y0075390D02*
X0033928Y0075390D01*
X0033928Y0076388D02*
X0050128Y0076388D01*
X0050128Y0077387D02*
X0033928Y0077387D01*
X0033928Y0078385D02*
X0050233Y0078385D01*
X0051231Y0079384D02*
X0033928Y0079384D01*
X0033928Y0080382D02*
X0052230Y0080382D01*
X0052647Y0082200D02*
X0056210Y0082200D01*
X0058728Y0084719D01*
X0058728Y0088281D01*
X0056210Y0090800D01*
X0052647Y0090800D01*
X0050128Y0088281D01*
X0050128Y0084719D01*
X0052647Y0082200D01*
X0052468Y0082379D02*
X0033928Y0082379D01*
X0033928Y0081381D02*
X0075128Y0081381D01*
X0075128Y0082379D02*
X0056389Y0082379D01*
X0057387Y0083378D02*
X0075225Y0083378D01*
X0075128Y0083281D02*
X0075128Y0079719D01*
X0077647Y0077200D01*
X0081210Y0077200D01*
X0083728Y0079719D01*
X0083728Y0083281D01*
X0081210Y0085800D01*
X0077647Y0085800D01*
X0075128Y0083281D01*
X0076224Y0084376D02*
X0058386Y0084376D01*
X0058728Y0085375D02*
X0077222Y0085375D01*
X0077730Y0087400D02*
X0075328Y0089802D01*
X0075328Y0091200D01*
X0079128Y0091200D01*
X0079128Y0091800D01*
X0075328Y0091800D01*
X0075328Y0093198D01*
X0077730Y0095600D01*
X0079128Y0095600D01*
X0079128Y0091800D01*
X0079728Y0091800D01*
X0079728Y0095600D01*
X0081127Y0095600D01*
X0083528Y0093198D01*
X0083528Y0091800D01*
X0079729Y0091800D01*
X0079729Y0091200D01*
X0083528Y0091200D01*
X0083528Y0089802D01*
X0081127Y0087400D01*
X0079728Y0087400D01*
X0079728Y0091200D01*
X0079128Y0091200D01*
X0079128Y0087400D01*
X0077730Y0087400D01*
X0076760Y0088370D02*
X0058639Y0088370D01*
X0058728Y0087372D02*
X0132228Y0087372D01*
X0132228Y0088370D02*
X0082097Y0088370D01*
X0083096Y0089369D02*
X0132228Y0089369D01*
X0132228Y0090368D02*
X0083528Y0090368D01*
X0083528Y0092365D02*
X0107483Y0092365D01*
X0107647Y0092200D02*
X0111210Y0092200D01*
X0113728Y0094719D01*
X0113728Y0098281D01*
X0111210Y0100800D01*
X0107647Y0100800D01*
X0105128Y0098281D01*
X0105128Y0094719D01*
X0107647Y0092200D01*
X0106484Y0093363D02*
X0083364Y0093363D01*
X0082365Y0094362D02*
X0105486Y0094362D01*
X0105128Y0095360D02*
X0081367Y0095360D01*
X0079728Y0095360D02*
X0079128Y0095360D01*
X0079128Y0094362D02*
X0079728Y0094362D01*
X0079728Y0093363D02*
X0079128Y0093363D01*
X0079128Y0092365D02*
X0079728Y0092365D01*
X0079729Y0091366D02*
X0132228Y0091366D01*
X0132228Y0092365D02*
X0131374Y0092365D01*
X0131210Y0092200D02*
X0132228Y0093219D01*
X0132228Y0079781D01*
X0131210Y0080800D01*
X0127647Y0080800D01*
X0125128Y0078281D01*
X0125128Y0074719D01*
X0127647Y0072200D01*
X0131210Y0072200D01*
X0133413Y0074404D01*
X0133517Y0074300D01*
X0138085Y0074300D01*
X0138183Y0074064D01*
X0139393Y0072855D01*
X0140973Y0072200D01*
X0147884Y0072200D01*
X0149464Y0072855D01*
X0150674Y0074064D01*
X0151328Y0075645D01*
X0151328Y0077355D01*
X0150674Y0078936D01*
X0149464Y0080145D01*
X0147884Y0080800D01*
X0140973Y0080800D01*
X0139393Y0080145D01*
X0138183Y0078936D01*
X0138085Y0078700D01*
X0136628Y0078700D01*
X0136628Y0191500D01*
X0138723Y0191500D01*
X0140561Y0192261D01*
X0141967Y0193668D01*
X0142728Y0195505D01*
X0142728Y0197495D01*
X0141967Y0199332D01*
X0140561Y0200739D01*
X0138723Y0201500D01*
X0130134Y0201500D01*
X0128296Y0200739D01*
X0126890Y0199332D01*
X0126128Y0197495D01*
X0126128Y0195505D01*
X0126890Y0193668D01*
X0128296Y0192261D01*
X0130134Y0191500D01*
X0132228Y0191500D01*
X0132228Y0129781D01*
X0131210Y0130800D01*
X0127647Y0130800D01*
X0125128Y0128281D01*
X0125128Y0124719D01*
X0127647Y0122200D01*
X0131210Y0122200D01*
X0132228Y0123219D01*
X0132228Y0109781D01*
X0131210Y0110800D01*
X0127647Y0110800D01*
X0125128Y0108281D01*
X0125128Y0104719D01*
X0127647Y0102200D01*
X0131210Y0102200D01*
X0132228Y0103219D01*
X0132228Y0099781D01*
X0131210Y0100800D01*
X0127647Y0100800D01*
X0125128Y0098281D01*
X0125128Y0094719D01*
X0127647Y0092200D01*
X0131210Y0092200D01*
X0127483Y0092365D02*
X0111374Y0092365D01*
X0112373Y0093363D02*
X0126484Y0093363D01*
X0125486Y0094362D02*
X0113371Y0094362D01*
X0113728Y0095360D02*
X0125128Y0095360D01*
X0125128Y0096359D02*
X0113728Y0096359D01*
X0113728Y0097357D02*
X0125128Y0097357D01*
X0125203Y0098356D02*
X0113654Y0098356D01*
X0112655Y0099354D02*
X0126201Y0099354D01*
X0127200Y0100353D02*
X0111657Y0100353D01*
X0111210Y0102200D02*
X0107647Y0102200D01*
X0105128Y0104719D01*
X0105128Y0108281D01*
X0107647Y0110800D01*
X0111210Y0110800D01*
X0113728Y0108281D01*
X0113728Y0104719D01*
X0111210Y0102200D01*
X0111359Y0102350D02*
X0127498Y0102350D01*
X0126499Y0103348D02*
X0112358Y0103348D01*
X0113356Y0104347D02*
X0125501Y0104347D01*
X0125128Y0105345D02*
X0113728Y0105345D01*
X0113728Y0106344D02*
X0125128Y0106344D01*
X0125128Y0107342D02*
X0113728Y0107342D01*
X0113669Y0108341D02*
X0125188Y0108341D01*
X0126187Y0109339D02*
X0112670Y0109339D01*
X0111672Y0110338D02*
X0127185Y0110338D01*
X0131672Y0110338D02*
X0132228Y0110338D01*
X0132228Y0111336D02*
X0078976Y0111336D01*
X0078877Y0111643D02*
X0078534Y0112316D01*
X0078090Y0112927D01*
X0077555Y0113461D01*
X0076944Y0113905D01*
X0076271Y0114248D01*
X0075552Y0114482D01*
X0074928Y0114581D01*
X0074928Y0107000D01*
X0073928Y0107000D01*
X0073928Y0106000D01*
X0069628Y0106000D01*
X0069628Y0102822D01*
X0069747Y0102076D01*
X0069980Y0101357D01*
X0070323Y0100684D01*
X0070767Y0100073D01*
X0071301Y0099539D01*
X0071913Y0099095D01*
X0072586Y0098752D01*
X0073304Y0098518D01*
X0073928Y0098419D01*
X0073928Y0106000D01*
X0074928Y0106000D01*
X0074928Y0098419D01*
X0075552Y0098518D01*
X0076271Y0098752D01*
X0076944Y0099095D01*
X0077555Y0099539D01*
X0078090Y0100073D01*
X0078534Y0100684D01*
X0078877Y0101357D01*
X0079110Y0102076D01*
X0079228Y0102822D01*
X0079228Y0106000D01*
X0074929Y0106000D01*
X0074929Y0107000D01*
X0079228Y0107000D01*
X0079228Y0110178D01*
X0079110Y0110924D01*
X0078877Y0111643D01*
X0078520Y0112335D02*
X0132228Y0112335D01*
X0132228Y0113333D02*
X0077683Y0113333D01*
X0076014Y0114332D02*
X0132228Y0114332D01*
X0132228Y0115330D02*
X0033928Y0115330D01*
X0033928Y0114332D02*
X0052304Y0114332D01*
X0051596Y0114039D02*
X0050190Y0112632D01*
X0049428Y0110795D01*
X0049428Y0102205D01*
X0050190Y0100368D01*
X0051596Y0098961D01*
X0053434Y0098200D01*
X0055423Y0098200D01*
X0057261Y0098961D01*
X0058667Y0100368D01*
X0059428Y0102205D01*
X0059428Y0110795D01*
X0058667Y0112632D01*
X0057261Y0114039D01*
X0055423Y0114800D01*
X0053434Y0114800D01*
X0051596Y0114039D01*
X0050891Y0113333D02*
X0033928Y0113333D01*
X0033928Y0112335D02*
X0050066Y0112335D01*
X0049653Y0111336D02*
X0033928Y0111336D01*
X0033928Y0110338D02*
X0049428Y0110338D01*
X0049428Y0109339D02*
X0033928Y0109339D01*
X0033928Y0108341D02*
X0049428Y0108341D01*
X0049428Y0107342D02*
X0033928Y0107342D01*
X0033928Y0106344D02*
X0049428Y0106344D01*
X0049428Y0105345D02*
X0033928Y0105345D01*
X0033928Y0104347D02*
X0049428Y0104347D01*
X0049428Y0103348D02*
X0033928Y0103348D01*
X0033928Y0102350D02*
X0049428Y0102350D01*
X0049782Y0101351D02*
X0033928Y0101351D01*
X0033928Y0100353D02*
X0050205Y0100353D01*
X0051203Y0099354D02*
X0033928Y0099354D01*
X0033928Y0098356D02*
X0053058Y0098356D01*
X0055799Y0098356D02*
X0063058Y0098356D01*
X0063434Y0098200D02*
X0065423Y0098200D01*
X0067261Y0098961D01*
X0068667Y0100368D01*
X0069428Y0102205D01*
X0069428Y0110795D01*
X0068667Y0112632D01*
X0067261Y0114039D01*
X0065423Y0114800D01*
X0063434Y0114800D01*
X0061596Y0114039D01*
X0060190Y0112632D01*
X0059428Y0110795D01*
X0059428Y0102205D01*
X0060190Y0100368D01*
X0061596Y0098961D01*
X0063434Y0098200D01*
X0065799Y0098356D02*
X0105203Y0098356D01*
X0105128Y0097357D02*
X0033928Y0097357D01*
X0033928Y0096359D02*
X0105128Y0096359D01*
X0106201Y0099354D02*
X0077301Y0099354D01*
X0078293Y0100353D02*
X0107200Y0100353D01*
X0107498Y0102350D02*
X0079154Y0102350D01*
X0079228Y0103348D02*
X0106499Y0103348D01*
X0105501Y0104347D02*
X0079228Y0104347D01*
X0079228Y0105345D02*
X0105128Y0105345D01*
X0105128Y0106344D02*
X0074929Y0106344D01*
X0074928Y0107342D02*
X0073928Y0107342D01*
X0073928Y0107000D02*
X0073928Y0114581D01*
X0073304Y0114482D01*
X0072586Y0114248D01*
X0071913Y0113905D01*
X0071301Y0113461D01*
X0070767Y0112927D01*
X0070323Y0112316D01*
X0069980Y0111643D01*
X0069747Y0110924D01*
X0069628Y0110178D01*
X0069628Y0107000D01*
X0073928Y0107000D01*
X0073928Y0106344D02*
X0069428Y0106344D01*
X0069428Y0107342D02*
X0069628Y0107342D01*
X0069628Y0108341D02*
X0069428Y0108341D01*
X0069428Y0109339D02*
X0069628Y0109339D01*
X0069654Y0110338D02*
X0069428Y0110338D01*
X0069204Y0111336D02*
X0069881Y0111336D01*
X0070337Y0112335D02*
X0068790Y0112335D01*
X0067966Y0113333D02*
X0071174Y0113333D01*
X0072843Y0114332D02*
X0066553Y0114332D01*
X0062304Y0114332D02*
X0056553Y0114332D01*
X0057966Y0113333D02*
X0060891Y0113333D01*
X0060066Y0112335D02*
X0058790Y0112335D01*
X0059204Y0111336D02*
X0059653Y0111336D01*
X0059428Y0110338D02*
X0059428Y0110338D01*
X0059428Y0109339D02*
X0059428Y0109339D01*
X0059428Y0108341D02*
X0059428Y0108341D01*
X0059428Y0107342D02*
X0059428Y0107342D01*
X0059428Y0106344D02*
X0059428Y0106344D01*
X0059428Y0105345D02*
X0059428Y0105345D01*
X0059428Y0104347D02*
X0059428Y0104347D01*
X0059428Y0103348D02*
X0059428Y0103348D01*
X0059428Y0102350D02*
X0059428Y0102350D01*
X0059075Y0101351D02*
X0059782Y0101351D01*
X0060205Y0100353D02*
X0058652Y0100353D01*
X0057654Y0099354D02*
X0061203Y0099354D01*
X0067654Y0099354D02*
X0071556Y0099354D01*
X0070564Y0100353D02*
X0068652Y0100353D01*
X0069075Y0101351D02*
X0069983Y0101351D01*
X0069703Y0102350D02*
X0069428Y0102350D01*
X0069428Y0103348D02*
X0069628Y0103348D01*
X0069628Y0104347D02*
X0069428Y0104347D01*
X0069428Y0105345D02*
X0069628Y0105345D01*
X0073928Y0105345D02*
X0074928Y0105345D01*
X0074928Y0104347D02*
X0073928Y0104347D01*
X0073928Y0103348D02*
X0074928Y0103348D01*
X0074928Y0102350D02*
X0073928Y0102350D01*
X0073928Y0101351D02*
X0074928Y0101351D01*
X0074928Y0100353D02*
X0073928Y0100353D01*
X0073928Y0099354D02*
X0074928Y0099354D01*
X0078874Y0101351D02*
X0132228Y0101351D01*
X0132228Y0100353D02*
X0131657Y0100353D01*
X0131359Y0102350D02*
X0132228Y0102350D01*
X0136628Y0102350D02*
X0156329Y0102350D01*
X0156239Y0102134D02*
X0156239Y0100866D01*
X0156725Y0099694D01*
X0157622Y0098797D01*
X0158794Y0098311D01*
X0160063Y0098311D01*
X0161235Y0098797D01*
X0161738Y0099300D01*
X0167119Y0099300D01*
X0167622Y0098797D01*
X0168052Y0098619D01*
X0167528Y0097355D01*
X0167528Y0095645D01*
X0168183Y0094064D01*
X0169393Y0092855D01*
X0170973Y0092200D01*
X0177884Y0092200D01*
X0179464Y0092855D01*
X0180674Y0094064D01*
X0181328Y0095645D01*
X0181328Y0097355D01*
X0180674Y0098936D01*
X0179464Y0100145D01*
X0177884Y0100800D01*
X0172590Y0100800D01*
X0172617Y0100866D01*
X0172617Y0102134D01*
X0172590Y0102200D01*
X0177884Y0102200D01*
X0179464Y0102855D01*
X0180674Y0104064D01*
X0181328Y0105645D01*
X0181328Y0107355D01*
X0180674Y0108936D01*
X0179464Y0110145D01*
X0177884Y0110800D01*
X0170973Y0110800D01*
X0169393Y0110145D01*
X0168183Y0108936D01*
X0167528Y0107355D01*
X0167528Y0105645D01*
X0168052Y0104381D01*
X0167622Y0104203D01*
X0167119Y0103700D01*
X0161738Y0103700D01*
X0161235Y0104203D01*
X0160063Y0104689D01*
X0158794Y0104689D01*
X0157622Y0104203D01*
X0156725Y0103306D01*
X0156239Y0102134D01*
X0156239Y0101351D02*
X0136628Y0101351D01*
X0136628Y0100353D02*
X0139893Y0100353D01*
X0139393Y0100145D02*
X0138183Y0098936D01*
X0137528Y0097355D01*
X0137528Y0095645D01*
X0138183Y0094064D01*
X0139393Y0092855D01*
X0140973Y0092200D01*
X0147884Y0092200D01*
X0149464Y0092855D01*
X0150674Y0094064D01*
X0151328Y0095645D01*
X0151328Y0097355D01*
X0150674Y0098936D01*
X0149464Y0100145D01*
X0147884Y0100800D01*
X0140973Y0100800D01*
X0139393Y0100145D01*
X0138601Y0099354D02*
X0136628Y0099354D01*
X0136628Y0098356D02*
X0137943Y0098356D01*
X0137529Y0097357D02*
X0136628Y0097357D01*
X0136628Y0096359D02*
X0137528Y0096359D01*
X0137646Y0095360D02*
X0136628Y0095360D01*
X0136628Y0094362D02*
X0138060Y0094362D01*
X0138884Y0093363D02*
X0136628Y0093363D01*
X0136628Y0092365D02*
X0140576Y0092365D01*
X0140973Y0090800D02*
X0139393Y0090145D01*
X0138183Y0088936D01*
X0137528Y0087355D01*
X0137528Y0085645D01*
X0138183Y0084064D01*
X0139393Y0082855D01*
X0140973Y0082200D01*
X0147884Y0082200D01*
X0149464Y0082855D01*
X0150674Y0084064D01*
X0151328Y0085645D01*
X0151328Y0087355D01*
X0150674Y0088936D01*
X0149464Y0090145D01*
X0147884Y0090800D01*
X0140973Y0090800D01*
X0139929Y0090368D02*
X0136628Y0090368D01*
X0136628Y0091366D02*
X0358629Y0091366D01*
X0358629Y0090368D02*
X0178928Y0090368D01*
X0179464Y0090145D02*
X0177884Y0090800D01*
X0170973Y0090800D01*
X0169393Y0090145D01*
X0168183Y0088936D01*
X0167528Y0087355D01*
X0167528Y0085645D01*
X0168183Y0084064D01*
X0169393Y0082855D01*
X0170973Y0082200D01*
X0177884Y0082200D01*
X0179464Y0082855D01*
X0180674Y0084064D01*
X0181328Y0085645D01*
X0181328Y0087355D01*
X0180674Y0088936D01*
X0179464Y0090145D01*
X0180241Y0089369D02*
X0358629Y0089369D01*
X0358629Y0088370D02*
X0180908Y0088370D01*
X0181322Y0087372D02*
X0358629Y0087372D01*
X0358629Y0086373D02*
X0181328Y0086373D01*
X0181217Y0085375D02*
X0232222Y0085375D01*
X0232647Y0085800D02*
X0230128Y0083281D01*
X0230128Y0079719D01*
X0232647Y0077200D01*
X0236210Y0077200D01*
X0238728Y0079719D01*
X0238728Y0083281D01*
X0236210Y0085800D01*
X0232647Y0085800D01*
X0231224Y0084376D02*
X0180803Y0084376D01*
X0179988Y0083378D02*
X0230225Y0083378D01*
X0230128Y0082379D02*
X0178317Y0082379D01*
X0177884Y0080800D02*
X0179464Y0080145D01*
X0180674Y0078936D01*
X0181328Y0077355D01*
X0181328Y0075645D01*
X0180674Y0074064D01*
X0179464Y0072855D01*
X0177884Y0072200D01*
X0170973Y0072200D01*
X0169393Y0072855D01*
X0168183Y0074064D01*
X0167528Y0075645D01*
X0167528Y0077355D01*
X0168183Y0078936D01*
X0169393Y0080145D01*
X0170973Y0080800D01*
X0177884Y0080800D01*
X0178892Y0080382D02*
X0230128Y0080382D01*
X0230128Y0081381D02*
X0136628Y0081381D01*
X0136628Y0082379D02*
X0140540Y0082379D01*
X0138869Y0083378D02*
X0136628Y0083378D01*
X0136628Y0084376D02*
X0138054Y0084376D01*
X0137640Y0085375D02*
X0136628Y0085375D01*
X0136628Y0086373D02*
X0137528Y0086373D01*
X0137535Y0087372D02*
X0136628Y0087372D01*
X0136628Y0088370D02*
X0137949Y0088370D01*
X0138616Y0089369D02*
X0136628Y0089369D01*
X0132228Y0086373D02*
X0058728Y0086373D01*
X0057641Y0089369D02*
X0075761Y0089369D01*
X0075328Y0090368D02*
X0056642Y0090368D01*
X0052215Y0090368D02*
X0033928Y0090368D01*
X0033928Y0091366D02*
X0079128Y0091366D01*
X0079128Y0090368D02*
X0079728Y0090368D01*
X0079728Y0089369D02*
X0079128Y0089369D01*
X0079128Y0088370D02*
X0079728Y0088370D01*
X0081635Y0085375D02*
X0132228Y0085375D01*
X0132228Y0084376D02*
X0082633Y0084376D01*
X0083632Y0083378D02*
X0132228Y0083378D01*
X0132228Y0082379D02*
X0083728Y0082379D01*
X0083728Y0081381D02*
X0132228Y0081381D01*
X0132228Y0080382D02*
X0131627Y0080382D01*
X0127230Y0080382D02*
X0111627Y0080382D01*
X0111210Y0080800D02*
X0107647Y0080800D01*
X0105128Y0078281D01*
X0105128Y0074719D01*
X0107647Y0072200D01*
X0111210Y0072200D01*
X0113728Y0074719D01*
X0113728Y0078281D01*
X0111210Y0080800D01*
X0112626Y0079384D02*
X0126231Y0079384D01*
X0125233Y0078385D02*
X0113624Y0078385D01*
X0113728Y0077387D02*
X0125128Y0077387D01*
X0125128Y0076388D02*
X0113728Y0076388D01*
X0113728Y0075390D02*
X0125128Y0075390D01*
X0125456Y0074391D02*
X0113401Y0074391D01*
X0112402Y0073393D02*
X0126455Y0073393D01*
X0127453Y0072394D02*
X0111404Y0072394D01*
X0107453Y0072394D02*
X0056404Y0072394D01*
X0057402Y0073393D02*
X0106455Y0073393D01*
X0105456Y0074391D02*
X0058401Y0074391D01*
X0058728Y0075390D02*
X0105128Y0075390D01*
X0105128Y0076388D02*
X0058728Y0076388D01*
X0058728Y0077387D02*
X0077460Y0077387D01*
X0076462Y0078385D02*
X0058624Y0078385D01*
X0057626Y0079384D02*
X0075463Y0079384D01*
X0075128Y0080382D02*
X0056627Y0080382D01*
X0051469Y0083378D02*
X0033928Y0083378D01*
X0033928Y0084376D02*
X0050471Y0084376D01*
X0050128Y0085375D02*
X0033928Y0085375D01*
X0033928Y0086373D02*
X0050128Y0086373D01*
X0050128Y0087372D02*
X0033928Y0087372D01*
X0033928Y0088370D02*
X0050218Y0088370D01*
X0051216Y0089369D02*
X0033928Y0089369D01*
X0033928Y0092365D02*
X0075328Y0092365D01*
X0075493Y0093363D02*
X0033928Y0093363D01*
X0033928Y0094362D02*
X0076492Y0094362D01*
X0077490Y0095360D02*
X0033928Y0095360D01*
X0033928Y0116329D02*
X0132228Y0116329D01*
X0132228Y0117327D02*
X0033928Y0117327D01*
X0033928Y0118326D02*
X0132228Y0118326D01*
X0132228Y0119324D02*
X0033928Y0119324D01*
X0033928Y0120323D02*
X0132228Y0120323D01*
X0132228Y0121321D02*
X0033928Y0121321D01*
X0033928Y0122320D02*
X0127527Y0122320D01*
X0126529Y0123318D02*
X0112045Y0123318D01*
X0111127Y0122400D02*
X0113528Y0124802D01*
X0113528Y0126200D01*
X0109729Y0126200D01*
X0109729Y0126800D01*
X0113528Y0126800D01*
X0113528Y0128198D01*
X0111127Y0130600D01*
X0109728Y0130600D01*
X0109728Y0126800D01*
X0109128Y0126800D01*
X0109128Y0126200D01*
X0105328Y0126200D01*
X0105328Y0124802D01*
X0107730Y0122400D01*
X0109128Y0122400D01*
X0109128Y0126200D01*
X0109728Y0126200D01*
X0109728Y0122400D01*
X0111127Y0122400D01*
X0109728Y0123318D02*
X0109128Y0123318D01*
X0109128Y0124317D02*
X0109728Y0124317D01*
X0109728Y0125315D02*
X0109128Y0125315D01*
X0109128Y0126314D02*
X0033928Y0126314D01*
X0033928Y0127312D02*
X0105328Y0127312D01*
X0105328Y0126800D02*
X0109128Y0126800D01*
X0109128Y0130600D01*
X0107730Y0130600D01*
X0105328Y0128198D01*
X0105328Y0126800D01*
X0105328Y0125315D02*
X0033928Y0125315D01*
X0033928Y0124317D02*
X0105813Y0124317D01*
X0106812Y0123318D02*
X0033928Y0123318D01*
X0033928Y0128311D02*
X0105441Y0128311D01*
X0106440Y0129309D02*
X0033928Y0129309D01*
X0033928Y0130308D02*
X0107438Y0130308D01*
X0109128Y0130308D02*
X0109728Y0130308D01*
X0109728Y0129309D02*
X0109128Y0129309D01*
X0109128Y0128311D02*
X0109728Y0128311D01*
X0109728Y0127312D02*
X0109128Y0127312D01*
X0109729Y0126314D02*
X0125128Y0126314D01*
X0125128Y0127312D02*
X0113528Y0127312D01*
X0113416Y0128311D02*
X0125158Y0128311D01*
X0126157Y0129309D02*
X0112417Y0129309D01*
X0111419Y0130308D02*
X0127155Y0130308D01*
X0131702Y0130308D02*
X0132228Y0130308D01*
X0132228Y0131306D02*
X0033928Y0131306D01*
X0033928Y0132305D02*
X0132228Y0132305D01*
X0132228Y0133303D02*
X0033928Y0133303D01*
X0033928Y0134302D02*
X0132228Y0134302D01*
X0132228Y0135301D02*
X0033928Y0135301D01*
X0033928Y0136299D02*
X0132228Y0136299D01*
X0132228Y0137298D02*
X0033928Y0137298D01*
X0033928Y0138296D02*
X0132228Y0138296D01*
X0132228Y0139295D02*
X0033928Y0139295D01*
X0033928Y0140293D02*
X0132228Y0140293D01*
X0132228Y0141292D02*
X0033928Y0141292D01*
X0033928Y0142290D02*
X0132228Y0142290D01*
X0132228Y0143289D02*
X0033928Y0143289D01*
X0033928Y0144287D02*
X0132228Y0144287D01*
X0132228Y0145286D02*
X0033928Y0145286D01*
X0033928Y0146284D02*
X0132228Y0146284D01*
X0132228Y0147283D02*
X0033928Y0147283D01*
X0033928Y0148281D02*
X0132228Y0148281D01*
X0132228Y0149280D02*
X0033928Y0149280D01*
X0033928Y0150278D02*
X0132228Y0150278D01*
X0132228Y0151277D02*
X0033928Y0151277D01*
X0033928Y0152275D02*
X0132228Y0152275D01*
X0132228Y0153274D02*
X0033928Y0153274D01*
X0033928Y0154272D02*
X0061126Y0154272D01*
X0059912Y0154597D02*
X0062888Y0153800D01*
X0065969Y0153800D01*
X0068945Y0154597D01*
X0071612Y0156138D01*
X0073791Y0158316D01*
X0075331Y0160984D01*
X0076128Y0163960D01*
X0076128Y0167040D01*
X0075331Y0170016D01*
X0073791Y0172684D01*
X0071612Y0174862D01*
X0068945Y0176403D01*
X0065969Y0177200D01*
X0062888Y0177200D01*
X0059912Y0176403D01*
X0057245Y0174862D01*
X0055066Y0172684D01*
X0053526Y0170016D01*
X0052728Y0167040D01*
X0052728Y0163960D01*
X0053526Y0160984D01*
X0055066Y0158316D01*
X0057245Y0156138D01*
X0059912Y0154597D01*
X0058746Y0155271D02*
X0033928Y0155271D01*
X0033928Y0156269D02*
X0057113Y0156269D01*
X0056114Y0157268D02*
X0033928Y0157268D01*
X0033928Y0158266D02*
X0055116Y0158266D01*
X0054518Y0159265D02*
X0033928Y0159265D01*
X0033928Y0160263D02*
X0053942Y0160263D01*
X0053451Y0161262D02*
X0033928Y0161262D01*
X0033928Y0162260D02*
X0053184Y0162260D01*
X0052916Y0163259D02*
X0033928Y0163259D01*
X0033928Y0164257D02*
X0052728Y0164257D01*
X0052728Y0165256D02*
X0033928Y0165256D01*
X0033928Y0166254D02*
X0052728Y0166254D01*
X0052785Y0167253D02*
X0033928Y0167253D01*
X0033928Y0168251D02*
X0053053Y0168251D01*
X0053321Y0169250D02*
X0033928Y0169250D01*
X0033928Y0170248D02*
X0053660Y0170248D01*
X0054236Y0171247D02*
X0033928Y0171247D01*
X0033928Y0172245D02*
X0054813Y0172245D01*
X0055626Y0173244D02*
X0033928Y0173244D01*
X0033928Y0174242D02*
X0056625Y0174242D01*
X0057900Y0175241D02*
X0033928Y0175241D01*
X0033928Y0176239D02*
X0059630Y0176239D01*
X0069227Y0176239D02*
X0132228Y0176239D01*
X0132228Y0175241D02*
X0070957Y0175241D01*
X0072232Y0174242D02*
X0132228Y0174242D01*
X0132228Y0173244D02*
X0073231Y0173244D01*
X0074044Y0172245D02*
X0132228Y0172245D01*
X0132228Y0171247D02*
X0074620Y0171247D01*
X0075197Y0170248D02*
X0132228Y0170248D01*
X0132228Y0169250D02*
X0075536Y0169250D01*
X0075804Y0168251D02*
X0132228Y0168251D01*
X0132228Y0167253D02*
X0076072Y0167253D01*
X0076128Y0166254D02*
X0132228Y0166254D01*
X0132228Y0165256D02*
X0076128Y0165256D01*
X0076128Y0164257D02*
X0132228Y0164257D01*
X0132228Y0163259D02*
X0075941Y0163259D01*
X0075673Y0162260D02*
X0132228Y0162260D01*
X0132228Y0161262D02*
X0075406Y0161262D01*
X0074915Y0160263D02*
X0132228Y0160263D01*
X0132228Y0159265D02*
X0074339Y0159265D01*
X0073741Y0158266D02*
X0132228Y0158266D01*
X0132228Y0157268D02*
X0072743Y0157268D01*
X0071744Y0156269D02*
X0132228Y0156269D01*
X0132228Y0155271D02*
X0070111Y0155271D01*
X0067731Y0154272D02*
X0132228Y0154272D01*
X0136628Y0154272D02*
X0325009Y0154272D01*
X0324728Y0154553D02*
X0327482Y0151800D01*
X0331375Y0151800D01*
X0334128Y0154553D01*
X0334128Y0158447D01*
X0331375Y0161200D01*
X0327482Y0161200D01*
X0324728Y0158447D01*
X0324728Y0154553D01*
X0324728Y0155271D02*
X0136628Y0155271D01*
X0136628Y0156269D02*
X0324728Y0156269D01*
X0324728Y0157268D02*
X0136628Y0157268D01*
X0136628Y0158266D02*
X0324728Y0158266D01*
X0325546Y0159265D02*
X0190956Y0159265D01*
X0191156Y0159330D02*
X0191787Y0159651D01*
X0192360Y0160068D01*
X0192861Y0160568D01*
X0193277Y0161141D01*
X0193599Y0161773D01*
X0193818Y0162446D01*
X0193928Y0163146D01*
X0193928Y0166000D01*
X0189929Y0166000D01*
X0189929Y0167000D01*
X0193928Y0167000D01*
X0193928Y0169854D01*
X0193818Y0170554D01*
X0193599Y0171227D01*
X0193277Y0171859D01*
X0192861Y0172432D01*
X0192360Y0172932D01*
X0191787Y0173349D01*
X0191156Y0173670D01*
X0190482Y0173889D01*
X0189928Y0173977D01*
X0189928Y0167000D01*
X0188928Y0167000D01*
X0188928Y0166000D01*
X0184928Y0166000D01*
X0184928Y0163146D01*
X0185039Y0162446D01*
X0185258Y0161773D01*
X0185580Y0161141D01*
X0185996Y0160568D01*
X0186497Y0160068D01*
X0187070Y0159651D01*
X0187701Y0159330D01*
X0188375Y0159111D01*
X0188928Y0159023D01*
X0188928Y0166000D01*
X0189928Y0166000D01*
X0189928Y0159023D01*
X0190482Y0159111D01*
X0191156Y0159330D01*
X0189928Y0159265D02*
X0188928Y0159265D01*
X0188928Y0160263D02*
X0189928Y0160263D01*
X0189928Y0161262D02*
X0188928Y0161262D01*
X0188928Y0162260D02*
X0189928Y0162260D01*
X0189928Y0163259D02*
X0188928Y0163259D01*
X0188928Y0164257D02*
X0189928Y0164257D01*
X0189928Y0165256D02*
X0188928Y0165256D01*
X0188928Y0166254D02*
X0184128Y0166254D01*
X0184128Y0165256D02*
X0184928Y0165256D01*
X0184928Y0164257D02*
X0184128Y0164257D01*
X0184128Y0163259D02*
X0184928Y0163259D01*
X0185100Y0162260D02*
X0184002Y0162260D01*
X0184128Y0162565D02*
X0183413Y0160838D01*
X0182091Y0159516D01*
X0180363Y0158800D01*
X0178494Y0158800D01*
X0176766Y0159516D01*
X0175444Y0160838D01*
X0174728Y0162565D01*
X0174728Y0170435D01*
X0175444Y0172162D01*
X0176766Y0173484D01*
X0178494Y0174200D01*
X0180363Y0174200D01*
X0182091Y0173484D01*
X0183413Y0172162D01*
X0184128Y0170435D01*
X0184128Y0162565D01*
X0183589Y0161262D02*
X0185518Y0161262D01*
X0186301Y0160263D02*
X0182839Y0160263D01*
X0181485Y0159265D02*
X0187901Y0159265D01*
X0192556Y0160263D02*
X0326545Y0160263D01*
X0332312Y0160263D02*
X0337111Y0160263D01*
X0337647Y0160800D02*
X0335128Y0158281D01*
X0335128Y0154719D01*
X0337647Y0152200D01*
X0341210Y0152200D01*
X0343728Y0154719D01*
X0343728Y0158281D01*
X0341210Y0160800D01*
X0337647Y0160800D01*
X0336112Y0159265D02*
X0333310Y0159265D01*
X0334128Y0158266D02*
X0335128Y0158266D01*
X0335128Y0157268D02*
X0334128Y0157268D01*
X0334128Y0156269D02*
X0335128Y0156269D01*
X0335128Y0155271D02*
X0334128Y0155271D01*
X0333847Y0154272D02*
X0335575Y0154272D01*
X0336574Y0153274D02*
X0332849Y0153274D01*
X0331850Y0152275D02*
X0337572Y0152275D01*
X0341285Y0152275D02*
X0358629Y0152275D01*
X0358629Y0151277D02*
X0136628Y0151277D01*
X0136628Y0152275D02*
X0327006Y0152275D01*
X0326008Y0153274D02*
X0136628Y0153274D01*
X0136628Y0150278D02*
X0242126Y0150278D01*
X0242647Y0150800D02*
X0240128Y0148281D01*
X0240128Y0144719D01*
X0242647Y0142200D01*
X0246210Y0142200D01*
X0248728Y0144719D01*
X0248728Y0148281D01*
X0270129Y0148281D01*
X0270128Y0148281D02*
X0270128Y0144719D01*
X0272647Y0142200D01*
X0276210Y0142200D01*
X0278728Y0144719D01*
X0278728Y0148281D01*
X0300129Y0148281D01*
X0300128Y0148281D02*
X0300128Y0144719D01*
X0302647Y0142200D01*
X0306210Y0142200D01*
X0308728Y0144719D01*
X0308728Y0148281D01*
X0358629Y0148281D01*
X0358629Y0147283D02*
X0308728Y0147283D01*
X0308728Y0148281D02*
X0306210Y0150800D01*
X0302647Y0150800D01*
X0300128Y0148281D01*
X0300128Y0147283D02*
X0278728Y0147283D01*
X0278728Y0148281D02*
X0276210Y0150800D01*
X0272647Y0150800D01*
X0270128Y0148281D01*
X0270128Y0147283D02*
X0248728Y0147283D01*
X0248728Y0148281D02*
X0246210Y0150800D01*
X0242647Y0150800D01*
X0241127Y0149280D02*
X0136628Y0149280D01*
X0136628Y0148281D02*
X0240129Y0148281D01*
X0240128Y0147283D02*
X0136628Y0147283D01*
X0136628Y0146284D02*
X0240128Y0146284D01*
X0240128Y0145286D02*
X0136628Y0145286D01*
X0136628Y0144287D02*
X0240560Y0144287D01*
X0241559Y0143289D02*
X0136628Y0143289D01*
X0136628Y0142290D02*
X0242557Y0142290D01*
X0242647Y0140800D02*
X0240128Y0138281D01*
X0240128Y0134719D01*
X0242647Y0132200D01*
X0246210Y0132200D01*
X0248728Y0134719D01*
X0248728Y0138281D01*
X0246210Y0140800D01*
X0242647Y0140800D01*
X0242140Y0140293D02*
X0179108Y0140293D01*
X0179464Y0140145D02*
X0177884Y0140800D01*
X0170973Y0140800D01*
X0169393Y0140145D01*
X0168183Y0138936D01*
X0167528Y0137355D01*
X0167528Y0135645D01*
X0168183Y0134064D01*
X0169393Y0132855D01*
X0170973Y0132200D01*
X0177884Y0132200D01*
X0179464Y0132855D01*
X0180674Y0134064D01*
X0181328Y0135645D01*
X0181328Y0137355D01*
X0180674Y0138936D01*
X0179464Y0140145D01*
X0180315Y0139295D02*
X0241142Y0139295D01*
X0240143Y0138296D02*
X0180939Y0138296D01*
X0181328Y0137298D02*
X0240128Y0137298D01*
X0240128Y0136299D02*
X0181328Y0136299D01*
X0181186Y0135301D02*
X0240128Y0135301D01*
X0240545Y0134302D02*
X0180772Y0134302D01*
X0179913Y0133303D02*
X0241544Y0133303D01*
X0242542Y0132305D02*
X0178137Y0132305D01*
X0177884Y0130800D02*
X0179464Y0130145D01*
X0180674Y0128936D01*
X0181328Y0127355D01*
X0181328Y0125645D01*
X0180674Y0124064D01*
X0179464Y0122855D01*
X0177884Y0122200D01*
X0170973Y0122200D01*
X0169393Y0122855D01*
X0168183Y0124064D01*
X0167528Y0125645D01*
X0167528Y0127355D01*
X0168183Y0128936D01*
X0169393Y0130145D01*
X0170973Y0130800D01*
X0177884Y0130800D01*
X0179072Y0130308D02*
X0242155Y0130308D01*
X0242647Y0130800D02*
X0240128Y0128281D01*
X0240128Y0124719D01*
X0242647Y0122200D01*
X0246210Y0122200D01*
X0248728Y0124719D01*
X0248728Y0128281D01*
X0246210Y0130800D01*
X0242647Y0130800D01*
X0241157Y0129309D02*
X0180300Y0129309D01*
X0180933Y0128311D02*
X0240158Y0128311D01*
X0240128Y0127312D02*
X0181328Y0127312D01*
X0181328Y0126314D02*
X0240128Y0126314D01*
X0240128Y0125315D02*
X0181192Y0125315D01*
X0180778Y0124317D02*
X0240530Y0124317D01*
X0241529Y0123318D02*
X0179928Y0123318D01*
X0178173Y0122320D02*
X0242527Y0122320D01*
X0242647Y0120800D02*
X0240128Y0118281D01*
X0240128Y0114719D01*
X0242647Y0112200D01*
X0246210Y0112200D01*
X0248728Y0114719D01*
X0248728Y0118281D01*
X0246210Y0120800D01*
X0242647Y0120800D01*
X0242170Y0120323D02*
X0211687Y0120323D01*
X0211210Y0120800D02*
X0207647Y0120800D01*
X0205128Y0118281D01*
X0205128Y0114719D01*
X0207647Y0112200D01*
X0211210Y0112200D01*
X0213728Y0114719D01*
X0213728Y0118281D01*
X0211210Y0120800D01*
X0212685Y0119324D02*
X0241172Y0119324D01*
X0240173Y0118326D02*
X0213684Y0118326D01*
X0213728Y0117327D02*
X0240128Y0117327D01*
X0240128Y0116329D02*
X0213728Y0116329D01*
X0213728Y0115330D02*
X0240128Y0115330D01*
X0240516Y0114332D02*
X0213341Y0114332D01*
X0212343Y0113333D02*
X0241514Y0113333D01*
X0242513Y0112335D02*
X0211344Y0112335D01*
X0207513Y0112335D02*
X0191344Y0112335D01*
X0191210Y0112200D02*
X0193728Y0114719D01*
X0193728Y0118281D01*
X0191210Y0120800D01*
X0187647Y0120800D01*
X0185128Y0118281D01*
X0185128Y0114719D01*
X0187647Y0112200D01*
X0191210Y0112200D01*
X0192343Y0113333D02*
X0206514Y0113333D01*
X0205516Y0114332D02*
X0193341Y0114332D01*
X0193728Y0115330D02*
X0205128Y0115330D01*
X0205128Y0116329D02*
X0193728Y0116329D01*
X0193728Y0117327D02*
X0205128Y0117327D01*
X0205173Y0118326D02*
X0193684Y0118326D01*
X0192685Y0119324D02*
X0206172Y0119324D01*
X0207170Y0120323D02*
X0191687Y0120323D01*
X0187170Y0120323D02*
X0179036Y0120323D01*
X0179464Y0120145D02*
X0177884Y0120800D01*
X0170973Y0120800D01*
X0169393Y0120145D01*
X0168183Y0118936D01*
X0167528Y0117355D01*
X0167528Y0115645D01*
X0168183Y0114064D01*
X0169393Y0112855D01*
X0170973Y0112200D01*
X0177884Y0112200D01*
X0179464Y0112855D01*
X0180674Y0114064D01*
X0181328Y0115645D01*
X0181328Y0117355D01*
X0180674Y0118936D01*
X0179464Y0120145D01*
X0180285Y0119324D02*
X0186172Y0119324D01*
X0185173Y0118326D02*
X0180926Y0118326D01*
X0181328Y0117327D02*
X0185128Y0117327D01*
X0185128Y0116329D02*
X0181328Y0116329D01*
X0181198Y0115330D02*
X0185128Y0115330D01*
X0185516Y0114332D02*
X0180785Y0114332D01*
X0179943Y0113333D02*
X0186514Y0113333D01*
X0187513Y0112335D02*
X0178209Y0112335D01*
X0179000Y0110338D02*
X0358629Y0110338D01*
X0358629Y0111336D02*
X0136628Y0111336D01*
X0136628Y0110338D02*
X0140372Y0110338D01*
X0140255Y0110300D02*
X0139680Y0110007D01*
X0139157Y0109627D01*
X0138701Y0109171D01*
X0138322Y0108649D01*
X0138029Y0108074D01*
X0137829Y0107460D01*
X0137728Y0106823D01*
X0137728Y0106800D01*
X0144128Y0106800D01*
X0144128Y0106200D01*
X0137728Y0106200D01*
X0137728Y0106177D01*
X0137829Y0105540D01*
X0138029Y0104926D01*
X0138322Y0104351D01*
X0138701Y0103829D01*
X0139157Y0103373D01*
X0139680Y0102993D01*
X0140255Y0102700D01*
X0140868Y0102501D01*
X0141506Y0102400D01*
X0144128Y0102400D01*
X0144128Y0106200D01*
X0144728Y0106200D01*
X0144728Y0102400D01*
X0147351Y0102400D01*
X0147989Y0102501D01*
X0148602Y0102700D01*
X0149177Y0102993D01*
X0149699Y0103373D01*
X0150156Y0103829D01*
X0150535Y0104351D01*
X0150828Y0104926D01*
X0151027Y0105540D01*
X0151128Y0106177D01*
X0151128Y0106200D01*
X0144729Y0106200D01*
X0144729Y0106800D01*
X0151128Y0106800D01*
X0151128Y0106823D01*
X0151027Y0107460D01*
X0150828Y0108074D01*
X0150535Y0108649D01*
X0150156Y0109171D01*
X0149699Y0109627D01*
X0149177Y0110007D01*
X0148602Y0110300D01*
X0147989Y0110499D01*
X0147351Y0110600D01*
X0144728Y0110600D01*
X0144728Y0106800D01*
X0144128Y0106800D01*
X0144128Y0110600D01*
X0141506Y0110600D01*
X0140868Y0110499D01*
X0140255Y0110300D01*
X0138869Y0109339D02*
X0136628Y0109339D01*
X0136628Y0108341D02*
X0138165Y0108341D01*
X0137811Y0107342D02*
X0136628Y0107342D01*
X0136628Y0106344D02*
X0144128Y0106344D01*
X0144729Y0106344D02*
X0167528Y0106344D01*
X0167528Y0107342D02*
X0151046Y0107342D01*
X0150692Y0108341D02*
X0167937Y0108341D01*
X0168587Y0109339D02*
X0149988Y0109339D01*
X0148485Y0110338D02*
X0169857Y0110338D01*
X0170648Y0112335D02*
X0148209Y0112335D01*
X0147884Y0112200D02*
X0149464Y0112855D01*
X0150674Y0114064D01*
X0151328Y0115645D01*
X0151328Y0117355D01*
X0150674Y0118936D01*
X0149464Y0120145D01*
X0147884Y0120800D01*
X0140973Y0120800D01*
X0139393Y0120145D01*
X0138183Y0118936D01*
X0137528Y0117355D01*
X0137528Y0115645D01*
X0138183Y0114064D01*
X0139393Y0112855D01*
X0140973Y0112200D01*
X0147884Y0112200D01*
X0149943Y0113333D02*
X0168914Y0113333D01*
X0168072Y0114332D02*
X0150785Y0114332D01*
X0151198Y0115330D02*
X0167659Y0115330D01*
X0167528Y0116329D02*
X0151328Y0116329D01*
X0151328Y0117327D02*
X0167528Y0117327D01*
X0167930Y0118326D02*
X0150926Y0118326D01*
X0150285Y0119324D02*
X0168572Y0119324D01*
X0169821Y0120323D02*
X0149036Y0120323D01*
X0148173Y0122320D02*
X0170684Y0122320D01*
X0168929Y0123318D02*
X0149928Y0123318D01*
X0149464Y0122855D02*
X0150674Y0124064D01*
X0151328Y0125645D01*
X0151328Y0127355D01*
X0150674Y0128936D01*
X0149464Y0130145D01*
X0147884Y0130800D01*
X0140973Y0130800D01*
X0139393Y0130145D01*
X0138183Y0128936D01*
X0137528Y0127355D01*
X0137528Y0125645D01*
X0138183Y0124064D01*
X0139393Y0122855D01*
X0140973Y0122200D01*
X0147884Y0122200D01*
X0149464Y0122855D01*
X0150778Y0124317D02*
X0168078Y0124317D01*
X0167665Y0125315D02*
X0151192Y0125315D01*
X0151328Y0126314D02*
X0167528Y0126314D01*
X0167528Y0127312D02*
X0151328Y0127312D01*
X0150933Y0128311D02*
X0167924Y0128311D01*
X0168557Y0129309D02*
X0150300Y0129309D01*
X0149072Y0130308D02*
X0169785Y0130308D01*
X0170720Y0132305D02*
X0148137Y0132305D01*
X0147884Y0132200D02*
X0149464Y0132855D01*
X0150674Y0134064D01*
X0151328Y0135645D01*
X0151328Y0137355D01*
X0150674Y0138936D01*
X0149464Y0140145D01*
X0147884Y0140800D01*
X0140973Y0140800D01*
X0139393Y0140145D01*
X0138183Y0138936D01*
X0137528Y0137355D01*
X0137528Y0135645D01*
X0138183Y0134064D01*
X0139393Y0132855D01*
X0140973Y0132200D01*
X0147884Y0132200D01*
X0149913Y0133303D02*
X0168944Y0133303D01*
X0168085Y0134302D02*
X0150772Y0134302D01*
X0151186Y0135301D02*
X0167671Y0135301D01*
X0167528Y0136299D02*
X0151328Y0136299D01*
X0151328Y0137298D02*
X0167528Y0137298D01*
X0167918Y0138296D02*
X0150939Y0138296D01*
X0150315Y0139295D02*
X0168542Y0139295D01*
X0169749Y0140293D02*
X0149108Y0140293D01*
X0139749Y0140293D02*
X0136628Y0140293D01*
X0136628Y0139295D02*
X0138542Y0139295D01*
X0137918Y0138296D02*
X0136628Y0138296D01*
X0136628Y0137298D02*
X0137528Y0137298D01*
X0137528Y0136299D02*
X0136628Y0136299D01*
X0136628Y0135301D02*
X0137671Y0135301D01*
X0138085Y0134302D02*
X0136628Y0134302D01*
X0136628Y0133303D02*
X0138944Y0133303D01*
X0140720Y0132305D02*
X0136628Y0132305D01*
X0136628Y0131306D02*
X0358629Y0131306D01*
X0358629Y0130308D02*
X0306702Y0130308D01*
X0306210Y0130800D02*
X0302647Y0130800D01*
X0300128Y0128281D01*
X0300128Y0124719D01*
X0302647Y0122200D01*
X0306210Y0122200D01*
X0308728Y0124719D01*
X0308728Y0128281D01*
X0306210Y0130800D01*
X0306210Y0132200D02*
X0302647Y0132200D01*
X0300128Y0134719D01*
X0300128Y0138281D01*
X0302647Y0140800D01*
X0306210Y0140800D01*
X0308728Y0138281D01*
X0308728Y0134719D01*
X0306210Y0132200D01*
X0306315Y0132305D02*
X0337542Y0132305D01*
X0337647Y0132200D02*
X0341210Y0132200D01*
X0343728Y0134719D01*
X0343728Y0138281D01*
X0341210Y0140800D01*
X0337647Y0140800D01*
X0335128Y0138281D01*
X0335128Y0134719D01*
X0337647Y0132200D01*
X0336544Y0133303D02*
X0307313Y0133303D01*
X0308312Y0134302D02*
X0335545Y0134302D01*
X0335128Y0135301D02*
X0308728Y0135301D01*
X0308728Y0136299D02*
X0335128Y0136299D01*
X0335128Y0137298D02*
X0308728Y0137298D01*
X0308714Y0138296D02*
X0335143Y0138296D01*
X0336142Y0139295D02*
X0307715Y0139295D01*
X0306716Y0140293D02*
X0337140Y0140293D01*
X0341716Y0140293D02*
X0358629Y0140293D01*
X0358629Y0139295D02*
X0342715Y0139295D01*
X0343714Y0138296D02*
X0358629Y0138296D01*
X0358629Y0137298D02*
X0343728Y0137298D01*
X0343728Y0136299D02*
X0358629Y0136299D01*
X0358629Y0135301D02*
X0343728Y0135301D01*
X0343312Y0134302D02*
X0358629Y0134302D01*
X0358629Y0133303D02*
X0342313Y0133303D01*
X0341315Y0132305D02*
X0358629Y0132305D01*
X0358629Y0129309D02*
X0307700Y0129309D01*
X0308699Y0128311D02*
X0358629Y0128311D01*
X0358629Y0127312D02*
X0308728Y0127312D01*
X0308728Y0126314D02*
X0358629Y0126314D01*
X0358629Y0125315D02*
X0308728Y0125315D01*
X0308326Y0124317D02*
X0358629Y0124317D01*
X0358629Y0123318D02*
X0307328Y0123318D01*
X0306329Y0122320D02*
X0358629Y0122320D01*
X0358629Y0121321D02*
X0136628Y0121321D01*
X0136628Y0120323D02*
X0139821Y0120323D01*
X0138572Y0119324D02*
X0136628Y0119324D01*
X0136628Y0118326D02*
X0137930Y0118326D01*
X0137528Y0117327D02*
X0136628Y0117327D01*
X0136628Y0116329D02*
X0137528Y0116329D01*
X0137659Y0115330D02*
X0136628Y0115330D01*
X0136628Y0114332D02*
X0138072Y0114332D01*
X0138914Y0113333D02*
X0136628Y0113333D01*
X0136628Y0112335D02*
X0140648Y0112335D01*
X0144128Y0110338D02*
X0144728Y0110338D01*
X0144728Y0109339D02*
X0144128Y0109339D01*
X0144128Y0108341D02*
X0144728Y0108341D01*
X0144728Y0107342D02*
X0144128Y0107342D01*
X0144128Y0105345D02*
X0144728Y0105345D01*
X0144728Y0104347D02*
X0144128Y0104347D01*
X0144128Y0103348D02*
X0144728Y0103348D01*
X0139191Y0103348D02*
X0136628Y0103348D01*
X0136628Y0104347D02*
X0138325Y0104347D01*
X0137893Y0105345D02*
X0136628Y0105345D01*
X0148964Y0100353D02*
X0156452Y0100353D01*
X0157064Y0099354D02*
X0150255Y0099354D01*
X0150914Y0098356D02*
X0158687Y0098356D01*
X0160170Y0098356D02*
X0167943Y0098356D01*
X0167529Y0097357D02*
X0151328Y0097357D01*
X0151328Y0096359D02*
X0167528Y0096359D01*
X0167646Y0095360D02*
X0151211Y0095360D01*
X0150797Y0094362D02*
X0168060Y0094362D01*
X0168884Y0093363D02*
X0149973Y0093363D01*
X0148281Y0092365D02*
X0170576Y0092365D01*
X0169929Y0090368D02*
X0148928Y0090368D01*
X0150241Y0089369D02*
X0168616Y0089369D01*
X0167949Y0088370D02*
X0150908Y0088370D01*
X0151322Y0087372D02*
X0167535Y0087372D01*
X0167528Y0086373D02*
X0151328Y0086373D01*
X0151217Y0085375D02*
X0167640Y0085375D01*
X0168054Y0084376D02*
X0150803Y0084376D01*
X0149988Y0083378D02*
X0168869Y0083378D01*
X0170540Y0082379D02*
X0148317Y0082379D01*
X0148892Y0080382D02*
X0169965Y0080382D01*
X0168631Y0079384D02*
X0150226Y0079384D01*
X0150902Y0078385D02*
X0167955Y0078385D01*
X0167542Y0077387D02*
X0151315Y0077387D01*
X0151328Y0076388D02*
X0167528Y0076388D01*
X0167634Y0075390D02*
X0151223Y0075390D01*
X0150809Y0074391D02*
X0168048Y0074391D01*
X0168855Y0073393D02*
X0150002Y0073393D01*
X0148353Y0072394D02*
X0170504Y0072394D01*
X0178353Y0072394D02*
X0358629Y0072394D01*
X0358629Y0073393D02*
X0180002Y0073393D01*
X0180809Y0074391D02*
X0358629Y0074391D01*
X0358629Y0075390D02*
X0181223Y0075390D01*
X0181328Y0076388D02*
X0358629Y0076388D01*
X0358629Y0077387D02*
X0316396Y0077387D01*
X0316210Y0077200D02*
X0318728Y0079719D01*
X0318728Y0083281D01*
X0316210Y0085800D01*
X0312647Y0085800D01*
X0310128Y0083281D01*
X0310128Y0079719D01*
X0312647Y0077200D01*
X0316210Y0077200D01*
X0317395Y0078385D02*
X0358629Y0078385D01*
X0358629Y0079384D02*
X0318393Y0079384D01*
X0318728Y0080382D02*
X0358629Y0080382D01*
X0358629Y0081381D02*
X0318728Y0081381D01*
X0318728Y0082379D02*
X0358629Y0082379D01*
X0358629Y0083378D02*
X0318632Y0083378D01*
X0317633Y0084376D02*
X0358629Y0084376D01*
X0358629Y0085375D02*
X0316635Y0085375D01*
X0312222Y0085375D02*
X0296635Y0085375D01*
X0296210Y0085800D02*
X0292647Y0085800D01*
X0290128Y0083281D01*
X0290128Y0079719D01*
X0292647Y0077200D01*
X0296210Y0077200D01*
X0298728Y0079719D01*
X0298728Y0083281D01*
X0296210Y0085800D01*
X0297633Y0084376D02*
X0311224Y0084376D01*
X0310225Y0083378D02*
X0298632Y0083378D01*
X0298728Y0082379D02*
X0310128Y0082379D01*
X0310128Y0081381D02*
X0298728Y0081381D01*
X0298728Y0080382D02*
X0310128Y0080382D01*
X0310463Y0079384D02*
X0298393Y0079384D01*
X0297395Y0078385D02*
X0311462Y0078385D01*
X0312460Y0077387D02*
X0296396Y0077387D01*
X0292460Y0077387D02*
X0286396Y0077387D01*
X0286210Y0077200D02*
X0288728Y0079719D01*
X0288728Y0083281D01*
X0286210Y0085800D01*
X0282647Y0085800D01*
X0280128Y0083281D01*
X0280128Y0079719D01*
X0282647Y0077200D01*
X0286210Y0077200D01*
X0287395Y0078385D02*
X0291462Y0078385D01*
X0290463Y0079384D02*
X0288393Y0079384D01*
X0288728Y0080382D02*
X0290128Y0080382D01*
X0290128Y0081381D02*
X0288728Y0081381D01*
X0288728Y0082379D02*
X0290128Y0082379D01*
X0290225Y0083378D02*
X0288632Y0083378D01*
X0287633Y0084376D02*
X0291224Y0084376D01*
X0292222Y0085375D02*
X0286635Y0085375D01*
X0282222Y0085375D02*
X0266635Y0085375D01*
X0266210Y0085800D02*
X0262647Y0085800D01*
X0260128Y0083281D01*
X0260128Y0079719D01*
X0262647Y0077200D01*
X0266210Y0077200D01*
X0268728Y0079719D01*
X0268728Y0083281D01*
X0266210Y0085800D01*
X0267633Y0084376D02*
X0281224Y0084376D01*
X0280225Y0083378D02*
X0268632Y0083378D01*
X0268728Y0082379D02*
X0280128Y0082379D01*
X0280128Y0081381D02*
X0268728Y0081381D01*
X0268728Y0080382D02*
X0280128Y0080382D01*
X0280463Y0079384D02*
X0268393Y0079384D01*
X0267395Y0078385D02*
X0281462Y0078385D01*
X0282460Y0077387D02*
X0266396Y0077387D01*
X0262460Y0077387D02*
X0256396Y0077387D01*
X0256210Y0077200D02*
X0258728Y0079719D01*
X0258728Y0083281D01*
X0256210Y0085800D01*
X0252647Y0085800D01*
X0250128Y0083281D01*
X0250128Y0079719D01*
X0252647Y0077200D01*
X0256210Y0077200D01*
X0257395Y0078385D02*
X0261462Y0078385D01*
X0260463Y0079384D02*
X0258393Y0079384D01*
X0258728Y0080382D02*
X0260128Y0080382D01*
X0260128Y0081381D02*
X0258728Y0081381D01*
X0258728Y0082379D02*
X0260128Y0082379D01*
X0260225Y0083378D02*
X0258632Y0083378D01*
X0257633Y0084376D02*
X0261224Y0084376D01*
X0262222Y0085375D02*
X0256635Y0085375D01*
X0252222Y0085375D02*
X0236635Y0085375D01*
X0237633Y0084376D02*
X0251224Y0084376D01*
X0250225Y0083378D02*
X0238632Y0083378D01*
X0238728Y0082379D02*
X0250128Y0082379D01*
X0250128Y0081381D02*
X0238728Y0081381D01*
X0238728Y0080382D02*
X0250128Y0080382D01*
X0250463Y0079384D02*
X0238393Y0079384D01*
X0237395Y0078385D02*
X0251462Y0078385D01*
X0252460Y0077387D02*
X0236396Y0077387D01*
X0232460Y0077387D02*
X0181315Y0077387D01*
X0180902Y0078385D02*
X0231462Y0078385D01*
X0230463Y0079384D02*
X0180226Y0079384D01*
X0178281Y0092365D02*
X0187483Y0092365D01*
X0187647Y0092200D02*
X0191210Y0092200D01*
X0193728Y0094719D01*
X0193728Y0098281D01*
X0191210Y0100800D01*
X0187647Y0100800D01*
X0185128Y0098281D01*
X0185128Y0094719D01*
X0187647Y0092200D01*
X0186484Y0093363D02*
X0179973Y0093363D01*
X0180797Y0094362D02*
X0185486Y0094362D01*
X0185128Y0095360D02*
X0181211Y0095360D01*
X0181328Y0096359D02*
X0185128Y0096359D01*
X0185128Y0097357D02*
X0181328Y0097357D01*
X0180914Y0098356D02*
X0185203Y0098356D01*
X0186201Y0099354D02*
X0180255Y0099354D01*
X0178964Y0100353D02*
X0187200Y0100353D01*
X0191657Y0100353D02*
X0207200Y0100353D01*
X0207647Y0100800D02*
X0205128Y0098281D01*
X0205128Y0094719D01*
X0207647Y0092200D01*
X0211210Y0092200D01*
X0213728Y0094719D01*
X0213728Y0098281D01*
X0211210Y0100800D01*
X0207647Y0100800D01*
X0206201Y0099354D02*
X0192655Y0099354D01*
X0193654Y0098356D02*
X0205203Y0098356D01*
X0205128Y0097357D02*
X0193728Y0097357D01*
X0193728Y0096359D02*
X0205128Y0096359D01*
X0205128Y0095360D02*
X0193728Y0095360D01*
X0193371Y0094362D02*
X0205486Y0094362D01*
X0206484Y0093363D02*
X0192373Y0093363D01*
X0191374Y0092365D02*
X0207483Y0092365D01*
X0211374Y0092365D02*
X0358629Y0092365D01*
X0358629Y0093363D02*
X0212373Y0093363D01*
X0213371Y0094362D02*
X0358629Y0094362D01*
X0358629Y0095360D02*
X0213728Y0095360D01*
X0213728Y0096359D02*
X0358629Y0096359D01*
X0358629Y0097357D02*
X0316367Y0097357D01*
X0316210Y0097200D02*
X0318728Y0099719D01*
X0318728Y0103281D01*
X0316210Y0105800D01*
X0312647Y0105800D01*
X0310128Y0103281D01*
X0310128Y0099719D01*
X0312647Y0097200D01*
X0316210Y0097200D01*
X0317365Y0098356D02*
X0358629Y0098356D01*
X0358629Y0099354D02*
X0318364Y0099354D01*
X0318728Y0100353D02*
X0358629Y0100353D01*
X0358629Y0101351D02*
X0318728Y0101351D01*
X0318728Y0102350D02*
X0358629Y0102350D01*
X0358629Y0103348D02*
X0318661Y0103348D01*
X0317663Y0104347D02*
X0358629Y0104347D01*
X0358629Y0105345D02*
X0316664Y0105345D01*
X0312193Y0105345D02*
X0296664Y0105345D01*
X0296210Y0105800D02*
X0298728Y0103281D01*
X0298728Y0099719D01*
X0296210Y0097200D01*
X0292647Y0097200D01*
X0290128Y0099719D01*
X0290128Y0103281D01*
X0292647Y0105800D01*
X0296210Y0105800D01*
X0297663Y0104347D02*
X0311194Y0104347D01*
X0310196Y0103348D02*
X0298661Y0103348D01*
X0298728Y0102350D02*
X0310128Y0102350D01*
X0310128Y0101351D02*
X0298728Y0101351D01*
X0298728Y0100353D02*
X0310128Y0100353D01*
X0310493Y0099354D02*
X0298364Y0099354D01*
X0297365Y0098356D02*
X0311492Y0098356D01*
X0312490Y0097357D02*
X0296367Y0097357D01*
X0292490Y0097357D02*
X0286367Y0097357D01*
X0286210Y0097200D02*
X0288728Y0099719D01*
X0288728Y0103281D01*
X0286210Y0105800D01*
X0282647Y0105800D01*
X0280128Y0103281D01*
X0280128Y0099719D01*
X0282647Y0097200D01*
X0286210Y0097200D01*
X0287365Y0098356D02*
X0291492Y0098356D01*
X0290493Y0099354D02*
X0288364Y0099354D01*
X0288728Y0100353D02*
X0290128Y0100353D01*
X0290128Y0101351D02*
X0288728Y0101351D01*
X0288728Y0102350D02*
X0290128Y0102350D01*
X0290196Y0103348D02*
X0288661Y0103348D01*
X0287663Y0104347D02*
X0291194Y0104347D01*
X0292193Y0105345D02*
X0286664Y0105345D01*
X0282193Y0105345D02*
X0266664Y0105345D01*
X0266210Y0105800D02*
X0262647Y0105800D01*
X0260128Y0103281D01*
X0260128Y0099719D01*
X0262647Y0097200D01*
X0266210Y0097200D01*
X0268728Y0099719D01*
X0268728Y0103281D01*
X0266210Y0105800D01*
X0267663Y0104347D02*
X0281194Y0104347D01*
X0280196Y0103348D02*
X0268661Y0103348D01*
X0268728Y0102350D02*
X0280128Y0102350D01*
X0280128Y0101351D02*
X0268728Y0101351D01*
X0268728Y0100353D02*
X0280128Y0100353D01*
X0280493Y0099354D02*
X0268364Y0099354D01*
X0267365Y0098356D02*
X0281492Y0098356D01*
X0282490Y0097357D02*
X0266367Y0097357D01*
X0262490Y0097357D02*
X0256367Y0097357D01*
X0256210Y0097200D02*
X0258728Y0099719D01*
X0258728Y0103281D01*
X0256210Y0105800D01*
X0252647Y0105800D01*
X0250128Y0103281D01*
X0250128Y0099719D01*
X0252647Y0097200D01*
X0256210Y0097200D01*
X0257365Y0098356D02*
X0261492Y0098356D01*
X0260493Y0099354D02*
X0258364Y0099354D01*
X0258728Y0100353D02*
X0260128Y0100353D01*
X0260128Y0101351D02*
X0258728Y0101351D01*
X0258728Y0102350D02*
X0260128Y0102350D01*
X0260196Y0103348D02*
X0258661Y0103348D01*
X0257663Y0104347D02*
X0261194Y0104347D01*
X0262193Y0105345D02*
X0256664Y0105345D01*
X0252193Y0105345D02*
X0236664Y0105345D01*
X0236210Y0105800D02*
X0238728Y0103281D01*
X0238728Y0099719D01*
X0236210Y0097200D01*
X0232647Y0097200D01*
X0230128Y0099719D01*
X0230128Y0103281D01*
X0232647Y0105800D01*
X0236210Y0105800D01*
X0237663Y0104347D02*
X0251194Y0104347D01*
X0250196Y0103348D02*
X0238661Y0103348D01*
X0238728Y0102350D02*
X0250128Y0102350D01*
X0250128Y0101351D02*
X0238728Y0101351D01*
X0238728Y0100353D02*
X0250128Y0100353D01*
X0250493Y0099354D02*
X0238364Y0099354D01*
X0237365Y0098356D02*
X0251492Y0098356D01*
X0252490Y0097357D02*
X0236367Y0097357D01*
X0232490Y0097357D02*
X0213728Y0097357D01*
X0213654Y0098356D02*
X0231492Y0098356D01*
X0230493Y0099354D02*
X0212655Y0099354D01*
X0211657Y0100353D02*
X0230128Y0100353D01*
X0230128Y0101351D02*
X0172617Y0101351D01*
X0169428Y0101500D02*
X0159428Y0101500D01*
X0157968Y0104347D02*
X0150532Y0104347D01*
X0150964Y0105345D02*
X0167653Y0105345D01*
X0167968Y0104347D02*
X0160889Y0104347D01*
X0156767Y0103348D02*
X0149666Y0103348D01*
X0140684Y0122320D02*
X0136628Y0122320D01*
X0136628Y0123318D02*
X0138929Y0123318D01*
X0138078Y0124317D02*
X0136628Y0124317D01*
X0136628Y0125315D02*
X0137665Y0125315D01*
X0137528Y0126314D02*
X0136628Y0126314D01*
X0136628Y0127312D02*
X0137528Y0127312D01*
X0137924Y0128311D02*
X0136628Y0128311D01*
X0136628Y0129309D02*
X0138557Y0129309D01*
X0139785Y0130308D02*
X0136628Y0130308D01*
X0132228Y0122320D02*
X0131329Y0122320D01*
X0125530Y0124317D02*
X0113044Y0124317D01*
X0113528Y0125315D02*
X0125128Y0125315D01*
X0136628Y0141292D02*
X0358629Y0141292D01*
X0358629Y0142290D02*
X0306300Y0142290D01*
X0307298Y0143289D02*
X0358629Y0143289D01*
X0358629Y0144287D02*
X0308297Y0144287D01*
X0308728Y0145286D02*
X0358629Y0145286D01*
X0358629Y0146284D02*
X0308728Y0146284D01*
X0307730Y0149280D02*
X0358629Y0149280D01*
X0358629Y0150278D02*
X0306731Y0150278D01*
X0302126Y0150278D02*
X0276731Y0150278D01*
X0277730Y0149280D02*
X0301127Y0149280D01*
X0300128Y0146284D02*
X0278728Y0146284D01*
X0278728Y0145286D02*
X0300128Y0145286D01*
X0300560Y0144287D02*
X0278297Y0144287D01*
X0277298Y0143289D02*
X0301559Y0143289D01*
X0302557Y0142290D02*
X0276300Y0142290D01*
X0276210Y0140800D02*
X0272647Y0140800D01*
X0270128Y0138281D01*
X0270128Y0134719D01*
X0272647Y0132200D01*
X0276210Y0132200D01*
X0278728Y0134719D01*
X0278728Y0138281D01*
X0276210Y0140800D01*
X0276716Y0140293D02*
X0302140Y0140293D01*
X0301142Y0139295D02*
X0277715Y0139295D01*
X0278714Y0138296D02*
X0300143Y0138296D01*
X0300128Y0137298D02*
X0278728Y0137298D01*
X0278728Y0136299D02*
X0300128Y0136299D01*
X0300128Y0135301D02*
X0278728Y0135301D01*
X0278312Y0134302D02*
X0300545Y0134302D01*
X0301544Y0133303D02*
X0277313Y0133303D01*
X0276315Y0132305D02*
X0302542Y0132305D01*
X0302155Y0130308D02*
X0276702Y0130308D01*
X0276210Y0130800D02*
X0272647Y0130800D01*
X0270128Y0128281D01*
X0270128Y0124719D01*
X0272647Y0122200D01*
X0276210Y0122200D01*
X0278728Y0124719D01*
X0278728Y0128281D01*
X0276210Y0130800D01*
X0277700Y0129309D02*
X0301157Y0129309D01*
X0300158Y0128311D02*
X0278699Y0128311D01*
X0278728Y0127312D02*
X0300128Y0127312D01*
X0300128Y0126314D02*
X0278728Y0126314D01*
X0278728Y0125315D02*
X0300128Y0125315D01*
X0300530Y0124317D02*
X0278326Y0124317D01*
X0277328Y0123318D02*
X0301529Y0123318D01*
X0302527Y0122320D02*
X0276329Y0122320D01*
X0276210Y0120800D02*
X0272647Y0120800D01*
X0270128Y0118281D01*
X0270128Y0114719D01*
X0272647Y0112200D01*
X0276210Y0112200D01*
X0278728Y0114719D01*
X0278728Y0118281D01*
X0276210Y0120800D01*
X0276687Y0120323D02*
X0302170Y0120323D01*
X0302647Y0120800D02*
X0300128Y0118281D01*
X0300128Y0114719D01*
X0302647Y0112200D01*
X0306210Y0112200D01*
X0308728Y0114719D01*
X0308728Y0118281D01*
X0306210Y0120800D01*
X0302647Y0120800D01*
X0301172Y0119324D02*
X0277685Y0119324D01*
X0278684Y0118326D02*
X0300173Y0118326D01*
X0300128Y0117327D02*
X0278728Y0117327D01*
X0278728Y0116329D02*
X0300128Y0116329D01*
X0300128Y0115330D02*
X0278728Y0115330D01*
X0278341Y0114332D02*
X0300516Y0114332D01*
X0301514Y0113333D02*
X0277343Y0113333D01*
X0276344Y0112335D02*
X0302513Y0112335D01*
X0306344Y0112335D02*
X0358629Y0112335D01*
X0358629Y0113333D02*
X0307343Y0113333D01*
X0308341Y0114332D02*
X0358629Y0114332D01*
X0358629Y0115330D02*
X0308728Y0115330D01*
X0308728Y0116329D02*
X0358629Y0116329D01*
X0358629Y0117327D02*
X0308728Y0117327D01*
X0308684Y0118326D02*
X0358629Y0118326D01*
X0358629Y0119324D02*
X0307685Y0119324D01*
X0306687Y0120323D02*
X0358629Y0120323D01*
X0358629Y0109339D02*
X0180270Y0109339D01*
X0180920Y0108341D02*
X0358629Y0108341D01*
X0358629Y0107342D02*
X0181328Y0107342D01*
X0181328Y0106344D02*
X0358629Y0106344D01*
X0307527Y0070397D02*
X0281329Y0070397D01*
X0281127Y0070600D02*
X0279728Y0070600D01*
X0279728Y0066800D01*
X0279128Y0066800D01*
X0279128Y0066200D01*
X0275328Y0066200D01*
X0275328Y0064802D01*
X0277730Y0062400D01*
X0279128Y0062400D01*
X0279128Y0066200D01*
X0279728Y0066200D01*
X0279728Y0062400D01*
X0281127Y0062400D01*
X0283528Y0064802D01*
X0283528Y0066200D01*
X0279729Y0066200D01*
X0279729Y0066800D01*
X0283528Y0066800D01*
X0283528Y0068198D01*
X0281127Y0070600D01*
X0279728Y0070397D02*
X0279128Y0070397D01*
X0279128Y0070600D02*
X0277730Y0070600D01*
X0275328Y0068198D01*
X0275328Y0066800D01*
X0279128Y0066800D01*
X0279128Y0070600D01*
X0279128Y0069399D02*
X0279728Y0069399D01*
X0279728Y0068400D02*
X0279128Y0068400D01*
X0279128Y0067402D02*
X0279728Y0067402D01*
X0279729Y0066403D02*
X0309128Y0066403D01*
X0309128Y0065405D02*
X0309728Y0065405D01*
X0309728Y0064406D02*
X0309128Y0064406D01*
X0309128Y0063408D02*
X0309728Y0063408D01*
X0309728Y0062409D02*
X0309128Y0062409D01*
X0307721Y0062409D02*
X0281136Y0062409D01*
X0279728Y0062409D02*
X0279128Y0062409D01*
X0279128Y0063408D02*
X0279728Y0063408D01*
X0279728Y0064406D02*
X0279128Y0064406D01*
X0279128Y0065405D02*
X0279728Y0065405D01*
X0279128Y0066403D02*
X0249729Y0066403D01*
X0249128Y0066800D02*
X0249128Y0070600D01*
X0247730Y0070600D01*
X0245328Y0068198D01*
X0245328Y0066800D01*
X0249128Y0066800D01*
X0249128Y0067402D02*
X0249728Y0067402D01*
X0249728Y0068400D02*
X0249128Y0068400D01*
X0249128Y0069399D02*
X0249728Y0069399D01*
X0249728Y0070397D02*
X0249128Y0070397D01*
X0247527Y0070397D02*
X0033928Y0070397D01*
X0033928Y0069399D02*
X0246529Y0069399D01*
X0245530Y0068400D02*
X0033928Y0068400D01*
X0033928Y0067402D02*
X0245328Y0067402D01*
X0251329Y0070397D02*
X0277527Y0070397D01*
X0276529Y0069399D02*
X0252328Y0069399D01*
X0253326Y0068400D02*
X0275530Y0068400D01*
X0275328Y0067402D02*
X0253528Y0067402D01*
X0253528Y0065405D02*
X0275328Y0065405D01*
X0275724Y0064406D02*
X0253133Y0064406D01*
X0252134Y0063408D02*
X0276722Y0063408D01*
X0277721Y0062409D02*
X0251136Y0062409D01*
X0251210Y0060800D02*
X0247647Y0060800D01*
X0245128Y0058281D01*
X0245128Y0054719D01*
X0247647Y0052200D01*
X0251210Y0052200D01*
X0253728Y0054719D01*
X0253728Y0058281D01*
X0251210Y0060800D01*
X0251597Y0060412D02*
X0267260Y0060412D01*
X0267647Y0060800D02*
X0265128Y0058281D01*
X0265128Y0054719D01*
X0267647Y0052200D01*
X0271210Y0052200D01*
X0273728Y0054719D01*
X0273728Y0058281D01*
X0271210Y0060800D01*
X0267647Y0060800D01*
X0266261Y0059414D02*
X0252596Y0059414D01*
X0253594Y0058415D02*
X0265263Y0058415D01*
X0265128Y0057417D02*
X0253728Y0057417D01*
X0253728Y0056418D02*
X0265128Y0056418D01*
X0265128Y0055420D02*
X0253728Y0055420D01*
X0253431Y0054421D02*
X0265426Y0054421D01*
X0266425Y0053423D02*
X0252432Y0053423D01*
X0251434Y0052424D02*
X0267423Y0052424D01*
X0271434Y0052424D02*
X0277423Y0052424D01*
X0277647Y0052200D02*
X0281210Y0052200D01*
X0283728Y0054719D01*
X0283728Y0058281D01*
X0281210Y0060800D01*
X0277647Y0060800D01*
X0275128Y0058281D01*
X0275128Y0054719D01*
X0277647Y0052200D01*
X0276425Y0053423D02*
X0272432Y0053423D01*
X0273431Y0054421D02*
X0275426Y0054421D01*
X0275128Y0055420D02*
X0273728Y0055420D01*
X0273728Y0056418D02*
X0275128Y0056418D01*
X0275128Y0057417D02*
X0273728Y0057417D01*
X0273594Y0058415D02*
X0275263Y0058415D01*
X0276261Y0059414D02*
X0272596Y0059414D01*
X0271597Y0060412D02*
X0277260Y0060412D01*
X0281597Y0060412D02*
X0297260Y0060412D01*
X0297647Y0060800D02*
X0295128Y0058281D01*
X0295128Y0054719D01*
X0297647Y0052200D01*
X0301210Y0052200D01*
X0303728Y0054719D01*
X0303728Y0058281D01*
X0301210Y0060800D01*
X0297647Y0060800D01*
X0296261Y0059414D02*
X0282596Y0059414D01*
X0283594Y0058415D02*
X0295263Y0058415D01*
X0295128Y0057417D02*
X0283728Y0057417D01*
X0283728Y0056418D02*
X0295128Y0056418D01*
X0295128Y0055420D02*
X0283728Y0055420D01*
X0283431Y0054421D02*
X0295426Y0054421D01*
X0296425Y0053423D02*
X0282432Y0053423D01*
X0281434Y0052424D02*
X0297423Y0052424D01*
X0301434Y0052424D02*
X0307423Y0052424D01*
X0306425Y0053423D02*
X0302432Y0053423D01*
X0303431Y0054421D02*
X0305426Y0054421D01*
X0305128Y0055420D02*
X0303728Y0055420D01*
X0303728Y0056418D02*
X0305128Y0056418D01*
X0305128Y0057417D02*
X0303728Y0057417D01*
X0303594Y0058415D02*
X0305263Y0058415D01*
X0306261Y0059414D02*
X0302596Y0059414D01*
X0301597Y0060412D02*
X0307260Y0060412D01*
X0306722Y0063408D02*
X0282134Y0063408D01*
X0283133Y0064406D02*
X0305724Y0064406D01*
X0305328Y0065405D02*
X0283528Y0065405D01*
X0283528Y0067402D02*
X0305328Y0067402D01*
X0305530Y0068400D02*
X0283326Y0068400D01*
X0282328Y0069399D02*
X0306529Y0069399D01*
X0247260Y0060412D02*
X0241597Y0060412D01*
X0241210Y0060800D02*
X0237647Y0060800D01*
X0235128Y0058281D01*
X0235128Y0054719D01*
X0237647Y0052200D01*
X0241210Y0052200D01*
X0243728Y0054719D01*
X0243728Y0058281D01*
X0241210Y0060800D01*
X0242596Y0059414D02*
X0246261Y0059414D01*
X0245263Y0058415D02*
X0243594Y0058415D01*
X0243728Y0057417D02*
X0245128Y0057417D01*
X0245128Y0056418D02*
X0243728Y0056418D01*
X0243728Y0055420D02*
X0245128Y0055420D01*
X0245426Y0054421D02*
X0243431Y0054421D01*
X0242432Y0053423D02*
X0246425Y0053423D01*
X0247423Y0052424D02*
X0241434Y0052424D01*
X0237423Y0052424D02*
X0151434Y0052424D01*
X0151210Y0052200D02*
X0153728Y0054719D01*
X0153728Y0058281D01*
X0151210Y0060800D01*
X0147647Y0060800D01*
X0145128Y0058281D01*
X0145128Y0054719D01*
X0147647Y0052200D01*
X0151210Y0052200D01*
X0152432Y0053423D02*
X0236425Y0053423D01*
X0235426Y0054421D02*
X0153431Y0054421D01*
X0153728Y0055420D02*
X0235128Y0055420D01*
X0235128Y0056418D02*
X0153728Y0056418D01*
X0153728Y0057417D02*
X0235128Y0057417D01*
X0235263Y0058415D02*
X0153594Y0058415D01*
X0152596Y0059414D02*
X0236261Y0059414D01*
X0237260Y0060412D02*
X0151597Y0060412D01*
X0147260Y0060412D02*
X0131597Y0060412D01*
X0131210Y0060800D02*
X0127647Y0060800D01*
X0125128Y0058281D01*
X0125128Y0054719D01*
X0127647Y0052200D01*
X0131210Y0052200D01*
X0133728Y0054719D01*
X0133728Y0058281D01*
X0131210Y0060800D01*
X0132596Y0059414D02*
X0146261Y0059414D01*
X0145263Y0058415D02*
X0133594Y0058415D01*
X0133728Y0057417D02*
X0145128Y0057417D01*
X0145128Y0056418D02*
X0133728Y0056418D01*
X0133728Y0055420D02*
X0145128Y0055420D01*
X0145426Y0054421D02*
X0133431Y0054421D01*
X0132432Y0053423D02*
X0146425Y0053423D01*
X0147423Y0052424D02*
X0131434Y0052424D01*
X0127423Y0052424D02*
X0111434Y0052424D01*
X0112432Y0053423D02*
X0126425Y0053423D01*
X0125426Y0054421D02*
X0113431Y0054421D01*
X0113728Y0055420D02*
X0125128Y0055420D01*
X0125128Y0056418D02*
X0113728Y0056418D01*
X0113728Y0057417D02*
X0125128Y0057417D01*
X0125263Y0058415D02*
X0113594Y0058415D01*
X0112596Y0059414D02*
X0126261Y0059414D01*
X0127260Y0060412D02*
X0111597Y0060412D01*
X0107260Y0060412D02*
X0083760Y0060412D01*
X0084002Y0059414D02*
X0106261Y0059414D01*
X0105263Y0058415D02*
X0084002Y0058415D01*
X0083933Y0057417D02*
X0105128Y0057417D01*
X0105128Y0056418D02*
X0083520Y0056418D01*
X0083052Y0055420D02*
X0090625Y0055420D01*
X0089338Y0054421D02*
X0082054Y0054421D01*
X0081634Y0063408D02*
X0246722Y0063408D01*
X0230128Y0102350D02*
X0178245Y0102350D01*
X0179958Y0103348D02*
X0230196Y0103348D01*
X0231194Y0104347D02*
X0180791Y0104347D01*
X0181204Y0105345D02*
X0232193Y0105345D01*
X0246344Y0112335D02*
X0272513Y0112335D01*
X0271514Y0113333D02*
X0247343Y0113333D01*
X0248341Y0114332D02*
X0270516Y0114332D01*
X0270128Y0115330D02*
X0248728Y0115330D01*
X0248728Y0116329D02*
X0270128Y0116329D01*
X0270128Y0117327D02*
X0248728Y0117327D01*
X0248684Y0118326D02*
X0270173Y0118326D01*
X0271172Y0119324D02*
X0247685Y0119324D01*
X0246687Y0120323D02*
X0272170Y0120323D01*
X0272527Y0122320D02*
X0246329Y0122320D01*
X0247328Y0123318D02*
X0271529Y0123318D01*
X0270530Y0124317D02*
X0248326Y0124317D01*
X0248728Y0125315D02*
X0270128Y0125315D01*
X0270128Y0126314D02*
X0248728Y0126314D01*
X0248728Y0127312D02*
X0270128Y0127312D01*
X0270158Y0128311D02*
X0248699Y0128311D01*
X0247700Y0129309D02*
X0271157Y0129309D01*
X0272155Y0130308D02*
X0246702Y0130308D01*
X0246315Y0132305D02*
X0272542Y0132305D01*
X0271544Y0133303D02*
X0247313Y0133303D01*
X0248312Y0134302D02*
X0270545Y0134302D01*
X0270128Y0135301D02*
X0248728Y0135301D01*
X0248728Y0136299D02*
X0270128Y0136299D01*
X0270128Y0137298D02*
X0248728Y0137298D01*
X0248714Y0138296D02*
X0270143Y0138296D01*
X0271142Y0139295D02*
X0247715Y0139295D01*
X0246716Y0140293D02*
X0272140Y0140293D01*
X0272557Y0142290D02*
X0246300Y0142290D01*
X0247298Y0143289D02*
X0271559Y0143289D01*
X0270560Y0144287D02*
X0248297Y0144287D01*
X0248728Y0145286D02*
X0270128Y0145286D01*
X0270128Y0146284D02*
X0248728Y0146284D01*
X0247730Y0149280D02*
X0271127Y0149280D01*
X0272126Y0150278D02*
X0246731Y0150278D01*
X0193757Y0162260D02*
X0358629Y0162260D01*
X0358629Y0161262D02*
X0193339Y0161262D01*
X0193928Y0163259D02*
X0358629Y0163259D01*
X0358629Y0164257D02*
X0193928Y0164257D01*
X0193928Y0165256D02*
X0358629Y0165256D01*
X0358629Y0166254D02*
X0189929Y0166254D01*
X0189928Y0167253D02*
X0188928Y0167253D01*
X0188928Y0167000D02*
X0188928Y0173977D01*
X0188375Y0173889D01*
X0187701Y0173670D01*
X0187070Y0173349D01*
X0186497Y0172932D01*
X0185996Y0172432D01*
X0185580Y0171859D01*
X0185258Y0171227D01*
X0185039Y0170554D01*
X0184928Y0169854D01*
X0184928Y0167000D01*
X0188928Y0167000D01*
X0188928Y0168251D02*
X0189928Y0168251D01*
X0189928Y0169250D02*
X0188928Y0169250D01*
X0188928Y0170248D02*
X0189928Y0170248D01*
X0189928Y0171247D02*
X0188928Y0171247D01*
X0188928Y0172245D02*
X0189928Y0172245D01*
X0189928Y0173244D02*
X0188928Y0173244D01*
X0186926Y0173244D02*
X0182331Y0173244D01*
X0183330Y0172245D02*
X0185861Y0172245D01*
X0185268Y0171247D02*
X0183792Y0171247D01*
X0184128Y0170248D02*
X0184991Y0170248D01*
X0184928Y0169250D02*
X0184128Y0169250D01*
X0184128Y0168251D02*
X0184928Y0168251D01*
X0184928Y0167253D02*
X0184128Y0167253D01*
X0174728Y0167253D02*
X0174128Y0167253D01*
X0174128Y0168251D02*
X0174728Y0168251D01*
X0174728Y0169250D02*
X0174128Y0169250D01*
X0174128Y0170248D02*
X0174728Y0170248D01*
X0174128Y0170435D02*
X0173413Y0172162D01*
X0172091Y0173484D01*
X0170363Y0174200D01*
X0168494Y0174200D01*
X0166766Y0173484D01*
X0165444Y0172162D01*
X0164728Y0170435D01*
X0164728Y0162565D01*
X0165444Y0160838D01*
X0166766Y0159516D01*
X0168494Y0158800D01*
X0170363Y0158800D01*
X0172091Y0159516D01*
X0173413Y0160838D01*
X0174128Y0162565D01*
X0174128Y0170435D01*
X0173792Y0171247D02*
X0175065Y0171247D01*
X0175527Y0172245D02*
X0173330Y0172245D01*
X0172331Y0173244D02*
X0176526Y0173244D01*
X0166526Y0173244D02*
X0136628Y0173244D01*
X0136628Y0174242D02*
X0358629Y0174242D01*
X0358629Y0173244D02*
X0191931Y0173244D01*
X0192996Y0172245D02*
X0358629Y0172245D01*
X0358629Y0171247D02*
X0193589Y0171247D01*
X0193866Y0170248D02*
X0358629Y0170248D01*
X0358629Y0169250D02*
X0193928Y0169250D01*
X0193928Y0168251D02*
X0358629Y0168251D01*
X0358629Y0167253D02*
X0193928Y0167253D01*
X0177371Y0159265D02*
X0171485Y0159265D01*
X0172839Y0160263D02*
X0176018Y0160263D01*
X0175268Y0161262D02*
X0173589Y0161262D01*
X0174002Y0162260D02*
X0174855Y0162260D01*
X0174728Y0163259D02*
X0174128Y0163259D01*
X0174128Y0164257D02*
X0174728Y0164257D01*
X0174728Y0165256D02*
X0174128Y0165256D01*
X0174128Y0166254D02*
X0174728Y0166254D01*
X0166018Y0160263D02*
X0136628Y0160263D01*
X0136628Y0159265D02*
X0167371Y0159265D01*
X0165268Y0161262D02*
X0136628Y0161262D01*
X0136628Y0162260D02*
X0164855Y0162260D01*
X0164728Y0163259D02*
X0136628Y0163259D01*
X0136628Y0164257D02*
X0164728Y0164257D01*
X0164728Y0165256D02*
X0136628Y0165256D01*
X0136628Y0166254D02*
X0164728Y0166254D01*
X0164728Y0167253D02*
X0136628Y0167253D01*
X0136628Y0168251D02*
X0164728Y0168251D01*
X0164728Y0169250D02*
X0136628Y0169250D01*
X0136628Y0170248D02*
X0164728Y0170248D01*
X0165065Y0171247D02*
X0136628Y0171247D01*
X0136628Y0172245D02*
X0165527Y0172245D01*
X0172647Y0192200D02*
X0176210Y0192200D01*
X0178728Y0194719D01*
X0178728Y0198281D01*
X0176210Y0200800D01*
X0172647Y0200800D01*
X0170128Y0198281D01*
X0170128Y0194719D01*
X0172647Y0192200D01*
X0172632Y0192216D02*
X0140451Y0192216D01*
X0141514Y0193214D02*
X0171633Y0193214D01*
X0170635Y0194213D02*
X0142193Y0194213D01*
X0142607Y0195211D02*
X0170128Y0195211D01*
X0170128Y0196210D02*
X0142728Y0196210D01*
X0142728Y0197208D02*
X0170128Y0197208D01*
X0170128Y0198207D02*
X0142433Y0198207D01*
X0142020Y0199205D02*
X0171053Y0199205D01*
X0172051Y0200204D02*
X0141096Y0200204D01*
X0139442Y0201202D02*
X0358629Y0201202D01*
X0358629Y0200204D02*
X0186806Y0200204D01*
X0186210Y0200800D02*
X0182647Y0200800D01*
X0180128Y0198281D01*
X0180128Y0194719D01*
X0182647Y0192200D01*
X0186210Y0192200D01*
X0188728Y0194719D01*
X0188728Y0198281D01*
X0186210Y0200800D01*
X0187804Y0199205D02*
X0358629Y0199205D01*
X0358629Y0198207D02*
X0188728Y0198207D01*
X0188728Y0197208D02*
X0358629Y0197208D01*
X0358629Y0196210D02*
X0188728Y0196210D01*
X0188728Y0195211D02*
X0358629Y0195211D01*
X0358629Y0194213D02*
X0188222Y0194213D01*
X0187224Y0193214D02*
X0358629Y0193214D01*
X0358629Y0192216D02*
X0186225Y0192216D01*
X0182632Y0192216D02*
X0176225Y0192216D01*
X0177224Y0193214D02*
X0181633Y0193214D01*
X0180635Y0194213D02*
X0178222Y0194213D01*
X0178728Y0195211D02*
X0180128Y0195211D01*
X0180128Y0196210D02*
X0178728Y0196210D01*
X0178728Y0197208D02*
X0180128Y0197208D01*
X0180128Y0198207D02*
X0178728Y0198207D01*
X0177804Y0199205D02*
X0181053Y0199205D01*
X0182051Y0200204D02*
X0176806Y0200204D01*
X0163728Y0204719D02*
X0163728Y0208281D01*
X0161210Y0210800D01*
X0157647Y0210800D01*
X0155128Y0208281D01*
X0155128Y0204719D01*
X0157647Y0202200D01*
X0161210Y0202200D01*
X0163728Y0204719D01*
X0163728Y0205196D02*
X0358629Y0205196D01*
X0358629Y0204198D02*
X0163207Y0204198D01*
X0162209Y0203199D02*
X0358629Y0203199D01*
X0358629Y0202201D02*
X0161210Y0202201D01*
X0157647Y0202201D02*
X0139864Y0202201D01*
X0139571Y0202052D02*
X0140244Y0202395D01*
X0140855Y0202839D01*
X0141390Y0203373D01*
X0141834Y0203984D01*
X0142177Y0204657D01*
X0142410Y0205376D01*
X0142509Y0206000D01*
X0134929Y0206000D01*
X0134929Y0207000D01*
X0142509Y0207000D01*
X0142410Y0207624D01*
X0142177Y0208343D01*
X0141834Y0209016D01*
X0141390Y0209627D01*
X0140855Y0210161D01*
X0140244Y0210605D01*
X0139571Y0210948D01*
X0138852Y0211182D01*
X0138106Y0211300D01*
X0134928Y0211300D01*
X0134928Y0207000D01*
X0133928Y0207000D01*
X0133928Y0206000D01*
X0126348Y0206000D01*
X0126447Y0205376D01*
X0126680Y0204657D01*
X0127023Y0203984D01*
X0127467Y0203373D01*
X0128001Y0202839D01*
X0128613Y0202395D01*
X0129286Y0202052D01*
X0130004Y0201818D01*
X0130751Y0201700D01*
X0133928Y0201700D01*
X0133928Y0206000D01*
X0134928Y0206000D01*
X0134928Y0201700D01*
X0138106Y0201700D01*
X0138852Y0201818D01*
X0139571Y0202052D01*
X0141216Y0203199D02*
X0146931Y0203199D01*
X0147730Y0202400D02*
X0149128Y0202400D01*
X0149128Y0206200D01*
X0145328Y0206200D01*
X0145328Y0204802D01*
X0147730Y0202400D01*
X0149128Y0203199D02*
X0149728Y0203199D01*
X0149728Y0202400D02*
X0151127Y0202400D01*
X0153528Y0204802D01*
X0153528Y0206200D01*
X0149729Y0206200D01*
X0149729Y0206800D01*
X0153528Y0206800D01*
X0153528Y0208198D01*
X0151127Y0210600D01*
X0149728Y0210600D01*
X0149728Y0206800D01*
X0149128Y0206800D01*
X0149128Y0206200D01*
X0149728Y0206200D01*
X0149728Y0202400D01*
X0149728Y0204198D02*
X0149128Y0204198D01*
X0149128Y0205196D02*
X0149728Y0205196D01*
X0149728Y0206195D02*
X0149128Y0206195D01*
X0149128Y0206800D02*
X0145328Y0206800D01*
X0145328Y0208198D01*
X0147730Y0210600D01*
X0149128Y0210600D01*
X0149128Y0206800D01*
X0149128Y0207193D02*
X0149728Y0207193D01*
X0149728Y0208192D02*
X0149128Y0208192D01*
X0149128Y0209190D02*
X0149728Y0209190D01*
X0149728Y0210189D02*
X0149128Y0210189D01*
X0147319Y0210189D02*
X0140817Y0210189D01*
X0141707Y0209190D02*
X0146321Y0209190D01*
X0145328Y0208192D02*
X0142226Y0208192D01*
X0142478Y0207193D02*
X0145328Y0207193D01*
X0145328Y0206195D02*
X0134929Y0206195D01*
X0134928Y0207193D02*
X0133928Y0207193D01*
X0133928Y0207000D02*
X0133928Y0211300D01*
X0130751Y0211300D01*
X0130004Y0211182D01*
X0129286Y0210948D01*
X0128613Y0210605D01*
X0128001Y0210161D01*
X0127467Y0209627D01*
X0127023Y0209016D01*
X0126680Y0208343D01*
X0126447Y0207624D01*
X0126348Y0207000D01*
X0133928Y0207000D01*
X0133928Y0206195D02*
X0083628Y0206195D01*
X0083628Y0207193D02*
X0126378Y0207193D01*
X0126631Y0208192D02*
X0083628Y0208192D01*
X0083628Y0208896D02*
X0082388Y0213525D01*
X0079992Y0217675D01*
X0076604Y0221064D01*
X0072453Y0223460D01*
X0067825Y0224700D01*
X0063032Y0224700D01*
X0058404Y0223460D01*
X0054253Y0221064D01*
X0050865Y0217675D01*
X0048469Y0213525D01*
X0047228Y0208896D01*
X0047228Y0204104D01*
X0048469Y0199475D01*
X0050865Y0195325D01*
X0054253Y0191936D01*
X0058404Y0189540D01*
X0063032Y0188300D01*
X0067825Y0188300D01*
X0072453Y0189540D01*
X0076604Y0191936D01*
X0079992Y0195325D01*
X0082388Y0199475D01*
X0083628Y0204104D01*
X0083628Y0208896D01*
X0083550Y0209190D02*
X0127150Y0209190D01*
X0128040Y0210189D02*
X0083282Y0210189D01*
X0083015Y0211187D02*
X0130040Y0211187D01*
X0130134Y0211500D02*
X0128296Y0212261D01*
X0126890Y0213668D01*
X0126128Y0215505D01*
X0126128Y0217495D01*
X0126890Y0219332D01*
X0128296Y0220739D01*
X0130134Y0221500D01*
X0138723Y0221500D01*
X0140561Y0220739D01*
X0141967Y0219332D01*
X0142728Y0217495D01*
X0142728Y0215505D01*
X0141967Y0213668D01*
X0140561Y0212261D01*
X0138723Y0211500D01*
X0130134Y0211500D01*
X0128478Y0212186D02*
X0082747Y0212186D01*
X0082479Y0213184D02*
X0127373Y0213184D01*
X0126676Y0214183D02*
X0082008Y0214183D01*
X0081432Y0215181D02*
X0126263Y0215181D01*
X0126128Y0216180D02*
X0080855Y0216180D01*
X0080279Y0217178D02*
X0126128Y0217178D01*
X0126411Y0218177D02*
X0079490Y0218177D01*
X0078492Y0219175D02*
X0126825Y0219175D01*
X0127731Y0220174D02*
X0077493Y0220174D01*
X0076415Y0221172D02*
X0129343Y0221172D01*
X0139514Y0221172D02*
X0358629Y0221172D01*
X0358629Y0220174D02*
X0186836Y0220174D01*
X0186210Y0220800D02*
X0182647Y0220800D01*
X0180128Y0218281D01*
X0180128Y0214719D01*
X0182647Y0212200D01*
X0186210Y0212200D01*
X0188728Y0214719D01*
X0188728Y0218281D01*
X0186210Y0220800D01*
X0187834Y0219175D02*
X0358629Y0219175D01*
X0358629Y0218177D02*
X0188728Y0218177D01*
X0188728Y0217178D02*
X0358629Y0217178D01*
X0358629Y0216180D02*
X0188728Y0216180D01*
X0188728Y0215181D02*
X0358629Y0215181D01*
X0358629Y0214183D02*
X0188192Y0214183D01*
X0187194Y0213184D02*
X0358629Y0213184D01*
X0358629Y0212186D02*
X0140379Y0212186D01*
X0141484Y0213184D02*
X0161663Y0213184D01*
X0162647Y0212200D02*
X0166210Y0212200D01*
X0168728Y0214719D01*
X0168728Y0218281D01*
X0166210Y0220800D01*
X0162647Y0220800D01*
X0160128Y0218281D01*
X0160128Y0214719D01*
X0162647Y0212200D01*
X0161821Y0210189D02*
X0358629Y0210189D01*
X0358629Y0211187D02*
X0138817Y0211187D01*
X0134928Y0211187D02*
X0133928Y0211187D01*
X0133928Y0210189D02*
X0134928Y0210189D01*
X0134928Y0209190D02*
X0133928Y0209190D01*
X0133928Y0208192D02*
X0134928Y0208192D01*
X0134928Y0205196D02*
X0133928Y0205196D01*
X0133928Y0204198D02*
X0134928Y0204198D01*
X0134928Y0203199D02*
X0133928Y0203199D01*
X0133928Y0202201D02*
X0134928Y0202201D01*
X0129415Y0201202D02*
X0082851Y0201202D01*
X0082583Y0200204D02*
X0127761Y0200204D01*
X0126837Y0199205D02*
X0082232Y0199205D01*
X0081656Y0198207D02*
X0126423Y0198207D01*
X0126128Y0197208D02*
X0081079Y0197208D01*
X0080503Y0196210D02*
X0126128Y0196210D01*
X0126250Y0195211D02*
X0079878Y0195211D01*
X0078880Y0194213D02*
X0126664Y0194213D01*
X0127343Y0193214D02*
X0077881Y0193214D01*
X0076883Y0192216D02*
X0128406Y0192216D01*
X0132228Y0191217D02*
X0075358Y0191217D01*
X0073628Y0190219D02*
X0132228Y0190219D01*
X0132228Y0189220D02*
X0071258Y0189220D01*
X0059598Y0189220D02*
X0033928Y0189220D01*
X0033928Y0188222D02*
X0132228Y0188222D01*
X0132228Y0187223D02*
X0033928Y0187223D01*
X0033928Y0186225D02*
X0132228Y0186225D01*
X0132228Y0185226D02*
X0033928Y0185226D01*
X0033928Y0184228D02*
X0132228Y0184228D01*
X0132228Y0183229D02*
X0033928Y0183229D01*
X0033928Y0182231D02*
X0132228Y0182231D01*
X0132228Y0181232D02*
X0033928Y0181232D01*
X0033928Y0180234D02*
X0132228Y0180234D01*
X0132228Y0179235D02*
X0033928Y0179235D01*
X0033928Y0178237D02*
X0132228Y0178237D01*
X0132228Y0177238D02*
X0033928Y0177238D01*
X0033928Y0190219D02*
X0057229Y0190219D01*
X0055499Y0191217D02*
X0033928Y0191217D01*
X0033928Y0192216D02*
X0053974Y0192216D01*
X0052976Y0193214D02*
X0033928Y0193214D01*
X0033928Y0194213D02*
X0051977Y0194213D01*
X0050979Y0195211D02*
X0033928Y0195211D01*
X0033928Y0196210D02*
X0050354Y0196210D01*
X0049778Y0197208D02*
X0033928Y0197208D01*
X0033928Y0198207D02*
X0049201Y0198207D01*
X0048625Y0199205D02*
X0033928Y0199205D01*
X0033928Y0200204D02*
X0048274Y0200204D01*
X0048006Y0201202D02*
X0033928Y0201202D01*
X0033928Y0202201D02*
X0047738Y0202201D01*
X0047471Y0203199D02*
X0033928Y0203199D01*
X0033928Y0204198D02*
X0047228Y0204198D01*
X0047228Y0205196D02*
X0033928Y0205196D01*
X0033928Y0206195D02*
X0047228Y0206195D01*
X0047228Y0207193D02*
X0033928Y0207193D01*
X0033928Y0208192D02*
X0047228Y0208192D01*
X0047307Y0209190D02*
X0033928Y0209190D01*
X0033928Y0210189D02*
X0047575Y0210189D01*
X0047842Y0211187D02*
X0033928Y0211187D01*
X0033928Y0212186D02*
X0048110Y0212186D01*
X0048378Y0213184D02*
X0033928Y0213184D01*
X0033928Y0214183D02*
X0048849Y0214183D01*
X0049425Y0215181D02*
X0033928Y0215181D01*
X0033928Y0216180D02*
X0050002Y0216180D01*
X0050578Y0217178D02*
X0033928Y0217178D01*
X0033928Y0218177D02*
X0051367Y0218177D01*
X0052365Y0219175D02*
X0033928Y0219175D01*
X0033928Y0220174D02*
X0053364Y0220174D01*
X0054442Y0221172D02*
X0033928Y0221172D01*
X0033928Y0222171D02*
X0056171Y0222171D01*
X0057901Y0223170D02*
X0033928Y0223170D01*
X0033928Y0224168D02*
X0061047Y0224168D01*
X0069810Y0224168D02*
X0358629Y0224168D01*
X0358629Y0223170D02*
X0072956Y0223170D01*
X0074685Y0222171D02*
X0358629Y0222171D01*
X0358629Y0225167D02*
X0033928Y0225167D01*
X0033928Y0226165D02*
X0358629Y0226165D01*
X0358629Y0227164D02*
X0033928Y0227164D01*
X0033928Y0228162D02*
X0358629Y0228162D01*
X0358629Y0229161D02*
X0033928Y0229161D01*
X0033928Y0230159D02*
X0358629Y0230159D01*
X0358629Y0231158D02*
X0033928Y0231158D01*
X0083628Y0205196D02*
X0126505Y0205196D01*
X0126914Y0204198D02*
X0083628Y0204198D01*
X0083386Y0203199D02*
X0127641Y0203199D01*
X0128993Y0202201D02*
X0083119Y0202201D01*
X0134428Y0196500D02*
X0134428Y0076500D01*
X0144428Y0076500D01*
X0140504Y0072394D02*
X0131404Y0072394D01*
X0132402Y0073393D02*
X0138855Y0073393D01*
X0133426Y0074391D02*
X0133401Y0074391D01*
X0136628Y0079384D02*
X0138631Y0079384D01*
X0139965Y0080382D02*
X0136628Y0080382D01*
X0107230Y0080382D02*
X0083728Y0080382D01*
X0083393Y0079384D02*
X0106231Y0079384D01*
X0105233Y0078385D02*
X0082395Y0078385D01*
X0081396Y0077387D02*
X0105128Y0077387D01*
X0105128Y0055420D02*
X0096027Y0055420D01*
X0097314Y0054421D02*
X0105426Y0054421D01*
X0106425Y0053423D02*
X0098191Y0053423D01*
X0105128Y0107342D02*
X0079228Y0107342D01*
X0079228Y0108341D02*
X0105188Y0108341D01*
X0106187Y0109339D02*
X0079228Y0109339D01*
X0079203Y0110338D02*
X0107185Y0110338D01*
X0074928Y0110338D02*
X0073928Y0110338D01*
X0073928Y0111336D02*
X0074928Y0111336D01*
X0074928Y0112335D02*
X0073928Y0112335D01*
X0073928Y0113333D02*
X0074928Y0113333D01*
X0074928Y0114332D02*
X0073928Y0114332D01*
X0073928Y0109339D02*
X0074928Y0109339D01*
X0074928Y0108341D02*
X0073928Y0108341D01*
X0136628Y0175241D02*
X0358629Y0175241D01*
X0358629Y0176239D02*
X0136628Y0176239D01*
X0136628Y0177238D02*
X0358629Y0177238D01*
X0358629Y0178237D02*
X0136628Y0178237D01*
X0136628Y0179235D02*
X0358629Y0179235D01*
X0358629Y0180234D02*
X0136628Y0180234D01*
X0136628Y0181232D02*
X0358629Y0181232D01*
X0358629Y0182231D02*
X0136628Y0182231D01*
X0136628Y0183229D02*
X0358629Y0183229D01*
X0358629Y0184228D02*
X0136628Y0184228D01*
X0136628Y0185226D02*
X0358629Y0185226D01*
X0358629Y0186225D02*
X0136628Y0186225D01*
X0136628Y0187223D02*
X0358629Y0187223D01*
X0358629Y0188222D02*
X0136628Y0188222D01*
X0136628Y0189220D02*
X0358629Y0189220D01*
X0358629Y0190219D02*
X0136628Y0190219D01*
X0136628Y0191217D02*
X0358629Y0191217D01*
X0358629Y0206195D02*
X0163728Y0206195D01*
X0163728Y0207193D02*
X0358629Y0207193D01*
X0358629Y0208192D02*
X0163728Y0208192D01*
X0162819Y0209190D02*
X0358629Y0209190D01*
X0358629Y0160263D02*
X0341746Y0160263D01*
X0342745Y0159265D02*
X0358629Y0159265D01*
X0358629Y0158266D02*
X0343728Y0158266D01*
X0343728Y0157268D02*
X0358629Y0157268D01*
X0358629Y0156269D02*
X0343728Y0156269D01*
X0343728Y0155271D02*
X0358629Y0155271D01*
X0358629Y0154272D02*
X0343282Y0154272D01*
X0342283Y0153274D02*
X0358629Y0153274D01*
X0181663Y0213184D02*
X0167194Y0213184D01*
X0168192Y0214183D02*
X0180664Y0214183D01*
X0180128Y0215181D02*
X0168728Y0215181D01*
X0168728Y0216180D02*
X0180128Y0216180D01*
X0180128Y0217178D02*
X0168728Y0217178D01*
X0168728Y0218177D02*
X0180128Y0218177D01*
X0181023Y0219175D02*
X0167834Y0219175D01*
X0166836Y0220174D02*
X0182021Y0220174D01*
X0162021Y0220174D02*
X0141126Y0220174D01*
X0142032Y0219175D02*
X0161023Y0219175D01*
X0160128Y0218177D02*
X0142446Y0218177D01*
X0142728Y0217178D02*
X0160128Y0217178D01*
X0160128Y0216180D02*
X0142728Y0216180D01*
X0142594Y0215181D02*
X0160128Y0215181D01*
X0160664Y0214183D02*
X0142181Y0214183D01*
X0151538Y0210189D02*
X0157036Y0210189D01*
X0156038Y0209190D02*
X0152536Y0209190D01*
X0153528Y0208192D02*
X0155128Y0208192D01*
X0155128Y0207193D02*
X0153528Y0207193D01*
X0153528Y0206195D02*
X0155128Y0206195D01*
X0155128Y0205196D02*
X0153528Y0205196D01*
X0152925Y0204198D02*
X0155650Y0204198D01*
X0156648Y0203199D02*
X0151926Y0203199D01*
X0145932Y0204198D02*
X0141943Y0204198D01*
X0142352Y0205196D02*
X0145328Y0205196D01*
M02*
