G75*
%MOIN*%
%OFA0B0*%
%FSLAX25Y25*%
%IPPOS*%
%LPD*%
%AMOC8*
5,1,8,0,0,1.08239X$1,22.5*
%
%ADD10R,0.05524X0.05524*%
%ADD11R,0.06706X0.05918*%
%ADD12R,0.06312X0.07887*%
%ADD13R,0.03162X0.09461*%
%ADD14R,0.22060X0.25209*%
%ADD15R,0.04737X0.07099*%
%ADD16C,0.08674*%
%ADD17OC8,0.06400*%
%ADD18R,0.06312X0.04737*%
%ADD19R,0.05918X0.07099*%
%ADD20R,0.07099X0.05918*%
%ADD21R,0.03778X0.03778*%
%ADD22C,0.03778*%
D10*
X0160236Y0077081D03*
X0168504Y0077081D03*
X0179370Y0102947D03*
X0179370Y0111215D03*
X0189370Y0111215D03*
X0189370Y0102947D03*
X0189370Y0122947D03*
X0189370Y0131215D03*
X0179370Y0131215D03*
X0179370Y0122947D03*
X0179370Y0142947D03*
X0179370Y0151215D03*
X0189370Y0151215D03*
X0189370Y0142947D03*
D11*
X0089216Y0153303D03*
X0089216Y0160784D03*
X0079370Y0160821D03*
X0079370Y0153341D03*
X0039370Y0145821D03*
X0039370Y0138341D03*
X0029370Y0138341D03*
X0029370Y0145821D03*
D12*
X0072677Y0122081D03*
X0086063Y0122081D03*
D13*
X0099370Y0116845D03*
X0104370Y0116845D03*
X0109370Y0116845D03*
X0114370Y0116845D03*
X0119370Y0116845D03*
X0124370Y0116845D03*
X0129370Y0116845D03*
X0129370Y0137317D03*
X0124370Y0137317D03*
X0119370Y0137317D03*
X0114370Y0137317D03*
X0109370Y0137317D03*
X0104370Y0137317D03*
X0099370Y0137317D03*
D14*
X0059370Y0166924D03*
D15*
X0050394Y0138183D03*
X0068346Y0138183D03*
D16*
X0048307Y0090270D02*
X0040433Y0090270D01*
X0063268Y0098144D02*
X0063268Y0106018D01*
X0048307Y0114286D02*
X0040433Y0114286D01*
D17*
X0124348Y0174535D03*
X0124348Y0184535D03*
X0134348Y0184535D03*
X0144348Y0184535D03*
X0144348Y0174535D03*
X0134348Y0174535D03*
D18*
X0148701Y0140821D03*
X0148701Y0133341D03*
X0148701Y0125821D03*
X0148701Y0118341D03*
X0148701Y0110821D03*
X0148701Y0103341D03*
X0140039Y0107081D03*
X0139370Y0092081D03*
X0139370Y0084601D03*
X0148032Y0088341D03*
X0140039Y0122081D03*
X0140039Y0137081D03*
D19*
X0083110Y0132081D03*
X0075630Y0132081D03*
X0075630Y0112081D03*
X0083110Y0112081D03*
X0083110Y0102081D03*
X0075630Y0102081D03*
X0140630Y0077081D03*
X0148110Y0077081D03*
X0148110Y0067081D03*
X0140630Y0067081D03*
D20*
X0159370Y0103341D03*
X0159370Y0110821D03*
X0169370Y0110821D03*
X0169370Y0103341D03*
X0169370Y0123341D03*
X0169370Y0130821D03*
X0159370Y0130821D03*
X0159370Y0123341D03*
X0159370Y0143341D03*
X0159370Y0150821D03*
X0169370Y0150821D03*
X0169370Y0143341D03*
X0170379Y0176950D03*
X0170379Y0184431D03*
X0155666Y0184581D03*
X0155666Y0177101D03*
X0129370Y0160821D03*
X0129370Y0153341D03*
X0119370Y0153341D03*
X0119370Y0160821D03*
X0109370Y0160821D03*
X0109370Y0153341D03*
X0099370Y0153341D03*
X0099370Y0160821D03*
X0107815Y0175769D03*
X0107815Y0183249D03*
D21*
X0069370Y0132081D03*
X0069370Y0112081D03*
X0039370Y0132081D03*
X0029370Y0132081D03*
D22*
X0086743Y0144395D03*
X0099370Y0127081D03*
X0099370Y0107081D03*
X0099370Y0097081D03*
X0114370Y0107081D03*
X0129370Y0102081D03*
X0134370Y0107081D03*
X0134370Y0117081D03*
X0134370Y0122081D03*
X0134370Y0137081D03*
X0154370Y0137081D03*
X0154370Y0117081D03*
X0129370Y0092081D03*
X0154370Y0087081D03*
X0149370Y0157081D03*
X0099370Y0167081D03*
M02*
