%
M48
M72
T01C0.01378
T02C0.03200
T03C0.03937
T04C0.04000
T05C0.04400
T06C0.13000
%
T01
X159428Y101500
X169428Y101500
T02
X174428Y96500
X174428Y86500
X174428Y76500
X189428Y96500
X174428Y106500
X174428Y116500
X174428Y126500
X174428Y136500
X189428Y116500
X209428Y116500
X234428Y101500
X254428Y101500
X264428Y101500
X284428Y101500
X294428Y101500
X314428Y101500
X304428Y116500
X304428Y126500
X304428Y136500
X304428Y146500
X274428Y146500
X274428Y136500
X274428Y126500
X274428Y116500
X244428Y116500
X244428Y126500
X244428Y136500
X244428Y146500
X209428Y96500
X234428Y81500
X254428Y81500
X264428Y81500
X284428Y81500
X294428Y81500
X314428Y81500
X309428Y66500
X309428Y56500
X299428Y56500
X279428Y56500
X269428Y56500
X279428Y66500
X249428Y66500
X249428Y56500
X239428Y56500
X149428Y56500
X129428Y56500
X109428Y56500
X109428Y46500
X119428Y36500
X149428Y36500
X144428Y76500
X144428Y86500
X144428Y96500
X144428Y106500
X144428Y116500
X144428Y126500
X144428Y136500
X129428Y126500
X109428Y126500
X109428Y106500
X109428Y96500
X129428Y96500
X129428Y106500
X129428Y76500
X109428Y76500
X79428Y81500
X79428Y91500
X54428Y86500
X54428Y76500
X174428Y196500
X184428Y196500
X159428Y206500
X149428Y206500
X164428Y216500
X184428Y216500
X339428Y156500
X339428Y136500
T03
X74428Y34689
X93326Y46500
X74428Y58705
T04
X169428Y166500
X179428Y166500
X189428Y166500
X329428Y156500
T05
X134428Y196500
X134428Y206500
X134428Y216500
X74428Y106500
X64428Y106500
X54428Y106500
T06
X64428Y165500
X65428Y206500
M30
