%
M48
M72
T01C0.01378
T02C0.03200
T03C0.03937
T04C0.04000
T05C0.04400
T06C0.13000
%
T01
X156500Y66500
T02
X146500Y76500
X146500Y86500
X146500Y96500
X146500Y106500
X146500Y116500
X146500Y126500
X146500Y136500
X161500Y116500
X171500Y116500
X171500Y96500
X161500Y96500
X116500Y96500
X116500Y86500
X116500Y76500
X101500Y76500
X81500Y76500
X81500Y56500
X81500Y46500
X91500Y36500
X101500Y56500
X121500Y56500
X121500Y36500
X46500Y81500
X46500Y91500
X26500Y86500
X26500Y76500
X81500Y96500
X81500Y106500
X101500Y106500
X101500Y96500
X116500Y106500
X116500Y116500
X116500Y126500
X116500Y136500
X101500Y126500
X81500Y126500
X131500Y156500
X151500Y156500
X181500Y176500
X191500Y176500
X166500Y186500
X156500Y186500
X171500Y196500
X191500Y196500
X216500Y146500
X216500Y136500
X216500Y126500
X216500Y116500
X206500Y101500
X226500Y101500
X236500Y101500
X246500Y116500
X246500Y126500
X246500Y136500
X246500Y146500
X276500Y146500
X276500Y136500
X276500Y126500
X276500Y116500
X266500Y101500
X256500Y101500
X256500Y81500
X266500Y81500
X286500Y81500
X281500Y66500
X281500Y56500
X271500Y56500
X251500Y56500
X241500Y56500
X251500Y66500
X236500Y81500
X226500Y81500
X221500Y66500
X221500Y56500
X211500Y56500
X206500Y81500
X286500Y101500
X321500Y76500
X321500Y56500
T03
X46500Y34689
X65398Y46500
X46500Y58705
T04
X96500Y136500
X96500Y146500
X96500Y156500
X311500Y76500
T05
X141500Y176500
X141500Y186500
X141500Y196500
X46500Y106500
X36500Y106500
X26500Y106500
T06
X36500Y165500
X72500Y186500
M30
